<?xml version="1.0" encoding="UTF-8" standalone="no"?>
<!DOCTYPE svg PUBLIC "-//W3C//DTD SVG 1.1//EN"
 "http://www.w3.org/Graphics/SVG/1.1/DTD/svg11.dtd">
<!-- Generated by graphviz version 2.43.0 (0)
 -->
<!-- Title: BCInterface.cpp Pages: 1 -->
<!--zoomable 341 -->
<svg id="main" version="1.1" xmlns="http://www.w3.org/2000/svg" xmlns:xlink="http://www.w3.org/1999/xlink" xml:space="preserve" onload="init(evt)">
<style type="text/css"><![CDATA[
.edge:hover path { stroke: red; }
.edge:hover polygon { stroke: red; fill: red; }
]]></style>
<script type="text/javascript"><![CDATA[
var edges = document.getElementsByTagName('g');
if (edges && edges.length) {
  for (var i=0;i<edges.length;i++) {
    if (edges[i].id.substr(0,4)=='edge') {
      edges[i].setAttribute('class','edge');
    }
  }
}
]]></script>
        <defs>
                <circle id="rim" cx="0" cy="0" r="7"/>
                <circle id="rim2" cx="0" cy="0" r="3.5"/>
                <g id="zoomPlus">
                        <use xlink:href="#rim" fill="#404040">
                                <set attributeName="fill" to="#808080" begin="zoomplus.mouseover" end="zoomplus.mouseout"/>
                        </use>
                        <path d="M-4,0h8M0,-4v8" fill="none" stroke="white" stroke-width="1.5" pointer-events="none"/>
                </g>
                <g id="zoomMin">
                        <use xlink:href="#rim" fill="#404040">
                                <set attributeName="fill" to="#808080" begin="zoomminus.mouseover" end="zoomminus.mouseout"/>
                        </use>
                        <path d="M-4,0h8" fill="none" stroke="white" stroke-width="1.5" pointer-events="none"/>
                </g>
                <g id="dirArrow">
                        <path fill="none" stroke="white" stroke-width="1.5" d="M0,-3.0v7 M-2.5,-0.5L0,-3.0L2.5,-0.5"/>
                </g>
               <g id="resetDef">
                       <use xlink:href="#rim2" fill="#404040">
                               <set attributeName="fill" to="#808080" begin="reset.mouseover" end="reset.mouseout"/>
                       </use>
               </g>
        </defs>

<script type="text/javascript">
var viewWidth = 1883;
var viewHeight = 341;
var sectionId = 'dynsection-0';
</script>
<script xlink:href="svgpan.js"/>
<svg id="graph" class="graph">
<g id="viewport">
<title>BCInterface.cpp</title>
<polygon fill="white" stroke="transparent" points="-4,4 -4,-337 1879.14,-337 1879.14,4 -4,4"/>
<!-- Node1 -->
<g id="node1" class="node">
<title>Node1</title>
<g id="a_node1"><a xlink:title=" ">
<polygon fill="#bfbfbf" stroke="black" points="1101.64,-313.5 1101.64,-332.5 1195.64,-332.5 1195.64,-313.5 1101.64,-313.5"/>
<text text-anchor="middle" x="1148.64" y="-320.5" font-family="Helvetica,sans-Serif" font-size="10.00">BCInterface.cpp</text>
</a>
</g>
</g>
<!-- Node2 -->
<g id="node2" class="node">
<title>Node2</title>
<g id="a_node2"><a xlink:href="_b_c_interface_8_h.html" target="_top" xlink:title=" ">
<polygon fill="white" stroke="black" points="1362.14,-179.5 1362.14,-209.5 1529.14,-209.5 1529.14,-179.5 1362.14,-179.5"/>
<text text-anchor="start" x="1370.14" y="-197.5" font-family="Helvetica,sans-Serif" font-size="10.00">amr&#45;wind/boundary_conditions</text>
<text text-anchor="middle" x="1445.64" y="-186.5" font-family="Helvetica,sans-Serif" font-size="10.00">/BCInterface.H</text>
</a>
</g>
</g>
<!-- Node1&#45;&gt;Node2 -->
<g id="edge1" class="edge">
<title>Node1&#45;&gt;Node2</title>
<path fill="none" stroke="midnightblue" d="M1169.7,-313.49C1189.05,-305.29 1218.2,-291.94 1241.64,-277 1260.02,-265.28 1260.41,-256.25 1279.64,-246 1307.35,-231.23 1340,-220.12 1368.99,-212.13"/>
<polygon fill="midnightblue" stroke="midnightblue" points="1369.92,-215.51 1378.67,-209.54 1368.11,-208.74 1369.92,-215.51"/>
</g>
<!-- Node17 -->
<g id="node17" class="node">
<title>Node17</title>
<g id="a_node17"><a xlink:href="_field_repo_8_h.html" target="_top" xlink:title=" ">
<polygon fill="white" stroke="black" points="767.14,-185 767.14,-204 916.14,-204 916.14,-185 767.14,-185"/>
<text text-anchor="middle" x="841.64" y="-192" font-family="Helvetica,sans-Serif" font-size="10.00">amr&#45;wind/core/FieldRepo.H</text>
</a>
</g>
</g>
<!-- Node1&#45;&gt;Node17 -->
<g id="edge20" class="edge">
<title>Node1&#45;&gt;Node17</title>
<path fill="none" stroke="midnightblue" d="M1101.45,-319.98C1031.77,-316.08 905.9,-305.25 871.64,-277 852.87,-261.52 845.84,-233.16 843.21,-214.31"/>
<polygon fill="midnightblue" stroke="midnightblue" points="846.68,-213.81 842.1,-204.25 839.72,-214.58 846.68,-213.81"/>
</g>
<!-- Node26 -->
<g id="node26" class="node">
<title>Node26</title>
<g id="a_node26"><a xlink:href="_fixed_gradient_b_c_8_h.html" target="_top" xlink:title=" ">
<polygon fill="white" stroke="black" points="880.14,-246.5 880.14,-276.5 1047.14,-276.5 1047.14,-246.5 880.14,-246.5"/>
<text text-anchor="start" x="888.14" y="-264.5" font-family="Helvetica,sans-Serif" font-size="10.00">amr&#45;wind/boundary_conditions</text>
<text text-anchor="middle" x="963.64" y="-253.5" font-family="Helvetica,sans-Serif" font-size="10.00">/FixedGradientBC.H</text>
</a>
</g>
</g>
<!-- Node1&#45;&gt;Node26 -->
<g id="edge52" class="edge">
<title>Node1&#45;&gt;Node26</title>
<path fill="none" stroke="midnightblue" d="M1122.14,-313.48C1094.86,-304.7 1051.6,-290.79 1017.16,-279.71"/>
<polygon fill="midnightblue" stroke="midnightblue" points="1017.83,-276.25 1007.24,-276.52 1015.69,-282.92 1017.83,-276.25"/>
</g>
<!-- Node31 -->
<g id="node31" class="node">
<title>Node31</title>
<g id="a_node31"><a xlink:href="_mass_inflow_outflow_b_c_8_h.html" target="_top" xlink:title=" ">
<polygon fill="white" stroke="black" points="1065.14,-246.5 1065.14,-276.5 1232.14,-276.5 1232.14,-246.5 1065.14,-246.5"/>
<text text-anchor="start" x="1073.14" y="-264.5" font-family="Helvetica,sans-Serif" font-size="10.00">amr&#45;wind/boundary_conditions</text>
<text text-anchor="middle" x="1148.64" y="-253.5" font-family="Helvetica,sans-Serif" font-size="10.00">/MassInflowOutflowBC.H</text>
</a>
</g>
</g>
<!-- Node1&#45;&gt;Node31 -->
<g id="edge62" class="edge">
<title>Node1&#45;&gt;Node31</title>
<path fill="none" stroke="midnightblue" d="M1148.64,-313.48C1148.64,-306.47 1148.64,-296.19 1148.64,-286.7"/>
<polygon fill="midnightblue" stroke="midnightblue" points="1152.14,-286.52 1148.64,-276.52 1145.14,-286.52 1152.14,-286.52"/>
</g>
<!-- Node32 -->
<g id="node32" class="node">
<title>Node32</title>
<g id="a_node32"><a xlink:title=" ">
<polygon fill="white" stroke="#bfbfbf" points="1288.14,-252 1288.14,-271 1407.14,-271 1407.14,-252 1288.14,-252"/>
<text text-anchor="middle" x="1347.64" y="-259" font-family="Helvetica,sans-Serif" font-size="10.00">AMReX_ParmParse.H</text>
</a>
</g>
</g>
<!-- Node1&#45;&gt;Node32 -->
<g id="edge66" class="edge">
<title>Node1&#45;&gt;Node32</title>
<path fill="none" stroke="midnightblue" d="M1177.15,-313.48C1211.88,-303.09 1270.68,-285.51 1309.34,-273.95"/>
<polygon fill="midnightblue" stroke="midnightblue" points="1310.61,-277.23 1319.18,-271.01 1308.6,-270.52 1310.61,-277.23"/>
</g>
<!-- Node3 -->
<g id="node3" class="node">
<title>Node3</title>
<g id="a_node3"><a xlink:href="_field_8_h.html" target="_top" xlink:title=" ">
<polygon fill="white" stroke="black" points="1383.64,-118 1383.64,-137 1507.64,-137 1507.64,-118 1383.64,-118"/>
<text text-anchor="middle" x="1445.64" y="-125" font-family="Helvetica,sans-Serif" font-size="10.00">amr&#45;wind/core/Field.H</text>
</a>
</g>
</g>
<!-- Node2&#45;&gt;Node3 -->
<g id="edge2" class="edge">
<title>Node2&#45;&gt;Node3</title>
<path fill="none" stroke="midnightblue" d="M1445.64,-179.4C1445.64,-170.06 1445.64,-157.71 1445.64,-147.52"/>
<polygon fill="midnightblue" stroke="midnightblue" points="1449.14,-147.19 1445.64,-137.19 1442.14,-147.19 1449.14,-147.19"/>
</g>
<!-- Node11 -->
<g id="node11" class="node">
<title>Node11</title>
<g id="a_node11"><a xlink:href="incflo__enums_8_h.html" target="_top" xlink:title=" ">
<polygon fill="white" stroke="black" points="1734.14,-56.5 1734.14,-75.5 1875.14,-75.5 1875.14,-56.5 1734.14,-56.5"/>
<text text-anchor="middle" x="1804.64" y="-63.5" font-family="Helvetica,sans-Serif" font-size="10.00">amr&#45;wind/incflo_enums.H</text>
</a>
</g>
</g>
<!-- Node2&#45;&gt;Node11 -->
<g id="edge17" class="edge">
<title>Node2&#45;&gt;Node11</title>
<path fill="none" stroke="midnightblue" d="M1529.2,-184.03C1577.17,-176.67 1637.78,-164.05 1688.64,-143 1726.18,-127.46 1764.64,-99.38 1786.49,-82.05"/>
<polygon fill="midnightblue" stroke="midnightblue" points="1788.94,-84.57 1794.53,-75.56 1784.55,-79.12 1788.94,-84.57"/>
</g>
<!-- Node15 -->
<g id="node15" class="node">
<title>Node15</title>
<g id="a_node15"><a xlink:title=" ">
<polygon fill="white" stroke="#bfbfbf" points="1563.64,-118 1563.64,-137 1679.64,-137 1679.64,-118 1563.64,-118"/>
<text text-anchor="middle" x="1621.64" y="-125" font-family="Helvetica,sans-Serif" font-size="10.00">AMReX_BC_TYPES.H</text>
</a>
</g>
</g>
<!-- Node2&#45;&gt;Node15 -->
<g id="edge18" class="edge">
<title>Node2&#45;&gt;Node15</title>
<path fill="none" stroke="midnightblue" d="M1483.83,-179.4C1515.26,-167.79 1559.33,-151.51 1589.1,-140.52"/>
<polygon fill="midnightblue" stroke="midnightblue" points="1590.44,-143.75 1598.61,-137.01 1588.02,-137.19 1590.44,-143.75"/>
</g>
<!-- Node16 -->
<g id="node16" class="node">
<title>Node16</title>
<g id="a_node16"><a xlink:title=" ">
<polygon fill="white" stroke="#bfbfbf" points="505.14,-56.5 505.14,-75.5 550.14,-75.5 550.14,-56.5 505.14,-56.5"/>
<text text-anchor="middle" x="527.64" y="-63.5" font-family="Helvetica,sans-Serif" font-size="10.00">utility</text>
</a>
</g>
</g>
<!-- Node2&#45;&gt;Node16 -->
<g id="edge19" class="edge">
<title>Node2&#45;&gt;Node16</title>
<path fill="none" stroke="midnightblue" d="M1425.19,-179.48C1410.86,-169.54 1391.36,-155.75 1374.64,-143 1357.31,-129.79 1357,-119.79 1336.64,-112 1176.24,-50.63 734.64,-100.41 564.64,-76 563.17,-75.79 561.67,-75.54 560.16,-75.28"/>
<polygon fill="midnightblue" stroke="midnightblue" points="560.71,-71.82 550.21,-73.22 559.29,-78.67 560.71,-71.82"/>
</g>
<!-- Node4 -->
<g id="node4" class="node">
<title>Node4</title>
<g id="a_node4"><a xlink:title=" ">
<polygon fill="white" stroke="#bfbfbf" points="303.64,-0.5 303.64,-19.5 347.64,-19.5 347.64,-0.5 303.64,-0.5"/>
<text text-anchor="middle" x="325.64" y="-7.5" font-family="Helvetica,sans-Serif" font-size="10.00">string</text>
</a>
</g>
</g>
<!-- Node3&#45;&gt;Node4 -->
<g id="edge3" class="edge">
<title>Node3&#45;&gt;Node4</title>
<path fill="none" stroke="midnightblue" d="M1406.75,-118C1394.89,-115.7 1381.78,-113.45 1369.64,-112 1045.33,-73.3 958.43,-125.83 635.64,-76 601.12,-70.67 593.7,-63.75 559.64,-56 487.94,-39.69 403,-24.33 357.77,-16.47"/>
<polygon fill="midnightblue" stroke="midnightblue" points="358.13,-12.98 347.68,-14.73 356.94,-19.88 358.13,-12.98"/>
</g>
<!-- Node5 -->
<g id="node5" class="node">
<title>Node5</title>
<g id="a_node5"><a xlink:title=" ">
<polygon fill="white" stroke="#bfbfbf" points="1552.64,-56.5 1552.64,-75.5 1610.64,-75.5 1610.64,-56.5 1552.64,-56.5"/>
<text text-anchor="middle" x="1581.64" y="-63.5" font-family="Helvetica,sans-Serif" font-size="10.00">memory</text>
</a>
</g>
</g>
<!-- Node3&#45;&gt;Node5 -->
<g id="edge4" class="edge">
<title>Node3&#45;&gt;Node5</title>
<path fill="none" stroke="midnightblue" d="M1465.13,-117.98C1488.05,-107.95 1526.33,-91.2 1552.72,-79.65"/>
<polygon fill="midnightblue" stroke="midnightblue" points="1554.43,-82.72 1562.19,-75.51 1551.63,-76.31 1554.43,-82.72"/>
</g>
<!-- Node6 -->
<g id="node6" class="node">
<title>Node6</title>
<g id="a_node6"><a xlink:title=" ">
<polygon fill="white" stroke="#bfbfbf" points="1203.14,-56.5 1203.14,-75.5 1296.14,-75.5 1296.14,-56.5 1203.14,-56.5"/>
<text text-anchor="middle" x="1249.64" y="-63.5" font-family="Helvetica,sans-Serif" font-size="10.00">unordered_map</text>
</a>
</g>
</g>
<!-- Node3&#45;&gt;Node6 -->
<g id="edge5" class="edge">
<title>Node3&#45;&gt;Node6</title>
<path fill="none" stroke="midnightblue" d="M1417.56,-117.98C1383.36,-107.59 1325.45,-90.01 1287.37,-78.45"/>
<polygon fill="midnightblue" stroke="midnightblue" points="1288.26,-75.06 1277.67,-75.51 1286.22,-81.76 1288.26,-75.06"/>
</g>
<!-- Node7 -->
<g id="node7" class="node">
<title>Node7</title>
<g id="a_node7"><a xlink:title=" ">
<polygon fill="white" stroke="#bfbfbf" points="1314.64,-56.5 1314.64,-75.5 1378.64,-75.5 1378.64,-56.5 1314.64,-56.5"/>
<text text-anchor="middle" x="1346.64" y="-63.5" font-family="Helvetica,sans-Serif" font-size="10.00">algorithm</text>
</a>
</g>
</g>
<!-- Node3&#45;&gt;Node7 -->
<g id="edge6" class="edge">
<title>Node3&#45;&gt;Node7</title>
<path fill="none" stroke="midnightblue" d="M1431.46,-117.98C1415.29,-108.25 1388.62,-92.23 1369.5,-80.74"/>
<polygon fill="midnightblue" stroke="midnightblue" points="1371.17,-77.66 1360.8,-75.51 1367.57,-83.66 1371.17,-77.66"/>
</g>
<!-- Node8 -->
<g id="node8" class="node">
<title>Node8</title>
<g id="a_node8"><a xlink:title=" ">
<polygon fill="white" stroke="#bfbfbf" points="1099.14,-0.5 1099.14,-19.5 1208.14,-19.5 1208.14,-0.5 1099.14,-0.5"/>
<text text-anchor="middle" x="1153.64" y="-7.5" font-family="Helvetica,sans-Serif" font-size="10.00">AMReX_MultiFab.H</text>
</a>
</g>
</g>
<!-- Node3&#45;&gt;Node8 -->
<g id="edge7" class="edge">
<title>Node3&#45;&gt;Node8</title>
<path fill="none" stroke="midnightblue" d="M1462.24,-117.96C1486.07,-104.62 1525.08,-78.08 1505.64,-56 1487.01,-34.83 1315,-20.93 1218.52,-14.72"/>
<polygon fill="midnightblue" stroke="midnightblue" points="1218.48,-11.21 1208.28,-14.07 1218.04,-18.2 1218.48,-11.21"/>
</g>
<!-- Node9 -->
<g id="node9" class="node">
<title>Node9</title>
<g id="a_node9"><a xlink:title=" ">
<polygon fill="white" stroke="#bfbfbf" points="1397.14,-56.5 1397.14,-75.5 1496.14,-75.5 1496.14,-56.5 1397.14,-56.5"/>
<text text-anchor="middle" x="1446.64" y="-63.5" font-family="Helvetica,sans-Serif" font-size="10.00">AMReX_BCRec.H</text>
</a>
</g>
</g>
<!-- Node3&#45;&gt;Node9 -->
<g id="edge8" class="edge">
<title>Node3&#45;&gt;Node9</title>
<path fill="none" stroke="midnightblue" d="M1445.79,-117.98C1445.93,-109.58 1446.15,-96.48 1446.33,-85.66"/>
<polygon fill="midnightblue" stroke="midnightblue" points="1449.83,-85.57 1446.5,-75.51 1442.83,-85.45 1449.83,-85.57"/>
</g>
<!-- Node10 -->
<g id="node10" class="node">
<title>Node10</title>
<g id="a_node10"><a xlink:title=" ">
<polygon fill="white" stroke="#bfbfbf" points="1629.14,-56.5 1629.14,-75.5 1716.14,-75.5 1716.14,-56.5 1629.14,-56.5"/>
<text text-anchor="middle" x="1672.64" y="-63.5" font-family="Helvetica,sans-Serif" font-size="10.00">AMReX_Gpu.H</text>
</a>
</g>
</g>
<!-- Node3&#45;&gt;Node10 -->
<g id="edge9" class="edge">
<title>Node3&#45;&gt;Node10</title>
<path fill="none" stroke="midnightblue" d="M1478.17,-117.98C1518.2,-107.48 1586.28,-89.64 1630.34,-78.09"/>
<polygon fill="midnightblue" stroke="midnightblue" points="1631.39,-81.43 1640.18,-75.51 1629.62,-74.66 1631.39,-81.43"/>
</g>
<!-- Node3&#45;&gt;Node11 -->
<g id="edge10" class="edge">
<title>Node3&#45;&gt;Node11</title>
<path fill="none" stroke="midnightblue" d="M1497.08,-117.98C1562.13,-107.19 1673.99,-88.65 1743.38,-77.15"/>
<polygon fill="midnightblue" stroke="midnightblue" points="1744.01,-80.6 1753.3,-75.51 1742.86,-73.69 1744.01,-80.6"/>
</g>
<!-- Node12 -->
<g id="node12" class="node">
<title>Node12</title>
<g id="a_node12"><a xlink:href="_field_desc_types_8_h.html" target="_top" xlink:title=" ">
<polygon fill="white" stroke="black" points="747.64,-0.5 747.64,-19.5 923.64,-19.5 923.64,-0.5 747.64,-0.5"/>
<text text-anchor="middle" x="835.64" y="-7.5" font-family="Helvetica,sans-Serif" font-size="10.00">amr&#45;wind/core/FieldDescTypes.H</text>
</a>
</g>
</g>
<!-- Node3&#45;&gt;Node12 -->
<g id="edge11" class="edge">
<title>Node3&#45;&gt;Node12</title>
<path fill="none" stroke="midnightblue" d="M1405.14,-117.98C1393.7,-115.79 1381.22,-113.6 1369.64,-112 1185.81,-86.58 1131.21,-129.94 953.64,-76 934.24,-70.11 886.99,-42.38 858.51,-25.09"/>
<polygon fill="midnightblue" stroke="midnightblue" points="860,-21.9 849.64,-19.68 856.35,-27.88 860,-21.9"/>
</g>
<!-- Node13 -->
<g id="node13" class="node">
<title>Node13</title>
<g id="a_node13"><a xlink:href="_view_field_8_h.html" target="_top" xlink:title=" ">
<polygon fill="white" stroke="black" points="644.64,-56.5 644.64,-75.5 792.64,-75.5 792.64,-56.5 644.64,-56.5"/>
<text text-anchor="middle" x="718.64" y="-63.5" font-family="Helvetica,sans-Serif" font-size="10.00">amr&#45;wind/core/ViewField.H</text>
</a>
</g>
</g>
<!-- Node3&#45;&gt;Node13 -->
<g id="edge12" class="edge">
<title>Node3&#45;&gt;Node13</title>
<path fill="none" stroke="midnightblue" d="M1405.95,-118C1394.3,-115.76 1381.5,-113.54 1369.64,-112 1262.42,-98.12 953.21,-79.92 802.81,-71.56"/>
<polygon fill="midnightblue" stroke="midnightblue" points="802.87,-68.06 792.69,-71 802.48,-75.05 802.87,-68.06"/>
</g>
<!-- Node13&#45;&gt;Node4 -->
<g id="edge13" class="edge">
<title>Node13&#45;&gt;Node4</title>
<path fill="none" stroke="midnightblue" d="M656.37,-56.44C571.7,-44.81 423.33,-24.42 358.04,-15.45"/>
<polygon fill="midnightblue" stroke="midnightblue" points="358.31,-11.96 347.93,-14.06 357.36,-18.89 358.31,-11.96"/>
</g>
<!-- Node13&#45;&gt;Node8 -->
<g id="edge15" class="edge">
<title>Node13&#45;&gt;Node8</title>
<path fill="none" stroke="midnightblue" d="M792.25,-56.49C864.88,-48 979.36,-34.36 1088.62,-20.11"/>
<polygon fill="midnightblue" stroke="midnightblue" points="1089.38,-23.54 1098.84,-18.78 1088.47,-16.6 1089.38,-23.54"/>
</g>
<!-- Node13&#45;&gt;Node12 -->
<g id="edge14" class="edge">
<title>Node13&#45;&gt;Node12</title>
<path fill="none" stroke="midnightblue" d="M737.18,-56.44C756.27,-47.64 786.22,-33.81 808.08,-23.72"/>
<polygon fill="midnightblue" stroke="midnightblue" points="809.58,-26.88 817.19,-19.52 806.64,-20.53 809.58,-26.88"/>
</g>
<!-- Node14 -->
<g id="node14" class="node">
<title>Node14</title>
<g id="a_node14"><a xlink:title=" ">
<polygon fill="white" stroke="#bfbfbf" points="567.64,-0.5 567.64,-19.5 665.64,-19.5 665.64,-0.5 567.64,-0.5"/>
<text text-anchor="middle" x="616.64" y="-7.5" font-family="Helvetica,sans-Serif" font-size="10.00">AMReX_Vector.H</text>
</a>
</g>
</g>
<!-- Node13&#45;&gt;Node14 -->
<g id="edge16" class="edge">
<title>Node13&#45;&gt;Node14</title>
<path fill="none" stroke="midnightblue" d="M702.25,-56.32C685.97,-47.7 660.78,-34.36 641.93,-24.39"/>
<polygon fill="midnightblue" stroke="midnightblue" points="643.47,-21.24 632.99,-19.65 640.19,-27.43 643.47,-21.24"/>
</g>
<!-- Node17&#45;&gt;Node3 -->
<g id="edge28" class="edge">
<title>Node17&#45;&gt;Node3</title>
<path fill="none" stroke="midnightblue" d="M886.88,-184.98C899.4,-182.81 913.02,-180.64 925.64,-179 1107.48,-155.38 1154.38,-163.09 1336.64,-143 1349.07,-141.63 1362.27,-140.01 1375.04,-138.36"/>
<polygon fill="midnightblue" stroke="midnightblue" points="1375.7,-141.81 1385.16,-137.04 1374.79,-134.86 1375.7,-141.81"/>
</g>
<!-- Node17&#45;&gt;Node4 -->
<g id="edge21" class="edge">
<title>Node17&#45;&gt;Node4</title>
<path fill="none" stroke="midnightblue" d="M766.89,-194.17C575.52,-195.16 79.18,-192.83 25.64,-143 -2.81,-116.52 -8.79,-85.4 16.64,-56 52.15,-14.95 221.13,-10.59 293.08,-10.63"/>
<polygon fill="midnightblue" stroke="midnightblue" points="293.35,-14.13 303.37,-10.67 293.38,-7.13 293.35,-14.13"/>
</g>
<!-- Node17&#45;&gt;Node6 -->
<g id="edge22" class="edge">
<title>Node17&#45;&gt;Node6</title>
<path fill="none" stroke="midnightblue" d="M863.31,-184.89C903.41,-169.14 992.1,-135.19 1068.64,-112 1112.83,-98.61 1163.95,-86.18 1200.57,-77.79"/>
<polygon fill="midnightblue" stroke="midnightblue" points="1201.52,-81.16 1210.49,-75.53 1199.97,-74.33 1201.52,-81.16"/>
</g>
<!-- Node17&#45;&gt;Node8 -->
<g id="edge50" class="edge">
<title>Node17&#45;&gt;Node8</title>
<path fill="none" stroke="midnightblue" d="M867.17,-184.98C935.9,-161.84 1120.93,-98.05 1139.64,-76 1150.49,-63.22 1153.53,-44.03 1154.14,-29.81"/>
<polygon fill="midnightblue" stroke="midnightblue" points="1157.64,-29.71 1154.2,-19.69 1150.64,-29.67 1157.64,-29.71"/>
</g>
<!-- Node17&#45;&gt;Node12 -->
<g id="edge23" class="edge">
<title>Node17&#45;&gt;Node12</title>
<path fill="none" stroke="midnightblue" d="M841.47,-184.93C841.17,-170.08 840.5,-138.6 839.64,-112 838.72,-83.28 837.34,-49.97 836.47,-29.7"/>
<polygon fill="midnightblue" stroke="midnightblue" points="839.96,-29.48 836.03,-19.65 832.97,-29.79 839.96,-29.48"/>
</g>
<!-- Node18 -->
<g id="node18" class="node">
<title>Node18</title>
<g id="a_node18"><a xlink:href="_field_utils_8_h.html" target="_top" xlink:title=" ">
<polygon fill="white" stroke="black" points="962.64,-56.5 962.64,-75.5 1108.64,-75.5 1108.64,-56.5 962.64,-56.5"/>
<text text-anchor="middle" x="1035.64" y="-63.5" font-family="Helvetica,sans-Serif" font-size="10.00">amr&#45;wind/core/FieldUtils.H</text>
</a>
</g>
</g>
<!-- Node17&#45;&gt;Node18 -->
<g id="edge24" class="edge">
<title>Node17&#45;&gt;Node18</title>
<path fill="none" stroke="midnightblue" d="M853.39,-184.85C874.24,-169.61 919.22,-137.19 958.64,-112 975.93,-100.95 995.95,-89.29 1011.24,-80.6"/>
<polygon fill="midnightblue" stroke="midnightblue" points="1013.1,-83.57 1020.09,-75.61 1009.66,-77.48 1013.1,-83.57"/>
</g>
<!-- Node20 -->
<g id="node20" class="node">
<title>Node20</title>
<g id="a_node20"><a xlink:href="_int_field_8_h.html" target="_top" xlink:title=" ">
<polygon fill="white" stroke="black" points="35.14,-118 35.14,-137 172.14,-137 172.14,-118 35.14,-118"/>
<text text-anchor="middle" x="103.64" y="-125" font-family="Helvetica,sans-Serif" font-size="10.00">amr&#45;wind/core/IntField.H</text>
</a>
</g>
</g>
<!-- Node17&#45;&gt;Node20 -->
<g id="edge29" class="edge">
<title>Node17&#45;&gt;Node20</title>
<path fill="none" stroke="midnightblue" d="M766.83,-187.93C652.19,-179.26 426.2,-161.57 234.64,-143 217.7,-141.36 199.54,-139.45 182.3,-137.56"/>
<polygon fill="midnightblue" stroke="midnightblue" points="182.6,-134.07 172.27,-136.45 181.83,-141.03 182.6,-134.07"/>
</g>
<!-- Node21 -->
<g id="node21" class="node">
<title>Node21</title>
<g id="a_node21"><a xlink:title=" ">
<polygon fill="white" stroke="#bfbfbf" points="34.64,-56.5 34.64,-75.5 146.64,-75.5 146.64,-56.5 34.64,-56.5"/>
<text text-anchor="middle" x="90.64" y="-63.5" font-family="Helvetica,sans-Serif" font-size="10.00">AMReX_iMultiFab.H</text>
</a>
</g>
</g>
<!-- Node17&#45;&gt;Node21 -->
<g id="edge51" class="edge">
<title>Node17&#45;&gt;Node21</title>
<path fill="none" stroke="midnightblue" d="M766.94,-192.93C660.37,-190.71 459.16,-181.25 292.64,-143 227.94,-128.14 156.05,-97.45 117.9,-79.95"/>
<polygon fill="midnightblue" stroke="midnightblue" points="119.06,-76.63 108.52,-75.6 116.12,-82.98 119.06,-76.63"/>
</g>
<!-- Node22 -->
<g id="node22" class="node">
<title>Node22</title>
<g id="a_node22"><a xlink:href="_scratch_field_8_h.html" target="_top" xlink:title=" ">
<polygon fill="white" stroke="black" points="539.64,-118 539.64,-137 699.64,-137 699.64,-118 539.64,-118"/>
<text text-anchor="middle" x="619.64" y="-125" font-family="Helvetica,sans-Serif" font-size="10.00">amr&#45;wind/core/ScratchField.H</text>
</a>
</g>
</g>
<!-- Node17&#45;&gt;Node22 -->
<g id="edge33" class="edge">
<title>Node17&#45;&gt;Node22</title>
<path fill="none" stroke="midnightblue" d="M812.16,-184.87C772.66,-173.3 702.46,-152.75 658.63,-139.91"/>
<polygon fill="midnightblue" stroke="midnightblue" points="659.47,-136.51 648.89,-137.06 657.5,-143.23 659.47,-136.51"/>
</g>
<!-- Node24 -->
<g id="node24" class="node">
<title>Node24</title>
<g id="a_node24"><a xlink:href="_int_scratch_field_8_h.html" target="_top" xlink:title=" ">
<polygon fill="white" stroke="black" points="301.14,-112.5 301.14,-142.5 440.14,-142.5 440.14,-112.5 301.14,-112.5"/>
<text text-anchor="start" x="309.14" y="-130.5" font-family="Helvetica,sans-Serif" font-size="10.00">amr&#45;wind/core/IntScratch</text>
<text text-anchor="middle" x="370.64" y="-119.5" font-family="Helvetica,sans-Serif" font-size="10.00">Field.H</text>
</a>
</g>
</g>
<!-- Node17&#45;&gt;Node24 -->
<g id="edge41" class="edge">
<title>Node17&#45;&gt;Node24</title>
<path fill="none" stroke="midnightblue" d="M779.58,-184.94C694.99,-173.26 543.39,-152.34 450.43,-139.51"/>
<polygon fill="midnightblue" stroke="midnightblue" points="450.9,-136.04 440.51,-138.14 449.94,-142.98 450.9,-136.04"/>
</g>
<!-- Node25 -->
<g id="node25" class="node">
<title>Node25</title>
<g id="a_node25"><a xlink:title=" ">
<polygon fill="white" stroke="#bfbfbf" points="720.64,-118 720.64,-137 830.64,-137 830.64,-118 720.64,-118"/>
<text text-anchor="middle" x="775.64" y="-125" font-family="Helvetica,sans-Serif" font-size="10.00">AMReX_AmrCore.H</text>
</a>
</g>
</g>
<!-- Node17&#45;&gt;Node25 -->
<g id="edge49" class="edge">
<title>Node17&#45;&gt;Node25</title>
<path fill="none" stroke="midnightblue" d="M832.74,-184.73C822.25,-174.4 804.62,-157.04 791.72,-144.33"/>
<polygon fill="midnightblue" stroke="midnightblue" points="793.98,-141.65 784.4,-137.13 789.07,-146.64 793.98,-141.65"/>
</g>
<!-- Node18&#45;&gt;Node8 -->
<g id="edge26" class="edge">
<title>Node18&#45;&gt;Node8</title>
<path fill="none" stroke="midnightblue" d="M1054.34,-56.44C1073.59,-47.64 1103.8,-33.81 1125.84,-23.72"/>
<polygon fill="midnightblue" stroke="midnightblue" points="1127.4,-26.86 1135.03,-19.52 1124.48,-20.5 1127.4,-26.86"/>
</g>
<!-- Node18&#45;&gt;Node12 -->
<g id="edge25" class="edge">
<title>Node18&#45;&gt;Node12</title>
<path fill="none" stroke="midnightblue" d="M1003.95,-56.44C969.57,-47.16 914.57,-32.31 876.85,-22.13"/>
<polygon fill="midnightblue" stroke="midnightblue" points="877.75,-18.74 867.19,-19.52 875.93,-25.5 877.75,-18.74"/>
</g>
<!-- Node19 -->
<g id="node19" class="node">
<title>Node19</title>
<g id="a_node19"><a xlink:title=" ">
<polygon fill="white" stroke="#bfbfbf" points="956.64,-0.5 956.64,-19.5 1080.64,-19.5 1080.64,-0.5 956.64,-0.5"/>
<text text-anchor="middle" x="1018.64" y="-7.5" font-family="Helvetica,sans-Serif" font-size="10.00">AMReX_Interpolater.H</text>
</a>
</g>
</g>
<!-- Node18&#45;&gt;Node19 -->
<g id="edge27" class="edge">
<title>Node18&#45;&gt;Node19</title>
<path fill="none" stroke="midnightblue" d="M1032.84,-56.08C1030.56,-48.85 1027.27,-38.41 1024.43,-29.4"/>
<polygon fill="midnightblue" stroke="midnightblue" points="1027.74,-28.24 1021.4,-19.75 1021.06,-30.34 1027.74,-28.24"/>
</g>
<!-- Node20&#45;&gt;Node4 -->
<g id="edge30" class="edge">
<title>Node20&#45;&gt;Node4</title>
<path fill="none" stroke="midnightblue" d="M80.93,-117.92C50.95,-105.36 4.32,-80.76 25.64,-56 59.97,-16.14 223.37,-11.09 293.52,-10.79"/>
<polygon fill="midnightblue" stroke="midnightblue" points="293.56,-14.29 303.56,-10.78 293.56,-7.29 293.56,-14.29"/>
</g>
<!-- Node20&#45;&gt;Node12 -->
<g id="edge31" class="edge">
<title>Node20&#45;&gt;Node12</title>
<path fill="none" stroke="midnightblue" d="M122.25,-117.89C156.38,-102.53 231.65,-70.65 298.64,-56 340.23,-46.91 594.12,-28 737.41,-17.83"/>
<polygon fill="midnightblue" stroke="midnightblue" points="737.81,-21.31 747.53,-17.11 737.31,-14.32 737.81,-21.31"/>
</g>
<!-- Node20&#45;&gt;Node21 -->
<g id="edge32" class="edge">
<title>Node20&#45;&gt;Node21</title>
<path fill="none" stroke="midnightblue" d="M101.78,-117.98C99.93,-109.49 97.02,-96.2 94.65,-85.32"/>
<polygon fill="midnightblue" stroke="midnightblue" points="98.06,-84.53 92.5,-75.51 91.22,-86.03 98.06,-84.53"/>
</g>
<!-- Node22&#45;&gt;Node4 -->
<g id="edge34" class="edge">
<title>Node22&#45;&gt;Node4</title>
<path fill="none" stroke="midnightblue" d="M597.18,-117.93C572.33,-108.31 531.24,-91.94 496.64,-76 478.95,-67.85 475.58,-63.61 457.64,-56 424.24,-41.83 384.71,-28.83 357.68,-20.49"/>
<polygon fill="midnightblue" stroke="midnightblue" points="358.55,-17.09 347.96,-17.52 356.51,-23.79 358.55,-17.09"/>
</g>
<!-- Node22&#45;&gt;Node8 -->
<g id="edge38" class="edge">
<title>Node22&#45;&gt;Node8</title>
<path fill="none" stroke="midnightblue" d="M669.69,-117.98C683.28,-115.84 698,-113.68 711.64,-112 801.54,-100.94 1041.72,-125.39 1117.64,-76 1134,-65.36 1143.6,-44.6 1148.71,-29.39"/>
<polygon fill="midnightblue" stroke="midnightblue" points="1152.15,-30.11 1151.68,-19.52 1145.45,-28.09 1152.15,-30.11"/>
</g>
<!-- Node22&#45;&gt;Node12 -->
<g id="edge36" class="edge">
<title>Node22&#45;&gt;Node12</title>
<path fill="none" stroke="midnightblue" d="M666.02,-118C712.76,-108.68 780.86,-92.8 801.64,-76 816.32,-64.13 825.4,-44.22 830.44,-29.55"/>
<polygon fill="midnightblue" stroke="midnightblue" points="833.92,-30.17 833.54,-19.58 827.23,-28.1 833.92,-30.17"/>
</g>
<!-- Node22&#45;&gt;Node13 -->
<g id="edge37" class="edge">
<title>Node22&#45;&gt;Node13</title>
<path fill="none" stroke="midnightblue" d="M633.83,-117.98C650,-108.25 676.67,-92.23 695.79,-80.74"/>
<polygon fill="midnightblue" stroke="midnightblue" points="697.72,-83.66 704.48,-75.51 694.11,-77.66 697.72,-83.66"/>
</g>
<!-- Node22&#45;&gt;Node14 -->
<g id="edge39" class="edge">
<title>Node22&#45;&gt;Node14</title>
<path fill="none" stroke="midnightblue" d="M619.42,-117.82C618.94,-99.26 617.79,-55.34 617.14,-29.97"/>
<polygon fill="midnightblue" stroke="midnightblue" points="620.63,-29.69 616.87,-19.78 613.63,-29.87 620.63,-29.69"/>
</g>
<!-- Node22&#45;&gt;Node16 -->
<g id="edge35" class="edge">
<title>Node22&#45;&gt;Node16</title>
<path fill="none" stroke="midnightblue" d="M606.46,-117.98C591.57,-108.34 567.1,-92.52 549.37,-81.05"/>
<polygon fill="midnightblue" stroke="midnightblue" points="551.1,-78 540.8,-75.51 547.3,-83.88 551.1,-78"/>
</g>
<!-- Node23 -->
<g id="node23" class="node">
<title>Node23</title>
<g id="a_node23"><a xlink:title=" ">
<polygon fill="white" stroke="#bfbfbf" points="317.14,-56.5 317.14,-75.5 448.14,-75.5 448.14,-56.5 317.14,-56.5"/>
<text text-anchor="middle" x="382.64" y="-63.5" font-family="Helvetica,sans-Serif" font-size="10.00">AMReX_PhysBCFunct.H</text>
</a>
</g>
</g>
<!-- Node22&#45;&gt;Node23 -->
<g id="edge40" class="edge">
<title>Node22&#45;&gt;Node23</title>
<path fill="none" stroke="midnightblue" d="M585.69,-117.98C543.8,-107.46 472.51,-89.56 426.51,-78.01"/>
<polygon fill="midnightblue" stroke="midnightblue" points="427.09,-74.55 416.54,-75.51 425.38,-81.34 427.09,-74.55"/>
</g>
<!-- Node24&#45;&gt;Node4 -->
<g id="edge42" class="edge">
<title>Node24&#45;&gt;Node4</title>
<path fill="none" stroke="midnightblue" d="M301.05,-114.78C259.08,-106.14 211.33,-92.94 198.64,-76 171.58,-39.85 247.46,-22.23 293.4,-15.07"/>
<polygon fill="midnightblue" stroke="midnightblue" points="294.14,-18.5 303.52,-13.59 293.12,-11.58 294.14,-18.5"/>
</g>
<!-- Node24&#45;&gt;Node12 -->
<g id="edge44" class="edge">
<title>Node24&#45;&gt;Node12</title>
<path fill="none" stroke="midnightblue" d="M343.58,-112.3C319.63,-97.95 291,-75.21 308.64,-56 315.81,-48.2 586.76,-28.24 737.28,-17.72"/>
<polygon fill="midnightblue" stroke="midnightblue" points="737.73,-21.2 747.46,-17.01 737.24,-14.22 737.73,-21.2"/>
</g>
<!-- Node24&#45;&gt;Node13 -->
<g id="edge45" class="edge">
<title>Node24&#45;&gt;Node13</title>
<path fill="none" stroke="midnightblue" d="M440.23,-114.6C504.17,-103.67 597.96,-87.63 658.66,-77.26"/>
<polygon fill="midnightblue" stroke="midnightblue" points="659.59,-80.65 668.85,-75.51 658.41,-73.75 659.59,-80.65"/>
</g>
<!-- Node24&#45;&gt;Node14 -->
<g id="edge47" class="edge">
<title>Node24&#45;&gt;Node14</title>
<path fill="none" stroke="midnightblue" d="M325.05,-112.5C291.15,-99.78 254.05,-79.47 274.64,-56 292.96,-35.12 464.38,-20.87 557.35,-14.6"/>
<polygon fill="midnightblue" stroke="midnightblue" points="557.72,-18.09 567.46,-13.93 557.25,-11.1 557.72,-18.09"/>
</g>
<!-- Node24&#45;&gt;Node16 -->
<g id="edge43" class="edge">
<title>Node24&#45;&gt;Node16</title>
<path fill="none" stroke="midnightblue" d="M407.85,-112.4C434.43,-102.33 469.83,-88.91 495.25,-79.28"/>
<polygon fill="midnightblue" stroke="midnightblue" points="496.69,-82.47 504.8,-75.66 494.21,-75.93 496.69,-82.47"/>
</g>
<!-- Node24&#45;&gt;Node21 -->
<g id="edge46" class="edge">
<title>Node24&#45;&gt;Node21</title>
<path fill="none" stroke="midnightblue" d="M304.64,-112.47C254.44,-101.81 186.42,-87.35 140.66,-77.63"/>
<polygon fill="midnightblue" stroke="midnightblue" points="141.18,-74.16 130.67,-75.51 139.73,-81.01 141.18,-74.16"/>
</g>
<!-- Node24&#45;&gt;Node23 -->
<g id="edge48" class="edge">
<title>Node24&#45;&gt;Node23</title>
<path fill="none" stroke="midnightblue" d="M373.49,-112.4C375.1,-104.38 377.15,-94.23 378.9,-85.57"/>
<polygon fill="midnightblue" stroke="midnightblue" points="382.35,-86.15 380.9,-75.66 375.49,-84.77 382.35,-86.15"/>
</g>
<!-- Node26&#45;&gt;Node17 -->
<g id="edge60" class="edge">
<title>Node26&#45;&gt;Node17</title>
<path fill="none" stroke="midnightblue" d="M937.17,-246.4C916.24,-235.24 887.22,-219.78 866.67,-208.83"/>
<polygon fill="midnightblue" stroke="midnightblue" points="868.08,-205.62 857.61,-204.01 864.79,-211.8 868.08,-205.62"/>
</g>
<!-- Node27 -->
<g id="node27" class="node">
<title>Node27</title>
<g id="a_node27"><a xlink:href="_field_b_c_ops_8_h.html" target="_top" xlink:title=" ">
<polygon fill="white" stroke="black" points="1074.64,-185 1074.64,-204 1230.64,-204 1230.64,-185 1074.64,-185"/>
<text text-anchor="middle" x="1152.64" y="-192" font-family="Helvetica,sans-Serif" font-size="10.00">amr&#45;wind/core/FieldBCOps.H</text>
</a>
</g>
</g>
<!-- Node26&#45;&gt;Node27 -->
<g id="edge53" class="edge">
<title>Node26&#45;&gt;Node27</title>
<path fill="none" stroke="midnightblue" d="M1004.65,-246.4C1038.55,-234.74 1086.13,-218.37 1118.11,-207.38"/>
<polygon fill="midnightblue" stroke="midnightblue" points="1119.59,-210.57 1127.91,-204.01 1117.31,-203.95 1119.59,-210.57"/>
</g>
<!-- Node30 -->
<g id="node30" class="node">
<title>Node30</title>
<g id="a_node30"><a xlink:title=" ">
<polygon fill="white" stroke="#bfbfbf" points="934.64,-185 934.64,-204 1056.64,-204 1056.64,-185 934.64,-185"/>
<text text-anchor="middle" x="995.64" y="-192" font-family="Helvetica,sans-Serif" font-size="10.00">AMReX_Orientation.H</text>
</a>
</g>
</g>
<!-- Node26&#45;&gt;Node30 -->
<g id="edge61" class="edge">
<title>Node26&#45;&gt;Node30</title>
<path fill="none" stroke="midnightblue" d="M970.59,-246.4C975.38,-236.66 981.79,-223.65 986.92,-213.21"/>
<polygon fill="midnightblue" stroke="midnightblue" points="990.09,-214.71 991.36,-204.19 983.81,-211.62 990.09,-214.71"/>
</g>
<!-- Node27&#45;&gt;Node3 -->
<g id="edge55" class="edge">
<title>Node27&#45;&gt;Node3</title>
<path fill="none" stroke="midnightblue" d="M1191.25,-184.94C1244.17,-173.2 1339.24,-152.11 1396.97,-139.3"/>
<polygon fill="midnightblue" stroke="midnightblue" points="1397.95,-142.67 1406.95,-137.08 1396.43,-135.83 1397.95,-142.67"/>
</g>
<!-- Node27&#45;&gt;Node10 -->
<g id="edge56" class="edge">
<title>Node27&#45;&gt;Node10</title>
<path fill="none" stroke="midnightblue" d="M1230.64,-187.64C1321.88,-179.92 1466.78,-164.73 1516.64,-143 1536.62,-134.29 1535.77,-122.91 1554.64,-112 1579.22,-97.79 1609.13,-86.44 1632.68,-78.69"/>
<polygon fill="midnightblue" stroke="midnightblue" points="1633.9,-81.98 1642.36,-75.6 1631.77,-75.31 1633.9,-81.98"/>
</g>
<!-- Node27&#45;&gt;Node12 -->
<g id="edge54" class="edge">
<title>Node27&#45;&gt;Node12</title>
<path fill="none" stroke="midnightblue" d="M1130.24,-184.94C1086.26,-167.64 986.28,-125.89 910.64,-76 888.55,-61.43 865.98,-40.95 851.45,-26.9"/>
<polygon fill="midnightblue" stroke="midnightblue" points="853.84,-24.34 844.26,-19.83 848.93,-29.33 853.84,-24.34"/>
</g>
<!-- Node27&#45;&gt;Node23 -->
<g id="edge59" class="edge">
<title>Node27&#45;&gt;Node23</title>
<path fill="none" stroke="midnightblue" d="M1125.75,-184.97C1071.98,-168.26 947.16,-131.17 839.64,-112 768.48,-99.31 568.83,-82.02 458.42,-73.01"/>
<polygon fill="midnightblue" stroke="midnightblue" points="458.6,-69.52 448.35,-72.19 458.04,-76.49 458.6,-69.52"/>
</g>
<!-- Node28 -->
<g id="node28" class="node">
<title>Node28</title>
<g id="a_node28"><a xlink:title=" ">
<polygon fill="white" stroke="#bfbfbf" points="1077.14,-118 1077.14,-137 1194.14,-137 1194.14,-118 1077.14,-118"/>
<text text-anchor="middle" x="1135.64" y="-125" font-family="Helvetica,sans-Serif" font-size="10.00">AMReX_FArrayBox.H</text>
</a>
</g>
</g>
<!-- Node27&#45;&gt;Node28 -->
<g id="edge57" class="edge">
<title>Node27&#45;&gt;Node28</title>
<path fill="none" stroke="midnightblue" d="M1150.35,-184.73C1147.83,-175.09 1143.7,-159.3 1140.46,-146.91"/>
<polygon fill="midnightblue" stroke="midnightblue" points="1143.82,-145.92 1137.9,-137.13 1137.04,-147.69 1143.82,-145.92"/>
</g>
<!-- Node29 -->
<g id="node29" class="node">
<title>Node29</title>
<g id="a_node29"><a xlink:title=" ">
<polygon fill="white" stroke="#bfbfbf" points="1212.14,-118 1212.14,-137 1327.14,-137 1327.14,-118 1212.14,-118"/>
<text text-anchor="middle" x="1269.64" y="-125" font-family="Helvetica,sans-Serif" font-size="10.00">AMReX_Geometry.H</text>
</a>
</g>
</g>
<!-- Node27&#45;&gt;Node29 -->
<g id="edge58" class="edge">
<title>Node27&#45;&gt;Node29</title>
<path fill="none" stroke="midnightblue" d="M1168.42,-184.73C1188.16,-173.77 1222.16,-154.88 1245.25,-142.05"/>
<polygon fill="midnightblue" stroke="midnightblue" points="1247.07,-145.04 1254.11,-137.13 1243.67,-138.92 1247.07,-145.04"/>
</g>
<!-- Node31&#45;&gt;Node17 -->
<g id="edge64" class="edge">
<title>Node31&#45;&gt;Node17</title>
<path fill="none" stroke="midnightblue" d="M1082.41,-246.48C1025.23,-234.37 943.86,-217.14 891.91,-206.14"/>
<polygon fill="midnightblue" stroke="midnightblue" points="892.43,-202.68 881.92,-204.03 890.98,-209.52 892.43,-202.68"/>
</g>
<!-- Node31&#45;&gt;Node27 -->
<g id="edge63" class="edge">
<title>Node31&#45;&gt;Node27</title>
<path fill="none" stroke="midnightblue" d="M1149.51,-246.4C1150.09,-236.96 1150.86,-224.45 1151.49,-214.19"/>
<polygon fill="midnightblue" stroke="midnightblue" points="1154.99,-214.39 1152.11,-204.19 1148,-213.96 1154.99,-214.39"/>
</g>
<!-- Node31&#45;&gt;Node30 -->
<g id="edge65" class="edge">
<title>Node31&#45;&gt;Node30</title>
<path fill="none" stroke="midnightblue" d="M1115.44,-246.4C1088.48,-234.94 1050.81,-218.94 1024.95,-207.95"/>
<polygon fill="midnightblue" stroke="midnightblue" points="1026.24,-204.7 1015.67,-204.01 1023.5,-211.14 1026.24,-204.7"/>
</g>
</g>
</svg>
        <g id="navigator" transform="translate(0 0)" fill="#404254">
                <rect fill="#f2f5e9" fill-opacity="0.5" stroke="#606060" stroke-width=".5" x="0" y="0" width="60" height="60"/>
                <use id="zoomplus" xlink:href="#zoomPlus" x="17" y="9" onmousedown="handleZoom(evt,'in')"/>
                <use id="zoomminus" xlink:href="#zoomMin" x="42" y="9" onmousedown="handleZoom(evt,'out')"/>
                <use id="reset" xlink:href="#resetDef" x="30" y="36" onmousedown="handleReset()"/>
                <g id="arrowUp" xlink:href="#dirArrow" transform="translate(30 24)" onmousedown="handlePan(0,-1)">
                  <use xlink:href="#rim" fill="#404040">
                        <set attributeName="fill" to="#808080" begin="arrowUp.mouseover" end="arrowUp.mouseout"/>
                  </use>
                  <path fill="none" stroke="white" stroke-width="1.5" d="M0,-3.0v7 M-2.5,-0.5L0,-3.0L2.5,-0.5"/>
                </g>
                <g id="arrowRight" xlink:href="#dirArrow" transform="rotate(90) translate(36 -43)" onmousedown="handlePan(1,0)">
                  <use xlink:href="#rim" fill="#404040">
                        <set attributeName="fill" to="#808080" begin="arrowRight.mouseover" end="arrowRight.mouseout"/>
                  </use>
                  <path fill="none" stroke="white" stroke-width="1.5" d="M0,-3.0v7 M-2.5,-0.5L0,-3.0L2.5,-0.5"/>
                </g>
                <g id="arrowDown" xlink:href="#dirArrow" transform="rotate(180) translate(-30 -48)" onmousedown="handlePan(0,1)">
                  <use xlink:href="#rim" fill="#404040">
                        <set attributeName="fill" to="#808080" begin="arrowDown.mouseover" end="arrowDown.mouseout"/>
                  </use>
                  <path fill="none" stroke="white" stroke-width="1.5" d="M0,-3.0v7 M-2.5,-0.5L0,-3.0L2.5,-0.5"/>
                </g>
                <g id="arrowLeft" xlink:href="#dirArrow" transform="rotate(270) translate(-36 17)" onmousedown="handlePan(-1,0)">
                  <use xlink:href="#rim" fill="#404040">
                        <set attributeName="fill" to="#808080" begin="arrowLeft.mouseover" end="arrowLeft.mouseout"/>
                  </use>
                  <path fill="none" stroke="white" stroke-width="1.5" d="M0,-3.0v7 M-2.5,-0.5L0,-3.0L2.5,-0.5"/>
                </g>
        </g>
        <svg viewBox="0 0 15 15" width="100%" height="30px" preserveAspectRatio="xMaxYMin meet">
         <g id="arrow_out" transform="scale(0.3 0.3)">
          <a xlink:href="_b_c_interface_8cpp__incl_org.svg" target="_base">
           <rect id="button" ry="5" rx="5" y="6" x="6" height="38" width="38"
                fill="#f2f5e9" fill-opacity="0.5" stroke="#606060" stroke-width="1.0"/>
           <path id="arrow"
             d="M 11.500037,31.436501 C 11.940474,20.09759 22.043105,11.32322 32.158766,21.979434 L 37.068811,17.246167 C 37.068811,17.246167 37.088388,32 37.088388,32 L 22.160133,31.978069 C 22.160133,31.978069 26.997745,27.140456 26.997745,27.140456 C 18.528582,18.264221 13.291696,25.230495 11.500037,31.436501 z"
             style="fill:#404040;"/>
          </a>
         </g>
        </svg>
</svg>
