<?xml version="1.0" encoding="UTF-8" standalone="no"?>
<!DOCTYPE svg PUBLIC "-//W3C//DTD SVG 1.1//EN"
 "http://www.w3.org/Graphics/SVG/1.1/DTD/svg11.dtd">
<!-- Generated by graphviz version 2.43.0 (0)
 -->
<!-- Title: DiffusionOps.H Pages: 1 -->
<svg width="2720pt" height="252pt"
 viewBox="0.00 0.00 2720.00 252.00" xmlns="http://www.w3.org/2000/svg" xmlns:xlink="http://www.w3.org/1999/xlink">
<g id="graph0" class="graph" transform="scale(1 1) rotate(0) translate(4 248)">
<title>DiffusionOps.H</title>
<polygon fill="white" stroke="transparent" points="-4,4 -4,-248 2716,-248 2716,4 -4,4"/>
<!-- Node1 -->
<g id="node1" class="node">
<title>Node1</title>
<g id="a_node1"><a xlink:title=" ">
<polygon fill="#bfbfbf" stroke="black" points="102,-224.5 102,-243.5 191,-243.5 191,-224.5 102,-224.5"/>
<text text-anchor="middle" x="146.5" y="-231.5" font-family="Helvetica,sans-Serif" font-size="10.00">DiffusionOps.H</text>
</a>
</g>
</g>
<!-- Node2 -->
<g id="node2" class="node">
<title>Node2</title>
<g id="a_node2"><a xlink:href="_diffusion_ops_8cpp.html" target="_top" xlink:title=" ">
<polygon fill="white" stroke="black" points="0,-168.5 0,-187.5 99,-187.5 99,-168.5 0,-168.5"/>
<text text-anchor="middle" x="49.5" y="-175.5" font-family="Helvetica,sans-Serif" font-size="10.00">DiffusionOps.cpp</text>
</a>
</g>
</g>
<!-- Node1&#45;&gt;Node2 -->
<g id="edge1" class="edge">
<title>Node1&#45;&gt;Node2</title>
<path fill="none" stroke="midnightblue" d="M122.16,-219.45C104.26,-209.48 80.45,-196.23 65.05,-187.65"/>
<polygon fill="midnightblue" stroke="midnightblue" points="120.48,-222.52 130.92,-224.32 123.88,-216.4 120.48,-222.52"/>
</g>
<!-- Node3 -->
<g id="node3" class="node">
<title>Node3</title>
<g id="a_node3"><a xlink:href="icns__diffusion_8_h.html" target="_top" xlink:title=" ">
<polygon fill="white" stroke="black" points="18.5,-56.5 18.5,-75.5 112.5,-75.5 112.5,-56.5 18.5,-56.5"/>
<text text-anchor="middle" x="65.5" y="-63.5" font-family="Helvetica,sans-Serif" font-size="10.00">icns_diffusion.H</text>
</a>
</g>
</g>
<!-- Node1&#45;&gt;Node3 -->
<g id="edge2" class="edge">
<title>Node1&#45;&gt;Node3</title>
<path fill="none" stroke="midnightblue" d="M137.65,-214.86C120.27,-179.25 82.31,-101.45 69.68,-75.57"/>
<polygon fill="midnightblue" stroke="midnightblue" points="134.61,-216.62 142.15,-224.08 140.91,-213.55 134.61,-216.62"/>
</g>
<!-- Node5 -->
<g id="node5" class="node">
<title>Node5</title>
<g id="a_node5"><a xlink:href="icns__ops_8_h.html" target="_top" xlink:title=" ">
<polygon fill="white" stroke="black" points="131,-56.5 131,-75.5 200,-75.5 200,-56.5 131,-56.5"/>
<text text-anchor="middle" x="165.5" y="-63.5" font-family="Helvetica,sans-Serif" font-size="10.00">icns_ops.H</text>
</a>
</g>
</g>
<!-- Node1&#45;&gt;Node5 -->
<g id="edge4" class="edge">
<title>Node1&#45;&gt;Node5</title>
<path fill="none" stroke="midnightblue" d="M148.68,-213.93C152.8,-177.92 161.58,-101.23 164.52,-75.57"/>
<polygon fill="midnightblue" stroke="midnightblue" points="145.18,-213.74 147.52,-224.08 152.14,-214.54 145.18,-213.74"/>
</g>
<!-- Node6 -->
<g id="node6" class="node">
<title>Node6</title>
<g id="a_node6"><a xlink:href="_p_d_e_8_h.html" target="_top" xlink:title=" ">
<polygon fill="white" stroke="black" points="1482,-168.5 1482,-187.5 1529,-187.5 1529,-168.5 1482,-168.5"/>
<text text-anchor="middle" x="1505.5" y="-175.5" font-family="Helvetica,sans-Serif" font-size="10.00">PDE.H</text>
</a>
</g>
</g>
<!-- Node1&#45;&gt;Node6 -->
<g id="edge6" class="edge">
<title>Node1&#45;&gt;Node6</title>
<path fill="none" stroke="midnightblue" d="M201.54,-230.81C433.26,-221.61 1324.74,-186.18 1481.8,-179.94"/>
<polygon fill="midnightblue" stroke="midnightblue" points="201.18,-227.32 191.33,-231.22 201.46,-234.32 201.18,-227.32"/>
</g>
<!-- Node4 -->
<g id="node4" class="node">
<title>Node4</title>
<g id="a_node4"><a xlink:href="icns_8cpp.html" target="_top" xlink:title=" ">
<polygon fill="white" stroke="black" points="200.5,-0.5 200.5,-19.5 256.5,-19.5 256.5,-0.5 200.5,-0.5"/>
<text text-anchor="middle" x="228.5" y="-7.5" font-family="Helvetica,sans-Serif" font-size="10.00">icns.cpp</text>
</a>
</g>
</g>
<!-- Node3&#45;&gt;Node4 -->
<g id="edge3" class="edge">
<title>Node3&#45;&gt;Node4</title>
<path fill="none" stroke="midnightblue" d="M101.2,-53.17C131.9,-43 175.42,-28.59 202.79,-19.52"/>
<polygon fill="midnightblue" stroke="midnightblue" points="99.72,-49.98 91.33,-56.44 101.92,-56.62 99.72,-49.98"/>
</g>
<!-- Node5&#45;&gt;Node4 -->
<g id="edge5" class="edge">
<title>Node5&#45;&gt;Node4</title>
<path fill="none" stroke="midnightblue" d="M183.54,-49.54C194.77,-39.91 208.82,-27.87 218.19,-19.83"/>
<polygon fill="midnightblue" stroke="midnightblue" points="180.94,-47.16 175.62,-56.32 185.49,-52.47 180.94,-47.16"/>
</g>
<!-- Node7 -->
<g id="node7" class="node">
<title>Node7</title>
<g id="a_node7"><a xlink:href="density_8_h.html" target="_top" xlink:title=" ">
<polygon fill="white" stroke="black" points="1213.5,-112.5 1213.5,-131.5 1275.5,-131.5 1275.5,-112.5 1213.5,-112.5"/>
<text text-anchor="middle" x="1244.5" y="-119.5" font-family="Helvetica,sans-Serif" font-size="10.00">density.H</text>
</a>
</g>
</g>
<!-- Node6&#45;&gt;Node7 -->
<g id="edge7" class="edge">
<title>Node6&#45;&gt;Node7</title>
<path fill="none" stroke="midnightblue" d="M1472.05,-170.08C1421.26,-159.57 1325.38,-139.73 1275.86,-129.49"/>
<polygon fill="midnightblue" stroke="midnightblue" points="1471.38,-173.51 1481.88,-172.11 1472.79,-166.66 1471.38,-173.51"/>
</g>
<!-- Node10 -->
<g id="node10" class="node">
<title>Node10</title>
<g id="a_node10"><a xlink:href="icns_8_h.html" target="_top" xlink:title=" ">
<polygon fill="white" stroke="black" points="551,-112.5 551,-131.5 598,-131.5 598,-112.5 551,-112.5"/>
<text text-anchor="middle" x="574.5" y="-119.5" font-family="Helvetica,sans-Serif" font-size="10.00">icns.H</text>
</a>
</g>
</g>
<!-- Node6&#45;&gt;Node10 -->
<g id="edge11" class="edge">
<title>Node6&#45;&gt;Node10</title>
<path fill="none" stroke="midnightblue" d="M1471.14,-175.01C1321.07,-166.3 725.07,-131.73 598.29,-124.38"/>
<polygon fill="midnightblue" stroke="midnightblue" points="1471.36,-178.53 1481.55,-175.61 1471.77,-171.54 1471.36,-178.53"/>
</g>
<!-- Node20 -->
<g id="node20" class="node">
<title>Node20</title>
<g id="a_node20"><a xlink:href="levelset_8_h.html" target="_top" xlink:title=" ">
<polygon fill="white" stroke="black" points="1355.5,-112.5 1355.5,-131.5 1421.5,-131.5 1421.5,-112.5 1355.5,-112.5"/>
<text text-anchor="middle" x="1388.5" y="-119.5" font-family="Helvetica,sans-Serif" font-size="10.00">levelset.H</text>
</a>
</g>
</g>
<!-- Node6&#45;&gt;Node20 -->
<g id="edge26" class="edge">
<title>Node6&#45;&gt;Node20</title>
<path fill="none" stroke="midnightblue" d="M1477.84,-164.23C1455.95,-154.13 1426,-140.31 1406.95,-131.52"/>
<polygon fill="midnightblue" stroke="midnightblue" points="1476.41,-167.43 1486.96,-168.44 1479.35,-161.08 1476.41,-167.43"/>
</g>
<!-- Node23 -->
<g id="node23" class="node">
<title>Node23</title>
<g id="a_node23"><a xlink:href="passive__scalar_8_h.html" target="_top" xlink:title=" ">
<polygon fill="white" stroke="black" points="1456.5,-112.5 1456.5,-131.5 1554.5,-131.5 1554.5,-112.5 1456.5,-112.5"/>
<text text-anchor="middle" x="1505.5" y="-119.5" font-family="Helvetica,sans-Serif" font-size="10.00">passive_scalar.H</text>
</a>
</g>
</g>
<!-- Node6&#45;&gt;Node23 -->
<g id="edge30" class="edge">
<title>Node6&#45;&gt;Node23</title>
<path fill="none" stroke="midnightblue" d="M1505.5,-157.8C1505.5,-148.91 1505.5,-138.78 1505.5,-131.75"/>
<polygon fill="midnightblue" stroke="midnightblue" points="1502,-158.08 1505.5,-168.08 1509,-158.08 1502,-158.08"/>
</g>
<!-- Node25 -->
<g id="node25" class="node">
<title>Node25</title>
<g id="a_node25"><a xlink:href="_s_d_r_8_h.html" target="_top" xlink:title=" ">
<polygon fill="white" stroke="black" points="1655,-112.5 1655,-131.5 1702,-131.5 1702,-112.5 1655,-112.5"/>
<text text-anchor="middle" x="1678.5" y="-119.5" font-family="Helvetica,sans-Serif" font-size="10.00">SDR.H</text>
</a>
</g>
</g>
<!-- Node6&#45;&gt;Node25 -->
<g id="edge32" class="edge">
<title>Node6&#45;&gt;Node25</title>
<path fill="none" stroke="midnightblue" d="M1539.14,-166.5C1573.16,-155.88 1624.88,-139.74 1654.82,-130.39"/>
<polygon fill="midnightblue" stroke="midnightblue" points="1537.7,-163.28 1529.19,-169.6 1539.78,-169.97 1537.7,-163.28"/>
</g>
<!-- Node31 -->
<g id="node31" class="node">
<title>Node31</title>
<g id="a_node31"><a xlink:href="temperature_8_h.html" target="_top" xlink:title=" ">
<polygon fill="white" stroke="black" points="2143.5,-112.5 2143.5,-131.5 2231.5,-131.5 2231.5,-112.5 2143.5,-112.5"/>
<text text-anchor="middle" x="2187.5" y="-119.5" font-family="Helvetica,sans-Serif" font-size="10.00">temperature.H</text>
</a>
</g>
</g>
<!-- Node6&#45;&gt;Node31 -->
<g id="edge41" class="edge">
<title>Node6&#45;&gt;Node31</title>
<path fill="none" stroke="midnightblue" d="M1539.53,-174.31C1652.7,-165.35 2016.44,-136.54 2143.33,-126.5"/>
<polygon fill="midnightblue" stroke="midnightblue" points="1539.07,-170.83 1529.37,-175.11 1539.62,-177.81 1539.07,-170.83"/>
</g>
<!-- Node33 -->
<g id="node33" class="node">
<title>Node33</title>
<g id="a_node33"><a xlink:href="_t_k_e_8_h.html" target="_top" xlink:title=" ">
<polygon fill="white" stroke="black" points="1927.5,-112.5 1927.5,-131.5 1973.5,-131.5 1973.5,-112.5 1927.5,-112.5"/>
<text text-anchor="middle" x="1950.5" y="-119.5" font-family="Helvetica,sans-Serif" font-size="10.00">TKE.H</text>
</a>
</g>
</g>
<!-- Node6&#45;&gt;Node33 -->
<g id="edge43" class="edge">
<title>Node6&#45;&gt;Node33</title>
<path fill="none" stroke="midnightblue" d="M1539.18,-172.91C1625.7,-162.41 1854.14,-134.69 1927.48,-125.79"/>
<polygon fill="midnightblue" stroke="midnightblue" points="1538.62,-169.46 1529.11,-174.13 1539.46,-176.4 1538.62,-169.46"/>
</g>
<!-- Node38 -->
<g id="node38" class="node">
<title>Node38</title>
<g id="a_node38"><a xlink:href="vof_8_h.html" target="_top" xlink:title=" ">
<polygon fill="white" stroke="black" points="2470.5,-112.5 2470.5,-131.5 2512.5,-131.5 2512.5,-112.5 2470.5,-112.5"/>
<text text-anchor="middle" x="2491.5" y="-119.5" font-family="Helvetica,sans-Serif" font-size="10.00">vof.H</text>
</a>
</g>
</g>
<!-- Node6&#45;&gt;Node38 -->
<g id="edge52" class="edge">
<title>Node6&#45;&gt;Node38</title>
<path fill="none" stroke="midnightblue" d="M1539.84,-175.12C1696.97,-166.51 2345.23,-131.01 2470.49,-124.15"/>
<polygon fill="midnightblue" stroke="midnightblue" points="1539.18,-171.65 1529.38,-175.69 1539.56,-178.64 1539.18,-171.65"/>
</g>
<!-- Node8 -->
<g id="node8" class="node">
<title>Node8</title>
<g id="a_node8"><a xlink:href="density_8cpp.html" target="_top" xlink:title=" ">
<polygon fill="white" stroke="black" points="1163,-0.5 1163,-19.5 1234,-19.5 1234,-0.5 1163,-0.5"/>
<text text-anchor="middle" x="1198.5" y="-7.5" font-family="Helvetica,sans-Serif" font-size="10.00">density.cpp</text>
</a>
</g>
</g>
<!-- Node7&#45;&gt;Node8 -->
<g id="edge8" class="edge">
<title>Node7&#45;&gt;Node8</title>
<path fill="none" stroke="midnightblue" d="M1220.13,-106.73C1209.55,-99.09 1198.28,-88.64 1192.5,-76 1184.02,-57.45 1190.43,-32.85 1194.99,-19.88"/>
<polygon fill="midnightblue" stroke="midnightblue" points="1218.46,-109.82 1228.72,-112.47 1222.35,-104 1218.46,-109.82"/>
</g>
<!-- Node9 -->
<g id="node9" class="node">
<title>Node9</title>
<g id="a_node9"><a xlink:href="density__ops_8_h.html" target="_top" xlink:title=" ">
<polygon fill="white" stroke="black" points="1201.5,-56.5 1201.5,-75.5 1287.5,-75.5 1287.5,-56.5 1201.5,-56.5"/>
<text text-anchor="middle" x="1244.5" y="-63.5" font-family="Helvetica,sans-Serif" font-size="10.00">density_ops.H</text>
</a>
</g>
</g>
<!-- Node7&#45;&gt;Node9 -->
<g id="edge9" class="edge">
<title>Node7&#45;&gt;Node9</title>
<path fill="none" stroke="midnightblue" d="M1244.5,-101.8C1244.5,-92.91 1244.5,-82.78 1244.5,-75.75"/>
<polygon fill="midnightblue" stroke="midnightblue" points="1241,-102.08 1244.5,-112.08 1248,-102.08 1241,-102.08"/>
</g>
<!-- Node9&#45;&gt;Node8 -->
<g id="edge10" class="edge">
<title>Node9&#45;&gt;Node8</title>
<path fill="none" stroke="midnightblue" d="M1230.39,-48.43C1222.32,-38.97 1212.54,-27.48 1205.95,-19.75"/>
<polygon fill="midnightblue" stroke="midnightblue" points="1227.75,-50.74 1236.9,-56.08 1233.08,-46.2 1227.75,-50.74"/>
</g>
<!-- Node10&#45;&gt;Node3 -->
<g id="edge18" class="edge">
<title>Node10&#45;&gt;Node3</title>
<path fill="none" stroke="midnightblue" d="M540.55,-118.33C465.07,-112.25 277.62,-96.28 121.5,-76 118.57,-75.62 115.56,-75.2 112.52,-74.77"/>
<polygon fill="midnightblue" stroke="midnightblue" points="540.62,-121.85 550.86,-119.16 541.17,-114.87 540.62,-121.85"/>
</g>
<!-- Node10&#45;&gt;Node4 -->
<g id="edge12" class="edge">
<title>Node10&#45;&gt;Node4</title>
<path fill="none" stroke="midnightblue" d="M540.27,-120.85C465.51,-119.82 290.83,-113.36 247.5,-76 230.94,-61.72 228.41,-33.88 228.27,-19.72"/>
<polygon fill="midnightblue" stroke="midnightblue" points="540.51,-124.35 550.55,-120.97 540.59,-117.35 540.51,-124.35"/>
</g>
<!-- Node10&#45;&gt;Node5 -->
<g id="edge19" class="edge">
<title>Node10&#45;&gt;Node5</title>
<path fill="none" stroke="midnightblue" d="M540.56,-117.41C476.61,-110.51 333.96,-94.42 214.5,-76 209.88,-75.29 205.04,-74.48 200.26,-73.64"/>
<polygon fill="midnightblue" stroke="midnightblue" points="540.53,-120.93 550.85,-118.52 541.28,-113.97 540.53,-120.93"/>
</g>
<!-- Node11 -->
<g id="node11" class="node">
<title>Node11</title>
<g id="a_node11"><a xlink:href="icns__advection_8_h.html" target="_top" xlink:title=" ">
<polygon fill="white" stroke="black" points="350.5,-56.5 350.5,-75.5 450.5,-75.5 450.5,-56.5 350.5,-56.5"/>
<text text-anchor="middle" x="400.5" y="-63.5" font-family="Helvetica,sans-Serif" font-size="10.00">icns_advection.H</text>
</a>
</g>
</g>
<!-- Node10&#45;&gt;Node11 -->
<g id="edge13" class="edge">
<title>Node10&#45;&gt;Node11</title>
<path fill="none" stroke="midnightblue" d="M541.05,-110.62C508.21,-100.43 458.7,-85.06 428.05,-75.55"/>
<polygon fill="midnightblue" stroke="midnightblue" points="540.08,-113.98 550.67,-113.6 542.16,-107.3 540.08,-113.98"/>
</g>
<!-- Node13 -->
<g id="node13" class="node">
<title>Node13</title>
<g id="a_node13"><a xlink:href="icns__bcop_8_h.html" target="_top" xlink:title=" ">
<polygon fill="white" stroke="black" points="257,-56.5 257,-75.5 332,-75.5 332,-56.5 257,-56.5"/>
<text text-anchor="middle" x="294.5" y="-63.5" font-family="Helvetica,sans-Serif" font-size="10.00">icns_bcop.H</text>
</a>
</g>
</g>
<!-- Node10&#45;&gt;Node13 -->
<g id="edge16" class="edge">
<title>Node10&#45;&gt;Node13</title>
<path fill="none" stroke="midnightblue" d="M540.8,-114.5C488.29,-104.37 387.27,-84.89 332.33,-74.3"/>
<polygon fill="midnightblue" stroke="midnightblue" points="540.15,-117.94 550.63,-116.4 541.47,-111.07 540.15,-117.94"/>
</g>
<!-- Node14 -->
<g id="node14" class="node">
<title>Node14</title>
<g id="a_node14"><a xlink:href="_burggraf_lid_8cpp.html" target="_top" xlink:title=" ">
<polygon fill="white" stroke="black" points="469,-56.5 469,-75.5 562,-75.5 562,-56.5 469,-56.5"/>
<text text-anchor="middle" x="515.5" y="-63.5" font-family="Helvetica,sans-Serif" font-size="10.00">BurggrafLid.cpp</text>
</a>
</g>
</g>
<!-- Node10&#45;&gt;Node14 -->
<g id="edge20" class="edge">
<title>Node10&#45;&gt;Node14</title>
<path fill="none" stroke="midnightblue" d="M557.61,-105.54C547.09,-95.91 533.93,-83.87 525.15,-75.83"/>
<polygon fill="midnightblue" stroke="midnightblue" points="555.28,-108.15 565.02,-112.32 560.01,-102.99 555.28,-108.15"/>
</g>
<!-- Node15 -->
<g id="node15" class="node">
<title>Node15</title>
<g id="a_node15"><a xlink:href="_custom_scalar_8cpp.html" target="_top" xlink:title=" ">
<polygon fill="white" stroke="black" points="580.5,-56.5 580.5,-75.5 684.5,-75.5 684.5,-56.5 580.5,-56.5"/>
<text text-anchor="middle" x="632.5" y="-63.5" font-family="Helvetica,sans-Serif" font-size="10.00">CustomScalar.cpp</text>
</a>
</g>
</g>
<!-- Node10&#45;&gt;Node15 -->
<g id="edge21" class="edge">
<title>Node10&#45;&gt;Node15</title>
<path fill="none" stroke="midnightblue" d="M591.41,-105.25C601.7,-95.67 614.47,-83.79 623.01,-75.83"/>
<polygon fill="midnightblue" stroke="midnightblue" points="588.75,-102.95 583.82,-112.32 593.52,-108.07 588.75,-102.95"/>
</g>
<!-- Node16 -->
<g id="node16" class="node">
<title>Node16</title>
<g id="a_node16"><a xlink:href="_custom_velocity_8cpp.html" target="_top" xlink:title=" ">
<polygon fill="white" stroke="black" points="702.5,-56.5 702.5,-75.5 814.5,-75.5 814.5,-56.5 702.5,-56.5"/>
<text text-anchor="middle" x="758.5" y="-63.5" font-family="Helvetica,sans-Serif" font-size="10.00">CustomVelocity.cpp</text>
</a>
</g>
</g>
<!-- Node10&#45;&gt;Node16 -->
<g id="edge22" class="edge">
<title>Node10&#45;&gt;Node16</title>
<path fill="none" stroke="midnightblue" d="M607.87,-111.21C642.59,-101.02 696.43,-85.22 729.46,-75.52"/>
<polygon fill="midnightblue" stroke="midnightblue" points="606.79,-107.88 598.18,-114.05 608.76,-114.59 606.79,-107.88"/>
</g>
<!-- Node17 -->
<g id="node17" class="node">
<title>Node17</title>
<g id="a_node17"><a xlink:href="_power_law_profile_8cpp.html" target="_top" xlink:title=" ">
<polygon fill="white" stroke="black" points="833,-56.5 833,-75.5 950,-75.5 950,-56.5 833,-56.5"/>
<text text-anchor="middle" x="891.5" y="-63.5" font-family="Helvetica,sans-Serif" font-size="10.00">PowerLawProfile.cpp</text>
</a>
</g>
</g>
<!-- Node10&#45;&gt;Node17 -->
<g id="edge23" class="edge">
<title>Node10&#45;&gt;Node17</title>
<path fill="none" stroke="midnightblue" d="M608.14,-115.27C664.03,-105.75 776.29,-86.63 841.48,-75.52"/>
<polygon fill="midnightblue" stroke="midnightblue" points="607.34,-111.86 598.07,-116.99 608.51,-118.76 607.34,-111.86"/>
</g>
<!-- Node18 -->
<g id="node18" class="node">
<title>Node18</title>
<g id="a_node18"><a xlink:href="_rankine_8cpp.html" target="_top" xlink:title=" ">
<polygon fill="white" stroke="black" points="968,-56.5 968,-75.5 1045,-75.5 1045,-56.5 968,-56.5"/>
<text text-anchor="middle" x="1006.5" y="-63.5" font-family="Helvetica,sans-Serif" font-size="10.00">Rankine.cpp</text>
</a>
</g>
</g>
<!-- Node10&#45;&gt;Node18 -->
<g id="edge24" class="edge">
<title>Node10&#45;&gt;Node18</title>
<path fill="none" stroke="midnightblue" d="M608.39,-117.82C675.44,-111.35 829.69,-95.6 958.5,-76 961.52,-75.54 964.64,-75.03 967.77,-74.5"/>
<polygon fill="midnightblue" stroke="midnightblue" points="608.01,-114.34 598.39,-118.78 608.68,-121.31 608.01,-114.34"/>
</g>
<!-- Node19 -->
<g id="node19" class="node">
<title>Node19</title>
<g id="a_node19"><a xlink:href="_two_layer_8cpp.html" target="_top" xlink:title=" ">
<polygon fill="white" stroke="black" points="1063.5,-56.5 1063.5,-75.5 1145.5,-75.5 1145.5,-56.5 1063.5,-56.5"/>
<text text-anchor="middle" x="1104.5" y="-63.5" font-family="Helvetica,sans-Serif" font-size="10.00">TwoLayer.cpp</text>
</a>
</g>
</g>
<!-- Node10&#45;&gt;Node19 -->
<g id="edge25" class="edge">
<title>Node10&#45;&gt;Node19</title>
<path fill="none" stroke="midnightblue" d="M608.24,-118.77C686.63,-113.4 887.09,-98.46 1053.5,-76 1056.71,-75.57 1060.02,-75.08 1063.35,-74.56"/>
<polygon fill="midnightblue" stroke="midnightblue" points="607.74,-115.3 598,-119.47 608.22,-122.28 607.74,-115.3"/>
</g>
<!-- Node11&#45;&gt;Node4 -->
<g id="edge14" class="edge">
<title>Node11&#45;&gt;Node4</title>
<path fill="none" stroke="midnightblue" d="M363.67,-53.44C331.24,-43.26 284.76,-28.66 255.63,-19.52"/>
<polygon fill="midnightblue" stroke="midnightblue" points="362.66,-56.79 373.25,-56.44 364.75,-50.11 362.66,-56.79"/>
</g>
<!-- Node12 -->
<g id="node12" class="node">
<title>Node12</title>
<g id="a_node12"><a xlink:href="icns__advection_8cpp.html" target="_top" xlink:title=" ">
<polygon fill="white" stroke="black" points="345.5,-0.5 345.5,-19.5 455.5,-19.5 455.5,-0.5 345.5,-0.5"/>
<text text-anchor="middle" x="400.5" y="-7.5" font-family="Helvetica,sans-Serif" font-size="10.00">icns_advection.cpp</text>
</a>
</g>
</g>
<!-- Node11&#45;&gt;Node12 -->
<g id="edge15" class="edge">
<title>Node11&#45;&gt;Node12</title>
<path fill="none" stroke="midnightblue" d="M400.5,-45.8C400.5,-36.91 400.5,-26.78 400.5,-19.75"/>
<polygon fill="midnightblue" stroke="midnightblue" points="397,-46.08 400.5,-56.08 404,-46.08 397,-46.08"/>
</g>
<!-- Node13&#45;&gt;Node4 -->
<g id="edge17" class="edge">
<title>Node13&#45;&gt;Node4</title>
<path fill="none" stroke="midnightblue" d="M275.95,-49.82C264.12,-40.15 249.21,-27.95 239.3,-19.83"/>
<polygon fill="midnightblue" stroke="midnightblue" points="273.94,-52.7 283.9,-56.32 278.37,-47.28 273.94,-52.7"/>
</g>
<!-- Node21 -->
<g id="node21" class="node">
<title>Node21</title>
<g id="a_node21"><a xlink:href="levelset_8cpp.html" target="_top" xlink:title=" ">
<polygon fill="white" stroke="black" points="1313.5,-0.5 1313.5,-19.5 1389.5,-19.5 1389.5,-0.5 1313.5,-0.5"/>
<text text-anchor="middle" x="1351.5" y="-7.5" font-family="Helvetica,sans-Serif" font-size="10.00">levelset.cpp</text>
</a>
</g>
</g>
<!-- Node20&#45;&gt;Node21 -->
<g id="edge27" class="edge">
<title>Node20&#45;&gt;Node21</title>
<path fill="none" stroke="midnightblue" d="M1363.32,-107C1352.31,-99.4 1340.54,-88.91 1334.5,-76 1325.59,-56.99 1337.62,-32.58 1345.54,-19.76"/>
<polygon fill="midnightblue" stroke="midnightblue" points="1361.56,-110.03 1371.87,-112.46 1365.33,-104.13 1361.56,-110.03"/>
</g>
<!-- Node22 -->
<g id="node22" class="node">
<title>Node22</title>
<g id="a_node22"><a xlink:href="levelset__ops_8_h.html" target="_top" xlink:title=" ">
<polygon fill="white" stroke="black" points="1344,-56.5 1344,-75.5 1433,-75.5 1433,-56.5 1344,-56.5"/>
<text text-anchor="middle" x="1388.5" y="-63.5" font-family="Helvetica,sans-Serif" font-size="10.00">levelset_ops.H</text>
</a>
</g>
</g>
<!-- Node20&#45;&gt;Node22 -->
<g id="edge28" class="edge">
<title>Node20&#45;&gt;Node22</title>
<path fill="none" stroke="midnightblue" d="M1388.5,-101.8C1388.5,-92.91 1388.5,-82.78 1388.5,-75.75"/>
<polygon fill="midnightblue" stroke="midnightblue" points="1385,-102.08 1388.5,-112.08 1392,-102.08 1385,-102.08"/>
</g>
<!-- Node22&#45;&gt;Node21 -->
<g id="edge29" class="edge">
<title>Node22&#45;&gt;Node21</title>
<path fill="none" stroke="midnightblue" d="M1376.55,-47.57C1370.19,-38.27 1362.63,-27.25 1357.5,-19.75"/>
<polygon fill="midnightblue" stroke="midnightblue" points="1373.85,-49.81 1382.39,-56.08 1379.63,-45.86 1373.85,-49.81"/>
</g>
<!-- Node24 -->
<g id="node24" class="node">
<title>Node24</title>
<g id="a_node24"><a xlink:href="passive__scalar_8cpp.html" target="_top" xlink:title=" ">
<polygon fill="white" stroke="black" points="1451.5,-56.5 1451.5,-75.5 1559.5,-75.5 1559.5,-56.5 1451.5,-56.5"/>
<text text-anchor="middle" x="1505.5" y="-63.5" font-family="Helvetica,sans-Serif" font-size="10.00">passive_scalar.cpp</text>
</a>
</g>
</g>
<!-- Node23&#45;&gt;Node24 -->
<g id="edge31" class="edge">
<title>Node23&#45;&gt;Node24</title>
<path fill="none" stroke="midnightblue" d="M1505.5,-101.8C1505.5,-92.91 1505.5,-82.78 1505.5,-75.75"/>
<polygon fill="midnightblue" stroke="midnightblue" points="1502,-102.08 1505.5,-112.08 1509,-102.08 1502,-102.08"/>
</g>
<!-- Node26 -->
<g id="node26" class="node">
<title>Node26</title>
<g id="a_node26"><a xlink:href="_s_d_r_8cpp.html" target="_top" xlink:title=" ">
<polygon fill="white" stroke="black" points="1589,-0.5 1589,-19.5 1646,-19.5 1646,-0.5 1589,-0.5"/>
<text text-anchor="middle" x="1617.5" y="-7.5" font-family="Helvetica,sans-Serif" font-size="10.00">SDR.cpp</text>
</a>
</g>
</g>
<!-- Node25&#45;&gt;Node26 -->
<g id="edge33" class="edge">
<title>Node25&#45;&gt;Node26</title>
<path fill="none" stroke="midnightblue" d="M1645.38,-109C1630.7,-101.84 1614.88,-91.12 1606.5,-76 1596.4,-57.78 1606.22,-32.61 1612.74,-19.59"/>
<polygon fill="midnightblue" stroke="midnightblue" points="1644.22,-112.32 1654.77,-113.21 1647.08,-105.93 1644.22,-112.32"/>
</g>
<!-- Node27 -->
<g id="node27" class="node">
<title>Node27</title>
<g id="a_node27"><a xlink:href="sdr__ops_8_h.html" target="_top" xlink:title=" ">
<polygon fill="white" stroke="black" points="1616,-56.5 1616,-75.5 1681,-75.5 1681,-56.5 1616,-56.5"/>
<text text-anchor="middle" x="1648.5" y="-63.5" font-family="Helvetica,sans-Serif" font-size="10.00">sdr_ops.H</text>
</a>
</g>
</g>
<!-- Node25&#45;&gt;Node27 -->
<g id="edge34" class="edge">
<title>Node25&#45;&gt;Node27</title>
<path fill="none" stroke="midnightblue" d="M1668.65,-103.27C1663.53,-94.05 1657.48,-83.17 1653.36,-75.75"/>
<polygon fill="midnightblue" stroke="midnightblue" points="1665.63,-105.04 1673.55,-112.08 1671.75,-101.64 1665.63,-105.04"/>
</g>
<!-- Node28 -->
<g id="node28" class="node">
<title>Node28</title>
<g id="a_node28"><a xlink:href="_k_omega_s_s_t_8cpp.html" target="_top" xlink:title=" ">
<polygon fill="white" stroke="black" points="1724,-0.5 1724,-19.5 1819,-19.5 1819,-0.5 1724,-0.5"/>
<text text-anchor="middle" x="1771.5" y="-7.5" font-family="Helvetica,sans-Serif" font-size="10.00">KOmegaSST.cpp</text>
</a>
</g>
</g>
<!-- Node25&#45;&gt;Node28 -->
<g id="edge36" class="edge">
<title>Node25&#45;&gt;Node28</title>
<path fill="none" stroke="midnightblue" d="M1690.71,-104.12C1700.56,-90.76 1714.94,-71.8 1728.5,-56 1739.76,-42.88 1753.74,-28.58 1762.64,-19.7"/>
<polygon fill="midnightblue" stroke="midnightblue" points="1687.77,-102.22 1684.69,-112.36 1693.42,-106.35 1687.77,-102.22"/>
</g>
<!-- Node29 -->
<g id="node29" class="node">
<title>Node29</title>
<g id="a_node29"><a xlink:href="_k_omega_s_s_t_i_8_h.html" target="_top" xlink:title=" ">
<polygon fill="white" stroke="black" points="1738,-56.5 1738,-75.5 1827,-75.5 1827,-56.5 1738,-56.5"/>
<text text-anchor="middle" x="1782.5" y="-63.5" font-family="Helvetica,sans-Serif" font-size="10.00">KOmegaSSTI.H</text>
</a>
</g>
</g>
<!-- Node25&#45;&gt;Node29 -->
<g id="edge37" class="edge">
<title>Node25&#45;&gt;Node29</title>
<path fill="none" stroke="midnightblue" d="M1704.33,-107.59C1723.56,-97.61 1749.24,-84.27 1765.83,-75.65"/>
<polygon fill="midnightblue" stroke="midnightblue" points="1702.47,-104.61 1695.21,-112.32 1705.7,-110.82 1702.47,-104.61"/>
</g>
<!-- Node30 -->
<g id="node30" class="node">
<title>Node30</title>
<g id="a_node30"><a xlink:href="_k_omega_s_s_t_i_d_d_e_s_8cpp.html" target="_top" xlink:title=" ">
<polygon fill="white" stroke="black" points="1837.5,-0.5 1837.5,-19.5 1963.5,-19.5 1963.5,-0.5 1837.5,-0.5"/>
<text text-anchor="middle" x="1900.5" y="-7.5" font-family="Helvetica,sans-Serif" font-size="10.00">KOmegaSSTIDDES.cpp</text>
</a>
</g>
</g>
<!-- Node25&#45;&gt;Node30 -->
<g id="edge40" class="edge">
<title>Node25&#45;&gt;Node30</title>
<path fill="none" stroke="midnightblue" d="M1712.14,-116.4C1745.33,-110.74 1796.59,-98.92 1835.5,-76 1861.08,-60.94 1883.8,-33.45 1894.32,-19.54"/>
<polygon fill="midnightblue" stroke="midnightblue" points="1711.36,-112.98 1702.04,-118.02 1712.47,-119.89 1711.36,-112.98"/>
</g>
<!-- Node27&#45;&gt;Node26 -->
<g id="edge35" class="edge">
<title>Node27&#45;&gt;Node26</title>
<path fill="none" stroke="midnightblue" d="M1638.32,-47.27C1633.03,-38.05 1626.78,-27.17 1622.52,-19.75"/>
<polygon fill="midnightblue" stroke="midnightblue" points="1635.37,-49.15 1643.38,-56.08 1641.44,-45.67 1635.37,-49.15"/>
</g>
<!-- Node29&#45;&gt;Node28 -->
<g id="edge38" class="edge">
<title>Node29&#45;&gt;Node28</title>
<path fill="none" stroke="midnightblue" d="M1778.65,-46.1C1776.82,-37.14 1774.73,-26.86 1773.28,-19.75"/>
<polygon fill="midnightblue" stroke="midnightblue" points="1775.26,-46.98 1780.68,-56.08 1782.12,-45.59 1775.26,-46.98"/>
</g>
<!-- Node29&#45;&gt;Node30 -->
<g id="edge39" class="edge">
<title>Node29&#45;&gt;Node30</title>
<path fill="none" stroke="midnightblue" d="M1810.4,-52.23C1832.47,-42.13 1862.68,-28.31 1881.89,-19.52"/>
<polygon fill="midnightblue" stroke="midnightblue" points="1808.83,-49.1 1801.2,-56.44 1811.75,-55.46 1808.83,-49.1"/>
</g>
<!-- Node32 -->
<g id="node32" class="node">
<title>Node32</title>
<g id="a_node32"><a xlink:href="temperature_8cpp.html" target="_top" xlink:title=" ">
<polygon fill="white" stroke="black" points="2289.5,-56.5 2289.5,-75.5 2387.5,-75.5 2387.5,-56.5 2289.5,-56.5"/>
<text text-anchor="middle" x="2338.5" y="-63.5" font-family="Helvetica,sans-Serif" font-size="10.00">temperature.cpp</text>
</a>
</g>
</g>
<!-- Node31&#45;&gt;Node32 -->
<g id="edge42" class="edge">
<title>Node31&#45;&gt;Node32</title>
<path fill="none" stroke="midnightblue" d="M2220.95,-109.04C2249.36,-98.88 2289.44,-84.55 2314.69,-75.52"/>
<polygon fill="midnightblue" stroke="midnightblue" points="2219.66,-105.78 2211.43,-112.44 2222.02,-112.37 2219.66,-105.78"/>
</g>
<!-- Node33&#45;&gt;Node28 -->
<g id="edge48" class="edge">
<title>Node33&#45;&gt;Node28</title>
<path fill="none" stroke="midnightblue" d="M1927.73,-107.01C1890.16,-83.92 1816.27,-38.51 1785.48,-19.59"/>
<polygon fill="midnightblue" stroke="midnightblue" points="1926.1,-110.11 1936.45,-112.37 1929.77,-104.15 1926.1,-110.11"/>
</g>
<!-- Node33&#45;&gt;Node29 -->
<g id="edge49" class="edge">
<title>Node33&#45;&gt;Node29</title>
<path fill="none" stroke="midnightblue" d="M1917.79,-110.49C1886.08,-100.29 1838.56,-85.02 1809.1,-75.55"/>
<polygon fill="midnightblue" stroke="midnightblue" points="1916.9,-113.88 1927.49,-113.6 1919.04,-107.21 1916.9,-113.88"/>
</g>
<!-- Node33&#45;&gt;Node30 -->
<g id="edge50" class="edge">
<title>Node33&#45;&gt;Node30</title>
<path fill="none" stroke="midnightblue" d="M1942.32,-103C1931.41,-79 1912.53,-37.47 1904.41,-19.59"/>
<polygon fill="midnightblue" stroke="midnightblue" points="1939.25,-104.71 1946.58,-112.37 1945.62,-101.82 1939.25,-104.71"/>
</g>
<!-- Node34 -->
<g id="node34" class="node">
<title>Node34</title>
<g id="a_node34"><a xlink:href="_t_k_e_8cpp.html" target="_top" xlink:title=" ">
<polygon fill="white" stroke="black" points="1988.5,-0.5 1988.5,-19.5 2044.5,-19.5 2044.5,-0.5 1988.5,-0.5"/>
<text text-anchor="middle" x="2016.5" y="-7.5" font-family="Helvetica,sans-Serif" font-size="10.00">TKE.cpp</text>
</a>
</g>
</g>
<!-- Node33&#45;&gt;Node34 -->
<g id="edge44" class="edge">
<title>Node33&#45;&gt;Node34</title>
<path fill="none" stroke="midnightblue" d="M1960.72,-103.22C1968.29,-90.11 1978.92,-71.88 1988.5,-56 1996.2,-43.24 2005.37,-28.61 2011.06,-19.58"/>
<polygon fill="midnightblue" stroke="midnightblue" points="1957.55,-101.71 1955.59,-112.12 1963.61,-105.21 1957.55,-101.71"/>
</g>
<!-- Node35 -->
<g id="node35" class="node">
<title>Node35</title>
<g id="a_node35"><a xlink:href="tke__ops_8_h.html" target="_top" xlink:title=" ">
<polygon fill="white" stroke="black" points="1998,-56.5 1998,-75.5 2063,-75.5 2063,-56.5 1998,-56.5"/>
<text text-anchor="middle" x="2030.5" y="-63.5" font-family="Helvetica,sans-Serif" font-size="10.00">tke_ops.H</text>
</a>
</g>
</g>
<!-- Node33&#45;&gt;Node35 -->
<g id="edge45" class="edge">
<title>Node33&#45;&gt;Node35</title>
<path fill="none" stroke="midnightblue" d="M1971.8,-106.62C1986.42,-96.76 2005.33,-83.99 2017.68,-75.65"/>
<polygon fill="midnightblue" stroke="midnightblue" points="1969.68,-103.83 1963.35,-112.32 1973.6,-109.63 1969.68,-103.83"/>
</g>
<!-- Node36 -->
<g id="node36" class="node">
<title>Node36</title>
<g id="a_node36"><a xlink:href="_one_eq_ksgs_8cpp.html" target="_top" xlink:title=" ">
<polygon fill="white" stroke="black" points="2081.5,-56.5 2081.5,-75.5 2173.5,-75.5 2173.5,-56.5 2081.5,-56.5"/>
<text text-anchor="middle" x="2127.5" y="-63.5" font-family="Helvetica,sans-Serif" font-size="10.00">OneEqKsgs.cpp</text>
</a>
</g>
</g>
<!-- Node33&#45;&gt;Node36 -->
<g id="edge47" class="edge">
<title>Node33&#45;&gt;Node36</title>
<path fill="none" stroke="midnightblue" d="M1983.38,-110.97C2016.75,-100.79 2067.85,-85.2 2099.39,-75.58"/>
<polygon fill="midnightblue" stroke="midnightblue" points="1982.18,-107.67 1973.64,-113.94 1984.23,-114.37 1982.18,-107.67"/>
</g>
<!-- Node37 -->
<g id="node37" class="node">
<title>Node37</title>
<g id="a_node37"><a xlink:href="_a_b_l_stats_8cpp.html" target="_top" xlink:title=" ">
<polygon fill="white" stroke="black" points="2191.5,-56.5 2191.5,-75.5 2271.5,-75.5 2271.5,-56.5 2191.5,-56.5"/>
<text text-anchor="middle" x="2231.5" y="-63.5" font-family="Helvetica,sans-Serif" font-size="10.00">ABLStats.cpp</text>
</a>
</g>
</g>
<!-- Node33&#45;&gt;Node37 -->
<g id="edge51" class="edge">
<title>Node33&#45;&gt;Node37</title>
<path fill="none" stroke="midnightblue" d="M1984,-114.56C2035.95,-104.58 2135.73,-85.4 2191.42,-74.7"/>
<polygon fill="midnightblue" stroke="midnightblue" points="1983.13,-111.16 1973.97,-116.49 1984.46,-118.04 1983.13,-111.16"/>
</g>
<!-- Node35&#45;&gt;Node34 -->
<g id="edge46" class="edge">
<title>Node35&#45;&gt;Node34</title>
<path fill="none" stroke="midnightblue" d="M2025.68,-46.4C2023.33,-37.36 2020.63,-26.94 2018.77,-19.75"/>
<polygon fill="midnightblue" stroke="midnightblue" points="2022.29,-47.28 2028.19,-56.08 2029.07,-45.52 2022.29,-47.28"/>
</g>
<!-- Node39 -->
<g id="node39" class="node">
<title>Node39</title>
<g id="a_node39"><a xlink:href="vof_8cpp.html" target="_top" xlink:title=" ">
<polygon fill="white" stroke="black" points="2516.5,-0.5 2516.5,-19.5 2568.5,-19.5 2568.5,-0.5 2516.5,-0.5"/>
<text text-anchor="middle" x="2542.5" y="-7.5" font-family="Helvetica,sans-Serif" font-size="10.00">vof.cpp</text>
</a>
</g>
</g>
<!-- Node38&#45;&gt;Node39 -->
<g id="edge53" class="edge">
<title>Node38&#45;&gt;Node39</title>
<path fill="none" stroke="midnightblue" d="M2465.18,-107.26C2444.7,-94.67 2421.74,-75.15 2434.5,-56 2452.64,-28.79 2490.68,-18.01 2516.41,-13.75"/>
<polygon fill="midnightblue" stroke="midnightblue" points="2463.58,-110.37 2473.99,-112.36 2467.09,-104.32 2463.58,-110.37"/>
</g>
<!-- Node40 -->
<g id="node40" class="node">
<title>Node40</title>
<g id="a_node40"><a xlink:href="vof__advection_8_h.html" target="_top" xlink:title=" ">
<polygon fill="white" stroke="black" points="2443.5,-56.5 2443.5,-75.5 2539.5,-75.5 2539.5,-56.5 2443.5,-56.5"/>
<text text-anchor="middle" x="2491.5" y="-63.5" font-family="Helvetica,sans-Serif" font-size="10.00">vof_advection.H</text>
</a>
</g>
</g>
<!-- Node38&#45;&gt;Node40 -->
<g id="edge54" class="edge">
<title>Node38&#45;&gt;Node40</title>
<path fill="none" stroke="midnightblue" d="M2491.5,-101.8C2491.5,-92.91 2491.5,-82.78 2491.5,-75.75"/>
<polygon fill="midnightblue" stroke="midnightblue" points="2488,-102.08 2491.5,-112.08 2495,-102.08 2488,-102.08"/>
</g>
<!-- Node41 -->
<g id="node41" class="node">
<title>Node41</title>
<g id="a_node41"><a xlink:href="vof__bcop_8_h.html" target="_top" xlink:title=" ">
<polygon fill="white" stroke="black" points="2558,-56.5 2558,-75.5 2629,-75.5 2629,-56.5 2558,-56.5"/>
<text text-anchor="middle" x="2593.5" y="-63.5" font-family="Helvetica,sans-Serif" font-size="10.00">vof_bcop.H</text>
</a>
</g>
</g>
<!-- Node38&#45;&gt;Node41 -->
<g id="edge56" class="edge">
<title>Node38&#45;&gt;Node41</title>
<path fill="none" stroke="midnightblue" d="M2516.83,-107.59C2535.69,-97.61 2560.88,-84.27 2577.15,-75.65"/>
<polygon fill="midnightblue" stroke="midnightblue" points="2515.09,-104.55 2507.89,-112.32 2518.36,-110.74 2515.09,-104.55"/>
</g>
<!-- Node42 -->
<g id="node42" class="node">
<title>Node42</title>
<g id="a_node42"><a xlink:href="vof__ops_8_h.html" target="_top" xlink:title=" ">
<polygon fill="white" stroke="black" points="2647,-56.5 2647,-75.5 2712,-75.5 2712,-56.5 2647,-56.5"/>
<text text-anchor="middle" x="2679.5" y="-63.5" font-family="Helvetica,sans-Serif" font-size="10.00">vof_ops.H</text>
</a>
</g>
</g>
<!-- Node38&#45;&gt;Node42 -->
<g id="edge58" class="edge">
<title>Node38&#45;&gt;Node42</title>
<path fill="none" stroke="midnightblue" d="M2522.46,-112.11C2557.73,-101.98 2614.97,-85.53 2649.74,-75.55"/>
<polygon fill="midnightblue" stroke="midnightblue" points="2521.35,-108.79 2512.7,-114.91 2523.28,-115.51 2521.35,-108.79"/>
</g>
<!-- Node40&#45;&gt;Node39 -->
<g id="edge55" class="edge">
<title>Node40&#45;&gt;Node39</title>
<path fill="none" stroke="midnightblue" d="M2506.88,-48.72C2515.87,-39.2 2526.86,-27.56 2534.24,-19.75"/>
<polygon fill="midnightblue" stroke="midnightblue" points="2504.24,-46.41 2499.92,-56.08 2509.33,-51.22 2504.24,-46.41"/>
</g>
<!-- Node41&#45;&gt;Node39 -->
<g id="edge57" class="edge">
<title>Node41&#45;&gt;Node39</title>
<path fill="none" stroke="midnightblue" d="M2578.12,-48.72C2569.13,-39.2 2558.14,-27.56 2550.76,-19.75"/>
<polygon fill="midnightblue" stroke="midnightblue" points="2575.67,-51.22 2585.08,-56.08 2580.76,-46.41 2575.67,-51.22"/>
</g>
<!-- Node42&#45;&gt;Node39 -->
<g id="edge59" class="edge">
<title>Node42&#45;&gt;Node39</title>
<path fill="none" stroke="midnightblue" d="M2648.48,-52.77C2622.74,-42.63 2586.81,-28.47 2564.11,-19.52"/>
<polygon fill="midnightblue" stroke="midnightblue" points="2647.21,-56.03 2657.79,-56.44 2649.77,-49.52 2647.21,-56.03"/>
</g>
</g>
</svg>
