<?xml version="1.0" encoding="UTF-8" standalone="no"?>
<!DOCTYPE svg PUBLIC "-//W3C//DTD SVG 1.1//EN"
 "http://www.w3.org/Graphics/SVG/1.1/DTD/svg11.dtd">
<!-- Generated by graphviz version 2.43.0 (0)
 -->
<!-- Title: IOManager.H Pages: 1 -->
<svg width="2811pt" height="364pt"
 viewBox="0.00 0.00 2811.32 364.00" xmlns="http://www.w3.org/2000/svg" xmlns:xlink="http://www.w3.org/1999/xlink">
<g id="graph0" class="graph" transform="scale(1 1) rotate(0) translate(4 360)">
<title>IOManager.H</title>
<polygon fill="white" stroke="transparent" points="-4,4 -4,-360 2807.32,-360 2807.32,4 -4,4"/>
<!-- Node1 -->
<g id="node1" class="node">
<title>Node1</title>
<g id="a_node1"><a xlink:title=" ">
<polygon fill="#bfbfbf" stroke="black" points="1813.32,-336.5 1813.32,-355.5 1893.32,-355.5 1893.32,-336.5 1813.32,-336.5"/>
<text text-anchor="middle" x="1853.32" y="-343.5" font-family="Helvetica,sans-Serif" font-size="10.00">IOManager.H</text>
</a>
</g>
</g>
<!-- Node2 -->
<g id="node2" class="node">
<title>Node2</title>
<g id="a_node2"><a xlink:href="_c_f_d_sim_8cpp.html" target="_top" xlink:title=" ">
<polygon fill="white" stroke="black" points="920.32,-280.5 920.32,-299.5 996.32,-299.5 996.32,-280.5 920.32,-280.5"/>
<text text-anchor="middle" x="958.32" y="-287.5" font-family="Helvetica,sans-Serif" font-size="10.00">CFDSim.cpp</text>
</a>
</g>
</g>
<!-- Node1&#45;&gt;Node2 -->
<g id="edge1" class="edge">
<title>Node1&#45;&gt;Node2</title>
<path fill="none" stroke="midnightblue" d="M1802.8,-344.71C1671.05,-343.45 1306.34,-336.63 1005.32,-300 1002.44,-299.65 999.46,-299.23 996.48,-298.76"/>
<polygon fill="midnightblue" stroke="midnightblue" points="1802.96,-348.22 1812.99,-344.8 1803.02,-341.22 1802.96,-348.22"/>
</g>
<!-- Node3 -->
<g id="node3" class="node">
<title>Node3</title>
<g id="a_node3"><a xlink:href="_p_d_e_ops_8_h.html" target="_top" xlink:title=" ">
<polygon fill="white" stroke="black" points="1014.82,-280.5 1014.82,-299.5 1079.82,-299.5 1079.82,-280.5 1014.82,-280.5"/>
<text text-anchor="middle" x="1047.32" y="-287.5" font-family="Helvetica,sans-Serif" font-size="10.00">PDEOps.H</text>
</a>
</g>
</g>
<!-- Node1&#45;&gt;Node3 -->
<g id="edge2" class="edge">
<title>Node1&#45;&gt;Node3</title>
<path fill="none" stroke="midnightblue" d="M1802.88,-343.19C1683.17,-338.63 1372.62,-325.18 1114.32,-300 1103.11,-298.91 1090.89,-297.37 1079.98,-295.87"/>
<polygon fill="midnightblue" stroke="midnightblue" points="1803.07,-346.7 1813.19,-343.58 1803.33,-339.71 1803.07,-346.7"/>
</g>
<!-- Node53 -->
<g id="node28" class="node">
<title>Node53</title>
<g id="a_node28"><a xlink:href="_i_b_8cpp.html" target="_top" xlink:title=" ">
<polygon fill="white" stroke="black" points="1123.82,-280.5 1123.82,-299.5 1170.82,-299.5 1170.82,-280.5 1123.82,-280.5"/>
<text text-anchor="middle" x="1147.32" y="-287.5" font-family="Helvetica,sans-Serif" font-size="10.00">IB.cpp</text>
</a>
</g>
</g>
<!-- Node1&#45;&gt;Node53 -->
<g id="edge58" class="edge">
<title>Node1&#45;&gt;Node53</title>
<path fill="none" stroke="midnightblue" d="M1803.05,-345.19C1690.48,-344.84 1409.92,-339.68 1179.32,-300 1176.59,-299.53 1173.76,-298.92 1170.96,-298.24"/>
<polygon fill="midnightblue" stroke="midnightblue" points="1803.09,-348.69 1813.1,-345.21 1803.11,-341.69 1803.09,-348.69"/>
</g>
<!-- Node54 -->
<g id="node29" class="node">
<title>Node54</title>
<g id="a_node29"><a xlink:href="incflo_8cpp.html" target="_top" xlink:title=" ">
<polygon fill="white" stroke="black" points="1188.82,-280.5 1188.82,-299.5 1251.82,-299.5 1251.82,-280.5 1188.82,-280.5"/>
<text text-anchor="middle" x="1220.32" y="-287.5" font-family="Helvetica,sans-Serif" font-size="10.00">incflo.cpp</text>
</a>
</g>
</g>
<!-- Node1&#45;&gt;Node54 -->
<g id="edge59" class="edge">
<title>Node1&#45;&gt;Node54</title>
<path fill="none" stroke="midnightblue" d="M1803.22,-343.56C1700.89,-340.1 1460.73,-329.32 1261.32,-300 1258.3,-299.55 1255.16,-299.01 1252.03,-298.42"/>
<polygon fill="midnightblue" stroke="midnightblue" points="1803.16,-347.06 1813.27,-343.89 1803.39,-340.06 1803.16,-347.06"/>
</g>
<!-- Node55 -->
<g id="node30" class="node">
<title>Node55</title>
<g id="a_node30"><a xlink:href="_ocean_waves_8cpp.html" target="_top" xlink:title=" ">
<polygon fill="white" stroke="black" points="1270.32,-280.5 1270.32,-299.5 1370.32,-299.5 1370.32,-280.5 1270.32,-280.5"/>
<text text-anchor="middle" x="1320.32" y="-287.5" font-family="Helvetica,sans-Serif" font-size="10.00">OceanWaves.cpp</text>
</a>
</g>
</g>
<!-- Node1&#45;&gt;Node55 -->
<g id="edge60" class="edge">
<title>Node1&#45;&gt;Node55</title>
<path fill="none" stroke="midnightblue" d="M1803.22,-341.18C1716.62,-334.38 1533.44,-319.05 1379.32,-300 1376.45,-299.64 1373.49,-299.26 1370.51,-298.85"/>
<polygon fill="midnightblue" stroke="midnightblue" points="1803.05,-344.68 1813.29,-341.97 1803.59,-337.7 1803.05,-344.68"/>
</g>
<!-- Node56 -->
<g id="node31" class="node">
<title>Node56</title>
<g id="a_node31"><a xlink:href="_tioga_interface_8cpp.html" target="_top" xlink:title=" ">
<polygon fill="white" stroke="black" points="1388.82,-280.5 1388.82,-299.5 1495.82,-299.5 1495.82,-280.5 1388.82,-280.5"/>
<text text-anchor="middle" x="1442.32" y="-287.5" font-family="Helvetica,sans-Serif" font-size="10.00">TiogaInterface.cpp</text>
</a>
</g>
</g>
<!-- Node1&#45;&gt;Node56 -->
<g id="edge61" class="edge">
<title>Node1&#45;&gt;Node56</title>
<path fill="none" stroke="midnightblue" d="M1803.28,-338.8C1735.48,-330.34 1610.69,-314.58 1504.32,-300 1501.63,-299.63 1498.87,-299.25 1496.09,-298.86"/>
<polygon fill="midnightblue" stroke="midnightblue" points="1802.9,-342.28 1813.26,-340.04 1803.77,-335.33 1802.9,-342.28"/>
</g>
<!-- Node57 -->
<g id="node32" class="node">
<title>Node57</title>
<g id="a_node32"><a xlink:href="_turb_model_base_8_h.html" target="_top" xlink:title=" ">
<polygon fill="white" stroke="black" points="1513.82,-280.5 1513.82,-299.5 1614.82,-299.5 1614.82,-280.5 1513.82,-280.5"/>
<text text-anchor="middle" x="1564.32" y="-287.5" font-family="Helvetica,sans-Serif" font-size="10.00">TurbModelBase.H</text>
</a>
</g>
</g>
<!-- Node1&#45;&gt;Node57 -->
<g id="edge62" class="edge">
<title>Node1&#45;&gt;Node57</title>
<path fill="none" stroke="midnightblue" d="M1803.02,-335.6C1748.55,-325.42 1662.42,-309.33 1609.88,-299.51"/>
<polygon fill="midnightblue" stroke="midnightblue" points="1802.67,-339.1 1813.14,-337.49 1803.95,-332.21 1802.67,-339.1"/>
</g>
<!-- Node70 -->
<g id="node39" class="node">
<title>Node70</title>
<g id="a_node39"><a xlink:href="_re_averaging_8cpp.html" target="_top" xlink:title=" ">
<polygon fill="white" stroke="black" points="1633.32,-280.5 1633.32,-299.5 1731.32,-299.5 1731.32,-280.5 1633.32,-280.5"/>
<text text-anchor="middle" x="1682.32" y="-287.5" font-family="Helvetica,sans-Serif" font-size="10.00">ReAveraging.cpp</text>
</a>
</g>
</g>
<!-- Node1&#45;&gt;Node70 -->
<g id="edge69" class="edge">
<title>Node1&#45;&gt;Node70</title>
<path fill="none" stroke="midnightblue" d="M1816.29,-333.3C1784.07,-323.13 1738.14,-308.62 1709.29,-299.52"/>
<polygon fill="midnightblue" stroke="midnightblue" points="1815.64,-336.77 1826.23,-336.44 1817.75,-330.09 1815.64,-336.77"/>
</g>
<!-- Node71 -->
<g id="node40" class="node">
<title>Node71</title>
<g id="a_node40"><a xlink:href="_reynolds_stress_8cpp.html" target="_top" xlink:title=" ">
<polygon fill="white" stroke="black" points="1749.32,-280.5 1749.32,-299.5 1861.32,-299.5 1861.32,-280.5 1749.32,-280.5"/>
<text text-anchor="middle" x="1805.32" y="-287.5" font-family="Helvetica,sans-Serif" font-size="10.00">ReynoldsStress.cpp</text>
</a>
</g>
</g>
<!-- Node1&#45;&gt;Node71 -->
<g id="edge70" class="edge">
<title>Node1&#45;&gt;Node71</title>
<path fill="none" stroke="midnightblue" d="M1838.6,-328.43C1830.18,-318.97 1819.98,-307.48 1813.1,-299.75"/>
<polygon fill="midnightblue" stroke="midnightblue" points="1836.14,-330.93 1845.4,-336.08 1841.37,-326.28 1836.14,-330.93"/>
</g>
<!-- Node72 -->
<g id="node41" class="node">
<title>Node72</title>
<g id="a_node41"><a xlink:href="io_8cpp.html" target="_top" xlink:title=" ">
<polygon fill="white" stroke="black" points="1879.32,-280.5 1879.32,-299.5 1925.32,-299.5 1925.32,-280.5 1879.32,-280.5"/>
<text text-anchor="middle" x="1902.32" y="-287.5" font-family="Helvetica,sans-Serif" font-size="10.00">io.cpp</text>
</a>
</g>
</g>
<!-- Node1&#45;&gt;Node72 -->
<g id="edge71" class="edge">
<title>Node1&#45;&gt;Node72</title>
<path fill="none" stroke="midnightblue" d="M1868.36,-328.43C1876.95,-318.97 1887.37,-307.48 1894.38,-299.75"/>
<polygon fill="midnightblue" stroke="midnightblue" points="1865.54,-326.33 1861.42,-336.08 1870.73,-331.03 1865.54,-326.33"/>
</g>
<!-- Node73 -->
<g id="node42" class="node">
<title>Node73</title>
<g id="a_node42"><a xlink:href="_i_o_manager_8cpp.html" target="_top" xlink:title=" ">
<polygon fill="white" stroke="black" points="1943.82,-280.5 1943.82,-299.5 2032.82,-299.5 2032.82,-280.5 1943.82,-280.5"/>
<text text-anchor="middle" x="1988.32" y="-287.5" font-family="Helvetica,sans-Serif" font-size="10.00">IOManager.cpp</text>
</a>
</g>
</g>
<!-- Node1&#45;&gt;Node73 -->
<g id="edge72" class="edge">
<title>Node1&#45;&gt;Node73</title>
<path fill="none" stroke="midnightblue" d="M1884.23,-332.64C1909.56,-322.5 1944.76,-308.43 1967.03,-299.52"/>
<polygon fill="midnightblue" stroke="midnightblue" points="1882.7,-329.48 1874.72,-336.44 1885.3,-335.98 1882.7,-329.48"/>
</g>
<!-- Node74 -->
<g id="node43" class="node">
<title>Node74</title>
<g id="a_node43"><a xlink:href="_enstrophy_8cpp.html" target="_top" xlink:title=" ">
<polygon fill="white" stroke="black" points="2050.32,-280.5 2050.32,-299.5 2134.32,-299.5 2134.32,-280.5 2050.32,-280.5"/>
<text text-anchor="middle" x="2092.32" y="-287.5" font-family="Helvetica,sans-Serif" font-size="10.00">Enstrophy.cpp</text>
</a>
</g>
</g>
<!-- Node1&#45;&gt;Node74 -->
<g id="edge73" class="edge">
<title>Node1&#45;&gt;Node74</title>
<path fill="none" stroke="midnightblue" d="M1901.05,-334.22C1946.21,-324.01 2013.1,-308.9 2054.63,-299.52"/>
<polygon fill="midnightblue" stroke="midnightblue" points="1900.18,-330.83 1891.19,-336.44 1901.72,-337.65 1900.18,-330.83"/>
</g>
<!-- Node75 -->
<g id="node44" class="node">
<title>Node75</title>
<g id="a_node44"><a xlink:href="_field_norms_8cpp.html" target="_top" xlink:title=" ">
<polygon fill="white" stroke="black" points="2152.32,-280.5 2152.32,-299.5 2244.32,-299.5 2244.32,-280.5 2152.32,-280.5"/>
<text text-anchor="middle" x="2198.32" y="-287.5" font-family="Helvetica,sans-Serif" font-size="10.00">FieldNorms.cpp</text>
</a>
</g>
</g>
<!-- Node1&#45;&gt;Node75 -->
<g id="edge74" class="edge">
<title>Node1&#45;&gt;Node75</title>
<path fill="none" stroke="midnightblue" d="M1903.67,-337.32C1961.52,-328.46 2059.31,-313.39 2143.32,-300 2146.19,-299.54 2149.14,-299.07 2152.12,-298.59"/>
<polygon fill="midnightblue" stroke="midnightblue" points="1903.04,-333.87 1893.69,-338.84 1904.1,-340.79 1903.04,-333.87"/>
</g>
<!-- Node76 -->
<g id="node45" class="node">
<title>Node76</title>
<g id="a_node45"><a xlink:href="_kinetic_energy_8cpp.html" target="_top" xlink:title=" ">
<polygon fill="white" stroke="black" points="2262.82,-280.5 2262.82,-299.5 2365.82,-299.5 2365.82,-280.5 2262.82,-280.5"/>
<text text-anchor="middle" x="2314.32" y="-287.5" font-family="Helvetica,sans-Serif" font-size="10.00">KineticEnergy.cpp</text>
</a>
</g>
</g>
<!-- Node1&#45;&gt;Node76 -->
<g id="edge75" class="edge">
<title>Node1&#45;&gt;Node76</title>
<path fill="none" stroke="midnightblue" d="M1903.62,-339.9C1979.5,-332.09 2127.74,-316.32 2253.32,-300 2256.4,-299.6 2259.57,-299.17 2262.76,-298.74"/>
<polygon fill="midnightblue" stroke="midnightblue" points="1903,-336.45 1893.41,-340.95 1903.71,-343.41 1903,-336.45"/>
</g>
<!-- Node77 -->
<g id="node46" class="node">
<title>Node77</title>
<g id="a_node46"><a xlink:href="_sampling_8cpp.html" target="_top" xlink:title=" ">
<polygon fill="white" stroke="black" points="2383.82,-280.5 2383.82,-299.5 2466.82,-299.5 2466.82,-280.5 2383.82,-280.5"/>
<text text-anchor="middle" x="2425.32" y="-287.5" font-family="Helvetica,sans-Serif" font-size="10.00">Sampling.cpp</text>
</a>
</g>
</g>
<!-- Node1&#45;&gt;Node77 -->
<g id="edge76" class="edge">
<title>Node1&#45;&gt;Node77</title>
<path fill="none" stroke="midnightblue" d="M1903.4,-342.22C1996.59,-336.71 2202.81,-322.91 2375.32,-300 2378.04,-299.64 2380.82,-299.24 2383.63,-298.8"/>
<polygon fill="midnightblue" stroke="midnightblue" points="1903.19,-338.73 1893.41,-342.81 1903.6,-345.72 1903.19,-338.73"/>
</g>
<!-- Node78 -->
<g id="node47" class="node">
<title>Node78</title>
<g id="a_node47"><a xlink:href="_wave_energy_8cpp.html" target="_top" xlink:title=" ">
<polygon fill="white" stroke="black" points="2485.32,-280.5 2485.32,-299.5 2581.32,-299.5 2581.32,-280.5 2485.32,-280.5"/>
<text text-anchor="middle" x="2533.32" y="-287.5" font-family="Helvetica,sans-Serif" font-size="10.00">WaveEnergy.cpp</text>
</a>
</g>
</g>
<!-- Node1&#45;&gt;Node78 -->
<g id="edge77" class="edge">
<title>Node1&#45;&gt;Node78</title>
<path fill="none" stroke="midnightblue" d="M1903.62,-342.81C2009.72,-337.88 2264.15,-324.37 2476.32,-300 2479.21,-299.67 2482.17,-299.3 2485.16,-298.9"/>
<polygon fill="midnightblue" stroke="midnightblue" points="1903.35,-339.32 1893.52,-343.28 1903.67,-346.31 1903.35,-339.32"/>
</g>
<!-- Node79 -->
<g id="node48" class="node">
<title>Node79</title>
<g id="a_node48"><a xlink:href="_actuator_8cpp.html" target="_top" xlink:title=" ">
<polygon fill="white" stroke="black" points="2599.82,-280.5 2599.82,-299.5 2676.82,-299.5 2676.82,-280.5 2599.82,-280.5"/>
<text text-anchor="middle" x="2638.32" y="-287.5" font-family="Helvetica,sans-Serif" font-size="10.00">Actuator.cpp</text>
</a>
</g>
</g>
<!-- Node1&#45;&gt;Node79 -->
<g id="edge78" class="edge">
<title>Node1&#45;&gt;Node79</title>
<path fill="none" stroke="midnightblue" d="M1903.73,-344.08C2023.33,-341.43 2333.46,-331.8 2590.32,-300 2593.35,-299.63 2596.48,-299.18 2599.62,-298.69"/>
<polygon fill="midnightblue" stroke="midnightblue" points="1903.35,-340.59 1893.43,-344.3 1903.5,-347.59 1903.35,-340.59"/>
</g>
<!-- Node80 -->
<g id="node49" class="node">
<title>Node80</title>
<g id="a_node49"><a xlink:href="turbine__fast__ops_8_h.html" target="_top" xlink:title=" ">
<polygon fill="white" stroke="black" points="2695.32,-280.5 2695.32,-299.5 2803.32,-299.5 2803.32,-280.5 2695.32,-280.5"/>
<text text-anchor="middle" x="2749.32" y="-287.5" font-family="Helvetica,sans-Serif" font-size="10.00">turbine_fast_ops.H</text>
</a>
</g>
</g>
<!-- Node1&#45;&gt;Node80 -->
<g id="edge79" class="edge">
<title>Node1&#45;&gt;Node80</title>
<path fill="none" stroke="midnightblue" d="M1903.78,-343.82C2033.76,-340.44 2390.57,-329.06 2686.32,-300 2689.18,-299.72 2692.11,-299.4 2695.07,-299.06"/>
<polygon fill="midnightblue" stroke="midnightblue" points="1903.64,-340.32 1893.73,-344.08 1903.82,-347.32 1903.64,-340.32"/>
</g>
<!-- Node4 -->
<g id="node4" class="node">
<title>Node4</title>
<g id="a_node4"><a xlink:href="_adv_op___godunov_8_h.html" target="_top" xlink:title=" ">
<polygon fill="white" stroke="black" points="308.82,-112.5 308.82,-131.5 415.82,-131.5 415.82,-112.5 308.82,-112.5"/>
<text text-anchor="middle" x="362.32" y="-119.5" font-family="Helvetica,sans-Serif" font-size="10.00">AdvOp_Godunov.H</text>
</a>
</g>
</g>
<!-- Node3&#45;&gt;Node4 -->
<g id="edge3" class="edge">
<title>Node3&#45;&gt;Node4</title>
<path fill="none" stroke="midnightblue" d="M1004.96,-279.94C926.86,-263.59 905.83,-261.1 832.32,-244 665.93,-205.29 468.3,-152 393.27,-131.5"/>
<polygon fill="midnightblue" stroke="midnightblue" points="1004.26,-283.37 1014.77,-282 1005.7,-276.52 1004.26,-283.37"/>
</g>
<!-- Node9 -->
<g id="node8" class="node">
<title>Node9</title>
<g id="a_node8"><a xlink:href="icns__ops_8_h.html" target="_top" xlink:title=" ">
<polygon fill="white" stroke="black" points="1107.82,-56.5 1107.82,-75.5 1176.82,-75.5 1176.82,-56.5 1107.82,-56.5"/>
<text text-anchor="middle" x="1142.32" y="-63.5" font-family="Helvetica,sans-Serif" font-size="10.00">icns_ops.H</text>
</a>
</g>
</g>
<!-- Node3&#45;&gt;Node9 -->
<g id="edge56" class="edge">
<title>Node3&#45;&gt;Node9</title>
<path fill="none" stroke="midnightblue" d="M1044.71,-269.97C1042.2,-245.11 1040.88,-200.87 1057.32,-168 1076.91,-128.85 1114.59,-91.9 1132.46,-75.66"/>
<polygon fill="midnightblue" stroke="midnightblue" points="1041.27,-270.69 1045.93,-280.2 1048.22,-269.86 1041.27,-270.69"/>
</g>
<!-- Node16 -->
<g id="node15" class="node">
<title>Node16</title>
<g id="a_node15"><a xlink:href="_adv_op___m_o_l_8_h.html" target="_top" xlink:title=" ">
<polygon fill="white" stroke="black" points="436.32,-112.5 436.32,-131.5 522.32,-131.5 522.32,-112.5 436.32,-112.5"/>
<text text-anchor="middle" x="479.32" y="-119.5" font-family="Helvetica,sans-Serif" font-size="10.00">AdvOp_MOL.H</text>
</a>
</g>
</g>
<!-- Node3&#45;&gt;Node16 -->
<g id="edge15" class="edge">
<title>Node3&#45;&gt;Node16</title>
<path fill="none" stroke="midnightblue" d="M1008.19,-277.56C900.76,-246.17 602.98,-159.14 508.49,-131.52"/>
<polygon fill="midnightblue" stroke="midnightblue" points="1007.4,-280.98 1017.98,-280.42 1009.37,-274.26 1007.4,-280.98"/>
</g>
<!-- Node17 -->
<g id="node16" class="node">
<title>Node17</title>
<g id="a_node16"><a xlink:href="_b_c_ops_8_h.html" target="_top" xlink:title=" ">
<polygon fill="white" stroke="black" points="615.82,-112.5 615.82,-131.5 674.82,-131.5 674.82,-112.5 615.82,-112.5"/>
<text text-anchor="middle" x="645.32" y="-119.5" font-family="Helvetica,sans-Serif" font-size="10.00">BCOps.H</text>
</a>
</g>
</g>
<!-- Node3&#45;&gt;Node17 -->
<g id="edge25" class="edge">
<title>Node3&#45;&gt;Node17</title>
<path fill="none" stroke="midnightblue" d="M1017.3,-276.6C939.48,-244.47 732.67,-159.07 666.21,-131.62"/>
<polygon fill="midnightblue" stroke="midnightblue" points="1015.98,-279.84 1026.56,-280.42 1018.65,-273.37 1015.98,-279.84"/>
</g>
<!-- Node23 -->
<g id="node21" class="node">
<title>Node23</title>
<g id="a_node21"><a xlink:href="_comp_r_h_s_ops_8_h.html" target="_top" xlink:title=" ">
<polygon fill="white" stroke="black" points="1062.82,-224.5 1062.82,-243.5 1157.82,-243.5 1157.82,-224.5 1062.82,-224.5"/>
<text text-anchor="middle" x="1110.32" y="-231.5" font-family="Helvetica,sans-Serif" font-size="10.00">CompRHSOps.H</text>
</a>
</g>
</g>
<!-- Node3&#45;&gt;Node23 -->
<g id="edge39" class="edge">
<title>Node3&#45;&gt;Node23</title>
<path fill="none" stroke="midnightblue" d="M1065.36,-273.54C1076.6,-263.91 1090.64,-251.87 1100.02,-243.83"/>
<polygon fill="midnightblue" stroke="midnightblue" points="1062.76,-271.16 1057.45,-280.32 1067.32,-276.47 1062.76,-271.16"/>
</g>
<!-- Node24 -->
<g id="node22" class="node">
<title>Node24</title>
<g id="a_node22"><a xlink:href="_p_d_e_8_h.html" target="_top" xlink:title=" ">
<polygon fill="white" stroke="red" points="1066.82,-168.5 1066.82,-187.5 1113.82,-187.5 1113.82,-168.5 1066.82,-168.5"/>
<text text-anchor="middle" x="1090.32" y="-175.5" font-family="Helvetica,sans-Serif" font-size="10.00">PDE.H</text>
</a>
</g>
</g>
<!-- Node3&#45;&gt;Node24 -->
<g id="edge57" class="edge">
<title>Node3&#45;&gt;Node24</title>
<path fill="none" stroke="midnightblue" d="M1046.19,-269.87C1046.08,-256.54 1047.32,-238.59 1053.32,-224 1059.32,-209.41 1071.75,-195.89 1080.54,-187.55"/>
<polygon fill="midnightblue" stroke="midnightblue" points="1042.7,-270.33 1046.55,-280.2 1049.7,-270.09 1042.7,-270.33"/>
</g>
<!-- Node28 -->
<g id="node25" class="node">
<title>Node28</title>
<g id="a_node25"><a xlink:href="icns__diffusion_8_h.html" target="_top" xlink:title=" ">
<polygon fill="white" stroke="black" points="1326.32,-56.5 1326.32,-75.5 1420.32,-75.5 1420.32,-56.5 1326.32,-56.5"/>
<text text-anchor="middle" x="1373.32" y="-63.5" font-family="Helvetica,sans-Serif" font-size="10.00">icns_diffusion.H</text>
</a>
</g>
</g>
<!-- Node3&#45;&gt;Node28 -->
<g id="edge55" class="edge">
<title>Node3&#45;&gt;Node28</title>
<path fill="none" stroke="midnightblue" d="M1090.35,-282.41C1151.72,-272.72 1258.66,-254.62 1273.32,-244 1334.79,-199.51 1363.55,-104.9 1371.18,-75.74"/>
<polygon fill="midnightblue" stroke="midnightblue" points="1089.52,-279 1080.18,-284.01 1090.6,-285.92 1089.52,-279"/>
</g>
<!-- Node51 -->
<g id="node26" class="node">
<title>Node51</title>
<g id="a_node26"><a xlink:href="_diffusion_ops_8_h.html" target="_top" xlink:title=" ">
<polygon fill="white" stroke="black" points="1175.82,-224.5 1175.82,-243.5 1264.82,-243.5 1264.82,-224.5 1175.82,-224.5"/>
<text text-anchor="middle" x="1220.32" y="-231.5" font-family="Helvetica,sans-Serif" font-size="10.00">DiffusionOps.H</text>
</a>
</g>
</g>
<!-- Node3&#45;&gt;Node51 -->
<g id="edge50" class="edge">
<title>Node3&#45;&gt;Node51</title>
<path fill="none" stroke="midnightblue" d="M1084.37,-277.44C1116.99,-267.26 1163.73,-252.66 1193.04,-243.52"/>
<polygon fill="midnightblue" stroke="midnightblue" points="1083.24,-274.12 1074.74,-280.44 1085.33,-280.8 1083.24,-274.12"/>
</g>
<!-- Node5 -->
<g id="node5" class="node">
<title>Node5</title>
<g id="a_node5"><a xlink:href="density_8cpp.html" target="_top" xlink:title=" ">
<polygon fill="white" stroke="black" points="538.82,-56.5 538.82,-75.5 609.82,-75.5 609.82,-56.5 538.82,-56.5"/>
<text text-anchor="middle" x="574.32" y="-63.5" font-family="Helvetica,sans-Serif" font-size="10.00">density.cpp</text>
</a>
</g>
</g>
<!-- Node4&#45;&gt;Node5 -->
<g id="edge4" class="edge">
<title>Node4&#45;&gt;Node5</title>
<path fill="none" stroke="midnightblue" d="M405.67,-109.96C445.71,-99.76 504.36,-84.82 540.89,-75.52"/>
<polygon fill="midnightblue" stroke="midnightblue" points="404.74,-106.58 395.92,-112.44 406.47,-113.37 404.74,-106.58"/>
</g>
<!-- Node6 -->
<g id="node6" class="node">
<title>Node6</title>
<g id="a_node6"><a xlink:href="icns__advection_8_h.html" target="_top" xlink:title=" ">
<polygon fill="white" stroke="red" points="628.32,-56.5 628.32,-75.5 728.32,-75.5 728.32,-56.5 628.32,-56.5"/>
<text text-anchor="middle" x="678.32" y="-63.5" font-family="Helvetica,sans-Serif" font-size="10.00">icns_advection.H</text>
</a>
</g>
</g>
<!-- Node4&#45;&gt;Node6 -->
<g id="edge5" class="edge">
<title>Node4&#45;&gt;Node6</title>
<path fill="none" stroke="midnightblue" d="M422.44,-110.73C482.15,-100.52 572.65,-85.06 628.49,-75.52"/>
<polygon fill="midnightblue" stroke="midnightblue" points="421.66,-107.31 412.4,-112.44 422.84,-114.21 421.66,-107.31"/>
</g>
<!-- Node4&#45;&gt;Node9 -->
<g id="edge7" class="edge">
<title>Node4&#45;&gt;Node9</title>
<path fill="none" stroke="midnightblue" d="M425.92,-112.14C426.39,-112.09 426.86,-112.04 427.32,-112 724.61,-83.49 802.1,-114.03 1098.32,-76 1101.42,-75.6 1104.62,-75.11 1107.82,-74.56"/>
<polygon fill="midnightblue" stroke="midnightblue" points="425.41,-108.67 415.84,-113.23 426.16,-115.63 425.41,-108.67"/>
</g>
<!-- Node10 -->
<g id="node9" class="node">
<title>Node10</title>
<g id="a_node9"><a xlink:href="levelset_8cpp.html" target="_top" xlink:title=" ">
<polygon fill="white" stroke="black" points="444.32,-56.5 444.32,-75.5 520.32,-75.5 520.32,-56.5 444.32,-56.5"/>
<text text-anchor="middle" x="482.32" y="-63.5" font-family="Helvetica,sans-Serif" font-size="10.00">levelset.cpp</text>
</a>
</g>
</g>
<!-- Node4&#45;&gt;Node10 -->
<g id="edge9" class="edge">
<title>Node4&#45;&gt;Node10</title>
<path fill="none" stroke="midnightblue" d="M390.7,-108.23C413.14,-98.13 443.86,-84.31 463.4,-75.52"/>
<polygon fill="midnightblue" stroke="midnightblue" points="389.02,-105.15 381.34,-112.44 391.89,-111.53 389.02,-105.15"/>
</g>
<!-- Node11 -->
<g id="node10" class="node">
<title>Node11</title>
<g id="a_node10"><a xlink:href="passive__scalar_8cpp.html" target="_top" xlink:title=" ">
<polygon fill="white" stroke="black" points="14.32,-56.5 14.32,-75.5 122.32,-75.5 122.32,-56.5 14.32,-56.5"/>
<text text-anchor="middle" x="68.32" y="-63.5" font-family="Helvetica,sans-Serif" font-size="10.00">passive_scalar.cpp</text>
</a>
</g>
</g>
<!-- Node4&#45;&gt;Node11 -->
<g id="edge10" class="edge">
<title>Node4&#45;&gt;Node11</title>
<path fill="none" stroke="midnightblue" d="M305.71,-110.6C250.14,-100.4 166.43,-85.02 114.69,-75.52"/>
<polygon fill="midnightblue" stroke="midnightblue" points="305.27,-114.08 315.74,-112.44 306.54,-107.19 305.27,-114.08"/>
</g>
<!-- Node12 -->
<g id="node11" class="node">
<title>Node12</title>
<g id="a_node11"><a xlink:href="_s_d_r_8cpp.html" target="_top" xlink:title=" ">
<polygon fill="white" stroke="black" points="140.82,-56.5 140.82,-75.5 197.82,-75.5 197.82,-56.5 140.82,-56.5"/>
<text text-anchor="middle" x="169.32" y="-63.5" font-family="Helvetica,sans-Serif" font-size="10.00">SDR.cpp</text>
</a>
</g>
</g>
<!-- Node4&#45;&gt;Node12 -->
<g id="edge11" class="edge">
<title>Node4&#45;&gt;Node12</title>
<path fill="none" stroke="midnightblue" d="M321.75,-109.65C284.63,-99.26 230.64,-84.16 197.88,-74.99"/>
<polygon fill="midnightblue" stroke="midnightblue" points="321.17,-113.12 331.74,-112.44 323.06,-106.38 321.17,-113.12"/>
</g>
<!-- Node13 -->
<g id="node12" class="node">
<title>Node13</title>
<g id="a_node12"><a xlink:href="temperature_8cpp.html" target="_top" xlink:title=" ">
<polygon fill="white" stroke="black" points="216.32,-56.5 216.32,-75.5 314.32,-75.5 314.32,-56.5 216.32,-56.5"/>
<text text-anchor="middle" x="265.32" y="-63.5" font-family="Helvetica,sans-Serif" font-size="10.00">temperature.cpp</text>
</a>
</g>
</g>
<!-- Node4&#45;&gt;Node13 -->
<g id="edge12" class="edge">
<title>Node4&#45;&gt;Node13</title>
<path fill="none" stroke="midnightblue" d="M337.99,-107.45C320.08,-97.48 296.27,-84.23 280.87,-75.65"/>
<polygon fill="midnightblue" stroke="midnightblue" points="336.3,-110.52 346.74,-112.32 339.71,-104.4 336.3,-110.52"/>
</g>
<!-- Node14 -->
<g id="node13" class="node">
<title>Node14</title>
<g id="a_node13"><a xlink:href="_t_k_e_8cpp.html" target="_top" xlink:title=" ">
<polygon fill="white" stroke="black" points="332.32,-56.5 332.32,-75.5 388.32,-75.5 388.32,-56.5 332.32,-56.5"/>
<text text-anchor="middle" x="360.32" y="-63.5" font-family="Helvetica,sans-Serif" font-size="10.00">TKE.cpp</text>
</a>
</g>
</g>
<!-- Node4&#45;&gt;Node14 -->
<g id="edge13" class="edge">
<title>Node4&#45;&gt;Node14</title>
<path fill="none" stroke="midnightblue" d="M361.61,-101.8C361.28,-92.91 360.91,-82.78 360.65,-75.75"/>
<polygon fill="midnightblue" stroke="midnightblue" points="358.13,-102.22 361.99,-112.08 365.12,-101.96 358.13,-102.22"/>
</g>
<!-- Node15 -->
<g id="node14" class="node">
<title>Node15</title>
<g id="a_node14"><a xlink:href="vof_8cpp.html" target="_top" xlink:title=" ">
<polygon fill="white" stroke="black" points="560.32,-0.5 560.32,-19.5 612.32,-19.5 612.32,-0.5 560.32,-0.5"/>
<text text-anchor="middle" x="586.32" y="-7.5" font-family="Helvetica,sans-Serif" font-size="10.00">vof.cpp</text>
</a>
</g>
</g>
<!-- Node4&#45;&gt;Node15 -->
<g id="edge14" class="edge">
<title>Node4&#45;&gt;Node15</title>
<path fill="none" stroke="midnightblue" d="M298.42,-119.15C185.05,-114.72 -35.7,-100.33 5.32,-56 43.46,-14.79 452.38,-11.21 560.32,-10.99"/>
<polygon fill="midnightblue" stroke="midnightblue" points="298.59,-122.66 308.71,-119.54 298.85,-115.66 298.59,-122.66"/>
</g>
<!-- Node7 -->
<g id="node7" class="node">
<title>Node7</title>
<g id="a_node7"><a xlink:href="icns_8cpp.html" target="_top" xlink:title=" ">
<polygon fill="white" stroke="black" points="1204.32,-0.5 1204.32,-19.5 1260.32,-19.5 1260.32,-0.5 1204.32,-0.5"/>
<text text-anchor="middle" x="1232.32" y="-7.5" font-family="Helvetica,sans-Serif" font-size="10.00">icns.cpp</text>
</a>
</g>
</g>
<!-- Node6&#45;&gt;Node7 -->
<g id="edge6" class="edge">
<title>Node6&#45;&gt;Node7</title>
<path fill="none" stroke="midnightblue" d="M738.48,-59.14C857.27,-47.56 1117.9,-22.15 1204.06,-13.76"/>
<polygon fill="midnightblue" stroke="midnightblue" points="738.08,-55.66 728.47,-60.11 738.76,-62.63 738.08,-55.66"/>
</g>
<!-- Node9&#45;&gt;Node7 -->
<g id="edge8" class="edge">
<title>Node9&#45;&gt;Node7</title>
<path fill="none" stroke="midnightblue" d="M1165.36,-51.18C1181.92,-41.24 1203.74,-28.15 1217.9,-19.65"/>
<polygon fill="midnightblue" stroke="midnightblue" points="1163.56,-48.18 1156.78,-56.32 1167.16,-54.18 1163.56,-48.18"/>
</g>
<!-- Node16&#45;&gt;Node5 -->
<g id="edge16" class="edge">
<title>Node16&#45;&gt;Node5</title>
<path fill="none" stroke="midnightblue" d="M503.64,-107.18C521.12,-97.24 544.15,-84.15 559.1,-75.65"/>
<polygon fill="midnightblue" stroke="midnightblue" points="501.55,-104.34 494.59,-112.32 505.01,-110.43 501.55,-104.34"/>
</g>
<!-- Node16&#45;&gt;Node6 -->
<g id="edge17" class="edge">
<title>Node16&#45;&gt;Node6</title>
<path fill="none" stroke="midnightblue" d="M520.97,-109.7C558.53,-99.51 612.94,-84.74 646.94,-75.52"/>
<polygon fill="midnightblue" stroke="midnightblue" points="519.59,-106.45 510.86,-112.44 521.42,-113.2 519.59,-106.45"/>
</g>
<!-- Node16&#45;&gt;Node9 -->
<g id="edge18" class="edge">
<title>Node16&#45;&gt;Node9</title>
<path fill="none" stroke="midnightblue" d="M532.88,-117.2C680.69,-106.7 1084.38,-77.92 1098.32,-76 1101.41,-75.57 1104.61,-75.06 1107.81,-74.5"/>
<polygon fill="midnightblue" stroke="midnightblue" points="532.42,-113.72 522.69,-117.92 532.91,-120.71 532.42,-113.72"/>
</g>
<!-- Node16&#45;&gt;Node10 -->
<g id="edge19" class="edge">
<title>Node16&#45;&gt;Node10</title>
<path fill="none" stroke="midnightblue" d="M480.39,-101.8C480.89,-92.91 481.45,-82.78 481.84,-75.75"/>
<polygon fill="midnightblue" stroke="midnightblue" points="476.88,-101.9 479.82,-112.08 483.87,-102.29 476.88,-101.9"/>
</g>
<!-- Node16&#45;&gt;Node11 -->
<g id="edge20" class="edge">
<title>Node16&#45;&gt;Node11</title>
<path fill="none" stroke="midnightblue" d="M426.13,-112.26C425.53,-112.17 424.92,-112.09 424.32,-112 294.45,-93.4 261.38,-93.28 131.32,-76 128.48,-75.62 125.56,-75.23 122.61,-74.82"/>
<polygon fill="midnightblue" stroke="midnightblue" points="425.71,-115.74 436.12,-113.76 426.75,-108.81 425.71,-115.74"/>
</g>
<!-- Node16&#45;&gt;Node12 -->
<g id="edge21" class="edge">
<title>Node16&#45;&gt;Node12</title>
<path fill="none" stroke="midnightblue" d="M426.15,-112.3C350.04,-99.83 217.96,-78.14 207.32,-76 204.27,-75.39 201.08,-74.7 197.91,-73.99"/>
<polygon fill="midnightblue" stroke="midnightblue" points="425.61,-115.76 436.05,-113.92 426.75,-108.85 425.61,-115.76"/>
</g>
<!-- Node16&#45;&gt;Node13 -->
<g id="edge22" class="edge">
<title>Node16&#45;&gt;Node13</title>
<path fill="none" stroke="midnightblue" d="M435.57,-109.96C395.15,-99.76 335.95,-84.82 299.07,-75.52"/>
<polygon fill="midnightblue" stroke="midnightblue" points="434.86,-113.39 445.42,-112.44 436.58,-106.6 434.86,-113.39"/>
</g>
<!-- Node16&#45;&gt;Node14 -->
<g id="edge23" class="edge">
<title>Node16&#45;&gt;Node14</title>
<path fill="none" stroke="midnightblue" d="M451.19,-108.23C428.93,-98.13 398.47,-84.31 379.09,-75.52"/>
<polygon fill="midnightblue" stroke="midnightblue" points="449.92,-111.5 460.47,-112.44 452.81,-105.12 449.92,-111.5"/>
</g>
<!-- Node16&#45;&gt;Node15 -->
<g id="edge24" class="edge">
<title>Node16&#45;&gt;Node15</title>
<path fill="none" stroke="midnightblue" d="M457.73,-106.09C441.08,-92.74 422.84,-72.75 435.32,-56 464.18,-17.29 525.02,-10.57 560.03,-10.12"/>
<polygon fill="midnightblue" stroke="midnightblue" points="456.02,-109.19 466.12,-112.41 460.24,-103.6 456.02,-109.19"/>
</g>
<!-- Node17&#45;&gt;Node5 -->
<g id="edge26" class="edge">
<title>Node17&#45;&gt;Node5</title>
<path fill="none" stroke="midnightblue" d="M625.73,-106.1C612.96,-96.38 596.71,-84.03 585.94,-75.83"/>
<polygon fill="midnightblue" stroke="midnightblue" points="623.84,-109.06 633.92,-112.32 628.08,-103.48 623.84,-109.06"/>
</g>
<!-- Node17&#45;&gt;Node10 -->
<g id="edge29" class="edge">
<title>Node17&#45;&gt;Node10</title>
<path fill="none" stroke="midnightblue" d="M609.62,-109.17C578.93,-99 535.41,-84.59 508.03,-75.52"/>
<polygon fill="midnightblue" stroke="midnightblue" points="608.9,-112.62 619.5,-112.44 611.1,-105.98 608.9,-112.62"/>
</g>
<!-- Node17&#45;&gt;Node11 -->
<g id="edge30" class="edge">
<title>Node17&#45;&gt;Node11</title>
<path fill="none" stroke="midnightblue" d="M605.64,-117.81C501.71,-109.4 223.27,-86.58 131.32,-76 128.47,-75.67 125.55,-75.32 122.6,-74.94"/>
<polygon fill="midnightblue" stroke="midnightblue" points="605.47,-121.31 615.72,-118.62 606.03,-114.33 605.47,-121.31"/>
</g>
<!-- Node17&#45;&gt;Node12 -->
<g id="edge31" class="edge">
<title>Node17&#45;&gt;Node12</title>
<path fill="none" stroke="midnightblue" d="M605.53,-117.58C512.62,-109.49 283.53,-88.88 207.32,-76 204.25,-75.48 201.05,-74.86 197.88,-74.18"/>
<polygon fill="midnightblue" stroke="midnightblue" points="605.38,-121.08 615.65,-118.46 605.99,-114.11 605.38,-121.08"/>
</g>
<!-- Node17&#45;&gt;Node13 -->
<g id="edge32" class="edge">
<title>Node17&#45;&gt;Node13</title>
<path fill="none" stroke="midnightblue" d="M605.61,-115.65C544.79,-107.4 424.94,-90.98 323.32,-76 320.4,-75.57 317.4,-75.12 314.36,-74.66"/>
<polygon fill="midnightblue" stroke="midnightblue" points="605.18,-119.12 615.56,-116.99 606.12,-112.18 605.18,-119.12"/>
</g>
<!-- Node17&#45;&gt;Node14 -->
<g id="edge33" class="edge">
<title>Node17&#45;&gt;Node14</title>
<path fill="none" stroke="midnightblue" d="M605.68,-113.49C547.34,-102.43 439.76,-82.05 388.68,-72.37"/>
<polygon fill="midnightblue" stroke="midnightblue" points="605.15,-116.95 615.63,-115.37 606.46,-110.07 605.15,-116.95"/>
</g>
<!-- Node17&#45;&gt;Node15 -->
<g id="edge34" class="edge">
<title>Node17&#45;&gt;Node15</title>
<path fill="none" stroke="midnightblue" d="M684.9,-110.16C717.47,-99.22 755.54,-80.44 737.32,-56 708.47,-17.29 647.63,-10.57 612.62,-10.12"/>
<polygon fill="midnightblue" stroke="midnightblue" points="683.5,-106.94 675.03,-113.31 685.62,-113.61 683.5,-106.94"/>
</g>
<!-- Node18 -->
<g id="node17" class="node">
<title>Node18</title>
<g id="a_node17"><a xlink:href="icns__bcop_8_h.html" target="_top" xlink:title=" ">
<polygon fill="white" stroke="black" points="1194.82,-56.5 1194.82,-75.5 1269.82,-75.5 1269.82,-56.5 1194.82,-56.5"/>
<text text-anchor="middle" x="1232.32" y="-63.5" font-family="Helvetica,sans-Serif" font-size="10.00">icns_bcop.H</text>
</a>
</g>
</g>
<!-- Node17&#45;&gt;Node18 -->
<g id="edge27" class="edge">
<title>Node17&#45;&gt;Node18</title>
<path fill="none" stroke="midnightblue" d="M685.21,-117.73C808.02,-107.67 1172.93,-77.7 1185.32,-76 1188.37,-75.58 1191.52,-75.1 1194.67,-74.57"/>
<polygon fill="midnightblue" stroke="midnightblue" points="684.79,-114.26 675.11,-118.56 685.36,-121.23 684.79,-114.26"/>
</g>
<!-- Node19 -->
<g id="node18" class="node">
<title>Node19</title>
<g id="a_node18"><a xlink:href="vof__bcop_8_h.html" target="_top" xlink:title=" ">
<polygon fill="white" stroke="black" points="784.82,-56.5 784.82,-75.5 855.82,-75.5 855.82,-56.5 784.82,-56.5"/>
<text text-anchor="middle" x="820.32" y="-63.5" font-family="Helvetica,sans-Serif" font-size="10.00">vof_bcop.H</text>
</a>
</g>
</g>
<!-- Node17&#45;&gt;Node19 -->
<g id="edge35" class="edge">
<title>Node17&#45;&gt;Node19</title>
<path fill="none" stroke="midnightblue" d="M682.8,-109.44C715.79,-99.26 763.08,-84.66 792.73,-75.52"/>
<polygon fill="midnightblue" stroke="midnightblue" points="681.58,-106.15 673.05,-112.44 683.64,-112.84 681.58,-106.15"/>
</g>
<!-- Node20 -->
<g id="node19" class="node">
<title>Node20</title>
<g id="a_node19"><a xlink:href="waves2amr__ops_8_h.html" target="_top" xlink:title=" ">
<polygon fill="white" stroke="red" points="873.82,-56.5 873.82,-75.5 980.82,-75.5 980.82,-56.5 873.82,-56.5"/>
<text text-anchor="middle" x="927.32" y="-63.5" font-family="Helvetica,sans-Serif" font-size="10.00">waves2amr_ops.H</text>
</a>
</g>
</g>
<!-- Node17&#45;&gt;Node20 -->
<g id="edge37" class="edge">
<title>Node17&#45;&gt;Node20</title>
<path fill="none" stroke="midnightblue" d="M684.85,-113.43C736.96,-103.45 828.42,-85.94 882.88,-75.51"/>
<polygon fill="midnightblue" stroke="midnightblue" points="684.13,-110 674.97,-115.32 685.45,-116.88 684.13,-110"/>
</g>
<!-- Node22 -->
<g id="node20" class="node">
<title>Node22</title>
<g id="a_node20"><a xlink:href="_multi_phase_8cpp.html" target="_top" xlink:title=" ">
<polygon fill="white" stroke="black" points="998.82,-56.5 998.82,-75.5 1089.82,-75.5 1089.82,-56.5 998.82,-56.5"/>
<text text-anchor="middle" x="1044.32" y="-63.5" font-family="Helvetica,sans-Serif" font-size="10.00">MultiPhase.cpp</text>
</a>
</g>
</g>
<!-- Node17&#45;&gt;Node22 -->
<g id="edge38" class="edge">
<title>Node17&#45;&gt;Node22</title>
<path fill="none" stroke="midnightblue" d="M685.38,-116.18C749.6,-108.37 879.54,-92.16 989.32,-76 992.39,-75.55 995.54,-75.07 998.72,-74.58"/>
<polygon fill="midnightblue" stroke="midnightblue" points="684.78,-112.73 675.28,-117.41 685.63,-119.68 684.78,-112.73"/>
</g>
<!-- Node18&#45;&gt;Node7 -->
<g id="edge28" class="edge">
<title>Node18&#45;&gt;Node7</title>
<path fill="none" stroke="midnightblue" d="M1232.32,-45.8C1232.32,-36.91 1232.32,-26.78 1232.32,-19.75"/>
<polygon fill="midnightblue" stroke="midnightblue" points="1228.82,-46.08 1232.32,-56.08 1235.82,-46.08 1228.82,-46.08"/>
</g>
<!-- Node19&#45;&gt;Node15 -->
<g id="edge36" class="edge">
<title>Node19&#45;&gt;Node15</title>
<path fill="none" stroke="midnightblue" d="M774.89,-54.51C726.52,-43.35 651.66,-26.08 612.4,-17.02"/>
<polygon fill="midnightblue" stroke="midnightblue" points="774.25,-57.96 784.79,-56.8 775.83,-51.14 774.25,-57.96"/>
</g>
<!-- Node23&#45;&gt;Node24 -->
<g id="edge40" class="edge">
<title>Node23&#45;&gt;Node24</title>
<path fill="none" stroke="midnightblue" d="M1103.54,-214.69C1100.17,-205.59 1096.26,-195.01 1093.57,-187.75"/>
<polygon fill="midnightblue" stroke="midnightblue" points="1100.27,-215.92 1107.02,-224.08 1106.83,-213.49 1100.27,-215.92"/>
</g>
<!-- Node25 -->
<g id="node23" class="node">
<title>Node25</title>
<g id="a_node23"><a xlink:href="density_8_h.html" target="_top" xlink:title=" ">
<polygon fill="white" stroke="red" points="764.32,-112.5 764.32,-131.5 826.32,-131.5 826.32,-112.5 764.32,-112.5"/>
<text text-anchor="middle" x="795.32" y="-119.5" font-family="Helvetica,sans-Serif" font-size="10.00">density.H</text>
</a>
</g>
</g>
<!-- Node24&#45;&gt;Node25 -->
<g id="edge41" class="edge">
<title>Node24&#45;&gt;Node25</title>
<path fill="none" stroke="midnightblue" d="M1056.64,-170.83C999.01,-160.28 882.34,-138.93 826.49,-128.7"/>
<polygon fill="midnightblue" stroke="midnightblue" points="1056.22,-174.31 1066.68,-172.67 1057.48,-167.43 1056.22,-174.31"/>
</g>
<!-- Node27 -->
<g id="node24" class="node">
<title>Node27</title>
<g id="a_node24"><a xlink:href="icns_8_h.html" target="_top" xlink:title=" ">
<polygon fill="white" stroke="red" points="1189.82,-112.5 1189.82,-131.5 1236.82,-131.5 1236.82,-112.5 1189.82,-112.5"/>
<text text-anchor="middle" x="1213.32" y="-119.5" font-family="Helvetica,sans-Serif" font-size="10.00">icns.H</text>
</a>
</g>
</g>
<!-- Node24&#45;&gt;Node27 -->
<g id="edge43" class="edge">
<title>Node24&#45;&gt;Node27</title>
<path fill="none" stroke="midnightblue" d="M1119.1,-164.37C1142.13,-154.26 1173.81,-140.35 1193.93,-131.52"/>
<polygon fill="midnightblue" stroke="midnightblue" points="1117.56,-161.22 1109.81,-168.44 1120.38,-167.63 1117.56,-161.22"/>
</g>
<!-- Node25&#45;&gt;Node5 -->
<g id="edge42" class="edge">
<title>Node25&#45;&gt;Node5</title>
<path fill="none" stroke="midnightblue" d="M754.3,-110.98C712.62,-100.79 648.76,-85.19 609.37,-75.56"/>
<polygon fill="midnightblue" stroke="midnightblue" points="753.58,-114.4 764.13,-113.38 755.25,-107.6 753.58,-114.4"/>
</g>
<!-- Node27&#45;&gt;Node6 -->
<g id="edge45" class="edge">
<title>Node27&#45;&gt;Node6</title>
<path fill="none" stroke="midnightblue" d="M1179.59,-117.59C1088.39,-108.39 836.56,-82.97 728.57,-72.07"/>
<polygon fill="midnightblue" stroke="midnightblue" points="1179.35,-121.09 1189.65,-118.61 1180.05,-114.12 1179.35,-121.09"/>
</g>
<!-- Node27&#45;&gt;Node7 -->
<g id="edge44" class="edge">
<title>Node27&#45;&gt;Node7</title>
<path fill="none" stroke="midnightblue" d="M1244.34,-107.67C1257.32,-100.35 1271.05,-89.89 1278.32,-76 1289.68,-54.33 1263.34,-31.55 1246.01,-19.56"/>
<polygon fill="midnightblue" stroke="midnightblue" points="1242.4,-104.73 1235.13,-112.45 1245.62,-110.95 1242.4,-104.73"/>
</g>
<!-- Node27&#45;&gt;Node9 -->
<g id="edge49" class="edge">
<title>Node27&#45;&gt;Node9</title>
<path fill="none" stroke="midnightblue" d="M1193.73,-106.1C1180.96,-96.38 1164.71,-84.03 1153.94,-75.83"/>
<polygon fill="midnightblue" stroke="midnightblue" points="1191.84,-109.06 1201.92,-112.32 1196.08,-103.48 1191.84,-109.06"/>
</g>
<!-- Node27&#45;&gt;Node18 -->
<g id="edge46" class="edge">
<title>Node27&#45;&gt;Node18</title>
<path fill="none" stroke="midnightblue" d="M1219.87,-102.4C1223.05,-93.36 1226.72,-82.94 1229.25,-75.75"/>
<polygon fill="midnightblue" stroke="midnightblue" points="1216.48,-101.49 1216.46,-112.08 1223.08,-103.81 1216.48,-101.49"/>
</g>
<!-- Node27&#45;&gt;Node28 -->
<g id="edge47" class="edge">
<title>Node27&#45;&gt;Node28</title>
<path fill="none" stroke="midnightblue" d="M1246.6,-109.77C1276.78,-99.58 1320.63,-84.78 1348.03,-75.54"/>
<polygon fill="midnightblue" stroke="midnightblue" points="1245.29,-106.52 1236.93,-113.03 1247.53,-113.15 1245.29,-106.52"/>
</g>
<!-- Node28&#45;&gt;Node7 -->
<g id="edge48" class="edge">
<title>Node28&#45;&gt;Node7</title>
<path fill="none" stroke="midnightblue" d="M1341.4,-52.77C1314.91,-42.63 1277.93,-28.47 1254.56,-19.52"/>
<polygon fill="midnightblue" stroke="midnightblue" points="1340.39,-56.14 1350.98,-56.44 1342.9,-49.6 1340.39,-56.14"/>
</g>
<!-- Node51&#45;&gt;Node9 -->
<g id="edge53" class="edge">
<title>Node51&#45;&gt;Node9</title>
<path fill="none" stroke="midnightblue" d="M1194.14,-219.24C1182.24,-211.63 1169.1,-201.05 1161.32,-188 1139.22,-150.92 1140.23,-96.56 1141.59,-75.64"/>
<polygon fill="midnightblue" stroke="midnightblue" points="1192.52,-222.35 1202.89,-224.48 1196.11,-216.34 1192.52,-222.35"/>
</g>
<!-- Node51&#45;&gt;Node24 -->
<g id="edge54" class="edge">
<title>Node51&#45;&gt;Node24</title>
<path fill="none" stroke="midnightblue" d="M1190.24,-220.5C1165.87,-210.38 1132.18,-196.39 1110.83,-187.52"/>
<polygon fill="midnightblue" stroke="midnightblue" points="1189.15,-223.84 1199.73,-224.44 1191.83,-217.38 1189.15,-223.84"/>
</g>
<!-- Node51&#45;&gt;Node28 -->
<g id="edge52" class="edge">
<title>Node51&#45;&gt;Node28</title>
<path fill="none" stroke="midnightblue" d="M1242.75,-218.69C1254.28,-210.61 1268.04,-199.78 1278.32,-188 1304,-158.6 1297.59,-142.19 1322.32,-112 1334,-97.75 1350.38,-84.16 1361.4,-75.71"/>
<polygon fill="midnightblue" stroke="midnightblue" points="1240.78,-215.8 1234.46,-224.3 1244.7,-221.59 1240.78,-215.8"/>
</g>
<!-- Node52 -->
<g id="node27" class="node">
<title>Node52</title>
<g id="a_node27"><a xlink:href="_diffusion_ops_8cpp.html" target="_top" xlink:title=" ">
<polygon fill="white" stroke="black" points="1170.82,-168.5 1170.82,-187.5 1269.82,-187.5 1269.82,-168.5 1170.82,-168.5"/>
<text text-anchor="middle" x="1220.32" y="-175.5" font-family="Helvetica,sans-Serif" font-size="10.00">DiffusionOps.cpp</text>
</a>
</g>
</g>
<!-- Node51&#45;&gt;Node52 -->
<g id="edge51" class="edge">
<title>Node51&#45;&gt;Node52</title>
<path fill="none" stroke="midnightblue" d="M1220.32,-213.8C1220.32,-204.91 1220.32,-194.78 1220.32,-187.75"/>
<polygon fill="midnightblue" stroke="midnightblue" points="1216.82,-214.08 1220.32,-224.08 1223.82,-214.08 1216.82,-214.08"/>
</g>
<!-- Node58 -->
<g id="node33" class="node">
<title>Node58</title>
<g id="a_node33"><a xlink:href="_a_m_d_8_h.html" target="_top" xlink:title=" ">
<polygon fill="white" stroke="red" points="1364.32,-224.5 1364.32,-243.5 1414.32,-243.5 1414.32,-224.5 1364.32,-224.5"/>
<text text-anchor="middle" x="1389.32" y="-231.5" font-family="Helvetica,sans-Serif" font-size="10.00">AMD.H</text>
</a>
</g>
</g>
<!-- Node57&#45;&gt;Node58 -->
<g id="edge63" class="edge">
<title>Node57&#45;&gt;Node58</title>
<path fill="none" stroke="midnightblue" d="M1527.02,-277.49C1493.05,-267.01 1443.84,-251.82 1414.37,-242.73"/>
<polygon fill="midnightblue" stroke="midnightblue" points="1526.01,-280.84 1536.6,-280.44 1528.07,-274.15 1526.01,-280.84"/>
</g>
<!-- Node60 -->
<g id="node34" class="node">
<title>Node60</title>
<g id="a_node34"><a xlink:href="_a_m_d_no_therm_8_h.html" target="_top" xlink:title=" ">
<polygon fill="white" stroke="red" points="1432.82,-224.5 1432.82,-243.5 1527.82,-243.5 1527.82,-224.5 1432.82,-224.5"/>
<text text-anchor="middle" x="1480.32" y="-231.5" font-family="Helvetica,sans-Serif" font-size="10.00">AMDNoTherm.H</text>
</a>
</g>
</g>
<!-- Node57&#45;&gt;Node60 -->
<g id="edge64" class="edge">
<title>Node57&#45;&gt;Node60</title>
<path fill="none" stroke="midnightblue" d="M1542.39,-274.9C1526.99,-265 1506.88,-252.07 1493.79,-243.65"/>
<polygon fill="midnightblue" stroke="midnightblue" points="1540.52,-277.86 1550.83,-280.32 1544.31,-271.97 1540.52,-277.86"/>
</g>
<!-- Node62 -->
<g id="node35" class="node">
<title>Node62</title>
<g id="a_node35"><a xlink:href="_kosovic_8_h.html" target="_top" xlink:title=" ">
<polygon fill="white" stroke="red" points="1545.82,-224.5 1545.82,-243.5 1610.82,-243.5 1610.82,-224.5 1545.82,-224.5"/>
<text text-anchor="middle" x="1578.32" y="-231.5" font-family="Helvetica,sans-Serif" font-size="10.00">Kosovic.H</text>
</a>
</g>
</g>
<!-- Node57&#45;&gt;Node62 -->
<g id="edge65" class="edge">
<title>Node57&#45;&gt;Node62</title>
<path fill="none" stroke="midnightblue" d="M1569.15,-270.4C1571.49,-261.36 1574.19,-250.94 1576.06,-243.75"/>
<polygon fill="midnightblue" stroke="midnightblue" points="1565.76,-269.52 1566.64,-280.08 1572.53,-271.28 1565.76,-269.52"/>
</g>
<!-- Node65 -->
<g id="node36" class="node">
<title>Node65</title>
<g id="a_node36"><a xlink:href="_one_eq_ksgs_8_h.html" target="_top" xlink:title=" ">
<polygon fill="white" stroke="red" points="1629.32,-224.5 1629.32,-243.5 1711.32,-243.5 1711.32,-224.5 1629.32,-224.5"/>
<text text-anchor="middle" x="1670.32" y="-231.5" font-family="Helvetica,sans-Serif" font-size="10.00">OneEqKsgs.H</text>
</a>
</g>
</g>
<!-- Node57&#45;&gt;Node65 -->
<g id="edge66" class="edge">
<title>Node57&#45;&gt;Node65</title>
<path fill="none" stroke="midnightblue" d="M1590.38,-275.73C1610.01,-265.73 1636.35,-252.31 1653.34,-243.65"/>
<polygon fill="midnightblue" stroke="midnightblue" points="1588.68,-272.67 1581.36,-280.32 1591.85,-278.9 1588.68,-272.67"/>
</g>
<!-- Node66 -->
<g id="node37" class="node">
<title>Node66</title>
<g id="a_node37"><a xlink:href="_smagorinsky_8_h.html" target="_top" xlink:title=" ">
<polygon fill="white" stroke="red" points="1729.82,-224.5 1729.82,-243.5 1818.82,-243.5 1818.82,-224.5 1729.82,-224.5"/>
<text text-anchor="middle" x="1774.32" y="-231.5" font-family="Helvetica,sans-Serif" font-size="10.00">Smagorinsky.H</text>
</a>
</g>
</g>
<!-- Node57&#45;&gt;Node66 -->
<g id="edge67" class="edge">
<title>Node57&#45;&gt;Node66</title>
<path fill="none" stroke="midnightblue" d="M1607.51,-277.89C1647.17,-267.7 1705.09,-252.8 1741.21,-243.52"/>
<polygon fill="midnightblue" stroke="midnightblue" points="1606.41,-274.56 1597.6,-280.44 1608.16,-281.34 1606.41,-274.56"/>
</g>
<!-- Node68 -->
<g id="node38" class="node">
<title>Node68</title>
<g id="a_node38"><a xlink:href="_k_omega_s_s_t_8_h.html" target="_top" xlink:title=" ">
<polygon fill="white" stroke="red" points="1837.32,-224.5 1837.32,-243.5 1923.32,-243.5 1923.32,-224.5 1837.32,-224.5"/>
<text text-anchor="middle" x="1880.32" y="-231.5" font-family="Helvetica,sans-Serif" font-size="10.00">KOmegaSST.H</text>
</a>
</g>
</g>
<!-- Node57&#45;&gt;Node68 -->
<g id="edge68" class="edge">
<title>Node57&#45;&gt;Node68</title>
<path fill="none" stroke="midnightblue" d="M1624.45,-278.73C1686.58,-268.11 1782.02,-251.8 1837.09,-242.39"/>
<polygon fill="midnightblue" stroke="midnightblue" points="1623.66,-275.31 1614.4,-280.44 1624.84,-282.21 1623.66,-275.31"/>
</g>
<!-- Node81 -->
<g id="node50" class="node">
<title>Node81</title>
<g id="a_node50"><a xlink:href="_turbine_fast_8cpp.html" target="_top" xlink:title=" ">
<polygon fill="white" stroke="black" points="2703.32,-224.5 2703.32,-243.5 2795.32,-243.5 2795.32,-224.5 2703.32,-224.5"/>
<text text-anchor="middle" x="2749.32" y="-231.5" font-family="Helvetica,sans-Serif" font-size="10.00">TurbineFast.cpp</text>
</a>
</g>
</g>
<!-- Node80&#45;&gt;Node81 -->
<g id="edge80" class="edge">
<title>Node80&#45;&gt;Node81</title>
<path fill="none" stroke="midnightblue" d="M2749.32,-269.8C2749.32,-260.91 2749.32,-250.78 2749.32,-243.75"/>
<polygon fill="midnightblue" stroke="midnightblue" points="2745.82,-270.08 2749.32,-280.08 2752.82,-270.08 2745.82,-270.08"/>
</g>
</g>
</svg>
