<?xml version="1.0" encoding="UTF-8" standalone="no"?>
<!DOCTYPE svg PUBLIC "-//W3C//DTD SVG 1.1//EN"
 "http://www.w3.org/Graphics/SVG/1.1/DTD/svg11.dtd">
<!-- Generated by graphviz version 2.43.0 (0)
 -->
<!-- Title: IntScratchField.H Pages: 1 -->
<svg width="4072pt" height="196pt"
 viewBox="0.00 0.00 4071.50 196.00" xmlns="http://www.w3.org/2000/svg" xmlns:xlink="http://www.w3.org/1999/xlink">
<g id="graph0" class="graph" transform="scale(1 1) rotate(0) translate(4 192)">
<title>IntScratchField.H</title>
<polygon fill="white" stroke="transparent" points="-4,4 -4,-192 4067.5,-192 4067.5,4 -4,4"/>
<!-- Node1 -->
<g id="node1" class="node">
<title>Node1</title>
<g id="a_node1"><a xlink:title=" ">
<polygon fill="#bfbfbf" stroke="black" points="956,-168.5 956,-187.5 1055,-187.5 1055,-168.5 956,-168.5"/>
<text text-anchor="middle" x="1005.5" y="-175.5" font-family="Helvetica,sans-Serif" font-size="10.00">IntScratchField.H</text>
</a>
</g>
</g>
<!-- Node2 -->
<g id="node2" class="node">
<title>Node2</title>
<g id="a_node2"><a xlink:href="_field_repo_8_h.html" target="_top" xlink:title=" ">
<polygon fill="white" stroke="red" points="1919,-112.5 1919,-131.5 1994,-131.5 1994,-112.5 1919,-112.5"/>
<text text-anchor="middle" x="1956.5" y="-119.5" font-family="Helvetica,sans-Serif" font-size="10.00">FieldRepo.H</text>
</a>
</g>
</g>
<!-- Node1&#45;&gt;Node2 -->
<g id="edge1" class="edge">
<title>Node1&#45;&gt;Node2</title>
<path fill="none" stroke="midnightblue" d="M1065.32,-173.6C1244.4,-163.43 1772.84,-133.43 1918.79,-125.14"/>
<polygon fill="midnightblue" stroke="midnightblue" points="1065.08,-170.11 1055.29,-174.17 1065.47,-177.1 1065.08,-170.11"/>
</g>
<!-- Node270 -->
<g id="node18" class="node">
<title>Node270</title>
<g id="a_node18"><a xlink:href="_int_scratch_field_8cpp.html" target="_top" xlink:title=" ">
<polygon fill="white" stroke="black" points="0,-56.5 0,-75.5 109,-75.5 109,-56.5 0,-56.5"/>
<text text-anchor="middle" x="54.5" y="-63.5" font-family="Helvetica,sans-Serif" font-size="10.00">IntScratchField.cpp</text>
</a>
</g>
</g>
<!-- Node1&#45;&gt;Node270 -->
<g id="edge71" class="edge">
<title>Node1&#45;&gt;Node270</title>
<path fill="none" stroke="midnightblue" d="M945.61,-170.73C802.49,-155.63 429.37,-115.55 118.5,-76 115.49,-75.62 112.41,-75.22 109.3,-74.8"/>
<polygon fill="midnightblue" stroke="midnightblue" points="945.61,-174.25 955.92,-171.82 946.34,-167.29 945.61,-174.25"/>
</g>
<!-- Node3 -->
<g id="node3" class="node">
<title>Node3</title>
<g id="a_node3"><a xlink:href="_b_c_interface_8cpp.html" target="_top" xlink:title=" ">
<polygon fill="white" stroke="black" points="387.5,-0.5 387.5,-19.5 481.5,-19.5 481.5,-0.5 387.5,-0.5"/>
<text text-anchor="middle" x="434.5" y="-7.5" font-family="Helvetica,sans-Serif" font-size="10.00">BCInterface.cpp</text>
</a>
</g>
</g>
<!-- Node2&#45;&gt;Node3 -->
<g id="edge2" class="edge">
<title>Node2&#45;&gt;Node3</title>
<path fill="none" stroke="midnightblue" d="M1908.53,-120.56C1645.21,-118.04 386.21,-104.51 358.5,-76 337.2,-54.09 381.11,-31.58 410.63,-19.66"/>
<polygon fill="midnightblue" stroke="midnightblue" points="1908.87,-124.06 1918.9,-120.66 1908.94,-117.06 1908.87,-124.06"/>
</g>
<!-- Node4 -->
<g id="node4" class="node">
<title>Node4</title>
<g id="a_node4"><a xlink:href="_fixed_gradient_b_c_8_h.html" target="_top" xlink:title=" ">
<polygon fill="white" stroke="red" points="519.5,-56.5 519.5,-75.5 627.5,-75.5 627.5,-56.5 519.5,-56.5"/>
<text text-anchor="middle" x="573.5" y="-63.5" font-family="Helvetica,sans-Serif" font-size="10.00">FixedGradientBC.H</text>
</a>
</g>
</g>
<!-- Node2&#45;&gt;Node4 -->
<g id="edge3" class="edge">
<title>Node2&#45;&gt;Node4</title>
<path fill="none" stroke="midnightblue" d="M1908.53,-121.04C1736.63,-120.84 1135.4,-117.04 641.5,-76 636.99,-75.63 632.32,-75.16 627.64,-74.65"/>
<polygon fill="midnightblue" stroke="midnightblue" points="1908.76,-124.54 1918.76,-121.05 1908.77,-117.54 1908.76,-124.54"/>
</g>
<!-- Node6 -->
<g id="node5" class="node">
<title>Node6</title>
<g id="a_node5"><a xlink:href="_mass_inflow_outflow_b_c_8_h.html" target="_top" xlink:title=" ">
<polygon fill="white" stroke="red" points="368,-56.5 368,-75.5 501,-75.5 501,-56.5 368,-56.5"/>
<text text-anchor="middle" x="434.5" y="-63.5" font-family="Helvetica,sans-Serif" font-size="10.00">MassInflowOutflowBC.H</text>
</a>
</g>
</g>
<!-- Node2&#45;&gt;Node6 -->
<g id="edge5" class="edge">
<title>Node2&#45;&gt;Node6</title>
<path fill="none" stroke="midnightblue" d="M1908.68,-121.02C1726.52,-120.76 1058.71,-116.91 510.5,-76 507.45,-75.77 504.34,-75.51 501.2,-75.23"/>
<polygon fill="midnightblue" stroke="midnightblue" points="1908.73,-124.52 1918.73,-121.03 1908.74,-117.52 1908.73,-124.52"/>
</g>
<!-- Node8 -->
<g id="node6" class="node">
<title>Node8</title>
<g id="a_node6"><a xlink:href="scalar__bcs_8_h.html" target="_top" xlink:title=" ">
<polygon fill="white" stroke="red" points="127.5,-56.5 127.5,-75.5 205.5,-75.5 205.5,-56.5 127.5,-56.5"/>
<text text-anchor="middle" x="166.5" y="-63.5" font-family="Helvetica,sans-Serif" font-size="10.00">scalar_bcs.H</text>
</a>
</g>
</g>
<!-- Node2&#45;&gt;Node8 -->
<g id="edge7" class="edge">
<title>Node2&#45;&gt;Node8</title>
<path fill="none" stroke="midnightblue" d="M1908.45,-120.8C1663.95,-119.6 556.33,-112.23 214.5,-76 211.63,-75.7 208.68,-75.31 205.72,-74.88"/>
<polygon fill="midnightblue" stroke="midnightblue" points="1908.76,-124.3 1918.77,-120.84 1908.79,-117.3 1908.76,-124.3"/>
</g>
<!-- Node24 -->
<g id="node7" class="node">
<title>Node24</title>
<g id="a_node7"><a xlink:href="velocity__bcs_8_h.html" target="_top" xlink:title=" ">
<polygon fill="white" stroke="red" points="223.5,-56.5 223.5,-75.5 311.5,-75.5 311.5,-56.5 223.5,-56.5"/>
<text text-anchor="middle" x="267.5" y="-63.5" font-family="Helvetica,sans-Serif" font-size="10.00">velocity_bcs.H</text>
</a>
</g>
</g>
<!-- Node2&#45;&gt;Node24 -->
<g id="edge8" class="edge">
<title>Node2&#45;&gt;Node24</title>
<path fill="none" stroke="midnightblue" d="M1908.54,-120.5C1673.82,-117.9 644.66,-105.05 325.5,-76 321.03,-75.59 316.39,-75.06 311.76,-74.46"/>
<polygon fill="midnightblue" stroke="midnightblue" points="1908.75,-124 1918.79,-120.61 1908.83,-117 1908.75,-124"/>
</g>
<!-- Node25 -->
<g id="node8" class="node">
<title>Node25</title>
<g id="a_node8"><a xlink:href="_c_f_d_sim_8_h.html" target="_top" xlink:title=" ">
<polygon fill="white" stroke="red" points="879.5,-56.5 879.5,-75.5 945.5,-75.5 945.5,-56.5 879.5,-56.5"/>
<text text-anchor="middle" x="912.5" y="-63.5" font-family="Helvetica,sans-Serif" font-size="10.00">CFDSim.H</text>
</a>
</g>
</g>
<!-- Node2&#45;&gt;Node25 -->
<g id="edge9" class="edge">
<title>Node2&#45;&gt;Node25</title>
<path fill="none" stroke="midnightblue" d="M1908.51,-121.28C1764.32,-121.59 1322.54,-118.73 959.5,-76 954.96,-75.47 950.2,-74.75 945.53,-73.94"/>
<polygon fill="midnightblue" stroke="midnightblue" points="1908.78,-124.78 1918.77,-121.25 1908.76,-117.78 1908.78,-124.78"/>
</g>
<!-- Node77 -->
<g id="node9" class="node">
<title>Node77</title>
<g id="a_node9"><a xlink:href="_p_d_e_base_8cpp.html" target="_top" xlink:title=" ">
<polygon fill="white" stroke="black" points="685.5,-0.5 685.5,-19.5 765.5,-19.5 765.5,-0.5 685.5,-0.5"/>
<text text-anchor="middle" x="725.5" y="-7.5" font-family="Helvetica,sans-Serif" font-size="10.00">PDEBase.cpp</text>
</a>
</g>
</g>
<!-- Node2&#45;&gt;Node77 -->
<g id="edge40" class="edge">
<title>Node2&#45;&gt;Node77</title>
<path fill="none" stroke="midnightblue" d="M1908.61,-121.16C1681.04,-121.68 718.14,-121.19 674.5,-76 656.47,-57.32 689.43,-32.56 710.29,-19.66"/>
<polygon fill="midnightblue" stroke="midnightblue" points="1908.89,-124.66 1918.88,-121.13 1908.88,-117.66 1908.89,-124.66"/>
</g>
<!-- Node92 -->
<g id="node10" class="node">
<title>Node92</title>
<g id="a_node10"><a xlink:href="_i_b_8cpp.html" target="_top" xlink:title=" ">
<polygon fill="white" stroke="black" points="819,-0.5 819,-19.5 866,-19.5 866,-0.5 819,-0.5"/>
<text text-anchor="middle" x="842.5" y="-7.5" font-family="Helvetica,sans-Serif" font-size="10.00">IB.cpp</text>
</a>
</g>
</g>
<!-- Node2&#45;&gt;Node92 -->
<g id="edge54" class="edge">
<title>Node2&#45;&gt;Node92</title>
<path fill="none" stroke="midnightblue" d="M1908.8,-120.94C1697.31,-120.46 852.98,-116.02 814.5,-76 798.83,-59.7 820.15,-33.25 833.38,-19.66"/>
<polygon fill="midnightblue" stroke="midnightblue" points="1908.95,-124.44 1918.96,-120.96 1908.97,-117.44 1908.95,-124.44"/>
</g>
<!-- Node103 -->
<g id="node11" class="node">
<title>Node103</title>
<g id="a_node11"><a xlink:href="incflo_8_h.html" target="_top" xlink:title=" ">
<polygon fill="white" stroke="red" points="886,-0.5 886,-19.5 939,-19.5 939,-0.5 886,-0.5"/>
<text text-anchor="middle" x="912.5" y="-7.5" font-family="Helvetica,sans-Serif" font-size="10.00">incflo.H</text>
</a>
</g>
</g>
<!-- Node2&#45;&gt;Node103 -->
<g id="edge57" class="edge">
<title>Node2&#45;&gt;Node103</title>
<path fill="none" stroke="midnightblue" d="M1908.79,-120.17C1729.09,-116.86 1099.02,-103.37 1013.5,-76 975.97,-63.99 938.8,-34.28 921.92,-19.56"/>
<polygon fill="midnightblue" stroke="midnightblue" points="1908.92,-123.67 1918.98,-120.36 1909.05,-116.68 1908.92,-123.67"/>
</g>
<!-- Node133 -->
<g id="node12" class="node">
<title>Node133</title>
<g id="a_node12"><a xlink:href="_ocean_waves_8cpp.html" target="_top" xlink:title=" ">
<polygon fill="white" stroke="black" points="1465.5,-0.5 1465.5,-19.5 1565.5,-19.5 1565.5,-0.5 1465.5,-0.5"/>
<text text-anchor="middle" x="1515.5" y="-7.5" font-family="Helvetica,sans-Serif" font-size="10.00">OceanWaves.cpp</text>
</a>
</g>
</g>
<!-- Node2&#45;&gt;Node133 -->
<g id="edge58" class="edge">
<title>Node2&#45;&gt;Node133</title>
<path fill="none" stroke="midnightblue" d="M1919.12,-109.33C1893.53,-100.96 1859.01,-88.92 1829.5,-76 1812.02,-68.35 1809.6,-62.06 1791.5,-56 1780.88,-52.45 1642.21,-30.64 1565.58,-18.74"/>
<polygon fill="midnightblue" stroke="midnightblue" points="1918.21,-112.71 1928.81,-112.46 1920.37,-106.05 1918.21,-112.71"/>
</g>
<!-- Node144 -->
<g id="node13" class="node">
<title>Node144</title>
<g id="a_node13"><a xlink:href="_tioga_interface_8cpp.html" target="_top" xlink:title=" ">
<polygon fill="white" stroke="black" points="958,-0.5 958,-19.5 1065,-19.5 1065,-0.5 958,-0.5"/>
<text text-anchor="middle" x="1011.5" y="-7.5" font-family="Helvetica,sans-Serif" font-size="10.00">TiogaInterface.cpp</text>
</a>
</g>
</g>
<!-- Node2&#45;&gt;Node144 -->
<g id="edge63" class="edge">
<title>Node2&#45;&gt;Node144</title>
<path fill="none" stroke="midnightblue" d="M1908.73,-120.21C1724.03,-116.94 1065.26,-103.4 1030.5,-76 1013.33,-62.46 1011.08,-34.28 1011.13,-19.89"/>
<polygon fill="midnightblue" stroke="midnightblue" points="1908.88,-123.71 1918.94,-120.38 1909,-116.71 1908.88,-123.71"/>
</g>
<!-- Node265 -->
<g id="node14" class="node">
<title>Node265</title>
<g id="a_node14"><a xlink:href="_m_o_l_8_h.html" target="_top" xlink:title=" ">
<polygon fill="white" stroke="red" points="1040,-56.5 1040,-75.5 1089,-75.5 1089,-56.5 1040,-56.5"/>
<text text-anchor="middle" x="1064.5" y="-63.5" font-family="Helvetica,sans-Serif" font-size="10.00">MOL.H</text>
</a>
</g>
</g>
<!-- Node2&#45;&gt;Node265 -->
<g id="edge15" class="edge">
<title>Node2&#45;&gt;Node265</title>
<path fill="none" stroke="midnightblue" d="M1908.24,-119.78C1751.3,-115.61 1256.42,-100.77 1098.5,-76 1095.48,-75.53 1092.35,-74.9 1089.26,-74.19"/>
<polygon fill="midnightblue" stroke="midnightblue" points="1908.43,-123.29 1918.52,-120.05 1908.61,-116.29 1908.43,-123.29"/>
</g>
<!-- Node267 -->
<g id="node15" class="node">
<title>Node267</title>
<g id="a_node15"><a xlink:href="_field_8cpp.html" target="_top" xlink:title=" ">
<polygon fill="white" stroke="black" points="1107.5,-56.5 1107.5,-75.5 1167.5,-75.5 1167.5,-56.5 1107.5,-56.5"/>
<text text-anchor="middle" x="1137.5" y="-63.5" font-family="Helvetica,sans-Serif" font-size="10.00">Field.cpp</text>
</a>
</g>
</g>
<!-- Node2&#45;&gt;Node267 -->
<g id="edge16" class="edge">
<title>Node2&#45;&gt;Node267</title>
<path fill="none" stroke="midnightblue" d="M1908.78,-121.05C1786.43,-120.56 1451.79,-115.42 1176.5,-76 1173.61,-75.59 1170.62,-75.07 1167.64,-74.49"/>
<polygon fill="midnightblue" stroke="midnightblue" points="1908.92,-124.55 1918.93,-121.08 1908.94,-117.55 1908.92,-124.55"/>
</g>
<!-- Node268 -->
<g id="node16" class="node">
<title>Node268</title>
<g id="a_node16"><a xlink:href="_field_repo_8cpp.html" target="_top" xlink:title=" ">
<polygon fill="white" stroke="black" points="1186,-56.5 1186,-75.5 1271,-75.5 1271,-56.5 1186,-56.5"/>
<text text-anchor="middle" x="1228.5" y="-63.5" font-family="Helvetica,sans-Serif" font-size="10.00">FieldRepo.cpp</text>
</a>
</g>
</g>
<!-- Node2&#45;&gt;Node268 -->
<g id="edge17" class="edge">
<title>Node2&#45;&gt;Node268</title>
<path fill="none" stroke="midnightblue" d="M1908.75,-119.6C1797.89,-115.97 1514.57,-104.47 1279.5,-76 1276.73,-75.66 1273.89,-75.28 1271.03,-74.86"/>
<polygon fill="midnightblue" stroke="midnightblue" points="1908.83,-123.11 1918.94,-119.93 1909.05,-116.11 1908.83,-123.11"/>
</g>
<!-- Node269 -->
<g id="node17" class="node">
<title>Node269</title>
<g id="a_node17"><a xlink:href="_int_field_8cpp.html" target="_top" xlink:title=" ">
<polygon fill="white" stroke="black" points="1289,-56.5 1289,-75.5 1362,-75.5 1362,-56.5 1289,-56.5"/>
<text text-anchor="middle" x="1325.5" y="-63.5" font-family="Helvetica,sans-Serif" font-size="10.00">IntField.cpp</text>
</a>
</g>
</g>
<!-- Node2&#45;&gt;Node269 -->
<g id="edge18" class="edge">
<title>Node2&#45;&gt;Node269</title>
<path fill="none" stroke="midnightblue" d="M1908.6,-119.21C1808.47,-115.04 1569.88,-102.94 1371.5,-76 1368.44,-75.58 1365.27,-75.09 1362.09,-74.56"/>
<polygon fill="midnightblue" stroke="midnightblue" points="1908.56,-122.71 1918.7,-119.62 1908.85,-115.71 1908.56,-122.71"/>
</g>
<!-- Node2&#45;&gt;Node270 -->
<g id="edge19" class="edge">
<title>Node2&#45;&gt;Node270</title>
<path fill="none" stroke="midnightblue" d="M1908.69,-120.58C1656.77,-118.23 481.31,-105.85 118.5,-76 115.48,-75.75 112.39,-75.46 109.27,-75.12"/>
<polygon fill="midnightblue" stroke="midnightblue" points="1908.94,-124.08 1918.97,-120.67 1909,-117.08 1908.94,-124.08"/>
</g>
<!-- Node271 -->
<g id="node19" class="node">
<title>Node271</title>
<g id="a_node19"><a xlink:href="_scratch_field_8cpp.html" target="_top" xlink:title=" ">
<polygon fill="white" stroke="black" points="1380.5,-56.5 1380.5,-75.5 1476.5,-75.5 1476.5,-56.5 1380.5,-56.5"/>
<text text-anchor="middle" x="1428.5" y="-63.5" font-family="Helvetica,sans-Serif" font-size="10.00">ScratchField.cpp</text>
</a>
</g>
</g>
<!-- Node2&#45;&gt;Node271 -->
<g id="edge20" class="edge">
<title>Node2&#45;&gt;Node271</title>
<path fill="none" stroke="midnightblue" d="M1908.73,-117.41C1823.53,-110.79 1639.81,-95.53 1485.5,-76 1482.62,-75.64 1479.66,-75.24 1476.67,-74.82"/>
<polygon fill="midnightblue" stroke="midnightblue" points="1908.63,-120.91 1918.87,-118.19 1909.16,-113.93 1908.63,-120.91"/>
</g>
<!-- Node272 -->
<g id="node20" class="node">
<title>Node272</title>
<g id="a_node20"><a xlink:href="_view_field_8cpp.html" target="_top" xlink:title=" ">
<polygon fill="white" stroke="black" points="1494.5,-56.5 1494.5,-75.5 1578.5,-75.5 1578.5,-56.5 1494.5,-56.5"/>
<text text-anchor="middle" x="1536.5" y="-63.5" font-family="Helvetica,sans-Serif" font-size="10.00">ViewField.cpp</text>
</a>
</g>
</g>
<!-- Node2&#45;&gt;Node272 -->
<g id="edge21" class="edge">
<title>Node2&#45;&gt;Node272</title>
<path fill="none" stroke="midnightblue" d="M1908.63,-115.99C1838.16,-108.42 1702.4,-93.13 1587.5,-76 1584.65,-75.58 1581.72,-75.12 1578.77,-74.64"/>
<polygon fill="midnightblue" stroke="midnightblue" points="1908.64,-119.51 1918.96,-117.09 1909.39,-112.55 1908.64,-119.51"/>
</g>
<!-- Node273 -->
<g id="node21" class="node">
<title>Node273</title>
<g id="a_node21"><a xlink:href="diffusion_8_h.html" target="_top" xlink:title=" ">
<polygon fill="white" stroke="red" points="1597,-56.5 1597,-75.5 1666,-75.5 1666,-56.5 1597,-56.5"/>
<text text-anchor="middle" x="1631.5" y="-63.5" font-family="Helvetica,sans-Serif" font-size="10.00">diffusion.H</text>
</a>
</g>
</g>
<!-- Node2&#45;&gt;Node273 -->
<g id="edge22" class="edge">
<title>Node2&#45;&gt;Node273</title>
<path fill="none" stroke="midnightblue" d="M1908.7,-113.99C1852.7,-105.62 1757.18,-90.89 1675.5,-76 1672.43,-75.44 1669.25,-74.84 1666.06,-74.22"/>
<polygon fill="midnightblue" stroke="midnightblue" points="1908.28,-117.46 1918.69,-115.47 1909.31,-110.54 1908.28,-117.46"/>
</g>
<!-- Node274 -->
<g id="node22" class="node">
<title>Node274</title>
<g id="a_node22"><a xlink:href="_density_source_8_h.html" target="_top" xlink:title=" ">
<polygon fill="white" stroke="red" points="1684.5,-56.5 1684.5,-75.5 1782.5,-75.5 1782.5,-56.5 1684.5,-56.5"/>
<text text-anchor="middle" x="1733.5" y="-63.5" font-family="Helvetica,sans-Serif" font-size="10.00">DensitySource.H</text>
</a>
</g>
</g>
<!-- Node2&#45;&gt;Node274 -->
<g id="edge23" class="edge">
<title>Node2&#45;&gt;Node274</title>
<path fill="none" stroke="midnightblue" d="M1911.44,-110.09C1869.31,-99.89 1807.26,-84.86 1768.67,-75.52"/>
<polygon fill="midnightblue" stroke="midnightblue" points="1910.62,-113.49 1921.16,-112.44 1912.27,-106.69 1910.62,-113.49"/>
</g>
<!-- Node275 -->
<g id="node23" class="node">
<title>Node275</title>
<g id="a_node23"><a xlink:href="_momentum_source_8_h.html" target="_top" xlink:title=" ">
<polygon fill="white" stroke="red" points="2136.5,-56.5 2136.5,-75.5 2252.5,-75.5 2252.5,-56.5 2136.5,-56.5"/>
<text text-anchor="middle" x="2194.5" y="-63.5" font-family="Helvetica,sans-Serif" font-size="10.00">MomentumSource.H</text>
</a>
</g>
</g>
<!-- Node2&#45;&gt;Node275 -->
<g id="edge24" class="edge">
<title>Node2&#45;&gt;Node275</title>
<path fill="none" stroke="midnightblue" d="M2004.02,-110.22C2049,-100.01 2115.6,-84.9 2156.96,-75.52"/>
<polygon fill="midnightblue" stroke="midnightblue" points="2003.19,-106.82 1994.21,-112.44 2004.74,-113.64 2003.19,-106.82"/>
</g>
<!-- Node188 -->
<g id="node24" class="node">
<title>Node188</title>
<g id="a_node24"><a xlink:href="_a_b_l_mean_boussinesq_8_h.html" target="_top" xlink:title=" ">
<polygon fill="white" stroke="red" points="1709.5,-0.5 1709.5,-19.5 1837.5,-19.5 1837.5,-0.5 1709.5,-0.5"/>
<text text-anchor="middle" x="1773.5" y="-7.5" font-family="Helvetica,sans-Serif" font-size="10.00">ABLMeanBoussinesq.H</text>
</a>
</g>
</g>
<!-- Node2&#45;&gt;Node188 -->
<g id="edge33" class="edge">
<title>Node2&#45;&gt;Node188</title>
<path fill="none" stroke="midnightblue" d="M1967.34,-103.62C1974.68,-89.39 1981.26,-69.49 1970.5,-56 1961.42,-44.62 1881.29,-29.07 1826.06,-19.55"/>
<polygon fill="midnightblue" stroke="midnightblue" points="1964.24,-101.99 1962.34,-112.41 1970.33,-105.44 1964.24,-101.99"/>
</g>
<!-- Node203 -->
<g id="node25" class="node">
<title>Node203</title>
<g id="a_node25"><a xlink:href="_a_b_l_meso_forcing_mom_8_h.html" target="_top" xlink:title=" ">
<polygon fill="white" stroke="red" points="1855.5,-0.5 1855.5,-19.5 1987.5,-19.5 1987.5,-0.5 1855.5,-0.5"/>
<text text-anchor="middle" x="1921.5" y="-7.5" font-family="Helvetica,sans-Serif" font-size="10.00">ABLMesoForcingMom.H</text>
</a>
</g>
</g>
<!-- Node2&#45;&gt;Node203 -->
<g id="edge34" class="edge">
<title>Node2&#45;&gt;Node203</title>
<path fill="none" stroke="midnightblue" d="M1980.63,-107.02C1999.23,-94.37 2019.98,-74.86 2008.5,-56 1997.18,-37.41 1975.43,-26.16 1956.51,-19.55"/>
<polygon fill="midnightblue" stroke="midnightblue" points="1978.63,-104.15 1972.1,-112.49 1982.41,-110.04 1978.63,-104.15"/>
</g>
<!-- Node279 -->
<g id="node26" class="node">
<title>Node279</title>
<g id="a_node26"><a xlink:href="_boussinesq_buoyancy_8_h.html" target="_top" xlink:title=" ">
<polygon fill="white" stroke="red" points="2006,-0.5 2006,-19.5 2135,-19.5 2135,-0.5 2006,-0.5"/>
<text text-anchor="middle" x="2070.5" y="-7.5" font-family="Helvetica,sans-Serif" font-size="10.00">BoussinesqBuoyancy.H</text>
</a>
</g>
</g>
<!-- Node2&#45;&gt;Node279 -->
<g id="edge35" class="edge">
<title>Node2&#45;&gt;Node279</title>
<path fill="none" stroke="midnightblue" d="M1981.67,-107.41C1995.25,-99.36 2011.78,-88.33 2024.5,-76 2042.57,-58.49 2058.2,-33.02 2065.72,-19.76"/>
<polygon fill="midnightblue" stroke="midnightblue" points="1979.76,-104.47 1972.83,-112.49 1983.24,-110.54 1979.76,-104.47"/>
</g>
<!-- Node281 -->
<g id="node27" class="node">
<title>Node281</title>
<g id="a_node27"><a xlink:href="_coriolis_forcing_8_h.html" target="_top" xlink:title=" ">
<polygon fill="white" stroke="red" points="2153,-0.5 2153,-19.5 2252,-19.5 2252,-0.5 2153,-0.5"/>
<text text-anchor="middle" x="2202.5" y="-7.5" font-family="Helvetica,sans-Serif" font-size="10.00">CoriolisForcing.H</text>
</a>
</g>
</g>
<!-- Node2&#45;&gt;Node281 -->
<g id="edge36" class="edge">
<title>Node2&#45;&gt;Node281</title>
<path fill="none" stroke="midnightblue" d="M1985.21,-108.16C2035.97,-85.47 2140.26,-38.83 2183.29,-19.59"/>
<polygon fill="midnightblue" stroke="midnightblue" points="1983.5,-105.09 1975.8,-112.37 1986.36,-111.48 1983.5,-105.09"/>
</g>
<!-- Node282 -->
<g id="node28" class="node">
<title>Node282</title>
<g id="a_node28"><a xlink:href="_density_buoyancy_8_h.html" target="_top" xlink:title=" ">
<polygon fill="white" stroke="red" points="2270,-0.5 2270,-19.5 2381,-19.5 2381,-0.5 2270,-0.5"/>
<text text-anchor="middle" x="2325.5" y="-7.5" font-family="Helvetica,sans-Serif" font-size="10.00">DensityBuoyancy.H</text>
</a>
</g>
</g>
<!-- Node2&#45;&gt;Node282 -->
<g id="edge37" class="edge">
<title>Node2&#45;&gt;Node282</title>
<path fill="none" stroke="midnightblue" d="M2004.2,-117.67C2078.38,-111.87 2217.46,-98.36 2261.5,-76 2287.76,-62.66 2309.65,-34.39 2319.65,-19.93"/>
<polygon fill="midnightblue" stroke="midnightblue" points="2003.88,-114.18 1994.18,-118.43 2004.42,-121.16 2003.88,-114.18"/>
</g>
<!-- Node284 -->
<g id="node29" class="node">
<title>Node284</title>
<g id="a_node29"><a xlink:href="_gravity_forcing_8_h.html" target="_top" xlink:title=" ">
<polygon fill="white" stroke="red" points="2399.5,-0.5 2399.5,-19.5 2497.5,-19.5 2497.5,-0.5 2399.5,-0.5"/>
<text text-anchor="middle" x="2448.5" y="-7.5" font-family="Helvetica,sans-Serif" font-size="10.00">GravityForcing.H</text>
</a>
</g>
</g>
<!-- Node2&#45;&gt;Node284 -->
<g id="edge38" class="edge">
<title>Node2&#45;&gt;Node284</title>
<path fill="none" stroke="midnightblue" d="M2004.15,-120.65C2130.43,-119.24 2466.28,-112.09 2499.5,-76 2517.08,-56.9 2484.31,-32.31 2463.59,-19.55"/>
<polygon fill="midnightblue" stroke="midnightblue" points="2003.98,-117.15 1994.01,-120.76 2004.05,-124.15 2003.98,-117.15"/>
</g>
<!-- Node189 -->
<g id="node30" class="node">
<title>Node189</title>
<g id="a_node30"><a xlink:href="_hurricane_forcing_8_h.html" target="_top" xlink:title=" ">
<polygon fill="white" stroke="red" points="2515.5,-0.5 2515.5,-19.5 2625.5,-19.5 2625.5,-0.5 2515.5,-0.5"/>
<text text-anchor="middle" x="2570.5" y="-7.5" font-family="Helvetica,sans-Serif" font-size="10.00">HurricaneForcing.H</text>
</a>
</g>
</g>
<!-- Node2&#45;&gt;Node189 -->
<g id="edge39" class="edge">
<title>Node2&#45;&gt;Node189</title>
<path fill="none" stroke="midnightblue" d="M2004.5,-119.27C2131.84,-114.39 2471.61,-99.31 2516.5,-76 2540.98,-63.29 2558.63,-34.19 2566.28,-19.63"/>
<polygon fill="midnightblue" stroke="midnightblue" points="2004.13,-115.78 1994.27,-119.66 2004.4,-122.78 2004.13,-115.78"/>
</g>
<!-- Node288 -->
<g id="node31" class="node">
<title>Node288</title>
<g id="a_node31"><a xlink:href="_m_m_s_forcing_8_h.html" target="_top" xlink:title=" ">
<polygon fill="white" stroke="red" points="2643.5,-0.5 2643.5,-19.5 2729.5,-19.5 2729.5,-0.5 2643.5,-0.5"/>
<text text-anchor="middle" x="2686.5" y="-7.5" font-family="Helvetica,sans-Serif" font-size="10.00">MMSForcing.H</text>
</a>
</g>
</g>
<!-- Node2&#45;&gt;Node288 -->
<g id="edge64" class="edge">
<title>Node2&#45;&gt;Node288</title>
<path fill="none" stroke="midnightblue" d="M2004.12,-119.49C2125.09,-115.31 2441.78,-102.14 2543.5,-76 2593.16,-63.24 2647,-34.17 2672.1,-19.62"/>
<polygon fill="midnightblue" stroke="midnightblue" points="2003.93,-115.99 1994.05,-119.83 2004.17,-122.99 2003.93,-115.99"/>
</g>
<!-- Node289 -->
<g id="node32" class="node">
<title>Node289</title>
<g id="a_node32"><a xlink:href="_p_d_e_helpers_8_h.html" target="_top" xlink:title=" ">
<polygon fill="white" stroke="red" points="683.5,-56.5 683.5,-75.5 767.5,-75.5 767.5,-56.5 683.5,-56.5"/>
<text text-anchor="middle" x="725.5" y="-63.5" font-family="Helvetica,sans-Serif" font-size="10.00">PDEHelpers.H</text>
</a>
</g>
</g>
<!-- Node2&#45;&gt;Node289 -->
<g id="edge41" class="edge">
<title>Node2&#45;&gt;Node289</title>
<path fill="none" stroke="midnightblue" d="M1908.39,-121.24C1748.04,-121.6 1217.39,-119.21 781.5,-76 776.99,-75.55 772.3,-74.98 767.63,-74.33"/>
<polygon fill="midnightblue" stroke="midnightblue" points="1908.86,-124.74 1918.85,-121.21 1908.84,-117.74 1908.86,-124.74"/>
</g>
<!-- Node290 -->
<g id="node33" class="node">
<title>Node290</title>
<g id="a_node33"><a xlink:href="_s_d_r_source_8_h.html" target="_top" xlink:title=" ">
<polygon fill="white" stroke="red" points="2308.5,-56.5 2308.5,-75.5 2388.5,-75.5 2388.5,-56.5 2308.5,-56.5"/>
<text text-anchor="middle" x="2348.5" y="-63.5" font-family="Helvetica,sans-Serif" font-size="10.00">SDRSource.H</text>
</a>
</g>
</g>
<!-- Node2&#45;&gt;Node290 -->
<g id="edge43" class="edge">
<title>Node2&#45;&gt;Node290</title>
<path fill="none" stroke="midnightblue" d="M2004.09,-115.16C2069.58,-107.02 2191.14,-91.49 2294.5,-76 2299.01,-75.32 2303.73,-74.58 2308.42,-73.83"/>
<polygon fill="midnightblue" stroke="midnightblue" points="2003.56,-111.7 1994.07,-116.41 2004.42,-118.65 2003.56,-111.7"/>
</g>
<!-- Node292 -->
<g id="node34" class="node">
<title>Node292</title>
<g id="a_node34"><a xlink:href="_source_term_8_h.html" target="_top" xlink:title=" ">
<polygon fill="white" stroke="red" points="2406.5,-56.5 2406.5,-75.5 2490.5,-75.5 2490.5,-56.5 2406.5,-56.5"/>
<text text-anchor="middle" x="2448.5" y="-63.5" font-family="Helvetica,sans-Serif" font-size="10.00">SourceTerm.H</text>
</a>
</g>
</g>
<!-- Node2&#45;&gt;Node292 -->
<g id="edge44" class="edge">
<title>Node2&#45;&gt;Node292</title>
<path fill="none" stroke="midnightblue" d="M2004.46,-117.26C2085.6,-110.67 2255.06,-95.81 2397.5,-76 2400.35,-75.6 2403.28,-75.17 2406.24,-74.7"/>
<polygon fill="midnightblue" stroke="midnightblue" points="2003.76,-113.81 1994.07,-118.1 2004.32,-120.78 2003.76,-113.81"/>
</g>
<!-- Node204 -->
<g id="node35" class="node">
<title>Node204</title>
<g id="a_node35"><a xlink:href="_a_b_l_meso_forcing_temp_8_h.html" target="_top" xlink:title=" ">
<polygon fill="white" stroke="red" points="3763.5,-0.5 3763.5,-19.5 3897.5,-19.5 3897.5,-0.5 3763.5,-0.5"/>
<text text-anchor="middle" x="3830.5" y="-7.5" font-family="Helvetica,sans-Serif" font-size="10.00">ABLMesoForcingTemp.H</text>
</a>
</g>
</g>
<!-- Node2&#45;&gt;Node204 -->
<g id="edge45" class="edge">
<title>Node2&#45;&gt;Node204</title>
<path fill="none" stroke="midnightblue" d="M2004.31,-120.56C2290.55,-117.82 3766.43,-102.46 3804.5,-76 3823.26,-62.96 3828.49,-34.02 3829.94,-19.56"/>
<polygon fill="midnightblue" stroke="midnightblue" points="2004.21,-117.06 1994.24,-120.65 2004.28,-124.06 2004.21,-117.06"/>
</g>
<!-- Node190 -->
<g id="node36" class="node">
<title>Node190</title>
<g id="a_node36"><a xlink:href="_hurricane_temp_forcing_8_h.html" target="_top" xlink:title=" ">
<polygon fill="white" stroke="red" points="3927.5,-0.5 3927.5,-19.5 4063.5,-19.5 4063.5,-0.5 3927.5,-0.5"/>
<text text-anchor="middle" x="3995.5" y="-7.5" font-family="Helvetica,sans-Serif" font-size="10.00">HurricaneTempForcing.H</text>
</a>
</g>
</g>
<!-- Node2&#45;&gt;Node190 -->
<g id="edge46" class="edge">
<title>Node2&#45;&gt;Node190</title>
<path fill="none" stroke="midnightblue" d="M2004.61,-120.77C2307.99,-119.18 3944.59,-109.12 3983.5,-76 3999.75,-62.16 3998.72,-34.12 3996.94,-19.82"/>
<polygon fill="midnightblue" stroke="midnightblue" points="2004.37,-117.27 1994.39,-120.82 2004.41,-124.27 2004.37,-117.27"/>
</g>
<!-- Node293 -->
<g id="node37" class="node">
<title>Node293</title>
<g id="a_node37"><a xlink:href="_temperature_source_8_h.html" target="_top" xlink:title=" ">
<polygon fill="white" stroke="red" points="3852.5,-56.5 3852.5,-75.5 3974.5,-75.5 3974.5,-56.5 3852.5,-56.5"/>
<text text-anchor="middle" x="3913.5" y="-63.5" font-family="Helvetica,sans-Serif" font-size="10.00">TemperatureSource.H</text>
</a>
</g>
</g>
<!-- Node2&#45;&gt;Node293 -->
<g id="edge47" class="edge">
<title>Node2&#45;&gt;Node293</title>
<path fill="none" stroke="midnightblue" d="M2004.23,-120.48C2259.54,-117.59 3466.12,-102.73 3838.5,-76 3842.95,-75.68 3847.54,-75.29 3852.15,-74.85"/>
<polygon fill="midnightblue" stroke="midnightblue" points="2004.13,-116.98 1994.17,-120.59 2004.21,-123.98 2004.13,-116.98"/>
</g>
<!-- Node295 -->
<g id="node38" class="node">
<title>Node295</title>
<g id="a_node38"><a xlink:href="_t_k_e_source_8_h.html" target="_top" xlink:title=" ">
<polygon fill="white" stroke="red" points="2623,-56.5 2623,-75.5 2702,-75.5 2702,-56.5 2623,-56.5"/>
<text text-anchor="middle" x="2662.5" y="-63.5" font-family="Helvetica,sans-Serif" font-size="10.00">TKESource.H</text>
</a>
</g>
</g>
<!-- Node2&#45;&gt;Node295 -->
<g id="edge50" class="edge">
<title>Node2&#45;&gt;Node295</title>
<path fill="none" stroke="midnightblue" d="M2004.35,-119.28C2112.37,-115.04 2383.3,-102.48 2608.5,-76 2613.13,-75.46 2617.96,-74.79 2622.75,-74.07"/>
<polygon fill="midnightblue" stroke="midnightblue" points="2003.96,-115.79 1994.1,-119.67 2004.23,-122.78 2003.96,-115.79"/>
</g>
<!-- Node299 -->
<g id="node39" class="node">
<title>Node299</title>
<g id="a_node39"><a xlink:href="_split_advection_8_h.html" target="_top" xlink:title=" ">
<polygon fill="white" stroke="red" points="2719.5,-56.5 2719.5,-75.5 2817.5,-75.5 2817.5,-56.5 2719.5,-56.5"/>
<text text-anchor="middle" x="2768.5" y="-63.5" font-family="Helvetica,sans-Serif" font-size="10.00">SplitAdvection.H</text>
</a>
</g>
</g>
<!-- Node2&#45;&gt;Node299 -->
<g id="edge51" class="edge">
<title>Node2&#45;&gt;Node299</title>
<path fill="none" stroke="midnightblue" d="M2004.53,-119.71C2124.12,-116.14 2444.71,-104.49 2710.5,-76 2713.44,-75.69 2716.46,-75.33 2719.5,-74.94"/>
<polygon fill="midnightblue" stroke="midnightblue" points="2004.16,-116.21 1994.26,-120.01 2004.36,-123.21 2004.16,-116.21"/>
</g>
<!-- Node301 -->
<g id="node40" class="node">
<title>Node301</title>
<g id="a_node40"><a xlink:href="vof__hybridsolver__ops_8_h.html" target="_top" xlink:title=" ">
<polygon fill="white" stroke="red" points="2836,-56.5 2836,-75.5 2967,-75.5 2967,-56.5 2836,-56.5"/>
<text text-anchor="middle" x="2901.5" y="-63.5" font-family="Helvetica,sans-Serif" font-size="10.00">vof_hybridsolver_ops.H</text>
</a>
</g>
</g>
<!-- Node2&#45;&gt;Node301 -->
<g id="edge52" class="edge">
<title>Node2&#45;&gt;Node301</title>
<path fill="none" stroke="midnightblue" d="M2004.44,-119.66C2135.98,-115.74 2513.63,-102.83 2826.5,-76 2829.51,-75.74 2832.58,-75.46 2835.68,-75.15"/>
<polygon fill="midnightblue" stroke="midnightblue" points="2004.19,-116.17 1994.3,-119.96 2004.4,-123.16 2004.19,-116.17"/>
</g>
<!-- Node302 -->
<g id="node41" class="node">
<title>Node302</title>
<g id="a_node41"><a xlink:href="fvm__utils_8_h.html" target="_top" xlink:title=" ">
<polygon fill="white" stroke="red" points="2985,-56.5 2985,-75.5 3058,-75.5 3058,-56.5 2985,-56.5"/>
<text text-anchor="middle" x="3021.5" y="-63.5" font-family="Helvetica,sans-Serif" font-size="10.00">fvm_utils.H</text>
</a>
</g>
</g>
<!-- Node2&#45;&gt;Node302 -->
<g id="edge53" class="edge">
<title>Node2&#45;&gt;Node302</title>
<path fill="none" stroke="midnightblue" d="M2004.54,-121.41C2150.86,-122.13 2603.68,-120.33 2975.5,-76 2978.57,-75.63 2981.74,-75.18 2984.92,-74.67"/>
<polygon fill="midnightblue" stroke="midnightblue" points="2004.16,-117.91 1994.14,-121.36 2004.12,-124.91 2004.16,-117.91"/>
</g>
<!-- Node314 -->
<g id="node42" class="node">
<title>Node314</title>
<g id="a_node42"><a xlink:href="_i_b_8_h.html" target="_top" xlink:title=" ">
<polygon fill="white" stroke="red" points="824,-56.5 824,-75.5 861,-75.5 861,-56.5 824,-56.5"/>
<text text-anchor="middle" x="842.5" y="-63.5" font-family="Helvetica,sans-Serif" font-size="10.00">IB.H</text>
</a>
</g>
</g>
<!-- Node2&#45;&gt;Node314 -->
<g id="edge55" class="edge">
<title>Node2&#45;&gt;Node314</title>
<path fill="none" stroke="midnightblue" d="M1908.67,-120.73C1726.25,-119.43 1074.27,-112.28 870.5,-76 867.48,-75.46 864.34,-74.68 861.3,-73.8"/>
<polygon fill="midnightblue" stroke="midnightblue" points="1908.73,-124.23 1918.75,-120.8 1908.78,-117.23 1908.73,-124.23"/>
</g>
<!-- Node315 -->
<g id="node43" class="node">
<title>Node315</title>
<g id="a_node43"><a xlink:href="_ocean_waves_8_h.html" target="_top" xlink:title=" ">
<polygon fill="white" stroke="red" points="1838.5,-56.5 1838.5,-75.5 1928.5,-75.5 1928.5,-56.5 1838.5,-56.5"/>
<text text-anchor="middle" x="1883.5" y="-63.5" font-family="Helvetica,sans-Serif" font-size="10.00">OceanWaves.H</text>
</a>
</g>
</g>
<!-- Node2&#45;&gt;Node315 -->
<g id="edge59" class="edge">
<title>Node2&#45;&gt;Node315</title>
<path fill="none" stroke="midnightblue" d="M1936.36,-106.1C1923.22,-96.38 1906.52,-84.03 1895.44,-75.83"/>
<polygon fill="midnightblue" stroke="midnightblue" points="1934.65,-109.19 1944.77,-112.32 1938.81,-103.56 1934.65,-109.19"/>
</g>
<!-- Node21 -->
<g id="node44" class="node">
<title>Node21</title>
<g id="a_node44"><a xlink:href="waves2amr__ops_8_h.html" target="_top" xlink:title=" ">
<polygon fill="white" stroke="red" points="1584,-0.5 1584,-19.5 1691,-19.5 1691,-0.5 1584,-0.5"/>
<text text-anchor="middle" x="1637.5" y="-7.5" font-family="Helvetica,sans-Serif" font-size="10.00">waves2amr_ops.H</text>
</a>
</g>
</g>
<!-- Node2&#45;&gt;Node21 -->
<g id="edge62" class="edge">
<title>Node2&#45;&gt;Node21</title>
<path fill="none" stroke="midnightblue" d="M1956.21,-102.23C1954.92,-87.44 1950.63,-67.46 1937.5,-56 1935.19,-53.98 1777.02,-31.02 1691.32,-18.7"/>
<polygon fill="midnightblue" stroke="midnightblue" points="1952.72,-102.49 1956.71,-112.3 1959.71,-102.14 1952.72,-102.49"/>
</g>
<!-- Node316 -->
<g id="node45" class="node">
<title>Node316</title>
<g id="a_node45"><a xlink:href="hydrostatic__ops_8_h.html" target="_top" xlink:title=" ">
<polygon fill="white" stroke="red" points="3076.5,-56.5 3076.5,-75.5 3180.5,-75.5 3180.5,-56.5 3076.5,-56.5"/>
<text text-anchor="middle" x="3128.5" y="-63.5" font-family="Helvetica,sans-Serif" font-size="10.00">hydrostatic_ops.H</text>
</a>
</g>
</g>
<!-- Node2&#45;&gt;Node316 -->
<g id="edge65" class="edge">
<title>Node2&#45;&gt;Node316</title>
<path fill="none" stroke="midnightblue" d="M2004.55,-120.83C2159.03,-119.9 2656.78,-113.94 3066.5,-76 3069.75,-75.7 3073.09,-75.35 3076.45,-74.95"/>
<polygon fill="midnightblue" stroke="midnightblue" points="2004.43,-117.33 1994.45,-120.88 2004.47,-124.33 2004.43,-117.33"/>
</g>
<!-- Node55 -->
<g id="node46" class="node">
<title>Node55</title>
<g id="a_node46"><a xlink:href="_burggraf_lid_8cpp.html" target="_top" xlink:title=" ">
<polygon fill="white" stroke="black" points="3199,-56.5 3199,-75.5 3292,-75.5 3292,-56.5 3199,-56.5"/>
<text text-anchor="middle" x="3245.5" y="-63.5" font-family="Helvetica,sans-Serif" font-size="10.00">BurggrafLid.cpp</text>
</a>
</g>
</g>
<!-- Node2&#45;&gt;Node55 -->
<g id="edge66" class="edge">
<title>Node2&#45;&gt;Node55</title>
<path fill="none" stroke="midnightblue" d="M2004.5,-121.36C2169.68,-122.17 2729.8,-121.16 3189.5,-76 3192.54,-75.7 3195.66,-75.34 3198.8,-74.94"/>
<polygon fill="midnightblue" stroke="midnightblue" points="2004.21,-117.86 1994.19,-121.31 2004.18,-124.86 2004.21,-117.86"/>
</g>
<!-- Node56 -->
<g id="node47" class="node">
<title>Node56</title>
<g id="a_node47"><a xlink:href="_custom_scalar_8cpp.html" target="_top" xlink:title=" ">
<polygon fill="white" stroke="black" points="3310.5,-56.5 3310.5,-75.5 3414.5,-75.5 3414.5,-56.5 3310.5,-56.5"/>
<text text-anchor="middle" x="3362.5" y="-63.5" font-family="Helvetica,sans-Serif" font-size="10.00">CustomScalar.cpp</text>
</a>
</g>
</g>
<!-- Node2&#45;&gt;Node56 -->
<g id="edge67" class="edge">
<title>Node2&#45;&gt;Node56</title>
<path fill="none" stroke="midnightblue" d="M2004.1,-121.31C2177.91,-122.03 2794.59,-121.05 3300.5,-76 3303.75,-75.71 3307.09,-75.37 3310.45,-74.98"/>
<polygon fill="midnightblue" stroke="midnightblue" points="2004.02,-117.81 1994.01,-121.26 2003.99,-124.81 2004.02,-117.81"/>
</g>
<!-- Node57 -->
<g id="node48" class="node">
<title>Node57</title>
<g id="a_node48"><a xlink:href="_custom_velocity_8cpp.html" target="_top" xlink:title=" ">
<polygon fill="white" stroke="black" points="3432.5,-56.5 3432.5,-75.5 3544.5,-75.5 3544.5,-56.5 3432.5,-56.5"/>
<text text-anchor="middle" x="3488.5" y="-63.5" font-family="Helvetica,sans-Serif" font-size="10.00">CustomVelocity.cpp</text>
</a>
</g>
</g>
<!-- Node2&#45;&gt;Node57 -->
<g id="edge68" class="edge">
<title>Node2&#45;&gt;Node57</title>
<path fill="none" stroke="midnightblue" d="M2004.42,-121.39C2188.42,-122.49 2867.14,-122.92 3423.5,-76 3426.34,-75.76 3429.24,-75.48 3432.17,-75.17"/>
<polygon fill="midnightblue" stroke="midnightblue" points="2004.29,-117.89 1994.27,-121.32 2004.25,-124.89 2004.29,-117.89"/>
</g>
<!-- Node317 -->
<g id="node49" class="node">
<title>Node317</title>
<g id="a_node49"><a xlink:href="_linear_profile_8cpp.html" target="_top" xlink:title=" ">
<polygon fill="white" stroke="black" points="3562.5,-56.5 3562.5,-75.5 3660.5,-75.5 3660.5,-56.5 3562.5,-56.5"/>
<text text-anchor="middle" x="3611.5" y="-63.5" font-family="Helvetica,sans-Serif" font-size="10.00">LinearProfile.cpp</text>
</a>
</g>
</g>
<!-- Node2&#45;&gt;Node317 -->
<g id="edge69" class="edge">
<title>Node2&#45;&gt;Node317</title>
<path fill="none" stroke="midnightblue" d="M2004.21,-120.47C2235.48,-117.75 3241.34,-104.5 3553.5,-76 3556.34,-75.74 3559.26,-75.43 3562.19,-75.08"/>
<polygon fill="midnightblue" stroke="midnightblue" points="2004.06,-116.97 1994.11,-120.58 2004.15,-123.97 2004.06,-116.97"/>
</g>
<!-- Node58 -->
<g id="node50" class="node">
<title>Node58</title>
<g id="a_node50"><a xlink:href="_power_law_profile_8cpp.html" target="_top" xlink:title=" ">
<polygon fill="white" stroke="black" points="3679,-56.5 3679,-75.5 3796,-75.5 3796,-56.5 3679,-56.5"/>
<text text-anchor="middle" x="3737.5" y="-63.5" font-family="Helvetica,sans-Serif" font-size="10.00">PowerLawProfile.cpp</text>
</a>
</g>
</g>
<!-- Node2&#45;&gt;Node58 -->
<g id="edge70" class="edge">
<title>Node2&#45;&gt;Node58</title>
<path fill="none" stroke="midnightblue" d="M2004.51,-120.42C2246.35,-117.41 3332.89,-102.62 3669.5,-76 3672.59,-75.76 3675.75,-75.47 3678.94,-75.15"/>
<polygon fill="midnightblue" stroke="midnightblue" points="2004.24,-116.93 1994.29,-120.55 2004.33,-123.93 2004.24,-116.93"/>
</g>
<!-- Node4&#45;&gt;Node3 -->
<g id="edge4" class="edge">
<title>Node4&#45;&gt;Node3</title>
<path fill="none" stroke="midnightblue" d="M542.02,-52.77C515.91,-42.63 479.46,-28.47 456.42,-19.52"/>
<polygon fill="midnightblue" stroke="midnightblue" points="540.89,-56.08 551.48,-56.44 543.42,-49.56 540.89,-56.08"/>
</g>
<!-- Node6&#45;&gt;Node3 -->
<g id="edge6" class="edge">
<title>Node6&#45;&gt;Node3</title>
<path fill="none" stroke="midnightblue" d="M434.5,-45.8C434.5,-36.91 434.5,-26.78 434.5,-19.75"/>
<polygon fill="midnightblue" stroke="midnightblue" points="431,-46.08 434.5,-56.08 438,-46.08 431,-46.08"/>
</g>
<!-- Node25&#45;&gt;Node77 -->
<g id="edge10" class="edge">
<title>Node25&#45;&gt;Node77</title>
<path fill="none" stroke="midnightblue" d="M872.91,-53.57C837.63,-43.38 786.81,-28.7 754.99,-19.52"/>
<polygon fill="midnightblue" stroke="midnightblue" points="872.29,-57.03 882.87,-56.44 874.23,-50.31 872.29,-57.03"/>
</g>
<!-- Node25&#45;&gt;Node92 -->
<g id="edge11" class="edge">
<title>Node25&#45;&gt;Node92</title>
<path fill="none" stroke="midnightblue" d="M893.19,-50.1C880.59,-40.38 864.57,-28.03 853.95,-19.83"/>
<polygon fill="midnightblue" stroke="midnightblue" points="891.2,-52.99 901.25,-56.32 895.47,-47.44 891.2,-52.99"/>
</g>
<!-- Node25&#45;&gt;Node103 -->
<g id="edge12" class="edge">
<title>Node25&#45;&gt;Node103</title>
<path fill="none" stroke="midnightblue" d="M912.5,-45.8C912.5,-36.91 912.5,-26.78 912.5,-19.75"/>
<polygon fill="midnightblue" stroke="midnightblue" points="909,-46.08 912.5,-56.08 916,-46.08 909,-46.08"/>
</g>
<!-- Node25&#45;&gt;Node133 -->
<g id="edge13" class="edge">
<title>Node25&#45;&gt;Node133</title>
<path fill="none" stroke="midnightblue" d="M955.75,-61.13C1064.56,-51.38 1349.27,-25.89 1465.24,-15.5"/>
<polygon fill="midnightblue" stroke="midnightblue" points="955.43,-57.64 945.78,-62.02 956.05,-64.61 955.43,-57.64"/>
</g>
<!-- Node25&#45;&gt;Node144 -->
<g id="edge14" class="edge">
<title>Node25&#45;&gt;Node144</title>
<path fill="none" stroke="midnightblue" d="M937.34,-51.45C955.61,-41.48 979.92,-28.23 995.63,-19.65"/>
<polygon fill="midnightblue" stroke="midnightblue" points="935.51,-48.46 928.41,-56.32 938.86,-54.61 935.51,-48.46"/>
</g>
<!-- Node275&#45;&gt;Node188 -->
<g id="edge25" class="edge">
<title>Node275&#45;&gt;Node188</title>
<path fill="none" stroke="midnightblue" d="M2126.46,-56.27C2046.7,-46.04 1915.53,-29.22 1837.54,-19.21"/>
<polygon fill="midnightblue" stroke="midnightblue" points="2126.04,-59.75 2136.4,-57.55 2126.93,-52.8 2126.04,-59.75"/>
</g>
<!-- Node275&#45;&gt;Node203 -->
<g id="edge26" class="edge">
<title>Node275&#45;&gt;Node203</title>
<path fill="none" stroke="midnightblue" d="M2141.28,-54.47C2089.69,-44.27 2012.4,-28.98 1964.56,-19.52"/>
<polygon fill="midnightblue" stroke="midnightblue" points="2140.75,-57.94 2151.24,-56.44 2142.11,-51.07 2140.75,-57.94"/>
</g>
<!-- Node275&#45;&gt;Node279 -->
<g id="edge27" class="edge">
<title>Node275&#45;&gt;Node279</title>
<path fill="none" stroke="midnightblue" d="M2165.49,-52.37C2142.27,-42.26 2110.34,-28.35 2090.06,-19.52"/>
<polygon fill="midnightblue" stroke="midnightblue" points="2164.29,-55.66 2174.85,-56.44 2167.08,-49.24 2164.29,-55.66"/>
</g>
<!-- Node275&#45;&gt;Node281 -->
<g id="edge28" class="edge">
<title>Node275&#45;&gt;Node281</title>
<path fill="none" stroke="midnightblue" d="M2197.3,-46.1C2198.63,-37.14 2200.15,-26.86 2201.2,-19.75"/>
<polygon fill="midnightblue" stroke="midnightblue" points="2193.82,-45.68 2195.82,-56.08 2200.75,-46.7 2193.82,-45.68"/>
</g>
<!-- Node275&#45;&gt;Node282 -->
<g id="edge29" class="edge">
<title>Node275&#45;&gt;Node282</title>
<path fill="none" stroke="midnightblue" d="M2224.82,-52.5C2249.38,-42.38 2283.32,-28.39 2304.84,-19.52"/>
<polygon fill="midnightblue" stroke="midnightblue" points="2223.17,-49.4 2215.26,-56.44 2225.84,-55.87 2223.17,-49.4"/>
</g>
<!-- Node275&#45;&gt;Node284 -->
<g id="edge30" class="edge">
<title>Node275&#45;&gt;Node284</title>
<path fill="none" stroke="midnightblue" d="M2244.62,-54.35C2292.62,-44.14 2364.12,-28.94 2408.44,-19.52"/>
<polygon fill="midnightblue" stroke="midnightblue" points="2243.8,-50.94 2234.75,-56.44 2245.26,-57.79 2243.8,-50.94"/>
</g>
<!-- Node275&#45;&gt;Node189 -->
<g id="edge31" class="edge">
<title>Node275&#45;&gt;Node189</title>
<path fill="none" stroke="midnightblue" d="M2262.79,-55.19C2335.26,-44.78 2448.38,-28.54 2515.39,-18.91"/>
<polygon fill="midnightblue" stroke="midnightblue" points="2262.24,-51.74 2252.84,-56.62 2263.23,-58.66 2262.24,-51.74"/>
</g>
<!-- Node275&#45;&gt;Node288 -->
<g id="edge32" class="edge">
<title>Node275&#45;&gt;Node288</title>
<path fill="none" stroke="midnightblue" d="M2262.94,-58.59C2368.09,-48.63 2564.56,-29.62 2634.5,-20 2637.4,-19.6 2640.4,-19.16 2643.41,-18.7"/>
<polygon fill="midnightblue" stroke="midnightblue" points="2262.37,-55.13 2252.75,-59.55 2263.03,-62.09 2262.37,-55.13"/>
</g>
<!-- Node289&#45;&gt;Node77 -->
<g id="edge42" class="edge">
<title>Node289&#45;&gt;Node77</title>
<path fill="none" stroke="midnightblue" d="M725.5,-45.8C725.5,-36.91 725.5,-26.78 725.5,-19.75"/>
<polygon fill="midnightblue" stroke="midnightblue" points="722,-46.08 725.5,-56.08 729,-46.08 722,-46.08"/>
</g>
<!-- Node293&#45;&gt;Node204 -->
<g id="edge48" class="edge">
<title>Node293&#45;&gt;Node204</title>
<path fill="none" stroke="midnightblue" d="M3891.4,-50.62C3876.24,-40.76 3856.62,-27.99 3843.8,-19.65"/>
<polygon fill="midnightblue" stroke="midnightblue" points="3889.87,-53.8 3900.16,-56.32 3893.69,-47.94 3889.87,-53.8"/>
</g>
<!-- Node293&#45;&gt;Node190 -->
<g id="edge49" class="edge">
<title>Node293&#45;&gt;Node190</title>
<path fill="none" stroke="midnightblue" d="M3935.33,-50.62C3950.31,-40.76 3969.7,-27.99 3982.36,-19.65"/>
<polygon fill="midnightblue" stroke="midnightblue" points="3933.1,-47.9 3926.67,-56.32 3936.95,-53.75 3933.1,-47.9"/>
</g>
<!-- Node314&#45;&gt;Node92 -->
<g id="edge56" class="edge">
<title>Node314&#45;&gt;Node92</title>
<path fill="none" stroke="midnightblue" d="M842.5,-45.8C842.5,-36.91 842.5,-26.78 842.5,-19.75"/>
<polygon fill="midnightblue" stroke="midnightblue" points="839,-46.08 842.5,-56.08 846,-46.08 839,-46.08"/>
</g>
<!-- Node315&#45;&gt;Node133 -->
<g id="edge60" class="edge">
<title>Node315&#45;&gt;Node133</title>
<path fill="none" stroke="midnightblue" d="M1828.35,-56.57C1827.05,-56.38 1825.77,-56.19 1824.5,-56 1713.46,-39.54 1685.54,-36.46 1574.5,-20 1571.63,-19.57 1568.68,-19.13 1565.71,-18.69"/>
<polygon fill="midnightblue" stroke="midnightblue" points="1828,-60.06 1838.41,-58.08 1829.04,-53.14 1828,-60.06"/>
</g>
<!-- Node315&#45;&gt;Node21 -->
<g id="edge61" class="edge">
<title>Node315&#45;&gt;Node21</title>
<path fill="none" stroke="midnightblue" d="M1834.67,-54.28C1788.18,-44.08 1719.14,-28.92 1676.3,-19.52"/>
<polygon fill="midnightblue" stroke="midnightblue" points="1834,-57.72 1844.52,-56.44 1835.5,-50.88 1834,-57.72"/>
</g>
</g>
</svg>
