<?xml version="1.0" encoding="UTF-8" standalone="no"?>
<!DOCTYPE svg PUBLIC "-//W3C//DTD SVG 1.1//EN"
 "http://www.w3.org/Graphics/SVG/1.1/DTD/svg11.dtd">
<!-- Generated by graphviz version 2.43.0 (0)
 -->
<!-- Title: IntField.H Pages: 1 -->
<svg width="3845pt" height="196pt"
 viewBox="0.00 0.00 3845.41 196.00" xmlns="http://www.w3.org/2000/svg" xmlns:xlink="http://www.w3.org/1999/xlink">
<g id="graph0" class="graph" transform="scale(1 1) rotate(0) translate(4 192)">
<title>IntField.H</title>
<polygon fill="white" stroke="transparent" points="-4,4 -4,-192 3841.41,-192 3841.41,4 -4,4"/>
<!-- Node1 -->
<g id="node1" class="node">
<title>Node1</title>
<g id="a_node1"><a xlink:title=" ">
<polygon fill="#bfbfbf" stroke="black" points="1474,-168.5 1474,-187.5 1537,-187.5 1537,-168.5 1474,-168.5"/>
<text text-anchor="middle" x="1505.5" y="-175.5" font-family="Helvetica,sans-Serif" font-size="10.00">IntField.H</text>
</a>
</g>
</g>
<!-- Node2 -->
<g id="node2" class="node">
<title>Node2</title>
<g id="a_node2"><a xlink:href="_field_repo_8_h.html" target="_top" xlink:title=" ">
<polygon fill="white" stroke="red" points="1740,-112.5 1740,-131.5 1815,-131.5 1815,-112.5 1740,-112.5"/>
<text text-anchor="middle" x="1777.5" y="-119.5" font-family="Helvetica,sans-Serif" font-size="10.00">FieldRepo.H</text>
</a>
</g>
</g>
<!-- Node1&#45;&gt;Node2 -->
<g id="edge1" class="edge">
<title>Node1&#45;&gt;Node2</title>
<path fill="none" stroke="midnightblue" d="M1547.23,-168.72C1599.8,-158.28 1689.34,-140.5 1739.88,-130.47"/>
<polygon fill="midnightblue" stroke="midnightblue" points="1546.36,-165.32 1537.23,-170.7 1547.72,-172.19 1546.36,-165.32"/>
</g>
<!-- Node269 -->
<g id="node17" class="node">
<title>Node269</title>
<g id="a_node17"><a xlink:href="_int_field_8cpp.html" target="_top" xlink:title=" ">
<polygon fill="white" stroke="black" points="0,-56.5 0,-75.5 73,-75.5 73,-56.5 0,-56.5"/>
<text text-anchor="middle" x="36.5" y="-63.5" font-family="Helvetica,sans-Serif" font-size="10.00">IntField.cpp</text>
</a>
</g>
</g>
<!-- Node1&#45;&gt;Node269 -->
<g id="edge69" class="edge">
<title>Node1&#45;&gt;Node269</title>
<path fill="none" stroke="midnightblue" d="M1463.68,-175.9C1292.09,-171 625.38,-148.1 82.5,-76 79.43,-75.59 76.27,-75.11 73.09,-74.58"/>
<polygon fill="midnightblue" stroke="midnightblue" points="1463.71,-179.4 1473.81,-176.19 1463.91,-172.41 1463.71,-179.4"/>
</g>
<!-- Node325 -->
<g id="node49" class="node">
<title>Node325</title>
<g id="a_node49"><a xlink:href="_actuator_source_tagging_8_h.html" target="_top" xlink:title=" ">
<polygon fill="white" stroke="red" points="1833,-112.5 1833,-131.5 1972,-131.5 1972,-112.5 1833,-112.5"/>
<text text-anchor="middle" x="1902.5" y="-119.5" font-family="Helvetica,sans-Serif" font-size="10.00">ActuatorSourceTagging.H</text>
</a>
</g>
</g>
<!-- Node1&#45;&gt;Node325 -->
<g id="edge70" class="edge">
<title>Node1&#45;&gt;Node325</title>
<path fill="none" stroke="midnightblue" d="M1547.51,-171.29C1617.41,-161.78 1757.98,-142.66 1839.7,-131.54"/>
<polygon fill="midnightblue" stroke="midnightblue" points="1546.75,-167.86 1537.32,-172.67 1547.7,-174.79 1546.75,-167.86"/>
</g>
<!-- Node326 -->
<g id="node50" class="node">
<title>Node326</title>
<g id="a_node50"><a xlink:href="_multi_phase_8_h.html" target="_top" xlink:title=" ">
<polygon fill="white" stroke="red" points="688,-56.5 688,-75.5 769,-75.5 769,-56.5 688,-56.5"/>
<text text-anchor="middle" x="728.5" y="-63.5" font-family="Helvetica,sans-Serif" font-size="10.00">MultiPhase.H</text>
</a>
</g>
</g>
<!-- Node1&#45;&gt;Node326 -->
<g id="edge71" class="edge">
<title>Node1&#45;&gt;Node326</title>
<path fill="none" stroke="midnightblue" d="M1463.69,-171.5C1352.74,-156.82 1041.71,-115.18 783.5,-76 778.81,-75.29 773.9,-74.52 769.03,-73.74"/>
<polygon fill="midnightblue" stroke="midnightblue" points="1463.42,-174.99 1473.79,-172.83 1464.34,-168.05 1463.42,-174.99"/>
</g>
<!-- Node3 -->
<g id="node3" class="node">
<title>Node3</title>
<g id="a_node3"><a xlink:href="_b_c_interface_8cpp.html" target="_top" xlink:title=" ">
<polygon fill="white" stroke="black" points="3708.5,-0.5 3708.5,-19.5 3802.5,-19.5 3802.5,-0.5 3708.5,-0.5"/>
<text text-anchor="middle" x="3755.5" y="-7.5" font-family="Helvetica,sans-Serif" font-size="10.00">BCInterface.cpp</text>
</a>
</g>
</g>
<!-- Node2&#45;&gt;Node3 -->
<g id="edge2" class="edge">
<title>Node2&#45;&gt;Node3</title>
<path fill="none" stroke="midnightblue" d="M1825.36,-112.52C1989.48,-106.65 3793.55,-114.63 3831.5,-76 3852.91,-54.2 3808.96,-31.65 3779.4,-19.69"/>
<polygon fill="midnightblue" stroke="midnightblue" points="1824.86,-109.04 1815.07,-113.09 1825.25,-116.03 1824.86,-109.04"/>
</g>
<!-- Node4 -->
<g id="node4" class="node">
<title>Node4</title>
<g id="a_node4"><a xlink:href="_fixed_gradient_b_c_8_h.html" target="_top" xlink:title=" ">
<polygon fill="white" stroke="red" points="2622.5,-56.5 2622.5,-75.5 2730.5,-75.5 2730.5,-56.5 2622.5,-56.5"/>
<text text-anchor="middle" x="2676.5" y="-63.5" font-family="Helvetica,sans-Serif" font-size="10.00">FixedGradientBC.H</text>
</a>
</g>
</g>
<!-- Node2&#45;&gt;Node4 -->
<g id="edge3" class="edge">
<title>Node2&#45;&gt;Node4</title>
<path fill="none" stroke="midnightblue" d="M1825.16,-111.98C2172.01,-71.05 2263.93,-106.65 2608.5,-76 2613.01,-75.6 2617.68,-75.12 2622.36,-74.59"/>
<polygon fill="midnightblue" stroke="midnightblue" points="1824.6,-108.52 1815.08,-113.18 1825.43,-115.47 1824.6,-108.52"/>
</g>
<!-- Node6 -->
<g id="node5" class="node">
<title>Node6</title>
<g id="a_node5"><a xlink:href="_mass_inflow_outflow_b_c_8_h.html" target="_top" xlink:title=" ">
<polygon fill="white" stroke="red" points="3689,-56.5 3689,-75.5 3822,-75.5 3822,-56.5 3689,-56.5"/>
<text text-anchor="middle" x="3755.5" y="-63.5" font-family="Helvetica,sans-Serif" font-size="10.00">MassInflowOutflowBC.H</text>
</a>
</g>
</g>
<!-- Node2&#45;&gt;Node6 -->
<g id="edge5" class="edge">
<title>Node2&#45;&gt;Node6</title>
<path fill="none" stroke="midnightblue" d="M1825.06,-112.03C2645.61,-25.33 2859.71,-132.35 3679.5,-76 3682.55,-75.79 3685.66,-75.55 3688.81,-75.27"/>
<polygon fill="midnightblue" stroke="midnightblue" points="1824.65,-108.56 1815.07,-113.1 1825.39,-115.52 1824.65,-108.56"/>
</g>
<!-- Node8 -->
<g id="node6" class="node">
<title>Node8</title>
<g id="a_node6"><a xlink:href="scalar__bcs_8_h.html" target="_top" xlink:title=" ">
<polygon fill="white" stroke="red" points="287.5,-56.5 287.5,-75.5 365.5,-75.5 365.5,-56.5 287.5,-56.5"/>
<text text-anchor="middle" x="326.5" y="-63.5" font-family="Helvetica,sans-Serif" font-size="10.00">scalar_bcs.H</text>
</a>
</g>
</g>
<!-- Node2&#45;&gt;Node8 -->
<g id="edge7" class="edge">
<title>Node2&#45;&gt;Node8</title>
<path fill="none" stroke="midnightblue" d="M1729.49,-120.45C1515.31,-117.84 645.65,-105.59 374.5,-76 371.63,-75.69 368.68,-75.3 365.72,-74.86"/>
<polygon fill="midnightblue" stroke="midnightblue" points="1729.73,-123.95 1739.77,-120.57 1729.82,-116.95 1729.73,-123.95"/>
</g>
<!-- Node24 -->
<g id="node7" class="node">
<title>Node24</title>
<g id="a_node7"><a xlink:href="velocity__bcs_8_h.html" target="_top" xlink:title=" ">
<polygon fill="white" stroke="red" points="383.5,-56.5 383.5,-75.5 471.5,-75.5 471.5,-56.5 383.5,-56.5"/>
<text text-anchor="middle" x="427.5" y="-63.5" font-family="Helvetica,sans-Serif" font-size="10.00">velocity_bcs.H</text>
</a>
</g>
</g>
<!-- Node2&#45;&gt;Node24 -->
<g id="edge8" class="edge">
<title>Node2&#45;&gt;Node24</title>
<path fill="none" stroke="midnightblue" d="M1729.77,-121.38C1560,-122.32 969.73,-121.84 485.5,-76 481.04,-75.58 476.39,-75.03 471.77,-74.42"/>
<polygon fill="midnightblue" stroke="midnightblue" points="1729.89,-124.88 1739.87,-121.32 1729.85,-117.88 1729.89,-124.88"/>
</g>
<!-- Node25 -->
<g id="node8" class="node">
<title>Node25</title>
<g id="a_node8"><a xlink:href="_c_f_d_sim_8_h.html" target="_top" xlink:title=" ">
<polygon fill="white" stroke="red" points="565.5,-56.5 565.5,-75.5 631.5,-75.5 631.5,-56.5 565.5,-56.5"/>
<text text-anchor="middle" x="598.5" y="-63.5" font-family="Helvetica,sans-Serif" font-size="10.00">CFDSim.H</text>
</a>
</g>
</g>
<!-- Node2&#45;&gt;Node25 -->
<g id="edge9" class="edge">
<title>Node2&#45;&gt;Node25</title>
<path fill="none" stroke="midnightblue" d="M1729.93,-120.06C1543.27,-116.21 860.64,-100.73 645.5,-76 640.96,-75.48 636.2,-74.77 631.53,-73.97"/>
<polygon fill="midnightblue" stroke="midnightblue" points="1729.91,-123.56 1739.98,-120.26 1730.05,-116.56 1729.91,-123.56"/>
</g>
<!-- Node77 -->
<g id="node9" class="node">
<title>Node77</title>
<g id="a_node9"><a xlink:href="_p_d_e_base_8cpp.html" target="_top" xlink:title=" ">
<polygon fill="white" stroke="black" points="163.5,-0.5 163.5,-19.5 243.5,-19.5 243.5,-0.5 163.5,-0.5"/>
<text text-anchor="middle" x="203.5" y="-7.5" font-family="Helvetica,sans-Serif" font-size="10.00">PDEBase.cpp</text>
</a>
</g>
</g>
<!-- Node2&#45;&gt;Node77 -->
<g id="edge40" class="edge">
<title>Node2&#45;&gt;Node77</title>
<path fill="none" stroke="midnightblue" d="M1729.91,-121.19C1475.33,-121.98 283.57,-123.17 222.5,-76 205.19,-62.63 203.01,-34.38 203.1,-19.92"/>
<polygon fill="midnightblue" stroke="midnightblue" points="1729.96,-124.69 1739.95,-121.15 1729.94,-117.69 1729.96,-124.69"/>
</g>
<!-- Node92 -->
<g id="node10" class="node">
<title>Node92</title>
<g id="a_node10"><a xlink:href="_i_b_8cpp.html" target="_top" xlink:title=" ">
<polygon fill="white" stroke="black" points="458,-0.5 458,-19.5 505,-19.5 505,-0.5 458,-0.5"/>
<text text-anchor="middle" x="481.5" y="-7.5" font-family="Helvetica,sans-Serif" font-size="10.00">IB.cpp</text>
</a>
</g>
</g>
<!-- Node2&#45;&gt;Node92 -->
<g id="edge54" class="edge">
<title>Node2&#45;&gt;Node92</title>
<path fill="none" stroke="midnightblue" d="M1729.44,-120.27C1508.34,-116.79 597.39,-100.96 542.5,-76 516.02,-63.96 495.53,-34.55 486.52,-19.77"/>
<polygon fill="midnightblue" stroke="midnightblue" points="1729.69,-123.77 1739.74,-120.43 1729.8,-116.78 1729.69,-123.77"/>
</g>
<!-- Node103 -->
<g id="node11" class="node">
<title>Node103</title>
<g id="a_node11"><a xlink:href="incflo_8_h.html" target="_top" xlink:title=" ">
<polygon fill="white" stroke="red" points="523,-0.5 523,-19.5 576,-19.5 576,-0.5 523,-0.5"/>
<text text-anchor="middle" x="549.5" y="-7.5" font-family="Helvetica,sans-Serif" font-size="10.00">incflo.H</text>
</a>
</g>
</g>
<!-- Node2&#45;&gt;Node103 -->
<g id="edge57" class="edge">
<title>Node2&#45;&gt;Node103</title>
<path fill="none" stroke="midnightblue" d="M1729.51,-120.97C1508.79,-120.61 600.11,-116.64 556.5,-76 541.06,-61.61 544.36,-33.82 547.32,-19.69"/>
<polygon fill="midnightblue" stroke="midnightblue" points="1729.79,-124.47 1739.79,-120.98 1729.8,-117.47 1729.79,-124.47"/>
</g>
<!-- Node133 -->
<g id="node12" class="node">
<title>Node133</title>
<g id="a_node12"><a xlink:href="_ocean_waves_8cpp.html" target="_top" xlink:title=" ">
<polygon fill="white" stroke="black" points="719.5,-0.5 719.5,-19.5 819.5,-19.5 819.5,-0.5 719.5,-0.5"/>
<text text-anchor="middle" x="769.5" y="-7.5" font-family="Helvetica,sans-Serif" font-size="10.00">OceanWaves.cpp</text>
</a>
</g>
</g>
<!-- Node2&#45;&gt;Node133 -->
<g id="edge58" class="edge">
<title>Node2&#45;&gt;Node133</title>
<path fill="none" stroke="midnightblue" d="M1729.66,-121.17C1546.65,-121.52 897.16,-119.62 816.5,-76 793.47,-63.55 778.92,-34.33 772.81,-19.69"/>
<polygon fill="midnightblue" stroke="midnightblue" points="1729.79,-124.67 1739.78,-121.15 1729.78,-117.67 1729.79,-124.67"/>
</g>
<!-- Node144 -->
<g id="node13" class="node">
<title>Node144</title>
<g id="a_node13"><a xlink:href="_tioga_interface_8cpp.html" target="_top" xlink:title=" ">
<polygon fill="white" stroke="black" points="594,-0.5 594,-19.5 701,-19.5 701,-0.5 594,-0.5"/>
<text text-anchor="middle" x="647.5" y="-7.5" font-family="Helvetica,sans-Serif" font-size="10.00">TiogaInterface.cpp</text>
</a>
</g>
</g>
<!-- Node2&#45;&gt;Node144 -->
<g id="edge63" class="edge">
<title>Node2&#45;&gt;Node144</title>
<path fill="none" stroke="midnightblue" d="M1729.63,-120.41C1523.86,-117.71 722.93,-105.32 678.5,-76 658.88,-63.05 651.36,-34.07 648.75,-19.58"/>
<polygon fill="midnightblue" stroke="midnightblue" points="1729.77,-123.91 1739.82,-120.54 1729.86,-116.91 1729.77,-123.91"/>
</g>
<!-- Node265 -->
<g id="node14" class="node">
<title>Node265</title>
<g id="a_node14"><a xlink:href="_m_o_l_8_h.html" target="_top" xlink:title=" ">
<polygon fill="white" stroke="red" points="1010,-56.5 1010,-75.5 1059,-75.5 1059,-56.5 1010,-56.5"/>
<text text-anchor="middle" x="1034.5" y="-63.5" font-family="Helvetica,sans-Serif" font-size="10.00">MOL.H</text>
</a>
</g>
</g>
<!-- Node2&#45;&gt;Node265 -->
<g id="edge15" class="edge">
<title>Node2&#45;&gt;Node265</title>
<path fill="none" stroke="midnightblue" d="M1729.73,-121.17C1614.96,-120.9 1314.94,-116.04 1068.5,-76 1065.49,-75.51 1062.35,-74.87 1059.26,-74.15"/>
<polygon fill="midnightblue" stroke="midnightblue" points="1729.92,-124.67 1739.93,-121.19 1729.93,-117.67 1729.92,-124.67"/>
</g>
<!-- Node267 -->
<g id="node15" class="node">
<title>Node267</title>
<g id="a_node15"><a xlink:href="_field_8cpp.html" target="_top" xlink:title=" ">
<polygon fill="white" stroke="black" points="1077.5,-56.5 1077.5,-75.5 1137.5,-75.5 1137.5,-56.5 1077.5,-56.5"/>
<text text-anchor="middle" x="1107.5" y="-63.5" font-family="Helvetica,sans-Serif" font-size="10.00">Field.cpp</text>
</a>
</g>
</g>
<!-- Node2&#45;&gt;Node267 -->
<g id="edge16" class="edge">
<title>Node2&#45;&gt;Node267</title>
<path fill="none" stroke="midnightblue" d="M1729.92,-120.13C1624.35,-117.65 1362.76,-108.46 1146.5,-76 1143.61,-75.57 1140.62,-75.03 1137.64,-74.44"/>
<polygon fill="midnightblue" stroke="midnightblue" points="1729.86,-123.63 1739.94,-120.36 1730.02,-116.63 1729.86,-123.63"/>
</g>
<!-- Node268 -->
<g id="node16" class="node">
<title>Node268</title>
<g id="a_node16"><a xlink:href="_field_repo_8cpp.html" target="_top" xlink:title=" ">
<polygon fill="white" stroke="black" points="1156,-56.5 1156,-75.5 1241,-75.5 1241,-56.5 1156,-56.5"/>
<text text-anchor="middle" x="1198.5" y="-63.5" font-family="Helvetica,sans-Serif" font-size="10.00">FieldRepo.cpp</text>
</a>
</g>
</g>
<!-- Node2&#45;&gt;Node268 -->
<g id="edge17" class="edge">
<title>Node2&#45;&gt;Node268</title>
<path fill="none" stroke="midnightblue" d="M1729.73,-118.37C1636.91,-112.94 1425.84,-99.03 1249.5,-76 1246.74,-75.64 1243.89,-75.23 1241.03,-74.8"/>
<polygon fill="midnightblue" stroke="midnightblue" points="1729.74,-121.87 1739.93,-118.96 1730.14,-114.89 1729.74,-121.87"/>
</g>
<!-- Node2&#45;&gt;Node269 -->
<g id="edge18" class="edge">
<title>Node2&#45;&gt;Node269</title>
<path fill="none" stroke="midnightblue" d="M1729.57,-120.81C1489.31,-119.68 414.42,-112.62 82.5,-76 79.43,-75.66 76.25,-75.22 73.07,-74.73"/>
<polygon fill="midnightblue" stroke="midnightblue" points="1729.71,-124.31 1739.73,-120.85 1729.74,-117.31 1729.71,-124.31"/>
</g>
<!-- Node270 -->
<g id="node18" class="node">
<title>Node270</title>
<g id="a_node18"><a xlink:href="_int_scratch_field_8cpp.html" target="_top" xlink:title=" ">
<polygon fill="white" stroke="black" points="1259,-56.5 1259,-75.5 1368,-75.5 1368,-56.5 1259,-56.5"/>
<text text-anchor="middle" x="1313.5" y="-63.5" font-family="Helvetica,sans-Serif" font-size="10.00">IntScratchField.cpp</text>
</a>
</g>
</g>
<!-- Node2&#45;&gt;Node270 -->
<g id="edge19" class="edge">
<title>Node2&#45;&gt;Node270</title>
<path fill="none" stroke="midnightblue" d="M1729.88,-116.07C1654.87,-108.22 1504.63,-92.09 1377.5,-76 1374.49,-75.62 1371.41,-75.22 1368.3,-74.81"/>
<polygon fill="midnightblue" stroke="midnightblue" points="1729.65,-119.57 1739.96,-117.13 1730.38,-112.61 1729.65,-119.57"/>
</g>
<!-- Node271 -->
<g id="node19" class="node">
<title>Node271</title>
<g id="a_node19"><a xlink:href="_scratch_field_8cpp.html" target="_top" xlink:title=" ">
<polygon fill="white" stroke="black" points="1386.5,-56.5 1386.5,-75.5 1482.5,-75.5 1482.5,-56.5 1386.5,-56.5"/>
<text text-anchor="middle" x="1434.5" y="-63.5" font-family="Helvetica,sans-Serif" font-size="10.00">ScratchField.cpp</text>
</a>
</g>
</g>
<!-- Node2&#45;&gt;Node271 -->
<g id="edge20" class="edge">
<title>Node2&#45;&gt;Node271</title>
<path fill="none" stroke="midnightblue" d="M1729.44,-113.45C1672.61,-104.51 1575.17,-89.19 1491.5,-76 1488.63,-75.55 1485.68,-75.08 1482.7,-74.61"/>
<polygon fill="midnightblue" stroke="midnightblue" points="1729.14,-116.94 1739.56,-115.04 1730.23,-110.03 1729.14,-116.94"/>
</g>
<!-- Node272 -->
<g id="node20" class="node">
<title>Node272</title>
<g id="a_node20"><a xlink:href="_view_field_8cpp.html" target="_top" xlink:title=" ">
<polygon fill="white" stroke="black" points="1500.5,-56.5 1500.5,-75.5 1584.5,-75.5 1584.5,-56.5 1500.5,-56.5"/>
<text text-anchor="middle" x="1542.5" y="-63.5" font-family="Helvetica,sans-Serif" font-size="10.00">ViewField.cpp</text>
</a>
</g>
</g>
<!-- Node2&#45;&gt;Node272 -->
<g id="edge21" class="edge">
<title>Node2&#45;&gt;Node272</title>
<path fill="none" stroke="midnightblue" d="M1730.29,-110.15C1685.89,-99.95 1620.31,-84.88 1579.56,-75.52"/>
<polygon fill="midnightblue" stroke="midnightblue" points="1729.73,-113.62 1740.26,-112.44 1731.3,-106.79 1729.73,-113.62"/>
</g>
<!-- Node273 -->
<g id="node21" class="node">
<title>Node273</title>
<g id="a_node21"><a xlink:href="diffusion_8_h.html" target="_top" xlink:title=" ">
<polygon fill="white" stroke="red" points="1603,-56.5 1603,-75.5 1672,-75.5 1672,-56.5 1603,-56.5"/>
<text text-anchor="middle" x="1637.5" y="-63.5" font-family="Helvetica,sans-Serif" font-size="10.00">diffusion.H</text>
</a>
</g>
</g>
<!-- Node2&#45;&gt;Node273 -->
<g id="edge22" class="edge">
<title>Node2&#45;&gt;Node273</title>
<path fill="none" stroke="midnightblue" d="M1745.8,-108.77C1719.5,-98.63 1682.78,-84.47 1659.58,-75.52"/>
<polygon fill="midnightblue" stroke="midnightblue" points="1744.73,-112.11 1755.32,-112.44 1747.25,-105.58 1744.73,-112.11"/>
</g>
<!-- Node274 -->
<g id="node22" class="node">
<title>Node274</title>
<g id="a_node22"><a xlink:href="_density_source_8_h.html" target="_top" xlink:title=" ">
<polygon fill="white" stroke="red" points="1690.5,-56.5 1690.5,-75.5 1788.5,-75.5 1788.5,-56.5 1690.5,-56.5"/>
<text text-anchor="middle" x="1739.5" y="-63.5" font-family="Helvetica,sans-Serif" font-size="10.00">DensitySource.H</text>
</a>
</g>
</g>
<!-- Node2&#45;&gt;Node274 -->
<g id="edge23" class="edge">
<title>Node2&#45;&gt;Node274</title>
<path fill="none" stroke="midnightblue" d="M1765.44,-103.86C1758.86,-94.5 1750.99,-83.33 1745.66,-75.75"/>
<polygon fill="midnightblue" stroke="midnightblue" points="1762.61,-105.92 1771.23,-112.08 1768.33,-101.89 1762.61,-105.92"/>
</g>
<!-- Node275 -->
<g id="node23" class="node">
<title>Node275</title>
<g id="a_node23"><a xlink:href="_momentum_source_8_h.html" target="_top" xlink:title=" ">
<polygon fill="white" stroke="red" points="1920.5,-56.5 1920.5,-75.5 2036.5,-75.5 2036.5,-56.5 1920.5,-56.5"/>
<text text-anchor="middle" x="1978.5" y="-63.5" font-family="Helvetica,sans-Serif" font-size="10.00">MomentumSource.H</text>
</a>
</g>
</g>
<!-- Node2&#45;&gt;Node275 -->
<g id="edge24" class="edge">
<title>Node2&#45;&gt;Node275</title>
<path fill="none" stroke="midnightblue" d="M1819.08,-109.83C1857.03,-99.63 1912.31,-84.78 1946.8,-75.52"/>
<polygon fill="midnightblue" stroke="midnightblue" points="1818.1,-106.47 1809.35,-112.44 1819.91,-113.23 1818.1,-106.47"/>
</g>
<!-- Node188 -->
<g id="node24" class="node">
<title>Node188</title>
<g id="a_node24"><a xlink:href="_a_b_l_mean_boussinesq_8_h.html" target="_top" xlink:title=" ">
<polygon fill="white" stroke="red" points="1157.5,-0.5 1157.5,-19.5 1285.5,-19.5 1285.5,-0.5 1157.5,-0.5"/>
<text text-anchor="middle" x="1221.5" y="-7.5" font-family="Helvetica,sans-Serif" font-size="10.00">ABLMeanBoussinesq.H</text>
</a>
</g>
</g>
<!-- Node2&#45;&gt;Node188 -->
<g id="edge33" class="edge">
<title>Node2&#45;&gt;Node188</title>
<path fill="none" stroke="midnightblue" d="M1729.5,-120.02C1563.95,-116.39 1025.6,-102.59 1000.5,-76 951.91,-24.52 1076.16,-13.15 1157.47,-11.04"/>
<polygon fill="midnightblue" stroke="midnightblue" points="1729.78,-123.52 1739.85,-120.24 1729.93,-116.52 1729.78,-123.52"/>
</g>
<!-- Node203 -->
<g id="node25" class="node">
<title>Node203</title>
<g id="a_node25"><a xlink:href="_a_b_l_meso_forcing_mom_8_h.html" target="_top" xlink:title=" ">
<polygon fill="white" stroke="red" points="1508.5,-0.5 1508.5,-19.5 1640.5,-19.5 1640.5,-0.5 1508.5,-0.5"/>
<text text-anchor="middle" x="1574.5" y="-7.5" font-family="Helvetica,sans-Serif" font-size="10.00">ABLMesoForcingMom.H</text>
</a>
</g>
</g>
<!-- Node2&#45;&gt;Node203 -->
<g id="edge34" class="edge">
<title>Node2&#45;&gt;Node203</title>
<path fill="none" stroke="midnightblue" d="M1790.54,-104.11C1799.81,-89.92 1808.79,-69.79 1797.5,-56 1787.29,-43.53 1699.42,-28.66 1637.09,-19.53"/>
<polygon fill="midnightblue" stroke="midnightblue" points="1787.55,-102.28 1784.62,-112.46 1793.26,-106.33 1787.55,-102.28"/>
</g>
<!-- Node279 -->
<g id="node26" class="node">
<title>Node279</title>
<g id="a_node26"><a xlink:href="_boussinesq_buoyancy_8_h.html" target="_top" xlink:title=" ">
<polygon fill="white" stroke="red" points="1659,-0.5 1659,-19.5 1788,-19.5 1788,-0.5 1659,-0.5"/>
<text text-anchor="middle" x="1723.5" y="-7.5" font-family="Helvetica,sans-Serif" font-size="10.00">BoussinesqBuoyancy.H</text>
</a>
</g>
</g>
<!-- Node2&#45;&gt;Node279 -->
<g id="edge35" class="edge">
<title>Node2&#45;&gt;Node279</title>
<path fill="none" stroke="midnightblue" d="M1802.14,-107.04C1821.35,-94.28 1842.87,-74.62 1830.5,-56 1817.79,-36.86 1795.18,-25.85 1774.01,-19.51"/>
<polygon fill="midnightblue" stroke="midnightblue" points="1800.22,-104.11 1793.6,-112.38 1803.93,-110.04 1800.22,-104.11"/>
</g>
<!-- Node281 -->
<g id="node27" class="node">
<title>Node281</title>
<g id="a_node27"><a xlink:href="_coriolis_forcing_8_h.html" target="_top" xlink:title=" ">
<polygon fill="white" stroke="red" points="1806,-0.5 1806,-19.5 1905,-19.5 1905,-0.5 1806,-0.5"/>
<text text-anchor="middle" x="1855.5" y="-7.5" font-family="Helvetica,sans-Serif" font-size="10.00">CoriolisForcing.H</text>
</a>
</g>
</g>
<!-- Node2&#45;&gt;Node281 -->
<g id="edge36" class="edge">
<title>Node2&#45;&gt;Node281</title>
<path fill="none" stroke="midnightblue" d="M1809.09,-107.8C1822.78,-100.45 1837.66,-89.93 1846.5,-76 1857.61,-58.49 1857.47,-33.02 1856.46,-19.76"/>
<polygon fill="midnightblue" stroke="midnightblue" points="1807.28,-104.79 1799.89,-112.38 1810.4,-111.05 1807.28,-104.79"/>
</g>
<!-- Node282 -->
<g id="node28" class="node">
<title>Node282</title>
<g id="a_node28"><a xlink:href="_density_buoyancy_8_h.html" target="_top" xlink:title=" ">
<polygon fill="white" stroke="red" points="1923,-0.5 1923,-19.5 2034,-19.5 2034,-0.5 1923,-0.5"/>
<text text-anchor="middle" x="1978.5" y="-7.5" font-family="Helvetica,sans-Serif" font-size="10.00">DensityBuoyancy.H</text>
</a>
</g>
</g>
<!-- Node2&#45;&gt;Node282 -->
<g id="edge37" class="edge">
<title>Node2&#45;&gt;Node282</title>
<path fill="none" stroke="midnightblue" d="M1825.29,-112.02C1887.73,-104.24 2014.88,-111.98 2045.5,-76 2064.09,-54.15 2024.94,-31.44 1999.01,-19.51"/>
<polygon fill="midnightblue" stroke="midnightblue" points="1824.51,-108.59 1815.14,-113.53 1825.54,-115.52 1824.51,-108.59"/>
</g>
<!-- Node284 -->
<g id="node29" class="node">
<title>Node284</title>
<g id="a_node29"><a xlink:href="_gravity_forcing_8_h.html" target="_top" xlink:title=" ">
<polygon fill="white" stroke="red" points="2052.5,-0.5 2052.5,-19.5 2150.5,-19.5 2150.5,-0.5 2052.5,-0.5"/>
<text text-anchor="middle" x="2101.5" y="-7.5" font-family="Helvetica,sans-Serif" font-size="10.00">GravityForcing.H</text>
</a>
</g>
</g>
<!-- Node2&#45;&gt;Node284 -->
<g id="edge38" class="edge">
<title>Node2&#45;&gt;Node284</title>
<path fill="none" stroke="midnightblue" d="M1825.31,-111.86C1932.05,-96.14 1975.94,-133.95 2062.5,-76 2082.84,-62.38 2094.21,-34.24 2098.91,-19.87"/>
<polygon fill="midnightblue" stroke="midnightblue" points="1824.45,-108.46 1815.13,-113.5 1825.56,-115.37 1824.45,-108.46"/>
</g>
<!-- Node189 -->
<g id="node30" class="node">
<title>Node189</title>
<g id="a_node30"><a xlink:href="_hurricane_forcing_8_h.html" target="_top" xlink:title=" ">
<polygon fill="white" stroke="red" points="2168.5,-0.5 2168.5,-19.5 2278.5,-19.5 2278.5,-0.5 2168.5,-0.5"/>
<text text-anchor="middle" x="2223.5" y="-7.5" font-family="Helvetica,sans-Serif" font-size="10.00">HurricaneForcing.H</text>
</a>
</g>
</g>
<!-- Node2&#45;&gt;Node189 -->
<g id="edge39" class="edge">
<title>Node2&#45;&gt;Node189</title>
<path fill="none" stroke="midnightblue" d="M1825.16,-111.83C1941.78,-93.56 1976.52,-108.76 2086.5,-76 2133.68,-61.95 2185.03,-33.74 2209.29,-19.56"/>
<polygon fill="midnightblue" stroke="midnightblue" points="1824.44,-108.41 1815.12,-113.46 1825.55,-115.32 1824.44,-108.41"/>
</g>
<!-- Node288 -->
<g id="node31" class="node">
<title>Node288</title>
<g id="a_node31"><a xlink:href="_m_m_s_forcing_8_h.html" target="_top" xlink:title=" ">
<polygon fill="white" stroke="red" points="2296.5,-0.5 2296.5,-19.5 2382.5,-19.5 2382.5,-0.5 2296.5,-0.5"/>
<text text-anchor="middle" x="2339.5" y="-7.5" font-family="Helvetica,sans-Serif" font-size="10.00">MMSForcing.H</text>
</a>
</g>
</g>
<!-- Node2&#45;&gt;Node288 -->
<g id="edge64" class="edge">
<title>Node2&#45;&gt;Node288</title>
<path fill="none" stroke="midnightblue" d="M1825.35,-111.82C1959.3,-91.57 1997.03,-103.22 2126.5,-76 2162.92,-68.34 2265,-35.45 2313.41,-19.6"/>
<polygon fill="midnightblue" stroke="midnightblue" points="1824.46,-108.42 1815.11,-113.4 1825.53,-115.34 1824.46,-108.42"/>
</g>
<!-- Node289 -->
<g id="node32" class="node">
<title>Node289</title>
<g id="a_node32"><a xlink:href="_p_d_e_helpers_8_h.html" target="_top" xlink:title=" ">
<polygon fill="white" stroke="red" points="91.5,-56.5 91.5,-75.5 175.5,-75.5 175.5,-56.5 91.5,-56.5"/>
<text text-anchor="middle" x="133.5" y="-63.5" font-family="Helvetica,sans-Serif" font-size="10.00">PDEHelpers.H</text>
</a>
</g>
</g>
<!-- Node2&#45;&gt;Node289 -->
<g id="edge41" class="edge">
<title>Node2&#45;&gt;Node289</title>
<path fill="none" stroke="midnightblue" d="M1729.67,-120.49C1498.99,-117.9 499.66,-105.19 189.5,-76 184.99,-75.58 180.29,-75.01 175.62,-74.38"/>
<polygon fill="midnightblue" stroke="midnightblue" points="1729.72,-123.99 1739.76,-120.6 1729.8,-116.99 1729.72,-123.99"/>
</g>
<!-- Node290 -->
<g id="node33" class="node">
<title>Node290</title>
<g id="a_node33"><a xlink:href="_s_d_r_source_8_h.html" target="_top" xlink:title=" ">
<polygon fill="white" stroke="red" points="2244.5,-56.5 2244.5,-75.5 2324.5,-75.5 2324.5,-56.5 2244.5,-56.5"/>
<text text-anchor="middle" x="2284.5" y="-63.5" font-family="Helvetica,sans-Serif" font-size="10.00">SDRSource.H</text>
</a>
</g>
</g>
<!-- Node2&#45;&gt;Node290 -->
<g id="edge43" class="edge">
<title>Node2&#45;&gt;Node290</title>
<path fill="none" stroke="midnightblue" d="M1825.16,-111.9C2005.04,-86.97 2053.61,-98.53 2230.5,-76 2235.03,-75.42 2239.75,-74.75 2244.45,-74.03"/>
<polygon fill="midnightblue" stroke="midnightblue" points="1824.52,-108.45 1815.1,-113.31 1825.49,-115.38 1824.52,-108.45"/>
</g>
<!-- Node292 -->
<g id="node34" class="node">
<title>Node292</title>
<g id="a_node34"><a xlink:href="_source_term_8_h.html" target="_top" xlink:title=" ">
<polygon fill="white" stroke="red" points="2342.5,-56.5 2342.5,-75.5 2426.5,-75.5 2426.5,-56.5 2342.5,-56.5"/>
<text text-anchor="middle" x="2384.5" y="-63.5" font-family="Helvetica,sans-Serif" font-size="10.00">SourceTerm.H</text>
</a>
</g>
</g>
<!-- Node2&#45;&gt;Node292 -->
<g id="edge44" class="edge">
<title>Node2&#45;&gt;Node292</title>
<path fill="none" stroke="midnightblue" d="M1825.25,-111.92C2050.53,-82.75 2111.28,-103.38 2333.5,-76 2336.36,-75.65 2339.29,-75.24 2342.25,-74.81"/>
<polygon fill="midnightblue" stroke="midnightblue" points="1824.55,-108.48 1815.09,-113.25 1825.46,-115.42 1824.55,-108.48"/>
</g>
<!-- Node204 -->
<g id="node35" class="node">
<title>Node204</title>
<g id="a_node35"><a xlink:href="_a_b_l_meso_forcing_temp_8_h.html" target="_top" xlink:title=" ">
<polygon fill="white" stroke="red" points="2400.5,-0.5 2400.5,-19.5 2534.5,-19.5 2534.5,-0.5 2400.5,-0.5"/>
<text text-anchor="middle" x="2467.5" y="-7.5" font-family="Helvetica,sans-Serif" font-size="10.00">ABLMesoForcingTemp.H</text>
</a>
</g>
</g>
<!-- Node2&#45;&gt;Node204 -->
<g id="edge45" class="edge">
<title>Node2&#45;&gt;Node204</title>
<path fill="none" stroke="midnightblue" d="M1825.02,-111.9C1980.4,-89.71 2024.26,-107.95 2174.5,-76 2202.41,-70.07 2207.89,-63.17 2235.5,-56 2295.66,-40.37 2365.87,-27.48 2413.16,-19.56"/>
<polygon fill="midnightblue" stroke="midnightblue" points="1824.5,-108.44 1815.11,-113.35 1825.51,-115.37 1824.5,-108.44"/>
</g>
<!-- Node190 -->
<g id="node36" class="node">
<title>Node190</title>
<g id="a_node36"><a xlink:href="_hurricane_temp_forcing_8_h.html" target="_top" xlink:title=" ">
<polygon fill="white" stroke="red" points="2552.5,-0.5 2552.5,-19.5 2688.5,-19.5 2688.5,-0.5 2552.5,-0.5"/>
<text text-anchor="middle" x="2620.5" y="-7.5" font-family="Helvetica,sans-Serif" font-size="10.00">HurricaneTempForcing.H</text>
</a>
</g>
</g>
<!-- Node2&#45;&gt;Node190 -->
<g id="edge46" class="edge">
<title>Node2&#45;&gt;Node190</title>
<path fill="none" stroke="midnightblue" d="M1825.11,-112.2C1943.27,-102.8 2504.64,-115.32 2575.5,-76 2598.06,-63.48 2611.76,-34.29 2617.44,-19.67"/>
<polygon fill="midnightblue" stroke="midnightblue" points="1824.7,-108.73 1815.08,-113.18 1825.38,-115.69 1824.7,-108.73"/>
</g>
<!-- Node293 -->
<g id="node37" class="node">
<title>Node293</title>
<g id="a_node37"><a xlink:href="_temperature_source_8_h.html" target="_top" xlink:title=" ">
<polygon fill="white" stroke="red" points="2444.5,-56.5 2444.5,-75.5 2566.5,-75.5 2566.5,-56.5 2444.5,-56.5"/>
<text text-anchor="middle" x="2505.5" y="-63.5" font-family="Helvetica,sans-Serif" font-size="10.00">TemperatureSource.H</text>
</a>
</g>
</g>
<!-- Node2&#45;&gt;Node293 -->
<g id="edge47" class="edge">
<title>Node2&#45;&gt;Node293</title>
<path fill="none" stroke="midnightblue" d="M1825.2,-111.95C2095.56,-78.33 2167.53,-101.08 2435.5,-76 2438.43,-75.73 2441.42,-75.42 2444.44,-75.1"/>
<polygon fill="midnightblue" stroke="midnightblue" points="1824.57,-108.5 1815.09,-113.22 1825.45,-115.44 1824.57,-108.5"/>
</g>
<!-- Node295 -->
<g id="node38" class="node">
<title>Node295</title>
<g id="a_node38"><a xlink:href="_t_k_e_source_8_h.html" target="_top" xlink:title=" ">
<polygon fill="white" stroke="red" points="2749,-56.5 2749,-75.5 2828,-75.5 2828,-56.5 2749,-56.5"/>
<text text-anchor="middle" x="2788.5" y="-63.5" font-family="Helvetica,sans-Serif" font-size="10.00">TKESource.H</text>
</a>
</g>
</g>
<!-- Node2&#45;&gt;Node295 -->
<g id="edge50" class="edge">
<title>Node2&#45;&gt;Node295</title>
<path fill="none" stroke="midnightblue" d="M1825.31,-111.97C2229.96,-65.67 2337.92,-120.54 2739.5,-76 2742.59,-75.66 2745.79,-75.23 2748.99,-74.76"/>
<polygon fill="midnightblue" stroke="midnightblue" points="1824.61,-108.53 1815.08,-113.16 1825.42,-115.48 1824.61,-108.53"/>
</g>
<!-- Node299 -->
<g id="node39" class="node">
<title>Node299</title>
<g id="a_node39"><a xlink:href="_split_advection_8_h.html" target="_top" xlink:title=" ">
<polygon fill="white" stroke="red" points="2845.5,-56.5 2845.5,-75.5 2943.5,-75.5 2943.5,-56.5 2845.5,-56.5"/>
<text text-anchor="middle" x="2894.5" y="-63.5" font-family="Helvetica,sans-Serif" font-size="10.00">SplitAdvection.H</text>
</a>
</g>
</g>
<!-- Node2&#45;&gt;Node299 -->
<g id="edge51" class="edge">
<title>Node2&#45;&gt;Node299</title>
<path fill="none" stroke="midnightblue" d="M1825.05,-112.01C2273.24,-61.4 2391.92,-118.93 2837.5,-76 2840.09,-75.75 2842.75,-75.46 2845.42,-75.14"/>
<polygon fill="midnightblue" stroke="midnightblue" points="1824.62,-108.54 1815.08,-113.15 1825.41,-115.49 1824.62,-108.54"/>
</g>
<!-- Node301 -->
<g id="node40" class="node">
<title>Node301</title>
<g id="a_node40"><a xlink:href="vof__hybridsolver__ops_8_h.html" target="_top" xlink:title=" ">
<polygon fill="white" stroke="red" points="2962,-56.5 2962,-75.5 3093,-75.5 3093,-56.5 2962,-56.5"/>
<text text-anchor="middle" x="3027.5" y="-63.5" font-family="Helvetica,sans-Serif" font-size="10.00">vof_hybridsolver_ops.H</text>
</a>
</g>
</g>
<!-- Node2&#45;&gt;Node301 -->
<g id="edge52" class="edge">
<title>Node2&#45;&gt;Node301</title>
<path fill="none" stroke="midnightblue" d="M1825.06,-112.01C2324.08,-56.38 2455.2,-113.69 2952.5,-76 2955.51,-75.77 2958.58,-75.51 2961.68,-75.23"/>
<polygon fill="midnightblue" stroke="midnightblue" points="1824.63,-108.54 1815.08,-113.14 1825.41,-115.5 1824.63,-108.54"/>
</g>
<!-- Node302 -->
<g id="node41" class="node">
<title>Node302</title>
<g id="a_node41"><a xlink:href="fvm__utils_8_h.html" target="_top" xlink:title=" ">
<polygon fill="white" stroke="red" points="3111,-56.5 3111,-75.5 3184,-75.5 3184,-56.5 3111,-56.5"/>
<text text-anchor="middle" x="3147.5" y="-63.5" font-family="Helvetica,sans-Serif" font-size="10.00">fvm_utils.H</text>
</a>
</g>
</g>
<!-- Node2&#45;&gt;Node302 -->
<g id="edge53" class="edge">
<title>Node2&#45;&gt;Node302</title>
<path fill="none" stroke="midnightblue" d="M1825.12,-112.02C2390.45,-50.25 2540.75,-139.62 3102.5,-76 3105.19,-75.7 3107.96,-75.31 3110.74,-74.88"/>
<polygon fill="midnightblue" stroke="midnightblue" points="1824.63,-108.55 1815.08,-113.12 1825.4,-115.51 1824.63,-108.55"/>
</g>
<!-- Node314 -->
<g id="node42" class="node">
<title>Node314</title>
<g id="a_node42"><a xlink:href="_i_b_8_h.html" target="_top" xlink:title=" ">
<polygon fill="white" stroke="red" points="232,-56.5 232,-75.5 269,-75.5 269,-56.5 232,-56.5"/>
<text text-anchor="middle" x="250.5" y="-63.5" font-family="Helvetica,sans-Serif" font-size="10.00">IB.H</text>
</a>
</g>
</g>
<!-- Node2&#45;&gt;Node314 -->
<g id="edge55" class="edge">
<title>Node2&#45;&gt;Node314</title>
<path fill="none" stroke="midnightblue" d="M1729.74,-121.37C1506.79,-122.8 567.23,-125.71 278.5,-76 275.48,-75.48 272.34,-74.71 269.3,-73.83"/>
<polygon fill="midnightblue" stroke="midnightblue" points="1729.83,-124.87 1739.81,-121.3 1729.78,-117.87 1729.83,-124.87"/>
</g>
<!-- Node315 -->
<g id="node43" class="node">
<title>Node315</title>
<g id="a_node43"><a xlink:href="_ocean_waves_8_h.html" target="_top" xlink:title=" ">
<polygon fill="white" stroke="red" points="825.5,-56.5 825.5,-75.5 915.5,-75.5 915.5,-56.5 825.5,-56.5"/>
<text text-anchor="middle" x="870.5" y="-63.5" font-family="Helvetica,sans-Serif" font-size="10.00">OceanWaves.H</text>
</a>
</g>
</g>
<!-- Node2&#45;&gt;Node315 -->
<g id="edge59" class="edge">
<title>Node2&#45;&gt;Node315</title>
<path fill="none" stroke="midnightblue" d="M1729.43,-120.1C1599.92,-117.33 1232.99,-107.12 929.5,-76 924.96,-75.53 920.25,-74.96 915.54,-74.34"/>
<polygon fill="midnightblue" stroke="midnightblue" points="1729.71,-123.61 1739.78,-120.32 1729.86,-116.61 1729.71,-123.61"/>
</g>
<!-- Node21 -->
<g id="node44" class="node">
<title>Node21</title>
<g id="a_node44"><a xlink:href="waves2amr__ops_8_h.html" target="_top" xlink:title=" ">
<polygon fill="white" stroke="red" points="838,-0.5 838,-19.5 945,-19.5 945,-0.5 838,-0.5"/>
<text text-anchor="middle" x="891.5" y="-7.5" font-family="Helvetica,sans-Serif" font-size="10.00">waves2amr_ops.H</text>
</a>
</g>
</g>
<!-- Node2&#45;&gt;Node21 -->
<g id="edge62" class="edge">
<title>Node2&#45;&gt;Node21</title>
<path fill="none" stroke="midnightblue" d="M1729.95,-119.78C1569.88,-115.47 1056.69,-99.92 986.5,-76 950.94,-63.88 916.37,-34.51 900.52,-19.76"/>
<polygon fill="midnightblue" stroke="midnightblue" points="1729.89,-123.28 1739.98,-120.05 1730.07,-116.28 1729.89,-123.28"/>
</g>
<!-- Node316 -->
<g id="node45" class="node">
<title>Node316</title>
<g id="a_node45"><a xlink:href="hydrostatic__ops_8_h.html" target="_top" xlink:title=" ">
<polygon fill="white" stroke="red" points="3202.5,-56.5 3202.5,-75.5 3306.5,-75.5 3306.5,-56.5 3202.5,-56.5"/>
<text text-anchor="middle" x="3254.5" y="-63.5" font-family="Helvetica,sans-Serif" font-size="10.00">hydrostatic_ops.H</text>
</a>
</g>
</g>
<!-- Node2&#45;&gt;Node316 -->
<g id="edge65" class="edge">
<title>Node2&#45;&gt;Node316</title>
<path fill="none" stroke="midnightblue" d="M1825.37,-111.99C2430.72,-46.22 2590.08,-128.25 3193.5,-76 3196.38,-75.75 3199.33,-75.45 3202.31,-75.12"/>
<polygon fill="midnightblue" stroke="midnightblue" points="1824.64,-108.55 1815.08,-113.12 1825.4,-115.51 1824.64,-108.55"/>
</g>
<!-- Node55 -->
<g id="node46" class="node">
<title>Node55</title>
<g id="a_node46"><a xlink:href="_burggraf_lid_8cpp.html" target="_top" xlink:title=" ">
<polygon fill="white" stroke="black" points="3325,-56.5 3325,-75.5 3418,-75.5 3418,-56.5 3325,-56.5"/>
<text text-anchor="middle" x="3371.5" y="-63.5" font-family="Helvetica,sans-Serif" font-size="10.00">BurggrafLid.cpp</text>
</a>
</g>
</g>
<!-- Node2&#45;&gt;Node55 -->
<g id="edge66" class="edge">
<title>Node2&#45;&gt;Node55</title>
<path fill="none" stroke="midnightblue" d="M1825.31,-112C2484.67,-41.05 2658.37,-136.45 3315.5,-76 3318.54,-75.72 3321.66,-75.38 3324.81,-74.99"/>
<polygon fill="midnightblue" stroke="midnightblue" points="1824.64,-108.55 1815.08,-113.11 1825.4,-115.51 1824.64,-108.55"/>
</g>
<!-- Node56 -->
<g id="node47" class="node">
<title>Node56</title>
<g id="a_node47"><a xlink:href="_custom_scalar_8cpp.html" target="_top" xlink:title=" ">
<polygon fill="white" stroke="black" points="3436.5,-56.5 3436.5,-75.5 3540.5,-75.5 3540.5,-56.5 3436.5,-56.5"/>
<text text-anchor="middle" x="3488.5" y="-63.5" font-family="Helvetica,sans-Serif" font-size="10.00">CustomScalar.cpp</text>
</a>
</g>
</g>
<!-- Node2&#45;&gt;Node56 -->
<g id="edge67" class="edge">
<title>Node2&#45;&gt;Node56</title>
<path fill="none" stroke="midnightblue" d="M1825.02,-112.03C2534.15,-36.19 2720.27,-135.88 3427.5,-76 3430.38,-75.76 3433.33,-75.46 3436.31,-75.14"/>
<polygon fill="midnightblue" stroke="midnightblue" points="1824.64,-108.55 1815.08,-113.11 1825.39,-115.51 1824.64,-108.55"/>
</g>
<!-- Node57 -->
<g id="node48" class="node">
<title>Node57</title>
<g id="a_node48"><a xlink:href="_custom_velocity_8cpp.html" target="_top" xlink:title=" ">
<polygon fill="white" stroke="black" points="3558.5,-56.5 3558.5,-75.5 3670.5,-75.5 3670.5,-56.5 3558.5,-56.5"/>
<text text-anchor="middle" x="3614.5" y="-63.5" font-family="Helvetica,sans-Serif" font-size="10.00">CustomVelocity.cpp</text>
</a>
</g>
</g>
<!-- Node2&#45;&gt;Node57 -->
<g id="edge68" class="edge">
<title>Node2&#45;&gt;Node57</title>
<path fill="none" stroke="midnightblue" d="M1825.21,-112.02C2588.14,-30.97 2787.99,-136.45 3549.5,-76 3552.34,-75.77 3555.24,-75.51 3558.17,-75.21"/>
<polygon fill="midnightblue" stroke="midnightblue" points="1824.65,-108.56 1815.08,-113.1 1825.39,-115.52 1824.65,-108.56"/>
</g>
<!-- Node4&#45;&gt;Node3 -->
<g id="edge4" class="edge">
<title>Node4&#45;&gt;Node3</title>
<path fill="none" stroke="midnightblue" d="M2740.66,-56.1C3120.33,-21.54 3564.78,-13.33 3708.34,-11.49"/>
<polygon fill="midnightblue" stroke="midnightblue" points="2740.22,-52.63 2730.58,-57.03 2740.86,-59.6 2740.22,-52.63"/>
</g>
<!-- Node6&#45;&gt;Node3 -->
<g id="edge6" class="edge">
<title>Node6&#45;&gt;Node3</title>
<path fill="none" stroke="midnightblue" d="M3755.5,-45.8C3755.5,-36.91 3755.5,-26.78 3755.5,-19.75"/>
<polygon fill="midnightblue" stroke="midnightblue" points="3752,-46.08 3755.5,-56.08 3759,-46.08 3752,-46.08"/>
</g>
<!-- Node25&#45;&gt;Node77 -->
<g id="edge10" class="edge">
<title>Node25&#45;&gt;Node77</title>
<path fill="none" stroke="midnightblue" d="M554.83,-59.03C477.62,-48.47 318.13,-26.67 243.56,-16.48"/>
<polygon fill="midnightblue" stroke="midnightblue" points="554.78,-62.56 565.16,-60.44 555.73,-55.62 554.78,-62.56"/>
</g>
<!-- Node25&#45;&gt;Node92 -->
<g id="edge11" class="edge">
<title>Node25&#45;&gt;Node92</title>
<path fill="none" stroke="midnightblue" d="M570.84,-52.23C548.95,-42.13 519,-28.31 499.95,-19.52"/>
<polygon fill="midnightblue" stroke="midnightblue" points="569.41,-55.43 579.96,-56.44 572.35,-49.08 569.41,-55.43"/>
</g>
<!-- Node25&#45;&gt;Node103 -->
<g id="edge12" class="edge">
<title>Node25&#45;&gt;Node103</title>
<path fill="none" stroke="midnightblue" d="M583.47,-48.43C574.88,-38.97 564.46,-27.48 557.44,-19.75"/>
<polygon fill="midnightblue" stroke="midnightblue" points="581.1,-51.03 590.41,-56.08 586.28,-46.33 581.1,-51.03"/>
</g>
<!-- Node25&#45;&gt;Node133 -->
<g id="edge13" class="edge">
<title>Node25&#45;&gt;Node133</title>
<path fill="none" stroke="midnightblue" d="M635.54,-53.3C667.76,-43.13 713.69,-28.62 742.53,-19.52"/>
<polygon fill="midnightblue" stroke="midnightblue" points="634.08,-50.09 625.6,-56.44 636.19,-56.77 634.08,-50.09"/>
</g>
<!-- Node25&#45;&gt;Node144 -->
<g id="edge14" class="edge">
<title>Node25&#45;&gt;Node144</title>
<path fill="none" stroke="midnightblue" d="M613.53,-48.43C622.12,-38.97 632.54,-27.48 639.56,-19.75"/>
<polygon fill="midnightblue" stroke="midnightblue" points="610.72,-46.33 606.59,-56.08 615.9,-51.03 610.72,-46.33"/>
</g>
<!-- Node275&#45;&gt;Node188 -->
<g id="edge25" class="edge">
<title>Node275&#45;&gt;Node188</title>
<path fill="none" stroke="midnightblue" d="M1910.24,-60.13C1765.02,-49.77 1427.21,-25.67 1285.68,-15.58"/>
<polygon fill="midnightblue" stroke="midnightblue" points="1910.13,-63.63 1920.36,-60.85 1910.63,-56.65 1910.13,-63.63"/>
</g>
<!-- Node275&#45;&gt;Node203 -->
<g id="edge26" class="edge">
<title>Node275&#45;&gt;Node203</title>
<path fill="none" stroke="midnightblue" d="M1910.23,-55.87C1834.19,-45.71 1712.24,-29.41 1638.13,-19.5"/>
<polygon fill="midnightblue" stroke="midnightblue" points="1909.81,-59.35 1920.19,-57.21 1910.74,-52.41 1909.81,-59.35"/>
</g>
<!-- Node275&#45;&gt;Node279 -->
<g id="edge27" class="edge">
<title>Node275&#45;&gt;Node279</title>
<path fill="none" stroke="midnightblue" d="M1928.19,-54.35C1880,-44.14 1808.22,-28.94 1763.72,-19.52"/>
<polygon fill="midnightblue" stroke="midnightblue" points="1927.59,-57.8 1938.09,-56.44 1929.04,-50.95 1927.59,-57.8"/>
</g>
<!-- Node275&#45;&gt;Node281 -->
<g id="edge28" class="edge">
<title>Node275&#45;&gt;Node281</title>
<path fill="none" stroke="midnightblue" d="M1949.73,-52.37C1926.69,-42.26 1895.02,-28.35 1874.9,-19.52"/>
<polygon fill="midnightblue" stroke="midnightblue" points="1948.45,-55.63 1959.01,-56.44 1951.26,-49.22 1948.45,-55.63"/>
</g>
<!-- Node275&#45;&gt;Node282 -->
<g id="edge29" class="edge">
<title>Node275&#45;&gt;Node282</title>
<path fill="none" stroke="midnightblue" d="M1978.5,-45.8C1978.5,-36.91 1978.5,-26.78 1978.5,-19.75"/>
<polygon fill="midnightblue" stroke="midnightblue" points="1975,-46.08 1978.5,-56.08 1982,-46.08 1975,-46.08"/>
</g>
<!-- Node275&#45;&gt;Node284 -->
<g id="edge30" class="edge">
<title>Node275&#45;&gt;Node284</title>
<path fill="none" stroke="midnightblue" d="M2007.27,-52.37C2030.31,-42.26 2061.98,-28.35 2082.1,-19.52"/>
<polygon fill="midnightblue" stroke="midnightblue" points="2005.74,-49.22 1997.99,-56.44 2008.55,-55.63 2005.74,-49.22"/>
</g>
<!-- Node275&#45;&gt;Node189 -->
<g id="edge31" class="edge">
<title>Node275&#45;&gt;Node189</title>
<path fill="none" stroke="midnightblue" d="M2027.13,-54.28C2073.43,-44.08 2142.19,-28.92 2184.86,-19.52"/>
<polygon fill="midnightblue" stroke="midnightblue" points="2026.33,-50.87 2017.32,-56.44 2027.84,-57.71 2026.33,-50.87"/>
</g>
<!-- Node275&#45;&gt;Node288 -->
<g id="edge32" class="edge">
<title>Node275&#45;&gt;Node288</title>
<path fill="none" stroke="midnightblue" d="M2046.81,-55.59C2109.48,-46.82 2204.84,-33.17 2287.5,-20 2290.4,-19.54 2293.38,-19.05 2296.38,-18.55"/>
<polygon fill="midnightblue" stroke="midnightblue" points="2046.08,-52.15 2036.66,-57 2047.05,-59.09 2046.08,-52.15"/>
</g>
<!-- Node289&#45;&gt;Node77 -->
<g id="edge42" class="edge">
<title>Node289&#45;&gt;Node77</title>
<path fill="none" stroke="midnightblue" d="M152.81,-50.1C165.41,-40.38 181.43,-28.03 192.05,-19.83"/>
<polygon fill="midnightblue" stroke="midnightblue" points="150.53,-47.44 144.75,-56.32 154.8,-52.99 150.53,-47.44"/>
</g>
<!-- Node293&#45;&gt;Node204 -->
<g id="edge48" class="edge">
<title>Node293&#45;&gt;Node204</title>
<path fill="none" stroke="midnightblue" d="M2493.44,-47.86C2486.86,-38.5 2478.99,-27.33 2473.66,-19.75"/>
<polygon fill="midnightblue" stroke="midnightblue" points="2490.61,-49.92 2499.23,-56.08 2496.33,-45.89 2490.61,-49.92"/>
</g>
<!-- Node293&#45;&gt;Node190 -->
<g id="edge49" class="edge">
<title>Node293&#45;&gt;Node190</title>
<path fill="none" stroke="midnightblue" d="M2532.98,-52.1C2554.47,-42.01 2583.72,-28.27 2602.36,-19.52"/>
<polygon fill="midnightblue" stroke="midnightblue" points="2531.29,-49.02 2523.72,-56.44 2534.26,-55.36 2531.29,-49.02"/>
</g>
<!-- Node314&#45;&gt;Node92 -->
<g id="edge56" class="edge">
<title>Node314&#45;&gt;Node92</title>
<path fill="none" stroke="midnightblue" d="M279.05,-56.06C349.63,-37.19 421.56,-22.57 457.88,-15.49"/>
<polygon fill="midnightblue" stroke="midnightblue" points="277.84,-52.76 269.1,-58.75 279.67,-59.52 277.84,-52.76"/>
</g>
<!-- Node315&#45;&gt;Node133 -->
<g id="edge60" class="edge">
<title>Node315&#45;&gt;Node133</title>
<path fill="none" stroke="midnightblue" d="M845.42,-51.59C826.74,-41.61 801.8,-28.27 785.69,-19.65"/>
<polygon fill="midnightblue" stroke="midnightblue" points="843.8,-54.7 854.27,-56.32 847.1,-48.52 843.8,-54.7"/>
</g>
<!-- Node315&#45;&gt;Node21 -->
<g id="edge61" class="edge">
<title>Node315&#45;&gt;Node21</title>
<path fill="none" stroke="midnightblue" d="M877.62,-46.69C881.16,-37.59 885.27,-27.01 888.1,-19.75"/>
<polygon fill="midnightblue" stroke="midnightblue" points="874.33,-45.49 873.97,-56.08 880.85,-48.03 874.33,-45.49"/>
</g>
<!-- Node326&#45;&gt;Node133 -->
<g id="edge72" class="edge">
<title>Node326&#45;&gt;Node133</title>
<path fill="none" stroke="midnightblue" d="M741.52,-47.86C748.62,-38.5 757.1,-27.33 762.86,-19.75"/>
<polygon fill="midnightblue" stroke="midnightblue" points="738.53,-46 735.27,-56.08 744.11,-50.24 738.53,-46"/>
</g>
<!-- Node326&#45;&gt;Node21 -->
<g id="edge73" class="edge">
<title>Node326&#45;&gt;Node21</title>
<path fill="none" stroke="midnightblue" d="M764.2,-53.17C794.9,-43 838.42,-28.59 865.79,-19.52"/>
<polygon fill="midnightblue" stroke="midnightblue" points="762.72,-49.98 754.33,-56.44 764.92,-56.62 762.72,-49.98"/>
</g>
</g>
</svg>
