<?xml version="1.0" encoding="UTF-8" standalone="no"?>
<!DOCTYPE svg PUBLIC "-//W3C//DTD SVG 1.1//EN"
 "http://www.w3.org/Graphics/SVG/1.1/DTD/svg11.dtd">
<!-- Generated by graphviz version 2.43.0 (0)
 -->
<!-- Title: MLMGOptions.H Pages: 1 -->
<svg width="2826pt" height="319pt"
 viewBox="0.00 0.00 2825.50 319.00" xmlns="http://www.w3.org/2000/svg" xmlns:xlink="http://www.w3.org/1999/xlink">
<g id="graph0" class="graph" transform="scale(1 1) rotate(0) translate(4 315)">
<title>MLMGOptions.H</title>
<polygon fill="white" stroke="transparent" points="-4,4 -4,-315 2821.5,-315 2821.5,4 -4,4"/>
<!-- Node1 -->
<g id="node1" class="node">
<title>Node1</title>
<g id="a_node1"><a xlink:title=" ">
<polygon fill="#bfbfbf" stroke="black" points="2522.5,-291.5 2522.5,-310.5 2617.5,-310.5 2617.5,-291.5 2522.5,-291.5"/>
<text text-anchor="middle" x="2570" y="-298.5" font-family="Helvetica,sans-Serif" font-size="10.00">MLMGOptions.H</text>
</a>
</g>
</g>
<!-- Node2 -->
<g id="node2" class="node">
<title>Node2</title>
<g id="a_node2"><a xlink:href="_m_l_m_g_options_8cpp.html" target="_top" xlink:title=" ">
<polygon fill="white" stroke="black" points="2308.5,-230 2308.5,-249 2413.5,-249 2413.5,-230 2308.5,-230"/>
<text text-anchor="middle" x="2361" y="-237" font-family="Helvetica,sans-Serif" font-size="10.00">MLMGOptions.cpp</text>
</a>
</g>
</g>
<!-- Node1&#45;&gt;Node2 -->
<g id="edge1" class="edge">
<title>Node1&#45;&gt;Node2</title>
<path fill="none" stroke="midnightblue" d="M2530.22,-288.68C2489.61,-277.11 2427.49,-259.43 2390.89,-249.01"/>
<polygon fill="midnightblue" stroke="midnightblue" points="2529.48,-292.1 2540.06,-291.48 2531.4,-285.37 2529.48,-292.1"/>
</g>
<!-- Node3 -->
<g id="node3" class="node">
<title>Node3</title>
<g id="a_node3"><a xlink:href="_diffusion_ops_8_h.html" target="_top" xlink:title=" ">
<polygon fill="white" stroke="black" points="2431.5,-230 2431.5,-249 2520.5,-249 2520.5,-230 2431.5,-230"/>
<text text-anchor="middle" x="2476" y="-237" font-family="Helvetica,sans-Serif" font-size="10.00">DiffusionOps.H</text>
</a>
</g>
</g>
<!-- Node1&#45;&gt;Node3 -->
<g id="edge2" class="edge">
<title>Node1&#45;&gt;Node3</title>
<path fill="none" stroke="midnightblue" d="M2547.77,-285.93C2529.65,-274.46 2504.65,-258.63 2489.44,-249.01"/>
<polygon fill="midnightblue" stroke="midnightblue" points="2546.21,-289.08 2556.53,-291.48 2549.95,-283.17 2546.21,-289.08"/>
</g>
<!-- Node14 -->
<g id="node14" class="node">
<title>Node14</title>
<g id="a_node14"><a xlink:href="icns__advection_8cpp.html" target="_top" xlink:title=" ">
<polygon fill="white" stroke="black" points="2443,-0.5 2443,-19.5 2553,-19.5 2553,-0.5 2443,-0.5"/>
<text text-anchor="middle" x="2498" y="-7.5" font-family="Helvetica,sans-Serif" font-size="10.00">icns_advection.cpp</text>
</a>
</g>
</g>
<!-- Node1&#45;&gt;Node14 -->
<g id="edge62" class="edge">
<title>Node1&#45;&gt;Node14</title>
<path fill="none" stroke="midnightblue" d="M2570,-281.44C2570,-257.69 2570,-215.29 2570,-179 2570,-179 2570,-179 2570,-121 2570,-90.9 2567.38,-81.25 2551,-56 2541.01,-40.61 2524.2,-27.63 2512.19,-19.63"/>
<polygon fill="midnightblue" stroke="midnightblue" points="2566.5,-281.49 2570,-291.49 2573.5,-281.49 2566.5,-281.49"/>
</g>
<!-- Node45 -->
<g id="node45" class="node">
<title>Node45</title>
<g id="a_node45"><a xlink:href="_overset_ops_8cpp.html" target="_top" xlink:title=" ">
<polygon fill="white" stroke="black" points="2598,-230 2598,-249 2692,-249 2692,-230 2598,-230"/>
<text text-anchor="middle" x="2645" y="-237" font-family="Helvetica,sans-Serif" font-size="10.00">OversetOps.cpp</text>
</a>
</g>
</g>
<!-- Node1&#45;&gt;Node45 -->
<g id="edge63" class="edge">
<title>Node1&#45;&gt;Node45</title>
<path fill="none" stroke="midnightblue" d="M2588.94,-284.97C2603.29,-273.59 2622.48,-258.37 2634.27,-249.01"/>
<polygon fill="midnightblue" stroke="midnightblue" points="2586.4,-282.52 2580.75,-291.48 2590.76,-288 2586.4,-282.52"/>
</g>
<!-- Node46 -->
<g id="node46" class="node">
<title>Node46</title>
<g id="a_node46"><a xlink:href="incflo__apply__nodal__projection_8cpp.html" target="_top" xlink:title=" ">
<polygon fill="white" stroke="black" points="2710.5,-224.5 2710.5,-254.5 2817.5,-254.5 2817.5,-224.5 2710.5,-224.5"/>
<text text-anchor="start" x="2718.5" y="-242.5" font-family="Helvetica,sans-Serif" font-size="10.00">incflo_apply_nodal</text>
<text text-anchor="middle" x="2764" y="-231.5" font-family="Helvetica,sans-Serif" font-size="10.00">_projection.cpp</text>
</a>
</g>
</g>
<!-- Node1&#45;&gt;Node46 -->
<g id="edge64" class="edge">
<title>Node1&#45;&gt;Node46</title>
<path fill="none" stroke="midnightblue" d="M2607.55,-288.48C2639.18,-278.78 2684.54,-264.87 2718.28,-254.52"/>
<polygon fill="midnightblue" stroke="midnightblue" points="2606.33,-285.2 2597.8,-291.48 2608.38,-291.89 2606.33,-285.2"/>
</g>
<!-- Node4 -->
<g id="node4" class="node">
<title>Node4</title>
<g id="a_node4"><a xlink:href="_diffusion_ops_8cpp.html" target="_top" xlink:title=" ">
<polygon fill="white" stroke="black" points="2404.5,-168.5 2404.5,-187.5 2503.5,-187.5 2503.5,-168.5 2404.5,-168.5"/>
<text text-anchor="middle" x="2454" y="-175.5" font-family="Helvetica,sans-Serif" font-size="10.00">DiffusionOps.cpp</text>
</a>
</g>
</g>
<!-- Node3&#45;&gt;Node4 -->
<g id="edge3" class="edge">
<title>Node3&#45;&gt;Node4</title>
<path fill="none" stroke="midnightblue" d="M2469.34,-220.5C2465.3,-209.55 2460.31,-196.07 2457.15,-187.51"/>
<polygon fill="midnightblue" stroke="midnightblue" points="2466.1,-221.81 2472.85,-229.98 2472.66,-219.38 2466.1,-221.81"/>
</g>
<!-- Node5 -->
<g id="node5" class="node">
<title>Node5</title>
<g id="a_node5"><a xlink:href="icns__diffusion_8_h.html" target="_top" xlink:title=" ">
<polygon fill="white" stroke="black" points="2448,-56.5 2448,-75.5 2542,-75.5 2542,-56.5 2448,-56.5"/>
<text text-anchor="middle" x="2495" y="-63.5" font-family="Helvetica,sans-Serif" font-size="10.00">icns_diffusion.H</text>
</a>
</g>
</g>
<!-- Node3&#45;&gt;Node5 -->
<g id="edge4" class="edge">
<title>Node3&#45;&gt;Node5</title>
<path fill="none" stroke="midnightblue" d="M2492.02,-222.29C2499.99,-213.06 2508.81,-200.81 2513,-188 2526.27,-147.43 2507.61,-95.97 2498.97,-75.74"/>
<polygon fill="midnightblue" stroke="midnightblue" points="2489.27,-220.11 2485.09,-229.84 2494.43,-224.84 2489.27,-220.11"/>
</g>
<!-- Node7 -->
<g id="node7" class="node">
<title>Node7</title>
<g id="a_node7"><a xlink:href="icns__ops_8_h.html" target="_top" xlink:title=" ">
<polygon fill="white" stroke="black" points="2360.5,-56.5 2360.5,-75.5 2429.5,-75.5 2429.5,-56.5 2360.5,-56.5"/>
<text text-anchor="middle" x="2395" y="-63.5" font-family="Helvetica,sans-Serif" font-size="10.00">icns_ops.H</text>
</a>
</g>
</g>
<!-- Node3&#45;&gt;Node7 -->
<g id="edge6" class="edge">
<title>Node3&#45;&gt;Node7</title>
<path fill="none" stroke="midnightblue" d="M2440.87,-225.71C2424.13,-217.64 2405.68,-205.39 2396,-188 2375.26,-150.74 2386.78,-96.49 2392.44,-75.62"/>
<polygon fill="midnightblue" stroke="midnightblue" points="2439.9,-229.11 2450.46,-229.99 2442.75,-222.71 2439.9,-229.11"/>
</g>
<!-- Node8 -->
<g id="node8" class="node">
<title>Node8</title>
<g id="a_node8"><a xlink:href="_p_d_e_8_h.html" target="_top" xlink:title=" ">
<polygon fill="white" stroke="black" points="1088.5,-168.5 1088.5,-187.5 1135.5,-187.5 1135.5,-168.5 1088.5,-168.5"/>
<text text-anchor="middle" x="1112" y="-175.5" font-family="Helvetica,sans-Serif" font-size="10.00">PDE.H</text>
</a>
</g>
</g>
<!-- Node3&#45;&gt;Node8 -->
<g id="edge8" class="edge">
<title>Node3&#45;&gt;Node8</title>
<path fill="none" stroke="midnightblue" d="M2439.78,-227.39C2434.21,-226.03 2428.48,-224.83 2423,-224 2160.83,-184.19 1290.79,-179.57 1135.74,-179.06"/>
<polygon fill="midnightblue" stroke="midnightblue" points="2439.01,-230.81 2449.57,-229.97 2440.79,-224.04 2439.01,-230.81"/>
</g>
<!-- Node6 -->
<g id="node6" class="node">
<title>Node6</title>
<g id="a_node6"><a xlink:href="icns_8cpp.html" target="_top" xlink:title=" ">
<polygon fill="white" stroke="black" points="2264,-0.5 2264,-19.5 2320,-19.5 2320,-0.5 2264,-0.5"/>
<text text-anchor="middle" x="2292" y="-7.5" font-family="Helvetica,sans-Serif" font-size="10.00">icns.cpp</text>
</a>
</g>
</g>
<!-- Node5&#45;&gt;Node6 -->
<g id="edge5" class="edge">
<title>Node5&#45;&gt;Node6</title>
<path fill="none" stroke="midnightblue" d="M2453.15,-53.87C2413.34,-43.28 2354.57,-27.64 2320.09,-18.47"/>
<polygon fill="midnightblue" stroke="midnightblue" points="2452.27,-57.26 2462.83,-56.44 2454.07,-50.49 2452.27,-57.26"/>
</g>
<!-- Node7&#45;&gt;Node6 -->
<g id="edge7" class="edge">
<title>Node7&#45;&gt;Node6</title>
<path fill="none" stroke="midnightblue" d="M2369.42,-51.59C2350.38,-41.61 2324.94,-28.27 2308.51,-19.65"/>
<polygon fill="midnightblue" stroke="midnightblue" points="2367.97,-54.78 2378.45,-56.32 2371.22,-48.58 2367.97,-54.78"/>
</g>
<!-- Node9 -->
<g id="node9" class="node">
<title>Node9</title>
<g id="a_node9"><a xlink:href="density_8_h.html" target="_top" xlink:title=" ">
<polygon fill="white" stroke="black" points="2610,-112.5 2610,-131.5 2672,-131.5 2672,-112.5 2610,-112.5"/>
<text text-anchor="middle" x="2641" y="-119.5" font-family="Helvetica,sans-Serif" font-size="10.00">density.H</text>
</a>
</g>
</g>
<!-- Node8&#45;&gt;Node9 -->
<g id="edge9" class="edge">
<title>Node8&#45;&gt;Node9</title>
<path fill="none" stroke="midnightblue" d="M1145.82,-175.81C1349.73,-168.6 2413.1,-131.05 2609.72,-124.1"/>
<polygon fill="midnightblue" stroke="midnightblue" points="1145.58,-172.31 1135.71,-176.16 1145.83,-179.31 1145.58,-172.31"/>
</g>
<!-- Node12 -->
<g id="node12" class="node">
<title>Node12</title>
<g id="a_node12"><a xlink:href="icns_8_h.html" target="_top" xlink:title=" ">
<polygon fill="white" stroke="black" points="1921.5,-112.5 1921.5,-131.5 1968.5,-131.5 1968.5,-112.5 1921.5,-112.5"/>
<text text-anchor="middle" x="1945" y="-119.5" font-family="Helvetica,sans-Serif" font-size="10.00">icns.H</text>
</a>
</g>
</g>
<!-- Node8&#45;&gt;Node12 -->
<g id="edge13" class="edge">
<title>Node8&#45;&gt;Node12</title>
<path fill="none" stroke="midnightblue" d="M1145.98,-174.8C1284.34,-165.83 1803.62,-132.17 1921.22,-124.54"/>
<polygon fill="midnightblue" stroke="midnightblue" points="1145.34,-171.33 1135.59,-175.47 1145.79,-178.32 1145.34,-171.33"/>
</g>
<!-- Node22 -->
<g id="node22" class="node">
<title>Node22</title>
<g id="a_node22"><a xlink:href="levelset_8_h.html" target="_top" xlink:title=" ">
<polygon fill="white" stroke="black" points="41,-112.5 41,-131.5 107,-131.5 107,-112.5 41,-112.5"/>
<text text-anchor="middle" x="74" y="-119.5" font-family="Helvetica,sans-Serif" font-size="10.00">levelset.H</text>
</a>
</g>
</g>
<!-- Node8&#45;&gt;Node22 -->
<g id="edge28" class="edge">
<title>Node8&#45;&gt;Node22</title>
<path fill="none" stroke="midnightblue" d="M1078.41,-175.71C958.04,-171.01 537,-153.92 190,-132 162.08,-130.24 130.42,-127.75 107.23,-125.83"/>
<polygon fill="midnightblue" stroke="midnightblue" points="1078.35,-179.21 1088.48,-176.1 1078.62,-172.21 1078.35,-179.21"/>
</g>
<!-- Node25 -->
<g id="node25" class="node">
<title>Node25</title>
<g id="a_node25"><a xlink:href="passive__scalar_8_h.html" target="_top" xlink:title=" ">
<polygon fill="white" stroke="black" points="199,-112.5 199,-131.5 297,-131.5 297,-112.5 199,-112.5"/>
<text text-anchor="middle" x="248" y="-119.5" font-family="Helvetica,sans-Serif" font-size="10.00">passive_scalar.H</text>
</a>
</g>
</g>
<!-- Node8&#45;&gt;Node25 -->
<g id="edge32" class="edge">
<title>Node8&#45;&gt;Node25</title>
<path fill="none" stroke="midnightblue" d="M1078.12,-174.99C974.03,-168.79 649.69,-149.36 381,-132 353.29,-130.21 322.33,-128.12 297.26,-126.41"/>
<polygon fill="midnightblue" stroke="midnightblue" points="1078.14,-178.5 1088.33,-175.6 1078.56,-171.51 1078.14,-178.5"/>
</g>
<!-- Node27 -->
<g id="node27" class="node">
<title>Node27</title>
<g id="a_node27"><a xlink:href="_s_d_r_8_h.html" target="_top" xlink:title=" ">
<polygon fill="white" stroke="black" points="390.5,-112.5 390.5,-131.5 437.5,-131.5 437.5,-112.5 390.5,-112.5"/>
<text text-anchor="middle" x="414" y="-119.5" font-family="Helvetica,sans-Serif" font-size="10.00">SDR.H</text>
</a>
</g>
</g>
<!-- Node8&#45;&gt;Node27 -->
<g id="edge34" class="edge">
<title>Node8&#45;&gt;Node27</title>
<path fill="none" stroke="midnightblue" d="M1078.16,-174.38C956.24,-164.95 541.28,-132.85 437.62,-124.83"/>
<polygon fill="midnightblue" stroke="midnightblue" points="1078.14,-177.89 1088.38,-175.17 1078.68,-170.91 1078.14,-177.89"/>
</g>
<!-- Node33 -->
<g id="node33" class="node">
<title>Node33</title>
<g id="a_node33"><a xlink:href="temperature_8_h.html" target="_top" xlink:title=" ">
<polygon fill="white" stroke="black" points="1228,-112.5 1228,-131.5 1316,-131.5 1316,-112.5 1228,-112.5"/>
<text text-anchor="middle" x="1272" y="-119.5" font-family="Helvetica,sans-Serif" font-size="10.00">temperature.H</text>
</a>
</g>
</g>
<!-- Node8&#45;&gt;Node33 -->
<g id="edge43" class="edge">
<title>Node8&#45;&gt;Node33</title>
<path fill="none" stroke="midnightblue" d="M1145.28,-165.77C1175.46,-155.58 1219.3,-140.78 1246.71,-131.54"/>
<polygon fill="midnightblue" stroke="midnightblue" points="1143.96,-162.52 1135.61,-169.03 1146.2,-169.15 1143.96,-162.52"/>
</g>
<!-- Node35 -->
<g id="node35" class="node">
<title>Node35</title>
<g id="a_node35"><a xlink:href="_t_k_e_8_h.html" target="_top" xlink:title=" ">
<polygon fill="white" stroke="black" points="669,-112.5 669,-131.5 715,-131.5 715,-112.5 669,-112.5"/>
<text text-anchor="middle" x="692" y="-119.5" font-family="Helvetica,sans-Serif" font-size="10.00">TKE.H</text>
</a>
</g>
</g>
<!-- Node8&#45;&gt;Node35 -->
<g id="edge45" class="edge">
<title>Node8&#45;&gt;Node35</title>
<path fill="none" stroke="midnightblue" d="M1078.1,-172.64C995.4,-162.01 784.97,-134.95 715.01,-125.96"/>
<polygon fill="midnightblue" stroke="midnightblue" points="1077.85,-176.14 1088.22,-173.94 1078.74,-169.2 1077.85,-176.14"/>
</g>
<!-- Node40 -->
<g id="node40" class="node">
<title>Node40</title>
<g id="a_node40"><a xlink:href="vof_8_h.html" target="_top" xlink:title=" ">
<polygon fill="white" stroke="black" points="1091,-112.5 1091,-131.5 1133,-131.5 1133,-112.5 1091,-112.5"/>
<text text-anchor="middle" x="1112" y="-119.5" font-family="Helvetica,sans-Serif" font-size="10.00">vof.H</text>
</a>
</g>
</g>
<!-- Node8&#45;&gt;Node40 -->
<g id="edge54" class="edge">
<title>Node8&#45;&gt;Node40</title>
<path fill="none" stroke="midnightblue" d="M1112,-157.8C1112,-148.91 1112,-138.78 1112,-131.75"/>
<polygon fill="midnightblue" stroke="midnightblue" points="1108.5,-158.08 1112,-168.08 1115.5,-158.08 1108.5,-158.08"/>
</g>
<!-- Node10 -->
<g id="node10" class="node">
<title>Node10</title>
<g id="a_node10"><a xlink:href="density_8cpp.html" target="_top" xlink:title=" ">
<polygon fill="white" stroke="black" points="2640.5,-0.5 2640.5,-19.5 2711.5,-19.5 2711.5,-0.5 2640.5,-0.5"/>
<text text-anchor="middle" x="2676" y="-7.5" font-family="Helvetica,sans-Serif" font-size="10.00">density.cpp</text>
</a>
</g>
</g>
<!-- Node9&#45;&gt;Node10 -->
<g id="edge10" class="edge">
<title>Node9&#45;&gt;Node10</title>
<path fill="none" stroke="midnightblue" d="M2665.37,-106.73C2675.95,-99.09 2687.22,-88.64 2693,-76 2701.73,-56.9 2689.78,-32.53 2681.91,-19.74"/>
<polygon fill="midnightblue" stroke="midnightblue" points="2663.15,-104 2656.78,-112.47 2667.04,-109.82 2663.15,-104"/>
</g>
<!-- Node11 -->
<g id="node11" class="node">
<title>Node11</title>
<g id="a_node11"><a xlink:href="density__ops_8_h.html" target="_top" xlink:title=" ">
<polygon fill="white" stroke="black" points="2598,-56.5 2598,-75.5 2684,-75.5 2684,-56.5 2598,-56.5"/>
<text text-anchor="middle" x="2641" y="-63.5" font-family="Helvetica,sans-Serif" font-size="10.00">density_ops.H</text>
</a>
</g>
</g>
<!-- Node9&#45;&gt;Node11 -->
<g id="edge11" class="edge">
<title>Node9&#45;&gt;Node11</title>
<path fill="none" stroke="midnightblue" d="M2641,-101.8C2641,-92.91 2641,-82.78 2641,-75.75"/>
<polygon fill="midnightblue" stroke="midnightblue" points="2637.5,-102.08 2641,-112.08 2644.5,-102.08 2637.5,-102.08"/>
</g>
<!-- Node11&#45;&gt;Node10 -->
<g id="edge12" class="edge">
<title>Node11&#45;&gt;Node10</title>
<path fill="none" stroke="midnightblue" d="M2652.3,-47.57C2658.32,-38.27 2665.47,-27.25 2670.33,-19.75"/>
<polygon fill="midnightblue" stroke="midnightblue" points="2649.28,-45.79 2646.78,-56.08 2655.16,-49.6 2649.28,-45.79"/>
</g>
<!-- Node12&#45;&gt;Node5 -->
<g id="edge20" class="edge">
<title>Node12&#45;&gt;Node5</title>
<path fill="none" stroke="midnightblue" d="M1978.71,-118.73C2058.75,-113.16 2266.46,-97.7 2439,-76 2441.93,-75.63 2444.94,-75.23 2447.98,-74.8"/>
<polygon fill="midnightblue" stroke="midnightblue" points="1978.45,-115.24 1968.71,-119.42 1978.93,-122.22 1978.45,-115.24"/>
</g>
<!-- Node12&#45;&gt;Node6 -->
<g id="edge14" class="edge">
<title>Node12&#45;&gt;Node6</title>
<path fill="none" stroke="midnightblue" d="M1955.04,-103.14C1964.56,-88 1980.32,-67.02 2000,-56 2044.97,-30.8 2199.33,-17.43 2263.58,-12.85"/>
<polygon fill="midnightblue" stroke="midnightblue" points="1951.82,-101.71 1949.71,-112.09 1957.83,-105.3 1951.82,-101.71"/>
</g>
<!-- Node12&#45;&gt;Node7 -->
<g id="edge21" class="edge">
<title>Node12&#45;&gt;Node7</title>
<path fill="none" stroke="midnightblue" d="M1978.89,-118.3C2048.75,-112.5 2213.73,-97.6 2351,-76 2354.08,-75.52 2357.27,-74.96 2360.47,-74.37"/>
<polygon fill="midnightblue" stroke="midnightblue" points="1978.58,-114.81 1968.9,-119.12 1979.15,-121.79 1978.58,-114.81"/>
</g>
<!-- Node13 -->
<g id="node13" class="node">
<title>Node13</title>
<g id="a_node13"><a xlink:href="icns__advection_8_h.html" target="_top" xlink:title=" ">
<polygon fill="white" stroke="black" points="2242,-56.5 2242,-75.5 2342,-75.5 2342,-56.5 2242,-56.5"/>
<text text-anchor="middle" x="2292" y="-63.5" font-family="Helvetica,sans-Serif" font-size="10.00">icns_advection.H</text>
</a>
</g>
</g>
<!-- Node12&#45;&gt;Node13 -->
<g id="edge15" class="edge">
<title>Node12&#45;&gt;Node13</title>
<path fill="none" stroke="midnightblue" d="M1978.48,-115.79C2039.66,-106.27 2169.85,-86.01 2241.72,-74.82"/>
<polygon fill="midnightblue" stroke="midnightblue" points="1977.92,-112.33 1968.58,-117.33 1979,-119.25 1977.92,-112.33"/>
</g>
<!-- Node15 -->
<g id="node15" class="node">
<title>Node15</title>
<g id="a_node15"><a xlink:href="icns__bcop_8_h.html" target="_top" xlink:title=" ">
<polygon fill="white" stroke="black" points="1416.5,-56.5 1416.5,-75.5 1491.5,-75.5 1491.5,-56.5 1416.5,-56.5"/>
<text text-anchor="middle" x="1454" y="-63.5" font-family="Helvetica,sans-Serif" font-size="10.00">icns_bcop.H</text>
</a>
</g>
</g>
<!-- Node12&#45;&gt;Node15 -->
<g id="edge18" class="edge">
<title>Node12&#45;&gt;Node15</title>
<path fill="none" stroke="midnightblue" d="M1911.07,-118.64C1836.46,-113.23 1652.65,-98.6 1500,-76 1497.26,-75.59 1494.44,-75.14 1491.61,-74.65"/>
<polygon fill="midnightblue" stroke="midnightblue" points="1911.04,-122.15 1921.27,-119.38 1911.54,-115.17 1911.04,-122.15"/>
</g>
<!-- Node16 -->
<g id="node16" class="node">
<title>Node16</title>
<g id="a_node16"><a xlink:href="_burggraf_lid_8cpp.html" target="_top" xlink:title=" ">
<polygon fill="white" stroke="black" points="2008.5,-56.5 2008.5,-75.5 2101.5,-75.5 2101.5,-56.5 2008.5,-56.5"/>
<text text-anchor="middle" x="2055" y="-63.5" font-family="Helvetica,sans-Serif" font-size="10.00">BurggrafLid.cpp</text>
</a>
</g>
</g>
<!-- Node12&#45;&gt;Node16 -->
<g id="edge22" class="edge">
<title>Node12&#45;&gt;Node16</title>
<path fill="none" stroke="midnightblue" d="M1971.76,-107.86C1992.16,-97.85 2019.67,-84.35 2037.37,-75.65"/>
<polygon fill="midnightblue" stroke="midnightblue" points="1970.11,-104.78 1962.67,-112.32 1973.19,-111.06 1970.11,-104.78"/>
</g>
<!-- Node17 -->
<g id="node17" class="node">
<title>Node17</title>
<g id="a_node17"><a xlink:href="_custom_scalar_8cpp.html" target="_top" xlink:title=" ">
<polygon fill="white" stroke="black" points="2120,-56.5 2120,-75.5 2224,-75.5 2224,-56.5 2120,-56.5"/>
<text text-anchor="middle" x="2172" y="-63.5" font-family="Helvetica,sans-Serif" font-size="10.00">CustomScalar.cpp</text>
</a>
</g>
</g>
<!-- Node12&#45;&gt;Node17 -->
<g id="edge23" class="edge">
<title>Node12&#45;&gt;Node17</title>
<path fill="none" stroke="midnightblue" d="M1978.67,-112.99C2020.91,-102.94 2093.02,-85.79 2136.23,-75.51"/>
<polygon fill="midnightblue" stroke="midnightblue" points="1977.78,-109.6 1968.86,-115.32 1979.4,-116.41 1977.78,-109.6"/>
</g>
<!-- Node18 -->
<g id="node18" class="node">
<title>Node18</title>
<g id="a_node18"><a xlink:href="_custom_velocity_8cpp.html" target="_top" xlink:title=" ">
<polygon fill="white" stroke="black" points="1509,-56.5 1509,-75.5 1621,-75.5 1621,-56.5 1509,-56.5"/>
<text text-anchor="middle" x="1565" y="-63.5" font-family="Helvetica,sans-Serif" font-size="10.00">CustomVelocity.cpp</text>
</a>
</g>
</g>
<!-- Node12&#45;&gt;Node18 -->
<g id="edge24" class="edge">
<title>Node12&#45;&gt;Node18</title>
<path fill="none" stroke="midnightblue" d="M1911.05,-116.18C1845.57,-106.87 1701.25,-86.36 1621.22,-74.99"/>
<polygon fill="midnightblue" stroke="midnightblue" points="1910.84,-119.68 1921.23,-117.62 1911.82,-112.75 1910.84,-119.68"/>
</g>
<!-- Node19 -->
<g id="node19" class="node">
<title>Node19</title>
<g id="a_node19"><a xlink:href="_power_law_profile_8cpp.html" target="_top" xlink:title=" ">
<polygon fill="white" stroke="black" points="1639.5,-56.5 1639.5,-75.5 1756.5,-75.5 1756.5,-56.5 1639.5,-56.5"/>
<text text-anchor="middle" x="1698" y="-63.5" font-family="Helvetica,sans-Serif" font-size="10.00">PowerLawProfile.cpp</text>
</a>
</g>
</g>
<!-- Node12&#45;&gt;Node19 -->
<g id="edge25" class="edge">
<title>Node12&#45;&gt;Node19</title>
<path fill="none" stroke="midnightblue" d="M1911.37,-113.65C1865.88,-103.7 1784.95,-86.01 1736.9,-75.5"/>
<polygon fill="midnightblue" stroke="midnightblue" points="1910.8,-117.11 1921.32,-115.82 1912.29,-110.27 1910.8,-117.11"/>
</g>
<!-- Node20 -->
<g id="node20" class="node">
<title>Node20</title>
<g id="a_node20"><a xlink:href="_rankine_8cpp.html" target="_top" xlink:title=" ">
<polygon fill="white" stroke="black" points="1774.5,-56.5 1774.5,-75.5 1851.5,-75.5 1851.5,-56.5 1774.5,-56.5"/>
<text text-anchor="middle" x="1813" y="-63.5" font-family="Helvetica,sans-Serif" font-size="10.00">Rankine.cpp</text>
</a>
</g>
</g>
<!-- Node12&#45;&gt;Node20 -->
<g id="edge26" class="edge">
<title>Node12&#45;&gt;Node20</title>
<path fill="none" stroke="midnightblue" d="M1914.78,-108.64C1890.01,-98.5 1855.6,-84.43 1833.82,-75.52"/>
<polygon fill="midnightblue" stroke="midnightblue" points="1913.5,-111.9 1924.08,-112.44 1916.15,-105.42 1913.5,-111.9"/>
</g>
<!-- Node21 -->
<g id="node21" class="node">
<title>Node21</title>
<g id="a_node21"><a xlink:href="_two_layer_8cpp.html" target="_top" xlink:title=" ">
<polygon fill="white" stroke="black" points="1870,-56.5 1870,-75.5 1952,-75.5 1952,-56.5 1870,-56.5"/>
<text text-anchor="middle" x="1911" y="-63.5" font-family="Helvetica,sans-Serif" font-size="10.00">TwoLayer.cpp</text>
</a>
</g>
</g>
<!-- Node12&#45;&gt;Node21 -->
<g id="edge27" class="edge">
<title>Node12&#45;&gt;Node21</title>
<path fill="none" stroke="midnightblue" d="M1934.02,-103.57C1928.17,-94.27 1921.23,-83.25 1916.51,-75.75"/>
<polygon fill="midnightblue" stroke="midnightblue" points="1931.1,-105.49 1939.39,-112.08 1937.02,-101.76 1931.1,-105.49"/>
</g>
<!-- Node13&#45;&gt;Node6 -->
<g id="edge16" class="edge">
<title>Node13&#45;&gt;Node6</title>
<path fill="none" stroke="midnightblue" d="M2292,-45.8C2292,-36.91 2292,-26.78 2292,-19.75"/>
<polygon fill="midnightblue" stroke="midnightblue" points="2288.5,-46.08 2292,-56.08 2295.5,-46.08 2288.5,-46.08"/>
</g>
<!-- Node13&#45;&gt;Node14 -->
<g id="edge17" class="edge">
<title>Node13&#45;&gt;Node14</title>
<path fill="none" stroke="midnightblue" d="M2334.62,-53.83C2373.51,-43.63 2430.16,-28.78 2465.51,-19.52"/>
<polygon fill="midnightblue" stroke="midnightblue" points="2333.43,-50.52 2324.64,-56.44 2335.2,-57.29 2333.43,-50.52"/>
</g>
<!-- Node15&#45;&gt;Node6 -->
<g id="edge19" class="edge">
<title>Node15&#45;&gt;Node6</title>
<path fill="none" stroke="midnightblue" d="M1501.91,-55.93C1805.35,-18.52 2162.24,-12.27 2263.82,-11.21"/>
<polygon fill="midnightblue" stroke="midnightblue" points="1501.08,-52.5 1491.59,-57.21 1501.94,-59.45 1501.08,-52.5"/>
</g>
<!-- Node23 -->
<g id="node23" class="node">
<title>Node23</title>
<g id="a_node23"><a xlink:href="levelset_8cpp.html" target="_top" xlink:title=" ">
<polygon fill="white" stroke="black" points="0,-0.5 0,-19.5 76,-19.5 76,-0.5 0,-0.5"/>
<text text-anchor="middle" x="38" y="-7.5" font-family="Helvetica,sans-Serif" font-size="10.00">levelset.cpp</text>
</a>
</g>
</g>
<!-- Node22&#45;&gt;Node23 -->
<g id="edge29" class="edge">
<title>Node22&#45;&gt;Node23</title>
<path fill="none" stroke="midnightblue" d="M48.82,-107C37.81,-99.4 26.04,-88.91 20,-76 11.06,-56.91 23.59,-32.53 31.82,-19.74"/>
<polygon fill="midnightblue" stroke="midnightblue" points="47.06,-110.03 57.37,-112.46 50.83,-104.13 47.06,-110.03"/>
</g>
<!-- Node24 -->
<g id="node24" class="node">
<title>Node24</title>
<g id="a_node24"><a xlink:href="levelset__ops_8_h.html" target="_top" xlink:title=" ">
<polygon fill="white" stroke="black" points="29.5,-56.5 29.5,-75.5 118.5,-75.5 118.5,-56.5 29.5,-56.5"/>
<text text-anchor="middle" x="74" y="-63.5" font-family="Helvetica,sans-Serif" font-size="10.00">levelset_ops.H</text>
</a>
</g>
</g>
<!-- Node22&#45;&gt;Node24 -->
<g id="edge30" class="edge">
<title>Node22&#45;&gt;Node24</title>
<path fill="none" stroke="midnightblue" d="M74,-101.8C74,-92.91 74,-82.78 74,-75.75"/>
<polygon fill="midnightblue" stroke="midnightblue" points="70.5,-102.08 74,-112.08 77.5,-102.08 70.5,-102.08"/>
</g>
<!-- Node24&#45;&gt;Node23 -->
<g id="edge31" class="edge">
<title>Node24&#45;&gt;Node23</title>
<path fill="none" stroke="midnightblue" d="M62.38,-47.57C56.18,-38.27 48.83,-27.25 43.83,-19.75"/>
<polygon fill="midnightblue" stroke="midnightblue" points="59.6,-49.7 68.06,-56.08 65.42,-45.82 59.6,-49.7"/>
</g>
<!-- Node26 -->
<g id="node26" class="node">
<title>Node26</title>
<g id="a_node26"><a xlink:href="passive__scalar_8cpp.html" target="_top" xlink:title=" ">
<polygon fill="white" stroke="black" points="137,-56.5 137,-75.5 245,-75.5 245,-56.5 137,-56.5"/>
<text text-anchor="middle" x="191" y="-63.5" font-family="Helvetica,sans-Serif" font-size="10.00">passive_scalar.cpp</text>
</a>
</g>
</g>
<!-- Node25&#45;&gt;Node26 -->
<g id="edge33" class="edge">
<title>Node25&#45;&gt;Node26</title>
<path fill="none" stroke="midnightblue" d="M231.38,-105.25C221.27,-95.67 208.72,-83.79 200.32,-75.83"/>
<polygon fill="midnightblue" stroke="midnightblue" points="229.18,-107.99 238.84,-112.32 233.99,-102.91 229.18,-107.99"/>
</g>
<!-- Node28 -->
<g id="node28" class="node">
<title>Node28</title>
<g id="a_node28"><a xlink:href="_s_d_r_8cpp.html" target="_top" xlink:title=" ">
<polygon fill="white" stroke="black" points="279.5,-0.5 279.5,-19.5 336.5,-19.5 336.5,-0.5 279.5,-0.5"/>
<text text-anchor="middle" x="308" y="-7.5" font-family="Helvetica,sans-Serif" font-size="10.00">SDR.cpp</text>
</a>
</g>
</g>
<!-- Node27&#45;&gt;Node28 -->
<g id="edge35" class="edge">
<title>Node27&#45;&gt;Node28</title>
<path fill="none" stroke="midnightblue" d="M398.48,-104.9C375.69,-81.25 333.97,-37.95 316.28,-19.59"/>
<polygon fill="midnightblue" stroke="midnightblue" points="396.22,-107.6 405.68,-112.37 401.26,-102.74 396.22,-107.6"/>
</g>
<!-- Node29 -->
<g id="node29" class="node">
<title>Node29</title>
<g id="a_node29"><a xlink:href="sdr__ops_8_h.html" target="_top" xlink:title=" ">
<polygon fill="white" stroke="black" points="263.5,-56.5 263.5,-75.5 328.5,-75.5 328.5,-56.5 263.5,-56.5"/>
<text text-anchor="middle" x="296" y="-63.5" font-family="Helvetica,sans-Serif" font-size="10.00">sdr_ops.H</text>
</a>
</g>
</g>
<!-- Node27&#45;&gt;Node29 -->
<g id="edge36" class="edge">
<title>Node27&#45;&gt;Node29</title>
<path fill="none" stroke="midnightblue" d="M386.1,-108.23C364.03,-98.13 333.82,-84.31 314.61,-75.52"/>
<polygon fill="midnightblue" stroke="midnightblue" points="384.75,-111.46 395.3,-112.44 387.67,-105.1 384.75,-111.46"/>
</g>
<!-- Node30 -->
<g id="node30" class="node">
<title>Node30</title>
<g id="a_node30"><a xlink:href="_k_omega_s_s_t_8cpp.html" target="_top" xlink:title=" ">
<polygon fill="white" stroke="black" points="368.5,-0.5 368.5,-19.5 463.5,-19.5 463.5,-0.5 368.5,-0.5"/>
<text text-anchor="middle" x="416" y="-7.5" font-family="Helvetica,sans-Serif" font-size="10.00">KOmegaSST.cpp</text>
</a>
</g>
</g>
<!-- Node27&#45;&gt;Node30 -->
<g id="edge38" class="edge">
<title>Node27&#45;&gt;Node30</title>
<path fill="none" stroke="midnightblue" d="M414.34,-102.35C414.78,-78.25 415.52,-37.31 415.84,-19.59"/>
<polygon fill="midnightblue" stroke="midnightblue" points="410.84,-102.31 414.16,-112.37 417.84,-102.43 410.84,-102.31"/>
</g>
<!-- Node31 -->
<g id="node31" class="node">
<title>Node31</title>
<g id="a_node31"><a xlink:href="_k_omega_s_s_t_i_8_h.html" target="_top" xlink:title=" ">
<polygon fill="white" stroke="black" points="499.5,-56.5 499.5,-75.5 588.5,-75.5 588.5,-56.5 499.5,-56.5"/>
<text text-anchor="middle" x="544" y="-63.5" font-family="Helvetica,sans-Serif" font-size="10.00">KOmegaSSTI.H</text>
</a>
</g>
</g>
<!-- Node27&#45;&gt;Node31 -->
<g id="edge39" class="edge">
<title>Node27&#45;&gt;Node31</title>
<path fill="none" stroke="midnightblue" d="M444.09,-108.5C468.46,-98.38 502.14,-84.39 523.5,-75.52"/>
<polygon fill="midnightblue" stroke="midnightblue" points="442.49,-105.38 434.6,-112.44 445.18,-111.84 442.49,-105.38"/>
</g>
<!-- Node32 -->
<g id="node32" class="node">
<title>Node32</title>
<g id="a_node32"><a xlink:href="_k_omega_s_s_t_i_d_d_e_s_8cpp.html" target="_top" xlink:title=" ">
<polygon fill="white" stroke="black" points="482,-0.5 482,-19.5 608,-19.5 608,-0.5 482,-0.5"/>
<text text-anchor="middle" x="545" y="-7.5" font-family="Helvetica,sans-Serif" font-size="10.00">KOmegaSSTIDDES.cpp</text>
</a>
</g>
</g>
<!-- Node27&#45;&gt;Node32 -->
<g id="edge42" class="edge">
<title>Node27&#45;&gt;Node32</title>
<path fill="none" stroke="midnightblue" d="M431.97,-105.44C447.31,-92.2 470,-72.73 490,-56 505.33,-43.18 523.28,-28.56 534.4,-19.56"/>
<polygon fill="midnightblue" stroke="midnightblue" points="429.54,-102.91 424.27,-112.1 434.12,-108.21 429.54,-102.91"/>
</g>
<!-- Node29&#45;&gt;Node28 -->
<g id="edge37" class="edge">
<title>Node29&#45;&gt;Node28</title>
<path fill="none" stroke="midnightblue" d="M300.2,-46.1C302.19,-37.14 304.48,-26.86 306.06,-19.75"/>
<polygon fill="midnightblue" stroke="midnightblue" points="296.73,-45.56 297.98,-56.08 303.57,-47.08 296.73,-45.56"/>
</g>
<!-- Node31&#45;&gt;Node30 -->
<g id="edge40" class="edge">
<title>Node31&#45;&gt;Node30</title>
<path fill="none" stroke="midnightblue" d="M514.38,-52.5C490.38,-42.38 457.22,-28.39 436.19,-19.52"/>
<polygon fill="midnightblue" stroke="midnightblue" points="513.14,-55.78 523.72,-56.44 515.86,-49.33 513.14,-55.78"/>
</g>
<!-- Node31&#45;&gt;Node32 -->
<g id="edge41" class="edge">
<title>Node31&#45;&gt;Node32</title>
<path fill="none" stroke="midnightblue" d="M544.36,-45.8C544.52,-36.91 544.71,-26.78 544.84,-19.75"/>
<polygon fill="midnightblue" stroke="midnightblue" points="540.85,-46.02 544.17,-56.08 547.85,-46.15 540.85,-46.02"/>
</g>
<!-- Node34 -->
<g id="node34" class="node">
<title>Node34</title>
<g id="a_node34"><a xlink:href="temperature_8cpp.html" target="_top" xlink:title=" ">
<polygon fill="white" stroke="black" points="1300,-56.5 1300,-75.5 1398,-75.5 1398,-56.5 1300,-56.5"/>
<text text-anchor="middle" x="1349" y="-63.5" font-family="Helvetica,sans-Serif" font-size="10.00">temperature.cpp</text>
</a>
</g>
</g>
<!-- Node33&#45;&gt;Node34 -->
<g id="edge44" class="edge">
<title>Node33&#45;&gt;Node34</title>
<path fill="none" stroke="midnightblue" d="M1292.9,-106.34C1306.91,-96.52 1324.88,-83.91 1336.66,-75.65"/>
<polygon fill="midnightblue" stroke="midnightblue" points="1290.55,-103.72 1284.37,-112.32 1294.57,-109.45 1290.55,-103.72"/>
</g>
<!-- Node35&#45;&gt;Node30 -->
<g id="edge50" class="edge">
<title>Node35&#45;&gt;Node30</title>
<path fill="none" stroke="midnightblue" d="M658.84,-118.69C617.37,-114.68 545.11,-103.99 490,-76 461.64,-61.6 435.43,-33.81 423.21,-19.69"/>
<polygon fill="midnightblue" stroke="midnightblue" points="658.67,-122.18 668.94,-119.59 659.29,-115.21 658.67,-122.18"/>
</g>
<!-- Node35&#45;&gt;Node31 -->
<g id="edge51" class="edge">
<title>Node35&#45;&gt;Node31</title>
<path fill="none" stroke="midnightblue" d="M659.19,-109.03C631.39,-98.89 592.2,-84.59 567.45,-75.56"/>
<polygon fill="midnightblue" stroke="midnightblue" points="658.28,-112.42 668.88,-112.56 660.68,-105.85 658.28,-112.42"/>
</g>
<!-- Node35&#45;&gt;Node32 -->
<g id="edge52" class="edge">
<title>Node35&#45;&gt;Node32</title>
<path fill="none" stroke="midnightblue" d="M672.11,-106.12C640.91,-82.77 581.44,-38.27 556.48,-19.59"/>
<polygon fill="midnightblue" stroke="midnightblue" points="670.36,-109.18 680.47,-112.37 674.56,-103.57 670.36,-109.18"/>
</g>
<!-- Node36 -->
<g id="node36" class="node">
<title>Node36</title>
<g id="a_node36"><a xlink:href="_t_k_e_8cpp.html" target="_top" xlink:title=" ">
<polygon fill="white" stroke="black" points="761,-0.5 761,-19.5 817,-19.5 817,-0.5 761,-0.5"/>
<text text-anchor="middle" x="789" y="-7.5" font-family="Helvetica,sans-Serif" font-size="10.00">TKE.cpp</text>
</a>
</g>
</g>
<!-- Node35&#45;&gt;Node36 -->
<g id="edge46" class="edge">
<title>Node35&#45;&gt;Node36</title>
<path fill="none" stroke="midnightblue" d="M679.86,-103.66C671.76,-89.77 664.24,-70.3 674,-56 693.34,-27.67 733.43,-17.17 760.77,-13.29"/>
<polygon fill="midnightblue" stroke="midnightblue" points="677.01,-105.72 685.35,-112.26 682.91,-101.95 677.01,-105.72"/>
</g>
<!-- Node37 -->
<g id="node37" class="node">
<title>Node37</title>
<g id="a_node37"><a xlink:href="tke__ops_8_h.html" target="_top" xlink:title=" ">
<polygon fill="white" stroke="black" points="891.5,-56.5 891.5,-75.5 956.5,-75.5 956.5,-56.5 891.5,-56.5"/>
<text text-anchor="middle" x="924" y="-63.5" font-family="Helvetica,sans-Serif" font-size="10.00">tke_ops.H</text>
</a>
</g>
</g>
<!-- Node35&#45;&gt;Node37 -->
<g id="edge47" class="edge">
<title>Node35&#45;&gt;Node37</title>
<path fill="none" stroke="midnightblue" d="M725.05,-113.31C769.32,-103 847.36,-84.84 891.4,-74.59"/>
<polygon fill="midnightblue" stroke="midnightblue" points="724.04,-109.95 715.09,-115.62 725.63,-116.77 724.04,-109.95"/>
</g>
<!-- Node38 -->
<g id="node38" class="node">
<title>Node38</title>
<g id="a_node38"><a xlink:href="_one_eq_ksgs_8cpp.html" target="_top" xlink:title=" ">
<polygon fill="white" stroke="black" points="683,-56.5 683,-75.5 775,-75.5 775,-56.5 683,-56.5"/>
<text text-anchor="middle" x="729" y="-63.5" font-family="Helvetica,sans-Serif" font-size="10.00">OneEqKsgs.cpp</text>
</a>
</g>
</g>
<!-- Node35&#45;&gt;Node38 -->
<g id="edge49" class="edge">
<title>Node35&#45;&gt;Node38</title>
<path fill="none" stroke="midnightblue" d="M703.95,-103.57C710.31,-94.27 717.87,-83.25 723,-75.75"/>
<polygon fill="midnightblue" stroke="midnightblue" points="700.87,-101.86 698.11,-112.08 706.65,-105.81 700.87,-101.86"/>
</g>
<!-- Node39 -->
<g id="node39" class="node">
<title>Node39</title>
<g id="a_node39"><a xlink:href="_a_b_l_stats_8cpp.html" target="_top" xlink:title=" ">
<polygon fill="white" stroke="black" points="793,-56.5 793,-75.5 873,-75.5 873,-56.5 793,-56.5"/>
<text text-anchor="middle" x="833" y="-63.5" font-family="Helvetica,sans-Serif" font-size="10.00">ABLStats.cpp</text>
</a>
</g>
</g>
<!-- Node35&#45;&gt;Node39 -->
<g id="edge53" class="edge">
<title>Node35&#45;&gt;Node39</title>
<path fill="none" stroke="midnightblue" d="M723.93,-108.77C750.41,-98.63 787.39,-84.47 810.76,-75.52"/>
<polygon fill="midnightblue" stroke="midnightblue" points="722.43,-105.6 714.34,-112.44 724.93,-112.14 722.43,-105.6"/>
</g>
<!-- Node37&#45;&gt;Node36 -->
<g id="edge48" class="edge">
<title>Node37&#45;&gt;Node36</title>
<path fill="none" stroke="midnightblue" d="M893.09,-52.64C867.76,-42.5 832.57,-28.43 810.29,-19.52"/>
<polygon fill="midnightblue" stroke="midnightblue" points="892.02,-55.98 902.61,-56.44 894.62,-49.48 892.02,-55.98"/>
</g>
<!-- Node41 -->
<g id="node41" class="node">
<title>Node41</title>
<g id="a_node41"><a xlink:href="vof_8cpp.html" target="_top" xlink:title=" ">
<polygon fill="white" stroke="black" points="1086,-0.5 1086,-19.5 1138,-19.5 1138,-0.5 1086,-0.5"/>
<text text-anchor="middle" x="1112" y="-7.5" font-family="Helvetica,sans-Serif" font-size="10.00">vof.cpp</text>
</a>
</g>
</g>
<!-- Node40&#45;&gt;Node41 -->
<g id="edge55" class="edge">
<title>Node40&#45;&gt;Node41</title>
<path fill="none" stroke="midnightblue" d="M1080.63,-117.31C1055.21,-112.49 1020.93,-101.4 1004,-76 981.66,-42.5 1047.23,-23.58 1085.88,-15.58"/>
<polygon fill="midnightblue" stroke="midnightblue" points="1080.12,-120.78 1090.56,-118.97 1081.27,-113.87 1080.12,-120.78"/>
</g>
<!-- Node42 -->
<g id="node42" class="node">
<title>Node42</title>
<g id="a_node42"><a xlink:href="vof__advection_8_h.html" target="_top" xlink:title=" ">
<polygon fill="white" stroke="black" points="1013,-56.5 1013,-75.5 1109,-75.5 1109,-56.5 1013,-56.5"/>
<text text-anchor="middle" x="1061" y="-63.5" font-family="Helvetica,sans-Serif" font-size="10.00">vof_advection.H</text>
</a>
</g>
</g>
<!-- Node40&#45;&gt;Node42 -->
<g id="edge56" class="edge">
<title>Node40&#45;&gt;Node42</title>
<path fill="none" stroke="midnightblue" d="M1096.62,-104.72C1087.63,-95.2 1076.64,-83.56 1069.26,-75.75"/>
<polygon fill="midnightblue" stroke="midnightblue" points="1094.17,-107.22 1103.58,-112.08 1099.26,-102.41 1094.17,-107.22"/>
</g>
<!-- Node43 -->
<g id="node43" class="node">
<title>Node43</title>
<g id="a_node43"><a xlink:href="vof__bcop_8_h.html" target="_top" xlink:title=" ">
<polygon fill="white" stroke="black" points="1127.5,-56.5 1127.5,-75.5 1198.5,-75.5 1198.5,-56.5 1127.5,-56.5"/>
<text text-anchor="middle" x="1163" y="-63.5" font-family="Helvetica,sans-Serif" font-size="10.00">vof_bcop.H</text>
</a>
</g>
</g>
<!-- Node40&#45;&gt;Node43 -->
<g id="edge58" class="edge">
<title>Node40&#45;&gt;Node43</title>
<path fill="none" stroke="midnightblue" d="M1127.38,-104.72C1136.37,-95.2 1147.36,-83.56 1154.74,-75.75"/>
<polygon fill="midnightblue" stroke="midnightblue" points="1124.74,-102.41 1120.42,-112.08 1129.83,-107.22 1124.74,-102.41"/>
</g>
<!-- Node44 -->
<g id="node44" class="node">
<title>Node44</title>
<g id="a_node44"><a xlink:href="vof__ops_8_h.html" target="_top" xlink:title=" ">
<polygon fill="white" stroke="black" points="1216.5,-56.5 1216.5,-75.5 1281.5,-75.5 1281.5,-56.5 1216.5,-56.5"/>
<text text-anchor="middle" x="1249" y="-63.5" font-family="Helvetica,sans-Serif" font-size="10.00">vof_ops.H</text>
</a>
</g>
</g>
<!-- Node40&#45;&gt;Node44 -->
<g id="edge60" class="edge">
<title>Node40&#45;&gt;Node44</title>
<path fill="none" stroke="midnightblue" d="M1142.73,-108.89C1168.41,-98.77 1204.39,-84.59 1227.19,-75.6"/>
<polygon fill="midnightblue" stroke="midnightblue" points="1141.13,-105.76 1133.11,-112.68 1143.69,-112.27 1141.13,-105.76"/>
</g>
<!-- Node42&#45;&gt;Node41 -->
<g id="edge57" class="edge">
<title>Node42&#45;&gt;Node41</title>
<path fill="none" stroke="midnightblue" d="M1076.38,-48.72C1085.37,-39.2 1096.36,-27.56 1103.74,-19.75"/>
<polygon fill="midnightblue" stroke="midnightblue" points="1073.74,-46.41 1069.42,-56.08 1078.83,-51.22 1073.74,-46.41"/>
</g>
<!-- Node43&#45;&gt;Node41 -->
<g id="edge59" class="edge">
<title>Node43&#45;&gt;Node41</title>
<path fill="none" stroke="midnightblue" d="M1147.62,-48.72C1138.63,-39.2 1127.64,-27.56 1120.26,-19.75"/>
<polygon fill="midnightblue" stroke="midnightblue" points="1145.17,-51.22 1154.58,-56.08 1150.26,-46.41 1145.17,-51.22"/>
</g>
<!-- Node44&#45;&gt;Node41 -->
<g id="edge61" class="edge">
<title>Node44&#45;&gt;Node41</title>
<path fill="none" stroke="midnightblue" d="M1217.98,-52.77C1192.24,-42.63 1156.31,-28.47 1133.61,-19.52"/>
<polygon fill="midnightblue" stroke="midnightblue" points="1216.71,-56.03 1227.29,-56.44 1219.27,-49.52 1216.71,-56.03"/>
</g>
</g>
</svg>
