<?xml version="1.0" encoding="UTF-8" standalone="no"?>
<!DOCTYPE svg PUBLIC "-//W3C//DTD SVG 1.1//EN"
 "http://www.w3.org/Graphics/SVG/1.1/DTD/svg11.dtd">
<!-- Generated by graphviz version 2.43.0 (0)
 -->
<!-- Title: MomentumSource.H Pages: 1 -->
<svg width="3503pt" height="196pt"
 viewBox="0.00 0.00 3503.00 196.00" xmlns="http://www.w3.org/2000/svg" xmlns:xlink="http://www.w3.org/1999/xlink">
<g id="graph0" class="graph" transform="scale(1 1) rotate(0) translate(4 192)">
<title>MomentumSource.H</title>
<polygon fill="white" stroke="transparent" points="-4,4 -4,-192 3499,-192 3499,4 -4,4"/>
<!-- Node1 -->
<g id="node1" class="node">
<title>Node1</title>
<g id="a_node1"><a xlink:title=" ">
<polygon fill="#bfbfbf" stroke="black" points="2285,-168.5 2285,-187.5 2401,-187.5 2401,-168.5 2285,-168.5"/>
<text text-anchor="middle" x="2343" y="-175.5" font-family="Helvetica,sans-Serif" font-size="10.00">MomentumSource.H</text>
</a>
</g>
</g>
<!-- Node2 -->
<g id="node2" class="node">
<title>Node2</title>
<g id="a_node2"><a xlink:href="icns_8_h.html" target="_top" xlink:title=" ">
<polygon fill="white" stroke="black" points="516.5,-112.5 516.5,-131.5 563.5,-131.5 563.5,-112.5 516.5,-112.5"/>
<text text-anchor="middle" x="540" y="-119.5" font-family="Helvetica,sans-Serif" font-size="10.00">icns.H</text>
</a>
</g>
</g>
<!-- Node1&#45;&gt;Node2 -->
<g id="edge1" class="edge">
<title>Node1&#45;&gt;Node2</title>
<path fill="none" stroke="midnightblue" d="M2274.36,-174.94C1969.94,-165.83 748.66,-129.25 563.56,-123.71"/>
<polygon fill="midnightblue" stroke="midnightblue" points="2274.7,-178.46 2284.8,-175.26 2274.91,-171.46 2274.7,-178.46"/>
</g>
<!-- Node15 -->
<g id="node15" class="node">
<title>Node15</title>
<g id="a_node15"><a xlink:href="_a_b_l_forcing_8_h.html" target="_top" xlink:title=" ">
<polygon fill="white" stroke="black" points="1297.5,-112.5 1297.5,-131.5 1378.5,-131.5 1378.5,-112.5 1297.5,-112.5"/>
<text text-anchor="middle" x="1338" y="-119.5" font-family="Helvetica,sans-Serif" font-size="10.00">ABLForcing.H</text>
</a>
</g>
</g>
<!-- Node1&#45;&gt;Node15 -->
<g id="edge18" class="edge">
<title>Node1&#45;&gt;Node15</title>
<path fill="none" stroke="midnightblue" d="M2274.76,-174.71C2123.1,-169.37 1746.57,-154.82 1432,-132 1414.5,-130.73 1395.21,-128.95 1378.68,-127.31"/>
<polygon fill="midnightblue" stroke="midnightblue" points="2274.74,-178.21 2284.86,-175.06 2274.99,-171.21 2274.74,-178.21"/>
</g>
<!-- Node19 -->
<g id="node19" class="node">
<title>Node19</title>
<g id="a_node19"><a xlink:href="_a_b_l_mean_boussinesq_8_h.html" target="_top" xlink:title=" ">
<polygon fill="white" stroke="black" points="1441,-112.5 1441,-131.5 1569,-131.5 1569,-112.5 1441,-112.5"/>
<text text-anchor="middle" x="1505" y="-119.5" font-family="Helvetica,sans-Serif" font-size="10.00">ABLMeanBoussinesq.H</text>
</a>
</g>
</g>
<!-- Node1&#45;&gt;Node19 -->
<g id="edge22" class="edge">
<title>Node1&#45;&gt;Node19</title>
<path fill="none" stroke="midnightblue" d="M2274.74,-174.45C2140.89,-169.13 1834.65,-155.35 1578,-132 1575.08,-131.73 1572.09,-131.44 1569.07,-131.13"/>
<polygon fill="midnightblue" stroke="midnightblue" points="2274.71,-177.95 2284.84,-174.85 2274.99,-170.96 2274.71,-177.95"/>
</g>
<!-- Node21 -->
<g id="node21" class="node">
<title>Node21</title>
<g id="a_node21"><a xlink:href="_a_b_l_meso_forcing_mom_8_h.html" target="_top" xlink:title=" ">
<polygon fill="white" stroke="black" points="1587,-112.5 1587,-131.5 1719,-131.5 1719,-112.5 1587,-112.5"/>
<text text-anchor="middle" x="1653" y="-119.5" font-family="Helvetica,sans-Serif" font-size="10.00">ABLMesoForcingMom.H</text>
</a>
</g>
</g>
<!-- Node1&#45;&gt;Node21 -->
<g id="edge25" class="edge">
<title>Node1&#45;&gt;Node21</title>
<path fill="none" stroke="midnightblue" d="M2274.82,-172.63C2162.74,-165.28 1932.55,-149.53 1738,-132 1731.94,-131.45 1725.64,-130.85 1719.34,-130.23"/>
<polygon fill="midnightblue" stroke="midnightblue" points="2274.76,-176.13 2284.97,-173.29 2275.22,-169.14 2274.76,-176.13"/>
</g>
<!-- Node23 -->
<g id="node23" class="node">
<title>Node23</title>
<g id="a_node23"><a xlink:href="_actuator_forcing_8_h.html" target="_top" xlink:title=" ">
<polygon fill="white" stroke="black" points="1889,-112.5 1889,-131.5 1993,-131.5 1993,-112.5 1889,-112.5"/>
<text text-anchor="middle" x="1941" y="-119.5" font-family="Helvetica,sans-Serif" font-size="10.00">ActuatorForcing.H</text>
</a>
</g>
</g>
<!-- Node1&#45;&gt;Node23 -->
<g id="edge29" class="edge">
<title>Node1&#45;&gt;Node23</title>
<path fill="none" stroke="midnightblue" d="M2275.05,-167.87C2195.46,-157.18 2065.36,-139.7 1993.25,-130.02"/>
<polygon fill="midnightblue" stroke="midnightblue" points="2274.6,-171.34 2284.98,-169.21 2275.53,-164.41 2274.6,-171.34"/>
</g>
<!-- Node25 -->
<g id="node25" class="node">
<title>Node25</title>
<g id="a_node25"><a xlink:href="icns_2source__terms_2_body_force_8_h.html" target="_top" xlink:title=" ">
<polygon fill="white" stroke="black" points="2021,-112.5 2021,-131.5 2099,-131.5 2099,-112.5 2021,-112.5"/>
<text text-anchor="middle" x="2060" y="-119.5" font-family="Helvetica,sans-Serif" font-size="10.00">BodyForce.H</text>
</a>
</g>
</g>
<!-- Node1&#45;&gt;Node25 -->
<g id="edge31" class="edge">
<title>Node1&#45;&gt;Node25</title>
<path fill="none" stroke="midnightblue" d="M2288.15,-166.53C2232.65,-155.94 2148.25,-139.84 2099.16,-130.47"/>
<polygon fill="midnightblue" stroke="midnightblue" points="2287.68,-170.01 2298.16,-168.44 2288.99,-163.13 2287.68,-170.01"/>
</g>
<!-- Node27 -->
<g id="node27" class="node">
<title>Node27</title>
<g id="a_node27"><a xlink:href="_boussinesq_buoyancy_8_h.html" target="_top" xlink:title=" ">
<polygon fill="white" stroke="black" points="2126.5,-112.5 2126.5,-131.5 2255.5,-131.5 2255.5,-112.5 2126.5,-112.5"/>
<text text-anchor="middle" x="2191" y="-119.5" font-family="Helvetica,sans-Serif" font-size="10.00">BoussinesqBuoyancy.H</text>
</a>
</g>
</g>
<!-- Node1&#45;&gt;Node27 -->
<g id="edge33" class="edge">
<title>Node1&#45;&gt;Node27</title>
<path fill="none" stroke="midnightblue" d="M2309.33,-165.04C2280.73,-154.88 2240.39,-140.55 2214.97,-131.52"/>
<polygon fill="midnightblue" stroke="midnightblue" points="2308.32,-168.39 2318.92,-168.44 2310.66,-161.8 2308.32,-168.39"/>
</g>
<!-- Node29 -->
<g id="node29" class="node">
<title>Node29</title>
<g id="a_node29"><a xlink:href="_burggraf_flow_forcing_8_h.html" target="_top" xlink:title=" ">
<polygon fill="white" stroke="black" points="2279,-112.5 2279,-131.5 2407,-131.5 2407,-112.5 2279,-112.5"/>
<text text-anchor="middle" x="2343" y="-119.5" font-family="Helvetica,sans-Serif" font-size="10.00">BurggrafFlowForcing.H</text>
</a>
</g>
</g>
<!-- Node1&#45;&gt;Node29 -->
<g id="edge35" class="edge">
<title>Node1&#45;&gt;Node29</title>
<path fill="none" stroke="midnightblue" d="M2343,-157.8C2343,-148.91 2343,-138.78 2343,-131.75"/>
<polygon fill="midnightblue" stroke="midnightblue" points="2339.5,-158.08 2343,-168.08 2346.5,-158.08 2339.5,-158.08"/>
</g>
<!-- Node31 -->
<g id="node31" class="node">
<title>Node31</title>
<g id="a_node31"><a xlink:href="_coriolis_forcing_8_h.html" target="_top" xlink:title=" ">
<polygon fill="white" stroke="black" points="2429.5,-112.5 2429.5,-131.5 2528.5,-131.5 2528.5,-112.5 2429.5,-112.5"/>
<text text-anchor="middle" x="2479" y="-119.5" font-family="Helvetica,sans-Serif" font-size="10.00">CoriolisForcing.H</text>
</a>
</g>
</g>
<!-- Node1&#45;&gt;Node31 -->
<g id="edge37" class="edge">
<title>Node1&#45;&gt;Node31</title>
<path fill="none" stroke="midnightblue" d="M2374.13,-164.64C2399.66,-154.5 2435.11,-140.43 2457.55,-131.52"/>
<polygon fill="midnightblue" stroke="midnightblue" points="2372.55,-161.5 2364.55,-168.44 2375.14,-168.01 2372.55,-161.5"/>
</g>
<!-- Node33 -->
<g id="node33" class="node">
<title>Node33</title>
<g id="a_node33"><a xlink:href="_density_buoyancy_8_h.html" target="_top" xlink:title=" ">
<polygon fill="white" stroke="black" points="2553.5,-112.5 2553.5,-131.5 2664.5,-131.5 2664.5,-112.5 2553.5,-112.5"/>
<text text-anchor="middle" x="2609" y="-119.5" font-family="Helvetica,sans-Serif" font-size="10.00">DensityBuoyancy.H</text>
</a>
</g>
</g>
<!-- Node1&#45;&gt;Node33 -->
<g id="edge39" class="edge">
<title>Node1&#45;&gt;Node33</title>
<path fill="none" stroke="midnightblue" d="M2395.17,-166.41C2445.44,-156.2 2520.53,-140.96 2567.05,-131.52"/>
<polygon fill="midnightblue" stroke="midnightblue" points="2394.25,-163.02 2385.15,-168.44 2395.64,-169.88 2394.25,-163.02"/>
</g>
<!-- Node35 -->
<g id="node35" class="node">
<title>Node35</title>
<g id="a_node35"><a xlink:href="_geostrophic_forcing_8_h.html" target="_top" xlink:title=" ">
<polygon fill="white" stroke="black" points="2691.5,-112.5 2691.5,-131.5 2812.5,-131.5 2812.5,-112.5 2691.5,-112.5"/>
<text text-anchor="middle" x="2752" y="-119.5" font-family="Helvetica,sans-Serif" font-size="10.00">GeostrophicForcing.H</text>
</a>
</g>
</g>
<!-- Node1&#45;&gt;Node35 -->
<g id="edge41" class="edge">
<title>Node1&#45;&gt;Node35</title>
<path fill="none" stroke="midnightblue" d="M2411.4,-167.97C2489.64,-157.64 2616.54,-140.88 2691.37,-131.01"/>
<polygon fill="midnightblue" stroke="midnightblue" points="2410.62,-164.54 2401.17,-169.32 2411.54,-171.48 2410.62,-164.54"/>
</g>
<!-- Node37 -->
<g id="node37" class="node">
<title>Node37</title>
<g id="a_node37"><a xlink:href="_gravity_forcing_8_h.html" target="_top" xlink:title=" ">
<polygon fill="white" stroke="black" points="2840,-112.5 2840,-131.5 2938,-131.5 2938,-112.5 2840,-112.5"/>
<text text-anchor="middle" x="2889" y="-119.5" font-family="Helvetica,sans-Serif" font-size="10.00">GravityForcing.H</text>
</a>
</g>
</g>
<!-- Node1&#45;&gt;Node37 -->
<g id="edge43" class="edge">
<title>Node1&#45;&gt;Node37</title>
<path fill="none" stroke="midnightblue" d="M2411.31,-171.39C2504.15,-163.57 2675.31,-148.49 2821,-132 2827.15,-131.3 2833.61,-130.52 2840,-129.71"/>
<polygon fill="midnightblue" stroke="midnightblue" points="2410.87,-167.91 2401.2,-172.23 2411.46,-174.88 2410.87,-167.91"/>
</g>
<!-- Node39 -->
<g id="node39" class="node">
<title>Node39</title>
<g id="a_node39"><a xlink:href="_hurricane_forcing_8_h.html" target="_top" xlink:title=" ">
<polygon fill="white" stroke="black" points="1747,-112.5 1747,-131.5 1857,-131.5 1857,-112.5 1747,-112.5"/>
<text text-anchor="middle" x="1802" y="-119.5" font-family="Helvetica,sans-Serif" font-size="10.00">HurricaneForcing.H</text>
</a>
</g>
</g>
<!-- Node1&#45;&gt;Node39 -->
<g id="edge45" class="edge">
<title>Node1&#45;&gt;Node39</title>
<path fill="none" stroke="midnightblue" d="M2274.75,-170.75C2184.4,-162.4 2020.16,-146.9 1880,-132 1872.68,-131.22 1864.98,-130.37 1857.38,-129.51"/>
<polygon fill="midnightblue" stroke="midnightblue" points="2274.58,-174.25 2284.86,-171.69 2275.22,-167.28 2274.58,-174.25"/>
</g>
<!-- Node41 -->
<g id="node41" class="node">
<title>Node41</title>
<g id="a_node41"><a xlink:href="_non_linear_s_g_s_term_8_h.html" target="_top" xlink:title=" ">
<polygon fill="white" stroke="black" points="2966,-112.5 2966,-131.5 3086,-131.5 3086,-112.5 2966,-112.5"/>
<text text-anchor="middle" x="3026" y="-119.5" font-family="Helvetica,sans-Serif" font-size="10.00">NonLinearSGSTerm.H</text>
</a>
</g>
</g>
<!-- Node1&#45;&gt;Node41 -->
<g id="edge48" class="edge">
<title>Node1&#45;&gt;Node41</title>
<path fill="none" stroke="midnightblue" d="M2411.52,-172.77C2523.6,-165.65 2753.1,-150.26 2947,-132 2953.05,-131.43 2959.35,-130.79 2965.64,-130.12"/>
<polygon fill="midnightblue" stroke="midnightblue" points="2411.13,-169.29 2401.37,-173.41 2411.57,-176.27 2411.13,-169.29"/>
</g>
<!-- Node43 -->
<g id="node43" class="node">
<title>Node43</title>
<g id="a_node43"><a xlink:href="_rayleigh_damping_8_h.html" target="_top" xlink:title=" ">
<polygon fill="white" stroke="black" points="3114,-112.5 3114,-131.5 3228,-131.5 3228,-112.5 3114,-112.5"/>
<text text-anchor="middle" x="3171" y="-119.5" font-family="Helvetica,sans-Serif" font-size="10.00">RayleighDamping.H</text>
</a>
</g>
</g>
<!-- Node1&#45;&gt;Node43 -->
<g id="edge50" class="edge">
<title>Node1&#45;&gt;Node43</title>
<path fill="none" stroke="midnightblue" d="M2411.48,-174.24C2543.76,-168.6 2843.54,-154.39 3095,-132 3101.09,-131.46 3107.44,-130.82 3113.77,-130.14"/>
<polygon fill="midnightblue" stroke="midnightblue" points="2410.95,-170.75 2401.11,-174.67 2411.25,-177.75 2410.95,-170.75"/>
</g>
<!-- Node45 -->
<g id="node45" class="node">
<title>Node45</title>
<g id="a_node45"><a xlink:href="_synth_turb_forcing_8_h.html" target="_top" xlink:title=" ">
<polygon fill="white" stroke="black" points="3256,-112.5 3256,-131.5 3366,-131.5 3366,-112.5 3256,-112.5"/>
<text text-anchor="middle" x="3311" y="-119.5" font-family="Helvetica,sans-Serif" font-size="10.00">SynthTurbForcing.H</text>
</a>
</g>
</g>
<!-- Node1&#45;&gt;Node45 -->
<g id="edge52" class="edge">
<title>Node1&#45;&gt;Node45</title>
<path fill="none" stroke="midnightblue" d="M2411.56,-175.2C2561.48,-170.91 2929.67,-158.39 3237,-132 3243.06,-131.48 3249.39,-130.85 3255.69,-130.16"/>
<polygon fill="midnightblue" stroke="midnightblue" points="2411.04,-171.72 2401.15,-175.5 2411.24,-178.71 2411.04,-171.72"/>
</g>
<!-- Node47 -->
<g id="node47" class="node">
<title>Node47</title>
<g id="a_node47"><a xlink:href="_m_m_s_forcing_8_h.html" target="_top" xlink:title=" ">
<polygon fill="white" stroke="black" points="3394,-112.5 3394,-131.5 3480,-131.5 3480,-112.5 3394,-112.5"/>
<text text-anchor="middle" x="3437" y="-119.5" font-family="Helvetica,sans-Serif" font-size="10.00">MMSForcing.H</text>
</a>
</g>
</g>
<!-- Node1&#45;&gt;Node47 -->
<g id="edge54" class="edge">
<title>Node1&#45;&gt;Node47</title>
<path fill="none" stroke="midnightblue" d="M2411.08,-176.4C2576.53,-174.41 3012.77,-166.1 3375,-132 3381.06,-131.43 3387.44,-130.68 3393.71,-129.85"/>
<polygon fill="midnightblue" stroke="midnightblue" points="2411,-172.9 2401.05,-176.51 2411.09,-179.9 2411,-172.9"/>
</g>
<!-- Node3 -->
<g id="node3" class="node">
<title>Node3</title>
<g id="a_node3"><a xlink:href="icns_8cpp.html" target="_top" xlink:title=" ">
<polygon fill="white" stroke="black" points="236,-0.5 236,-19.5 292,-19.5 292,-0.5 236,-0.5"/>
<text text-anchor="middle" x="264" y="-7.5" font-family="Helvetica,sans-Serif" font-size="10.00">icns.cpp</text>
</a>
</g>
</g>
<!-- Node2&#45;&gt;Node3 -->
<g id="edge2" class="edge">
<title>Node2&#45;&gt;Node3</title>
<path fill="none" stroke="midnightblue" d="M505.91,-121.61C430.68,-122.16 254.2,-118.74 217,-76 200.45,-56.99 230.8,-32.37 250,-19.57"/>
<polygon fill="midnightblue" stroke="midnightblue" points="506.28,-125.11 516.24,-121.51 506.21,-118.11 506.28,-125.11"/>
</g>
<!-- Node4 -->
<g id="node4" class="node">
<title>Node4</title>
<g id="a_node4"><a xlink:href="icns__advection_8_h.html" target="_top" xlink:title=" ">
<polygon fill="white" stroke="black" points="432,-56.5 432,-75.5 532,-75.5 532,-56.5 432,-56.5"/>
<text text-anchor="middle" x="482" y="-63.5" font-family="Helvetica,sans-Serif" font-size="10.00">icns_advection.H</text>
</a>
</g>
</g>
<!-- Node2&#45;&gt;Node4 -->
<g id="edge3" class="edge">
<title>Node2&#45;&gt;Node4</title>
<path fill="none" stroke="midnightblue" d="M523.09,-105.25C512.8,-95.67 500.03,-83.79 491.49,-75.83"/>
<polygon fill="midnightblue" stroke="midnightblue" points="520.98,-108.07 530.68,-112.32 525.75,-102.95 520.98,-108.07"/>
</g>
<!-- Node6 -->
<g id="node6" class="node">
<title>Node6</title>
<g id="a_node6"><a xlink:href="icns__bcop_8_h.html" target="_top" xlink:title=" ">
<polygon fill="white" stroke="black" points="226.5,-56.5 226.5,-75.5 301.5,-75.5 301.5,-56.5 226.5,-56.5"/>
<text text-anchor="middle" x="264" y="-63.5" font-family="Helvetica,sans-Serif" font-size="10.00">icns_bcop.H</text>
</a>
</g>
</g>
<!-- Node2&#45;&gt;Node6 -->
<g id="edge6" class="edge">
<title>Node2&#45;&gt;Node6</title>
<path fill="none" stroke="midnightblue" d="M506.49,-114.44C454.79,-104.33 355.92,-84.98 301.77,-74.39"/>
<polygon fill="midnightblue" stroke="midnightblue" points="505.98,-117.91 516.47,-116.4 507.33,-111.04 505.98,-117.91"/>
</g>
<!-- Node7 -->
<g id="node7" class="node">
<title>Node7</title>
<g id="a_node7"><a xlink:href="icns__diffusion_8_h.html" target="_top" xlink:title=" ">
<polygon fill="white" stroke="black" points="320,-56.5 320,-75.5 414,-75.5 414,-56.5 320,-56.5"/>
<text text-anchor="middle" x="367" y="-63.5" font-family="Helvetica,sans-Serif" font-size="10.00">icns_diffusion.H</text>
</a>
</g>
</g>
<!-- Node2&#45;&gt;Node7 -->
<g id="edge8" class="edge">
<title>Node2&#45;&gt;Node7</title>
<path fill="none" stroke="midnightblue" d="M506.74,-110.62C474.09,-100.43 424.86,-85.06 394.39,-75.55"/>
<polygon fill="midnightblue" stroke="midnightblue" points="505.72,-113.97 516.31,-113.6 507.8,-107.28 505.72,-113.97"/>
</g>
<!-- Node8 -->
<g id="node8" class="node">
<title>Node8</title>
<g id="a_node8"><a xlink:href="icns__ops_8_h.html" target="_top" xlink:title=" ">
<polygon fill="white" stroke="black" points="100.5,-56.5 100.5,-75.5 169.5,-75.5 169.5,-56.5 100.5,-56.5"/>
<text text-anchor="middle" x="135" y="-63.5" font-family="Helvetica,sans-Serif" font-size="10.00">icns_ops.H</text>
</a>
</g>
</g>
<!-- Node2&#45;&gt;Node8 -->
<g id="edge10" class="edge">
<title>Node2&#45;&gt;Node8</title>
<path fill="none" stroke="midnightblue" d="M505.97,-117.34C442.51,-110.37 301.85,-94.26 184,-76 179.38,-75.28 174.54,-74.47 169.76,-73.63"/>
<polygon fill="midnightblue" stroke="midnightblue" points="505.87,-120.85 516.19,-118.46 506.63,-113.89 505.87,-120.85"/>
</g>
<!-- Node9 -->
<g id="node9" class="node">
<title>Node9</title>
<g id="a_node9"><a xlink:href="_burggraf_lid_8cpp.html" target="_top" xlink:title=" ">
<polygon fill="white" stroke="black" points="550.5,-56.5 550.5,-75.5 643.5,-75.5 643.5,-56.5 550.5,-56.5"/>
<text text-anchor="middle" x="597" y="-63.5" font-family="Helvetica,sans-Serif" font-size="10.00">BurggrafLid.cpp</text>
</a>
</g>
</g>
<!-- Node2&#45;&gt;Node9 -->
<g id="edge12" class="edge">
<title>Node2&#45;&gt;Node9</title>
<path fill="none" stroke="midnightblue" d="M556.62,-105.25C566.73,-95.67 579.28,-83.79 587.68,-75.83"/>
<polygon fill="midnightblue" stroke="midnightblue" points="554.01,-102.91 549.16,-112.32 558.82,-107.99 554.01,-102.91"/>
</g>
<!-- Node10 -->
<g id="node10" class="node">
<title>Node10</title>
<g id="a_node10"><a xlink:href="_custom_scalar_8cpp.html" target="_top" xlink:title=" ">
<polygon fill="white" stroke="black" points="662,-56.5 662,-75.5 766,-75.5 766,-56.5 662,-56.5"/>
<text text-anchor="middle" x="714" y="-63.5" font-family="Helvetica,sans-Serif" font-size="10.00">CustomScalar.cpp</text>
</a>
</g>
</g>
<!-- Node2&#45;&gt;Node10 -->
<g id="edge13" class="edge">
<title>Node2&#45;&gt;Node10</title>
<path fill="none" stroke="midnightblue" d="M573.45,-110.62C606.29,-100.43 655.8,-85.06 686.45,-75.55"/>
<polygon fill="midnightblue" stroke="midnightblue" points="572.34,-107.3 563.83,-113.6 574.42,-113.98 572.34,-107.3"/>
</g>
<!-- Node11 -->
<g id="node11" class="node">
<title>Node11</title>
<g id="a_node11"><a xlink:href="_custom_velocity_8cpp.html" target="_top" xlink:title=" ">
<polygon fill="white" stroke="black" points="784,-56.5 784,-75.5 896,-75.5 896,-56.5 784,-56.5"/>
<text text-anchor="middle" x="840" y="-63.5" font-family="Helvetica,sans-Serif" font-size="10.00">CustomVelocity.cpp</text>
</a>
</g>
</g>
<!-- Node2&#45;&gt;Node11 -->
<g id="edge14" class="edge">
<title>Node2&#45;&gt;Node11</title>
<path fill="none" stroke="midnightblue" d="M573.51,-114.97C626.93,-105.35 731.56,-86.52 792.61,-75.53"/>
<polygon fill="midnightblue" stroke="midnightblue" points="572.76,-111.55 563.54,-116.76 574,-118.44 572.76,-111.55"/>
</g>
<!-- Node12 -->
<g id="node12" class="node">
<title>Node12</title>
<g id="a_node12"><a xlink:href="_power_law_profile_8cpp.html" target="_top" xlink:title=" ">
<polygon fill="white" stroke="black" points="914.5,-56.5 914.5,-75.5 1031.5,-75.5 1031.5,-56.5 914.5,-56.5"/>
<text text-anchor="middle" x="973" y="-63.5" font-family="Helvetica,sans-Serif" font-size="10.00">PowerLawProfile.cpp</text>
</a>
</g>
</g>
<!-- Node2&#45;&gt;Node12 -->
<g id="edge15" class="edge">
<title>Node2&#45;&gt;Node12</title>
<path fill="none" stroke="midnightblue" d="M573.93,-116.92C638.44,-109.14 783.21,-91.57 905,-76 908.07,-75.61 911.22,-75.2 914.4,-74.79"/>
<polygon fill="midnightblue" stroke="midnightblue" points="573.43,-113.45 563.92,-118.13 574.27,-120.4 573.43,-113.45"/>
</g>
<!-- Node13 -->
<g id="node13" class="node">
<title>Node13</title>
<g id="a_node13"><a xlink:href="_rankine_8cpp.html" target="_top" xlink:title=" ">
<polygon fill="white" stroke="black" points="1049.5,-56.5 1049.5,-75.5 1126.5,-75.5 1126.5,-56.5 1049.5,-56.5"/>
<text text-anchor="middle" x="1088" y="-63.5" font-family="Helvetica,sans-Serif" font-size="10.00">Rankine.cpp</text>
</a>
</g>
</g>
<!-- Node2&#45;&gt;Node13 -->
<g id="edge16" class="edge">
<title>Node2&#45;&gt;Node13</title>
<path fill="none" stroke="midnightblue" d="M573.58,-119.09C654.26,-114.26 865.25,-100.19 1040,-76 1043.02,-75.58 1046.15,-75.1 1049.28,-74.59"/>
<polygon fill="midnightblue" stroke="midnightblue" points="573.3,-115.6 563.52,-119.68 573.71,-122.59 573.3,-115.6"/>
</g>
<!-- Node14 -->
<g id="node14" class="node">
<title>Node14</title>
<g id="a_node14"><a xlink:href="_two_layer_8cpp.html" target="_top" xlink:title=" ">
<polygon fill="white" stroke="black" points="0,-56.5 0,-75.5 82,-75.5 82,-56.5 0,-56.5"/>
<text text-anchor="middle" x="41" y="-63.5" font-family="Helvetica,sans-Serif" font-size="10.00">TwoLayer.cpp</text>
</a>
</g>
</g>
<!-- Node2&#45;&gt;Node14 -->
<g id="edge17" class="edge">
<title>Node2&#45;&gt;Node14</title>
<path fill="none" stroke="midnightblue" d="M505.79,-118.49C430.56,-112.77 245.18,-97.57 91,-76 88.12,-75.6 85.15,-75.15 82.16,-74.67"/>
<polygon fill="midnightblue" stroke="midnightblue" points="505.84,-122 516.07,-119.26 506.36,-115.02 505.84,-122"/>
</g>
<!-- Node4&#45;&gt;Node3 -->
<g id="edge4" class="edge">
<title>Node4&#45;&gt;Node3</title>
<path fill="none" stroke="midnightblue" d="M437.7,-54.03C394.16,-43.24 329.03,-27.11 292.14,-17.97"/>
<polygon fill="midnightblue" stroke="midnightblue" points="436.91,-57.44 447.46,-56.44 438.59,-50.64 436.91,-57.44"/>
</g>
<!-- Node5 -->
<g id="node5" class="node">
<title>Node5</title>
<g id="a_node5"><a xlink:href="icns__advection_8cpp.html" target="_top" xlink:title=" ">
<polygon fill="white" stroke="black" points="427,-0.5 427,-19.5 537,-19.5 537,-0.5 427,-0.5"/>
<text text-anchor="middle" x="482" y="-7.5" font-family="Helvetica,sans-Serif" font-size="10.00">icns_advection.cpp</text>
</a>
</g>
</g>
<!-- Node4&#45;&gt;Node5 -->
<g id="edge5" class="edge">
<title>Node4&#45;&gt;Node5</title>
<path fill="none" stroke="midnightblue" d="M482,-45.8C482,-36.91 482,-26.78 482,-19.75"/>
<polygon fill="midnightblue" stroke="midnightblue" points="478.5,-46.08 482,-56.08 485.5,-46.08 478.5,-46.08"/>
</g>
<!-- Node6&#45;&gt;Node3 -->
<g id="edge7" class="edge">
<title>Node6&#45;&gt;Node3</title>
<path fill="none" stroke="midnightblue" d="M264,-45.8C264,-36.91 264,-26.78 264,-19.75"/>
<polygon fill="midnightblue" stroke="midnightblue" points="260.5,-46.08 264,-56.08 267.5,-46.08 260.5,-46.08"/>
</g>
<!-- Node7&#45;&gt;Node3 -->
<g id="edge9" class="edge">
<title>Node7&#45;&gt;Node3</title>
<path fill="none" stroke="midnightblue" d="M341.42,-51.59C322.38,-41.61 296.94,-28.27 280.51,-19.65"/>
<polygon fill="midnightblue" stroke="midnightblue" points="339.97,-54.78 350.45,-56.32 343.22,-48.58 339.97,-54.78"/>
</g>
<!-- Node8&#45;&gt;Node3 -->
<g id="edge11" class="edge">
<title>Node8&#45;&gt;Node3</title>
<path fill="none" stroke="midnightblue" d="M164.85,-52.5C189.04,-42.38 222.46,-28.39 243.66,-19.52"/>
<polygon fill="midnightblue" stroke="midnightblue" points="163.31,-49.35 155.44,-56.44 166.02,-55.81 163.31,-49.35"/>
</g>
<!-- Node16 -->
<g id="node16" class="node">
<title>Node16</title>
<g id="a_node16"><a xlink:href="_a_b_l_forcing_8cpp.html" target="_top" xlink:title=" ">
<polygon fill="white" stroke="black" points="1144.5,-56.5 1144.5,-75.5 1235.5,-75.5 1235.5,-56.5 1144.5,-56.5"/>
<text text-anchor="middle" x="1190" y="-63.5" font-family="Helvetica,sans-Serif" font-size="10.00">ABLForcing.cpp</text>
</a>
</g>
</g>
<!-- Node15&#45;&gt;Node16 -->
<g id="edge19" class="edge">
<title>Node15&#45;&gt;Node16</title>
<path fill="none" stroke="midnightblue" d="M1304.85,-108.91C1277.03,-98.75 1237.98,-84.51 1213.34,-75.52"/>
<polygon fill="midnightblue" stroke="midnightblue" points="1303.96,-112.3 1314.55,-112.44 1306.35,-105.73 1303.96,-112.3"/>
</g>
<!-- Node17 -->
<g id="node17" class="node">
<title>Node17</title>
<g id="a_node17"><a xlink:href="_a_b_l_8cpp.html" target="_top" xlink:title=" ">
<polygon fill="white" stroke="black" points="1508,-56.5 1508,-75.5 1564,-75.5 1564,-56.5 1508,-56.5"/>
<text text-anchor="middle" x="1536" y="-63.5" font-family="Helvetica,sans-Serif" font-size="10.00">ABL.cpp</text>
</a>
</g>
</g>
<!-- Node15&#45;&gt;Node17 -->
<g id="edge20" class="edge">
<title>Node15&#45;&gt;Node17</title>
<path fill="none" stroke="midnightblue" d="M1379.26,-109.75C1417.83,-99.23 1474.39,-83.8 1507.97,-74.64"/>
<polygon fill="midnightblue" stroke="midnightblue" points="1378.1,-106.44 1369.37,-112.44 1379.94,-113.19 1378.1,-106.44"/>
</g>
<!-- Node18 -->
<g id="node18" class="node">
<title>Node18</title>
<g id="a_node18"><a xlink:href="_a_b_l_stats_8cpp.html" target="_top" xlink:title=" ">
<polygon fill="white" stroke="black" points="1254,-56.5 1254,-75.5 1334,-75.5 1334,-56.5 1254,-56.5"/>
<text text-anchor="middle" x="1294" y="-63.5" font-family="Helvetica,sans-Serif" font-size="10.00">ABLStats.cpp</text>
</a>
</g>
</g>
<!-- Node15&#45;&gt;Node18 -->
<g id="edge21" class="edge">
<title>Node15&#45;&gt;Node18</title>
<path fill="none" stroke="midnightblue" d="M1324.27,-104.14C1316.6,-94.74 1307.37,-83.4 1301.13,-75.75"/>
<polygon fill="midnightblue" stroke="midnightblue" points="1321.7,-106.54 1330.73,-112.08 1327.13,-102.12 1321.7,-106.54"/>
</g>
<!-- Node19&#45;&gt;Node17 -->
<g id="edge24" class="edge">
<title>Node19&#45;&gt;Node17</title>
<path fill="none" stroke="midnightblue" d="M1515.18,-103.27C1520.47,-94.05 1526.72,-83.17 1530.98,-75.75"/>
<polygon fill="midnightblue" stroke="midnightblue" points="1512.06,-101.67 1510.12,-112.08 1518.13,-105.15 1512.06,-101.67"/>
</g>
<!-- Node20 -->
<g id="node20" class="node">
<title>Node20</title>
<g id="a_node20"><a xlink:href="_a_b_l_mean_boussinesq_8cpp.html" target="_top" xlink:title=" ">
<polygon fill="white" stroke="black" points="1352,-56.5 1352,-75.5 1490,-75.5 1490,-56.5 1352,-56.5"/>
<text text-anchor="middle" x="1421" y="-63.5" font-family="Helvetica,sans-Serif" font-size="10.00">ABLMeanBoussinesq.cpp</text>
</a>
</g>
</g>
<!-- Node19&#45;&gt;Node20 -->
<g id="edge23" class="edge">
<title>Node19&#45;&gt;Node20</title>
<path fill="none" stroke="midnightblue" d="M1483.07,-106.9C1467.66,-97 1447.55,-84.07 1434.46,-75.65"/>
<polygon fill="midnightblue" stroke="midnightblue" points="1481.2,-109.86 1491.5,-112.32 1484.98,-103.97 1481.2,-109.86"/>
</g>
<!-- Node21&#45;&gt;Node17 -->
<g id="edge27" class="edge">
<title>Node21&#45;&gt;Node17</title>
<path fill="none" stroke="midnightblue" d="M1625.34,-108.23C1603.45,-98.13 1573.5,-84.31 1554.45,-75.52"/>
<polygon fill="midnightblue" stroke="midnightblue" points="1623.91,-111.43 1634.46,-112.44 1626.85,-105.08 1623.91,-111.43"/>
</g>
<!-- Node21&#45;&gt;Node18 -->
<g id="edge28" class="edge">
<title>Node21&#45;&gt;Node18</title>
<path fill="none" stroke="midnightblue" d="M1579.15,-111.07C1516.27,-102.43 1423.57,-89.24 1343,-76 1340.1,-75.52 1337.1,-75.01 1334.09,-74.49"/>
<polygon fill="midnightblue" stroke="midnightblue" points="1578.98,-114.58 1589.37,-112.47 1579.93,-107.65 1578.98,-114.58"/>
</g>
<!-- Node22 -->
<g id="node22" class="node">
<title>Node22</title>
<g id="a_node22"><a xlink:href="_a_b_l_meso_forcing_mom_8cpp.html" target="_top" xlink:title=" ">
<polygon fill="white" stroke="black" points="1582,-56.5 1582,-75.5 1724,-75.5 1724,-56.5 1582,-56.5"/>
<text text-anchor="middle" x="1653" y="-63.5" font-family="Helvetica,sans-Serif" font-size="10.00">ABLMesoForcingMom.cpp</text>
</a>
</g>
</g>
<!-- Node21&#45;&gt;Node22 -->
<g id="edge26" class="edge">
<title>Node21&#45;&gt;Node22</title>
<path fill="none" stroke="midnightblue" d="M1653,-101.8C1653,-92.91 1653,-82.78 1653,-75.75"/>
<polygon fill="midnightblue" stroke="midnightblue" points="1649.5,-102.08 1653,-112.08 1656.5,-102.08 1649.5,-102.08"/>
</g>
<!-- Node24 -->
<g id="node24" class="node">
<title>Node24</title>
<g id="a_node24"><a xlink:href="_actuator_forcing_8cpp.html" target="_top" xlink:title=" ">
<polygon fill="white" stroke="black" points="1879.5,-56.5 1879.5,-75.5 1992.5,-75.5 1992.5,-56.5 1879.5,-56.5"/>
<text text-anchor="middle" x="1936" y="-63.5" font-family="Helvetica,sans-Serif" font-size="10.00">ActuatorForcing.cpp</text>
</a>
</g>
</g>
<!-- Node23&#45;&gt;Node24 -->
<g id="edge30" class="edge">
<title>Node23&#45;&gt;Node24</title>
<path fill="none" stroke="midnightblue" d="M1939.25,-102.1C1938.42,-93.14 1937.47,-82.86 1936.81,-75.75"/>
<polygon fill="midnightblue" stroke="midnightblue" points="1935.77,-102.45 1940.17,-112.08 1942.74,-101.8 1935.77,-102.45"/>
</g>
<!-- Node26 -->
<g id="node26" class="node">
<title>Node26</title>
<g id="a_node26"><a xlink:href="icns_2source__terms_2_body_force_8cpp.html" target="_top" xlink:title=" ">
<polygon fill="white" stroke="black" points="2011,-56.5 2011,-75.5 2099,-75.5 2099,-56.5 2011,-56.5"/>
<text text-anchor="middle" x="2055" y="-63.5" font-family="Helvetica,sans-Serif" font-size="10.00">BodyForce.cpp</text>
</a>
</g>
</g>
<!-- Node25&#45;&gt;Node26 -->
<g id="edge32" class="edge">
<title>Node25&#45;&gt;Node26</title>
<path fill="none" stroke="midnightblue" d="M2058.25,-102.1C2057.42,-93.14 2056.47,-82.86 2055.81,-75.75"/>
<polygon fill="midnightblue" stroke="midnightblue" points="2054.77,-102.45 2059.17,-112.08 2061.74,-101.8 2054.77,-102.45"/>
</g>
<!-- Node28 -->
<g id="node28" class="node">
<title>Node28</title>
<g id="a_node28"><a xlink:href="_boussinesq_buoyancy_8cpp.html" target="_top" xlink:title=" ">
<polygon fill="white" stroke="black" points="2117.5,-56.5 2117.5,-75.5 2256.5,-75.5 2256.5,-56.5 2117.5,-56.5"/>
<text text-anchor="middle" x="2187" y="-63.5" font-family="Helvetica,sans-Serif" font-size="10.00">BoussinesqBuoyancy.cpp</text>
</a>
</g>
</g>
<!-- Node27&#45;&gt;Node28 -->
<g id="edge34" class="edge">
<title>Node27&#45;&gt;Node28</title>
<path fill="none" stroke="midnightblue" d="M2189.6,-102.1C2188.94,-93.14 2188.17,-82.86 2187.65,-75.75"/>
<polygon fill="midnightblue" stroke="midnightblue" points="2186.11,-102.37 2190.34,-112.08 2193.09,-101.85 2186.11,-102.37"/>
</g>
<!-- Node30 -->
<g id="node30" class="node">
<title>Node30</title>
<g id="a_node30"><a xlink:href="_burggraf_flow_forcing_8cpp.html" target="_top" xlink:title=" ">
<polygon fill="white" stroke="black" points="2274.5,-56.5 2274.5,-75.5 2411.5,-75.5 2411.5,-56.5 2274.5,-56.5"/>
<text text-anchor="middle" x="2343" y="-63.5" font-family="Helvetica,sans-Serif" font-size="10.00">BurggrafFlowForcing.cpp</text>
</a>
</g>
</g>
<!-- Node29&#45;&gt;Node30 -->
<g id="edge36" class="edge">
<title>Node29&#45;&gt;Node30</title>
<path fill="none" stroke="midnightblue" d="M2343,-101.8C2343,-92.91 2343,-82.78 2343,-75.75"/>
<polygon fill="midnightblue" stroke="midnightblue" points="2339.5,-102.08 2343,-112.08 2346.5,-102.08 2339.5,-102.08"/>
</g>
<!-- Node32 -->
<g id="node32" class="node">
<title>Node32</title>
<g id="a_node32"><a xlink:href="_coriolis_forcing_8cpp.html" target="_top" xlink:title=" ">
<polygon fill="white" stroke="black" points="2429.5,-56.5 2429.5,-75.5 2538.5,-75.5 2538.5,-56.5 2429.5,-56.5"/>
<text text-anchor="middle" x="2484" y="-63.5" font-family="Helvetica,sans-Serif" font-size="10.00">CoriolisForcing.cpp</text>
</a>
</g>
</g>
<!-- Node31&#45;&gt;Node32 -->
<g id="edge38" class="edge">
<title>Node31&#45;&gt;Node32</title>
<path fill="none" stroke="midnightblue" d="M2480.75,-102.1C2481.58,-93.14 2482.53,-82.86 2483.19,-75.75"/>
<polygon fill="midnightblue" stroke="midnightblue" points="2477.26,-101.8 2479.83,-112.08 2484.23,-102.45 2477.26,-101.8"/>
</g>
<!-- Node34 -->
<g id="node34" class="node">
<title>Node34</title>
<g id="a_node34"><a xlink:href="_density_buoyancy_8cpp.html" target="_top" xlink:title=" ">
<polygon fill="white" stroke="black" points="2556.5,-56.5 2556.5,-75.5 2677.5,-75.5 2677.5,-56.5 2556.5,-56.5"/>
<text text-anchor="middle" x="2617" y="-63.5" font-family="Helvetica,sans-Serif" font-size="10.00">DensityBuoyancy.cpp</text>
</a>
</g>
</g>
<!-- Node33&#45;&gt;Node34 -->
<g id="edge40" class="edge">
<title>Node33&#45;&gt;Node34</title>
<path fill="none" stroke="midnightblue" d="M2611.8,-102.1C2613.13,-93.14 2614.65,-82.86 2615.7,-75.75"/>
<polygon fill="midnightblue" stroke="midnightblue" points="2608.32,-101.68 2610.32,-112.08 2615.25,-102.7 2608.32,-101.68"/>
</g>
<!-- Node36 -->
<g id="node36" class="node">
<title>Node36</title>
<g id="a_node36"><a xlink:href="_geostrophic_forcing_8cpp.html" target="_top" xlink:title=" ">
<polygon fill="white" stroke="black" points="2695.5,-56.5 2695.5,-75.5 2826.5,-75.5 2826.5,-56.5 2695.5,-56.5"/>
<text text-anchor="middle" x="2761" y="-63.5" font-family="Helvetica,sans-Serif" font-size="10.00">GeostrophicForcing.cpp</text>
</a>
</g>
</g>
<!-- Node35&#45;&gt;Node36 -->
<g id="edge42" class="edge">
<title>Node35&#45;&gt;Node36</title>
<path fill="none" stroke="midnightblue" d="M2755.15,-102.1C2756.64,-93.14 2758.36,-82.86 2759.54,-75.75"/>
<polygon fill="midnightblue" stroke="midnightblue" points="2751.68,-101.64 2753.49,-112.08 2758.58,-102.79 2751.68,-101.64"/>
</g>
<!-- Node38 -->
<g id="node38" class="node">
<title>Node38</title>
<g id="a_node38"><a xlink:href="_gravity_forcing_8cpp.html" target="_top" xlink:title=" ">
<polygon fill="white" stroke="black" points="2845,-56.5 2845,-75.5 2953,-75.5 2953,-56.5 2845,-56.5"/>
<text text-anchor="middle" x="2899" y="-63.5" font-family="Helvetica,sans-Serif" font-size="10.00">GravityForcing.cpp</text>
</a>
</g>
</g>
<!-- Node37&#45;&gt;Node38 -->
<g id="edge44" class="edge">
<title>Node37&#45;&gt;Node38</title>
<path fill="none" stroke="midnightblue" d="M2892.5,-102.1C2894.16,-93.14 2896.06,-82.86 2897.38,-75.75"/>
<polygon fill="midnightblue" stroke="midnightblue" points="2889.03,-101.61 2890.65,-112.08 2895.91,-102.89 2889.03,-101.61"/>
</g>
<!-- Node39&#45;&gt;Node17 -->
<g id="edge47" class="edge">
<title>Node39&#45;&gt;Node17</title>
<path fill="none" stroke="midnightblue" d="M1745.51,-110.63C1699.07,-101.92 1631.62,-88.88 1573,-76 1570.16,-75.38 1567.2,-74.7 1564.25,-74.01"/>
<polygon fill="midnightblue" stroke="midnightblue" points="1744.91,-114.07 1755.38,-112.47 1746.2,-107.19 1744.91,-114.07"/>
</g>
<!-- Node40 -->
<g id="node40" class="node">
<title>Node40</title>
<g id="a_node40"><a xlink:href="_hurricane_forcing_8cpp.html" target="_top" xlink:title=" ">
<polygon fill="white" stroke="black" points="1742.5,-56.5 1742.5,-75.5 1861.5,-75.5 1861.5,-56.5 1742.5,-56.5"/>
<text text-anchor="middle" x="1802" y="-63.5" font-family="Helvetica,sans-Serif" font-size="10.00">HurricaneForcing.cpp</text>
</a>
</g>
</g>
<!-- Node39&#45;&gt;Node40 -->
<g id="edge46" class="edge">
<title>Node39&#45;&gt;Node40</title>
<path fill="none" stroke="midnightblue" d="M1802,-101.8C1802,-92.91 1802,-82.78 1802,-75.75"/>
<polygon fill="midnightblue" stroke="midnightblue" points="1798.5,-102.08 1802,-112.08 1805.5,-102.08 1798.5,-102.08"/>
</g>
<!-- Node42 -->
<g id="node42" class="node">
<title>Node42</title>
<g id="a_node42"><a xlink:href="_non_linear_s_g_s_term_8cpp.html" target="_top" xlink:title=" ">
<polygon fill="white" stroke="black" points="2971,-56.5 2971,-75.5 3101,-75.5 3101,-56.5 2971,-56.5"/>
<text text-anchor="middle" x="3036" y="-63.5" font-family="Helvetica,sans-Serif" font-size="10.00">NonLinearSGSTerm.cpp</text>
</a>
</g>
</g>
<!-- Node41&#45;&gt;Node42 -->
<g id="edge49" class="edge">
<title>Node41&#45;&gt;Node42</title>
<path fill="none" stroke="midnightblue" d="M3029.5,-102.1C3031.16,-93.14 3033.06,-82.86 3034.38,-75.75"/>
<polygon fill="midnightblue" stroke="midnightblue" points="3026.03,-101.61 3027.65,-112.08 3032.91,-102.89 3026.03,-101.61"/>
</g>
<!-- Node44 -->
<g id="node44" class="node">
<title>Node44</title>
<g id="a_node44"><a xlink:href="_rayleigh_damping_8cpp.html" target="_top" xlink:title=" ">
<polygon fill="white" stroke="black" points="3119,-56.5 3119,-75.5 3243,-75.5 3243,-56.5 3119,-56.5"/>
<text text-anchor="middle" x="3181" y="-63.5" font-family="Helvetica,sans-Serif" font-size="10.00">RayleighDamping.cpp</text>
</a>
</g>
</g>
<!-- Node43&#45;&gt;Node44 -->
<g id="edge51" class="edge">
<title>Node43&#45;&gt;Node44</title>
<path fill="none" stroke="midnightblue" d="M3174.5,-102.1C3176.16,-93.14 3178.06,-82.86 3179.38,-75.75"/>
<polygon fill="midnightblue" stroke="midnightblue" points="3171.03,-101.61 3172.65,-112.08 3177.91,-102.89 3171.03,-101.61"/>
</g>
<!-- Node46 -->
<g id="node46" class="node">
<title>Node46</title>
<g id="a_node46"><a xlink:href="_synth_turb_forcing_8cpp.html" target="_top" xlink:title=" ">
<polygon fill="white" stroke="black" points="3261,-56.5 3261,-75.5 3381,-75.5 3381,-56.5 3261,-56.5"/>
<text text-anchor="middle" x="3321" y="-63.5" font-family="Helvetica,sans-Serif" font-size="10.00">SynthTurbForcing.cpp</text>
</a>
</g>
</g>
<!-- Node45&#45;&gt;Node46 -->
<g id="edge53" class="edge">
<title>Node45&#45;&gt;Node46</title>
<path fill="none" stroke="midnightblue" d="M3314.5,-102.1C3316.16,-93.14 3318.06,-82.86 3319.38,-75.75"/>
<polygon fill="midnightblue" stroke="midnightblue" points="3311.03,-101.61 3312.65,-112.08 3317.91,-102.89 3311.03,-101.61"/>
</g>
<!-- Node48 -->
<g id="node48" class="node">
<title>Node48</title>
<g id="a_node48"><a xlink:href="_m_m_s_forcing_8cpp.html" target="_top" xlink:title=" ">
<polygon fill="white" stroke="black" points="3399,-56.5 3399,-75.5 3495,-75.5 3495,-56.5 3399,-56.5"/>
<text text-anchor="middle" x="3447" y="-63.5" font-family="Helvetica,sans-Serif" font-size="10.00">MMSForcing.cpp</text>
</a>
</g>
</g>
<!-- Node47&#45;&gt;Node48 -->
<g id="edge55" class="edge">
<title>Node47&#45;&gt;Node48</title>
<path fill="none" stroke="midnightblue" d="M3440.5,-102.1C3442.16,-93.14 3444.06,-82.86 3445.38,-75.75"/>
<polygon fill="midnightblue" stroke="midnightblue" points="3437.03,-101.61 3438.65,-112.08 3443.91,-102.89 3437.03,-101.61"/>
</g>
</g>
</svg>
