<?xml version="1.0" encoding="UTF-8" standalone="no"?>
<!DOCTYPE svg PUBLIC "-//W3C//DTD SVG 1.1//EN"
 "http://www.w3.org/Graphics/SVG/1.1/DTD/svg11.dtd">
<!-- Generated by graphviz version 2.43.0 (0)
 -->
<!-- Title: MultiPhase.H Pages: 1 -->
<!--zoomable 375 -->
<svg id="main" version="1.1" xmlns="http://www.w3.org/2000/svg" xmlns:xlink="http://www.w3.org/1999/xlink" xml:space="preserve" onload="init(evt)">
<style type="text/css"><![CDATA[
.edge:hover path { stroke: red; }
.edge:hover polygon { stroke: red; fill: red; }
]]></style>
<script type="text/javascript"><![CDATA[
var edges = document.getElementsByTagName('g');
if (edges && edges.length) {
  for (var i=0;i<edges.length;i++) {
    if (edges[i].id.substr(0,4)=='edge') {
      edges[i].setAttribute('class','edge');
    }
  }
}
]]></script>
        <defs>
                <circle id="rim" cx="0" cy="0" r="7"/>
                <circle id="rim2" cx="0" cy="0" r="3.5"/>
                <g id="zoomPlus">
                        <use xlink:href="#rim" fill="#404040">
                                <set attributeName="fill" to="#808080" begin="zoomplus.mouseover" end="zoomplus.mouseout"/>
                        </use>
                        <path d="M-4,0h8M0,-4v8" fill="none" stroke="white" stroke-width="1.5" pointer-events="none"/>
                </g>
                <g id="zoomMin">
                        <use xlink:href="#rim" fill="#404040">
                                <set attributeName="fill" to="#808080" begin="zoomminus.mouseover" end="zoomminus.mouseout"/>
                        </use>
                        <path d="M-4,0h8" fill="none" stroke="white" stroke-width="1.5" pointer-events="none"/>
                </g>
                <g id="dirArrow">
                        <path fill="none" stroke="white" stroke-width="1.5" d="M0,-3.0v7 M-2.5,-0.5L0,-3.0L2.5,-0.5"/>
                </g>
               <g id="resetDef">
                       <use xlink:href="#rim2" fill="#404040">
                               <set attributeName="fill" to="#808080" begin="reset.mouseover" end="reset.mouseout"/>
                       </use>
               </g>
        </defs>

<script type="text/javascript">
var viewWidth = 2484;
var viewHeight = 375;
var sectionId = 'dynsection-1';
</script>
<script xlink:href="svgpan.js"/>
<svg id="graph" class="graph">
<g id="viewport">
<title>MultiPhase.H</title>
<polygon fill="white" stroke="transparent" points="-4,4 -4,-371 2479.5,-371 2479.5,4 -4,4"/>
<!-- Node1 -->
<g id="node1" class="node">
<title>Node1</title>
<g id="a_node1"><a xlink:title=" ">
<polygon fill="#bfbfbf" stroke="black" points="1162,-347.5 1162,-366.5 1243,-366.5 1243,-347.5 1162,-347.5"/>
<text text-anchor="middle" x="1202.5" y="-354.5" font-family="Helvetica,sans-Serif" font-size="10.00">MultiPhase.H</text>
</a>
</g>
</g>
<!-- Node2 -->
<g id="node2" class="node">
<title>Node2</title>
<g id="a_node2"><a xlink:href="_a_b_l_forcing_8cpp.html" target="_top" xlink:title=" ">
<polygon fill="white" stroke="black" points="0,-291.5 0,-310.5 91,-310.5 91,-291.5 0,-291.5"/>
<text text-anchor="middle" x="45.5" y="-298.5" font-family="Helvetica,sans-Serif" font-size="10.00">ABLForcing.cpp</text>
</a>
</g>
</g>
<!-- Node1&#45;&gt;Node2 -->
<g id="edge1" class="edge">
<title>Node1&#45;&gt;Node2</title>
<path fill="none" stroke="midnightblue" d="M1151.5,-356.17C994.31,-356.21 503.43,-352.74 99.5,-311 96.76,-310.72 93.94,-310.38 91.11,-310.01"/>
<polygon fill="midnightblue" stroke="midnightblue" points="1151.81,-359.67 1161.81,-356.16 1151.8,-352.67 1151.81,-359.67"/>
</g>
<!-- Node3 -->
<g id="node3" class="node">
<title>Node3</title>
<g id="a_node3"><a xlink:href="_geostrophic_forcing_8cpp.html" target="_top" xlink:title=" ">
<polygon fill="white" stroke="black" points="109,-291.5 109,-310.5 240,-310.5 240,-291.5 109,-291.5"/>
<text text-anchor="middle" x="174.5" y="-298.5" font-family="Helvetica,sans-Serif" font-size="10.00">GeostrophicForcing.cpp</text>
</a>
</g>
</g>
<!-- Node1&#45;&gt;Node3 -->
<g id="edge2" class="edge">
<title>Node1&#45;&gt;Node3</title>
<path fill="none" stroke="midnightblue" d="M1151.8,-354.93C1009.28,-351.63 593.04,-340.04 248.5,-311 245.79,-310.77 243.03,-310.52 240.24,-310.25"/>
<polygon fill="midnightblue" stroke="midnightblue" points="1151.9,-358.43 1161.98,-355.16 1152.06,-351.43 1151.9,-358.43"/>
</g>
<!-- Node4 -->
<g id="node4" class="node">
<title>Node4</title>
<g id="a_node4"><a xlink:href="levelset__ops_8_h.html" target="_top" xlink:title=" ">
<polygon fill="white" stroke="black" points="258,-291.5 258,-310.5 347,-310.5 347,-291.5 258,-291.5"/>
<text text-anchor="middle" x="302.5" y="-298.5" font-family="Helvetica,sans-Serif" font-size="10.00">levelset_ops.H</text>
</a>
</g>
</g>
<!-- Node1&#45;&gt;Node4 -->
<g id="edge3" class="edge">
<title>Node1&#45;&gt;Node4</title>
<path fill="none" stroke="midnightblue" d="M1151.61,-355.34C1019.73,-353.17 656.17,-344.4 355.5,-311 352.81,-310.7 350.05,-310.35 347.27,-309.97"/>
<polygon fill="midnightblue" stroke="midnightblue" points="1151.76,-358.84 1161.81,-355.5 1151.87,-351.84 1151.76,-358.84"/>
</g>
<!-- Node6 -->
<g id="node6" class="node">
<title>Node6</title>
<g id="a_node6"><a xlink:href="vof__ops_8_h.html" target="_top" xlink:title=" ">
<polygon fill="white" stroke="black" points="365,-291.5 365,-310.5 430,-310.5 430,-291.5 365,-291.5"/>
<text text-anchor="middle" x="397.5" y="-298.5" font-family="Helvetica,sans-Serif" font-size="10.00">vof_ops.H</text>
</a>
</g>
</g>
<!-- Node1&#45;&gt;Node6 -->
<g id="edge5" class="edge">
<title>Node1&#45;&gt;Node6</title>
<path fill="none" stroke="midnightblue" d="M1151.52,-355.67C1028.51,-354.28 705.89,-347.18 439.5,-311 436.54,-310.6 433.49,-310.1 430.43,-309.55"/>
<polygon fill="midnightblue" stroke="midnightblue" points="1151.72,-359.17 1161.76,-355.77 1151.8,-352.17 1151.72,-359.17"/>
</g>
<!-- Node8 -->
<g id="node8" class="node">
<title>Node8</title>
<g id="a_node8"><a xlink:href="_ocean_waves_8cpp.html" target="_top" xlink:title=" ">
<polygon fill="white" stroke="black" points="448.5,-291.5 448.5,-310.5 548.5,-310.5 548.5,-291.5 448.5,-291.5"/>
<text text-anchor="middle" x="498.5" y="-298.5" font-family="Helvetica,sans-Serif" font-size="10.00">OceanWaves.cpp</text>
</a>
</g>
</g>
<!-- Node1&#45;&gt;Node8 -->
<g id="edge7" class="edge">
<title>Node1&#45;&gt;Node8</title>
<path fill="none" stroke="midnightblue" d="M1151.57,-353.86C1042.43,-348.98 777.98,-335.47 557.5,-311 554.62,-310.68 551.66,-310.32 548.68,-309.94"/>
<polygon fill="midnightblue" stroke="midnightblue" points="1151.5,-357.36 1161.65,-354.31 1151.81,-350.37 1151.5,-357.36"/>
</g>
<!-- Node9 -->
<g id="node9" class="node">
<title>Node9</title>
<g id="a_node9"><a xlink:href="linear__waves__ops_8_h.html" target="_top" xlink:title=" ">
<polygon fill="white" stroke="black" points="566.5,-291.5 566.5,-310.5 680.5,-310.5 680.5,-291.5 566.5,-291.5"/>
<text text-anchor="middle" x="623.5" y="-298.5" font-family="Helvetica,sans-Serif" font-size="10.00">linear_waves_ops.H</text>
</a>
</g>
</g>
<!-- Node1&#45;&gt;Node9 -->
<g id="edge8" class="edge">
<title>Node1&#45;&gt;Node9</title>
<path fill="none" stroke="midnightblue" d="M1151.7,-352.36C1059.49,-345.56 858.47,-329.92 689.5,-311 686.63,-310.68 683.69,-310.33 680.72,-309.97"/>
<polygon fill="midnightblue" stroke="midnightblue" points="1151.64,-355.86 1161.87,-353.1 1152.15,-348.88 1151.64,-355.86"/>
</g>
<!-- Node11 -->
<g id="node11" class="node">
<title>Node11</title>
<g id="a_node11"><a xlink:href="relaxation__zones__ops_8cpp.html" target="_top" xlink:title=" ">
<polygon fill="white" stroke="black" points="699,-291.5 699,-310.5 842,-310.5 842,-291.5 699,-291.5"/>
<text text-anchor="middle" x="770.5" y="-298.5" font-family="Helvetica,sans-Serif" font-size="10.00">relaxation_zones_ops.cpp</text>
</a>
</g>
</g>
<!-- Node1&#45;&gt;Node11 -->
<g id="edge10" class="edge">
<title>Node1&#45;&gt;Node11</title>
<path fill="none" stroke="midnightblue" d="M1151.85,-349.67C1074.27,-339.97 925.87,-321.42 838.83,-310.54"/>
<polygon fill="midnightblue" stroke="midnightblue" points="1151.5,-353.15 1161.86,-350.92 1152.37,-346.21 1151.5,-353.15"/>
</g>
<!-- Node12 -->
<g id="node12" class="node">
<title>Node12</title>
<g id="a_node12"><a xlink:href="stokes__waves__ops_8_h.html" target="_top" xlink:title=" ">
<polygon fill="white" stroke="black" points="860.5,-291.5 860.5,-310.5 978.5,-310.5 978.5,-291.5 860.5,-291.5"/>
<text text-anchor="middle" x="919.5" y="-298.5" font-family="Helvetica,sans-Serif" font-size="10.00">stokes_waves_ops.H</text>
</a>
</g>
</g>
<!-- Node1&#45;&gt;Node12 -->
<g id="edge11" class="edge">
<title>Node1&#45;&gt;Node12</title>
<path fill="none" stroke="midnightblue" d="M1152.02,-346.37C1098.65,-336.18 1015.24,-320.27 964.17,-310.52"/>
<polygon fill="midnightblue" stroke="midnightblue" points="1151.47,-349.83 1161.95,-348.26 1152.79,-342.95 1151.47,-349.83"/>
</g>
<!-- Node14 -->
<g id="node14" class="node">
<title>Node14</title>
<g id="a_node14"><a xlink:href="waves2amr__ops_8_h.html" target="_top" xlink:title=" ">
<polygon fill="white" stroke="black" points="997,-291.5 997,-310.5 1104,-310.5 1104,-291.5 997,-291.5"/>
<text text-anchor="middle" x="1050.5" y="-298.5" font-family="Helvetica,sans-Serif" font-size="10.00">waves2amr_ops.H</text>
</a>
</g>
</g>
<!-- Node1&#45;&gt;Node14 -->
<g id="edge13" class="edge">
<title>Node1&#45;&gt;Node14</title>
<path fill="none" stroke="midnightblue" d="M1168.83,-344.04C1140.23,-333.88 1099.89,-319.55 1074.47,-310.52"/>
<polygon fill="midnightblue" stroke="midnightblue" points="1167.82,-347.39 1178.42,-347.44 1170.16,-340.8 1167.82,-347.39"/>
</g>
<!-- Node16 -->
<g id="node16" class="node">
<title>Node16</title>
<g id="a_node16"><a xlink:href="_overset_ops_8_h.html" target="_top" xlink:title=" ">
<polygon fill="white" stroke="black" points="1160.5,-291.5 1160.5,-310.5 1244.5,-310.5 1244.5,-291.5 1160.5,-291.5"/>
<text text-anchor="middle" x="1202.5" y="-298.5" font-family="Helvetica,sans-Serif" font-size="10.00">OversetOps.H</text>
</a>
</g>
</g>
<!-- Node1&#45;&gt;Node16 -->
<g id="edge15" class="edge">
<title>Node1&#45;&gt;Node16</title>
<path fill="none" stroke="midnightblue" d="M1202.5,-336.8C1202.5,-327.91 1202.5,-317.78 1202.5,-310.75"/>
<polygon fill="midnightblue" stroke="midnightblue" points="1199,-337.08 1202.5,-347.08 1206,-337.08 1199,-337.08"/>
</g>
<!-- Node98 -->
<g id="node40" class="node">
<title>Node98</title>
<g id="a_node40"><a xlink:href="_breaking_waves_8cpp.html" target="_top" xlink:title=" ">
<polygon fill="white" stroke="black" points="1263,-291.5 1263,-310.5 1376,-310.5 1376,-291.5 1263,-291.5"/>
<text text-anchor="middle" x="1319.5" y="-298.5" font-family="Helvetica,sans-Serif" font-size="10.00">BreakingWaves.cpp</text>
</a>
</g>
</g>
<!-- Node1&#45;&gt;Node98 -->
<g id="edge42" class="edge">
<title>Node1&#45;&gt;Node98</title>
<path fill="none" stroke="midnightblue" d="M1230.16,-343.23C1252.05,-333.13 1282,-319.31 1301.05,-310.52"/>
<polygon fill="midnightblue" stroke="midnightblue" points="1228.65,-340.08 1221.04,-347.44 1231.59,-346.43 1228.65,-340.08"/>
</g>
<!-- Node99 -->
<g id="node41" class="node">
<title>Node99</title>
<g id="a_node41"><a xlink:href="_dam_break_8cpp.html" target="_top" xlink:title=" ">
<polygon fill="white" stroke="black" points="1394,-291.5 1394,-310.5 1483,-310.5 1483,-291.5 1394,-291.5"/>
<text text-anchor="middle" x="1438.5" y="-298.5" font-family="Helvetica,sans-Serif" font-size="10.00">DamBreak.cpp</text>
</a>
</g>
</g>
<!-- Node1&#45;&gt;Node99 -->
<g id="edge43" class="edge">
<title>Node1&#45;&gt;Node99</title>
<path fill="none" stroke="midnightblue" d="M1249.91,-345.15C1294.5,-334.95 1360.35,-319.88 1401.28,-310.52"/>
<polygon fill="midnightblue" stroke="midnightblue" points="1248.86,-341.8 1239.89,-347.44 1250.42,-348.62 1248.86,-341.8"/>
</g>
<!-- Node43 -->
<g id="node42" class="node">
<title>Node43</title>
<g id="a_node42"><a xlink:href="_multi_phase_8cpp.html" target="_top" xlink:title=" ">
<polygon fill="white" stroke="black" points="1501,-291.5 1501,-310.5 1592,-310.5 1592,-291.5 1501,-291.5"/>
<text text-anchor="middle" x="1546.5" y="-298.5" font-family="Helvetica,sans-Serif" font-size="10.00">MultiPhase.cpp</text>
</a>
</g>
</g>
<!-- Node1&#45;&gt;Node43 -->
<g id="edge44" class="edge">
<title>Node1&#45;&gt;Node43</title>
<path fill="none" stroke="midnightblue" d="M1253.34,-348.29C1311.26,-339.46 1408.74,-324.48 1492.5,-311 1495.22,-310.56 1498.02,-310.11 1500.84,-309.65"/>
<polygon fill="midnightblue" stroke="midnightblue" points="1252.7,-344.84 1243.34,-349.81 1253.76,-351.76 1252.7,-344.84"/>
</g>
<!-- Node100 -->
<g id="node43" class="node">
<title>Node100</title>
<g id="a_node43"><a xlink:href="_rain_drop_8cpp.html" target="_top" xlink:title=" ">
<polygon fill="white" stroke="black" points="1610.5,-291.5 1610.5,-310.5 1692.5,-310.5 1692.5,-291.5 1610.5,-291.5"/>
<text text-anchor="middle" x="1651.5" y="-298.5" font-family="Helvetica,sans-Serif" font-size="10.00">RainDrop.cpp</text>
</a>
</g>
</g>
<!-- Node1&#45;&gt;Node100 -->
<g id="edge45" class="edge">
<title>Node1&#45;&gt;Node100</title>
<path fill="none" stroke="midnightblue" d="M1253.34,-351.35C1329.3,-344.15 1476.83,-329.23 1601.5,-311 1604.38,-310.58 1607.35,-310.12 1610.33,-309.63"/>
<polygon fill="midnightblue" stroke="midnightblue" points="1252.74,-347.89 1243.11,-352.31 1253.39,-354.86 1252.74,-347.89"/>
</g>
<!-- Node101 -->
<g id="node44" class="node">
<title>Node101</title>
<g id="a_node44"><a xlink:href="_sloshing_tank_8cpp.html" target="_top" xlink:title=" ">
<polygon fill="white" stroke="black" points="1711,-291.5 1711,-310.5 1812,-310.5 1812,-291.5 1711,-291.5"/>
<text text-anchor="middle" x="1761.5" y="-298.5" font-family="Helvetica,sans-Serif" font-size="10.00">SloshingTank.cpp</text>
</a>
</g>
</g>
<!-- Node1&#45;&gt;Node101 -->
<g id="edge46" class="edge">
<title>Node1&#45;&gt;Node101</title>
<path fill="none" stroke="midnightblue" d="M1253.24,-352.42C1343.55,-345.82 1538.05,-330.61 1701.5,-311 1704.53,-310.64 1707.65,-310.24 1710.79,-309.82"/>
<polygon fill="midnightblue" stroke="midnightblue" points="1252.73,-348.95 1243.01,-353.16 1253.24,-355.93 1252.73,-348.95"/>
</g>
<!-- Node102 -->
<g id="node45" class="node">
<title>Node102</title>
<g id="a_node45"><a xlink:href="_vortex_patch_8cpp.html" target="_top" xlink:title=" ">
<polygon fill="white" stroke="black" points="1830,-291.5 1830,-310.5 1925,-310.5 1925,-291.5 1830,-291.5"/>
<text text-anchor="middle" x="1877.5" y="-298.5" font-family="Helvetica,sans-Serif" font-size="10.00">VortexPatch.cpp</text>
</a>
</g>
</g>
<!-- Node1&#45;&gt;Node102 -->
<g id="edge47" class="edge">
<title>Node1&#45;&gt;Node102</title>
<path fill="none" stroke="midnightblue" d="M1253.26,-353.8C1359.15,-348.89 1611.24,-335.49 1821.5,-311 1824.24,-310.68 1827.05,-310.32 1829.88,-309.94"/>
<polygon fill="midnightblue" stroke="midnightblue" points="1253,-350.31 1243.17,-354.27 1253.32,-357.3 1253,-350.31"/>
</g>
<!-- Node103 -->
<g id="node46" class="node">
<title>Node103</title>
<g id="a_node46"><a xlink:href="_vortex_patch_scalar_vel_8cpp.html" target="_top" xlink:title=" ">
<polygon fill="white" stroke="black" points="1943.5,-291.5 1943.5,-310.5 2083.5,-310.5 2083.5,-291.5 1943.5,-291.5"/>
<text text-anchor="middle" x="2013.5" y="-298.5" font-family="Helvetica,sans-Serif" font-size="10.00">VortexPatchScalarVel.cpp</text>
</a>
</g>
</g>
<!-- Node1&#45;&gt;Node103 -->
<g id="edge48" class="edge">
<title>Node1&#45;&gt;Node103</title>
<path fill="none" stroke="midnightblue" d="M1253.29,-353.79C1372.42,-348.4 1679.02,-333.39 1934.5,-311 1937.39,-310.75 1940.33,-310.47 1943.31,-310.19"/>
<polygon fill="midnightblue" stroke="midnightblue" points="1252.86,-350.3 1243.03,-354.25 1253.17,-357.3 1252.86,-350.3"/>
</g>
<!-- Node104 -->
<g id="node47" class="node">
<title>Node104</title>
<g id="a_node47"><a xlink:href="_zalesak_disk_8cpp.html" target="_top" xlink:title=" ">
<polygon fill="white" stroke="black" points="2101.5,-291.5 2101.5,-310.5 2199.5,-310.5 2199.5,-291.5 2101.5,-291.5"/>
<text text-anchor="middle" x="2150.5" y="-298.5" font-family="Helvetica,sans-Serif" font-size="10.00">ZalesakDisk.cpp</text>
</a>
</g>
</g>
<!-- Node1&#45;&gt;Node104 -->
<g id="edge49" class="edge">
<title>Node1&#45;&gt;Node104</title>
<path fill="none" stroke="midnightblue" d="M1253.58,-355.26C1390.07,-352.9 1774.51,-343.62 2092.5,-311 2095.44,-310.7 2098.46,-310.35 2101.5,-309.97"/>
<polygon fill="midnightblue" stroke="midnightblue" points="1253.36,-351.77 1243.42,-355.44 1253.48,-358.77 1253.36,-351.77"/>
</g>
<!-- Node105 -->
<g id="node48" class="node">
<title>Node105</title>
<g id="a_node48"><a xlink:href="_zalesak_disk_scalar_vel_8cpp.html" target="_top" xlink:title=" ">
<polygon fill="white" stroke="black" points="2218,-291.5 2218,-310.5 2361,-310.5 2361,-291.5 2218,-291.5"/>
<text text-anchor="middle" x="2289.5" y="-298.5" font-family="Helvetica,sans-Serif" font-size="10.00">ZalesakDiskScalarVel.cpp</text>
</a>
</g>
</g>
<!-- Node1&#45;&gt;Node105 -->
<g id="edge50" class="edge">
<title>Node1&#45;&gt;Node105</title>
<path fill="none" stroke="midnightblue" d="M1253.41,-354.91C1401.2,-351.49 1842.96,-339.45 2208.5,-311 2211.6,-310.76 2214.77,-310.49 2217.97,-310.21"/>
<polygon fill="midnightblue" stroke="midnightblue" points="1253.2,-351.41 1243.29,-355.14 1253.36,-358.41 1253.2,-351.41"/>
</g>
<!-- Node106 -->
<g id="node49" class="node">
<title>Node106</title>
<g id="a_node49"><a xlink:href="_two_phase_transport_8_h.html" target="_top" xlink:title=" ">
<polygon fill="white" stroke="black" points="1072.5,-235.5 1072.5,-254.5 1192.5,-254.5 1192.5,-235.5 1072.5,-235.5"/>
<text text-anchor="middle" x="1132.5" y="-242.5" font-family="Helvetica,sans-Serif" font-size="10.00">TwoPhaseTransport.H</text>
</a>
</g>
</g>
<!-- Node1&#45;&gt;Node106 -->
<g id="edge51" class="edge">
<title>Node1&#45;&gt;Node106</title>
<path fill="none" stroke="midnightblue" d="M1180.73,-341.27C1170.54,-333.37 1159.02,-322.83 1151.5,-311 1140.02,-292.94 1135.26,-267.71 1133.47,-254.63"/>
<polygon fill="midnightblue" stroke="midnightblue" points="1178.73,-344.14 1188.85,-347.25 1182.88,-338.51 1178.73,-344.14"/>
</g>
<!-- Node107 -->
<g id="node50" class="node">
<title>Node107</title>
<g id="a_node50"><a xlink:href="_wave_energy_8cpp.html" target="_top" xlink:title=" ">
<polygon fill="white" stroke="black" points="2379.5,-291.5 2379.5,-310.5 2475.5,-310.5 2475.5,-291.5 2379.5,-291.5"/>
<text text-anchor="middle" x="2427.5" y="-298.5" font-family="Helvetica,sans-Serif" font-size="10.00">WaveEnergy.cpp</text>
</a>
</g>
</g>
<!-- Node1&#45;&gt;Node107 -->
<g id="edge53" class="edge">
<title>Node1&#45;&gt;Node107</title>
<path fill="none" stroke="midnightblue" d="M1253.43,-356.18C1416.45,-356.3 1939.93,-353.14 2370.5,-311 2373.39,-310.72 2376.36,-310.38 2379.35,-310.01"/>
<polygon fill="midnightblue" stroke="midnightblue" points="1253.23,-352.68 1243.22,-356.17 1253.22,-359.68 1253.23,-352.68"/>
</g>
<!-- Node5 -->
<g id="node5" class="node">
<title>Node5</title>
<g id="a_node5"><a xlink:href="levelset_8cpp.html" target="_top" xlink:title=" ">
<polygon fill="white" stroke="black" points="264.5,-235.5 264.5,-254.5 340.5,-254.5 340.5,-235.5 264.5,-235.5"/>
<text text-anchor="middle" x="302.5" y="-242.5" font-family="Helvetica,sans-Serif" font-size="10.00">levelset.cpp</text>
</a>
</g>
</g>
<!-- Node4&#45;&gt;Node5 -->
<g id="edge4" class="edge">
<title>Node4&#45;&gt;Node5</title>
<path fill="none" stroke="midnightblue" d="M302.5,-280.8C302.5,-271.91 302.5,-261.78 302.5,-254.75"/>
<polygon fill="midnightblue" stroke="midnightblue" points="299,-281.08 302.5,-291.08 306,-281.08 299,-281.08"/>
</g>
<!-- Node7 -->
<g id="node7" class="node">
<title>Node7</title>
<g id="a_node7"><a xlink:href="vof_8cpp.html" target="_top" xlink:title=" ">
<polygon fill="white" stroke="black" points="371.5,-235.5 371.5,-254.5 423.5,-254.5 423.5,-235.5 371.5,-235.5"/>
<text text-anchor="middle" x="397.5" y="-242.5" font-family="Helvetica,sans-Serif" font-size="10.00">vof.cpp</text>
</a>
</g>
</g>
<!-- Node6&#45;&gt;Node7 -->
<g id="edge6" class="edge">
<title>Node6&#45;&gt;Node7</title>
<path fill="none" stroke="midnightblue" d="M397.5,-280.8C397.5,-271.91 397.5,-261.78 397.5,-254.75"/>
<polygon fill="midnightblue" stroke="midnightblue" points="394,-281.08 397.5,-291.08 401,-281.08 394,-281.08"/>
</g>
<!-- Node10 -->
<g id="node10" class="node">
<title>Node10</title>
<g id="a_node10"><a xlink:href="_linear_waves_8cpp.html" target="_top" xlink:title=" ">
<polygon fill="white" stroke="black" points="574,-235.5 574,-254.5 673,-254.5 673,-235.5 574,-235.5"/>
<text text-anchor="middle" x="623.5" y="-242.5" font-family="Helvetica,sans-Serif" font-size="10.00">LinearWaves.cpp</text>
</a>
</g>
</g>
<!-- Node9&#45;&gt;Node10 -->
<g id="edge9" class="edge">
<title>Node9&#45;&gt;Node10</title>
<path fill="none" stroke="midnightblue" d="M623.5,-280.8C623.5,-271.91 623.5,-261.78 623.5,-254.75"/>
<polygon fill="midnightblue" stroke="midnightblue" points="620,-281.08 623.5,-291.08 627,-281.08 620,-281.08"/>
</g>
<!-- Node13 -->
<g id="node13" class="node">
<title>Node13</title>
<g id="a_node13"><a xlink:href="_stokes_waves_8cpp.html" target="_top" xlink:title=" ">
<polygon fill="white" stroke="black" points="844,-235.5 844,-254.5 945,-254.5 945,-235.5 844,-235.5"/>
<text text-anchor="middle" x="894.5" y="-242.5" font-family="Helvetica,sans-Serif" font-size="10.00">StokesWaves.cpp</text>
</a>
</g>
</g>
<!-- Node12&#45;&gt;Node13 -->
<g id="edge12" class="edge">
<title>Node12&#45;&gt;Node13</title>
<path fill="none" stroke="midnightblue" d="M911.16,-281.98C906.92,-272.82 901.95,-262.09 898.55,-254.75"/>
<polygon fill="midnightblue" stroke="midnightblue" points="907.99,-283.48 915.37,-291.08 914.35,-280.54 907.99,-283.48"/>
</g>
<!-- Node15 -->
<g id="node15" class="node">
<title>Node15</title>
<g id="a_node15"><a xlink:href="_w2_a_waves_8cpp.html" target="_top" xlink:title=" ">
<polygon fill="white" stroke="black" points="963,-235.5 963,-254.5 1054,-254.5 1054,-235.5 963,-235.5"/>
<text text-anchor="middle" x="1008.5" y="-242.5" font-family="Helvetica,sans-Serif" font-size="10.00">W2AWaves.cpp</text>
</a>
</g>
</g>
<!-- Node14&#45;&gt;Node15 -->
<g id="edge14" class="edge">
<title>Node14&#45;&gt;Node15</title>
<path fill="none" stroke="midnightblue" d="M1037.39,-283.14C1030.07,-273.74 1021.26,-262.4 1015.31,-254.75"/>
<polygon fill="midnightblue" stroke="midnightblue" points="1034.66,-285.34 1043.56,-291.08 1040.19,-281.04 1034.66,-285.34"/>
</g>
<!-- Node17 -->
<g id="node17" class="node">
<title>Node17</title>
<g id="a_node17"><a xlink:href="incflo_8_h.html" target="_top" xlink:title=" ">
<polygon fill="white" stroke="black" points="1211,-235.5 1211,-254.5 1264,-254.5 1264,-235.5 1211,-235.5"/>
<text text-anchor="middle" x="1237.5" y="-242.5" font-family="Helvetica,sans-Serif" font-size="10.00">incflo.H</text>
</a>
</g>
</g>
<!-- Node16&#45;&gt;Node17 -->
<g id="edge16" class="edge">
<title>Node16&#45;&gt;Node17</title>
<path fill="none" stroke="midnightblue" d="M1213.8,-282.57C1219.82,-273.27 1226.97,-262.25 1231.83,-254.75"/>
<polygon fill="midnightblue" stroke="midnightblue" points="1210.78,-280.79 1208.28,-291.08 1216.66,-284.6 1210.78,-280.79"/>
</g>
<!-- Node97 -->
<g id="node39" class="node">
<title>Node97</title>
<g id="a_node39"><a xlink:href="_overset_ops_8cpp.html" target="_top" xlink:title=" ">
<polygon fill="white" stroke="black" points="1282.5,-235.5 1282.5,-254.5 1376.5,-254.5 1376.5,-235.5 1282.5,-235.5"/>
<text text-anchor="middle" x="1329.5" y="-242.5" font-family="Helvetica,sans-Serif" font-size="10.00">OversetOps.cpp</text>
</a>
</g>
</g>
<!-- Node16&#45;&gt;Node97 -->
<g id="edge41" class="edge">
<title>Node16&#45;&gt;Node97</title>
<path fill="none" stroke="midnightblue" d="M1231.89,-287.5C1255.7,-277.38 1288.61,-263.39 1309.47,-254.52"/>
<polygon fill="midnightblue" stroke="midnightblue" points="1230.46,-284.31 1222.62,-291.44 1233.2,-290.75 1230.46,-284.31"/>
</g>
<!-- Node18 -->
<g id="node18" class="node">
<title>Node18</title>
<g id="a_node18"><a xlink:href="incflo__diffusion_8cpp.html" target="_top" xlink:title=" ">
<polygon fill="white" stroke="black" points="1530.5,-174 1530.5,-193 1640.5,-193 1640.5,-174 1530.5,-174"/>
<text text-anchor="middle" x="1585.5" y="-181" font-family="Helvetica,sans-Serif" font-size="10.00">incflo_diffusion.cpp</text>
</a>
</g>
</g>
<!-- Node17&#45;&gt;Node18 -->
<g id="edge17" class="edge">
<title>Node17&#45;&gt;Node18</title>
<path fill="none" stroke="midnightblue" d="M1274.03,-235.08C1384.5,-213.78 1415.09,-218.75 1521.5,-199 1530.8,-197.27 1540.79,-195.14 1550.06,-193.05"/>
<polygon fill="midnightblue" stroke="midnightblue" points="1273.31,-231.66 1264.17,-237.01 1274.66,-238.53 1273.31,-231.66"/>
</g>
<!-- Node19 -->
<g id="node19" class="node">
<title>Node19</title>
<g id="a_node19"><a xlink:href="incflo_8cpp.html" target="_top" xlink:title=" ">
<polygon fill="white" stroke="black" points="1723,-112.5 1723,-131.5 1786,-131.5 1786,-112.5 1723,-112.5"/>
<text text-anchor="middle" x="1754.5" y="-119.5" font-family="Helvetica,sans-Serif" font-size="10.00">incflo.cpp</text>
</a>
</g>
</g>
<!-- Node17&#45;&gt;Node19 -->
<g id="edge18" class="edge">
<title>Node17&#45;&gt;Node19</title>
<path fill="none" stroke="midnightblue" d="M1274.07,-235.58C1362.74,-227.23 1740.85,-238.36 1777.5,-199 1795.35,-179.83 1774.03,-147.25 1761.86,-131.73"/>
<polygon fill="midnightblue" stroke="midnightblue" points="1273.63,-232.11 1264.13,-236.8 1274.48,-239.05 1273.63,-232.11"/>
</g>
<!-- Node20 -->
<g id="node20" class="node">
<title>Node20</title>
<g id="a_node20"><a xlink:href="incflo__advance_8cpp.html" target="_top" xlink:title=" ">
<polygon fill="white" stroke="black" points="1393.5,-112.5 1393.5,-131.5 1503.5,-131.5 1503.5,-112.5 1393.5,-112.5"/>
<text text-anchor="middle" x="1448.5" y="-119.5" font-family="Helvetica,sans-Serif" font-size="10.00">incflo_advance.cpp</text>
</a>
</g>
</g>
<!-- Node17&#45;&gt;Node20 -->
<g id="edge19" class="edge">
<title>Node17&#45;&gt;Node20</title>
<path fill="none" stroke="midnightblue" d="M1200.85,-235.57C1117.02,-227.52 770.12,-235.32 736.5,-199 727.14,-188.89 727.07,-178.04 736.5,-168 758.91,-144.13 1230.27,-128.99 1393.47,-124.44"/>
<polygon fill="midnightblue" stroke="midnightblue" points="1200.51,-239.05 1210.87,-236.81 1201.38,-232.1 1200.51,-239.05"/>
</g>
<!-- Node21 -->
<g id="node21" class="node">
<title>Node21</title>
<g id="a_node21"><a xlink:href="incflo__compute__dt_8cpp.html" target="_top" xlink:title=" ">
<polygon fill="white" stroke="black" points="745.5,-174 745.5,-193 871.5,-193 871.5,-174 745.5,-174"/>
<text text-anchor="middle" x="808.5" y="-181" font-family="Helvetica,sans-Serif" font-size="10.00">incflo_compute_dt.cpp</text>
</a>
</g>
</g>
<!-- Node17&#45;&gt;Node21 -->
<g id="edge20" class="edge">
<title>Node17&#45;&gt;Node21</title>
<path fill="none" stroke="midnightblue" d="M1200.87,-235.13C1058.46,-210.04 1019.15,-220.69 880.5,-199 869.79,-197.32 858.26,-195.16 847.62,-193.02"/>
<polygon fill="midnightblue" stroke="midnightblue" points="1200.39,-238.6 1210.85,-236.92 1201.62,-231.71 1200.39,-238.6"/>
</g>
<!-- Node22 -->
<g id="node22" class="node">
<title>Node22</title>
<g id="a_node22"><a xlink:href="incflo__regrid_8cpp.html" target="_top" xlink:title=" ">
<polygon fill="white" stroke="black" points="890,-174 890,-193 987,-193 987,-174 890,-174"/>
<text text-anchor="middle" x="938.5" y="-181" font-family="Helvetica,sans-Serif" font-size="10.00">incflo_regrid.cpp</text>
</a>
</g>
</g>
<!-- Node17&#45;&gt;Node22 -->
<g id="edge21" class="edge">
<title>Node17&#45;&gt;Node22</title>
<path fill="none" stroke="midnightblue" d="M1200.84,-235C1109.3,-215.91 1083.89,-217.57 996.5,-199 988.17,-197.23 979.23,-195.11 970.92,-193.04"/>
<polygon fill="midnightblue" stroke="midnightblue" points="1200.31,-238.46 1210.81,-237.1 1201.75,-231.61 1200.31,-238.46"/>
</g>
<!-- Node23 -->
<g id="node23" class="node">
<title>Node23</title>
<g id="a_node23"><a xlink:href="main_8cpp.html" target="_top" xlink:title=" ">
<polygon fill="white" stroke="black" points="1005.5,-174 1005.5,-193 1067.5,-193 1067.5,-174 1005.5,-174"/>
<text text-anchor="middle" x="1036.5" y="-181" font-family="Helvetica,sans-Serif" font-size="10.00">main.cpp</text>
</a>
</g>
</g>
<!-- Node17&#45;&gt;Node23 -->
<g id="edge22" class="edge">
<title>Node17&#45;&gt;Node23</title>
<path fill="none" stroke="midnightblue" d="M1200.75,-234.4C1168.19,-225.72 1119.45,-212.3 1077.5,-199 1071.74,-197.17 1065.58,-195.07 1059.83,-193.05"/>
<polygon fill="midnightblue" stroke="midnightblue" points="1200.17,-237.87 1210.73,-237.05 1201.96,-231.1 1200.17,-237.87"/>
</g>
<!-- Node24 -->
<g id="node24" class="node">
<title>Node24</title>
<g id="a_node24"><a xlink:href="incflo__apply__nodal__projection_8cpp.html" target="_top" xlink:title=" ">
<polygon fill="white" stroke="black" points="1086,-168.5 1086,-198.5 1193,-198.5 1193,-168.5 1086,-168.5"/>
<text text-anchor="start" x="1094" y="-186.5" font-family="Helvetica,sans-Serif" font-size="10.00">incflo_apply_nodal</text>
<text text-anchor="middle" x="1139.5" y="-175.5" font-family="Helvetica,sans-Serif" font-size="10.00">_projection.cpp</text>
</a>
</g>
</g>
<!-- Node17&#45;&gt;Node24 -->
<g id="edge23" class="edge">
<title>Node17&#45;&gt;Node24</title>
<path fill="none" stroke="midnightblue" d="M1214.9,-230.28C1199.21,-220.75 1178.39,-208.11 1162.6,-198.52"/>
<polygon fill="midnightblue" stroke="midnightblue" points="1213.09,-233.28 1223.46,-235.48 1216.73,-227.29 1213.09,-233.28"/>
</g>
<!-- Node25 -->
<g id="node25" class="node">
<title>Node25</title>
<g id="a_node25"><a xlink:href="init_8cpp.html" target="_top" xlink:title=" ">
<polygon fill="white" stroke="black" points="1211,-174 1211,-193 1264,-193 1264,-174 1211,-174"/>
<text text-anchor="middle" x="1237.5" y="-181" font-family="Helvetica,sans-Serif" font-size="10.00">init.cpp</text>
</a>
</g>
</g>
<!-- Node17&#45;&gt;Node25 -->
<g id="edge24" class="edge">
<title>Node17&#45;&gt;Node25</title>
<path fill="none" stroke="midnightblue" d="M1237.5,-225.32C1237.5,-214.5 1237.5,-201.4 1237.5,-193.01"/>
<polygon fill="midnightblue" stroke="midnightblue" points="1234,-225.48 1237.5,-235.48 1241,-225.48 1234,-225.48"/>
</g>
<!-- Node26 -->
<g id="node26" class="node">
<title>Node26</title>
<g id="a_node26"><a xlink:href="_turbulence_model_8_h.html" target="_top" xlink:title=" ">
<polygon fill="white" stroke="red" points="1658.5,-174 1658.5,-193 1768.5,-193 1768.5,-174 1658.5,-174"/>
<text text-anchor="middle" x="1713.5" y="-181" font-family="Helvetica,sans-Serif" font-size="10.00">TurbulenceModel.H</text>
</a>
</g>
</g>
<!-- Node17&#45;&gt;Node26 -->
<g id="edge25" class="edge">
<title>Node17&#45;&gt;Node26</title>
<path fill="none" stroke="midnightblue" d="M1274.24,-235.15C1440.75,-207.29 1486.98,-225.08 1649.5,-199 1659.29,-197.43 1669.81,-195.25 1679.45,-193.06"/>
<polygon fill="midnightblue" stroke="midnightblue" points="1273.41,-231.74 1264.14,-236.87 1274.59,-238.64 1273.41,-231.74"/>
</g>
<!-- Node94 -->
<g id="node36" class="node">
<title>Node94</title>
<g id="a_node36"><a xlink:href="diagnostics_8cpp.html" target="_top" xlink:title=" ">
<polygon fill="white" stroke="black" points="1282.5,-174 1282.5,-193 1374.5,-193 1374.5,-174 1282.5,-174"/>
<text text-anchor="middle" x="1328.5" y="-181" font-family="Helvetica,sans-Serif" font-size="10.00">diagnostics.cpp</text>
</a>
</g>
</g>
<!-- Node17&#45;&gt;Node94 -->
<g id="edge38" class="edge">
<title>Node17&#45;&gt;Node94</title>
<path fill="none" stroke="midnightblue" d="M1259.02,-229.93C1276.56,-218.46 1300.77,-202.63 1315.49,-193.01"/>
<polygon fill="midnightblue" stroke="midnightblue" points="1256.99,-227.07 1250.54,-235.48 1260.82,-232.93 1256.99,-227.07"/>
</g>
<!-- Node95 -->
<g id="node37" class="node">
<title>Node95</title>
<g id="a_node37"><a xlink:href="io_8cpp.html" target="_top" xlink:title=" ">
<polygon fill="white" stroke="black" points="1392.5,-174 1392.5,-193 1438.5,-193 1438.5,-174 1392.5,-174"/>
<text text-anchor="middle" x="1415.5" y="-181" font-family="Helvetica,sans-Serif" font-size="10.00">io.cpp</text>
</a>
</g>
</g>
<!-- Node17&#45;&gt;Node95 -->
<g id="edge39" class="edge">
<title>Node17&#45;&gt;Node95</title>
<path fill="none" stroke="midnightblue" d="M1274.17,-234.09C1303.96,-225.71 1346.89,-212.87 1383.5,-199 1388.18,-197.23 1393.14,-195.1 1397.73,-193.03"/>
<polygon fill="midnightblue" stroke="midnightblue" points="1272.91,-230.81 1264.22,-236.86 1274.79,-237.55 1272.91,-230.81"/>
</g>
<!-- Node96 -->
<g id="node38" class="node">
<title>Node96</title>
<g id="a_node38"><a xlink:href="_a_b_l_8cpp.html" target="_top" xlink:title=" ">
<polygon fill="white" stroke="black" points="1456.5,-174 1456.5,-193 1512.5,-193 1512.5,-174 1456.5,-174"/>
<text text-anchor="middle" x="1484.5" y="-181" font-family="Helvetica,sans-Serif" font-size="10.00">ABL.cpp</text>
</a>
</g>
</g>
<!-- Node17&#45;&gt;Node96 -->
<g id="edge40" class="edge">
<title>Node17&#45;&gt;Node96</title>
<path fill="none" stroke="midnightblue" d="M1274.03,-234.98C1352.24,-217.7 1374.76,-220.61 1447.5,-199 1453.06,-197.35 1458.95,-195.22 1464.36,-193.11"/>
<polygon fill="midnightblue" stroke="midnightblue" points="1273.19,-231.58 1264.21,-237.19 1274.73,-238.41 1273.19,-231.58"/>
</g>
<!-- Node26&#45;&gt;Node19 -->
<g id="edge26" class="edge">
<title>Node26&#45;&gt;Node19</title>
<path fill="none" stroke="midnightblue" d="M1725.21,-165.51C1732.87,-154.39 1742.55,-140.34 1748.64,-131.51"/>
<polygon fill="midnightblue" stroke="midnightblue" points="1722.17,-163.75 1719.37,-173.98 1727.93,-167.73 1722.17,-163.75"/>
</g>
<!-- Node26&#45;&gt;Node20 -->
<g id="edge27" class="edge">
<title>Node26&#45;&gt;Node20</title>
<path fill="none" stroke="midnightblue" d="M1666.02,-171.73C1660.45,-170.47 1654.85,-169.2 1649.5,-168 1592.81,-155.23 1527.1,-140.54 1486.67,-131.51"/>
<polygon fill="midnightblue" stroke="midnightblue" points="1665.41,-175.18 1675.94,-173.97 1666.96,-168.35 1665.41,-175.18"/>
</g>
<!-- Node93 -->
<g id="node27" class="node">
<title>Node93</title>
<g id="a_node27"><a xlink:href="_turb_model_defs_8_h.html" target="_top" xlink:title=" ">
<polygon fill="white" stroke="red" points="872.5,-112.5 872.5,-131.5 972.5,-131.5 972.5,-112.5 872.5,-112.5"/>
<text text-anchor="middle" x="922.5" y="-119.5" font-family="Helvetica,sans-Serif" font-size="10.00">TurbModelDefs.H</text>
</a>
</g>
</g>
<!-- Node26&#45;&gt;Node93 -->
<g id="edge28" class="edge">
<title>Node26&#45;&gt;Node93</title>
<path fill="none" stroke="midnightblue" d="M1670.46,-171.75C1663.49,-170.3 1656.32,-168.98 1649.5,-168 1396.95,-131.82 1090.94,-124.72 972.58,-123.33"/>
<polygon fill="midnightblue" stroke="midnightblue" points="1669.95,-175.23 1680.47,-173.95 1671.45,-168.39 1669.95,-175.23"/>
</g>
<!-- Node79 -->
<g id="node28" class="node">
<title>Node79</title>
<g id="a_node28"><a xlink:href="_laminar_model_8cpp.html" target="_top" xlink:title=" ">
<polygon fill="white" stroke="black" points="508,-56.5 508,-75.5 615,-75.5 615,-56.5 508,-56.5"/>
<text text-anchor="middle" x="561.5" y="-63.5" font-family="Helvetica,sans-Serif" font-size="10.00">LaminarModel.cpp</text>
</a>
</g>
</g>
<!-- Node93&#45;&gt;Node79 -->
<g id="edge29" class="edge">
<title>Node93&#45;&gt;Node79</title>
<path fill="none" stroke="midnightblue" d="M862.02,-111.95C792.99,-101.63 681.11,-84.89 615.09,-75.02"/>
<polygon fill="midnightblue" stroke="midnightblue" points="861.9,-115.47 872.3,-113.49 862.93,-108.55 861.9,-115.47"/>
</g>
<!-- Node82 -->
<g id="node29" class="node">
<title>Node82</title>
<g id="a_node29"><a xlink:href="_a_m_d_8cpp.html" target="_top" xlink:title=" ">
<polygon fill="white" stroke="black" points="633.5,-56.5 633.5,-75.5 693.5,-75.5 693.5,-56.5 633.5,-56.5"/>
<text text-anchor="middle" x="663.5" y="-63.5" font-family="Helvetica,sans-Serif" font-size="10.00">AMD.cpp</text>
</a>
</g>
</g>
<!-- Node93&#45;&gt;Node82 -->
<g id="edge30" class="edge">
<title>Node93&#45;&gt;Node82</title>
<path fill="none" stroke="midnightblue" d="M868.99,-110.44C824.39,-101.55 759.22,-88.34 702.5,-76 699.65,-75.38 696.68,-74.72 693.72,-74.05"/>
<polygon fill="midnightblue" stroke="midnightblue" points="868.53,-113.92 879.02,-112.44 869.9,-107.06 868.53,-113.92"/>
</g>
<!-- Node84 -->
<g id="node30" class="node">
<title>Node84</title>
<g id="a_node30"><a xlink:href="_a_m_d_no_therm_8cpp.html" target="_top" xlink:title=" ">
<polygon fill="white" stroke="black" points="712,-56.5 712,-75.5 817,-75.5 817,-56.5 712,-56.5"/>
<text text-anchor="middle" x="764.5" y="-63.5" font-family="Helvetica,sans-Serif" font-size="10.00">AMDNoTherm.cpp</text>
</a>
</g>
</g>
<!-- Node93&#45;&gt;Node84 -->
<g id="edge31" class="edge">
<title>Node93&#45;&gt;Node84</title>
<path fill="none" stroke="midnightblue" d="M887.89,-109.17C858.14,-99 815.95,-84.59 789.42,-75.52"/>
<polygon fill="midnightblue" stroke="midnightblue" points="886.87,-112.52 897.46,-112.44 889.13,-105.9 886.87,-112.52"/>
</g>
<!-- Node87 -->
<g id="node31" class="node">
<title>Node87</title>
<g id="a_node31"><a xlink:href="_kosovic_8cpp.html" target="_top" xlink:title=" ">
<polygon fill="white" stroke="black" points="835.5,-56.5 835.5,-75.5 909.5,-75.5 909.5,-56.5 835.5,-56.5"/>
<text text-anchor="middle" x="872.5" y="-63.5" font-family="Helvetica,sans-Serif" font-size="10.00">Kosovic.cpp</text>
</a>
</g>
</g>
<!-- Node93&#45;&gt;Node87 -->
<g id="edge32" class="edge">
<title>Node93&#45;&gt;Node87</title>
<path fill="none" stroke="midnightblue" d="M907.42,-104.72C898.61,-95.2 887.83,-83.56 880.6,-75.75"/>
<polygon fill="midnightblue" stroke="midnightblue" points="904.88,-107.12 914.24,-112.08 910.02,-102.37 904.88,-107.12"/>
</g>
<!-- Node65 -->
<g id="node32" class="node">
<title>Node65</title>
<g id="a_node32"><a xlink:href="_one_eq_ksgs_8cpp.html" target="_top" xlink:title=" ">
<polygon fill="white" stroke="black" points="927.5,-56.5 927.5,-75.5 1019.5,-75.5 1019.5,-56.5 927.5,-56.5"/>
<text text-anchor="middle" x="973.5" y="-63.5" font-family="Helvetica,sans-Serif" font-size="10.00">OneEqKsgs.cpp</text>
</a>
</g>
</g>
<!-- Node93&#45;&gt;Node65 -->
<g id="edge33" class="edge">
<title>Node93&#45;&gt;Node65</title>
<path fill="none" stroke="midnightblue" d="M937.88,-104.72C946.87,-95.2 957.86,-83.56 965.24,-75.75"/>
<polygon fill="midnightblue" stroke="midnightblue" points="935.24,-102.41 930.92,-112.08 940.33,-107.22 935.24,-102.41"/>
</g>
<!-- Node90 -->
<g id="node33" class="node">
<title>Node90</title>
<g id="a_node33"><a xlink:href="_smagorinsky_8cpp.html" target="_top" xlink:title=" ">
<polygon fill="white" stroke="black" points="1037.5,-56.5 1037.5,-75.5 1135.5,-75.5 1135.5,-56.5 1037.5,-56.5"/>
<text text-anchor="middle" x="1086.5" y="-63.5" font-family="Helvetica,sans-Serif" font-size="10.00">Smagorinsky.cpp</text>
</a>
</g>
</g>
<!-- Node93&#45;&gt;Node90 -->
<g id="edge34" class="edge">
<title>Node93&#45;&gt;Node90</title>
<path fill="none" stroke="midnightblue" d="M958.02,-109.3C988.92,-99.13 1032.97,-84.62 1060.64,-75.52"/>
<polygon fill="midnightblue" stroke="midnightblue" points="956.89,-105.99 948.49,-112.44 959.08,-112.64 956.89,-105.99"/>
</g>
<!-- Node59 -->
<g id="node34" class="node">
<title>Node59</title>
<g id="a_node34"><a xlink:href="_k_omega_s_s_t_8cpp.html" target="_top" xlink:title=" ">
<polygon fill="white" stroke="black" points="1152,-0.5 1152,-19.5 1247,-19.5 1247,-0.5 1152,-0.5"/>
<text text-anchor="middle" x="1199.5" y="-7.5" font-family="Helvetica,sans-Serif" font-size="10.00">KOmegaSST.cpp</text>
</a>
</g>
</g>
<!-- Node93&#45;&gt;Node59 -->
<g id="edge35" class="edge">
<title>Node93&#45;&gt;Node59</title>
<path fill="none" stroke="midnightblue" d="M982.61,-119.43C1029.59,-115.8 1095,-105.29 1144.5,-76 1168.16,-62 1186.48,-34.03 1194.72,-19.78"/>
<polygon fill="midnightblue" stroke="midnightblue" points="982.32,-115.94 972.58,-120.12 982.8,-122.92 982.32,-115.94"/>
</g>
<!-- Node60 -->
<g id="node35" class="node">
<title>Node60</title>
<g id="a_node35"><a xlink:href="_k_omega_s_s_t_i_8_h.html" target="_top" xlink:title=" ">
<polygon fill="white" stroke="red" points="1192,-56.5 1192,-75.5 1281,-75.5 1281,-56.5 1192,-56.5"/>
<text text-anchor="middle" x="1236.5" y="-63.5" font-family="Helvetica,sans-Serif" font-size="10.00">KOmegaSSTI.H</text>
</a>
</g>
</g>
<!-- Node93&#45;&gt;Node60 -->
<g id="edge36" class="edge">
<title>Node93&#45;&gt;Node60</title>
<path fill="none" stroke="midnightblue" d="M982.13,-110.75C1043.12,-100.26 1136.52,-84.19 1191.56,-74.73"/>
<polygon fill="midnightblue" stroke="midnightblue" points="981.52,-107.3 972.25,-112.44 982.7,-114.2 981.52,-107.3"/>
</g>
<!-- Node60&#45;&gt;Node59 -->
<g id="edge37" class="edge">
<title>Node60&#45;&gt;Node59</title>
<path fill="none" stroke="midnightblue" d="M1224.55,-47.57C1218.19,-38.27 1210.63,-27.25 1205.5,-19.75"/>
<polygon fill="midnightblue" stroke="midnightblue" points="1221.85,-49.81 1230.39,-56.08 1227.63,-45.86 1221.85,-49.81"/>
</g>
<!-- Node106&#45;&gt;Node93 -->
<g id="edge52" class="edge">
<title>Node106&#45;&gt;Node93</title>
<path fill="none" stroke="midnightblue" d="M1061.97,-235.23C991.5,-230.17 728.92,-227.1 703.5,-199 653.01,-143.19 793.14,-128.36 872.34,-124.42"/>
<polygon fill="midnightblue" stroke="midnightblue" points="1061.91,-238.74 1072.18,-236.14 1062.53,-231.77 1061.91,-238.74"/>
</g>
</g>
</svg>
        <g id="navigator" transform="translate(0 0)" fill="#404254">
                <rect fill="#f2f5e9" fill-opacity="0.5" stroke="#606060" stroke-width=".5" x="0" y="0" width="60" height="60"/>
                <use id="zoomplus" xlink:href="#zoomPlus" x="17" y="9" onmousedown="handleZoom(evt,'in')"/>
                <use id="zoomminus" xlink:href="#zoomMin" x="42" y="9" onmousedown="handleZoom(evt,'out')"/>
                <use id="reset" xlink:href="#resetDef" x="30" y="36" onmousedown="handleReset()"/>
                <g id="arrowUp" xlink:href="#dirArrow" transform="translate(30 24)" onmousedown="handlePan(0,-1)">
                  <use xlink:href="#rim" fill="#404040">
                        <set attributeName="fill" to="#808080" begin="arrowUp.mouseover" end="arrowUp.mouseout"/>
                  </use>
                  <path fill="none" stroke="white" stroke-width="1.5" d="M0,-3.0v7 M-2.5,-0.5L0,-3.0L2.5,-0.5"/>
                </g>
                <g id="arrowRight" xlink:href="#dirArrow" transform="rotate(90) translate(36 -43)" onmousedown="handlePan(1,0)">
                  <use xlink:href="#rim" fill="#404040">
                        <set attributeName="fill" to="#808080" begin="arrowRight.mouseover" end="arrowRight.mouseout"/>
                  </use>
                  <path fill="none" stroke="white" stroke-width="1.5" d="M0,-3.0v7 M-2.5,-0.5L0,-3.0L2.5,-0.5"/>
                </g>
                <g id="arrowDown" xlink:href="#dirArrow" transform="rotate(180) translate(-30 -48)" onmousedown="handlePan(0,1)">
                  <use xlink:href="#rim" fill="#404040">
                        <set attributeName="fill" to="#808080" begin="arrowDown.mouseover" end="arrowDown.mouseout"/>
                  </use>
                  <path fill="none" stroke="white" stroke-width="1.5" d="M0,-3.0v7 M-2.5,-0.5L0,-3.0L2.5,-0.5"/>
                </g>
                <g id="arrowLeft" xlink:href="#dirArrow" transform="rotate(270) translate(-36 17)" onmousedown="handlePan(-1,0)">
                  <use xlink:href="#rim" fill="#404040">
                        <set attributeName="fill" to="#808080" begin="arrowLeft.mouseover" end="arrowLeft.mouseout"/>
                  </use>
                  <path fill="none" stroke="white" stroke-width="1.5" d="M0,-3.0v7 M-2.5,-0.5L0,-3.0L2.5,-0.5"/>
                </g>
        </g>
        <svg viewBox="0 0 15 15" width="100%" height="30px" preserveAspectRatio="xMaxYMin meet">
         <g id="arrow_out" transform="scale(0.3 0.3)">
          <a xlink:href="_multi_phase_8_h__dep__incl_org.svg" target="_base">
           <rect id="button" ry="5" rx="5" y="6" x="6" height="38" width="38"
                fill="#f2f5e9" fill-opacity="0.5" stroke="#606060" stroke-width="1.0"/>
           <path id="arrow"
             d="M 11.500037,31.436501 C 11.940474,20.09759 22.043105,11.32322 32.158766,21.979434 L 37.068811,17.246167 C 37.068811,17.246167 37.088388,32 37.088388,32 L 22.160133,31.978069 C 22.160133,31.978069 26.997745,27.140456 26.997745,27.140456 C 18.528582,18.264221 13.291696,25.230495 11.500037,31.436501 z"
             style="fill:#404040;"/>
          </a>
         </g>
        </svg>
</svg>
