<?xml version="1.0" encoding="UTF-8" standalone="no"?>
<!DOCTYPE svg PUBLIC "-//W3C//DTD SVG 1.1//EN"
 "http://www.w3.org/Graphics/SVG/1.1/DTD/svg11.dtd">
<!-- Generated by graphviz version 2.43.0 (0)
 -->
<!-- Title: PDE.H Pages: 1 -->
<svg width="2691pt" height="196pt"
 viewBox="0.00 0.00 2691.00 196.00" xmlns="http://www.w3.org/2000/svg" xmlns:xlink="http://www.w3.org/1999/xlink">
<g id="graph0" class="graph" transform="scale(1 1) rotate(0) translate(4 192)">
<title>PDE.H</title>
<polygon fill="white" stroke="transparent" points="-4,4 -4,-192 2687,-192 2687,4 -4,4"/>
<!-- Node1 -->
<g id="node1" class="node">
<title>Node1</title>
<g id="a_node1"><a xlink:title=" ">
<polygon fill="#bfbfbf" stroke="black" points="1573,-168.5 1573,-187.5 1620,-187.5 1620,-168.5 1573,-168.5"/>
<text text-anchor="middle" x="1596.5" y="-175.5" font-family="Helvetica,sans-Serif" font-size="10.00">PDE.H</text>
</a>
</g>
</g>
<!-- Node2 -->
<g id="node2" class="node">
<title>Node2</title>
<g id="a_node2"><a xlink:href="density_8_h.html" target="_top" xlink:title=" ">
<polygon fill="white" stroke="black" points="39.5,-112.5 39.5,-131.5 101.5,-131.5 101.5,-112.5 39.5,-112.5"/>
<text text-anchor="middle" x="70.5" y="-119.5" font-family="Helvetica,sans-Serif" font-size="10.00">density.H</text>
</a>
</g>
</g>
<!-- Node1&#45;&gt;Node2 -->
<g id="edge1" class="edge">
<title>Node1&#45;&gt;Node2</title>
<path fill="none" stroke="midnightblue" d="M1562.75,-175.81C1359.24,-168.6 297.96,-131.05 101.72,-124.1"/>
<polygon fill="midnightblue" stroke="midnightblue" points="1562.72,-179.31 1572.84,-176.16 1562.97,-172.31 1562.72,-179.31"/>
</g>
<!-- Node5 -->
<g id="node5" class="node">
<title>Node5</title>
<g id="a_node5"><a xlink:href="icns_8_h.html" target="_top" xlink:title=" ">
<polygon fill="white" stroke="black" points="668,-112.5 668,-131.5 715,-131.5 715,-112.5 668,-112.5"/>
<text text-anchor="middle" x="691.5" y="-119.5" font-family="Helvetica,sans-Serif" font-size="10.00">icns.H</text>
</a>
</g>
</g>
<!-- Node1&#45;&gt;Node5 -->
<g id="edge5" class="edge">
<title>Node1&#45;&gt;Node5</title>
<path fill="none" stroke="midnightblue" d="M1562.59,-174.98C1416.19,-166.24 840.16,-131.87 715.41,-124.43"/>
<polygon fill="midnightblue" stroke="midnightblue" points="1562.57,-178.48 1572.76,-175.58 1562.98,-171.49 1562.57,-178.48"/>
</g>
<!-- Node18 -->
<g id="node18" class="node">
<title>Node18</title>
<g id="a_node18"><a xlink:href="levelset_8_h.html" target="_top" xlink:title=" ">
<polygon fill="white" stroke="black" points="1326.5,-112.5 1326.5,-131.5 1392.5,-131.5 1392.5,-112.5 1326.5,-112.5"/>
<text text-anchor="middle" x="1359.5" y="-119.5" font-family="Helvetica,sans-Serif" font-size="10.00">levelset.H</text>
</a>
</g>
</g>
<!-- Node1&#45;&gt;Node18 -->
<g id="edge22" class="edge">
<title>Node1&#45;&gt;Node18</title>
<path fill="none" stroke="midnightblue" d="M1563.02,-169.37C1517.85,-159.08 1437.88,-140.86 1392.8,-130.59"/>
<polygon fill="midnightblue" stroke="midnightblue" points="1562.38,-172.82 1572.91,-171.62 1563.94,-165.99 1562.38,-172.82"/>
</g>
<!-- Node21 -->
<g id="node21" class="node">
<title>Node21</title>
<g id="a_node21"><a xlink:href="passive__scalar_8_h.html" target="_top" xlink:title=" ">
<polygon fill="white" stroke="black" points="1464.5,-112.5 1464.5,-131.5 1562.5,-131.5 1562.5,-112.5 1464.5,-112.5"/>
<text text-anchor="middle" x="1513.5" y="-119.5" font-family="Helvetica,sans-Serif" font-size="10.00">passive_scalar.H</text>
</a>
</g>
</g>
<!-- Node1&#45;&gt;Node21 -->
<g id="edge26" class="edge">
<title>Node1&#45;&gt;Node21</title>
<path fill="none" stroke="midnightblue" d="M1574.4,-162.62C1559.24,-152.76 1539.62,-139.99 1526.8,-131.65"/>
<polygon fill="midnightblue" stroke="midnightblue" points="1572.87,-165.8 1583.16,-168.32 1576.69,-159.94 1572.87,-165.8"/>
</g>
<!-- Node23 -->
<g id="node23" class="node">
<title>Node23</title>
<g id="a_node23"><a xlink:href="_s_d_r_8_h.html" target="_top" xlink:title=" ">
<polygon fill="white" stroke="black" points="1638,-112.5 1638,-131.5 1685,-131.5 1685,-112.5 1638,-112.5"/>
<text text-anchor="middle" x="1661.5" y="-119.5" font-family="Helvetica,sans-Serif" font-size="10.00">SDR.H</text>
</a>
</g>
</g>
<!-- Node1&#45;&gt;Node23 -->
<g id="edge28" class="edge">
<title>Node1&#45;&gt;Node23</title>
<path fill="none" stroke="midnightblue" d="M1614.77,-161.82C1626.42,-152.15 1641.1,-139.95 1650.87,-131.83"/>
<polygon fill="midnightblue" stroke="midnightblue" points="1612.4,-159.24 1606.94,-168.32 1616.87,-164.63 1612.4,-159.24"/>
</g>
<!-- Node29 -->
<g id="node29" class="node">
<title>Node29</title>
<g id="a_node29"><a xlink:href="temperature_8_h.html" target="_top" xlink:title=" ">
<polygon fill="white" stroke="black" points="2136.5,-112.5 2136.5,-131.5 2224.5,-131.5 2224.5,-112.5 2136.5,-112.5"/>
<text text-anchor="middle" x="2180.5" y="-119.5" font-family="Helvetica,sans-Serif" font-size="10.00">temperature.H</text>
</a>
</g>
</g>
<!-- Node1&#45;&gt;Node29 -->
<g id="edge37" class="edge">
<title>Node1&#45;&gt;Node29</title>
<path fill="none" stroke="midnightblue" d="M1630.24,-173.88C1730.15,-164.64 2024.41,-137.43 2136.48,-127.07"/>
<polygon fill="midnightblue" stroke="midnightblue" points="1629.75,-170.41 1620.12,-174.82 1630.4,-177.38 1629.75,-170.41"/>
</g>
<!-- Node31 -->
<g id="node31" class="node">
<title>Node31</title>
<g id="a_node31"><a xlink:href="_t_k_e_8_h.html" target="_top" xlink:title=" ">
<polygon fill="white" stroke="black" points="1943.5,-112.5 1943.5,-131.5 1989.5,-131.5 1989.5,-112.5 1943.5,-112.5"/>
<text text-anchor="middle" x="1966.5" y="-119.5" font-family="Helvetica,sans-Serif" font-size="10.00">TKE.H</text>
</a>
</g>
</g>
<!-- Node1&#45;&gt;Node31 -->
<g id="edge39" class="edge">
<title>Node1&#45;&gt;Node31</title>
<path fill="none" stroke="midnightblue" d="M1630.41,-172.05C1704.75,-161.2 1880.41,-135.56 1943.46,-126.36"/>
<polygon fill="midnightblue" stroke="midnightblue" points="1629.6,-168.63 1620.21,-173.54 1630.61,-175.56 1629.6,-168.63"/>
</g>
<!-- Node36 -->
<g id="node36" class="node">
<title>Node36</title>
<g id="a_node36"><a xlink:href="vof_8_h.html" target="_top" xlink:title=" ">
<polygon fill="white" stroke="black" points="2441.5,-112.5 2441.5,-131.5 2483.5,-131.5 2483.5,-112.5 2441.5,-112.5"/>
<text text-anchor="middle" x="2462.5" y="-119.5" font-family="Helvetica,sans-Serif" font-size="10.00">vof.H</text>
</a>
</g>
</g>
<!-- Node1&#45;&gt;Node36 -->
<g id="edge48" class="edge">
<title>Node1&#45;&gt;Node36</title>
<path fill="none" stroke="midnightblue" d="M1630.45,-174.88C1773.61,-165.96 2325.89,-131.52 2441.29,-124.32"/>
<polygon fill="midnightblue" stroke="midnightblue" points="1629.88,-171.41 1620.11,-175.53 1630.31,-178.4 1629.88,-171.41"/>
</g>
<!-- Node3 -->
<g id="node3" class="node">
<title>Node3</title>
<g id="a_node3"><a xlink:href="density_8cpp.html" target="_top" xlink:title=" ">
<polygon fill="white" stroke="black" points="0,-0.5 0,-19.5 71,-19.5 71,-0.5 0,-0.5"/>
<text text-anchor="middle" x="35.5" y="-7.5" font-family="Helvetica,sans-Serif" font-size="10.00">density.cpp</text>
</a>
</g>
</g>
<!-- Node2&#45;&gt;Node3 -->
<g id="edge2" class="edge">
<title>Node2&#45;&gt;Node3</title>
<path fill="none" stroke="midnightblue" d="M46.13,-106.73C35.55,-99.09 24.28,-88.64 18.5,-76 9.77,-56.9 21.72,-32.53 29.59,-19.74"/>
<polygon fill="midnightblue" stroke="midnightblue" points="44.46,-109.82 54.72,-112.47 48.35,-104 44.46,-109.82"/>
</g>
<!-- Node4 -->
<g id="node4" class="node">
<title>Node4</title>
<g id="a_node4"><a xlink:href="density__ops_8_h.html" target="_top" xlink:title=" ">
<polygon fill="white" stroke="black" points="27.5,-56.5 27.5,-75.5 113.5,-75.5 113.5,-56.5 27.5,-56.5"/>
<text text-anchor="middle" x="70.5" y="-63.5" font-family="Helvetica,sans-Serif" font-size="10.00">density_ops.H</text>
</a>
</g>
</g>
<!-- Node2&#45;&gt;Node4 -->
<g id="edge3" class="edge">
<title>Node2&#45;&gt;Node4</title>
<path fill="none" stroke="midnightblue" d="M70.5,-101.8C70.5,-92.91 70.5,-82.78 70.5,-75.75"/>
<polygon fill="midnightblue" stroke="midnightblue" points="67,-102.08 70.5,-112.08 74,-102.08 67,-102.08"/>
</g>
<!-- Node4&#45;&gt;Node3 -->
<g id="edge4" class="edge">
<title>Node4&#45;&gt;Node3</title>
<path fill="none" stroke="midnightblue" d="M59.2,-47.57C53.18,-38.27 46.03,-27.25 41.17,-19.75"/>
<polygon fill="midnightblue" stroke="midnightblue" points="56.34,-49.6 64.72,-56.08 62.22,-45.79 56.34,-49.6"/>
</g>
<!-- Node6 -->
<g id="node6" class="node">
<title>Node6</title>
<g id="a_node6"><a xlink:href="icns_8cpp.html" target="_top" xlink:title=" ">
<polygon fill="white" stroke="black" points="613.5,-0.5 613.5,-19.5 669.5,-19.5 669.5,-0.5 613.5,-0.5"/>
<text text-anchor="middle" x="641.5" y="-7.5" font-family="Helvetica,sans-Serif" font-size="10.00">icns.cpp</text>
</a>
</g>
</g>
<!-- Node5&#45;&gt;Node6 -->
<g id="edge6" class="edge">
<title>Node5&#45;&gt;Node6</title>
<path fill="none" stroke="midnightblue" d="M657.65,-118.38C606.16,-113.61 511.94,-101.55 491.5,-76 457.1,-33.01 560.98,-17.85 613.31,-13.03"/>
<polygon fill="midnightblue" stroke="midnightblue" points="657.38,-121.87 667.65,-119.26 658,-114.89 657.38,-121.87"/>
</g>
<!-- Node7 -->
<g id="node7" class="node">
<title>Node7</title>
<g id="a_node7"><a xlink:href="icns__advection_8_h.html" target="_top" xlink:title=" ">
<polygon fill="white" stroke="black" points="794.5,-56.5 794.5,-75.5 894.5,-75.5 894.5,-56.5 794.5,-56.5"/>
<text text-anchor="middle" x="844.5" y="-63.5" font-family="Helvetica,sans-Serif" font-size="10.00">icns_advection.H</text>
</a>
</g>
</g>
<!-- Node5&#45;&gt;Node7 -->
<g id="edge7" class="edge">
<title>Node5&#45;&gt;Node7</title>
<path fill="none" stroke="midnightblue" d="M724.72,-109.28C753.55,-99.1 794.62,-84.61 820.4,-75.51"/>
<polygon fill="midnightblue" stroke="midnightblue" points="723.34,-106.05 715.07,-112.68 725.67,-112.65 723.34,-106.05"/>
</g>
<!-- Node9 -->
<g id="node9" class="node">
<title>Node9</title>
<g id="a_node9"><a xlink:href="icns__bcop_8_h.html" target="_top" xlink:title=" ">
<polygon fill="white" stroke="black" points="501,-56.5 501,-75.5 576,-75.5 576,-56.5 501,-56.5"/>
<text text-anchor="middle" x="538.5" y="-63.5" font-family="Helvetica,sans-Serif" font-size="10.00">icns_bcop.H</text>
</a>
</g>
</g>
<!-- Node5&#45;&gt;Node9 -->
<g id="edge10" class="edge">
<title>Node5&#45;&gt;Node9</title>
<path fill="none" stroke="midnightblue" d="M658.28,-109.28C629.45,-99.1 588.38,-84.61 562.6,-75.51"/>
<polygon fill="midnightblue" stroke="midnightblue" points="657.33,-112.65 667.93,-112.68 659.66,-106.05 657.33,-112.65"/>
</g>
<!-- Node10 -->
<g id="node10" class="node">
<title>Node10</title>
<g id="a_node10"><a xlink:href="icns__diffusion_8_h.html" target="_top" xlink:title=" ">
<polygon fill="white" stroke="black" points="594.5,-56.5 594.5,-75.5 688.5,-75.5 688.5,-56.5 594.5,-56.5"/>
<text text-anchor="middle" x="641.5" y="-63.5" font-family="Helvetica,sans-Serif" font-size="10.00">icns_diffusion.H</text>
</a>
</g>
</g>
<!-- Node5&#45;&gt;Node10 -->
<g id="edge12" class="edge">
<title>Node5&#45;&gt;Node10</title>
<path fill="none" stroke="midnightblue" d="M676.42,-104.72C667.61,-95.2 656.83,-83.56 649.6,-75.75"/>
<polygon fill="midnightblue" stroke="midnightblue" points="673.88,-107.12 683.24,-112.08 679.02,-102.37 673.88,-107.12"/>
</g>
<!-- Node11 -->
<g id="node11" class="node">
<title>Node11</title>
<g id="a_node11"><a xlink:href="icns__ops_8_h.html" target="_top" xlink:title=" ">
<polygon fill="white" stroke="black" points="707,-56.5 707,-75.5 776,-75.5 776,-56.5 707,-56.5"/>
<text text-anchor="middle" x="741.5" y="-63.5" font-family="Helvetica,sans-Serif" font-size="10.00">icns_ops.H</text>
</a>
</g>
</g>
<!-- Node5&#45;&gt;Node11 -->
<g id="edge14" class="edge">
<title>Node5&#45;&gt;Node11</title>
<path fill="none" stroke="midnightblue" d="M706.58,-104.72C715.39,-95.2 726.17,-83.56 733.4,-75.75"/>
<polygon fill="midnightblue" stroke="midnightblue" points="703.98,-102.37 699.76,-112.08 709.12,-107.12 703.98,-102.37"/>
</g>
<!-- Node12 -->
<g id="node12" class="node">
<title>Node12</title>
<g id="a_node12"><a xlink:href="_burggraf_lid_8cpp.html" target="_top" xlink:title=" ">
<polygon fill="white" stroke="black" points="913,-56.5 913,-75.5 1006,-75.5 1006,-56.5 913,-56.5"/>
<text text-anchor="middle" x="959.5" y="-63.5" font-family="Helvetica,sans-Serif" font-size="10.00">BurggrafLid.cpp</text>
</a>
</g>
</g>
<!-- Node5&#45;&gt;Node12 -->
<g id="edge16" class="edge">
<title>Node5&#45;&gt;Node12</title>
<path fill="none" stroke="midnightblue" d="M725.31,-114.19C774.02,-104.37 863.92,-86.26 917.04,-75.56"/>
<polygon fill="midnightblue" stroke="midnightblue" points="724.39,-110.8 715.28,-116.21 725.78,-117.66 724.39,-110.8"/>
</g>
<!-- Node13 -->
<g id="node13" class="node">
<title>Node13</title>
<g id="a_node13"><a xlink:href="_custom_scalar_8cpp.html" target="_top" xlink:title=" ">
<polygon fill="white" stroke="black" points="1024.5,-56.5 1024.5,-75.5 1128.5,-75.5 1128.5,-56.5 1024.5,-56.5"/>
<text text-anchor="middle" x="1076.5" y="-63.5" font-family="Helvetica,sans-Serif" font-size="10.00">CustomScalar.cpp</text>
</a>
</g>
</g>
<!-- Node5&#45;&gt;Node13 -->
<g id="edge17" class="edge">
<title>Node5&#45;&gt;Node13</title>
<path fill="none" stroke="midnightblue" d="M725.19,-116.37C783.95,-108.28 908.96,-91.01 1014.5,-76 1017.73,-75.54 1021.06,-75.07 1024.41,-74.58"/>
<polygon fill="midnightblue" stroke="midnightblue" points="724.44,-112.94 715.01,-117.77 725.4,-119.88 724.44,-112.94"/>
</g>
<!-- Node14 -->
<g id="node14" class="node">
<title>Node14</title>
<g id="a_node14"><a xlink:href="_custom_velocity_8cpp.html" target="_top" xlink:title=" ">
<polygon fill="white" stroke="black" points="1146.5,-56.5 1146.5,-75.5 1258.5,-75.5 1258.5,-56.5 1146.5,-56.5"/>
<text text-anchor="middle" x="1202.5" y="-63.5" font-family="Helvetica,sans-Serif" font-size="10.00">CustomVelocity.cpp</text>
</a>
</g>
</g>
<!-- Node5&#45;&gt;Node14 -->
<g id="edge18" class="edge">
<title>Node5&#45;&gt;Node14</title>
<path fill="none" stroke="midnightblue" d="M725.42,-118.01C800.03,-111.34 983.94,-94.37 1137.5,-76 1140.44,-75.65 1143.46,-75.27 1146.5,-74.89"/>
<polygon fill="midnightblue" stroke="midnightblue" points="724.88,-114.54 715.23,-118.92 725.5,-121.52 724.88,-114.54"/>
</g>
<!-- Node15 -->
<g id="node15" class="node">
<title>Node15</title>
<g id="a_node15"><a xlink:href="_power_law_profile_8cpp.html" target="_top" xlink:title=" ">
<polygon fill="white" stroke="black" points="132,-56.5 132,-75.5 249,-75.5 249,-56.5 132,-56.5"/>
<text text-anchor="middle" x="190.5" y="-63.5" font-family="Helvetica,sans-Serif" font-size="10.00">PowerLawProfile.cpp</text>
</a>
</g>
</g>
<!-- Node5&#45;&gt;Node15 -->
<g id="edge19" class="edge">
<title>Node5&#45;&gt;Node15</title>
<path fill="none" stroke="midnightblue" d="M657.97,-117.87C585.06,-110.99 406.62,-93.74 257.5,-76 254.82,-75.68 252.08,-75.35 249.31,-75"/>
<polygon fill="midnightblue" stroke="midnightblue" points="657.67,-121.36 667.95,-118.81 658.32,-114.39 657.67,-121.36"/>
</g>
<!-- Node16 -->
<g id="node16" class="node">
<title>Node16</title>
<g id="a_node16"><a xlink:href="_rankine_8cpp.html" target="_top" xlink:title=" ">
<polygon fill="white" stroke="black" points="267,-56.5 267,-75.5 344,-75.5 344,-56.5 267,-56.5"/>
<text text-anchor="middle" x="305.5" y="-63.5" font-family="Helvetica,sans-Serif" font-size="10.00">Rankine.cpp</text>
</a>
</g>
</g>
<!-- Node5&#45;&gt;Node16 -->
<g id="edge20" class="edge">
<title>Node5&#45;&gt;Node16</title>
<path fill="none" stroke="midnightblue" d="M657.46,-117.07C596.41,-109.9 464.34,-93.76 353.5,-76 350.49,-75.52 347.37,-74.99 344.24,-74.45"/>
<polygon fill="midnightblue" stroke="midnightblue" points="657.33,-120.58 667.67,-118.27 658.14,-113.63 657.33,-120.58"/>
</g>
<!-- Node17 -->
<g id="node17" class="node">
<title>Node17</title>
<g id="a_node17"><a xlink:href="_two_layer_8cpp.html" target="_top" xlink:title=" ">
<polygon fill="white" stroke="black" points="362.5,-56.5 362.5,-75.5 444.5,-75.5 444.5,-56.5 362.5,-56.5"/>
<text text-anchor="middle" x="403.5" y="-63.5" font-family="Helvetica,sans-Serif" font-size="10.00">TwoLayer.cpp</text>
</a>
</g>
</g>
<!-- Node5&#45;&gt;Node17 -->
<g id="edge21" class="edge">
<title>Node5&#45;&gt;Node17</title>
<path fill="none" stroke="midnightblue" d="M658.03,-114.72C605.01,-104.78 501.87,-85.45 444.5,-74.69"/>
<polygon fill="midnightblue" stroke="midnightblue" points="657.46,-118.18 667.93,-116.58 658.75,-111.3 657.46,-118.18"/>
</g>
<!-- Node7&#45;&gt;Node6 -->
<g id="edge8" class="edge">
<title>Node7&#45;&gt;Node6</title>
<path fill="none" stroke="midnightblue" d="M802.65,-53.87C762.84,-43.28 704.07,-27.64 669.59,-18.47"/>
<polygon fill="midnightblue" stroke="midnightblue" points="801.77,-57.26 812.33,-56.44 803.57,-50.49 801.77,-57.26"/>
</g>
<!-- Node8 -->
<g id="node8" class="node">
<title>Node8</title>
<g id="a_node8"><a xlink:href="icns__advection_8cpp.html" target="_top" xlink:title=" ">
<polygon fill="white" stroke="black" points="789.5,-0.5 789.5,-19.5 899.5,-19.5 899.5,-0.5 789.5,-0.5"/>
<text text-anchor="middle" x="844.5" y="-7.5" font-family="Helvetica,sans-Serif" font-size="10.00">icns_advection.cpp</text>
</a>
</g>
</g>
<!-- Node7&#45;&gt;Node8 -->
<g id="edge9" class="edge">
<title>Node7&#45;&gt;Node8</title>
<path fill="none" stroke="midnightblue" d="M844.5,-45.8C844.5,-36.91 844.5,-26.78 844.5,-19.75"/>
<polygon fill="midnightblue" stroke="midnightblue" points="841,-46.08 844.5,-56.08 848,-46.08 841,-46.08"/>
</g>
<!-- Node9&#45;&gt;Node6 -->
<g id="edge11" class="edge">
<title>Node9&#45;&gt;Node6</title>
<path fill="none" stroke="midnightblue" d="M564.08,-51.59C583.12,-41.61 608.56,-28.27 624.99,-19.65"/>
<polygon fill="midnightblue" stroke="midnightblue" points="562.28,-48.58 555.05,-56.32 565.53,-54.78 562.28,-48.58"/>
</g>
<!-- Node10&#45;&gt;Node6 -->
<g id="edge13" class="edge">
<title>Node10&#45;&gt;Node6</title>
<path fill="none" stroke="midnightblue" d="M641.5,-45.8C641.5,-36.91 641.5,-26.78 641.5,-19.75"/>
<polygon fill="midnightblue" stroke="midnightblue" points="638,-46.08 641.5,-56.08 645,-46.08 638,-46.08"/>
</g>
<!-- Node11&#45;&gt;Node6 -->
<g id="edge15" class="edge">
<title>Node11&#45;&gt;Node6</title>
<path fill="none" stroke="midnightblue" d="M716.41,-51.45C697.95,-41.48 673.4,-28.23 657.53,-19.65"/>
<polygon fill="midnightblue" stroke="midnightblue" points="714.97,-54.65 725.43,-56.32 718.3,-48.49 714.97,-54.65"/>
</g>
<!-- Node19 -->
<g id="node19" class="node">
<title>Node19</title>
<g id="a_node19"><a xlink:href="levelset_8cpp.html" target="_top" xlink:title=" ">
<polygon fill="white" stroke="black" points="1284.5,-0.5 1284.5,-19.5 1360.5,-19.5 1360.5,-0.5 1284.5,-0.5"/>
<text text-anchor="middle" x="1322.5" y="-7.5" font-family="Helvetica,sans-Serif" font-size="10.00">levelset.cpp</text>
</a>
</g>
</g>
<!-- Node18&#45;&gt;Node19 -->
<g id="edge23" class="edge">
<title>Node18&#45;&gt;Node19</title>
<path fill="none" stroke="midnightblue" d="M1334.32,-107C1323.31,-99.4 1311.54,-88.91 1305.5,-76 1296.59,-56.99 1308.62,-32.58 1316.54,-19.76"/>
<polygon fill="midnightblue" stroke="midnightblue" points="1332.56,-110.03 1342.87,-112.46 1336.33,-104.13 1332.56,-110.03"/>
</g>
<!-- Node20 -->
<g id="node20" class="node">
<title>Node20</title>
<g id="a_node20"><a xlink:href="levelset__ops_8_h.html" target="_top" xlink:title=" ">
<polygon fill="white" stroke="black" points="1315,-56.5 1315,-75.5 1404,-75.5 1404,-56.5 1315,-56.5"/>
<text text-anchor="middle" x="1359.5" y="-63.5" font-family="Helvetica,sans-Serif" font-size="10.00">levelset_ops.H</text>
</a>
</g>
</g>
<!-- Node18&#45;&gt;Node20 -->
<g id="edge24" class="edge">
<title>Node18&#45;&gt;Node20</title>
<path fill="none" stroke="midnightblue" d="M1359.5,-101.8C1359.5,-92.91 1359.5,-82.78 1359.5,-75.75"/>
<polygon fill="midnightblue" stroke="midnightblue" points="1356,-102.08 1359.5,-112.08 1363,-102.08 1356,-102.08"/>
</g>
<!-- Node20&#45;&gt;Node19 -->
<g id="edge25" class="edge">
<title>Node20&#45;&gt;Node19</title>
<path fill="none" stroke="midnightblue" d="M1347.55,-47.57C1341.19,-38.27 1333.63,-27.25 1328.5,-19.75"/>
<polygon fill="midnightblue" stroke="midnightblue" points="1344.85,-49.81 1353.39,-56.08 1350.63,-45.86 1344.85,-49.81"/>
</g>
<!-- Node22 -->
<g id="node22" class="node">
<title>Node22</title>
<g id="a_node22"><a xlink:href="passive__scalar_8cpp.html" target="_top" xlink:title=" ">
<polygon fill="white" stroke="black" points="1422.5,-56.5 1422.5,-75.5 1530.5,-75.5 1530.5,-56.5 1422.5,-56.5"/>
<text text-anchor="middle" x="1476.5" y="-63.5" font-family="Helvetica,sans-Serif" font-size="10.00">passive_scalar.cpp</text>
</a>
</g>
</g>
<!-- Node21&#45;&gt;Node22 -->
<g id="edge27" class="edge">
<title>Node21&#45;&gt;Node22</title>
<path fill="none" stroke="midnightblue" d="M1501.55,-103.57C1495.19,-94.27 1487.63,-83.25 1482.5,-75.75"/>
<polygon fill="midnightblue" stroke="midnightblue" points="1498.85,-105.81 1507.39,-112.08 1504.63,-101.86 1498.85,-105.81"/>
</g>
<!-- Node24 -->
<g id="node24" class="node">
<title>Node24</title>
<g id="a_node24"><a xlink:href="_s_d_r_8cpp.html" target="_top" xlink:title=" ">
<polygon fill="white" stroke="black" points="1556,-0.5 1556,-19.5 1613,-19.5 1613,-0.5 1556,-0.5"/>
<text text-anchor="middle" x="1584.5" y="-7.5" font-family="Helvetica,sans-Serif" font-size="10.00">SDR.cpp</text>
</a>
</g>
</g>
<!-- Node23&#45;&gt;Node24 -->
<g id="edge29" class="edge">
<title>Node23&#45;&gt;Node24</title>
<path fill="none" stroke="midnightblue" d="M1651.88,-103.26C1644.4,-89.91 1633.48,-71.35 1622.5,-56 1612.98,-42.69 1600.52,-28.44 1592.51,-19.62"/>
<polygon fill="midnightblue" stroke="midnightblue" points="1648.98,-105.24 1656.87,-112.31 1655.11,-101.86 1648.98,-105.24"/>
</g>
<!-- Node25 -->
<g id="node25" class="node">
<title>Node25</title>
<g id="a_node25"><a xlink:href="sdr__ops_8_h.html" target="_top" xlink:title=" ">
<polygon fill="white" stroke="black" points="1549,-56.5 1549,-75.5 1614,-75.5 1614,-56.5 1549,-56.5"/>
<text text-anchor="middle" x="1581.5" y="-63.5" font-family="Helvetica,sans-Serif" font-size="10.00">sdr_ops.H</text>
</a>
</g>
</g>
<!-- Node23&#45;&gt;Node25 -->
<g id="edge30" class="edge">
<title>Node23&#45;&gt;Node25</title>
<path fill="none" stroke="midnightblue" d="M1640.2,-106.62C1625.58,-96.76 1606.67,-83.99 1594.32,-75.65"/>
<polygon fill="midnightblue" stroke="midnightblue" points="1638.4,-109.63 1648.65,-112.32 1642.32,-103.83 1638.4,-109.63"/>
</g>
<!-- Node26 -->
<g id="node26" class="node">
<title>Node26</title>
<g id="a_node26"><a xlink:href="_k_omega_s_s_t_8cpp.html" target="_top" xlink:title=" ">
<polygon fill="white" stroke="black" points="1807,-0.5 1807,-19.5 1902,-19.5 1902,-0.5 1807,-0.5"/>
<text text-anchor="middle" x="1854.5" y="-7.5" font-family="Helvetica,sans-Serif" font-size="10.00">KOmegaSST.cpp</text>
</a>
</g>
</g>
<!-- Node23&#45;&gt;Node26 -->
<g id="edge32" class="edge">
<title>Node23&#45;&gt;Node26</title>
<path fill="none" stroke="midnightblue" d="M1695.05,-116.7C1726.27,-111.37 1772.91,-99.87 1806.5,-76 1827.77,-60.89 1843.47,-33.42 1850.47,-19.53"/>
<polygon fill="midnightblue" stroke="midnightblue" points="1694.42,-113.26 1685.09,-118.28 1695.52,-120.17 1694.42,-113.26"/>
</g>
<!-- Node27 -->
<g id="node27" class="node">
<title>Node27</title>
<g id="a_node27"><a xlink:href="_k_omega_s_s_t_i_8_h.html" target="_top" xlink:title=" ">
<polygon fill="white" stroke="black" points="1709,-56.5 1709,-75.5 1798,-75.5 1798,-56.5 1709,-56.5"/>
<text text-anchor="middle" x="1753.5" y="-63.5" font-family="Helvetica,sans-Serif" font-size="10.00">KOmegaSSTI.H</text>
</a>
</g>
</g>
<!-- Node23&#45;&gt;Node27 -->
<g id="edge33" class="edge">
<title>Node23&#45;&gt;Node27</title>
<path fill="none" stroke="midnightblue" d="M1685.05,-107.18C1701.98,-97.24 1724.28,-84.15 1738.76,-75.65"/>
<polygon fill="midnightblue" stroke="midnightblue" points="1683.13,-104.24 1676.28,-112.32 1686.68,-110.28 1683.13,-104.24"/>
</g>
<!-- Node28 -->
<g id="node28" class="node">
<title>Node28</title>
<g id="a_node28"><a xlink:href="_k_omega_s_s_t_i_d_d_e_s_8cpp.html" target="_top" xlink:title=" ">
<polygon fill="white" stroke="black" points="1662.5,-0.5 1662.5,-19.5 1788.5,-19.5 1788.5,-0.5 1662.5,-0.5"/>
<text text-anchor="middle" x="1725.5" y="-7.5" font-family="Helvetica,sans-Serif" font-size="10.00">KOmegaSSTIDDES.cpp</text>
</a>
</g>
</g>
<!-- Node23&#45;&gt;Node28 -->
<g id="edge36" class="edge">
<title>Node23&#45;&gt;Node28</title>
<path fill="none" stroke="midnightblue" d="M1671.6,-103.64C1685.5,-79.74 1710.01,-37.63 1720.5,-19.59"/>
<polygon fill="midnightblue" stroke="midnightblue" points="1668.53,-101.96 1666.52,-112.37 1674.58,-105.49 1668.53,-101.96"/>
</g>
<!-- Node25&#45;&gt;Node24 -->
<g id="edge31" class="edge">
<title>Node25&#45;&gt;Node24</title>
<path fill="none" stroke="midnightblue" d="M1582.57,-45.8C1583.06,-36.91 1583.62,-26.78 1584.01,-19.75"/>
<polygon fill="midnightblue" stroke="midnightblue" points="1579.06,-45.9 1582,-56.08 1586.04,-46.29 1579.06,-45.9"/>
</g>
<!-- Node27&#45;&gt;Node26 -->
<g id="edge34" class="edge">
<title>Node27&#45;&gt;Node26</title>
<path fill="none" stroke="midnightblue" d="M1778.58,-51.59C1797.26,-41.61 1822.2,-28.27 1838.31,-19.65"/>
<polygon fill="midnightblue" stroke="midnightblue" points="1776.9,-48.52 1769.73,-56.32 1780.2,-54.7 1776.9,-48.52"/>
</g>
<!-- Node27&#45;&gt;Node28 -->
<g id="edge35" class="edge">
<title>Node27&#45;&gt;Node28</title>
<path fill="none" stroke="midnightblue" d="M1744.16,-46.98C1739.41,-37.82 1733.84,-27.09 1730.04,-19.75"/>
<polygon fill="midnightblue" stroke="midnightblue" points="1741.17,-48.82 1748.88,-56.08 1747.38,-45.59 1741.17,-48.82"/>
</g>
<!-- Node30 -->
<g id="node30" class="node">
<title>Node30</title>
<g id="a_node30"><a xlink:href="temperature_8cpp.html" target="_top" xlink:title=" ">
<polygon fill="white" stroke="black" points="2260.5,-56.5 2260.5,-75.5 2358.5,-75.5 2358.5,-56.5 2260.5,-56.5"/>
<text text-anchor="middle" x="2309.5" y="-63.5" font-family="Helvetica,sans-Serif" font-size="10.00">temperature.cpp</text>
</a>
</g>
</g>
<!-- Node29&#45;&gt;Node30 -->
<g id="edge38" class="edge">
<title>Node29&#45;&gt;Node30</title>
<path fill="none" stroke="midnightblue" d="M2210.35,-108.5C2234.54,-98.38 2267.96,-84.39 2289.16,-75.52"/>
<polygon fill="midnightblue" stroke="midnightblue" points="2208.81,-105.35 2200.94,-112.44 2211.52,-111.81 2208.81,-105.35"/>
</g>
<!-- Node31&#45;&gt;Node26 -->
<g id="edge44" class="edge">
<title>Node31&#45;&gt;Node26</title>
<path fill="none" stroke="midnightblue" d="M1977.77,-103.09C1984.97,-89.13 1991.29,-69.85 1981.5,-56 1963.61,-30.69 1930.22,-19.52 1902.17,-14.64"/>
<polygon fill="midnightblue" stroke="midnightblue" points="1974.5,-101.74 1972.58,-112.16 1980.58,-105.21 1974.5,-101.74"/>
</g>
<!-- Node31&#45;&gt;Node27 -->
<g id="edge45" class="edge">
<title>Node31&#45;&gt;Node27</title>
<path fill="none" stroke="midnightblue" d="M1933.56,-112.65C1893.78,-102.56 1827.24,-85.69 1787.15,-75.53"/>
<polygon fill="midnightblue" stroke="midnightblue" points="1932.75,-116.05 1943.3,-115.12 1934.47,-109.27 1932.75,-116.05"/>
</g>
<!-- Node31&#45;&gt;Node28 -->
<g id="edge46" class="edge">
<title>Node31&#45;&gt;Node28</title>
<path fill="none" stroke="midnightblue" d="M1938.38,-108.16C1888.65,-85.47 1786.48,-38.83 1744.32,-19.59"/>
<polygon fill="midnightblue" stroke="midnightblue" points="1937.04,-111.4 1947.59,-112.37 1939.95,-105.03 1937.04,-111.4"/>
</g>
<!-- Node32 -->
<g id="node32" class="node">
<title>Node32</title>
<g id="a_node32"><a xlink:href="_t_k_e_8cpp.html" target="_top" xlink:title=" ">
<polygon fill="white" stroke="black" points="2040.5,-0.5 2040.5,-19.5 2096.5,-19.5 2096.5,-0.5 2040.5,-0.5"/>
<text text-anchor="middle" x="2068.5" y="-7.5" font-family="Helvetica,sans-Serif" font-size="10.00">TKE.cpp</text>
</a>
</g>
</g>
<!-- Node31&#45;&gt;Node32 -->
<g id="edge40" class="edge">
<title>Node31&#45;&gt;Node32</title>
<path fill="none" stroke="midnightblue" d="M1983.94,-105.62C1993.27,-97.15 2004.81,-86.29 2014.5,-76 2032.61,-56.78 2051.95,-32.45 2061.84,-19.7"/>
<polygon fill="midnightblue" stroke="midnightblue" points="1981.51,-103.09 1976.4,-112.37 1986.18,-108.3 1981.51,-103.09"/>
</g>
<!-- Node33 -->
<g id="node33" class="node">
<title>Node33</title>
<g id="a_node33"><a xlink:href="tke__ops_8_h.html" target="_top" xlink:title=" ">
<polygon fill="white" stroke="black" points="2067,-56.5 2067,-75.5 2132,-75.5 2132,-56.5 2067,-56.5"/>
<text text-anchor="middle" x="2099.5" y="-63.5" font-family="Helvetica,sans-Serif" font-size="10.00">tke_ops.H</text>
</a>
</g>
</g>
<!-- Node31&#45;&gt;Node33 -->
<g id="edge41" class="edge">
<title>Node31&#45;&gt;Node33</title>
<path fill="none" stroke="midnightblue" d="M1996.95,-108.64C2021.91,-98.5 2056.58,-84.43 2078.52,-75.52"/>
<polygon fill="midnightblue" stroke="midnightblue" points="1995.52,-105.44 1987.57,-112.44 1998.16,-111.92 1995.52,-105.44"/>
</g>
<!-- Node34 -->
<g id="node34" class="node">
<title>Node34</title>
<g id="a_node34"><a xlink:href="_one_eq_ksgs_8cpp.html" target="_top" xlink:title=" ">
<polygon fill="white" stroke="black" points="2150.5,-56.5 2150.5,-75.5 2242.5,-75.5 2242.5,-56.5 2150.5,-56.5"/>
<text text-anchor="middle" x="2196.5" y="-63.5" font-family="Helvetica,sans-Serif" font-size="10.00">OneEqKsgs.cpp</text>
</a>
</g>
</g>
<!-- Node31&#45;&gt;Node34 -->
<g id="edge43" class="edge">
<title>Node31&#45;&gt;Node34</title>
<path fill="none" stroke="midnightblue" d="M1999.68,-113.21C2042.24,-103.22 2115.8,-85.95 2159.93,-75.59"/>
<polygon fill="midnightblue" stroke="midnightblue" points="1998.75,-109.83 1989.82,-115.53 2000.35,-116.65 1998.75,-109.83"/>
</g>
<!-- Node35 -->
<g id="node35" class="node">
<title>Node35</title>
<g id="a_node35"><a xlink:href="_a_b_l_stats_8cpp.html" target="_top" xlink:title=" ">
<polygon fill="white" stroke="black" points="1892.5,-56.5 1892.5,-75.5 1972.5,-75.5 1972.5,-56.5 1892.5,-56.5"/>
<text text-anchor="middle" x="1932.5" y="-63.5" font-family="Helvetica,sans-Serif" font-size="10.00">ABLStats.cpp</text>
</a>
</g>
</g>
<!-- Node31&#45;&gt;Node35 -->
<g id="edge47" class="edge">
<title>Node31&#45;&gt;Node35</title>
<path fill="none" stroke="midnightblue" d="M1955.52,-103.57C1949.67,-94.27 1942.73,-83.25 1938.01,-75.75"/>
<polygon fill="midnightblue" stroke="midnightblue" points="1952.6,-105.49 1960.89,-112.08 1958.52,-101.76 1952.6,-105.49"/>
</g>
<!-- Node33&#45;&gt;Node32 -->
<g id="edge42" class="edge">
<title>Node33&#45;&gt;Node32</title>
<path fill="none" stroke="midnightblue" d="M2089.32,-47.27C2084.03,-38.05 2077.78,-27.17 2073.52,-19.75"/>
<polygon fill="midnightblue" stroke="midnightblue" points="2086.37,-49.15 2094.38,-56.08 2092.44,-45.67 2086.37,-49.15"/>
</g>
<!-- Node37 -->
<g id="node37" class="node">
<title>Node37</title>
<g id="a_node37"><a xlink:href="vof_8cpp.html" target="_top" xlink:title=" ">
<polygon fill="white" stroke="black" points="2487.5,-0.5 2487.5,-19.5 2539.5,-19.5 2539.5,-0.5 2487.5,-0.5"/>
<text text-anchor="middle" x="2513.5" y="-7.5" font-family="Helvetica,sans-Serif" font-size="10.00">vof.cpp</text>
</a>
</g>
</g>
<!-- Node36&#45;&gt;Node37 -->
<g id="edge49" class="edge">
<title>Node36&#45;&gt;Node37</title>
<path fill="none" stroke="midnightblue" d="M2436.18,-107.26C2415.7,-94.67 2392.74,-75.15 2405.5,-56 2423.64,-28.79 2461.68,-18.01 2487.41,-13.75"/>
<polygon fill="midnightblue" stroke="midnightblue" points="2434.58,-110.37 2444.99,-112.36 2438.09,-104.32 2434.58,-110.37"/>
</g>
<!-- Node38 -->
<g id="node38" class="node">
<title>Node38</title>
<g id="a_node38"><a xlink:href="vof__advection_8_h.html" target="_top" xlink:title=" ">
<polygon fill="white" stroke="black" points="2414.5,-56.5 2414.5,-75.5 2510.5,-75.5 2510.5,-56.5 2414.5,-56.5"/>
<text text-anchor="middle" x="2462.5" y="-63.5" font-family="Helvetica,sans-Serif" font-size="10.00">vof_advection.H</text>
</a>
</g>
</g>
<!-- Node36&#45;&gt;Node38 -->
<g id="edge50" class="edge">
<title>Node36&#45;&gt;Node38</title>
<path fill="none" stroke="midnightblue" d="M2462.5,-101.8C2462.5,-92.91 2462.5,-82.78 2462.5,-75.75"/>
<polygon fill="midnightblue" stroke="midnightblue" points="2459,-102.08 2462.5,-112.08 2466,-102.08 2459,-102.08"/>
</g>
<!-- Node39 -->
<g id="node39" class="node">
<title>Node39</title>
<g id="a_node39"><a xlink:href="vof__bcop_8_h.html" target="_top" xlink:title=" ">
<polygon fill="white" stroke="black" points="2529,-56.5 2529,-75.5 2600,-75.5 2600,-56.5 2529,-56.5"/>
<text text-anchor="middle" x="2564.5" y="-63.5" font-family="Helvetica,sans-Serif" font-size="10.00">vof_bcop.H</text>
</a>
</g>
</g>
<!-- Node36&#45;&gt;Node39 -->
<g id="edge52" class="edge">
<title>Node36&#45;&gt;Node39</title>
<path fill="none" stroke="midnightblue" d="M2487.83,-107.59C2506.69,-97.61 2531.88,-84.27 2548.15,-75.65"/>
<polygon fill="midnightblue" stroke="midnightblue" points="2486.09,-104.55 2478.89,-112.32 2489.36,-110.74 2486.09,-104.55"/>
</g>
<!-- Node40 -->
<g id="node40" class="node">
<title>Node40</title>
<g id="a_node40"><a xlink:href="vof__ops_8_h.html" target="_top" xlink:title=" ">
<polygon fill="white" stroke="black" points="2618,-56.5 2618,-75.5 2683,-75.5 2683,-56.5 2618,-56.5"/>
<text text-anchor="middle" x="2650.5" y="-63.5" font-family="Helvetica,sans-Serif" font-size="10.00">vof_ops.H</text>
</a>
</g>
</g>
<!-- Node36&#45;&gt;Node40 -->
<g id="edge54" class="edge">
<title>Node36&#45;&gt;Node40</title>
<path fill="none" stroke="midnightblue" d="M2493.46,-112.11C2528.73,-101.98 2585.97,-85.53 2620.74,-75.55"/>
<polygon fill="midnightblue" stroke="midnightblue" points="2492.35,-108.79 2483.7,-114.91 2494.28,-115.51 2492.35,-108.79"/>
</g>
<!-- Node38&#45;&gt;Node37 -->
<g id="edge51" class="edge">
<title>Node38&#45;&gt;Node37</title>
<path fill="none" stroke="midnightblue" d="M2477.88,-48.72C2486.87,-39.2 2497.86,-27.56 2505.24,-19.75"/>
<polygon fill="midnightblue" stroke="midnightblue" points="2475.24,-46.41 2470.92,-56.08 2480.33,-51.22 2475.24,-46.41"/>
</g>
<!-- Node39&#45;&gt;Node37 -->
<g id="edge53" class="edge">
<title>Node39&#45;&gt;Node37</title>
<path fill="none" stroke="midnightblue" d="M2549.12,-48.72C2540.13,-39.2 2529.14,-27.56 2521.76,-19.75"/>
<polygon fill="midnightblue" stroke="midnightblue" points="2546.67,-51.22 2556.08,-56.08 2551.76,-46.41 2546.67,-51.22"/>
</g>
<!-- Node40&#45;&gt;Node37 -->
<g id="edge55" class="edge">
<title>Node40&#45;&gt;Node37</title>
<path fill="none" stroke="midnightblue" d="M2619.48,-52.77C2593.74,-42.63 2557.81,-28.47 2535.11,-19.52"/>
<polygon fill="midnightblue" stroke="midnightblue" points="2618.21,-56.03 2628.79,-56.44 2620.77,-49.52 2618.21,-56.03"/>
</g>
</g>
</svg>
