<?xml version="1.0" encoding="UTF-8" standalone="no"?>
<!DOCTYPE svg PUBLIC "-//W3C//DTD SVG 1.1//EN"
 "http://www.w3.org/Graphics/SVG/1.1/DTD/svg11.dtd">
<!-- Generated by graphviz version 2.43.0 (0)
 -->
<!-- Title: SamplerBase.H Pages: 1 -->
<svg width="1161pt" height="252pt"
 viewBox="0.00 0.00 1161.00 252.00" xmlns="http://www.w3.org/2000/svg" xmlns:xlink="http://www.w3.org/1999/xlink">
<g id="graph0" class="graph" transform="scale(1 1) rotate(0) translate(4 248)">
<title>SamplerBase.H</title>
<polygon fill="white" stroke="transparent" points="-4,4 -4,-248 1157,-248 1157,4 -4,4"/>
<!-- Node1 -->
<g id="node1" class="node">
<title>Node1</title>
<g id="a_node1"><a xlink:title=" ">
<polygon fill="#bfbfbf" stroke="black" points="598,-224.5 598,-243.5 690,-243.5 690,-224.5 598,-224.5"/>
<text text-anchor="middle" x="644" y="-231.5" font-family="Helvetica,sans-Serif" font-size="10.00">SamplerBase.H</text>
</a>
</g>
</g>
<!-- Node2 -->
<g id="node2" class="node">
<title>Node2</title>
<g id="a_node2"><a xlink:href="_free_surface_sampler_8_h.html" target="_top" xlink:title=" ">
<polygon fill="white" stroke="black" points="85.5,-168.5 85.5,-187.5 210.5,-187.5 210.5,-168.5 85.5,-168.5"/>
<text text-anchor="middle" x="148" y="-175.5" font-family="Helvetica,sans-Serif" font-size="10.00">FreeSurfaceSampler.H</text>
</a>
</g>
</g>
<!-- Node1&#45;&gt;Node2 -->
<g id="edge1" class="edge">
<title>Node1&#45;&gt;Node2</title>
<path fill="none" stroke="midnightblue" d="M587.69,-226.87C494.37,-216.71 308.3,-196.45 210.84,-185.84"/>
<polygon fill="midnightblue" stroke="midnightblue" points="587.46,-230.37 597.78,-227.97 588.22,-223.41 587.46,-230.37"/>
</g>
<!-- Node4 -->
<g id="node4" class="node">
<title>Node4</title>
<g id="a_node4"><a xlink:href="_line_sampler_8_h.html" target="_top" xlink:title=" ">
<polygon fill="white" stroke="black" points="287.5,-168.5 287.5,-187.5 374.5,-187.5 374.5,-168.5 287.5,-168.5"/>
<text text-anchor="middle" x="331" y="-175.5" font-family="Helvetica,sans-Serif" font-size="10.00">LineSampler.H</text>
</a>
</g>
</g>
<!-- Node1&#45;&gt;Node4 -->
<g id="edge3" class="edge">
<title>Node1&#45;&gt;Node4</title>
<path fill="none" stroke="midnightblue" d="M587.59,-223.27C526.54,-212.74 430.48,-196.16 374.85,-186.56"/>
<polygon fill="midnightblue" stroke="midnightblue" points="587.37,-226.78 597.82,-225.03 588.56,-219.88 587.37,-226.78"/>
</g>
<!-- Node10 -->
<g id="node10" class="node">
<title>Node10</title>
<g id="a_node10"><a xlink:href="_radar_sampler_8_h.html" target="_top" xlink:title=" ">
<polygon fill="white" stroke="black" points="376.5,-112.5 376.5,-131.5 471.5,-131.5 471.5,-112.5 376.5,-112.5"/>
<text text-anchor="middle" x="424" y="-119.5" font-family="Helvetica,sans-Serif" font-size="10.00">RadarSampler.H</text>
</a>
</g>
</g>
<!-- Node1&#45;&gt;Node10 -->
<g id="edge15" class="edge">
<title>Node1&#45;&gt;Node10</title>
<path fill="none" stroke="midnightblue" d="M587.71,-227.2C552.93,-221.49 508.68,-210.21 475,-188 452.73,-173.32 435.9,-145.66 428.36,-131.63"/>
<polygon fill="midnightblue" stroke="midnightblue" points="587.29,-230.67 597.71,-228.73 588.35,-223.75 587.29,-230.67"/>
</g>
<!-- Node12 -->
<g id="node12" class="node">
<title>Node12</title>
<g id="a_node12"><a xlink:href="_plane_sampler_8_h.html" target="_top" xlink:title=" ">
<polygon fill="white" stroke="black" points="484,-168.5 484,-187.5 578,-187.5 578,-168.5 484,-168.5"/>
<text text-anchor="middle" x="531" y="-175.5" font-family="Helvetica,sans-Serif" font-size="10.00">PlaneSampler.H</text>
</a>
</g>
</g>
<!-- Node1&#45;&gt;Node12 -->
<g id="edge11" class="edge">
<title>Node1&#45;&gt;Node12</title>
<path fill="none" stroke="midnightblue" d="M617,-220.1C595.89,-210.01 567.14,-196.27 548.82,-187.52"/>
<polygon fill="midnightblue" stroke="midnightblue" points="615.56,-223.29 626.09,-224.44 618.58,-216.97 615.56,-223.29"/>
</g>
<!-- Node14 -->
<g id="node14" class="node">
<title>Node14</title>
<g id="a_node14"><a xlink:href="_probe_sampler_8_h.html" target="_top" xlink:title=" ">
<polygon fill="white" stroke="black" points="596.5,-168.5 596.5,-187.5 691.5,-187.5 691.5,-168.5 596.5,-168.5"/>
<text text-anchor="middle" x="644" y="-175.5" font-family="Helvetica,sans-Serif" font-size="10.00">ProbeSampler.H</text>
</a>
</g>
</g>
<!-- Node1&#45;&gt;Node14 -->
<g id="edge13" class="edge">
<title>Node1&#45;&gt;Node14</title>
<path fill="none" stroke="midnightblue" d="M644,-213.8C644,-204.91 644,-194.78 644,-187.75"/>
<polygon fill="midnightblue" stroke="midnightblue" points="640.5,-214.08 644,-224.08 647.5,-214.08 640.5,-214.08"/>
</g>
<!-- Node16 -->
<g id="node16" class="node">
<title>Node16</title>
<g id="a_node16"><a xlink:href="_sampling_8_h.html" target="_top" xlink:title=" ">
<polygon fill="white" stroke="black" points="709.5,-168.5 709.5,-187.5 782.5,-187.5 782.5,-168.5 709.5,-168.5"/>
<text text-anchor="middle" x="746" y="-175.5" font-family="Helvetica,sans-Serif" font-size="10.00">Sampling.H</text>
</a>
</g>
</g>
<!-- Node1&#45;&gt;Node16 -->
<g id="edge16" class="edge">
<title>Node1&#45;&gt;Node16</title>
<path fill="none" stroke="midnightblue" d="M669.33,-219.59C688.19,-209.61 713.38,-196.27 729.65,-187.65"/>
<polygon fill="midnightblue" stroke="midnightblue" points="667.59,-216.55 660.39,-224.32 670.86,-222.74 667.59,-216.55"/>
</g>
<!-- Node18 -->
<g id="node18" class="node">
<title>Node18</title>
<g id="a_node18"><a xlink:href="_sampling_container_8cpp.html" target="_top" xlink:title=" ">
<polygon fill="white" stroke="black" points="800.5,-168.5 800.5,-187.5 929.5,-187.5 929.5,-168.5 800.5,-168.5"/>
<text text-anchor="middle" x="865" y="-175.5" font-family="Helvetica,sans-Serif" font-size="10.00">SamplingContainer.cpp</text>
</a>
</g>
</g>
<!-- Node1&#45;&gt;Node18 -->
<g id="edge18" class="edge">
<title>Node1&#45;&gt;Node18</title>
<path fill="none" stroke="midnightblue" d="M688.92,-222.02C730.67,-211.82 791.98,-196.84 830.15,-187.52"/>
<polygon fill="midnightblue" stroke="midnightblue" points="687.9,-218.67 679.02,-224.44 689.56,-225.47 687.9,-218.67"/>
</g>
<!-- Node19 -->
<g id="node19" class="node">
<title>Node19</title>
<g id="a_node19"><a xlink:href="_volume_sampler_8_h.html" target="_top" xlink:title=" ">
<polygon fill="white" stroke="black" points="948,-168.5 948,-187.5 1052,-187.5 1052,-168.5 948,-168.5"/>
<text text-anchor="middle" x="1000" y="-175.5" font-family="Helvetica,sans-Serif" font-size="10.00">VolumeSampler.H</text>
</a>
</g>
</g>
<!-- Node1&#45;&gt;Node19 -->
<g id="edge19" class="edge">
<title>Node1&#45;&gt;Node19</title>
<path fill="none" stroke="midnightblue" d="M700.27,-224.46C768.27,-214.15 881.74,-196.94 947.84,-186.91"/>
<polygon fill="midnightblue" stroke="midnightblue" points="699.54,-221.04 690.18,-226 700.59,-227.96 699.54,-221.04"/>
</g>
<!-- Node21 -->
<g id="node21" class="node">
<title>Node21</title>
<g id="a_node21"><a xlink:href="_a_b_l_stats_8_h.html" target="_top" xlink:title=" ">
<polygon fill="white" stroke="black" points="1074.5,-168.5 1074.5,-187.5 1145.5,-187.5 1145.5,-168.5 1074.5,-168.5"/>
<text text-anchor="middle" x="1110" y="-175.5" font-family="Helvetica,sans-Serif" font-size="10.00">ABLStats.H</text>
</a>
</g>
</g>
<!-- Node1&#45;&gt;Node21 -->
<g id="edge21" class="edge">
<title>Node1&#45;&gt;Node21</title>
<path fill="none" stroke="midnightblue" d="M700.49,-228.24C780.82,-221.17 932.56,-206.7 1061,-188 1065.37,-187.36 1069.94,-186.62 1074.46,-185.85"/>
<polygon fill="midnightblue" stroke="midnightblue" points="699.77,-224.79 690.11,-229.15 700.38,-231.77 699.77,-224.79"/>
</g>
<!-- Node3 -->
<g id="node3" class="node">
<title>Node3</title>
<g id="a_node3"><a xlink:href="_free_surface_sampler_8cpp.html" target="_top" xlink:title=" ">
<polygon fill="white" stroke="black" points="0,-112.5 0,-131.5 134,-131.5 134,-112.5 0,-112.5"/>
<text text-anchor="middle" x="67" y="-119.5" font-family="Helvetica,sans-Serif" font-size="10.00">FreeSurfaceSampler.cpp</text>
</a>
</g>
</g>
<!-- Node2&#45;&gt;Node3 -->
<g id="edge2" class="edge">
<title>Node2&#45;&gt;Node3</title>
<path fill="none" stroke="midnightblue" d="M126.43,-162.62C111.64,-152.76 92.49,-139.99 79.98,-131.65"/>
<polygon fill="midnightblue" stroke="midnightblue" points="124.72,-165.69 134.99,-168.32 128.61,-159.86 124.72,-165.69"/>
</g>
<!-- Node5 -->
<g id="node5" class="node">
<title>Node5</title>
<g id="a_node5"><a xlink:href="_lidar_sampler_8_h.html" target="_top" xlink:title=" ">
<polygon fill="white" stroke="black" points="152.5,-112.5 152.5,-131.5 243.5,-131.5 243.5,-112.5 152.5,-112.5"/>
<text text-anchor="middle" x="198" y="-119.5" font-family="Helvetica,sans-Serif" font-size="10.00">LidarSampler.H</text>
</a>
</g>
</g>
<!-- Node4&#45;&gt;Node5 -->
<g id="edge4" class="edge">
<title>Node4&#45;&gt;Node5</title>
<path fill="none" stroke="midnightblue" d="M300.55,-164.64C275.59,-154.5 240.92,-140.43 218.98,-131.52"/>
<polygon fill="midnightblue" stroke="midnightblue" points="299.34,-167.92 309.93,-168.44 301.98,-161.44 299.34,-167.92"/>
</g>
<!-- Node9 -->
<g id="node9" class="node">
<title>Node9</title>
<g id="a_node9"><a xlink:href="_line_sampler_8cpp.html" target="_top" xlink:title=" ">
<polygon fill="white" stroke="black" points="261.5,-112.5 261.5,-131.5 358.5,-131.5 358.5,-112.5 261.5,-112.5"/>
<text text-anchor="middle" x="310" y="-119.5" font-family="Helvetica,sans-Serif" font-size="10.00">LineSampler.cpp</text>
</a>
</g>
</g>
<!-- Node4&#45;&gt;Node9 -->
<g id="edge8" class="edge">
<title>Node4&#45;&gt;Node9</title>
<path fill="none" stroke="midnightblue" d="M323.88,-158.69C320.34,-149.59 316.23,-139.01 313.4,-131.75"/>
<polygon fill="midnightblue" stroke="midnightblue" points="320.65,-160.03 327.53,-168.08 327.17,-157.49 320.65,-160.03"/>
</g>
<!-- Node4&#45;&gt;Node10 -->
<g id="edge9" class="edge">
<title>Node4&#45;&gt;Node10</title>
<path fill="none" stroke="midnightblue" d="M354.81,-163.18C371.92,-153.24 394.47,-140.15 409.1,-131.65"/>
<polygon fill="midnightblue" stroke="midnightblue" points="352.83,-160.28 345.94,-168.32 356.35,-166.33 352.83,-160.28"/>
</g>
<!-- Node6 -->
<g id="node6" class="node">
<title>Node6</title>
<g id="a_node6"><a xlink:href="_d_t_u_spinner_sampler_8_h.html" target="_top" xlink:title=" ">
<polygon fill="white" stroke="black" points="57.5,-56.5 57.5,-75.5 182.5,-75.5 182.5,-56.5 57.5,-56.5"/>
<text text-anchor="middle" x="120" y="-63.5" font-family="Helvetica,sans-Serif" font-size="10.00">DTUSpinnerSampler.H</text>
</a>
</g>
</g>
<!-- Node5&#45;&gt;Node6 -->
<g id="edge5" class="edge">
<title>Node5&#45;&gt;Node6</title>
<path fill="none" stroke="midnightblue" d="M177.23,-106.62C162.98,-96.76 144.54,-83.99 132.5,-75.65"/>
<polygon fill="midnightblue" stroke="midnightblue" points="175.25,-109.51 185.47,-112.32 179.24,-103.75 175.25,-109.51"/>
</g>
<!-- Node8 -->
<g id="node8" class="node">
<title>Node8</title>
<g id="a_node8"><a xlink:href="_lidar_sampler_8cpp.html" target="_top" xlink:title=" ">
<polygon fill="white" stroke="black" points="200.5,-56.5 200.5,-75.5 301.5,-75.5 301.5,-56.5 200.5,-56.5"/>
<text text-anchor="middle" x="251" y="-63.5" font-family="Helvetica,sans-Serif" font-size="10.00">LidarSampler.cpp</text>
</a>
</g>
</g>
<!-- Node5&#45;&gt;Node8 -->
<g id="edge7" class="edge">
<title>Node5&#45;&gt;Node8</title>
<path fill="none" stroke="midnightblue" d="M213.98,-104.72C223.32,-95.2 234.75,-83.56 242.41,-75.75"/>
<polygon fill="midnightblue" stroke="midnightblue" points="211.26,-102.49 206.75,-112.08 216.25,-107.4 211.26,-102.49"/>
</g>
<!-- Node7 -->
<g id="node7" class="node">
<title>Node7</title>
<g id="a_node7"><a xlink:href="_d_t_u_spinner_sampler_8cpp.html" target="_top" xlink:title=" ">
<polygon fill="white" stroke="black" points="53,-0.5 53,-19.5 187,-19.5 187,-0.5 53,-0.5"/>
<text text-anchor="middle" x="120" y="-7.5" font-family="Helvetica,sans-Serif" font-size="10.00">DTUSpinnerSampler.cpp</text>
</a>
</g>
</g>
<!-- Node6&#45;&gt;Node7 -->
<g id="edge6" class="edge">
<title>Node6&#45;&gt;Node7</title>
<path fill="none" stroke="midnightblue" d="M120,-45.8C120,-36.91 120,-26.78 120,-19.75"/>
<polygon fill="midnightblue" stroke="midnightblue" points="116.5,-46.08 120,-56.08 123.5,-46.08 116.5,-46.08"/>
</g>
<!-- Node11 -->
<g id="node11" class="node">
<title>Node11</title>
<g id="a_node11"><a xlink:href="_radar_sampler_8cpp.html" target="_top" xlink:title=" ">
<polygon fill="white" stroke="black" points="371.5,-56.5 371.5,-75.5 476.5,-75.5 476.5,-56.5 371.5,-56.5"/>
<text text-anchor="middle" x="424" y="-63.5" font-family="Helvetica,sans-Serif" font-size="10.00">RadarSampler.cpp</text>
</a>
</g>
</g>
<!-- Node10&#45;&gt;Node11 -->
<g id="edge10" class="edge">
<title>Node10&#45;&gt;Node11</title>
<path fill="none" stroke="midnightblue" d="M424,-101.8C424,-92.91 424,-82.78 424,-75.75"/>
<polygon fill="midnightblue" stroke="midnightblue" points="420.5,-102.08 424,-112.08 427.5,-102.08 420.5,-102.08"/>
</g>
<!-- Node13 -->
<g id="node13" class="node">
<title>Node13</title>
<g id="a_node13"><a xlink:href="_plane_sampler_8cpp.html" target="_top" xlink:title=" ">
<polygon fill="white" stroke="black" points="490,-112.5 490,-131.5 594,-131.5 594,-112.5 490,-112.5"/>
<text text-anchor="middle" x="542" y="-119.5" font-family="Helvetica,sans-Serif" font-size="10.00">PlaneSampler.cpp</text>
</a>
</g>
</g>
<!-- Node12&#45;&gt;Node13 -->
<g id="edge12" class="edge">
<title>Node12&#45;&gt;Node13</title>
<path fill="none" stroke="midnightblue" d="M534.85,-158.1C536.68,-149.14 538.77,-138.86 540.22,-131.75"/>
<polygon fill="midnightblue" stroke="midnightblue" points="531.38,-157.59 532.82,-168.08 538.24,-158.98 531.38,-157.59"/>
</g>
<!-- Node15 -->
<g id="node15" class="node">
<title>Node15</title>
<g id="a_node15"><a xlink:href="_probe_sampler_8cpp.html" target="_top" xlink:title=" ">
<polygon fill="white" stroke="black" points="612,-112.5 612,-131.5 716,-131.5 716,-112.5 612,-112.5"/>
<text text-anchor="middle" x="664" y="-119.5" font-family="Helvetica,sans-Serif" font-size="10.00">ProbeSampler.cpp</text>
</a>
</g>
</g>
<!-- Node14&#45;&gt;Node15 -->
<g id="edge14" class="edge">
<title>Node14&#45;&gt;Node15</title>
<path fill="none" stroke="midnightblue" d="M650.78,-158.69C654.15,-149.59 658.07,-139.01 660.76,-131.75"/>
<polygon fill="midnightblue" stroke="midnightblue" points="647.49,-157.49 647.3,-168.08 654.06,-159.92 647.49,-157.49"/>
</g>
<!-- Node17 -->
<g id="node17" class="node">
<title>Node17</title>
<g id="a_node17"><a xlink:href="_sampling_8cpp.html" target="_top" xlink:title=" ">
<polygon fill="white" stroke="black" points="734.5,-112.5 734.5,-131.5 817.5,-131.5 817.5,-112.5 734.5,-112.5"/>
<text text-anchor="middle" x="776" y="-119.5" font-family="Helvetica,sans-Serif" font-size="10.00">Sampling.cpp</text>
</a>
</g>
</g>
<!-- Node16&#45;&gt;Node17 -->
<g id="edge17" class="edge">
<title>Node16&#45;&gt;Node17</title>
<path fill="none" stroke="midnightblue" d="M755.85,-159.27C760.97,-150.05 767.02,-139.17 771.14,-131.75"/>
<polygon fill="midnightblue" stroke="midnightblue" points="752.75,-157.64 750.95,-168.08 758.87,-161.04 752.75,-157.64"/>
</g>
<!-- Node20 -->
<g id="node20" class="node">
<title>Node20</title>
<g id="a_node20"><a xlink:href="_volume_sampler_8cpp.html" target="_top" xlink:title=" ">
<polygon fill="white" stroke="black" points="941.5,-112.5 941.5,-131.5 1054.5,-131.5 1054.5,-112.5 941.5,-112.5"/>
<text text-anchor="middle" x="998" y="-119.5" font-family="Helvetica,sans-Serif" font-size="10.00">VolumeSampler.cpp</text>
</a>
</g>
</g>
<!-- Node19&#45;&gt;Node20 -->
<g id="edge20" class="edge">
<title>Node19&#45;&gt;Node20</title>
<path fill="none" stroke="midnightblue" d="M999.29,-157.8C998.96,-148.91 998.58,-138.78 998.32,-131.75"/>
<polygon fill="midnightblue" stroke="midnightblue" points="995.8,-158.22 999.67,-168.08 1002.8,-157.96 995.8,-158.22"/>
</g>
<!-- Node22 -->
<g id="node22" class="node">
<title>Node22</title>
<g id="a_node22"><a xlink:href="_a_b_l_stats_8cpp.html" target="_top" xlink:title=" ">
<polygon fill="white" stroke="black" points="1073,-112.5 1073,-131.5 1153,-131.5 1153,-112.5 1073,-112.5"/>
<text text-anchor="middle" x="1113" y="-119.5" font-family="Helvetica,sans-Serif" font-size="10.00">ABLStats.cpp</text>
</a>
</g>
</g>
<!-- Node21&#45;&gt;Node22 -->
<g id="edge22" class="edge">
<title>Node21&#45;&gt;Node22</title>
<path fill="none" stroke="midnightblue" d="M1111.07,-157.8C1111.56,-148.91 1112.12,-138.78 1112.51,-131.75"/>
<polygon fill="midnightblue" stroke="midnightblue" points="1107.56,-157.9 1110.5,-168.08 1114.54,-158.29 1107.56,-157.9"/>
</g>
</g>
</svg>
