<?xml version="1.0" encoding="UTF-8" standalone="no"?>
<!DOCTYPE svg PUBLIC "-//W3C//DTD SVG 1.1//EN"
 "http://www.w3.org/Graphics/SVG/1.1/DTD/svg11.dtd">
<!-- Generated by graphviz version 2.43.0 (0)
 -->
<!-- Title: ScratchField.H Pages: 1 -->
<svg width="3983pt" height="196pt"
 viewBox="0.00 0.00 3982.50 196.00" xmlns="http://www.w3.org/2000/svg" xmlns:xlink="http://www.w3.org/1999/xlink">
<g id="graph0" class="graph" transform="scale(1 1) rotate(0) translate(4 192)">
<title>ScratchField.H</title>
<polygon fill="white" stroke="transparent" points="-4,4 -4,-192 3978.5,-192 3978.5,4 -4,4"/>
<!-- Node1 -->
<g id="node1" class="node">
<title>Node1</title>
<g id="a_node1"><a xlink:title=" ">
<polygon fill="#bfbfbf" stroke="black" points="548,-168.5 548,-187.5 634,-187.5 634,-168.5 548,-168.5"/>
<text text-anchor="middle" x="591" y="-175.5" font-family="Helvetica,sans-Serif" font-size="10.00">ScratchField.H</text>
</a>
</g>
</g>
<!-- Node2 -->
<g id="node2" class="node">
<title>Node2</title>
<g id="a_node2"><a xlink:href="_field_repo_8_h.html" target="_top" xlink:title=" ">
<polygon fill="white" stroke="red" points="1796.5,-112.5 1796.5,-131.5 1871.5,-131.5 1871.5,-112.5 1796.5,-112.5"/>
<text text-anchor="middle" x="1834" y="-119.5" font-family="Helvetica,sans-Serif" font-size="10.00">FieldRepo.H</text>
</a>
</g>
</g>
<!-- Node1&#45;&gt;Node2 -->
<g id="edge1" class="edge">
<title>Node1&#45;&gt;Node2</title>
<path fill="none" stroke="midnightblue" d="M644.27,-174.69C853.7,-165.59 1617.65,-132.4 1796.41,-124.63"/>
<polygon fill="midnightblue" stroke="midnightblue" points="643.99,-171.19 634.15,-175.13 644.29,-178.19 643.99,-171.19"/>
</g>
<!-- Node271 -->
<g id="node19" class="node">
<title>Node271</title>
<g id="a_node19"><a xlink:href="_scratch_field_8cpp.html" target="_top" xlink:title=" ">
<polygon fill="white" stroke="black" points="0,-56.5 0,-75.5 96,-75.5 96,-56.5 0,-56.5"/>
<text text-anchor="middle" x="48" y="-63.5" font-family="Helvetica,sans-Serif" font-size="10.00">ScratchField.cpp</text>
</a>
</g>
</g>
<!-- Node1&#45;&gt;Node271 -->
<g id="edge70" class="edge">
<title>Node1&#45;&gt;Node271</title>
<path fill="none" stroke="midnightblue" d="M537.5,-168.61C484.82,-160.15 402.15,-146.32 331,-132 240.81,-113.85 135.39,-88.54 82.28,-75.51"/>
<polygon fill="midnightblue" stroke="midnightblue" points="537.19,-172.11 547.62,-170.23 538.3,-165.2 537.19,-172.11"/>
</g>
<!-- Node272 -->
<g id="node20" class="node">
<title>Node272</title>
<g id="a_node20"><a xlink:href="_view_field_8cpp.html" target="_top" xlink:title=" ">
<polygon fill="white" stroke="black" points="114,-56.5 114,-75.5 198,-75.5 198,-56.5 114,-56.5"/>
<text text-anchor="middle" x="156" y="-63.5" font-family="Helvetica,sans-Serif" font-size="10.00">ViewField.cpp</text>
</a>
</g>
</g>
<!-- Node1&#45;&gt;Node272 -->
<g id="edge71" class="edge">
<title>Node1&#45;&gt;Node272</title>
<path fill="none" stroke="midnightblue" d="M547.43,-165.98C460.63,-144.03 267.78,-95.27 189.75,-75.53"/>
<polygon fill="midnightblue" stroke="midnightblue" points="546.68,-169.4 557.23,-168.46 548.39,-162.62 546.68,-169.4"/>
</g>
<!-- Node325 -->
<g id="node50" class="node">
<title>Node325</title>
<g id="a_node50"><a xlink:href="_multi_phase_8_h.html" target="_top" xlink:title=" ">
<polygon fill="white" stroke="red" points="812.5,-56.5 812.5,-75.5 893.5,-75.5 893.5,-56.5 812.5,-56.5"/>
<text text-anchor="middle" x="853" y="-63.5" font-family="Helvetica,sans-Serif" font-size="10.00">MultiPhase.H</text>
</a>
</g>
</g>
<!-- Node1&#45;&gt;Node325 -->
<g id="edge72" class="edge">
<title>Node1&#45;&gt;Node325</title>
<path fill="none" stroke="midnightblue" d="M620.9,-164.45C674.71,-141.86 786.52,-94.91 832.54,-75.59"/>
<polygon fill="midnightblue" stroke="midnightblue" points="619.42,-161.27 611.56,-168.37 622.13,-167.72 619.42,-161.27"/>
</g>
<!-- Node3 -->
<g id="node3" class="node">
<title>Node3</title>
<g id="a_node3"><a xlink:href="_b_c_interface_8cpp.html" target="_top" xlink:title=" ">
<polygon fill="white" stroke="black" points="3722,-0.5 3722,-19.5 3816,-19.5 3816,-0.5 3722,-0.5"/>
<text text-anchor="middle" x="3769" y="-7.5" font-family="Helvetica,sans-Serif" font-size="10.00">BCInterface.cpp</text>
</a>
</g>
</g>
<!-- Node2&#45;&gt;Node3 -->
<g id="edge2" class="edge">
<title>Node2&#45;&gt;Node3</title>
<path fill="none" stroke="midnightblue" d="M1881.77,-120.56C2161.74,-117.87 3580.22,-102.98 3668,-76 3687.33,-70.06 3735.37,-35.79 3757.5,-19.55"/>
<polygon fill="midnightblue" stroke="midnightblue" points="1881.51,-117.06 1871.54,-120.66 1881.58,-124.06 1881.51,-117.06"/>
</g>
<!-- Node4 -->
<g id="node4" class="node">
<title>Node4</title>
<g id="a_node4"><a xlink:href="_fixed_gradient_b_c_8_h.html" target="_top" xlink:title=" ">
<polygon fill="white" stroke="red" points="3715,-56.5 3715,-75.5 3823,-75.5 3823,-56.5 3715,-56.5"/>
<text text-anchor="middle" x="3769" y="-63.5" font-family="Helvetica,sans-Serif" font-size="10.00">FixedGradientBC.H</text>
</a>
</g>
</g>
<!-- Node2&#45;&gt;Node4 -->
<g id="edge3" class="edge">
<title>Node2&#45;&gt;Node4</title>
<path fill="none" stroke="midnightblue" d="M1881.77,-120.55C2135.96,-118.02 3331.96,-104.79 3701,-76 3705.51,-75.65 3710.18,-75.2 3714.86,-74.7"/>
<polygon fill="midnightblue" stroke="midnightblue" points="1881.71,-117.05 1871.75,-120.64 1881.78,-124.05 1881.71,-117.05"/>
</g>
<!-- Node6 -->
<g id="node5" class="node">
<title>Node6</title>
<g id="a_node5"><a xlink:href="_mass_inflow_outflow_b_c_8_h.html" target="_top" xlink:title=" ">
<polygon fill="white" stroke="red" points="3841.5,-56.5 3841.5,-75.5 3974.5,-75.5 3974.5,-56.5 3841.5,-56.5"/>
<text text-anchor="middle" x="3908" y="-63.5" font-family="Helvetica,sans-Serif" font-size="10.00">MassInflowOutflowBC.H</text>
</a>
</g>
</g>
<!-- Node2&#45;&gt;Node6 -->
<g id="edge5" class="edge">
<title>Node2&#45;&gt;Node6</title>
<path fill="none" stroke="midnightblue" d="M1881.68,-120.54C2146.13,-117.92 3435.17,-103.9 3832,-76 3835.05,-75.79 3838.16,-75.54 3841.31,-75.26"/>
<polygon fill="midnightblue" stroke="midnightblue" points="1881.6,-117.05 1871.63,-120.64 1881.67,-124.04 1881.6,-117.05"/>
</g>
<!-- Node8 -->
<g id="node6" class="node">
<title>Node8</title>
<g id="a_node6"><a xlink:href="scalar__bcs_8_h.html" target="_top" xlink:title=" ">
<polygon fill="white" stroke="red" points="356,-56.5 356,-75.5 434,-75.5 434,-56.5 356,-56.5"/>
<text text-anchor="middle" x="395" y="-63.5" font-family="Helvetica,sans-Serif" font-size="10.00">scalar_bcs.H</text>
</a>
</g>
</g>
<!-- Node2&#45;&gt;Node8 -->
<g id="edge7" class="edge">
<title>Node2&#45;&gt;Node8</title>
<path fill="none" stroke="midnightblue" d="M1786.05,-120.43C1573.1,-117.77 711.68,-105.36 443,-76 440.13,-75.69 437.18,-75.3 434.22,-74.86"/>
<polygon fill="midnightblue" stroke="midnightblue" points="1786.23,-123.94 1796.28,-120.56 1786.32,-116.94 1786.23,-123.94"/>
</g>
<!-- Node24 -->
<g id="node7" class="node">
<title>Node24</title>
<g id="a_node7"><a xlink:href="velocity__bcs_8_h.html" target="_top" xlink:title=" ">
<polygon fill="white" stroke="red" points="452,-56.5 452,-75.5 540,-75.5 540,-56.5 452,-56.5"/>
<text text-anchor="middle" x="496" y="-63.5" font-family="Helvetica,sans-Serif" font-size="10.00">velocity_bcs.H</text>
</a>
</g>
</g>
<!-- Node2&#45;&gt;Node24 -->
<g id="edge8" class="edge">
<title>Node2&#45;&gt;Node24</title>
<path fill="none" stroke="midnightblue" d="M1786.45,-120.18C1584.4,-116.59 796.07,-101.19 549,-76 546.12,-75.71 543.16,-75.35 540.19,-74.96"/>
<polygon fill="midnightblue" stroke="midnightblue" points="1786.4,-123.68 1796.46,-120.36 1786.52,-116.68 1786.4,-123.68"/>
</g>
<!-- Node25 -->
<g id="node8" class="node">
<title>Node25</title>
<g id="a_node8"><a xlink:href="_c_f_d_sim_8_h.html" target="_top" xlink:title=" ">
<polygon fill="white" stroke="red" points="690,-56.5 690,-75.5 756,-75.5 756,-56.5 690,-56.5"/>
<text text-anchor="middle" x="723" y="-63.5" font-family="Helvetica,sans-Serif" font-size="10.00">CFDSim.H</text>
</a>
</g>
</g>
<!-- Node2&#45;&gt;Node25 -->
<g id="edge9" class="edge">
<title>Node2&#45;&gt;Node25</title>
<path fill="none" stroke="midnightblue" d="M1785.87,-121.47C1635.32,-122.42 1160.08,-121.35 770,-76 765.46,-75.47 760.7,-74.76 756.03,-73.96"/>
<polygon fill="midnightblue" stroke="midnightblue" points="1786.17,-124.97 1796.15,-121.4 1786.12,-117.97 1786.17,-124.97"/>
</g>
<!-- Node77 -->
<g id="node9" class="node">
<title>Node77</title>
<g id="a_node9"><a xlink:href="_p_d_e_base_8cpp.html" target="_top" xlink:title=" ">
<polygon fill="white" stroke="black" points="288,-0.5 288,-19.5 368,-19.5 368,-0.5 288,-0.5"/>
<text text-anchor="middle" x="328" y="-7.5" font-family="Helvetica,sans-Serif" font-size="10.00">PDEBase.cpp</text>
</a>
</g>
</g>
<!-- Node2&#45;&gt;Node77 -->
<g id="edge40" class="edge">
<title>Node2&#45;&gt;Node77</title>
<path fill="none" stroke="midnightblue" d="M1786.13,-121.12C1537.78,-121.55 405.19,-121 347,-76 329.7,-62.62 327.51,-34.37 327.6,-19.92"/>
<polygon fill="midnightblue" stroke="midnightblue" points="1786.29,-124.62 1796.28,-121.1 1786.27,-117.62 1786.29,-124.62"/>
</g>
<!-- Node92 -->
<g id="node10" class="node">
<title>Node92</title>
<g id="a_node10"><a xlink:href="_i_b_8cpp.html" target="_top" xlink:title=" ">
<polygon fill="white" stroke="black" points="582.5,-0.5 582.5,-19.5 629.5,-19.5 629.5,-0.5 582.5,-0.5"/>
<text text-anchor="middle" x="606" y="-7.5" font-family="Helvetica,sans-Serif" font-size="10.00">IB.cpp</text>
</a>
</g>
</g>
<!-- Node2&#45;&gt;Node92 -->
<g id="edge54" class="edge">
<title>Node2&#45;&gt;Node92</title>
<path fill="none" stroke="midnightblue" d="M1786.29,-121.29C1579.92,-122.24 769.9,-122.92 667,-76 640.53,-63.93 620.04,-34.53 611.02,-19.77"/>
<polygon fill="midnightblue" stroke="midnightblue" points="1786.51,-124.78 1796.5,-121.24 1786.48,-117.79 1786.51,-124.78"/>
</g>
<!-- Node103 -->
<g id="node11" class="node">
<title>Node103</title>
<g id="a_node11"><a xlink:href="incflo_8_h.html" target="_top" xlink:title=" ">
<polygon fill="white" stroke="red" points="647.5,-0.5 647.5,-19.5 700.5,-19.5 700.5,-0.5 647.5,-0.5"/>
<text text-anchor="middle" x="674" y="-7.5" font-family="Helvetica,sans-Serif" font-size="10.00">incflo.H</text>
</a>
</g>
</g>
<!-- Node2&#45;&gt;Node103 -->
<g id="edge57" class="edge">
<title>Node2&#45;&gt;Node103</title>
<path fill="none" stroke="midnightblue" d="M1786.29,-120.86C1573.78,-120.02 721.99,-114.28 681,-76 665.57,-61.59 668.87,-33.81 671.82,-19.69"/>
<polygon fill="midnightblue" stroke="midnightblue" points="1786.49,-124.36 1796.5,-120.9 1786.51,-117.36 1786.49,-124.36"/>
</g>
<!-- Node133 -->
<g id="node12" class="node">
<title>Node133</title>
<g id="a_node12"><a xlink:href="_ocean_waves_8cpp.html" target="_top" xlink:title=" ">
<polygon fill="white" stroke="black" points="844,-0.5 844,-19.5 944,-19.5 944,-0.5 844,-0.5"/>
<text text-anchor="middle" x="894" y="-7.5" font-family="Helvetica,sans-Serif" font-size="10.00">OceanWaves.cpp</text>
</a>
</g>
</g>
<!-- Node2&#45;&gt;Node133 -->
<g id="edge58" class="edge">
<title>Node2&#45;&gt;Node133</title>
<path fill="none" stroke="midnightblue" d="M1786.13,-120.99C1611.56,-120.63 1015.4,-116.41 941,-76 917.99,-63.5 903.43,-34.31 897.32,-19.68"/>
<polygon fill="midnightblue" stroke="midnightblue" points="1786.29,-124.49 1796.29,-121.01 1786.3,-117.49 1786.29,-124.49"/>
</g>
<!-- Node144 -->
<g id="node13" class="node">
<title>Node144</title>
<g id="a_node13"><a xlink:href="_tioga_interface_8cpp.html" target="_top" xlink:title=" ">
<polygon fill="white" stroke="black" points="718.5,-0.5 718.5,-19.5 825.5,-19.5 825.5,-0.5 718.5,-0.5"/>
<text text-anchor="middle" x="772" y="-7.5" font-family="Helvetica,sans-Serif" font-size="10.00">TiogaInterface.cpp</text>
</a>
</g>
</g>
<!-- Node2&#45;&gt;Node144 -->
<g id="edge63" class="edge">
<title>Node2&#45;&gt;Node144</title>
<path fill="none" stroke="midnightblue" d="M1786.21,-120.28C1588.7,-117.12 844.44,-103.43 803,-76 783.4,-63.03 775.87,-34.05 773.25,-19.58"/>
<polygon fill="midnightblue" stroke="midnightblue" points="1786.23,-123.78 1796.28,-120.44 1786.34,-116.78 1786.23,-123.78"/>
</g>
<!-- Node265 -->
<g id="node14" class="node">
<title>Node265</title>
<g id="a_node14"><a xlink:href="_m_o_l_8_h.html" target="_top" xlink:title=" ">
<polygon fill="white" stroke="red" points="1096.5,-56.5 1096.5,-75.5 1145.5,-75.5 1145.5,-56.5 1096.5,-56.5"/>
<text text-anchor="middle" x="1121" y="-63.5" font-family="Helvetica,sans-Serif" font-size="10.00">MOL.H</text>
</a>
</g>
</g>
<!-- Node2&#45;&gt;Node265 -->
<g id="edge15" class="edge">
<title>Node2&#45;&gt;Node265</title>
<path fill="none" stroke="midnightblue" d="M1785.92,-120.98C1674.32,-120.25 1389.35,-114.41 1155,-76 1151.99,-75.51 1148.85,-74.86 1145.76,-74.14"/>
<polygon fill="midnightblue" stroke="midnightblue" points="1786.15,-124.48 1796.17,-121.04 1786.19,-117.48 1786.15,-124.48"/>
</g>
<!-- Node267 -->
<g id="node15" class="node">
<title>Node267</title>
<g id="a_node15"><a xlink:href="_field_8cpp.html" target="_top" xlink:title=" ">
<polygon fill="white" stroke="black" points="1164,-56.5 1164,-75.5 1224,-75.5 1224,-56.5 1164,-56.5"/>
<text text-anchor="middle" x="1194" y="-63.5" font-family="Helvetica,sans-Serif" font-size="10.00">Field.cpp</text>
</a>
</g>
</g>
<!-- Node2&#45;&gt;Node267 -->
<g id="edge16" class="edge">
<title>Node2&#45;&gt;Node267</title>
<path fill="none" stroke="midnightblue" d="M1786.15,-119.89C1684,-116.97 1437.27,-107.03 1233,-76 1230.11,-75.56 1227.13,-75.02 1224.15,-74.43"/>
<polygon fill="midnightblue" stroke="midnightblue" points="1786.06,-123.38 1796.15,-120.16 1786.25,-116.39 1786.06,-123.38"/>
</g>
<!-- Node268 -->
<g id="node16" class="node">
<title>Node268</title>
<g id="a_node16"><a xlink:href="_field_repo_8cpp.html" target="_top" xlink:title=" ">
<polygon fill="white" stroke="black" points="1242.5,-56.5 1242.5,-75.5 1327.5,-75.5 1327.5,-56.5 1242.5,-56.5"/>
<text text-anchor="middle" x="1285" y="-63.5" font-family="Helvetica,sans-Serif" font-size="10.00">FieldRepo.cpp</text>
</a>
</g>
</g>
<!-- Node2&#45;&gt;Node268 -->
<g id="edge17" class="edge">
<title>Node2&#45;&gt;Node268</title>
<path fill="none" stroke="midnightblue" d="M1786.36,-118.04C1697.54,-112.23 1500.72,-97.94 1336,-76 1333.24,-75.63 1330.4,-75.22 1327.53,-74.78"/>
<polygon fill="midnightblue" stroke="midnightblue" points="1786.19,-121.54 1796.4,-118.69 1786.64,-114.55 1786.19,-121.54"/>
</g>
<!-- Node269 -->
<g id="node17" class="node">
<title>Node269</title>
<g id="a_node17"><a xlink:href="_int_field_8cpp.html" target="_top" xlink:title=" ">
<polygon fill="white" stroke="black" points="1345.5,-56.5 1345.5,-75.5 1418.5,-75.5 1418.5,-56.5 1345.5,-56.5"/>
<text text-anchor="middle" x="1382" y="-63.5" font-family="Helvetica,sans-Serif" font-size="10.00">IntField.cpp</text>
</a>
</g>
</g>
<!-- Node2&#45;&gt;Node269 -->
<g id="edge18" class="edge">
<title>Node2&#45;&gt;Node269</title>
<path fill="none" stroke="midnightblue" d="M1786.02,-117.06C1709.72,-110.49 1556.16,-96.02 1427,-76 1424.32,-75.59 1421.56,-75.12 1418.79,-74.63"/>
<polygon fill="midnightblue" stroke="midnightblue" points="1786,-120.57 1796.26,-117.94 1786.59,-113.6 1786,-120.57"/>
</g>
<!-- Node270 -->
<g id="node18" class="node">
<title>Node270</title>
<g id="a_node18"><a xlink:href="_int_scratch_field_8cpp.html" target="_top" xlink:title=" ">
<polygon fill="white" stroke="black" points="1436.5,-56.5 1436.5,-75.5 1545.5,-75.5 1545.5,-56.5 1436.5,-56.5"/>
<text text-anchor="middle" x="1491" y="-63.5" font-family="Helvetica,sans-Serif" font-size="10.00">IntScratchField.cpp</text>
</a>
</g>
</g>
<!-- Node2&#45;&gt;Node270 -->
<g id="edge19" class="edge">
<title>Node2&#45;&gt;Node270</title>
<path fill="none" stroke="midnightblue" d="M1786.2,-113.47C1722.85,-103.5 1611.4,-85.96 1545.06,-75.51"/>
<polygon fill="midnightblue" stroke="midnightblue" points="1785.89,-116.97 1796.31,-115.07 1786.98,-110.05 1785.89,-116.97"/>
</g>
<!-- Node2&#45;&gt;Node271 -->
<g id="edge20" class="edge">
<title>Node2&#45;&gt;Node271</title>
<path fill="none" stroke="midnightblue" d="M1785.93,-120.6C1542.55,-118.44 444.58,-107.09 105,-76 102.11,-75.74 99.14,-75.41 96.15,-75.05"/>
<polygon fill="midnightblue" stroke="midnightblue" points="1786.18,-124.1 1796.21,-120.69 1786.24,-117.1 1786.18,-124.1"/>
</g>
<!-- Node2&#45;&gt;Node272 -->
<g id="edge21" class="edge">
<title>Node2&#45;&gt;Node272</title>
<path fill="none" stroke="midnightblue" d="M1786.14,-120.63C1551.94,-118.65 525.06,-108.29 207,-76 204.14,-75.71 201.19,-75.35 198.23,-74.95"/>
<polygon fill="midnightblue" stroke="midnightblue" points="1786.35,-124.13 1796.37,-120.71 1786.4,-117.13 1786.35,-124.13"/>
</g>
<!-- Node273 -->
<g id="node21" class="node">
<title>Node273</title>
<g id="a_node21"><a xlink:href="diffusion_8_h.html" target="_top" xlink:title=" ">
<polygon fill="white" stroke="red" points="1563.5,-56.5 1563.5,-75.5 1632.5,-75.5 1632.5,-56.5 1563.5,-56.5"/>
<text text-anchor="middle" x="1598" y="-63.5" font-family="Helvetica,sans-Serif" font-size="10.00">diffusion.H</text>
</a>
</g>
</g>
<!-- Node2&#45;&gt;Node273 -->
<g id="edge22" class="edge">
<title>Node2&#45;&gt;Node273</title>
<path fill="none" stroke="midnightblue" d="M1786.67,-110.17C1741.09,-99.74 1673.23,-84.21 1632.53,-74.9"/>
<polygon fill="midnightblue" stroke="midnightblue" points="1786.08,-113.62 1796.61,-112.44 1787.64,-106.8 1786.08,-113.62"/>
</g>
<!-- Node274 -->
<g id="node22" class="node">
<title>Node274</title>
<g id="a_node22"><a xlink:href="_density_source_8_h.html" target="_top" xlink:title=" ">
<polygon fill="white" stroke="red" points="1651,-56.5 1651,-75.5 1749,-75.5 1749,-56.5 1651,-56.5"/>
<text text-anchor="middle" x="1700" y="-63.5" font-family="Helvetica,sans-Serif" font-size="10.00">DensitySource.H</text>
</a>
</g>
</g>
<!-- Node2&#45;&gt;Node274 -->
<g id="edge23" class="edge">
<title>Node2&#45;&gt;Node274</title>
<path fill="none" stroke="midnightblue" d="M1803.32,-108.64C1778.18,-98.5 1743.25,-84.43 1721.13,-75.52"/>
<polygon fill="midnightblue" stroke="midnightblue" points="1802.18,-111.95 1812.77,-112.44 1804.8,-105.46 1802.18,-111.95"/>
</g>
<!-- Node275 -->
<g id="node23" class="node">
<title>Node275</title>
<g id="a_node23"><a xlink:href="_momentum_source_8_h.html" target="_top" xlink:title=" ">
<polygon fill="white" stroke="red" points="1919,-56.5 1919,-75.5 2035,-75.5 2035,-56.5 1919,-56.5"/>
<text text-anchor="middle" x="1977" y="-63.5" font-family="Helvetica,sans-Serif" font-size="10.00">MomentumSource.H</text>
</a>
</g>
</g>
<!-- Node2&#45;&gt;Node275 -->
<g id="edge24" class="edge">
<title>Node2&#45;&gt;Node275</title>
<path fill="none" stroke="midnightblue" d="M1866.03,-108.91C1892.91,-98.75 1930.64,-84.51 1954.45,-75.52"/>
<polygon fill="midnightblue" stroke="midnightblue" points="1864.78,-105.64 1856.66,-112.44 1867.25,-112.19 1864.78,-105.64"/>
</g>
<!-- Node188 -->
<g id="node24" class="node">
<title>Node188</title>
<g id="a_node24"><a xlink:href="_a_b_l_mean_boussinesq_8_h.html" target="_top" xlink:title=" ">
<polygon fill="white" stroke="red" points="1380,-0.5 1380,-19.5 1508,-19.5 1508,-0.5 1380,-0.5"/>
<text text-anchor="middle" x="1444" y="-7.5" font-family="Helvetica,sans-Serif" font-size="10.00">ABLMeanBoussinesq.H</text>
</a>
</g>
</g>
<!-- Node2&#45;&gt;Node188 -->
<g id="edge33" class="edge">
<title>Node2&#45;&gt;Node188</title>
<path fill="none" stroke="midnightblue" d="M1819.82,-104.38C1805.77,-89.12 1782.82,-67.23 1758,-56 1746.74,-50.91 1596.9,-30.83 1508.35,-19.29"/>
<polygon fill="midnightblue" stroke="midnightblue" points="1817.4,-106.92 1826.66,-112.06 1822.62,-102.27 1817.4,-106.92"/>
</g>
<!-- Node203 -->
<g id="node25" class="node">
<title>Node203</title>
<g id="a_node25"><a xlink:href="_a_b_l_meso_forcing_mom_8_h.html" target="_top" xlink:title=" ">
<polygon fill="white" stroke="red" points="1526,-0.5 1526,-19.5 1658,-19.5 1658,-0.5 1526,-0.5"/>
<text text-anchor="middle" x="1592" y="-7.5" font-family="Helvetica,sans-Serif" font-size="10.00">ABLMesoForcingMom.H</text>
</a>
</g>
</g>
<!-- Node2&#45;&gt;Node203 -->
<g id="edge34" class="edge">
<title>Node2&#45;&gt;Node203</title>
<path fill="none" stroke="midnightblue" d="M1826.73,-103.06C1819.77,-88.17 1807.83,-67.62 1791,-56 1768.7,-40.6 1701.98,-27.54 1651.89,-19.51"/>
<polygon fill="midnightblue" stroke="midnightblue" points="1823.55,-104.52 1830.76,-112.29 1829.97,-101.72 1823.55,-104.52"/>
</g>
<!-- Node279 -->
<g id="node26" class="node">
<title>Node279</title>
<g id="a_node26"><a xlink:href="_boussinesq_buoyancy_8_h.html" target="_top" xlink:title=" ">
<polygon fill="white" stroke="red" points="1676.5,-0.5 1676.5,-19.5 1805.5,-19.5 1805.5,-0.5 1676.5,-0.5"/>
<text text-anchor="middle" x="1741" y="-7.5" font-family="Helvetica,sans-Serif" font-size="10.00">BoussinesqBuoyancy.H</text>
</a>
</g>
</g>
<!-- Node2&#45;&gt;Node279 -->
<g id="edge35" class="edge">
<title>Node2&#45;&gt;Node279</title>
<path fill="none" stroke="midnightblue" d="M1837.2,-101.82C1838.47,-87.96 1837.92,-69.4 1829,-56 1816.73,-37.58 1794.48,-26.29 1775.43,-19.63"/>
<polygon fill="midnightblue" stroke="midnightblue" points="1833.68,-101.77 1835.85,-112.14 1840.62,-102.68 1833.68,-101.77"/>
</g>
<!-- Node281 -->
<g id="node27" class="node">
<title>Node281</title>
<g id="a_node27"><a xlink:href="_coriolis_forcing_8_h.html" target="_top" xlink:title=" ">
<polygon fill="white" stroke="red" points="1823.5,-0.5 1823.5,-19.5 1922.5,-19.5 1922.5,-0.5 1823.5,-0.5"/>
<text text-anchor="middle" x="1873" y="-7.5" font-family="Helvetica,sans-Serif" font-size="10.00">CoriolisForcing.H</text>
</a>
</g>
</g>
<!-- Node2&#45;&gt;Node281 -->
<g id="edge36" class="edge">
<title>Node2&#45;&gt;Node281</title>
<path fill="none" stroke="midnightblue" d="M1849.49,-104.47C1856.04,-96.48 1863.07,-86.38 1867,-76 1874.23,-56.93 1874.26,-32.54 1873.64,-19.74"/>
<polygon fill="midnightblue" stroke="midnightblue" points="1846.65,-102.4 1842.72,-112.23 1851.93,-107 1846.65,-102.4"/>
</g>
<!-- Node282 -->
<g id="node28" class="node">
<title>Node282</title>
<g id="a_node28"><a xlink:href="_density_buoyancy_8_h.html" target="_top" xlink:title=" ">
<polygon fill="white" stroke="red" points="1940.5,-0.5 1940.5,-19.5 2051.5,-19.5 2051.5,-0.5 1940.5,-0.5"/>
<text text-anchor="middle" x="1996" y="-7.5" font-family="Helvetica,sans-Serif" font-size="10.00">DensityBuoyancy.H</text>
</a>
</g>
</g>
<!-- Node2&#45;&gt;Node282 -->
<g id="edge37" class="edge">
<title>Node2&#45;&gt;Node282</title>
<path fill="none" stroke="midnightblue" d="M1881.58,-117.6C1937.13,-112.52 2023.97,-100.77 2044,-76 2059.87,-56.36 2029.7,-32.21 2010.38,-19.59"/>
<polygon fill="midnightblue" stroke="midnightblue" points="1881.26,-114.11 1871.6,-118.47 1881.87,-121.09 1881.26,-114.11"/>
</g>
<!-- Node284 -->
<g id="node29" class="node">
<title>Node284</title>
<g id="a_node29"><a xlink:href="_gravity_forcing_8_h.html" target="_top" xlink:title=" ">
<polygon fill="white" stroke="red" points="2070,-0.5 2070,-19.5 2168,-19.5 2168,-0.5 2070,-0.5"/>
<text text-anchor="middle" x="2119" y="-7.5" font-family="Helvetica,sans-Serif" font-size="10.00">GravityForcing.H</text>
</a>
</g>
</g>
<!-- Node2&#45;&gt;Node284 -->
<g id="edge38" class="edge">
<title>Node2&#45;&gt;Node284</title>
<path fill="none" stroke="midnightblue" d="M1882.06,-120.22C1930.24,-117.52 2005.1,-107.93 2061,-76 2085.43,-62.05 2104.98,-34.06 2113.84,-19.79"/>
<polygon fill="midnightblue" stroke="midnightblue" points="1881.72,-116.74 1871.9,-120.72 1882.06,-123.73 1881.72,-116.74"/>
</g>
<!-- Node189 -->
<g id="node30" class="node">
<title>Node189</title>
<g id="a_node30"><a xlink:href="_hurricane_forcing_8_h.html" target="_top" xlink:title=" ">
<polygon fill="white" stroke="red" points="2186,-0.5 2186,-19.5 2296,-19.5 2296,-0.5 2186,-0.5"/>
<text text-anchor="middle" x="2241" y="-7.5" font-family="Helvetica,sans-Serif" font-size="10.00">HurricaneForcing.H</text>
</a>
</g>
</g>
<!-- Node2&#45;&gt;Node189 -->
<g id="edge39" class="edge">
<title>Node2&#45;&gt;Node189</title>
<path fill="none" stroke="midnightblue" d="M1881.82,-115.81C1933.44,-109.45 2017.71,-96.86 2088,-76 2139.18,-60.81 2196.29,-33.63 2224.03,-19.72"/>
<polygon fill="midnightblue" stroke="midnightblue" points="1881.14,-112.36 1871.63,-117.03 1881.98,-119.31 1881.14,-112.36"/>
</g>
<!-- Node288 -->
<g id="node31" class="node">
<title>Node288</title>
<g id="a_node31"><a xlink:href="_m_m_s_forcing_8_h.html" target="_top" xlink:title=" ">
<polygon fill="white" stroke="red" points="2314,-0.5 2314,-19.5 2400,-19.5 2400,-0.5 2314,-0.5"/>
<text text-anchor="middle" x="2357" y="-7.5" font-family="Helvetica,sans-Serif" font-size="10.00">MMSForcing.H</text>
</a>
</g>
</g>
<!-- Node2&#45;&gt;Node288 -->
<g id="edge64" class="edge">
<title>Node2&#45;&gt;Node288</title>
<path fill="none" stroke="midnightblue" d="M1881.82,-115.87C1940.66,-109.07 2043.44,-95.59 2130,-76 2159.89,-69.23 2166.57,-64.57 2196,-56 2241,-42.89 2293.3,-28.41 2325.78,-19.51"/>
<polygon fill="midnightblue" stroke="midnightblue" points="1881.24,-112.41 1871.7,-117.02 1882.04,-119.37 1881.24,-112.41"/>
</g>
<!-- Node289 -->
<g id="node32" class="node">
<title>Node289</title>
<g id="a_node32"><a xlink:href="_p_d_e_helpers_8_h.html" target="_top" xlink:title=" ">
<polygon fill="white" stroke="red" points="216,-56.5 216,-75.5 300,-75.5 300,-56.5 216,-56.5"/>
<text text-anchor="middle" x="258" y="-63.5" font-family="Helvetica,sans-Serif" font-size="10.00">PDEHelpers.H</text>
</a>
</g>
</g>
<!-- Node2&#45;&gt;Node289 -->
<g id="edge41" class="edge">
<title>Node2&#45;&gt;Node289</title>
<path fill="none" stroke="midnightblue" d="M1786.07,-120.42C1561.26,-117.57 609.91,-104.04 314,-76 309.49,-75.57 304.79,-75.01 300.12,-74.37"/>
<polygon fill="midnightblue" stroke="midnightblue" points="1786.17,-123.92 1796.22,-120.55 1786.26,-116.92 1786.17,-123.92"/>
</g>
<!-- Node290 -->
<g id="node33" class="node">
<title>Node290</title>
<g id="a_node33"><a xlink:href="_s_d_r_source_8_h.html" target="_top" xlink:title=" ">
<polygon fill="white" stroke="red" points="2205,-56.5 2205,-75.5 2285,-75.5 2285,-56.5 2205,-56.5"/>
<text text-anchor="middle" x="2245" y="-63.5" font-family="Helvetica,sans-Serif" font-size="10.00">SDRSource.H</text>
</a>
</g>
</g>
<!-- Node2&#45;&gt;Node290 -->
<g id="edge43" class="edge">
<title>Node2&#45;&gt;Node290</title>
<path fill="none" stroke="midnightblue" d="M1881.64,-115.61C1950.16,-107.71 2080.47,-92.17 2191,-76 2195.51,-75.34 2200.23,-74.61 2204.92,-73.86"/>
<polygon fill="midnightblue" stroke="midnightblue" points="1881.12,-112.14 1871.59,-116.76 1881.92,-119.1 1881.12,-112.14"/>
</g>
<!-- Node292 -->
<g id="node34" class="node">
<title>Node292</title>
<g id="a_node34"><a xlink:href="_source_term_8_h.html" target="_top" xlink:title=" ">
<polygon fill="white" stroke="red" points="2303,-56.5 2303,-75.5 2387,-75.5 2387,-56.5 2303,-56.5"/>
<text text-anchor="middle" x="2345" y="-63.5" font-family="Helvetica,sans-Serif" font-size="10.00">SourceTerm.H</text>
</a>
</g>
</g>
<!-- Node2&#45;&gt;Node292 -->
<g id="edge44" class="edge">
<title>Node2&#45;&gt;Node292</title>
<path fill="none" stroke="midnightblue" d="M1881.9,-117.54C1965.68,-111.21 2144.19,-96.52 2294,-76 2296.85,-75.61 2299.79,-75.18 2302.74,-74.72"/>
<polygon fill="midnightblue" stroke="midnightblue" points="1881.39,-114.07 1871.68,-118.3 1881.91,-121.05 1881.39,-114.07"/>
</g>
<!-- Node204 -->
<g id="node35" class="node">
<title>Node204</title>
<g id="a_node35"><a xlink:href="_a_b_l_meso_forcing_temp_8_h.html" target="_top" xlink:title=" ">
<polygon fill="white" stroke="red" points="2418,-0.5 2418,-19.5 2552,-19.5 2552,-0.5 2418,-0.5"/>
<text text-anchor="middle" x="2485" y="-7.5" font-family="Helvetica,sans-Serif" font-size="10.00">ABLMesoForcingTemp.H</text>
</a>
</g>
</g>
<!-- Node2&#45;&gt;Node204 -->
<g id="edge45" class="edge">
<title>Node2&#45;&gt;Node204</title>
<path fill="none" stroke="midnightblue" d="M1881.98,-120.49C2000.11,-118.71 2302.25,-110.79 2396,-76 2429.72,-63.49 2461.91,-34.3 2476.64,-19.67"/>
<polygon fill="midnightblue" stroke="midnightblue" points="1881.75,-117 1871.8,-120.64 1881.84,-123.99 1881.75,-117"/>
</g>
<!-- Node190 -->
<g id="node36" class="node">
<title>Node190</title>
<g id="a_node36"><a xlink:href="_hurricane_temp_forcing_8_h.html" target="_top" xlink:title=" ">
<polygon fill="white" stroke="red" points="2570,-0.5 2570,-19.5 2706,-19.5 2706,-0.5 2570,-0.5"/>
<text text-anchor="middle" x="2638" y="-7.5" font-family="Helvetica,sans-Serif" font-size="10.00">HurricaneTempForcing.H</text>
</a>
</g>
</g>
<!-- Node2&#45;&gt;Node190 -->
<g id="edge46" class="edge">
<title>Node2&#45;&gt;Node190</title>
<path fill="none" stroke="midnightblue" d="M1881.98,-120.07C2035.97,-116.81 2511.3,-104.52 2574,-76 2601.1,-63.67 2622.91,-34.4 2632.59,-19.71"/>
<polygon fill="midnightblue" stroke="midnightblue" points="1881.81,-116.57 1871.89,-120.28 1881.96,-123.57 1881.81,-116.57"/>
</g>
<!-- Node293 -->
<g id="node37" class="node">
<title>Node293</title>
<g id="a_node37"><a xlink:href="_temperature_source_8_h.html" target="_top" xlink:title=" ">
<polygon fill="white" stroke="red" points="2443,-56.5 2443,-75.5 2565,-75.5 2565,-56.5 2443,-56.5"/>
<text text-anchor="middle" x="2504" y="-63.5" font-family="Helvetica,sans-Serif" font-size="10.00">TemperatureSource.H</text>
</a>
</g>
</g>
<!-- Node2&#45;&gt;Node293 -->
<g id="edge47" class="edge">
<title>Node2&#45;&gt;Node293</title>
<path fill="none" stroke="midnightblue" d="M1881.84,-118.1C1982.96,-111.81 2225.86,-95.86 2429,-76 2433.44,-75.57 2438.02,-75.09 2442.63,-74.59"/>
<polygon fill="midnightblue" stroke="midnightblue" points="1881.41,-114.62 1871.64,-118.73 1881.84,-121.6 1881.41,-114.62"/>
</g>
<!-- Node295 -->
<g id="node38" class="node">
<title>Node295</title>
<g id="a_node38"><a xlink:href="_t_k_e_source_8_h.html" target="_top" xlink:title=" ">
<polygon fill="white" stroke="red" points="2621.5,-56.5 2621.5,-75.5 2700.5,-75.5 2700.5,-56.5 2621.5,-56.5"/>
<text text-anchor="middle" x="2661" y="-63.5" font-family="Helvetica,sans-Serif" font-size="10.00">TKESource.H</text>
</a>
</g>
</g>
<!-- Node2&#45;&gt;Node295 -->
<g id="edge50" class="edge">
<title>Node2&#45;&gt;Node295</title>
<path fill="none" stroke="midnightblue" d="M1881.59,-120C2002.9,-117.07 2333.43,-106.67 2607,-76 2611.63,-75.48 2616.46,-74.83 2621.26,-74.12"/>
<polygon fill="midnightblue" stroke="midnightblue" points="1881.44,-116.5 1871.53,-120.24 1881.61,-123.5 1881.44,-116.5"/>
</g>
<!-- Node299 -->
<g id="node39" class="node">
<title>Node299</title>
<g id="a_node39"><a xlink:href="_split_advection_8_h.html" target="_top" xlink:title=" ">
<polygon fill="white" stroke="red" points="2718,-56.5 2718,-75.5 2816,-75.5 2816,-56.5 2718,-56.5"/>
<text text-anchor="middle" x="2767" y="-63.5" font-family="Helvetica,sans-Serif" font-size="10.00">SplitAdvection.H</text>
</a>
</g>
</g>
<!-- Node2&#45;&gt;Node299 -->
<g id="edge51" class="edge">
<title>Node2&#45;&gt;Node299</title>
<path fill="none" stroke="midnightblue" d="M1881.86,-120.31C2014.04,-118.02 2395.16,-108.85 2710,-76 2712.59,-75.73 2715.24,-75.42 2717.92,-75.09"/>
<polygon fill="midnightblue" stroke="midnightblue" points="1881.62,-116.81 1871.68,-120.48 1881.73,-123.81 1881.62,-116.81"/>
</g>
<!-- Node301 -->
<g id="node40" class="node">
<title>Node301</title>
<g id="a_node40"><a xlink:href="vof__hybridsolver__ops_8_h.html" target="_top" xlink:title=" ">
<polygon fill="white" stroke="red" points="2834.5,-56.5 2834.5,-75.5 2965.5,-75.5 2965.5,-56.5 2834.5,-56.5"/>
<text text-anchor="middle" x="2900" y="-63.5" font-family="Helvetica,sans-Serif" font-size="10.00">vof_hybridsolver_ops.H</text>
</a>
</g>
</g>
<!-- Node2&#45;&gt;Node301 -->
<g id="edge52" class="edge">
<title>Node2&#45;&gt;Node301</title>
<path fill="none" stroke="midnightblue" d="M1882.08,-120.08C2025.59,-117.06 2463.31,-105.87 2825,-76 2828.01,-75.75 2831.08,-75.48 2834.18,-75.18"/>
<polygon fill="midnightblue" stroke="midnightblue" points="1881.79,-116.58 1871.87,-120.29 1881.94,-123.58 1881.79,-116.58"/>
</g>
<!-- Node302 -->
<g id="node41" class="node">
<title>Node302</title>
<g id="a_node41"><a xlink:href="fvm__utils_8_h.html" target="_top" xlink:title=" ">
<polygon fill="white" stroke="red" points="2983.5,-56.5 2983.5,-75.5 3056.5,-75.5 3056.5,-56.5 2983.5,-56.5"/>
<text text-anchor="middle" x="3020" y="-63.5" font-family="Helvetica,sans-Serif" font-size="10.00">fvm_utils.H</text>
</a>
</g>
</g>
<!-- Node2&#45;&gt;Node302 -->
<g id="edge53" class="edge">
<title>Node2&#45;&gt;Node302</title>
<path fill="none" stroke="midnightblue" d="M1881.64,-120.13C2069.35,-116.52 2758.13,-101.8 2975,-76 2977.69,-75.68 2980.46,-75.29 2983.24,-74.84"/>
<polygon fill="midnightblue" stroke="midnightblue" points="1881.47,-116.63 1871.54,-120.32 1881.6,-123.63 1881.47,-116.63"/>
</g>
<!-- Node314 -->
<g id="node42" class="node">
<title>Node314</title>
<g id="a_node42"><a xlink:href="_i_b_8_h.html" target="_top" xlink:title=" ">
<polygon fill="white" stroke="red" points="558.5,-56.5 558.5,-75.5 595.5,-75.5 595.5,-56.5 558.5,-56.5"/>
<text text-anchor="middle" x="577" y="-63.5" font-family="Helvetica,sans-Serif" font-size="10.00">IB.H</text>
</a>
</g>
</g>
<!-- Node2&#45;&gt;Node314 -->
<g id="edge55" class="edge">
<title>Node2&#45;&gt;Node314</title>
<path fill="none" stroke="midnightblue" d="M1786.41,-120.71C1590.14,-119.28 842.97,-111.57 610,-76 605.3,-75.28 600.32,-74.14 595.69,-72.9"/>
<polygon fill="midnightblue" stroke="midnightblue" points="1786.38,-124.21 1796.41,-120.78 1786.43,-117.21 1786.38,-124.21"/>
</g>
<!-- Node315 -->
<g id="node43" class="node">
<title>Node315</title>
<g id="a_node43"><a xlink:href="_ocean_waves_8_h.html" target="_top" xlink:title=" ">
<polygon fill="white" stroke="red" points="950,-56.5 950,-75.5 1040,-75.5 1040,-56.5 950,-56.5"/>
<text text-anchor="middle" x="995" y="-63.5" font-family="Helvetica,sans-Serif" font-size="10.00">OceanWaves.H</text>
</a>
</g>
</g>
<!-- Node2&#45;&gt;Node315 -->
<g id="edge59" class="edge">
<title>Node2&#45;&gt;Node315</title>
<path fill="none" stroke="midnightblue" d="M1786,-119.8C1663.65,-116.39 1330.25,-104.97 1054,-76 1049.47,-75.52 1044.75,-74.95 1040.04,-74.32"/>
<polygon fill="midnightblue" stroke="midnightblue" points="1786.06,-123.3 1796.15,-120.07 1786.25,-116.3 1786.06,-123.3"/>
</g>
<!-- Node21 -->
<g id="node44" class="node">
<title>Node21</title>
<g id="a_node44"><a xlink:href="waves2amr__ops_8_h.html" target="_top" xlink:title=" ">
<polygon fill="white" stroke="red" points="962.5,-0.5 962.5,-19.5 1069.5,-19.5 1069.5,-0.5 962.5,-0.5"/>
<text text-anchor="middle" x="1016" y="-7.5" font-family="Helvetica,sans-Serif" font-size="10.00">waves2amr_ops.H</text>
</a>
</g>
</g>
<!-- Node2&#45;&gt;Node21 -->
<g id="edge62" class="edge">
<title>Node2&#45;&gt;Node21</title>
<path fill="none" stroke="midnightblue" d="M1786.15,-119.97C1631.46,-116.38 1151.1,-103.16 1087,-76 1058.07,-63.74 1033.34,-34.43 1022.24,-19.73"/>
<polygon fill="midnightblue" stroke="midnightblue" points="1786.21,-123.47 1796.29,-120.2 1786.37,-116.47 1786.21,-123.47"/>
</g>
<!-- Node316 -->
<g id="node45" class="node">
<title>Node316</title>
<g id="a_node45"><a xlink:href="hydrostatic__ops_8_h.html" target="_top" xlink:title=" ">
<polygon fill="white" stroke="red" points="3075,-56.5 3075,-75.5 3179,-75.5 3179,-56.5 3075,-56.5"/>
<text text-anchor="middle" x="3127" y="-63.5" font-family="Helvetica,sans-Serif" font-size="10.00">hydrostatic_ops.H</text>
</a>
</g>
</g>
<!-- Node2&#45;&gt;Node316 -->
<g id="edge65" class="edge">
<title>Node2&#45;&gt;Node316</title>
<path fill="none" stroke="midnightblue" d="M1881.94,-121.14C2046.92,-121.23 2606.39,-118.17 3066,-76 3068.88,-75.74 3071.83,-75.43 3074.8,-75.09"/>
<polygon fill="midnightblue" stroke="midnightblue" points="1881.65,-117.64 1871.65,-121.13 1881.64,-124.64 1881.65,-117.64"/>
</g>
<!-- Node55 -->
<g id="node46" class="node">
<title>Node55</title>
<g id="a_node46"><a xlink:href="_burggraf_lid_8cpp.html" target="_top" xlink:title=" ">
<polygon fill="white" stroke="black" points="3197.5,-56.5 3197.5,-75.5 3290.5,-75.5 3290.5,-56.5 3197.5,-56.5"/>
<text text-anchor="middle" x="3244" y="-63.5" font-family="Helvetica,sans-Serif" font-size="10.00">BurggrafLid.cpp</text>
</a>
</g>
</g>
<!-- Node2&#45;&gt;Node55 -->
<g id="edge66" class="edge">
<title>Node2&#45;&gt;Node55</title>
<path fill="none" stroke="midnightblue" d="M1881.69,-120.22C2090.63,-116.7 2926.55,-101.25 3188,-76 3191.04,-75.71 3194.16,-75.35 3197.31,-74.96"/>
<polygon fill="midnightblue" stroke="midnightblue" points="1881.58,-116.72 1871.64,-120.39 1881.7,-123.72 1881.58,-116.72"/>
</g>
<!-- Node56 -->
<g id="node47" class="node">
<title>Node56</title>
<g id="a_node47"><a xlink:href="_custom_scalar_8cpp.html" target="_top" xlink:title=" ">
<polygon fill="white" stroke="black" points="3309,-56.5 3309,-75.5 3413,-75.5 3413,-56.5 3309,-56.5"/>
<text text-anchor="middle" x="3361" y="-63.5" font-family="Helvetica,sans-Serif" font-size="10.00">CustomScalar.cpp</text>
</a>
</g>
</g>
<!-- Node2&#45;&gt;Node56 -->
<g id="edge67" class="edge">
<title>Node2&#45;&gt;Node56</title>
<path fill="none" stroke="midnightblue" d="M1881.98,-120.28C2101.93,-116.84 3015.2,-101.29 3300,-76 3302.88,-75.74 3305.83,-75.44 3308.8,-75.11"/>
<polygon fill="midnightblue" stroke="midnightblue" points="1881.68,-116.78 1871.74,-120.43 1881.79,-123.78 1881.68,-116.78"/>
</g>
<!-- Node57 -->
<g id="node48" class="node">
<title>Node57</title>
<g id="a_node48"><a xlink:href="_custom_velocity_8cpp.html" target="_top" xlink:title=" ">
<polygon fill="white" stroke="black" points="3431,-56.5 3431,-75.5 3543,-75.5 3543,-56.5 3431,-56.5"/>
<text text-anchor="middle" x="3487" y="-63.5" font-family="Helvetica,sans-Serif" font-size="10.00">CustomVelocity.cpp</text>
</a>
</g>
</g>
<!-- Node2&#45;&gt;Node57 -->
<g id="edge68" class="edge">
<title>Node2&#45;&gt;Node57</title>
<path fill="none" stroke="midnightblue" d="M1881.81,-120.35C2112.44,-117.11 3111.55,-101.81 3422,-76 3424.84,-75.76 3427.74,-75.49 3430.67,-75.18"/>
<polygon fill="midnightblue" stroke="midnightblue" points="1881.68,-116.85 1871.73,-120.49 1881.78,-123.85 1881.68,-116.85"/>
</g>
<!-- Node317 -->
<g id="node49" class="node">
<title>Node317</title>
<g id="a_node49"><a xlink:href="_linear_profile_8cpp.html" target="_top" xlink:title=" ">
<polygon fill="white" stroke="black" points="3561,-56.5 3561,-75.5 3659,-75.5 3659,-56.5 3561,-56.5"/>
<text text-anchor="middle" x="3610" y="-63.5" font-family="Helvetica,sans-Serif" font-size="10.00">LinearProfile.cpp</text>
</a>
</g>
</g>
<!-- Node2&#45;&gt;Node317 -->
<g id="edge69" class="edge">
<title>Node2&#45;&gt;Node317</title>
<path fill="none" stroke="midnightblue" d="M1881.76,-120.57C2123.59,-118.3 3214.54,-106.48 3552,-76 3554.84,-75.74 3557.76,-75.44 3560.69,-75.09"/>
<polygon fill="midnightblue" stroke="midnightblue" points="1881.52,-117.08 1871.55,-120.67 1881.58,-124.08 1881.52,-117.08"/>
</g>
<!-- Node4&#45;&gt;Node3 -->
<g id="edge4" class="edge">
<title>Node4&#45;&gt;Node3</title>
<path fill="none" stroke="midnightblue" d="M3769,-45.8C3769,-36.91 3769,-26.78 3769,-19.75"/>
<polygon fill="midnightblue" stroke="midnightblue" points="3765.5,-46.08 3769,-56.08 3772.5,-46.08 3765.5,-46.08"/>
</g>
<!-- Node6&#45;&gt;Node3 -->
<g id="edge6" class="edge">
<title>Node6&#45;&gt;Node3</title>
<path fill="none" stroke="midnightblue" d="M3876.52,-52.77C3850.41,-42.63 3813.96,-28.47 3790.92,-19.52"/>
<polygon fill="midnightblue" stroke="midnightblue" points="3875.39,-56.08 3885.98,-56.44 3877.92,-49.56 3875.39,-56.08"/>
</g>
<!-- Node25&#45;&gt;Node77 -->
<g id="edge10" class="edge">
<title>Node25&#45;&gt;Node77</title>
<path fill="none" stroke="midnightblue" d="M679.33,-59.03C602.12,-48.47 442.63,-26.67 368.06,-16.48"/>
<polygon fill="midnightblue" stroke="midnightblue" points="679.28,-62.56 689.66,-60.44 680.23,-55.62 679.28,-62.56"/>
</g>
<!-- Node25&#45;&gt;Node92 -->
<g id="edge11" class="edge">
<title>Node25&#45;&gt;Node92</title>
<path fill="none" stroke="midnightblue" d="M695.34,-52.23C673.45,-42.13 643.5,-28.31 624.45,-19.52"/>
<polygon fill="midnightblue" stroke="midnightblue" points="693.91,-55.43 704.46,-56.44 696.85,-49.08 693.91,-55.43"/>
</g>
<!-- Node25&#45;&gt;Node103 -->
<g id="edge12" class="edge">
<title>Node25&#45;&gt;Node103</title>
<path fill="none" stroke="midnightblue" d="M707.97,-48.43C699.38,-38.97 688.96,-27.48 681.94,-19.75"/>
<polygon fill="midnightblue" stroke="midnightblue" points="705.6,-51.03 714.91,-56.08 710.78,-46.33 705.6,-51.03"/>
</g>
<!-- Node25&#45;&gt;Node133 -->
<g id="edge13" class="edge">
<title>Node25&#45;&gt;Node133</title>
<path fill="none" stroke="midnightblue" d="M760.04,-53.3C792.26,-43.13 838.19,-28.62 867.03,-19.52"/>
<polygon fill="midnightblue" stroke="midnightblue" points="758.58,-50.09 750.1,-56.44 760.69,-56.77 758.58,-50.09"/>
</g>
<!-- Node25&#45;&gt;Node144 -->
<g id="edge14" class="edge">
<title>Node25&#45;&gt;Node144</title>
<path fill="none" stroke="midnightblue" d="M738.03,-48.43C746.62,-38.97 757.04,-27.48 764.06,-19.75"/>
<polygon fill="midnightblue" stroke="midnightblue" points="735.22,-46.33 731.09,-56.08 740.4,-51.03 735.22,-46.33"/>
</g>
<!-- Node275&#45;&gt;Node188 -->
<g id="edge25" class="edge">
<title>Node275&#45;&gt;Node188</title>
<path fill="none" stroke="midnightblue" d="M1908.8,-58.87C1818.94,-50.67 1656,-35.37 1517,-20 1514.08,-19.68 1511.1,-19.34 1508.08,-18.99"/>
<polygon fill="midnightblue" stroke="midnightblue" points="1908.58,-62.36 1918.86,-59.78 1909.22,-55.39 1908.58,-62.36"/>
</g>
<!-- Node275&#45;&gt;Node203 -->
<g id="edge26" class="edge">
<title>Node275&#45;&gt;Node203</title>
<path fill="none" stroke="midnightblue" d="M1908.98,-55.46C1836.39,-45.28 1722.44,-29.3 1652.76,-19.52"/>
<polygon fill="midnightblue" stroke="midnightblue" points="1908.56,-58.93 1918.94,-56.86 1909.53,-52 1908.56,-58.93"/>
</g>
<!-- Node275&#45;&gt;Node279 -->
<g id="edge27" class="edge">
<title>Node275&#45;&gt;Node279</title>
<path fill="none" stroke="midnightblue" d="M1929.59,-54.15C1885,-43.95 1819.15,-28.88 1778.22,-19.52"/>
<polygon fill="midnightblue" stroke="midnightblue" points="1929.08,-57.62 1939.61,-56.44 1930.64,-50.8 1929.08,-57.62"/>
</g>
<!-- Node275&#45;&gt;Node281 -->
<g id="edge28" class="edge">
<title>Node275&#45;&gt;Node281</title>
<path fill="none" stroke="midnightblue" d="M1951.17,-51.59C1931.94,-41.61 1906.26,-28.27 1889.67,-19.65"/>
<polygon fill="midnightblue" stroke="midnightblue" points="1949.8,-54.82 1960.29,-56.32 1953.03,-48.61 1949.8,-54.82"/>
</g>
<!-- Node275&#45;&gt;Node282 -->
<g id="edge29" class="edge">
<title>Node275&#45;&gt;Node282</title>
<path fill="none" stroke="midnightblue" d="M1983.55,-46.4C1986.72,-37.36 1990.39,-26.94 1992.92,-19.75"/>
<polygon fill="midnightblue" stroke="midnightblue" points="1980.15,-45.49 1980.14,-56.08 1986.76,-47.81 1980.15,-45.49"/>
</g>
<!-- Node275&#45;&gt;Node284 -->
<g id="edge30" class="edge">
<title>Node275&#45;&gt;Node284</title>
<path fill="none" stroke="midnightblue" d="M2009.16,-52.77C2035.83,-42.63 2073.07,-28.47 2096.6,-19.52"/>
<polygon fill="midnightblue" stroke="midnightblue" points="2007.6,-49.62 1999.5,-56.44 2010.09,-56.16 2007.6,-49.62"/>
</g>
<!-- Node275&#45;&gt;Node189 -->
<g id="edge31" class="edge">
<title>Node275&#45;&gt;Node189</title>
<path fill="none" stroke="midnightblue" d="M2028.78,-54.41C2078.67,-44.2 2153.2,-28.96 2199.36,-19.52"/>
<polygon fill="midnightblue" stroke="midnightblue" points="2027.93,-51.01 2018.83,-56.44 2029.33,-57.87 2027.93,-51.01"/>
</g>
<!-- Node275&#45;&gt;Node288 -->
<g id="edge32" class="edge">
<title>Node275&#45;&gt;Node288</title>
<path fill="none" stroke="midnightblue" d="M2045.08,-56.37C2111.49,-47.78 2215.32,-33.91 2305,-20 2307.9,-19.55 2310.88,-19.07 2313.89,-18.58"/>
<polygon fill="midnightblue" stroke="midnightblue" points="2044.62,-52.9 2035.15,-57.65 2045.52,-59.84 2044.62,-52.9"/>
</g>
<!-- Node289&#45;&gt;Node77 -->
<g id="edge42" class="edge">
<title>Node289&#45;&gt;Node77</title>
<path fill="none" stroke="midnightblue" d="M277.31,-50.1C289.91,-40.38 305.93,-28.03 316.55,-19.83"/>
<polygon fill="midnightblue" stroke="midnightblue" points="275.03,-47.44 269.25,-56.32 279.3,-52.99 275.03,-47.44"/>
</g>
<!-- Node293&#45;&gt;Node204 -->
<g id="edge48" class="edge">
<title>Node293&#45;&gt;Node204</title>
<path fill="none" stroke="midnightblue" d="M2497.45,-46.4C2494.28,-37.36 2490.61,-26.94 2488.08,-19.75"/>
<polygon fill="midnightblue" stroke="midnightblue" points="2494.24,-47.81 2500.86,-56.08 2500.85,-45.49 2494.24,-47.81"/>
</g>
<!-- Node293&#45;&gt;Node190 -->
<g id="edge49" class="edge">
<title>Node293&#45;&gt;Node190</title>
<path fill="none" stroke="midnightblue" d="M2534.68,-52.64C2559.82,-42.5 2594.75,-28.43 2616.87,-19.52"/>
<polygon fill="midnightblue" stroke="midnightblue" points="2533.2,-49.46 2525.23,-56.44 2535.82,-55.95 2533.2,-49.46"/>
</g>
<!-- Node314&#45;&gt;Node92 -->
<g id="edge56" class="edge">
<title>Node314&#45;&gt;Node92</title>
<path fill="none" stroke="midnightblue" d="M586.68,-46.98C591.6,-37.82 597.36,-27.09 601.3,-19.75"/>
<polygon fill="midnightblue" stroke="midnightblue" points="583.44,-45.62 581.79,-56.08 589.6,-48.93 583.44,-45.62"/>
</g>
<!-- Node315&#45;&gt;Node133 -->
<g id="edge60" class="edge">
<title>Node315&#45;&gt;Node133</title>
<path fill="none" stroke="midnightblue" d="M969.92,-51.59C951.24,-41.61 926.3,-28.27 910.19,-19.65"/>
<polygon fill="midnightblue" stroke="midnightblue" points="968.3,-54.7 978.77,-56.32 971.6,-48.52 968.3,-54.7"/>
</g>
<!-- Node315&#45;&gt;Node21 -->
<g id="edge61" class="edge">
<title>Node315&#45;&gt;Node21</title>
<path fill="none" stroke="midnightblue" d="M1002.12,-46.69C1005.66,-37.59 1009.77,-27.01 1012.6,-19.75"/>
<polygon fill="midnightblue" stroke="midnightblue" points="998.83,-45.49 998.47,-56.08 1005.35,-48.03 998.83,-45.49"/>
</g>
<!-- Node325&#45;&gt;Node133 -->
<g id="edge73" class="edge">
<title>Node325&#45;&gt;Node133</title>
<path fill="none" stroke="midnightblue" d="M866.02,-47.86C873.12,-38.5 881.6,-27.33 887.36,-19.75"/>
<polygon fill="midnightblue" stroke="midnightblue" points="863.03,-46 859.77,-56.08 868.61,-50.24 863.03,-46"/>
</g>
<!-- Node325&#45;&gt;Node21 -->
<g id="edge74" class="edge">
<title>Node325&#45;&gt;Node21</title>
<path fill="none" stroke="midnightblue" d="M888.7,-53.17C919.4,-43 962.92,-28.59 990.29,-19.52"/>
<polygon fill="midnightblue" stroke="midnightblue" points="887.22,-49.98 878.83,-56.44 889.42,-56.62 887.22,-49.98"/>
</g>
</g>
</svg>
