<?xml version="1.0" encoding="UTF-8" standalone="no"?>
<!DOCTYPE svg PUBLIC "-//W3C//DTD SVG 1.1//EN"
 "http://www.w3.org/Graphics/SVG/1.1/DTD/svg11.dtd">
<!-- Generated by graphviz version 2.43.0 (0)
 -->
<!-- Title: TwoLayer.H Pages: 1 -->
<svg width="270pt" height="196pt"
 viewBox="0.00 0.00 270.00 196.00" xmlns="http://www.w3.org/2000/svg" xmlns:xlink="http://www.w3.org/1999/xlink">
<g id="graph0" class="graph" transform="scale(1 1) rotate(0) translate(4 192)">
<title>TwoLayer.H</title>
<polygon fill="white" stroke="transparent" points="-4,4 -4,-192 266,-192 266,4 -4,4"/>
<!-- Node1 -->
<g id="node1" class="node">
<title>Node1</title>
<g id="a_node1"><a xlink:title=" ">
<polygon fill="#bfbfbf" stroke="black" points="111,-168.5 111,-187.5 183,-187.5 183,-168.5 111,-168.5"/>
<text text-anchor="middle" x="147" y="-175.5" font-family="Helvetica,sans-Serif" font-size="10.00">TwoLayer.H</text>
</a>
</g>
</g>
<!-- Node2 -->
<g id="node2" class="node">
<title>Node2</title>
<g id="a_node2"><a xlink:href="velocity__bcs_8_h.html" target="_top" xlink:title=" ">
<polygon fill="white" stroke="black" points="0,-112.5 0,-131.5 88,-131.5 88,-112.5 0,-112.5"/>
<text text-anchor="middle" x="44" y="-119.5" font-family="Helvetica,sans-Serif" font-size="10.00">velocity_bcs.H</text>
</a>
</g>
</g>
<!-- Node1&#45;&gt;Node2 -->
<g id="edge1" class="edge">
<title>Node1&#45;&gt;Node2</title>
<path fill="none" stroke="midnightblue" d="M121.42,-163.59C102.38,-153.61 76.94,-140.27 60.51,-131.65"/>
<polygon fill="midnightblue" stroke="midnightblue" points="119.97,-166.78 130.45,-168.32 123.22,-160.58 119.97,-166.78"/>
</g>
<!-- Node5 -->
<g id="node5" class="node">
<title>Node5</title>
<g id="a_node5"><a xlink:href="_two_layer_8cpp.html" target="_top" xlink:title=" ">
<polygon fill="white" stroke="black" points="106,-112.5 106,-131.5 188,-131.5 188,-112.5 106,-112.5"/>
<text text-anchor="middle" x="147" y="-119.5" font-family="Helvetica,sans-Serif" font-size="10.00">TwoLayer.cpp</text>
</a>
</g>
</g>
<!-- Node1&#45;&gt;Node5 -->
<g id="edge4" class="edge">
<title>Node1&#45;&gt;Node5</title>
<path fill="none" stroke="midnightblue" d="M147,-157.8C147,-148.91 147,-138.78 147,-131.75"/>
<polygon fill="midnightblue" stroke="midnightblue" points="143.5,-158.08 147,-168.08 150.5,-158.08 143.5,-158.08"/>
</g>
<!-- Node6 -->
<g id="node6" class="node">
<title>Node6</title>
<g id="a_node6"><a xlink:href="_u_d_f_8cpp.html" target="_top" xlink:title=" ">
<polygon fill="white" stroke="black" points="206,-112.5 206,-131.5 262,-131.5 262,-112.5 206,-112.5"/>
<text text-anchor="middle" x="234" y="-119.5" font-family="Helvetica,sans-Serif" font-size="10.00">UDF.cpp</text>
</a>
</g>
</g>
<!-- Node1&#45;&gt;Node6 -->
<g id="edge5" class="edge">
<title>Node1&#45;&gt;Node6</title>
<path fill="none" stroke="midnightblue" d="M169.72,-162.9C185.67,-153 206.5,-140.07 220.06,-131.65"/>
<polygon fill="midnightblue" stroke="midnightblue" points="167.63,-160.08 160.98,-168.32 171.32,-166.02 167.63,-160.08"/>
</g>
<!-- Node3 -->
<g id="node3" class="node">
<title>Node3</title>
<g id="a_node3"><a xlink:href="icns__bcop_8_h.html" target="_top" xlink:title=" ">
<polygon fill="white" stroke="black" points="6.5,-56.5 6.5,-75.5 81.5,-75.5 81.5,-56.5 6.5,-56.5"/>
<text text-anchor="middle" x="44" y="-63.5" font-family="Helvetica,sans-Serif" font-size="10.00">icns_bcop.H</text>
</a>
</g>
</g>
<!-- Node2&#45;&gt;Node3 -->
<g id="edge2" class="edge">
<title>Node2&#45;&gt;Node3</title>
<path fill="none" stroke="midnightblue" d="M44,-101.8C44,-92.91 44,-82.78 44,-75.75"/>
<polygon fill="midnightblue" stroke="midnightblue" points="40.5,-102.08 44,-112.08 47.5,-102.08 40.5,-102.08"/>
</g>
<!-- Node4 -->
<g id="node4" class="node">
<title>Node4</title>
<g id="a_node4"><a xlink:href="icns_8cpp.html" target="_top" xlink:title=" ">
<polygon fill="white" stroke="black" points="16,-0.5 16,-19.5 72,-19.5 72,-0.5 16,-0.5"/>
<text text-anchor="middle" x="44" y="-7.5" font-family="Helvetica,sans-Serif" font-size="10.00">icns.cpp</text>
</a>
</g>
</g>
<!-- Node3&#45;&gt;Node4 -->
<g id="edge3" class="edge">
<title>Node3&#45;&gt;Node4</title>
<path fill="none" stroke="midnightblue" d="M44,-45.8C44,-36.91 44,-26.78 44,-19.75"/>
<polygon fill="midnightblue" stroke="midnightblue" points="40.5,-46.08 44,-56.08 47.5,-46.08 40.5,-46.08"/>
</g>
</g>
</svg>
