<?xml version="1.0" encoding="UTF-8" standalone="no"?>
<!DOCTYPE svg PUBLIC "-//W3C//DTD SVG 1.1//EN"
 "http://www.w3.org/Graphics/SVG/1.1/DTD/svg11.dtd">
<!-- Generated by graphviz version 2.43.0 (0)
 -->
<!-- Title: UDF.cpp Pages: 1 -->
<svg width="2792pt" height="274pt"
 viewBox="0.00 0.00 2791.70 274.00" xmlns="http://www.w3.org/2000/svg" xmlns:xlink="http://www.w3.org/1999/xlink">
<g id="graph0" class="graph" transform="scale(1 1) rotate(0) translate(4 270)">
<title>UDF.cpp</title>
<polygon fill="white" stroke="transparent" points="-4,4 -4,-270 2787.7,-270 2787.7,4 -4,4"/>
<!-- Node1 -->
<g id="node1" class="node">
<title>Node1</title>
<g id="a_node1"><a xlink:title=" ">
<polygon fill="#bfbfbf" stroke="black" points="1975.2,-246.5 1975.2,-265.5 2031.2,-265.5 2031.2,-246.5 1975.2,-246.5"/>
<text text-anchor="middle" x="2003.2" y="-253.5" font-family="Helvetica,sans-Serif" font-size="10.00">UDF.cpp</text>
</a>
</g>
</g>
<!-- Node2 -->
<g id="node2" class="node">
<title>Node2</title>
<g id="a_node2"><a xlink:href="_u_d_f_8_h.html" target="_top" xlink:title=" ">
<polygon fill="white" stroke="black" points="1504.7,-179.5 1504.7,-209.5 1631.7,-209.5 1631.7,-179.5 1504.7,-179.5"/>
<text text-anchor="start" x="1512.7" y="-197.5" font-family="Helvetica,sans-Serif" font-size="10.00">amr&#45;wind/physics/udfs</text>
<text text-anchor="middle" x="1568.2" y="-186.5" font-family="Helvetica,sans-Serif" font-size="10.00">/UDF.H</text>
</a>
</g>
</g>
<!-- Node1&#45;&gt;Node2 -->
<g id="edge1" class="edge">
<title>Node1&#45;&gt;Node2</title>
<path fill="none" stroke="midnightblue" d="M1974.86,-252.22C1915.14,-246.21 1771.83,-230.96 1641.88,-210.2"/>
<polygon fill="midnightblue" stroke="midnightblue" points="1642.19,-206.71 1631.76,-208.57 1641.07,-213.62 1642.19,-206.71"/>
</g>
<!-- Node10 -->
<g id="node10" class="node">
<title>Node10</title>
<g id="a_node10"><a xlink:href="_field_8_h.html" target="_top" xlink:title=" ">
<polygon fill="white" stroke="black" points="544.2,-118 544.2,-137 668.2,-137 668.2,-118 544.2,-118"/>
<text text-anchor="middle" x="606.2" y="-125" font-family="Helvetica,sans-Serif" font-size="10.00">amr&#45;wind/core/Field.H</text>
</a>
</g>
</g>
<!-- Node1&#45;&gt;Node10 -->
<g id="edge9" class="edge">
<title>Node1&#45;&gt;Node10</title>
<path fill="none" stroke="midnightblue" d="M1975.06,-254.79C1862.93,-253.69 1437.14,-247.15 1089.2,-210 930.18,-193.02 744.16,-157.01 656.61,-139.09"/>
<polygon fill="midnightblue" stroke="midnightblue" points="657.18,-135.63 646.68,-137.05 655.77,-142.49 657.18,-135.63"/>
</g>
<!-- Node19 -->
<g id="node19" class="node">
<title>Node19</title>
<g id="a_node19"><a xlink:href="_field_repo_8_h.html" target="_top" xlink:title=" ">
<polygon fill="white" stroke="black" points="1098.7,-185 1098.7,-204 1247.7,-204 1247.7,-185 1098.7,-185"/>
<text text-anchor="middle" x="1173.2" y="-192" font-family="Helvetica,sans-Serif" font-size="10.00">amr&#45;wind/core/FieldRepo.H</text>
</a>
</g>
</g>
<!-- Node1&#45;&gt;Node19 -->
<g id="edge24" class="edge">
<title>Node1&#45;&gt;Node19</title>
<path fill="none" stroke="midnightblue" d="M1975.11,-252.99C1862.41,-244.91 1440.41,-214.66 1258.03,-201.58"/>
<polygon fill="midnightblue" stroke="midnightblue" points="1258.18,-198.08 1247.95,-200.86 1257.68,-205.06 1258.18,-198.08"/>
</g>
<!-- Node29 -->
<g id="node29" class="node">
<title>Node29</title>
<g id="a_node29"><a xlink:href="_linear_profile_8_h.html" target="_top" xlink:title=" ">
<polygon fill="white" stroke="black" points="2084.7,-179.5 2084.7,-209.5 2211.7,-209.5 2211.7,-179.5 2084.7,-179.5"/>
<text text-anchor="start" x="2092.7" y="-197.5" font-family="Helvetica,sans-Serif" font-size="10.00">amr&#45;wind/physics/udfs</text>
<text text-anchor="middle" x="2148.2" y="-186.5" font-family="Helvetica,sans-Serif" font-size="10.00">/LinearProfile.H</text>
</a>
</g>
</g>
<!-- Node1&#45;&gt;Node29 -->
<g id="edge56" class="edge">
<title>Node1&#45;&gt;Node29</title>
<path fill="none" stroke="midnightblue" d="M2023.98,-246.48C2044.9,-237.89 2077.81,-224.38 2104.51,-213.43"/>
<polygon fill="midnightblue" stroke="midnightblue" points="2106.1,-216.56 2114.03,-209.52 2103.45,-210.08 2106.1,-216.56"/>
</g>
<!-- Node31 -->
<g id="node31" class="node">
<title>Node31</title>
<g id="a_node31"><a xlink:href="_power_law_profile_8_h.html" target="_top" xlink:title=" ">
<polygon fill="white" stroke="black" points="2229.7,-179.5 2229.7,-209.5 2356.7,-209.5 2356.7,-179.5 2229.7,-179.5"/>
<text text-anchor="start" x="2237.7" y="-197.5" font-family="Helvetica,sans-Serif" font-size="10.00">amr&#45;wind/physics/udfs</text>
<text text-anchor="middle" x="2293.2" y="-186.5" font-family="Helvetica,sans-Serif" font-size="10.00">/PowerLawProfile.H</text>
</a>
</g>
</g>
<!-- Node1&#45;&gt;Node31 -->
<g id="edge59" class="edge">
<title>Node1&#45;&gt;Node31</title>
<path fill="none" stroke="midnightblue" d="M2031.27,-249.24C2074.36,-240.4 2158.24,-223.19 2219.5,-210.62"/>
<polygon fill="midnightblue" stroke="midnightblue" points="2220.42,-214.01 2229.51,-208.57 2219.01,-207.15 2220.42,-214.01"/>
</g>
<!-- Node32 -->
<g id="node32" class="node">
<title>Node32</title>
<g id="a_node32"><a xlink:href="_burggraf_lid_8_h.html" target="_top" xlink:title=" ">
<polygon fill="white" stroke="black" points="2374.7,-179.5 2374.7,-209.5 2501.7,-209.5 2501.7,-179.5 2374.7,-179.5"/>
<text text-anchor="start" x="2382.7" y="-197.5" font-family="Helvetica,sans-Serif" font-size="10.00">amr&#45;wind/physics/udfs</text>
<text text-anchor="middle" x="2438.2" y="-186.5" font-family="Helvetica,sans-Serif" font-size="10.00">/BurggrafLid.H</text>
</a>
</g>
</g>
<!-- Node1&#45;&gt;Node32 -->
<g id="edge62" class="edge">
<title>Node1&#45;&gt;Node32</title>
<path fill="none" stroke="midnightblue" d="M2031.54,-252.22C2091.26,-246.21 2234.57,-230.96 2364.52,-210.2"/>
<polygon fill="midnightblue" stroke="midnightblue" points="2365.33,-213.62 2374.65,-208.57 2364.22,-206.71 2365.33,-213.62"/>
</g>
<!-- Node33 -->
<g id="node33" class="node">
<title>Node33</title>
<g id="a_node33"><a xlink:href="_rankine_8_h.html" target="_top" xlink:title=" ">
<polygon fill="white" stroke="black" points="2519.7,-179.5 2519.7,-209.5 2646.7,-209.5 2646.7,-179.5 2519.7,-179.5"/>
<text text-anchor="start" x="2527.7" y="-197.5" font-family="Helvetica,sans-Serif" font-size="10.00">amr&#45;wind/physics/udfs</text>
<text text-anchor="middle" x="2583.2" y="-186.5" font-family="Helvetica,sans-Serif" font-size="10.00">/Rankine.H</text>
</a>
</g>
</g>
<!-- Node1&#45;&gt;Node33 -->
<g id="edge65" class="edge">
<title>Node1&#45;&gt;Node33</title>
<path fill="none" stroke="midnightblue" d="M2031.41,-253.6C2107.2,-249.59 2321.65,-236.74 2509.6,-210.13"/>
<polygon fill="midnightblue" stroke="midnightblue" points="2510.26,-213.57 2519.66,-208.69 2509.27,-206.65 2510.26,-213.57"/>
</g>
<!-- Node34 -->
<g id="node34" class="node">
<title>Node34</title>
<g id="a_node34"><a xlink:href="_custom_velocity_8_h.html" target="_top" xlink:title=" ">
<polygon fill="white" stroke="black" points="1649.7,-179.5 1649.7,-209.5 1776.7,-209.5 1776.7,-179.5 1649.7,-179.5"/>
<text text-anchor="start" x="1657.7" y="-197.5" font-family="Helvetica,sans-Serif" font-size="10.00">amr&#45;wind/physics/udfs</text>
<text text-anchor="middle" x="1713.2" y="-186.5" font-family="Helvetica,sans-Serif" font-size="10.00">/CustomVelocity.H</text>
</a>
</g>
</g>
<!-- Node1&#45;&gt;Node34 -->
<g id="edge68" class="edge">
<title>Node1&#45;&gt;Node34</title>
<path fill="none" stroke="midnightblue" d="M1975.13,-249.24C1932.04,-240.4 1848.16,-223.19 1786.9,-210.62"/>
<polygon fill="midnightblue" stroke="midnightblue" points="1787.39,-207.15 1776.89,-208.57 1785.98,-214.01 1787.39,-207.15"/>
</g>
<!-- Node35 -->
<g id="node35" class="node">
<title>Node35</title>
<g id="a_node35"><a xlink:href="_custom_scalar_8_h.html" target="_top" xlink:title=" ">
<polygon fill="white" stroke="black" points="1794.7,-179.5 1794.7,-209.5 1921.7,-209.5 1921.7,-179.5 1794.7,-179.5"/>
<text text-anchor="start" x="1802.7" y="-197.5" font-family="Helvetica,sans-Serif" font-size="10.00">amr&#45;wind/physics/udfs</text>
<text text-anchor="middle" x="1858.2" y="-186.5" font-family="Helvetica,sans-Serif" font-size="10.00">/CustomScalar.H</text>
</a>
</g>
</g>
<!-- Node1&#45;&gt;Node35 -->
<g id="edge71" class="edge">
<title>Node1&#45;&gt;Node35</title>
<path fill="none" stroke="midnightblue" d="M1982.43,-246.48C1961.5,-237.89 1928.59,-224.38 1901.89,-213.43"/>
<polygon fill="midnightblue" stroke="midnightblue" points="1902.95,-210.08 1892.37,-209.52 1900.3,-216.56 1902.95,-210.08"/>
</g>
<!-- Node36 -->
<g id="node36" class="node">
<title>Node36</title>
<g id="a_node36"><a xlink:href="_two_layer_8_h.html" target="_top" xlink:title=" ">
<polygon fill="white" stroke="black" points="1939.7,-179.5 1939.7,-209.5 2066.7,-209.5 2066.7,-179.5 1939.7,-179.5"/>
<text text-anchor="start" x="1947.7" y="-197.5" font-family="Helvetica,sans-Serif" font-size="10.00">amr&#45;wind/physics/udfs</text>
<text text-anchor="middle" x="2003.2" y="-186.5" font-family="Helvetica,sans-Serif" font-size="10.00">/TwoLayer.H</text>
</a>
</g>
</g>
<!-- Node1&#45;&gt;Node36 -->
<g id="edge74" class="edge">
<title>Node1&#45;&gt;Node36</title>
<path fill="none" stroke="midnightblue" d="M2003.2,-246.48C2003.2,-239.47 2003.2,-229.19 2003.2,-219.7"/>
<polygon fill="midnightblue" stroke="midnightblue" points="2006.7,-219.52 2003.2,-209.52 1999.7,-219.52 2006.7,-219.52"/>
</g>
<!-- Node37 -->
<g id="node37" class="node">
<title>Node37</title>
<g id="a_node37"><a xlink:title=" ">
<polygon fill="white" stroke="#bfbfbf" points="2664.7,-185 2664.7,-204 2783.7,-204 2783.7,-185 2664.7,-185"/>
<text text-anchor="middle" x="2724.2" y="-192" font-family="Helvetica,sans-Serif" font-size="10.00">AMReX_ParmParse.H</text>
</a>
</g>
</g>
<!-- Node1&#45;&gt;Node37 -->
<g id="edge77" class="edge">
<title>Node1&#45;&gt;Node37</title>
<path fill="none" stroke="midnightblue" d="M2031.35,-254.48C2122.25,-252.5 2415.94,-243.72 2656.2,-210 2663.52,-208.97 2671.22,-207.61 2678.7,-206.13"/>
<polygon fill="midnightblue" stroke="midnightblue" points="2679.64,-209.51 2688.72,-204.05 2678.22,-202.65 2679.64,-209.51"/>
</g>
<!-- Node3 -->
<g id="node3" class="node">
<title>Node3</title>
<g id="a_node3"><a xlink:href="_factory_8_h.html" target="_top" xlink:title=" ">
<polygon fill="white" stroke="black" points="1763.2,-118 1763.2,-137 1897.2,-137 1897.2,-118 1763.2,-118"/>
<text text-anchor="middle" x="1830.2" y="-125" font-family="Helvetica,sans-Serif" font-size="10.00">amr&#45;wind/core/Factory.H</text>
</a>
</g>
</g>
<!-- Node2&#45;&gt;Node3 -->
<g id="edge2" class="edge">
<title>Node2&#45;&gt;Node3</title>
<path fill="none" stroke="midnightblue" d="M1624.73,-179.48C1673.02,-167.5 1741.52,-150.5 1785.91,-139.49"/>
<polygon fill="midnightblue" stroke="midnightblue" points="1786.96,-142.83 1795.82,-137.03 1785.28,-136.04 1786.96,-142.83"/>
</g>
<!-- Node9 -->
<g id="node9" class="node">
<title>Node9</title>
<g id="a_node9"><a xlink:title=" ">
<polygon fill="white" stroke="#bfbfbf" points="2031.7,-56.5 2031.7,-75.5 2118.7,-75.5 2118.7,-56.5 2031.7,-56.5"/>
<text text-anchor="middle" x="2075.2" y="-63.5" font-family="Helvetica,sans-Serif" font-size="10.00">AMReX_Gpu.H</text>
</a>
</g>
</g>
<!-- Node2&#45;&gt;Node9 -->
<g id="edge8" class="edge">
<title>Node2&#45;&gt;Node9</title>
<path fill="none" stroke="midnightblue" d="M1631.76,-180.47C1634.61,-179.96 1637.43,-179.47 1640.2,-179 1757.85,-159.21 1798.49,-194.28 1906.2,-143 1924.37,-134.35 1921.91,-122.29 1939.2,-112 1965.54,-96.32 1998.04,-85.31 2024.67,-78.1"/>
<polygon fill="midnightblue" stroke="midnightblue" points="2025.77,-81.44 2034.56,-75.53 2024,-74.66 2025.77,-81.44"/>
</g>
<!-- Node4 -->
<g id="node4" class="node">
<title>Node4</title>
<g id="a_node4"><a xlink:title=" ">
<polygon fill="white" stroke="#bfbfbf" points="1575.2,-56.5 1575.2,-75.5 1633.2,-75.5 1633.2,-56.5 1575.2,-56.5"/>
<text text-anchor="middle" x="1604.2" y="-63.5" font-family="Helvetica,sans-Serif" font-size="10.00">memory</text>
</a>
</g>
</g>
<!-- Node3&#45;&gt;Node4 -->
<g id="edge3" class="edge">
<title>Node3&#45;&gt;Node4</title>
<path fill="none" stroke="midnightblue" d="M1797.82,-117.98C1756.94,-107.21 1686.7,-88.72 1643,-77.21"/>
<polygon fill="midnightblue" stroke="midnightblue" points="1643.85,-73.82 1633.29,-74.66 1642.07,-80.59 1643.85,-73.82"/>
</g>
<!-- Node5 -->
<g id="node5" class="node">
<title>Node5</title>
<g id="a_node5"><a xlink:title=" ">
<polygon fill="white" stroke="#bfbfbf" points="612.7,-56.5 612.7,-75.5 705.7,-75.5 705.7,-56.5 612.7,-56.5"/>
<text text-anchor="middle" x="659.2" y="-63.5" font-family="Helvetica,sans-Serif" font-size="10.00">unordered_map</text>
</a>
</g>
</g>
<!-- Node3&#45;&gt;Node5 -->
<g id="edge4" class="edge">
<title>Node3&#45;&gt;Node5</title>
<path fill="none" stroke="midnightblue" d="M1765.82,-117.97C1746.96,-115.73 1726.28,-113.51 1707.2,-112 1317.87,-81.12 1219.32,-94.32 829.2,-76 791.51,-74.23 749.12,-71.99 716.11,-70.18"/>
<polygon fill="midnightblue" stroke="midnightblue" points="715.91,-66.67 705.73,-69.61 715.53,-73.66 715.91,-66.67"/>
</g>
<!-- Node6 -->
<g id="node6" class="node">
<title>Node6</title>
<g id="a_node6"><a xlink:title=" ">
<polygon fill="white" stroke="#bfbfbf" points="1845.2,-56.5 1845.2,-75.5 1905.2,-75.5 1905.2,-56.5 1845.2,-56.5"/>
<text text-anchor="middle" x="1875.2" y="-63.5" font-family="Helvetica,sans-Serif" font-size="10.00">iostream</text>
</a>
</g>
</g>
<!-- Node3&#45;&gt;Node6 -->
<g id="edge5" class="edge">
<title>Node3&#45;&gt;Node6</title>
<path fill="none" stroke="midnightblue" d="M1836.65,-117.98C1843.4,-109.05 1854.17,-94.81 1862.61,-83.64"/>
<polygon fill="midnightblue" stroke="midnightblue" points="1865.52,-85.6 1868.77,-75.51 1859.94,-81.37 1865.52,-85.6"/>
</g>
<!-- Node7 -->
<g id="node7" class="node">
<title>Node7</title>
<g id="a_node7"><a xlink:title=" ">
<polygon fill="white" stroke="#bfbfbf" points="1923.2,-56.5 1923.2,-75.5 2013.2,-75.5 2013.2,-56.5 1923.2,-56.5"/>
<text text-anchor="middle" x="1968.2" y="-63.5" font-family="Helvetica,sans-Serif" font-size="10.00">AMReX_Print.H</text>
</a>
</g>
</g>
<!-- Node3&#45;&gt;Node7 -->
<g id="edge6" class="edge">
<title>Node3&#45;&gt;Node7</title>
<path fill="none" stroke="midnightblue" d="M1849.97,-117.98C1873.34,-107.9 1912.42,-91.05 1939.2,-79.5"/>
<polygon fill="midnightblue" stroke="midnightblue" points="1940.67,-82.68 1948.47,-75.51 1937.9,-76.25 1940.67,-82.68"/>
</g>
<!-- Node8 -->
<g id="node8" class="node">
<title>Node8</title>
<g id="a_node8"><a xlink:title=" ">
<polygon fill="white" stroke="#bfbfbf" points="1765.2,-56.5 1765.2,-75.5 1827.2,-75.5 1827.2,-56.5 1765.2,-56.5"/>
<text text-anchor="middle" x="1796.2" y="-63.5" font-family="Helvetica,sans-Serif" font-size="10.00">AMReX.H</text>
</a>
</g>
</g>
<!-- Node3&#45;&gt;Node8 -->
<g id="edge7" class="edge">
<title>Node3&#45;&gt;Node8</title>
<path fill="none" stroke="midnightblue" d="M1825.33,-117.98C1820.33,-109.23 1812.41,-95.37 1806.09,-84.31"/>
<polygon fill="midnightblue" stroke="midnightblue" points="1809.06,-82.46 1801.06,-75.51 1802.99,-85.93 1809.06,-82.46"/>
</g>
<!-- Node10&#45;&gt;Node4 -->
<g id="edge11" class="edge">
<title>Node10&#45;&gt;Node4</title>
<path fill="none" stroke="midnightblue" d="M668.45,-123.88C861.06,-115.68 1441.26,-90.28 1564.65,-75.83"/>
<polygon fill="midnightblue" stroke="midnightblue" points="1565.38,-79.26 1574.84,-74.5 1564.48,-72.32 1565.38,-79.26"/>
</g>
<!-- Node10&#45;&gt;Node5 -->
<g id="edge12" class="edge">
<title>Node10&#45;&gt;Node5</title>
<path fill="none" stroke="midnightblue" d="M613.79,-117.98C621.9,-108.87 634.94,-94.24 644.96,-82.98"/>
<polygon fill="midnightblue" stroke="midnightblue" points="647.58,-85.3 651.62,-75.51 642.36,-80.65 647.58,-85.3"/>
</g>
<!-- Node10&#45;&gt;Node9 -->
<g id="edge16" class="edge">
<title>Node10&#45;&gt;Node9</title>
<path fill="none" stroke="midnightblue" d="M668.43,-123.85C739.66,-120.84 859.84,-115.86 963.2,-112 1430.48,-94.57 1551.95,-123.12 2021.49,-75.9"/>
<polygon fill="midnightblue" stroke="midnightblue" points="2021.99,-79.37 2031.59,-74.88 2021.29,-72.41 2021.99,-79.37"/>
</g>
<!-- Node11 -->
<g id="node11" class="node">
<title>Node11</title>
<g id="a_node11"><a xlink:title=" ">
<polygon fill="white" stroke="#bfbfbf" points="1238.2,-0.5 1238.2,-19.5 1282.2,-19.5 1282.2,-0.5 1238.2,-0.5"/>
<text text-anchor="middle" x="1260.2" y="-7.5" font-family="Helvetica,sans-Serif" font-size="10.00">string</text>
</a>
</g>
</g>
<!-- Node10&#45;&gt;Node11 -->
<g id="edge10" class="edge">
<title>Node10&#45;&gt;Node11</title>
<path fill="none" stroke="midnightblue" d="M668.52,-120.57C745.62,-112.74 880.73,-97.4 995.2,-76 1040.21,-67.59 1168.36,-34.81 1228.41,-19.27"/>
<polygon fill="midnightblue" stroke="midnightblue" points="1229.32,-22.65 1238.12,-16.75 1227.56,-15.87 1229.32,-22.65"/>
</g>
<!-- Node12 -->
<g id="node12" class="node">
<title>Node12</title>
<g id="a_node12"><a xlink:title=" ">
<polygon fill="white" stroke="#bfbfbf" points="215.2,-56.5 215.2,-75.5 279.2,-75.5 279.2,-56.5 215.2,-56.5"/>
<text text-anchor="middle" x="247.2" y="-63.5" font-family="Helvetica,sans-Serif" font-size="10.00">algorithm</text>
</a>
</g>
</g>
<!-- Node10&#45;&gt;Node12 -->
<g id="edge13" class="edge">
<title>Node10&#45;&gt;Node12</title>
<path fill="none" stroke="midnightblue" d="M545.65,-117.96C483.72,-108.99 384.53,-93.94 289.47,-76.15"/>
<polygon fill="midnightblue" stroke="midnightblue" points="289.87,-72.67 279.39,-74.25 288.57,-79.54 289.87,-72.67"/>
</g>
<!-- Node13 -->
<g id="node13" class="node">
<title>Node13</title>
<g id="a_node13"><a xlink:title=" ">
<polygon fill="white" stroke="#bfbfbf" points="149.7,-0.5 149.7,-19.5 258.7,-19.5 258.7,-0.5 149.7,-0.5"/>
<text text-anchor="middle" x="204.2" y="-7.5" font-family="Helvetica,sans-Serif" font-size="10.00">AMReX_MultiFab.H</text>
</a>
</g>
</g>
<!-- Node10&#45;&gt;Node13 -->
<g id="edge14" class="edge">
<title>Node10&#45;&gt;Node13</title>
<path fill="none" stroke="midnightblue" d="M544.19,-123.04C437.52,-116.46 228.54,-100.57 206.2,-76 195.06,-63.75 196.03,-44.21 198.89,-29.75"/>
<polygon fill="midnightblue" stroke="midnightblue" points="202.32,-30.43 201.27,-19.89 195.52,-28.78 202.32,-30.43"/>
</g>
<!-- Node14 -->
<g id="node14" class="node">
<title>Node14</title>
<g id="a_node14"><a xlink:title=" ">
<polygon fill="white" stroke="#bfbfbf" points="297.7,-56.5 297.7,-75.5 396.7,-75.5 396.7,-56.5 297.7,-56.5"/>
<text text-anchor="middle" x="347.2" y="-63.5" font-family="Helvetica,sans-Serif" font-size="10.00">AMReX_BCRec.H</text>
</a>
</g>
</g>
<!-- Node10&#45;&gt;Node14 -->
<g id="edge15" class="edge">
<title>Node10&#45;&gt;Node14</title>
<path fill="none" stroke="midnightblue" d="M569.09,-117.98C523.03,-107.39 444.43,-89.34 394.2,-77.8"/>
<polygon fill="midnightblue" stroke="midnightblue" points="394.77,-74.34 384.24,-75.51 393.2,-81.16 394.77,-74.34"/>
</g>
<!-- Node15 -->
<g id="node15" class="node">
<title>Node15</title>
<g id="a_node15"><a xlink:href="incflo__enums_8_h.html" target="_top" xlink:title=" ">
<polygon fill="white" stroke="black" points="414.7,-56.5 414.7,-75.5 555.7,-75.5 555.7,-56.5 414.7,-56.5"/>
<text text-anchor="middle" x="485.2" y="-63.5" font-family="Helvetica,sans-Serif" font-size="10.00">amr&#45;wind/incflo_enums.H</text>
</a>
</g>
</g>
<!-- Node10&#45;&gt;Node15 -->
<g id="edge17" class="edge">
<title>Node10&#45;&gt;Node15</title>
<path fill="none" stroke="midnightblue" d="M588.86,-117.98C568.65,-108.03 535.01,-91.49 511.56,-79.96"/>
<polygon fill="midnightblue" stroke="midnightblue" points="513.02,-76.78 502.51,-75.51 509.93,-83.06 513.02,-76.78"/>
</g>
<!-- Node16 -->
<g id="node16" class="node">
<title>Node16</title>
<g id="a_node16"><a xlink:href="_field_desc_types_8_h.html" target="_top" xlink:title=" ">
<polygon fill="white" stroke="black" points="722.2,-0.5 722.2,-19.5 898.2,-19.5 898.2,-0.5 722.2,-0.5"/>
<text text-anchor="middle" x="810.2" y="-7.5" font-family="Helvetica,sans-Serif" font-size="10.00">amr&#45;wind/core/FieldDescTypes.H</text>
</a>
</g>
</g>
<!-- Node10&#45;&gt;Node16 -->
<g id="edge18" class="edge">
<title>Node10&#45;&gt;Node16</title>
<path fill="none" stroke="midnightblue" d="M602.44,-117.55C596.96,-102.92 588.9,-73.74 603.2,-56 617.36,-38.43 665.53,-27.36 711.84,-20.6"/>
<polygon fill="midnightblue" stroke="midnightblue" points="712.57,-24.03 721.99,-19.18 711.6,-17.1 712.57,-24.03"/>
</g>
<!-- Node17 -->
<g id="node17" class="node">
<title>Node17</title>
<g id="a_node17"><a xlink:href="_view_field_8_h.html" target="_top" xlink:title=" ">
<polygon fill="white" stroke="black" points="838.2,-56.5 838.2,-75.5 986.2,-75.5 986.2,-56.5 838.2,-56.5"/>
<text text-anchor="middle" x="912.2" y="-63.5" font-family="Helvetica,sans-Serif" font-size="10.00">amr&#45;wind/core/ViewField.H</text>
</a>
</g>
</g>
<!-- Node10&#45;&gt;Node17 -->
<g id="edge19" class="edge">
<title>Node10&#45;&gt;Node17</title>
<path fill="none" stroke="midnightblue" d="M650.04,-117.98C705.03,-107.28 799.27,-88.96 858.52,-77.44"/>
<polygon fill="midnightblue" stroke="midnightblue" points="859.29,-80.85 868.44,-75.51 857.96,-73.98 859.29,-80.85"/>
</g>
<!-- Node17&#45;&gt;Node11 -->
<g id="edge20" class="edge">
<title>Node17&#45;&gt;Node11</title>
<path fill="none" stroke="midnightblue" d="M967.34,-56.44C1040.93,-45.03 1168.84,-25.18 1228.22,-15.96"/>
<polygon fill="midnightblue" stroke="midnightblue" points="1228.8,-19.41 1238.14,-14.42 1227.73,-12.5 1228.8,-19.41"/>
</g>
<!-- Node17&#45;&gt;Node13 -->
<g id="edge22" class="edge">
<title>Node17&#45;&gt;Node13</title>
<path fill="none" stroke="midnightblue" d="M838.1,-59.35C698.97,-48.74 400.79,-25.99 269.06,-15.95"/>
<polygon fill="midnightblue" stroke="midnightblue" points="268.97,-12.43 258.73,-15.16 268.43,-19.41 268.97,-12.43"/>
</g>
<!-- Node17&#45;&gt;Node16 -->
<g id="edge21" class="edge">
<title>Node17&#45;&gt;Node16</title>
<path fill="none" stroke="midnightblue" d="M895.81,-56.32C879.53,-47.7 854.33,-34.36 835.48,-24.39"/>
<polygon fill="midnightblue" stroke="midnightblue" points="837.02,-21.24 826.55,-19.65 833.75,-27.43 837.02,-21.24"/>
</g>
<!-- Node18 -->
<g id="node18" class="node">
<title>Node18</title>
<g id="a_node18"><a xlink:title=" ">
<polygon fill="white" stroke="#bfbfbf" points="965.2,-0.5 965.2,-19.5 1063.2,-19.5 1063.2,-0.5 965.2,-0.5"/>
<text text-anchor="middle" x="1014.2" y="-7.5" font-family="Helvetica,sans-Serif" font-size="10.00">AMReX_Vector.H</text>
</a>
</g>
</g>
<!-- Node17&#45;&gt;Node18 -->
<g id="edge23" class="edge">
<title>Node17&#45;&gt;Node18</title>
<path fill="none" stroke="midnightblue" d="M928.59,-56.32C944.87,-47.7 970.07,-34.36 988.92,-24.39"/>
<polygon fill="midnightblue" stroke="midnightblue" points="990.65,-27.43 997.85,-19.65 987.38,-21.24 990.65,-27.43"/>
</g>
<!-- Node19&#45;&gt;Node5 -->
<g id="edge26" class="edge">
<title>Node19&#45;&gt;Node5</title>
<path fill="none" stroke="midnightblue" d="M1098.27,-192.01C986.75,-188.64 783.48,-177.79 720.2,-143 696.18,-129.79 678.14,-102.87 668.12,-84.87"/>
<polygon fill="midnightblue" stroke="midnightblue" points="671.16,-83.14 663.4,-75.94 664.98,-86.42 671.16,-83.14"/>
</g>
<!-- Node19&#45;&gt;Node10 -->
<g id="edge32" class="edge">
<title>Node19&#45;&gt;Node10</title>
<path fill="none" stroke="midnightblue" d="M1098.5,-187.83C1002.04,-180.05 829.09,-164.53 682.2,-143 674.17,-141.82 665.69,-140.39 657.43,-138.9"/>
<polygon fill="midnightblue" stroke="midnightblue" points="657.98,-135.44 647.51,-137.05 656.7,-142.32 657.98,-135.44"/>
</g>
<!-- Node19&#45;&gt;Node11 -->
<g id="edge25" class="edge">
<title>Node19&#45;&gt;Node11</title>
<path fill="none" stroke="midnightblue" d="M1247.93,-189.07C1391.25,-180.22 1691.95,-159.76 1707.2,-143 1826.67,-11.7 1413.12,-8.5 1292.36,-10.27"/>
<polygon fill="midnightblue" stroke="midnightblue" points="1292.19,-6.77 1282.25,-10.44 1292.31,-13.77 1292.19,-6.77"/>
</g>
<!-- Node19&#45;&gt;Node13 -->
<g id="edge54" class="edge">
<title>Node19&#45;&gt;Node13</title>
<path fill="none" stroke="midnightblue" d="M1098.62,-191.97C851.87,-186.1 73.63,-160.94 4.2,-76 -1.42,-69.12 -1.35,-62.94 4.2,-56 12.87,-45.16 85.28,-30.82 140.5,-21.27"/>
<polygon fill="midnightblue" stroke="midnightblue" points="141.32,-24.68 150.59,-19.54 140.14,-17.78 141.32,-24.68"/>
</g>
<!-- Node19&#45;&gt;Node16 -->
<g id="edge27" class="edge">
<title>Node19&#45;&gt;Node16</title>
<path fill="none" stroke="midnightblue" d="M1123.97,-184.98C1033.96,-168.27 848.8,-128.22 813.2,-76 804.06,-62.6 804.23,-43.78 806.14,-29.83"/>
<polygon fill="midnightblue" stroke="midnightblue" points="809.61,-30.35 807.9,-19.9 802.71,-29.13 809.61,-30.35"/>
</g>
<!-- Node20 -->
<g id="node20" class="node">
<title>Node20</title>
<g id="a_node20"><a xlink:href="_field_utils_8_h.html" target="_top" xlink:title=" ">
<polygon fill="white" stroke="black" points="13.2,-56.5 13.2,-75.5 159.2,-75.5 159.2,-56.5 13.2,-56.5"/>
<text text-anchor="middle" x="86.2" y="-63.5" font-family="Helvetica,sans-Serif" font-size="10.00">amr&#45;wind/core/FieldUtils.H</text>
</a>
</g>
</g>
<!-- Node19&#45;&gt;Node20 -->
<g id="edge28" class="edge">
<title>Node19&#45;&gt;Node20</title>
<path fill="none" stroke="midnightblue" d="M1098.33,-189.73C978.92,-183.24 738.09,-168.15 535.2,-143 391.15,-125.14 222.79,-93.81 139.07,-77.52"/>
<polygon fill="midnightblue" stroke="midnightblue" points="139.53,-74.04 129.04,-75.56 138.19,-80.91 139.53,-74.04"/>
</g>
<!-- Node22 -->
<g id="node22" class="node">
<title>Node22</title>
<g id="a_node22"><a xlink:href="_int_field_8_h.html" target="_top" xlink:title=" ">
<polygon fill="white" stroke="black" points="1432.7,-118 1432.7,-137 1569.7,-137 1569.7,-118 1432.7,-118"/>
<text text-anchor="middle" x="1501.2" y="-125" font-family="Helvetica,sans-Serif" font-size="10.00">amr&#45;wind/core/IntField.H</text>
</a>
</g>
</g>
<!-- Node19&#45;&gt;Node22 -->
<g id="edge33" class="edge">
<title>Node19&#45;&gt;Node22</title>
<path fill="none" stroke="midnightblue" d="M1216.42,-184.94C1276.11,-173.11 1383.71,-151.78 1448.18,-139.01"/>
<polygon fill="midnightblue" stroke="midnightblue" points="1449.02,-142.41 1458.15,-137.03 1447.66,-135.54 1449.02,-142.41"/>
</g>
<!-- Node23 -->
<g id="node23" class="node">
<title>Node23</title>
<g id="a_node23"><a xlink:title=" ">
<polygon fill="white" stroke="#bfbfbf" points="1445.2,-56.5 1445.2,-75.5 1557.2,-75.5 1557.2,-56.5 1445.2,-56.5"/>
<text text-anchor="middle" x="1501.2" y="-63.5" font-family="Helvetica,sans-Serif" font-size="10.00">AMReX_iMultiFab.H</text>
</a>
</g>
</g>
<!-- Node19&#45;&gt;Node23 -->
<g id="edge55" class="edge">
<title>Node19&#45;&gt;Node23</title>
<path fill="none" stroke="midnightblue" d="M1224.01,-184.94C1265.05,-177.01 1323.72,-163.34 1372.2,-143 1396.66,-132.74 1400.38,-125.52 1423.2,-112 1441.25,-101.31 1461.8,-89.47 1477.28,-80.61"/>
<polygon fill="midnightblue" stroke="midnightblue" points="1479.24,-83.52 1486.19,-75.53 1475.77,-77.44 1479.24,-83.52"/>
</g>
<!-- Node24 -->
<g id="node24" class="node">
<title>Node24</title>
<g id="a_node24"><a xlink:href="_scratch_field_8_h.html" target="_top" xlink:title=" ">
<polygon fill="white" stroke="black" points="972.2,-118 972.2,-137 1132.2,-137 1132.2,-118 972.2,-118"/>
<text text-anchor="middle" x="1052.2" y="-125" font-family="Helvetica,sans-Serif" font-size="10.00">amr&#45;wind/core/ScratchField.H</text>
</a>
</g>
</g>
<!-- Node19&#45;&gt;Node24 -->
<g id="edge37" class="edge">
<title>Node19&#45;&gt;Node24</title>
<path fill="none" stroke="midnightblue" d="M1156.88,-184.73C1136.38,-173.72 1101,-154.71 1077.11,-141.88"/>
<polygon fill="midnightblue" stroke="midnightblue" points="1078.73,-138.78 1068.26,-137.13 1075.41,-144.94 1078.73,-138.78"/>
</g>
<!-- Node27 -->
<g id="node27" class="node">
<title>Node27</title>
<g id="a_node27"><a xlink:href="_int_scratch_field_8_h.html" target="_top" xlink:title=" ">
<polygon fill="white" stroke="black" points="1224.7,-112.5 1224.7,-142.5 1363.7,-142.5 1363.7,-112.5 1224.7,-112.5"/>
<text text-anchor="start" x="1232.7" y="-130.5" font-family="Helvetica,sans-Serif" font-size="10.00">amr&#45;wind/core/IntScratch</text>
<text text-anchor="middle" x="1294.2" y="-119.5" font-family="Helvetica,sans-Serif" font-size="10.00">Field.H</text>
</a>
</g>
</g>
<!-- Node19&#45;&gt;Node27 -->
<g id="edge45" class="edge">
<title>Node19&#45;&gt;Node27</title>
<path fill="none" stroke="midnightblue" d="M1189.52,-184.73C1207.21,-175.23 1235.98,-159.78 1258.88,-147.47"/>
<polygon fill="midnightblue" stroke="midnightblue" points="1260.82,-150.4 1267.97,-142.59 1257.51,-144.24 1260.82,-150.4"/>
</g>
<!-- Node28 -->
<g id="node28" class="node">
<title>Node28</title>
<g id="a_node28"><a xlink:title=" ">
<polygon fill="white" stroke="#bfbfbf" points="1588.2,-118 1588.2,-137 1698.2,-137 1698.2,-118 1588.2,-118"/>
<text text-anchor="middle" x="1643.2" y="-125" font-family="Helvetica,sans-Serif" font-size="10.00">AMReX_AmrCore.H</text>
</a>
</g>
</g>
<!-- Node19&#45;&gt;Node28 -->
<g id="edge53" class="edge">
<title>Node19&#45;&gt;Node28</title>
<path fill="none" stroke="midnightblue" d="M1247.79,-186.36C1329.29,-178.05 1463.53,-162.89 1578.2,-143 1584.56,-141.9 1591.23,-140.59 1597.78,-139.21"/>
<polygon fill="midnightblue" stroke="midnightblue" points="1598.87,-142.56 1607.9,-137.02 1597.39,-135.71 1598.87,-142.56"/>
</g>
<!-- Node20&#45;&gt;Node13 -->
<g id="edge30" class="edge">
<title>Node20&#45;&gt;Node13</title>
<path fill="none" stroke="midnightblue" d="M104.9,-56.44C124.15,-47.64 154.35,-33.81 176.4,-23.72"/>
<polygon fill="midnightblue" stroke="midnightblue" points="177.95,-26.86 185.59,-19.52 175.04,-20.5 177.95,-26.86"/>
</g>
<!-- Node20&#45;&gt;Node16 -->
<g id="edge29" class="edge">
<title>Node20&#45;&gt;Node16</title>
<path fill="none" stroke="midnightblue" d="M159.5,-59.5C174.92,-58.34 191.1,-57.13 206.2,-56 384.51,-42.67 592.43,-27.2 711.95,-18.3"/>
<polygon fill="midnightblue" stroke="midnightblue" points="712.46,-21.78 722.17,-17.54 711.94,-14.8 712.46,-21.78"/>
</g>
<!-- Node21 -->
<g id="node21" class="node">
<title>Node21</title>
<g id="a_node21"><a xlink:title=" ">
<polygon fill="white" stroke="#bfbfbf" points="7.2,-0.5 7.2,-19.5 131.2,-19.5 131.2,-0.5 7.2,-0.5"/>
<text text-anchor="middle" x="69.2" y="-7.5" font-family="Helvetica,sans-Serif" font-size="10.00">AMReX_Interpolater.H</text>
</a>
</g>
</g>
<!-- Node20&#45;&gt;Node21 -->
<g id="edge31" class="edge">
<title>Node20&#45;&gt;Node21</title>
<path fill="none" stroke="midnightblue" d="M83.39,-56.08C81.12,-48.85 77.83,-38.41 74.99,-29.4"/>
<polygon fill="midnightblue" stroke="midnightblue" points="78.3,-28.24 71.96,-19.75 71.62,-30.34 78.3,-28.24"/>
</g>
<!-- Node22&#45;&gt;Node11 -->
<g id="edge34" class="edge">
<title>Node22&#45;&gt;Node11</title>
<path fill="none" stroke="midnightblue" d="M1539.54,-117.93C1588.21,-106.67 1666.91,-87.04 1675.2,-76 1680.54,-68.89 1681.14,-62.62 1675.2,-56 1649.74,-27.63 1385.76,-15.49 1292.56,-12.07"/>
<polygon fill="midnightblue" stroke="midnightblue" points="1292.44,-8.57 1282.32,-11.71 1292.19,-15.56 1292.44,-8.57"/>
</g>
<!-- Node22&#45;&gt;Node16 -->
<g id="edge35" class="edge">
<title>Node22&#45;&gt;Node16</title>
<path fill="none" stroke="midnightblue" d="M1539.71,-117.95C1577.16,-108.77 1630.11,-93.17 1642.2,-76 1647.32,-68.73 1648.32,-62.45 1642.2,-56 1615.93,-28.32 994.3,-22.17 956.2,-20 940.81,-19.12 924.51,-18.15 908.6,-17.19"/>
<polygon fill="midnightblue" stroke="midnightblue" points="908.4,-13.67 898.21,-16.56 907.98,-20.66 908.4,-13.67"/>
</g>
<!-- Node22&#45;&gt;Node23 -->
<g id="edge36" class="edge">
<title>Node22&#45;&gt;Node23</title>
<path fill="none" stroke="midnightblue" d="M1501.2,-117.98C1501.2,-109.58 1501.2,-96.48 1501.2,-85.66"/>
<polygon fill="midnightblue" stroke="midnightblue" points="1504.7,-85.51 1501.2,-75.51 1497.7,-85.51 1504.7,-85.51"/>
</g>
<!-- Node24&#45;&gt;Node11 -->
<g id="edge38" class="edge">
<title>Node24&#45;&gt;Node11</title>
<path fill="none" stroke="midnightblue" d="M1056.93,-117.71C1065.4,-102.77 1084.62,-72.47 1109.2,-56 1145.54,-31.65 1195.41,-20.16 1227.72,-14.97"/>
<polygon fill="midnightblue" stroke="midnightblue" points="1228.58,-18.38 1237.96,-13.44 1227.55,-11.46 1228.58,-18.38"/>
</g>
<!-- Node24&#45;&gt;Node13 -->
<g id="edge42" class="edge">
<title>Node24&#45;&gt;Node13</title>
<path fill="none" stroke="midnightblue" d="M1011.91,-117.96C925.5,-99.68 728.97,-58.18 714.2,-56 555.13,-32.48 366.19,-19.73 269.04,-14.27"/>
<polygon fill="midnightblue" stroke="midnightblue" points="268.97,-10.76 258.79,-13.7 268.58,-17.75 268.97,-10.76"/>
</g>
<!-- Node24&#45;&gt;Node16 -->
<g id="edge40" class="edge">
<title>Node24&#45;&gt;Node16</title>
<path fill="none" stroke="midnightblue" d="M978.9,-117.98C922.51,-109.99 850.71,-96.22 829.2,-76 816.63,-64.18 812.23,-44.55 810.76,-29.95"/>
<polygon fill="midnightblue" stroke="midnightblue" points="814.23,-29.32 810.11,-19.56 807.24,-29.76 814.23,-29.32"/>
</g>
<!-- Node24&#45;&gt;Node17 -->
<g id="edge41" class="edge">
<title>Node24&#45;&gt;Node17</title>
<path fill="none" stroke="midnightblue" d="M1032.14,-117.98C1008.44,-107.9 968.8,-91.05 941.62,-79.5"/>
<polygon fill="midnightblue" stroke="midnightblue" points="942.79,-76.2 932.22,-75.51 940.06,-82.64 942.79,-76.2"/>
</g>
<!-- Node24&#45;&gt;Node18 -->
<g id="edge43" class="edge">
<title>Node24&#45;&gt;Node18</title>
<path fill="none" stroke="midnightblue" d="M1049.34,-117.82C1043.18,-99.09 1028.53,-54.55 1020.22,-29.29"/>
<polygon fill="midnightblue" stroke="midnightblue" points="1023.54,-28.19 1017.09,-19.78 1016.89,-30.37 1023.54,-28.19"/>
</g>
<!-- Node25 -->
<g id="node25" class="node">
<title>Node25</title>
<g id="a_node25"><a xlink:title=" ">
<polygon fill="white" stroke="#bfbfbf" points="1267.7,-56.5 1267.7,-75.5 1312.7,-75.5 1312.7,-56.5 1267.7,-56.5"/>
<text text-anchor="middle" x="1290.2" y="-63.5" font-family="Helvetica,sans-Serif" font-size="10.00">utility</text>
</a>
</g>
</g>
<!-- Node24&#45;&gt;Node25 -->
<g id="edge39" class="edge">
<title>Node24&#45;&gt;Node25</title>
<path fill="none" stroke="midnightblue" d="M1088.76,-117.93C1128,-108.65 1192.41,-93.16 1257.48,-76.12"/>
<polygon fill="midnightblue" stroke="midnightblue" points="1258.72,-79.41 1267.5,-73.49 1256.94,-72.64 1258.72,-79.41"/>
</g>
<!-- Node26 -->
<g id="node26" class="node">
<title>Node26</title>
<g id="a_node26"><a xlink:title=" ">
<polygon fill="white" stroke="#bfbfbf" points="1118.7,-56.5 1118.7,-75.5 1249.7,-75.5 1249.7,-56.5 1118.7,-56.5"/>
<text text-anchor="middle" x="1184.2" y="-63.5" font-family="Helvetica,sans-Serif" font-size="10.00">AMReX_PhysBCFunct.H</text>
</a>
</g>
</g>
<!-- Node24&#45;&gt;Node26 -->
<g id="edge44" class="edge">
<title>Node24&#45;&gt;Node26</title>
<path fill="none" stroke="midnightblue" d="M1071.11,-117.98C1093.36,-107.95 1130.51,-91.2 1156.13,-79.65"/>
<polygon fill="midnightblue" stroke="midnightblue" points="1157.65,-82.81 1165.32,-75.51 1154.77,-76.43 1157.65,-82.81"/>
</g>
<!-- Node27&#45;&gt;Node11 -->
<g id="edge46" class="edge">
<title>Node27&#45;&gt;Node11</title>
<path fill="none" stroke="midnightblue" d="M1343.62,-112.38C1376.67,-100.31 1411.1,-80.95 1393.2,-56 1370.41,-24.24 1323.98,-14.61 1292.47,-11.85"/>
<polygon fill="midnightblue" stroke="midnightblue" points="1292.63,-8.35 1282.42,-11.15 1292.15,-15.34 1292.63,-8.35"/>
</g>
<!-- Node27&#45;&gt;Node16 -->
<g id="edge48" class="edge">
<title>Node27&#45;&gt;Node16</title>
<path fill="none" stroke="midnightblue" d="M1307.31,-112.44C1320.18,-96.92 1335.9,-72.04 1321.2,-56 1314.31,-48.47 1055.17,-28.65 908.64,-18"/>
<polygon fill="midnightblue" stroke="midnightblue" points="908.52,-14.48 898.29,-17.25 908.01,-21.46 908.52,-14.48"/>
</g>
<!-- Node27&#45;&gt;Node17 -->
<g id="edge49" class="edge">
<title>Node27&#45;&gt;Node17</title>
<path fill="none" stroke="midnightblue" d="M1224.58,-115.66C1154.06,-104.67 1045.86,-87.82 977.09,-77.11"/>
<polygon fill="midnightblue" stroke="midnightblue" points="977.24,-73.59 966.82,-75.51 976.16,-80.5 977.24,-73.59"/>
</g>
<!-- Node27&#45;&gt;Node18 -->
<g id="edge51" class="edge">
<title>Node27&#45;&gt;Node18</title>
<path fill="none" stroke="midnightblue" d="M1320.7,-112.41C1344.18,-98.14 1372.27,-75.47 1355.2,-56 1336.94,-35.17 1166.02,-20.9 1073.32,-14.62"/>
<polygon fill="midnightblue" stroke="midnightblue" points="1073.45,-11.12 1063.24,-13.94 1072.98,-18.1 1073.45,-11.12"/>
</g>
<!-- Node27&#45;&gt;Node23 -->
<g id="edge50" class="edge">
<title>Node27&#45;&gt;Node23</title>
<path fill="none" stroke="midnightblue" d="M1342.99,-112.47C1379.17,-102.08 1427.87,-88.08 1461.64,-78.37"/>
<polygon fill="midnightblue" stroke="midnightblue" points="1462.96,-81.63 1471.61,-75.51 1461.03,-74.91 1462.96,-81.63"/>
</g>
<!-- Node27&#45;&gt;Node25 -->
<g id="edge47" class="edge">
<title>Node27&#45;&gt;Node25</title>
<path fill="none" stroke="midnightblue" d="M1293.25,-112.4C1292.72,-104.47 1292.05,-94.46 1291.47,-85.86"/>
<polygon fill="midnightblue" stroke="midnightblue" points="1294.95,-85.4 1290.78,-75.66 1287.96,-85.87 1294.95,-85.4"/>
</g>
<!-- Node27&#45;&gt;Node26 -->
<g id="edge52" class="edge">
<title>Node27&#45;&gt;Node26</title>
<path fill="none" stroke="midnightblue" d="M1268.13,-112.4C1250.34,-102.77 1226.89,-90.09 1209.3,-80.58"/>
<polygon fill="midnightblue" stroke="midnightblue" points="1210.67,-77.34 1200.21,-75.66 1207.34,-83.49 1210.67,-77.34"/>
</g>
<!-- Node29&#45;&gt;Node9 -->
<g id="edge58" class="edge">
<title>Node29&#45;&gt;Node9</title>
<path fill="none" stroke="midnightblue" d="M2129.81,-179.39C2118.9,-170.13 2105.6,-157.14 2097.2,-143 2086.59,-125.13 2080.84,-101.84 2077.91,-85.78"/>
<polygon fill="midnightblue" stroke="midnightblue" points="2081.3,-84.85 2076.24,-75.54 2074.39,-85.97 2081.3,-84.85"/>
</g>
<!-- Node30 -->
<g id="node30" class="node">
<title>Node30</title>
<g id="a_node30"><a xlink:title=" ">
<polygon fill="white" stroke="#bfbfbf" points="2105.7,-118 2105.7,-137 2220.7,-137 2220.7,-118 2105.7,-118"/>
<text text-anchor="middle" x="2163.2" y="-125" font-family="Helvetica,sans-Serif" font-size="10.00">AMReX_Geometry.H</text>
</a>
</g>
</g>
<!-- Node29&#45;&gt;Node30 -->
<g id="edge57" class="edge">
<title>Node29&#45;&gt;Node30</title>
<path fill="none" stroke="midnightblue" d="M2151.46,-179.4C2153.63,-169.96 2156.52,-157.45 2158.89,-147.19"/>
<polygon fill="midnightblue" stroke="midnightblue" points="2162.36,-147.73 2161.19,-137.19 2155.54,-146.15 2162.36,-147.73"/>
</g>
<!-- Node31&#45;&gt;Node9 -->
<g id="edge61" class="edge">
<title>Node31&#45;&gt;Node9</title>
<path fill="none" stroke="midnightblue" d="M2286.04,-179.47C2276.01,-161.23 2256.07,-129.61 2230.2,-112 2200,-91.44 2160.35,-80.15 2128.72,-74.02"/>
<polygon fill="midnightblue" stroke="midnightblue" points="2129.21,-70.55 2118.75,-72.21 2127.96,-77.44 2129.21,-70.55"/>
</g>
<!-- Node31&#45;&gt;Node30 -->
<g id="edge60" class="edge">
<title>Node31&#45;&gt;Node30</title>
<path fill="none" stroke="midnightblue" d="M2264.99,-179.4C2242.49,-168.14 2211.2,-152.5 2189.28,-141.54"/>
<polygon fill="midnightblue" stroke="midnightblue" points="2190.72,-138.35 2180.21,-137.01 2187.59,-144.61 2190.72,-138.35"/>
</g>
<!-- Node32&#45;&gt;Node9 -->
<g id="edge64" class="edge">
<title>Node32&#45;&gt;Node9</title>
<path fill="none" stroke="midnightblue" d="M2411.56,-179.45C2377.14,-161.76 2315.02,-131.34 2259.2,-112 2216.31,-97.14 2166.18,-85.22 2129.09,-77.39"/>
<polygon fill="midnightblue" stroke="midnightblue" points="2129.49,-73.9 2118.99,-75.3 2128.07,-80.76 2129.49,-73.9"/>
</g>
<!-- Node32&#45;&gt;Node30 -->
<g id="edge63" class="edge">
<title>Node32&#45;&gt;Node30</title>
<path fill="none" stroke="midnightblue" d="M2378.87,-179.48C2327.97,-167.45 2255.68,-150.36 2209.1,-139.35"/>
<polygon fill="midnightblue" stroke="midnightblue" points="2209.82,-135.92 2199.28,-137.03 2208.21,-142.74 2209.82,-135.92"/>
</g>
<!-- Node33&#45;&gt;Node9 -->
<g id="edge67" class="edge">
<title>Node33&#45;&gt;Node9</title>
<path fill="none" stroke="midnightblue" d="M2541.01,-179.46C2487.67,-162.04 2392.85,-132.19 2310.2,-112 2248.55,-96.93 2176.78,-83.82 2128.93,-75.7"/>
<polygon fill="midnightblue" stroke="midnightblue" points="2129.24,-72.2 2118.8,-73.99 2128.08,-79.1 2129.24,-72.2"/>
</g>
<!-- Node33&#45;&gt;Node30 -->
<g id="edge66" class="edge">
<title>Node33&#45;&gt;Node30</title>
<path fill="none" stroke="midnightblue" d="M2519.63,-180.5C2516.79,-179.98 2513.97,-179.48 2511.2,-179 2414.16,-162.2 2301.24,-146.52 2230.98,-137.22"/>
<polygon fill="midnightblue" stroke="midnightblue" points="2231.3,-133.73 2220.93,-135.89 2230.38,-140.67 2231.3,-133.73"/>
</g>
<!-- Node34&#45;&gt;Node9 -->
<g id="edge70" class="edge">
<title>Node34&#45;&gt;Node9</title>
<path fill="none" stroke="midnightblue" d="M1776.91,-180.02C1841.12,-166.31 1931.79,-146.6 1939.2,-143 1958.81,-133.48 1958.7,-123.53 1977.2,-112 1998,-99.04 2023.14,-87.57 2042.76,-79.45"/>
<polygon fill="midnightblue" stroke="midnightblue" points="2044.23,-82.63 2052.18,-75.63 2041.6,-76.15 2044.23,-82.63"/>
</g>
<!-- Node34&#45;&gt;Node30 -->
<g id="edge69" class="edge">
<title>Node34&#45;&gt;Node30</title>
<path fill="none" stroke="midnightblue" d="M1776.76,-180.46C1779.61,-179.95 1782.43,-179.46 1785.2,-179 1893.1,-160.95 2019.18,-145.16 2095.03,-136.24"/>
<polygon fill="midnightblue" stroke="midnightblue" points="2095.86,-139.66 2105.39,-135.02 2095.05,-132.71 2095.86,-139.66"/>
</g>
<!-- Node35&#45;&gt;Node9 -->
<g id="edge73" class="edge">
<title>Node35&#45;&gt;Node9</title>
<path fill="none" stroke="midnightblue" d="M1898.29,-179.47C1921.97,-170.46 1952.13,-157.7 1977.2,-143 2007.64,-125.15 2039.27,-99 2058.09,-82.5"/>
<polygon fill="midnightblue" stroke="midnightblue" points="2060.64,-84.92 2065.79,-75.66 2055.99,-79.69 2060.64,-84.92"/>
</g>
<!-- Node35&#45;&gt;Node30 -->
<g id="edge72" class="edge">
<title>Node35&#45;&gt;Node30</title>
<path fill="none" stroke="midnightblue" d="M1921.77,-179.95C1978.56,-167.85 2060.65,-150.35 2112.97,-139.21"/>
<polygon fill="midnightblue" stroke="midnightblue" points="2113.96,-142.57 2123.01,-137.06 2112.5,-135.73 2113.96,-142.57"/>
</g>
<!-- Node36&#45;&gt;Node9 -->
<g id="edge76" class="edge">
<title>Node36&#45;&gt;Node9</title>
<path fill="none" stroke="midnightblue" d="M2011.18,-179.48C2024.37,-156.31 2050.69,-110.07 2065.13,-84.69"/>
<polygon fill="midnightblue" stroke="midnightblue" points="2068.29,-86.21 2070.2,-75.79 2062.21,-82.75 2068.29,-86.21"/>
</g>
<!-- Node36&#45;&gt;Node30 -->
<g id="edge75" class="edge">
<title>Node36&#45;&gt;Node30</title>
<path fill="none" stroke="midnightblue" d="M2037.92,-179.4C2066.24,-167.89 2105.85,-151.8 2132.91,-140.81"/>
<polygon fill="midnightblue" stroke="midnightblue" points="2134.31,-144.01 2142.26,-137.01 2131.68,-137.53 2134.31,-144.01"/>
</g>
</g>
</svg>
