<?xml version="1.0" encoding="UTF-8" standalone="no"?>
<!DOCTYPE svg PUBLIC "-//W3C//DTD SVG 1.1//EN"
 "http://www.w3.org/Graphics/SVG/1.1/DTD/svg11.dtd">
<!-- Generated by graphviz version 2.43.0 (0)
 -->
<!-- Title: amr_wind::sampling::FreeSurfaceSampler Pages: 1 -->
<!--zoomable 767 -->
<svg id="main" version="1.1" xmlns="http://www.w3.org/2000/svg" xmlns:xlink="http://www.w3.org/1999/xlink" xml:space="preserve" onload="init(evt)">
<style type="text/css"><![CDATA[
.edge:hover path { stroke: red; }
.edge:hover polygon { stroke: red; fill: red; }
]]></style>
<script type="text/javascript"><![CDATA[
var edges = document.getElementsByTagName('g');
if (edges && edges.length) {
  for (var i=0;i<edges.length;i++) {
    if (edges[i].id.substr(0,4)=='edge') {
      edges[i].setAttribute('class','edge');
    }
  }
}
]]></script>
        <defs>
                <circle id="rim" cx="0" cy="0" r="7"/>
                <circle id="rim2" cx="0" cy="0" r="3.5"/>
                <g id="zoomPlus">
                        <use xlink:href="#rim" fill="#404040">
                                <set attributeName="fill" to="#808080" begin="zoomplus.mouseover" end="zoomplus.mouseout"/>
                        </use>
                        <path d="M-4,0h8M0,-4v8" fill="none" stroke="white" stroke-width="1.5" pointer-events="none"/>
                </g>
                <g id="zoomMin">
                        <use xlink:href="#rim" fill="#404040">
                                <set attributeName="fill" to="#808080" begin="zoomminus.mouseover" end="zoomminus.mouseout"/>
                        </use>
                        <path d="M-4,0h8" fill="none" stroke="white" stroke-width="1.5" pointer-events="none"/>
                </g>
                <g id="dirArrow">
                        <path fill="none" stroke="white" stroke-width="1.5" d="M0,-3.0v7 M-2.5,-0.5L0,-3.0L2.5,-0.5"/>
                </g>
               <g id="resetDef">
                       <use xlink:href="#rim2" fill="#404040">
                               <set attributeName="fill" to="#808080" begin="reset.mouseover" end="reset.mouseout"/>
                       </use>
               </g>
        </defs>

<script type="text/javascript">
var viewWidth = 2083;
var viewHeight = 767;
var sectionId = 'dynsection-1';
</script>
<script xlink:href="svgpan.js"/>
<svg id="graph" class="graph">
<g id="viewport">
<title>amr_wind::sampling::FreeSurfaceSampler</title>
<polygon fill="white" stroke="transparent" points="-4,4 -4,-762.65 2079,-762.65 2079,4 -4,4"/>
<!-- Node1 -->
<g id="node1" class="node">
<title>Node1</title>
<g id="a_node1"><a xlink:title=" ">
<polygon fill="#bfbfbf" stroke="black" points="1948,-660.15 1948,-690.15 2069,-690.15 2069,-660.15 1948,-660.15"/>
<text text-anchor="start" x="1956" y="-678.15" font-family="Helvetica,sans-Serif" font-size="10.00">amr_wind::sampling</text>
<text text-anchor="middle" x="2008.5" y="-667.15" font-family="Helvetica,sans-Serif" font-size="10.00">::FreeSurfaceSampler</text>
</a>
</g>
</g>
<!-- Node2 -->
<g id="node2" class="node">
<title>Node2</title>
<g id="a_node2"><a xlink:title=" ">
<polygon fill="white" stroke="#bfbfbf" points="1708,-728.15 1708,-758.15 1845,-758.15 1845,-728.15 1708,-728.15"/>
<text text-anchor="start" x="1716" y="-746.15" font-family="Helvetica,sans-Serif" font-size="10.00">SamplerBase::Register</text>
<text text-anchor="middle" x="1776.5" y="-735.15" font-family="Helvetica,sans-Serif" font-size="10.00">&lt; FreeSurfaceSampler &gt;</text>
</a>
</g>
</g>
<!-- Node2&#45;&gt;Node1 -->
<g id="edge1" class="edge">
<title>Node2&#45;&gt;Node1</title>
<path fill="none" stroke="midnightblue" d="M1854.92,-730.68C1877.47,-726.14 1901.96,-720.32 1924,-713.15 1942.78,-707.04 1962.96,-697.93 1978.77,-690.17"/>
<polygon fill="midnightblue" stroke="midnightblue" points="1854.2,-727.25 1845.06,-732.61 1855.54,-734.12 1854.2,-727.25"/>
</g>
<!-- Node3 -->
<g id="node3" class="node">
<title>Node3</title>
<g id="a_node3"><a xlink:href="classamr__wind_1_1_field.html" target="_top" xlink:title="Computational field.">
<polygon fill="white" stroke="black" points="1049.5,-628.65 1049.5,-647.65 1143.5,-647.65 1143.5,-628.65 1049.5,-628.65"/>
<text text-anchor="middle" x="1096.5" y="-635.65" font-family="Helvetica,sans-Serif" font-size="10.00">amr_wind::Field</text>
</a>
</g>
</g>
<!-- Node3&#45;&gt;Node1 -->
<g id="edge2" class="edge">
<title>Node3&#45;&gt;Node1</title>
<path fill="none" stroke="#9a32cd" stroke-dasharray="5,2" d="M1153.79,-640.44C1315.75,-647.02 1781.94,-665.98 1947.93,-672.73"/>
<polygon fill="#9a32cd" stroke="#9a32cd" points="1153.7,-636.93 1143.56,-640.02 1153.41,-643.93 1153.7,-636.93"/>
<text text-anchor="middle" x="1625" y="-664.15" font-family="Helvetica,sans-Serif" font-size="10.00"> m_vof</text>
</g>
<!-- Node4 -->
<g id="node4" class="node">
<title>Node4</title>
<g id="a_node4"><a xlink:title=" ">
<polygon fill="white" stroke="#bfbfbf" points="605,-606.15 605,-636.15 725,-636.15 725,-606.15 605,-606.15"/>
<text text-anchor="start" x="613" y="-624.15" font-family="Helvetica,sans-Serif" font-size="10.00">std::shared_ptr&lt; amr</text>
<text text-anchor="middle" x="665" y="-613.15" font-family="Helvetica,sans-Serif" font-size="10.00">_wind::FieldInfo &gt;</text>
</a>
</g>
</g>
<!-- Node4&#45;&gt;Node3 -->
<g id="edge3" class="edge">
<title>Node4&#45;&gt;Node3</title>
<path fill="none" stroke="#9a32cd" stroke-dasharray="5,2" d="M735.46,-623.9C823.8,-627.39 973.89,-633.34 1049.33,-636.32"/>
<polygon fill="#9a32cd" stroke="#9a32cd" points="735.4,-620.39 725.27,-623.5 735.12,-627.39 735.4,-620.39"/>
<text text-anchor="middle" x="807.5" y="-632.15" font-family="Helvetica,sans-Serif" font-size="10.00"> m_info</text>
</g>
<!-- Node5 -->
<g id="node5" class="node">
<title>Node5</title>
<g id="a_node5"><a xlink:title=" ">
<polygon fill="white" stroke="#bfbfbf" points="189,-544.65 189,-563.65 307,-563.65 307,-544.65 189,-544.65"/>
<text text-anchor="middle" x="248" y="-551.65" font-family="Helvetica,sans-Serif" font-size="10.00">std::shared_ptr&lt; T &gt;</text>
</a>
</g>
</g>
<!-- Node5&#45;&gt;Node4 -->
<g id="edge4" class="edge">
<title>Node5&#45;&gt;Node4</title>
<path fill="none" stroke="orange" stroke-dasharray="5,2" d="M301.83,-565.89C365.74,-580.1 464.87,-602.13 465,-602.15 511.79,-609.55 565.26,-614.46 604.98,-617.43"/>
<polygon fill="orange" stroke="orange" points="302.42,-562.44 291.9,-563.68 300.9,-569.27 302.42,-562.44"/>
<text text-anchor="middle" x="386" y="-600.15" font-family="Helvetica,sans-Serif" font-size="10.00"> &lt; amr_wind::FieldInfo &gt;</text>
</g>
<!-- Node6 -->
<g id="node6" class="node">
<title>Node6</title>
<g id="a_node6"><a xlink:title=" ">
<polygon fill="white" stroke="#bfbfbf" points="37.5,-501.65 37.5,-520.65 66.5,-520.65 66.5,-501.65 37.5,-501.65"/>
<text text-anchor="middle" x="52" y="-508.65" font-family="Helvetica,sans-Serif" font-size="10.00">T</text>
</a>
</g>
</g>
<!-- Node6&#45;&gt;Node5 -->
<g id="edge5" class="edge">
<title>Node6&#45;&gt;Node5</title>
<path fill="none" stroke="#9a32cd" stroke-dasharray="5,2" d="M76.71,-516.41C108.32,-523.41 164.81,-535.93 204.02,-544.62"/>
<polygon fill="#9a32cd" stroke="#9a32cd" points="77.16,-512.92 66.64,-514.17 75.65,-519.75 77.16,-512.92"/>
<text text-anchor="middle" x="146.5" y="-539.15" font-family="Helvetica,sans-Serif" font-size="10.00"> ptr</text>
</g>
<!-- Node11 -->
<g id="node11" class="node">
<title>Node11</title>
<g id="a_node11"><a xlink:title=" ">
<polygon fill="white" stroke="#bfbfbf" points="191,-476.15 191,-506.15 305,-506.15 305,-476.15 191,-476.15"/>
<text text-anchor="start" x="199" y="-494.15" font-family="Helvetica,sans-Serif" font-size="10.00">std::unordered_map</text>
<text text-anchor="middle" x="248" y="-483.15" font-family="Helvetica,sans-Serif" font-size="10.00">&lt; K, T &gt;</text>
</a>
</g>
</g>
<!-- Node6&#45;&gt;Node11 -->
<g id="edge13" class="edge">
<title>Node6&#45;&gt;Node11</title>
<path fill="none" stroke="#9a32cd" stroke-dasharray="5,2" d="M76.78,-508.7C105.03,-505.79 153.11,-500.83 190.98,-496.92"/>
<polygon fill="#9a32cd" stroke="#9a32cd" points="76.23,-505.24 66.64,-509.74 76.95,-512.2 76.23,-505.24"/>
<text text-anchor="middle" x="146.5" y="-506.15" font-family="Helvetica,sans-Serif" font-size="10.00"> elements</text>
</g>
<!-- Node15 -->
<g id="node15" class="node">
<title>Node15</title>
<g id="a_node15"><a xlink:title=" ">
<polygon fill="white" stroke="#bfbfbf" points="1037.5,-219.65 1037.5,-238.65 1155.5,-238.65 1155.5,-219.65 1037.5,-219.65"/>
<text text-anchor="middle" x="1096.5" y="-226.65" font-family="Helvetica,sans-Serif" font-size="10.00">std::unique_ptr&lt; T &gt;</text>
</a>
</g>
</g>
<!-- Node6&#45;&gt;Node15 -->
<g id="edge17" class="edge">
<title>Node6&#45;&gt;Node15</title>
<path fill="none" stroke="#9a32cd" stroke-dasharray="5,2" d="M76.35,-505.53C85.56,-502.56 95.86,-498.23 104,-492.15 114.68,-484.17 113.76,-478.63 122,-468.15 176.03,-399.37 159.53,-316.15 247,-316.15 247,-316.15 247,-316.15 808.5,-316.15 914.19,-316.15 1032.73,-261.44 1077.28,-238.79"/>
<polygon fill="#9a32cd" stroke="#9a32cd" points="75.24,-502.21 66.59,-508.33 77.17,-508.94 75.24,-502.21"/>
<text text-anchor="middle" x="526" y="-319.15" font-family="Helvetica,sans-Serif" font-size="10.00"> ptr</text>
</g>
<!-- Node7 -->
<g id="node7" class="node">
<title>Node7</title>
<g id="a_node7"><a xlink:title=" ">
<polygon fill="white" stroke="#bfbfbf" points="215.5,-625.65 215.5,-644.65 280.5,-644.65 280.5,-625.65 215.5,-625.65"/>
<text text-anchor="middle" x="248" y="-632.65" font-family="Helvetica,sans-Serif" font-size="10.00">std::string</text>
</a>
</g>
</g>
<!-- Node7&#45;&gt;Node1 -->
<g id="edge45" class="edge">
<title>Node7&#45;&gt;Node1</title>
<path fill="none" stroke="#9a32cd" stroke-dasharray="5,2" d="M282.92,-648.28C334.41,-667.01 435.77,-699.15 525,-699.15 525,-699.15 525,-699.15 1777.5,-699.15 1835.51,-699.15 1901.31,-691.5 1947.63,-684.84"/>
<polygon fill="#9a32cd" stroke="#9a32cd" points="283.89,-644.91 273.3,-644.73 281.47,-651.48 283.89,-644.91"/>
<text text-anchor="middle" x="1096.5" y="-702.15" font-family="Helvetica,sans-Serif" font-size="10.00"> m_label</text>
</g>
<!-- Node7&#45;&gt;Node3 -->
<g id="edge6" class="edge">
<title>Node7&#45;&gt;Node3</title>
<path fill="none" stroke="#9a32cd" stroke-dasharray="5,2" d="M290.59,-642.92C301.72,-644.67 313.78,-646.27 325,-647.15 379.06,-651.39 392.78,-647.2 447,-647.15 699,-646.93 762.31,-658.69 1014,-646.15 1025.5,-645.58 1037.88,-644.56 1049.44,-643.45"/>
<polygon fill="#9a32cd" stroke="#9a32cd" points="291.11,-639.46 280.67,-641.28 289.97,-646.36 291.11,-639.46"/>
<text text-anchor="middle" x="665" y="-653.15" font-family="Helvetica,sans-Serif" font-size="10.00"> m_name</text>
</g>
<!-- Node10 -->
<g id="node10" class="node">
<title>Node10</title>
<g id="a_node10"><a xlink:title=" ">
<polygon fill="white" stroke="#bfbfbf" points="465,-562.15 465,-592.15 587,-592.15 587,-562.15 465,-562.15"/>
<text text-anchor="start" x="473" y="-580.15" font-family="Helvetica,sans-Serif" font-size="10.00">std::unordered_map</text>
<text text-anchor="middle" x="526" y="-569.15" font-family="Helvetica,sans-Serif" font-size="10.00">&lt; std::string, size_t &gt;</text>
</a>
</g>
</g>
<!-- Node7&#45;&gt;Node10 -->
<g id="edge10" class="edge">
<title>Node7&#45;&gt;Node10</title>
<path fill="none" stroke="#9a32cd" stroke-dasharray="5,2" d="M290.87,-634.38C331.46,-632.74 394.43,-627.78 447,-613.15 464.67,-608.23 483.37,-599.73 498.03,-592.22"/>
<polygon fill="#9a32cd" stroke="#9a32cd" points="290.67,-630.89 280.8,-634.74 290.92,-637.88 290.67,-630.89"/>
<text text-anchor="middle" x="386" y="-635.15" font-family="Helvetica,sans-Serif" font-size="10.00"> keys</text>
</g>
<!-- Node18 -->
<g id="node18" class="node">
<title>Node18</title>
<g id="a_node18"><a xlink:href="classamr__wind_1_1pde_1_1_p_d_e_mgr.html" target="_top" xlink:title="PDE systems manager.">
<polygon fill="white" stroke="black" points="1942,-379.65 1942,-398.65 2075,-398.65 2075,-379.65 1942,-379.65"/>
<text text-anchor="middle" x="2008.5" y="-386.65" font-family="Helvetica,sans-Serif" font-size="10.00">amr_wind::pde::PDEMgr</text>
</a>
</g>
</g>
<!-- Node7&#45;&gt;Node18 -->
<g id="edge29" class="edge">
<title>Node7&#45;&gt;Node18</title>
<path fill="none" stroke="#9a32cd" stroke-dasharray="5,2" d="M290.69,-624.57C301.83,-621.79 313.86,-618.82 325,-616.15 379.1,-603.18 403.07,-622.29 447,-588.15 460.81,-577.41 450.18,-562.44 465,-553.15 497.48,-532.77 1806.9,-523.44 1845,-519.15 1880.6,-515.14 1893.82,-522.46 1924,-503.15 1965.74,-476.44 1993.6,-420.9 2003.49,-398.66"/>
<polygon fill="#9a32cd" stroke="#9a32cd" points="289.61,-621.23 280.77,-627.06 291.32,-628.02 289.61,-621.23"/>
<text text-anchor="middle" x="1096.5" y="-535.15" font-family="Helvetica,sans-Serif" font-size="10.00"> m_scheme</text>
</g>
<!-- Node21 -->
<g id="node21" class="node">
<title>Node21</title>
<g id="a_node21"><a xlink:title=" ">
<polygon fill="white" stroke="#bfbfbf" points="469,-464.15 469,-494.15 583,-494.15 583,-464.15 469,-464.15"/>
<text text-anchor="start" x="477" y="-482.15" font-family="Helvetica,sans-Serif" font-size="10.00">std::unordered_map</text>
<text text-anchor="middle" x="526" y="-471.15" font-family="Helvetica,sans-Serif" font-size="10.00">&lt; std::string, int &gt;</text>
</a>
</g>
</g>
<!-- Node7&#45;&gt;Node21 -->
<g id="edge26" class="edge">
<title>Node7&#45;&gt;Node21</title>
<path fill="none" stroke="#9a32cd" stroke-dasharray="5,2" d="M266.42,-618.5C278.52,-606.49 294.62,-589.56 307,-573.15 316.36,-560.74 312.24,-552.04 325,-543.15 370.28,-511.61 394.89,-538.3 447,-520.15 465.93,-513.56 485.91,-502.98 500.91,-494.21"/>
<polygon fill="#9a32cd" stroke="#9a32cd" points="263.83,-616.14 259.13,-625.63 268.73,-621.14 263.83,-616.14"/>
<text text-anchor="middle" x="386" y="-546.15" font-family="Helvetica,sans-Serif" font-size="10.00"> keys</text>
</g>
<!-- Node8 -->
<g id="node8" class="node">
<title>Node8</title>
<g id="a_node8"><a xlink:title=" ">
<polygon fill="white" stroke="#bfbfbf" points="0,-620.15 0,-650.15 104,-650.15 104,-620.15 0,-620.15"/>
<text text-anchor="start" x="8" y="-638.15" font-family="Helvetica,sans-Serif" font-size="10.00">std::basic_string&lt;</text>
<text text-anchor="middle" x="52" y="-627.15" font-family="Helvetica,sans-Serif" font-size="10.00"> Char &gt;</text>
</a>
</g>
</g>
<!-- Node8&#45;&gt;Node7 -->
<g id="edge7" class="edge">
<title>Node8&#45;&gt;Node7</title>
<path fill="none" stroke="midnightblue" d="M114.39,-635.15C147.91,-635.15 188.01,-635.15 215.27,-635.15"/>
<polygon fill="midnightblue" stroke="midnightblue" points="114.23,-631.65 104.22,-635.15 114.22,-638.65 114.23,-631.65"/>
</g>
<!-- Node9 -->
<g id="node9" class="node">
<title>Node9</title>
<g id="a_node9"><a xlink:href="classamr__wind_1_1_field_repo.html" target="_top" xlink:title="Field Repository.">
<polygon fill="white" stroke="black" points="748,-566.65 748,-585.65 867,-585.65 867,-566.65 748,-566.65"/>
<text text-anchor="middle" x="807.5" y="-573.65" font-family="Helvetica,sans-Serif" font-size="10.00">amr_wind::FieldRepo</text>
</a>
</g>
</g>
<!-- Node9&#45;&gt;Node3 -->
<g id="edge8" class="edge">
<title>Node9&#45;&gt;Node3</title>
<path fill="none" stroke="#9a32cd" stroke-dasharray="5,2" d="M877.23,-582.2C917.54,-586.73 969.19,-594.25 1014,-606.15 1035.3,-611.81 1058.62,-621.32 1074.84,-628.51"/>
<polygon fill="#9a32cd" stroke="#9a32cd" points="877.56,-578.72 867.24,-581.11 876.8,-585.68 877.56,-578.72"/>
<text text-anchor="middle" x="952" y="-609.15" font-family="Helvetica,sans-Serif" font-size="10.00"> m_repo</text>
</g>
<!-- Node13 -->
<g id="node13" class="node">
<title>Node13</title>
<g id="a_node13"><a xlink:href="classamr__wind_1_1_c_f_d_sim.html" target="_top" xlink:title="Data structures for a CFD simulation.">
<polygon fill="white" stroke="black" points="1721.5,-345.65 1721.5,-364.65 1831.5,-364.65 1831.5,-345.65 1721.5,-345.65"/>
<text text-anchor="middle" x="1776.5" y="-352.65" font-family="Helvetica,sans-Serif" font-size="10.00">amr_wind::CFDSim</text>
</a>
</g>
</g>
<!-- Node9&#45;&gt;Node13 -->
<g id="edge37" class="edge">
<title>Node9&#45;&gt;Node13</title>
<path fill="none" stroke="#9a32cd" stroke-dasharray="5,2" d="M877.1,-575C1059.67,-570.86 1552.86,-552.16 1690,-470.15 1733.13,-444.36 1761.43,-387.67 1771.45,-364.9"/>
<polygon fill="#9a32cd" stroke="#9a32cd" points="877,-571.51 867.08,-575.22 877.16,-578.5 877,-571.51"/>
<text text-anchor="middle" x="1269.5" y="-563.15" font-family="Helvetica,sans-Serif" font-size="10.00"> m_repo</text>
</g>
<!-- Node10&#45;&gt;Node9 -->
<g id="edge9" class="edge">
<title>Node10&#45;&gt;Node9</title>
<path fill="none" stroke="#9a32cd" stroke-dasharray="5,2" d="M597.24,-575.26C599.86,-575.22 602.45,-575.18 605,-575.15 653.1,-574.53 707.66,-574.87 747.86,-575.31"/>
<polygon fill="#9a32cd" stroke="#9a32cd" points="596.97,-571.77 587.04,-575.45 597.1,-578.77 596.97,-571.77"/>
<text text-anchor="middle" x="665" y="-589.15" font-family="Helvetica,sans-Serif" font-size="10.00"> m_fid_map</text>
<text text-anchor="middle" x="665" y="-578.15" font-family="Helvetica,sans-Serif" font-size="10.00">m_int_fid_map</text>
</g>
<!-- Node11&#45;&gt;Node10 -->
<g id="edge11" class="edge">
<title>Node11&#45;&gt;Node10</title>
<path fill="none" stroke="orange" stroke-dasharray="5,2" d="M315.12,-487.12C354.84,-487.11 405.54,-491.43 447,-509.15 474.26,-520.8 498.78,-545.68 512.77,-561.9"/>
<polygon fill="orange" stroke="orange" points="314.98,-483.63 305.01,-487.22 315.04,-490.62 314.98,-483.63"/>
<text text-anchor="middle" x="386" y="-512.15" font-family="Helvetica,sans-Serif" font-size="10.00"> &lt; std::string, size_t &gt;</text>
</g>
<!-- Node11&#45;&gt;Node21 -->
<g id="edge27" class="edge">
<title>Node11&#45;&gt;Node21</title>
<path fill="none" stroke="orange" stroke-dasharray="5,2" d="M315.19,-476.37C318.5,-475.9 321.78,-475.48 325,-475.15 373.36,-470.11 428.64,-471.78 468.81,-474.33"/>
<polygon fill="orange" stroke="orange" points="314.56,-472.93 305.24,-477.95 315.66,-479.84 314.56,-472.93"/>
<text text-anchor="middle" x="386" y="-478.15" font-family="Helvetica,sans-Serif" font-size="10.00"> &lt; std::string, int &gt;</text>
</g>
<!-- Node12 -->
<g id="node12" class="node">
<title>Node12</title>
<g id="a_node12"><a xlink:title=" ">
<polygon fill="white" stroke="#bfbfbf" points="37.5,-463.65 37.5,-482.65 66.5,-482.65 66.5,-463.65 37.5,-463.65"/>
<text text-anchor="middle" x="52" y="-470.65" font-family="Helvetica,sans-Serif" font-size="10.00">K</text>
</a>
</g>
</g>
<!-- Node12&#45;&gt;Node11 -->
<g id="edge12" class="edge">
<title>Node12&#45;&gt;Node11</title>
<path fill="none" stroke="#9a32cd" stroke-dasharray="5,2" d="M77.11,-472.57C101.01,-472.28 138.65,-472.57 171,-476.15 177.42,-476.86 184.1,-477.83 190.72,-478.94"/>
<polygon fill="#9a32cd" stroke="#9a32cd" points="76.8,-469.08 66.86,-472.74 76.92,-476.08 76.8,-469.08"/>
<text text-anchor="middle" x="146.5" y="-479.15" font-family="Helvetica,sans-Serif" font-size="10.00"> keys</text>
</g>
<!-- Node13&#45;&gt;Node1 -->
<g id="edge14" class="edge">
<title>Node13&#45;&gt;Node1</title>
<path fill="none" stroke="#9a32cd" stroke-dasharray="5,2" d="M1790.41,-373.11C1831.48,-430.25 1958.61,-607.13 1996.64,-660.04"/>
<polygon fill="#9a32cd" stroke="#9a32cd" points="1793.06,-370.8 1784.38,-364.73 1787.38,-374.89 1793.06,-370.8"/>
<text text-anchor="middle" x="1893.5" y="-556.15" font-family="Helvetica,sans-Serif" font-size="10.00"> m_sim</text>
</g>
<!-- Node13&#45;&gt;Node18 -->
<g id="edge28" class="edge">
<title>Node13&#45;&gt;Node18</title>
<path fill="none" stroke="#9a32cd" stroke-dasharray="5,2" d="M1841.63,-349.07C1867.45,-348.08 1897.36,-348.79 1924,-354.15 1948.04,-358.98 1973.79,-370.92 1990.24,-379.51"/>
<polygon fill="#9a32cd" stroke="#9a32cd" points="1841.4,-345.58 1831.58,-349.55 1841.74,-352.57 1841.4,-345.58"/>
<text text-anchor="middle" x="1893.5" y="-357.15" font-family="Helvetica,sans-Serif" font-size="10.00"> m_sim</text>
</g>
<!-- Node14 -->
<g id="node14" class="node">
<title>Node14</title>
<g id="a_node14"><a xlink:title=" ">
<polygon fill="white" stroke="#bfbfbf" points="1395,-361.15 1395,-391.15 1525,-391.15 1525,-361.15 1395,-361.15"/>
<text text-anchor="start" x="1403" y="-379.15" font-family="Helvetica,sans-Serif" font-size="10.00">std::unique_ptr&lt; amr</text>
<text text-anchor="middle" x="1460" y="-368.15" font-family="Helvetica,sans-Serif" font-size="10.00">_wind::HelicsStorage &gt;</text>
</a>
</g>
</g>
<!-- Node14&#45;&gt;Node13 -->
<g id="edge15" class="edge">
<title>Node14&#45;&gt;Node13</title>
<path fill="none" stroke="#9a32cd" stroke-dasharray="5,2" d="M1535.08,-371.2C1592.18,-367.39 1669.84,-362.2 1721.26,-358.77"/>
<polygon fill="#9a32cd" stroke="#9a32cd" points="1534.77,-367.72 1525.02,-371.87 1535.23,-374.7 1534.77,-367.72"/>
<text text-anchor="middle" x="1625" y="-373.15" font-family="Helvetica,sans-Serif" font-size="10.00"> m_helics</text>
</g>
<!-- Node15&#45;&gt;Node14 -->
<g id="edge16" class="edge">
<title>Node15&#45;&gt;Node14</title>
<path fill="none" stroke="orange" stroke-dasharray="5,2" d="M1105.82,-247.78C1118.01,-272.69 1143.22,-316.12 1179,-337.15 1245.22,-376.07 1335.12,-381.98 1395,-380.69"/>
<polygon fill="orange" stroke="orange" points="1108.95,-246.21 1101.53,-238.65 1102.62,-249.19 1108.95,-246.21"/>
<text text-anchor="middle" x="1269.5" y="-384.15" font-family="Helvetica,sans-Serif" font-size="10.00"> &lt; amr_wind::HelicsStorage &gt;</text>
</g>
<!-- Node16 -->
<g id="node16" class="node">
<title>Node16</title>
<g id="a_node16"><a xlink:title=" ">
<polygon fill="white" stroke="#bfbfbf" points="1400,-312.15 1400,-342.15 1520,-342.15 1520,-312.15 1400,-312.15"/>
<text text-anchor="start" x="1408" y="-330.15" font-family="Helvetica,sans-Serif" font-size="10.00">std::unique_ptr&lt; amr</text>
<text text-anchor="middle" x="1460" y="-319.15" font-family="Helvetica,sans-Serif" font-size="10.00">_wind::IOManager &gt;</text>
</a>
</g>
</g>
<!-- Node15&#45;&gt;Node16 -->
<g id="edge19" class="edge">
<title>Node15&#45;&gt;Node16</title>
<path fill="none" stroke="orange" stroke-dasharray="5,2" d="M1116.38,-245.1C1132.11,-257.5 1155.64,-274.07 1179,-283.15 1251.7,-311.39 1341.71,-321.53 1399.73,-325.15"/>
<polygon fill="orange" stroke="orange" points="1118.47,-242.29 1108.5,-238.72 1114.07,-247.73 1118.47,-242.29"/>
<text text-anchor="middle" x="1269.5" y="-325.15" font-family="Helvetica,sans-Serif" font-size="10.00"> &lt; amr_wind::IOManager &gt;</text>
</g>
<!-- Node17 -->
<g id="node17" class="node">
<title>Node17</title>
<g id="a_node17"><a xlink:title=" ">
<polygon fill="white" stroke="#bfbfbf" points="1378,-55.15 1378,-85.15 1542,-85.15 1542,-55.15 1378,-55.15"/>
<text text-anchor="start" x="1386" y="-73.15" font-family="Helvetica,sans-Serif" font-size="10.00">std::unique_ptr&lt; amr</text>
<text text-anchor="middle" x="1460" y="-62.15" font-family="Helvetica,sans-Serif" font-size="10.00">_wind::PostProcessManager &gt;</text>
</a>
</g>
</g>
<!-- Node15&#45;&gt;Node17 -->
<g id="edge21" class="edge">
<title>Node15&#45;&gt;Node17</title>
<path fill="none" stroke="orange" stroke-dasharray="5,2" d="M1104.93,-210.2C1116.45,-183.52 1141.31,-135.55 1179,-112.15 1238.51,-75.2 1318.53,-66.37 1377.78,-65.81"/>
<polygon fill="orange" stroke="orange" points="1101.63,-209.01 1101.04,-219.59 1108.1,-211.69 1101.63,-209.01"/>
<text text-anchor="middle" x="1269.5" y="-115.15" font-family="Helvetica,sans-Serif" font-size="10.00"> &lt; amr_wind::PostProcessManager &gt;</text>
</g>
<!-- Node22 -->
<g id="node22" class="node">
<title>Node22</title>
<g id="a_node22"><a xlink:title=" ">
<polygon fill="white" stroke="#bfbfbf" points="1560,-25.15 1560,-55.15 1690,-55.15 1690,-25.15 1560,-25.15"/>
<text text-anchor="start" x="1568" y="-43.15" font-family="Helvetica,sans-Serif" font-size="10.00">std::unique_ptr&lt; amr</text>
<text text-anchor="middle" x="1625" y="-32.15" font-family="Helvetica,sans-Serif" font-size="10.00">_wind::pde::PDEBase &gt;</text>
</a>
</g>
</g>
<!-- Node15&#45;&gt;Node22 -->
<g id="edge31" class="edge">
<title>Node15&#45;&gt;Node22</title>
<path fill="none" stroke="orange" stroke-dasharray="5,2" d="M1100,-208.86C1105.92,-170.58 1124.64,-88.33 1179,-52.15 1299.8,28.25 1482.76,-2.83 1571.73,-25.11"/>
<polygon fill="orange" stroke="orange" points="1096.47,-208.84 1098.55,-219.22 1103.4,-209.81 1096.47,-208.84"/>
<text text-anchor="middle" x="1269.5" y="-55.15" font-family="Helvetica,sans-Serif" font-size="10.00"> &lt; amr_wind::pde::PDEBase &gt;</text>
</g>
<!-- Node24 -->
<g id="node24" class="node">
<title>Node24</title>
<g id="a_node24"><a xlink:title=" ">
<polygon fill="white" stroke="#bfbfbf" points="1388.5,-263.15 1388.5,-293.15 1531.5,-293.15 1531.5,-263.15 1388.5,-263.15"/>
<text text-anchor="start" x="1396.5" y="-281.15" font-family="Helvetica,sans-Serif" font-size="10.00">std::unique_ptr&lt; amr</text>
<text text-anchor="middle" x="1460" y="-270.15" font-family="Helvetica,sans-Serif" font-size="10.00">_wind::OversetManager &gt;</text>
</a>
</g>
</g>
<!-- Node15&#45;&gt;Node24 -->
<g id="edge34" class="edge">
<title>Node15&#45;&gt;Node24</title>
<path fill="none" stroke="orange" stroke-dasharray="5,2" d="M1156.43,-240.44C1164.01,-241.76 1171.68,-243.03 1179,-244.15 1250.04,-254.99 1331.64,-264.57 1388.35,-270.78"/>
<polygon fill="orange" stroke="orange" points="1157.01,-236.98 1146.55,-238.68 1155.78,-243.88 1157.01,-236.98"/>
<text text-anchor="middle" x="1269.5" y="-271.15" font-family="Helvetica,sans-Serif" font-size="10.00"> &lt; amr_wind::OversetManager &gt;</text>
</g>
<!-- Node25 -->
<g id="node25" class="node">
<title>Node25</title>
<g id="a_node25"><a xlink:title=" ">
<polygon fill="white" stroke="#bfbfbf" points="1379.5,-104.65 1379.5,-145.65 1540.5,-145.65 1540.5,-104.65 1379.5,-104.65"/>
<text text-anchor="start" x="1387.5" y="-133.65" font-family="Helvetica,sans-Serif" font-size="10.00">std::unique_ptr&lt; amr</text>
<text text-anchor="start" x="1387.5" y="-122.65" font-family="Helvetica,sans-Serif" font-size="10.00">_wind::turbulence::Turbulence</text>
<text text-anchor="middle" x="1460" y="-111.65" font-family="Helvetica,sans-Serif" font-size="10.00">Model &gt;</text>
</a>
</g>
</g>
<!-- Node15&#45;&gt;Node25 -->
<g id="edge36" class="edge">
<title>Node15&#45;&gt;Node25</title>
<path fill="none" stroke="orange" stroke-dasharray="5,2" d="M1113.58,-212.24C1128.89,-197.25 1153.36,-176.1 1179,-165.15 1242.89,-137.85 1321.7,-128.51 1379.41,-125.61"/>
<polygon fill="orange" stroke="orange" points="1111.01,-209.86 1106.45,-219.42 1115.97,-214.79 1111.01,-209.86"/>
<text text-anchor="start" x="1209" y="-179.15" font-family="Helvetica,sans-Serif" font-size="10.00"> &lt; amr_wind::turbulence</text>
<text text-anchor="middle" x="1269.5" y="-168.15" font-family="Helvetica,sans-Serif" font-size="10.00">::TurbulenceModel &gt;</text>
</g>
<!-- Node26 -->
<g id="node26" class="node">
<title>Node26</title>
<g id="a_node26"><a xlink:title=" ">
<polygon fill="white" stroke="#bfbfbf" points="1400,-214.15 1400,-244.15 1520,-244.15 1520,-214.15 1400,-214.15"/>
<text text-anchor="start" x="1408" y="-232.15" font-family="Helvetica,sans-Serif" font-size="10.00">std::unique_ptr&lt; amr</text>
<text text-anchor="middle" x="1460" y="-221.15" font-family="Helvetica,sans-Serif" font-size="10.00">_wind::MeshMap &gt;</text>
</a>
</g>
</g>
<!-- Node15&#45;&gt;Node26 -->
<g id="edge39" class="edge">
<title>Node15&#45;&gt;Node26</title>
<path fill="none" stroke="orange" stroke-dasharray="5,2" d="M1165.7,-229.15C1233.26,-229.15 1335.65,-229.15 1399.86,-229.15"/>
<polygon fill="orange" stroke="orange" points="1165.58,-225.65 1155.58,-229.15 1165.58,-232.65 1165.58,-225.65"/>
<text text-anchor="middle" x="1269.5" y="-232.15" font-family="Helvetica,sans-Serif" font-size="10.00"> &lt; amr_wind::MeshMap &gt;</text>
</g>
<!-- Node27 -->
<g id="node27" class="node">
<title>Node27</title>
<g id="a_node27"><a xlink:title=" ">
<polygon fill="white" stroke="#bfbfbf" points="1396,-165.15 1396,-195.15 1524,-195.15 1524,-165.15 1396,-165.15"/>
<text text-anchor="start" x="1404" y="-183.15" font-family="Helvetica,sans-Serif" font-size="10.00">std::unique_ptr&lt; amr</text>
<text text-anchor="middle" x="1460" y="-172.15" font-family="Helvetica,sans-Serif" font-size="10.00">_wind::ExtSolverMgr &gt;</text>
</a>
</g>
</g>
<!-- Node15&#45;&gt;Node27 -->
<g id="edge41" class="edge">
<title>Node15&#45;&gt;Node27</title>
<path fill="none" stroke="orange" stroke-dasharray="5,2" d="M1156.43,-217.86C1164.01,-216.54 1171.68,-215.27 1179,-214.15 1253.19,-202.83 1338.89,-192.88 1395.74,-186.71"/>
<polygon fill="orange" stroke="orange" points="1155.78,-214.42 1146.55,-219.62 1157.01,-221.31 1155.78,-214.42"/>
<text text-anchor="middle" x="1269.5" y="-217.15" font-family="Helvetica,sans-Serif" font-size="10.00"> &lt; amr_wind::ExtSolverMgr &gt;</text>
</g>
<!-- Node16&#45;&gt;Node13 -->
<g id="edge18" class="edge">
<title>Node16&#45;&gt;Node13</title>
<path fill="none" stroke="#9a32cd" stroke-dasharray="5,2" d="M1530.35,-333.09C1575.77,-337.01 1636.42,-342.3 1690,-347.15 1700.1,-348.06 1710.86,-349.05 1721.23,-350.02"/>
<polygon fill="#9a32cd" stroke="#9a32cd" points="1530.58,-329.6 1520.32,-332.23 1529.98,-336.57 1530.58,-329.6"/>
<text text-anchor="middle" x="1625" y="-350.15" font-family="Helvetica,sans-Serif" font-size="10.00"> m_io_mgr</text>
</g>
<!-- Node17&#45;&gt;Node13 -->
<g id="edge20" class="edge">
<title>Node17&#45;&gt;Node13</title>
<path fill="none" stroke="#9a32cd" stroke-dasharray="5,2" d="M1552.24,-62.9C1599.21,-64.24 1654.01,-74.49 1690,-109.15 1718.13,-136.24 1696.36,-157.87 1708,-195.15 1726.34,-253.85 1758.31,-320.6 1770.55,-345.29"/>
<polygon fill="#9a32cd" stroke="#9a32cd" points="1552.09,-59.39 1542.04,-62.74 1551.98,-66.39 1552.09,-59.39"/>
<text text-anchor="middle" x="1625" y="-112.15" font-family="Helvetica,sans-Serif" font-size="10.00"> m_post_mgr</text>
</g>
<!-- Node18&#45;&gt;Node13 -->
<g id="edge22" class="edge">
<title>Node18&#45;&gt;Node13</title>
<path fill="none" stroke="#9a32cd" stroke-dasharray="5,2" d="M1932.96,-378.13C1899.99,-373.26 1861.93,-367.63 1831.72,-363.16"/>
<polygon fill="#9a32cd" stroke="#9a32cd" points="1932.62,-381.62 1943.02,-379.62 1933.64,-374.69 1932.62,-381.62"/>
<text text-anchor="middle" x="1893.5" y="-380.15" font-family="Helvetica,sans-Serif" font-size="10.00"> m_pde_mgr</text>
</g>
<!-- Node19 -->
<g id="node19" class="node">
<title>Node19</title>
<g id="a_node19"><a xlink:href="classamr__wind_1_1_coll_mgr.html" target="_top" xlink:title=" ">
<polygon fill="white" stroke="black" points="1210,-472.15 1210,-502.15 1329,-502.15 1329,-472.15 1210,-472.15"/>
<text text-anchor="start" x="1218" y="-490.15" font-family="Helvetica,sans-Serif" font-size="10.00">amr_wind::CollMgr&lt;</text>
<text text-anchor="middle" x="1269.5" y="-479.15" font-family="Helvetica,sans-Serif" font-size="10.00"> PDEMgr, PDEBase &gt;</text>
</a>
</g>
</g>
<!-- Node19&#45;&gt;Node18 -->
<g id="edge23" class="edge">
<title>Node19&#45;&gt;Node18</title>
<path fill="none" stroke="midnightblue" d="M1339.36,-493.53C1485.44,-505.97 1821.41,-528.38 1924,-482.15 1962.97,-464.59 1991.41,-418.98 2002.45,-398.89"/>
<polygon fill="midnightblue" stroke="midnightblue" points="1339.44,-490.03 1329.17,-492.66 1338.84,-497 1339.44,-490.03"/>
</g>
<!-- Node20 -->
<g id="node20" class="node">
<title>Node20</title>
<g id="a_node20"><a xlink:href="classamr__wind_1_1_coll_mgr.html" target="_top" xlink:title="Interface to manage objects of sub&#45;classes based on factory registration.">
<polygon fill="white" stroke="black" points="743,-458.65 743,-499.65 872,-499.65 872,-458.65 743,-458.65"/>
<text text-anchor="start" x="751" y="-487.65" font-family="Helvetica,sans-Serif" font-size="10.00">amr_wind::CollMgr&lt;</text>
<text text-anchor="start" x="751" y="-476.65" font-family="Helvetica,sans-Serif" font-size="10.00"> Collection, Type, allow</text>
<text text-anchor="middle" x="807.5" y="-465.65" font-family="Helvetica,sans-Serif" font-size="10.00">_duplicates &gt;</text>
</a>
</g>
</g>
<!-- Node20&#45;&gt;Node19 -->
<g id="edge24" class="edge">
<title>Node20&#45;&gt;Node19</title>
<path fill="none" stroke="orange" stroke-dasharray="5,2" d="M882.71,-480.44C973.82,-482.02 1126.46,-484.68 1209.81,-486.13"/>
<polygon fill="orange" stroke="orange" points="882.52,-476.94 872.46,-480.26 882.4,-483.93 882.52,-476.94"/>
<text text-anchor="middle" x="952" y="-485.15" font-family="Helvetica,sans-Serif" font-size="10.00"> &lt; PDEMgr, PDEBase &gt;</text>
</g>
<!-- Node29 -->
<g id="node29" class="node">
<title>Node29</title>
<g id="a_node29"><a xlink:href="classamr__wind_1_1_coll_mgr.html" target="_top" xlink:title=" ">
<polygon fill="white" stroke="black" points="1032,-413.15 1032,-443.15 1161,-443.15 1161,-413.15 1032,-413.15"/>
<text text-anchor="start" x="1040" y="-431.15" font-family="Helvetica,sans-Serif" font-size="10.00">amr_wind::CollMgr&lt;</text>
<text text-anchor="middle" x="1096.5" y="-420.15" font-family="Helvetica,sans-Serif" font-size="10.00"> PhysicsMgr, Physics &gt;</text>
</a>
</g>
</g>
<!-- Node20&#45;&gt;Node29 -->
<g id="edge44" class="edge">
<title>Node20&#45;&gt;Node29</title>
<path fill="none" stroke="orange" stroke-dasharray="5,2" d="M870.2,-455.5C876.82,-453.47 883.51,-451.63 890,-450.15 936.88,-439.46 990.98,-433.93 1031.91,-431.09"/>
<polygon fill="orange" stroke="orange" points="869.03,-452.19 860.57,-458.58 871.16,-458.86 869.03,-452.19"/>
<text text-anchor="middle" x="952" y="-453.15" font-family="Helvetica,sans-Serif" font-size="10.00"> &lt; PhysicsMgr, Physics &gt;</text>
</g>
<!-- Node21&#45;&gt;Node20 -->
<g id="edge25" class="edge">
<title>Node21&#45;&gt;Node20</title>
<path fill="none" stroke="#9a32cd" stroke-dasharray="5,2" d="M593.5,-479.15C638.63,-479.15 697.97,-479.15 742.55,-479.15"/>
<polygon fill="#9a32cd" stroke="#9a32cd" points="593.22,-475.65 583.22,-479.15 593.22,-482.65 593.22,-475.65"/>
<text text-anchor="middle" x="665" y="-482.15" font-family="Helvetica,sans-Serif" font-size="10.00"> m_obj_map</text>
</g>
<!-- Node22&#45;&gt;Node18 -->
<g id="edge30" class="edge">
<title>Node22&#45;&gt;Node18</title>
<path fill="none" stroke="#9a32cd" stroke-dasharray="5,2" d="M1689.73,-59.98C1689.82,-60.04 1689.91,-60.09 1690,-60.15 1841.3,-153.55 1970.91,-335.39 2000.95,-379.39"/>
<polygon fill="#9a32cd" stroke="#9a32cd" points="1691.41,-56.91 1680.95,-55.25 1688.09,-63.08 1691.41,-56.91"/>
<text text-anchor="middle" x="1776.5" y="-188.15" font-family="Helvetica,sans-Serif" font-size="10.00"> m_icns</text>
</g>
<!-- Node23 -->
<g id="node23" class="node">
<title>Node23</title>
<g id="a_node23"><a xlink:href="classamr__wind_1_1_sim_time.html" target="_top" xlink:title="Time manager for simulations.">
<polygon fill="white" stroke="black" points="1403,-448.65 1403,-467.65 1517,-467.65 1517,-448.65 1403,-448.65"/>
<text text-anchor="middle" x="1460" y="-455.65" font-family="Helvetica,sans-Serif" font-size="10.00">amr_wind::SimTime</text>
</a>
</g>
</g>
<!-- Node23&#45;&gt;Node13 -->
<g id="edge32" class="edge">
<title>Node23&#45;&gt;Node13</title>
<path fill="none" stroke="#9a32cd" stroke-dasharray="5,2" d="M1527.49,-457.46C1574.62,-454.82 1638.39,-446.78 1690,-424.15 1722.14,-410.06 1752.25,-380.58 1766.64,-365.11"/>
<polygon fill="#9a32cd" stroke="#9a32cd" points="1527.21,-453.97 1517.39,-457.96 1527.55,-460.96 1527.21,-453.97"/>
<text text-anchor="middle" x="1625" y="-458.15" font-family="Helvetica,sans-Serif" font-size="10.00"> m_time</text>
</g>
<!-- Node24&#45;&gt;Node13 -->
<g id="edge33" class="edge">
<title>Node24&#45;&gt;Node13</title>
<path fill="none" stroke="#9a32cd" stroke-dasharray="5,2" d="M1541.85,-289.43C1586.1,-296.57 1641.61,-307.13 1690,-321.15 1712.71,-327.73 1737.74,-338.06 1754.81,-345.61"/>
<polygon fill="#9a32cd" stroke="#9a32cd" points="1542.15,-285.93 1531.73,-287.82 1541.05,-292.84 1542.15,-285.93"/>
<text text-anchor="middle" x="1625" y="-324.15" font-family="Helvetica,sans-Serif" font-size="10.00"> m_overset_mgr</text>
</g>
<!-- Node25&#45;&gt;Node13 -->
<g id="edge35" class="edge">
<title>Node25&#45;&gt;Node13</title>
<path fill="none" stroke="#9a32cd" stroke-dasharray="5,2" d="M1550.79,-123.11C1596.66,-126.42 1650.9,-137.56 1690,-168.15 1705.43,-180.22 1757.26,-309.07 1771.72,-345.56"/>
<polygon fill="#9a32cd" stroke="#9a32cd" points="1550.73,-119.6 1540.53,-122.49 1550.3,-126.59 1550.73,-119.6"/>
<text text-anchor="middle" x="1625" y="-171.15" font-family="Helvetica,sans-Serif" font-size="10.00"> m_turbulence</text>
</g>
<!-- Node26&#45;&gt;Node13 -->
<g id="edge38" class="edge">
<title>Node26&#45;&gt;Node13</title>
<path fill="none" stroke="#9a32cd" stroke-dasharray="5,2" d="M1530.38,-234.54C1577.49,-240.42 1640.07,-252.66 1690,-278.15 1723.63,-295.31 1754.2,-329.1 1767.91,-345.61"/>
<polygon fill="#9a32cd" stroke="#9a32cd" points="1530.61,-231.04 1520.27,-233.35 1529.79,-237.99 1530.61,-231.04"/>
<text text-anchor="middle" x="1625" y="-281.15" font-family="Helvetica,sans-Serif" font-size="10.00"> m_mesh_map</text>
</g>
<!-- Node27&#45;&gt;Node13 -->
<g id="edge40" class="edge">
<title>Node27&#45;&gt;Node13</title>
<path fill="none" stroke="#9a32cd" stroke-dasharray="5,2" d="M1534.06,-180.25C1582,-183.56 1644.08,-194.3 1690,-225.15 1735.97,-256.03 1763.14,-320.82 1772.15,-345.4"/>
<polygon fill="#9a32cd" stroke="#9a32cd" points="1534.25,-176.75 1524.06,-179.65 1533.83,-183.74 1534.25,-176.75"/>
<text text-anchor="middle" x="1625" y="-228.15" font-family="Helvetica,sans-Serif" font-size="10.00"> m_ext_solver_mgr</text>
</g>
<!-- Node28 -->
<g id="node28" class="node">
<title>Node28</title>
<g id="a_node28"><a xlink:href="classamr__wind_1_1_physics_mgr.html" target="_top" xlink:title="A collection of Physics models instances that are active during a simulation.">
<polygon fill="white" stroke="black" points="1397,-410.65 1397,-429.65 1523,-429.65 1523,-410.65 1397,-410.65"/>
<text text-anchor="middle" x="1460" y="-417.65" font-family="Helvetica,sans-Serif" font-size="10.00">amr_wind::PhysicsMgr</text>
</a>
</g>
</g>
<!-- Node28&#45;&gt;Node13 -->
<g id="edge42" class="edge">
<title>Node28&#45;&gt;Node13</title>
<path fill="none" stroke="#9a32cd" stroke-dasharray="5,2" d="M1533.39,-412.58C1578.79,-406.97 1638.3,-398.05 1690,-385.15 1711.37,-379.82 1734.94,-371.34 1751.91,-364.76"/>
<polygon fill="#9a32cd" stroke="#9a32cd" points="1532.84,-409.12 1523.34,-413.79 1533.68,-416.07 1532.84,-409.12"/>
<text text-anchor="middle" x="1625" y="-412.15" font-family="Helvetica,sans-Serif" font-size="10.00"> m_physics_mgr</text>
</g>
<!-- Node29&#45;&gt;Node28 -->
<g id="edge43" class="edge">
<title>Node29&#45;&gt;Node28</title>
<path fill="none" stroke="midnightblue" d="M1171.69,-426.51C1238.07,-425.04 1334.29,-422.91 1396.75,-421.53"/>
<polygon fill="midnightblue" stroke="midnightblue" points="1171.22,-423.02 1161.3,-426.74 1171.37,-430.02 1171.22,-423.02"/>
</g>
</g>
</svg>
        <g id="navigator" transform="translate(0 0)" fill="#404254">
                <rect fill="#f2f5e9" fill-opacity="0.5" stroke="#606060" stroke-width=".5" x="0" y="0" width="60" height="60"/>
                <use id="zoomplus" xlink:href="#zoomPlus" x="17" y="9" onmousedown="handleZoom(evt,'in')"/>
                <use id="zoomminus" xlink:href="#zoomMin" x="42" y="9" onmousedown="handleZoom(evt,'out')"/>
                <use id="reset" xlink:href="#resetDef" x="30" y="36" onmousedown="handleReset()"/>
                <g id="arrowUp" xlink:href="#dirArrow" transform="translate(30 24)" onmousedown="handlePan(0,-1)">
                  <use xlink:href="#rim" fill="#404040">
                        <set attributeName="fill" to="#808080" begin="arrowUp.mouseover" end="arrowUp.mouseout"/>
                  </use>
                  <path fill="none" stroke="white" stroke-width="1.5" d="M0,-3.0v7 M-2.5,-0.5L0,-3.0L2.5,-0.5"/>
                </g>
                <g id="arrowRight" xlink:href="#dirArrow" transform="rotate(90) translate(36 -43)" onmousedown="handlePan(1,0)">
                  <use xlink:href="#rim" fill="#404040">
                        <set attributeName="fill" to="#808080" begin="arrowRight.mouseover" end="arrowRight.mouseout"/>
                  </use>
                  <path fill="none" stroke="white" stroke-width="1.5" d="M0,-3.0v7 M-2.5,-0.5L0,-3.0L2.5,-0.5"/>
                </g>
                <g id="arrowDown" xlink:href="#dirArrow" transform="rotate(180) translate(-30 -48)" onmousedown="handlePan(0,1)">
                  <use xlink:href="#rim" fill="#404040">
                        <set attributeName="fill" to="#808080" begin="arrowDown.mouseover" end="arrowDown.mouseout"/>
                  </use>
                  <path fill="none" stroke="white" stroke-width="1.5" d="M0,-3.0v7 M-2.5,-0.5L0,-3.0L2.5,-0.5"/>
                </g>
                <g id="arrowLeft" xlink:href="#dirArrow" transform="rotate(270) translate(-36 17)" onmousedown="handlePan(-1,0)">
                  <use xlink:href="#rim" fill="#404040">
                        <set attributeName="fill" to="#808080" begin="arrowLeft.mouseover" end="arrowLeft.mouseout"/>
                  </use>
                  <path fill="none" stroke="white" stroke-width="1.5" d="M0,-3.0v7 M-2.5,-0.5L0,-3.0L2.5,-0.5"/>
                </g>
        </g>
        <svg viewBox="0 0 15 15" width="100%" height="30px" preserveAspectRatio="xMaxYMin meet">
         <g id="arrow_out" transform="scale(0.3 0.3)">
          <a xlink:href="classamr__wind_1_1sampling_1_1_free_surface_sampler__coll__graph_org.svg" target="_base">
           <rect id="button" ry="5" rx="5" y="6" x="6" height="38" width="38"
                fill="#f2f5e9" fill-opacity="0.5" stroke="#606060" stroke-width="1.0"/>
           <path id="arrow"
             d="M 11.500037,31.436501 C 11.940474,20.09759 22.043105,11.32322 32.158766,21.979434 L 37.068811,17.246167 C 37.068811,17.246167 37.088388,32 37.088388,32 L 22.160133,31.978069 C 22.160133,31.978069 26.997745,27.140456 26.997745,27.140456 C 18.528582,18.264221 13.291696,25.230495 11.500037,31.436501 z"
             style="fill:#404040;"/>
          </a>
         </g>
        </svg>
</svg>
