<?xml version="1.0" encoding="UTF-8" standalone="no"?>
<!DOCTYPE svg PUBLIC "-//W3C//DTD SVG 1.1//EN"
 "http://www.w3.org/Graphics/SVG/1.1/DTD/svg11.dtd">
<!-- Generated by graphviz version 2.43.0 (0)
 -->
<!-- Title: amr_wind::FieldBCIface Pages: 1 -->
<svg width="351pt" height="180pt"
 viewBox="0.00 0.00 351.00 180.00" xmlns="http://www.w3.org/2000/svg" xmlns:xlink="http://www.w3.org/1999/xlink">
<g id="graph0" class="graph" transform="scale(1 1) rotate(0) translate(4 176)">
<title>amr_wind::FieldBCIface</title>
<polygon fill="white" stroke="transparent" points="-4,4 -4,-176 347,-176 347,4 -4,4"/>
<!-- Node1 -->
<g id="node1" class="node">
<title>Node1</title>
<g id="a_node1"><a xlink:title="Interface to setup up boundary conditions on a field.">
<polygon fill="#bfbfbf" stroke="black" points="0,-76.5 0,-95.5 131,-95.5 131,-76.5 0,-76.5"/>
<text text-anchor="middle" x="65.5" y="-83.5" font-family="Helvetica,sans-Serif" font-size="10.00">amr_wind::FieldBCIface</text>
</a>
</g>
</g>
<!-- Node2 -->
<g id="node2" class="node">
<title>Node2</title>
<g id="a_node2"><a xlink:href="classamr__wind_1_1_a_b_l_temp_wall_func.html" target="_top" xlink:title=" ">
<polygon fill="white" stroke="black" points="176,-152.5 176,-171.5 334,-171.5 334,-152.5 176,-152.5"/>
<text text-anchor="middle" x="255" y="-159.5" font-family="Helvetica,sans-Serif" font-size="10.00">amr_wind::ABLTempWallFunc</text>
</a>
</g>
</g>
<!-- Node1&#45;&gt;Node2 -->
<g id="edge1" class="edge">
<title>Node1&#45;&gt;Node2</title>
<path fill="none" stroke="midnightblue" d="M88.71,-101.2C108.46,-114.07 138.54,-132.11 167,-143 176.96,-146.81 187.88,-149.95 198.5,-152.5"/>
<polygon fill="midnightblue" stroke="midnightblue" points="90.42,-98.13 80.15,-95.52 86.55,-103.97 90.42,-98.13"/>
</g>
<!-- Node3 -->
<g id="node3" class="node">
<title>Node3</title>
<g id="a_node3"><a xlink:href="classamr__wind_1_1_a_b_l_vel_wall_func.html" target="_top" xlink:title="Applies a shear&#45;stress value at the domain boundary.">
<polygon fill="white" stroke="black" points="181.5,-114.5 181.5,-133.5 328.5,-133.5 328.5,-114.5 181.5,-114.5"/>
<text text-anchor="middle" x="255" y="-121.5" font-family="Helvetica,sans-Serif" font-size="10.00">amr_wind::ABLVelWallFunc</text>
</a>
</g>
</g>
<!-- Node1&#45;&gt;Node3 -->
<g id="edge2" class="edge">
<title>Node1&#45;&gt;Node3</title>
<path fill="none" stroke="midnightblue" d="M123.78,-97.61C150.45,-103.01 181.78,-109.36 207.03,-114.48"/>
<polygon fill="midnightblue" stroke="midnightblue" points="124.31,-94.15 113.81,-95.59 122.92,-101.01 124.31,-94.15"/>
</g>
<!-- Node4 -->
<g id="node4" class="node">
<title>Node4</title>
<g id="a_node4"><a xlink:href="classamr__wind_1_1_fixed_gradient_b_c.html" target="_top" xlink:title="Applies a non&#45;zero gradient at the domain boundary.">
<polygon fill="white" stroke="black" points="179,-76.5 179,-95.5 331,-95.5 331,-76.5 179,-76.5"/>
<text text-anchor="middle" x="255" y="-83.5" font-family="Helvetica,sans-Serif" font-size="10.00">amr_wind::FixedGradientBC</text>
</a>
</g>
</g>
<!-- Node1&#45;&gt;Node4 -->
<g id="edge3" class="edge">
<title>Node1&#45;&gt;Node4</title>
<path fill="none" stroke="midnightblue" d="M141.25,-86C153.58,-86 166.37,-86 178.71,-86"/>
<polygon fill="midnightblue" stroke="midnightblue" points="141.03,-82.5 131.03,-86 141.03,-89.5 141.03,-82.5"/>
</g>
<!-- Node5 -->
<g id="node5" class="node">
<title>Node5</title>
<g id="a_node5"><a xlink:href="classamr__wind_1_1_mass_inflow_outflow_b_c.html" target="_top" xlink:title="Custom Neumann fills for the inflow&#45;outflow BC.">
<polygon fill="white" stroke="black" points="167,-38.5 167,-57.5 343,-57.5 343,-38.5 167,-38.5"/>
<text text-anchor="middle" x="255" y="-45.5" font-family="Helvetica,sans-Serif" font-size="10.00">amr_wind::MassInflowOutflowBC</text>
</a>
</g>
</g>
<!-- Node1&#45;&gt;Node5 -->
<g id="edge4" class="edge">
<title>Node1&#45;&gt;Node5</title>
<path fill="none" stroke="midnightblue" d="M123.78,-74.39C150.45,-68.99 181.78,-62.64 207.03,-57.52"/>
<polygon fill="midnightblue" stroke="midnightblue" points="122.92,-70.99 113.81,-76.41 124.31,-77.85 122.92,-70.99"/>
</g>
<!-- Node6 -->
<g id="node6" class="node">
<title>Node6</title>
<g id="a_node6"><a xlink:href="classamr__wind_1_1_vel_wall_func.html" target="_top" xlink:title="Applies a shear&#45;stress value at the domain boundary.">
<polygon fill="white" stroke="black" points="190.5,-0.5 190.5,-19.5 319.5,-19.5 319.5,-0.5 190.5,-0.5"/>
<text text-anchor="middle" x="255" y="-7.5" font-family="Helvetica,sans-Serif" font-size="10.00">amr_wind::VelWallFunc</text>
</a>
</g>
</g>
<!-- Node1&#45;&gt;Node6 -->
<g id="edge5" class="edge">
<title>Node1&#45;&gt;Node6</title>
<path fill="none" stroke="midnightblue" d="M88.71,-70.8C108.46,-57.93 138.54,-39.89 167,-29 176.96,-25.19 187.88,-22.05 198.5,-19.5"/>
<polygon fill="midnightblue" stroke="midnightblue" points="86.55,-68.03 80.15,-76.48 90.42,-73.87 86.55,-68.03"/>
</g>
</g>
</svg>
