<?xml version="1.0" encoding="UTF-8" standalone="no"?>
<!DOCTYPE svg PUBLIC "-//W3C//DTD SVG 1.1//EN"
 "http://www.w3.org/Graphics/SVG/1.1/DTD/svg11.dtd">
<!-- Generated by graphviz version 2.43.0 (0)
 -->
<!-- Title: diffusion.H Pages: 1 -->
<!--zoomable 308 -->
<svg id="main" version="1.1" xmlns="http://www.w3.org/2000/svg" xmlns:xlink="http://www.w3.org/1999/xlink" xml:space="preserve" onload="init(evt)">
<style type="text/css"><![CDATA[
.edge:hover path { stroke: red; }
.edge:hover polygon { stroke: red; fill: red; }
]]></style>
<script type="text/javascript"><![CDATA[
var edges = document.getElementsByTagName('g');
if (edges && edges.length) {
  for (var i=0;i<edges.length;i++) {
    if (edges[i].id.substr(0,4)=='edge') {
      edges[i].setAttribute('class','edge');
    }
  }
}
]]></script>
        <defs>
                <circle id="rim" cx="0" cy="0" r="7"/>
                <circle id="rim2" cx="0" cy="0" r="3.5"/>
                <g id="zoomPlus">
                        <use xlink:href="#rim" fill="#404040">
                                <set attributeName="fill" to="#808080" begin="zoomplus.mouseover" end="zoomplus.mouseout"/>
                        </use>
                        <path d="M-4,0h8M0,-4v8" fill="none" stroke="white" stroke-width="1.5" pointer-events="none"/>
                </g>
                <g id="zoomMin">
                        <use xlink:href="#rim" fill="#404040">
                                <set attributeName="fill" to="#808080" begin="zoomminus.mouseover" end="zoomminus.mouseout"/>
                        </use>
                        <path d="M-4,0h8" fill="none" stroke="white" stroke-width="1.5" pointer-events="none"/>
                </g>
                <g id="dirArrow">
                        <path fill="none" stroke="white" stroke-width="1.5" d="M0,-3.0v7 M-2.5,-0.5L0,-3.0L2.5,-0.5"/>
                </g>
               <g id="resetDef">
                       <use xlink:href="#rim2" fill="#404040">
                               <set attributeName="fill" to="#808080" begin="reset.mouseover" end="reset.mouseout"/>
                       </use>
               </g>
        </defs>

<script type="text/javascript">
var viewWidth = 2864;
var viewHeight = 308;
var sectionId = 'dynsection-1';
</script>
<script xlink:href="svgpan.js"/>
<svg id="graph" class="graph">
<g id="viewport">
<title>diffusion.H</title>
<polygon fill="white" stroke="transparent" points="-4,4 -4,-304 2860,-304 2860,4 -4,4"/>
<!-- Node1 -->
<g id="node1" class="node">
<title>Node1</title>
<g id="a_node1"><a xlink:title=" ">
<polygon fill="#bfbfbf" stroke="black" points="197,-280.5 197,-299.5 266,-299.5 266,-280.5 197,-280.5"/>
<text text-anchor="middle" x="231.5" y="-287.5" font-family="Helvetica,sans-Serif" font-size="10.00">diffusion.H</text>
</a>
</g>
</g>
<!-- Node2 -->
<g id="node2" class="node">
<title>Node2</title>
<g id="a_node2"><a xlink:href="_wall_function_8cpp.html" target="_top" xlink:title=" ">
<polygon fill="white" stroke="black" points="0,-224.5 0,-243.5 99,-243.5 99,-224.5 0,-224.5"/>
<text text-anchor="middle" x="49.5" y="-231.5" font-family="Helvetica,sans-Serif" font-size="10.00">WallFunction.cpp</text>
</a>
</g>
</g>
<!-- Node1&#45;&gt;Node2 -->
<g id="edge1" class="edge">
<title>Node1&#45;&gt;Node2</title>
<path fill="none" stroke="midnightblue" d="M192.97,-277.57C158.64,-267.38 109.17,-252.7 78.2,-243.52"/>
<polygon fill="midnightblue" stroke="midnightblue" points="192.08,-280.95 202.66,-280.44 194.07,-274.24 192.08,-280.95"/>
</g>
<!-- Node3 -->
<g id="node3" class="node">
<title>Node3</title>
<g id="a_node3"><a xlink:href="incflo__diffusion_8cpp.html" target="_top" xlink:title=" ">
<polygon fill="white" stroke="black" points="117.5,-224.5 117.5,-243.5 227.5,-243.5 227.5,-224.5 117.5,-224.5"/>
<text text-anchor="middle" x="172.5" y="-231.5" font-family="Helvetica,sans-Serif" font-size="10.00">incflo_diffusion.cpp</text>
</a>
</g>
</g>
<!-- Node1&#45;&gt;Node3 -->
<g id="edge2" class="edge">
<title>Node1&#45;&gt;Node3</title>
<path fill="none" stroke="midnightblue" d="M214.61,-273.54C204.09,-263.91 190.93,-251.87 182.15,-243.83"/>
<polygon fill="midnightblue" stroke="midnightblue" points="212.28,-276.15 222.02,-280.32 217.01,-270.99 212.28,-276.15"/>
</g>
<!-- Node4 -->
<g id="node4" class="node">
<title>Node4</title>
<g id="a_node4"><a xlink:href="_diffusion_ops_8_h.html" target="_top" xlink:title=" ">
<polygon fill="white" stroke="black" points="246,-224.5 246,-243.5 335,-243.5 335,-224.5 246,-224.5"/>
<text text-anchor="middle" x="290.5" y="-231.5" font-family="Helvetica,sans-Serif" font-size="10.00">DiffusionOps.H</text>
</a>
</g>
</g>
<!-- Node1&#45;&gt;Node4 -->
<g id="edge3" class="edge">
<title>Node1&#45;&gt;Node4</title>
<path fill="none" stroke="midnightblue" d="M248.39,-273.54C258.91,-263.91 272.07,-251.87 280.85,-243.83"/>
<polygon fill="midnightblue" stroke="midnightblue" points="245.99,-270.99 240.98,-280.32 250.72,-276.15 245.99,-270.99"/>
</g>
<!-- Node46 -->
<g id="node46" class="node">
<title>Node46</title>
<g id="a_node46"><a xlink:href="_a_b_l_wall_function_8cpp.html" target="_top" xlink:title=" ">
<polygon fill="white" stroke="black" points="353,-224.5 353,-243.5 470,-243.5 470,-224.5 353,-224.5"/>
<text text-anchor="middle" x="411.5" y="-231.5" font-family="Helvetica,sans-Serif" font-size="10.00">ABLWallFunction.cpp</text>
</a>
</g>
</g>
<!-- Node1&#45;&gt;Node46 -->
<g id="edge63" class="edge">
<title>Node1&#45;&gt;Node46</title>
<path fill="none" stroke="midnightblue" d="M269.61,-277.57C303.56,-267.38 352.49,-252.7 383.11,-243.52"/>
<polygon fill="midnightblue" stroke="midnightblue" points="268.59,-274.22 260.02,-280.44 270.61,-280.92 268.59,-274.22"/>
</g>
<!-- Node5 -->
<g id="node5" class="node">
<title>Node5</title>
<g id="a_node5"><a xlink:href="_diffusion_ops_8cpp.html" target="_top" xlink:title=" ">
<polygon fill="white" stroke="black" points="144,-168.5 144,-187.5 243,-187.5 243,-168.5 144,-168.5"/>
<text text-anchor="middle" x="193.5" y="-175.5" font-family="Helvetica,sans-Serif" font-size="10.00">DiffusionOps.cpp</text>
</a>
</g>
</g>
<!-- Node4&#45;&gt;Node5 -->
<g id="edge4" class="edge">
<title>Node4&#45;&gt;Node5</title>
<path fill="none" stroke="midnightblue" d="M266.16,-219.45C248.26,-209.48 224.45,-196.23 209.05,-187.65"/>
<polygon fill="midnightblue" stroke="midnightblue" points="264.48,-222.52 274.92,-224.32 267.88,-216.4 264.48,-222.52"/>
</g>
<!-- Node6 -->
<g id="node6" class="node">
<title>Node6</title>
<g id="a_node6"><a xlink:href="icns__diffusion_8_h.html" target="_top" xlink:title=" ">
<polygon fill="white" stroke="black" points="162.5,-56.5 162.5,-75.5 256.5,-75.5 256.5,-56.5 162.5,-56.5"/>
<text text-anchor="middle" x="209.5" y="-63.5" font-family="Helvetica,sans-Serif" font-size="10.00">icns_diffusion.H</text>
</a>
</g>
</g>
<!-- Node4&#45;&gt;Node6 -->
<g id="edge5" class="edge">
<title>Node4&#45;&gt;Node6</title>
<path fill="none" stroke="midnightblue" d="M281.65,-214.86C264.27,-179.25 226.31,-101.45 213.68,-75.57"/>
<polygon fill="midnightblue" stroke="midnightblue" points="278.61,-216.62 286.15,-224.08 284.91,-213.55 278.61,-216.62"/>
</g>
<!-- Node8 -->
<g id="node8" class="node">
<title>Node8</title>
<g id="a_node8"><a xlink:href="icns__ops_8_h.html" target="_top" xlink:title=" ">
<polygon fill="white" stroke="black" points="275,-56.5 275,-75.5 344,-75.5 344,-56.5 275,-56.5"/>
<text text-anchor="middle" x="309.5" y="-63.5" font-family="Helvetica,sans-Serif" font-size="10.00">icns_ops.H</text>
</a>
</g>
</g>
<!-- Node4&#45;&gt;Node8 -->
<g id="edge7" class="edge">
<title>Node4&#45;&gt;Node8</title>
<path fill="none" stroke="midnightblue" d="M292.68,-213.93C296.8,-177.92 305.58,-101.23 308.52,-75.57"/>
<polygon fill="midnightblue" stroke="midnightblue" points="289.18,-213.74 291.52,-224.08 296.14,-214.54 289.18,-213.74"/>
</g>
<!-- Node9 -->
<g id="node9" class="node">
<title>Node9</title>
<g id="a_node9"><a xlink:href="_p_d_e_8_h.html" target="_top" xlink:title=" ">
<polygon fill="white" stroke="black" points="1626,-168.5 1626,-187.5 1673,-187.5 1673,-168.5 1626,-168.5"/>
<text text-anchor="middle" x="1649.5" y="-175.5" font-family="Helvetica,sans-Serif" font-size="10.00">PDE.H</text>
</a>
</g>
</g>
<!-- Node4&#45;&gt;Node9 -->
<g id="edge9" class="edge">
<title>Node4&#45;&gt;Node9</title>
<path fill="none" stroke="midnightblue" d="M345.45,-223.96C627.33,-196.91 1473.57,-181.9 1625.89,-179.38"/>
<polygon fill="midnightblue" stroke="midnightblue" points="344.87,-220.5 335.26,-224.97 345.56,-227.46 344.87,-220.5"/>
</g>
<!-- Node7 -->
<g id="node7" class="node">
<title>Node7</title>
<g id="a_node7"><a xlink:href="icns_8cpp.html" target="_top" xlink:title=" ">
<polygon fill="white" stroke="black" points="344.5,-0.5 344.5,-19.5 400.5,-19.5 400.5,-0.5 344.5,-0.5"/>
<text text-anchor="middle" x="372.5" y="-7.5" font-family="Helvetica,sans-Serif" font-size="10.00">icns.cpp</text>
</a>
</g>
</g>
<!-- Node6&#45;&gt;Node7 -->
<g id="edge6" class="edge">
<title>Node6&#45;&gt;Node7</title>
<path fill="none" stroke="midnightblue" d="M245.2,-53.17C275.9,-43 319.42,-28.59 346.79,-19.52"/>
<polygon fill="midnightblue" stroke="midnightblue" points="243.72,-49.98 235.33,-56.44 245.92,-56.62 243.72,-49.98"/>
</g>
<!-- Node8&#45;&gt;Node7 -->
<g id="edge8" class="edge">
<title>Node8&#45;&gt;Node7</title>
<path fill="none" stroke="midnightblue" d="M327.54,-49.54C338.77,-39.91 352.82,-27.87 362.19,-19.83"/>
<polygon fill="midnightblue" stroke="midnightblue" points="324.94,-47.16 319.62,-56.32 329.49,-52.47 324.94,-47.16"/>
</g>
<!-- Node10 -->
<g id="node10" class="node">
<title>Node10</title>
<g id="a_node10"><a xlink:href="density_8_h.html" target="_top" xlink:title=" ">
<polygon fill="white" stroke="black" points="1357.5,-112.5 1357.5,-131.5 1419.5,-131.5 1419.5,-112.5 1357.5,-112.5"/>
<text text-anchor="middle" x="1388.5" y="-119.5" font-family="Helvetica,sans-Serif" font-size="10.00">density.H</text>
</a>
</g>
</g>
<!-- Node9&#45;&gt;Node10 -->
<g id="edge10" class="edge">
<title>Node9&#45;&gt;Node10</title>
<path fill="none" stroke="midnightblue" d="M1616.05,-170.08C1565.26,-159.57 1469.38,-139.73 1419.86,-129.49"/>
<polygon fill="midnightblue" stroke="midnightblue" points="1615.38,-173.51 1625.88,-172.11 1616.79,-166.66 1615.38,-173.51"/>
</g>
<!-- Node13 -->
<g id="node13" class="node">
<title>Node13</title>
<g id="a_node13"><a xlink:href="icns_8_h.html" target="_top" xlink:title=" ">
<polygon fill="white" stroke="black" points="695,-112.5 695,-131.5 742,-131.5 742,-112.5 695,-112.5"/>
<text text-anchor="middle" x="718.5" y="-119.5" font-family="Helvetica,sans-Serif" font-size="10.00">icns.H</text>
</a>
</g>
</g>
<!-- Node9&#45;&gt;Node13 -->
<g id="edge14" class="edge">
<title>Node9&#45;&gt;Node13</title>
<path fill="none" stroke="midnightblue" d="M1615.14,-175.01C1465.07,-166.3 869.07,-131.73 742.29,-124.38"/>
<polygon fill="midnightblue" stroke="midnightblue" points="1615.36,-178.53 1625.55,-175.61 1615.77,-171.54 1615.36,-178.53"/>
</g>
<!-- Node23 -->
<g id="node23" class="node">
<title>Node23</title>
<g id="a_node23"><a xlink:href="levelset_8_h.html" target="_top" xlink:title=" ">
<polygon fill="white" stroke="black" points="1499.5,-112.5 1499.5,-131.5 1565.5,-131.5 1565.5,-112.5 1499.5,-112.5"/>
<text text-anchor="middle" x="1532.5" y="-119.5" font-family="Helvetica,sans-Serif" font-size="10.00">levelset.H</text>
</a>
</g>
</g>
<!-- Node9&#45;&gt;Node23 -->
<g id="edge29" class="edge">
<title>Node9&#45;&gt;Node23</title>
<path fill="none" stroke="midnightblue" d="M1621.84,-164.23C1599.95,-154.13 1570,-140.31 1550.95,-131.52"/>
<polygon fill="midnightblue" stroke="midnightblue" points="1620.41,-167.43 1630.96,-168.44 1623.35,-161.08 1620.41,-167.43"/>
</g>
<!-- Node26 -->
<g id="node26" class="node">
<title>Node26</title>
<g id="a_node26"><a xlink:href="passive__scalar_8_h.html" target="_top" xlink:title=" ">
<polygon fill="white" stroke="black" points="1600.5,-112.5 1600.5,-131.5 1698.5,-131.5 1698.5,-112.5 1600.5,-112.5"/>
<text text-anchor="middle" x="1649.5" y="-119.5" font-family="Helvetica,sans-Serif" font-size="10.00">passive_scalar.H</text>
</a>
</g>
</g>
<!-- Node9&#45;&gt;Node26 -->
<g id="edge33" class="edge">
<title>Node9&#45;&gt;Node26</title>
<path fill="none" stroke="midnightblue" d="M1649.5,-157.8C1649.5,-148.91 1649.5,-138.78 1649.5,-131.75"/>
<polygon fill="midnightblue" stroke="midnightblue" points="1646,-158.08 1649.5,-168.08 1653,-158.08 1646,-158.08"/>
</g>
<!-- Node28 -->
<g id="node28" class="node">
<title>Node28</title>
<g id="a_node28"><a xlink:href="_s_d_r_8_h.html" target="_top" xlink:title=" ">
<polygon fill="white" stroke="black" points="1799,-112.5 1799,-131.5 1846,-131.5 1846,-112.5 1799,-112.5"/>
<text text-anchor="middle" x="1822.5" y="-119.5" font-family="Helvetica,sans-Serif" font-size="10.00">SDR.H</text>
</a>
</g>
</g>
<!-- Node9&#45;&gt;Node28 -->
<g id="edge35" class="edge">
<title>Node9&#45;&gt;Node28</title>
<path fill="none" stroke="midnightblue" d="M1683.14,-166.5C1717.16,-155.88 1768.88,-139.74 1798.82,-130.39"/>
<polygon fill="midnightblue" stroke="midnightblue" points="1681.7,-163.28 1673.19,-169.6 1683.78,-169.97 1681.7,-163.28"/>
</g>
<!-- Node34 -->
<g id="node34" class="node">
<title>Node34</title>
<g id="a_node34"><a xlink:href="temperature_8_h.html" target="_top" xlink:title=" ">
<polygon fill="white" stroke="black" points="2287.5,-112.5 2287.5,-131.5 2375.5,-131.5 2375.5,-112.5 2287.5,-112.5"/>
<text text-anchor="middle" x="2331.5" y="-119.5" font-family="Helvetica,sans-Serif" font-size="10.00">temperature.H</text>
</a>
</g>
</g>
<!-- Node9&#45;&gt;Node34 -->
<g id="edge44" class="edge">
<title>Node9&#45;&gt;Node34</title>
<path fill="none" stroke="midnightblue" d="M1683.53,-174.31C1796.7,-165.35 2160.44,-136.54 2287.33,-126.5"/>
<polygon fill="midnightblue" stroke="midnightblue" points="1683.07,-170.83 1673.37,-175.11 1683.62,-177.81 1683.07,-170.83"/>
</g>
<!-- Node36 -->
<g id="node36" class="node">
<title>Node36</title>
<g id="a_node36"><a xlink:href="_t_k_e_8_h.html" target="_top" xlink:title=" ">
<polygon fill="white" stroke="black" points="2071.5,-112.5 2071.5,-131.5 2117.5,-131.5 2117.5,-112.5 2071.5,-112.5"/>
<text text-anchor="middle" x="2094.5" y="-119.5" font-family="Helvetica,sans-Serif" font-size="10.00">TKE.H</text>
</a>
</g>
</g>
<!-- Node9&#45;&gt;Node36 -->
<g id="edge46" class="edge">
<title>Node9&#45;&gt;Node36</title>
<path fill="none" stroke="midnightblue" d="M1683.18,-172.91C1769.7,-162.41 1998.14,-134.69 2071.48,-125.79"/>
<polygon fill="midnightblue" stroke="midnightblue" points="1682.62,-169.46 1673.11,-174.13 1683.46,-176.4 1682.62,-169.46"/>
</g>
<!-- Node41 -->
<g id="node41" class="node">
<title>Node41</title>
<g id="a_node41"><a xlink:href="vof_8_h.html" target="_top" xlink:title=" ">
<polygon fill="white" stroke="black" points="2614.5,-112.5 2614.5,-131.5 2656.5,-131.5 2656.5,-112.5 2614.5,-112.5"/>
<text text-anchor="middle" x="2635.5" y="-119.5" font-family="Helvetica,sans-Serif" font-size="10.00">vof.H</text>
</a>
</g>
</g>
<!-- Node9&#45;&gt;Node41 -->
<g id="edge55" class="edge">
<title>Node9&#45;&gt;Node41</title>
<path fill="none" stroke="midnightblue" d="M1683.84,-175.12C1840.97,-166.51 2489.23,-131.01 2614.49,-124.15"/>
<polygon fill="midnightblue" stroke="midnightblue" points="1683.18,-171.65 1673.38,-175.69 1683.56,-178.64 1683.18,-171.65"/>
</g>
<!-- Node11 -->
<g id="node11" class="node">
<title>Node11</title>
<g id="a_node11"><a xlink:href="density_8cpp.html" target="_top" xlink:title=" ">
<polygon fill="white" stroke="black" points="1307,-0.5 1307,-19.5 1378,-19.5 1378,-0.5 1307,-0.5"/>
<text text-anchor="middle" x="1342.5" y="-7.5" font-family="Helvetica,sans-Serif" font-size="10.00">density.cpp</text>
</a>
</g>
</g>
<!-- Node10&#45;&gt;Node11 -->
<g id="edge11" class="edge">
<title>Node10&#45;&gt;Node11</title>
<path fill="none" stroke="midnightblue" d="M1364.13,-106.73C1353.55,-99.09 1342.28,-88.64 1336.5,-76 1328.02,-57.45 1334.43,-32.85 1338.99,-19.88"/>
<polygon fill="midnightblue" stroke="midnightblue" points="1362.46,-109.82 1372.72,-112.47 1366.35,-104 1362.46,-109.82"/>
</g>
<!-- Node12 -->
<g id="node12" class="node">
<title>Node12</title>
<g id="a_node12"><a xlink:href="density__ops_8_h.html" target="_top" xlink:title=" ">
<polygon fill="white" stroke="black" points="1345.5,-56.5 1345.5,-75.5 1431.5,-75.5 1431.5,-56.5 1345.5,-56.5"/>
<text text-anchor="middle" x="1388.5" y="-63.5" font-family="Helvetica,sans-Serif" font-size="10.00">density_ops.H</text>
</a>
</g>
</g>
<!-- Node10&#45;&gt;Node12 -->
<g id="edge12" class="edge">
<title>Node10&#45;&gt;Node12</title>
<path fill="none" stroke="midnightblue" d="M1388.5,-101.8C1388.5,-92.91 1388.5,-82.78 1388.5,-75.75"/>
<polygon fill="midnightblue" stroke="midnightblue" points="1385,-102.08 1388.5,-112.08 1392,-102.08 1385,-102.08"/>
</g>
<!-- Node12&#45;&gt;Node11 -->
<g id="edge13" class="edge">
<title>Node12&#45;&gt;Node11</title>
<path fill="none" stroke="midnightblue" d="M1374.39,-48.43C1366.32,-38.97 1356.54,-27.48 1349.95,-19.75"/>
<polygon fill="midnightblue" stroke="midnightblue" points="1371.75,-50.74 1380.9,-56.08 1377.08,-46.2 1371.75,-50.74"/>
</g>
<!-- Node13&#45;&gt;Node6 -->
<g id="edge21" class="edge">
<title>Node13&#45;&gt;Node6</title>
<path fill="none" stroke="midnightblue" d="M684.55,-118.33C609.07,-112.25 421.62,-96.28 265.5,-76 262.57,-75.62 259.56,-75.2 256.52,-74.77"/>
<polygon fill="midnightblue" stroke="midnightblue" points="684.62,-121.85 694.86,-119.16 685.17,-114.87 684.62,-121.85"/>
</g>
<!-- Node13&#45;&gt;Node7 -->
<g id="edge15" class="edge">
<title>Node13&#45;&gt;Node7</title>
<path fill="none" stroke="midnightblue" d="M684.27,-120.85C609.51,-119.82 434.83,-113.36 391.5,-76 374.94,-61.72 372.41,-33.88 372.27,-19.72"/>
<polygon fill="midnightblue" stroke="midnightblue" points="684.51,-124.35 694.55,-120.97 684.59,-117.35 684.51,-124.35"/>
</g>
<!-- Node13&#45;&gt;Node8 -->
<g id="edge22" class="edge">
<title>Node13&#45;&gt;Node8</title>
<path fill="none" stroke="midnightblue" d="M684.56,-117.41C620.61,-110.51 477.96,-94.42 358.5,-76 353.88,-75.29 349.04,-74.48 344.26,-73.64"/>
<polygon fill="midnightblue" stroke="midnightblue" points="684.53,-120.93 694.85,-118.52 685.28,-113.97 684.53,-120.93"/>
</g>
<!-- Node14 -->
<g id="node14" class="node">
<title>Node14</title>
<g id="a_node14"><a xlink:href="icns__advection_8_h.html" target="_top" xlink:title=" ">
<polygon fill="white" stroke="black" points="494.5,-56.5 494.5,-75.5 594.5,-75.5 594.5,-56.5 494.5,-56.5"/>
<text text-anchor="middle" x="544.5" y="-63.5" font-family="Helvetica,sans-Serif" font-size="10.00">icns_advection.H</text>
</a>
</g>
</g>
<!-- Node13&#45;&gt;Node14 -->
<g id="edge16" class="edge">
<title>Node13&#45;&gt;Node14</title>
<path fill="none" stroke="midnightblue" d="M685.05,-110.62C652.21,-100.43 602.7,-85.06 572.05,-75.55"/>
<polygon fill="midnightblue" stroke="midnightblue" points="684.08,-113.98 694.67,-113.6 686.16,-107.3 684.08,-113.98"/>
</g>
<!-- Node16 -->
<g id="node16" class="node">
<title>Node16</title>
<g id="a_node16"><a xlink:href="icns__bcop_8_h.html" target="_top" xlink:title=" ">
<polygon fill="white" stroke="black" points="401,-56.5 401,-75.5 476,-75.5 476,-56.5 401,-56.5"/>
<text text-anchor="middle" x="438.5" y="-63.5" font-family="Helvetica,sans-Serif" font-size="10.00">icns_bcop.H</text>
</a>
</g>
</g>
<!-- Node13&#45;&gt;Node16 -->
<g id="edge19" class="edge">
<title>Node13&#45;&gt;Node16</title>
<path fill="none" stroke="midnightblue" d="M684.8,-114.5C632.29,-104.37 531.27,-84.89 476.33,-74.3"/>
<polygon fill="midnightblue" stroke="midnightblue" points="684.15,-117.94 694.63,-116.4 685.47,-111.07 684.15,-117.94"/>
</g>
<!-- Node17 -->
<g id="node17" class="node">
<title>Node17</title>
<g id="a_node17"><a xlink:href="_burggraf_lid_8cpp.html" target="_top" xlink:title=" ">
<polygon fill="white" stroke="black" points="613,-56.5 613,-75.5 706,-75.5 706,-56.5 613,-56.5"/>
<text text-anchor="middle" x="659.5" y="-63.5" font-family="Helvetica,sans-Serif" font-size="10.00">BurggrafLid.cpp</text>
</a>
</g>
</g>
<!-- Node13&#45;&gt;Node17 -->
<g id="edge23" class="edge">
<title>Node13&#45;&gt;Node17</title>
<path fill="none" stroke="midnightblue" d="M701.61,-105.54C691.09,-95.91 677.93,-83.87 669.15,-75.83"/>
<polygon fill="midnightblue" stroke="midnightblue" points="699.28,-108.15 709.02,-112.32 704.01,-102.99 699.28,-108.15"/>
</g>
<!-- Node18 -->
<g id="node18" class="node">
<title>Node18</title>
<g id="a_node18"><a xlink:href="_custom_scalar_8cpp.html" target="_top" xlink:title=" ">
<polygon fill="white" stroke="black" points="724.5,-56.5 724.5,-75.5 828.5,-75.5 828.5,-56.5 724.5,-56.5"/>
<text text-anchor="middle" x="776.5" y="-63.5" font-family="Helvetica,sans-Serif" font-size="10.00">CustomScalar.cpp</text>
</a>
</g>
</g>
<!-- Node13&#45;&gt;Node18 -->
<g id="edge24" class="edge">
<title>Node13&#45;&gt;Node18</title>
<path fill="none" stroke="midnightblue" d="M735.41,-105.25C745.7,-95.67 758.47,-83.79 767.01,-75.83"/>
<polygon fill="midnightblue" stroke="midnightblue" points="732.75,-102.95 727.82,-112.32 737.52,-108.07 732.75,-102.95"/>
</g>
<!-- Node19 -->
<g id="node19" class="node">
<title>Node19</title>
<g id="a_node19"><a xlink:href="_custom_velocity_8cpp.html" target="_top" xlink:title=" ">
<polygon fill="white" stroke="black" points="846.5,-56.5 846.5,-75.5 958.5,-75.5 958.5,-56.5 846.5,-56.5"/>
<text text-anchor="middle" x="902.5" y="-63.5" font-family="Helvetica,sans-Serif" font-size="10.00">CustomVelocity.cpp</text>
</a>
</g>
</g>
<!-- Node13&#45;&gt;Node19 -->
<g id="edge25" class="edge">
<title>Node13&#45;&gt;Node19</title>
<path fill="none" stroke="midnightblue" d="M751.87,-111.21C786.59,-101.02 840.43,-85.22 873.46,-75.52"/>
<polygon fill="midnightblue" stroke="midnightblue" points="750.79,-107.88 742.18,-114.05 752.76,-114.59 750.79,-107.88"/>
</g>
<!-- Node20 -->
<g id="node20" class="node">
<title>Node20</title>
<g id="a_node20"><a xlink:href="_power_law_profile_8cpp.html" target="_top" xlink:title=" ">
<polygon fill="white" stroke="black" points="977,-56.5 977,-75.5 1094,-75.5 1094,-56.5 977,-56.5"/>
<text text-anchor="middle" x="1035.5" y="-63.5" font-family="Helvetica,sans-Serif" font-size="10.00">PowerLawProfile.cpp</text>
</a>
</g>
</g>
<!-- Node13&#45;&gt;Node20 -->
<g id="edge26" class="edge">
<title>Node13&#45;&gt;Node20</title>
<path fill="none" stroke="midnightblue" d="M752.14,-115.27C808.03,-105.75 920.29,-86.63 985.48,-75.52"/>
<polygon fill="midnightblue" stroke="midnightblue" points="751.34,-111.86 742.07,-116.99 752.51,-118.76 751.34,-111.86"/>
</g>
<!-- Node21 -->
<g id="node21" class="node">
<title>Node21</title>
<g id="a_node21"><a xlink:href="_rankine_8cpp.html" target="_top" xlink:title=" ">
<polygon fill="white" stroke="black" points="1112,-56.5 1112,-75.5 1189,-75.5 1189,-56.5 1112,-56.5"/>
<text text-anchor="middle" x="1150.5" y="-63.5" font-family="Helvetica,sans-Serif" font-size="10.00">Rankine.cpp</text>
</a>
</g>
</g>
<!-- Node13&#45;&gt;Node21 -->
<g id="edge27" class="edge">
<title>Node13&#45;&gt;Node21</title>
<path fill="none" stroke="midnightblue" d="M752.39,-117.82C819.44,-111.35 973.69,-95.6 1102.5,-76 1105.52,-75.54 1108.64,-75.03 1111.77,-74.5"/>
<polygon fill="midnightblue" stroke="midnightblue" points="752.01,-114.34 742.39,-118.78 752.68,-121.31 752.01,-114.34"/>
</g>
<!-- Node22 -->
<g id="node22" class="node">
<title>Node22</title>
<g id="a_node22"><a xlink:href="_two_layer_8cpp.html" target="_top" xlink:title=" ">
<polygon fill="white" stroke="black" points="1207.5,-56.5 1207.5,-75.5 1289.5,-75.5 1289.5,-56.5 1207.5,-56.5"/>
<text text-anchor="middle" x="1248.5" y="-63.5" font-family="Helvetica,sans-Serif" font-size="10.00">TwoLayer.cpp</text>
</a>
</g>
</g>
<!-- Node13&#45;&gt;Node22 -->
<g id="edge28" class="edge">
<title>Node13&#45;&gt;Node22</title>
<path fill="none" stroke="midnightblue" d="M752.24,-118.77C830.63,-113.4 1031.09,-98.46 1197.5,-76 1200.71,-75.57 1204.02,-75.08 1207.35,-74.56"/>
<polygon fill="midnightblue" stroke="midnightblue" points="751.74,-115.3 742,-119.47 752.22,-122.28 751.74,-115.3"/>
</g>
<!-- Node14&#45;&gt;Node7 -->
<g id="edge17" class="edge">
<title>Node14&#45;&gt;Node7</title>
<path fill="none" stroke="midnightblue" d="M507.67,-53.44C475.24,-43.26 428.76,-28.66 399.63,-19.52"/>
<polygon fill="midnightblue" stroke="midnightblue" points="506.66,-56.79 517.25,-56.44 508.75,-50.11 506.66,-56.79"/>
</g>
<!-- Node15 -->
<g id="node15" class="node">
<title>Node15</title>
<g id="a_node15"><a xlink:href="icns__advection_8cpp.html" target="_top" xlink:title=" ">
<polygon fill="white" stroke="black" points="489.5,-0.5 489.5,-19.5 599.5,-19.5 599.5,-0.5 489.5,-0.5"/>
<text text-anchor="middle" x="544.5" y="-7.5" font-family="Helvetica,sans-Serif" font-size="10.00">icns_advection.cpp</text>
</a>
</g>
</g>
<!-- Node14&#45;&gt;Node15 -->
<g id="edge18" class="edge">
<title>Node14&#45;&gt;Node15</title>
<path fill="none" stroke="midnightblue" d="M544.5,-45.8C544.5,-36.91 544.5,-26.78 544.5,-19.75"/>
<polygon fill="midnightblue" stroke="midnightblue" points="541,-46.08 544.5,-56.08 548,-46.08 541,-46.08"/>
</g>
<!-- Node16&#45;&gt;Node7 -->
<g id="edge20" class="edge">
<title>Node16&#45;&gt;Node7</title>
<path fill="none" stroke="midnightblue" d="M419.95,-49.82C408.12,-40.15 393.21,-27.95 383.3,-19.83"/>
<polygon fill="midnightblue" stroke="midnightblue" points="417.94,-52.7 427.9,-56.32 422.37,-47.28 417.94,-52.7"/>
</g>
<!-- Node24 -->
<g id="node24" class="node">
<title>Node24</title>
<g id="a_node24"><a xlink:href="levelset_8cpp.html" target="_top" xlink:title=" ">
<polygon fill="white" stroke="black" points="1457.5,-0.5 1457.5,-19.5 1533.5,-19.5 1533.5,-0.5 1457.5,-0.5"/>
<text text-anchor="middle" x="1495.5" y="-7.5" font-family="Helvetica,sans-Serif" font-size="10.00">levelset.cpp</text>
</a>
</g>
</g>
<!-- Node23&#45;&gt;Node24 -->
<g id="edge30" class="edge">
<title>Node23&#45;&gt;Node24</title>
<path fill="none" stroke="midnightblue" d="M1507.32,-107C1496.31,-99.4 1484.54,-88.91 1478.5,-76 1469.59,-56.99 1481.62,-32.58 1489.54,-19.76"/>
<polygon fill="midnightblue" stroke="midnightblue" points="1505.56,-110.03 1515.87,-112.46 1509.33,-104.13 1505.56,-110.03"/>
</g>
<!-- Node25 -->
<g id="node25" class="node">
<title>Node25</title>
<g id="a_node25"><a xlink:href="levelset__ops_8_h.html" target="_top" xlink:title=" ">
<polygon fill="white" stroke="black" points="1488,-56.5 1488,-75.5 1577,-75.5 1577,-56.5 1488,-56.5"/>
<text text-anchor="middle" x="1532.5" y="-63.5" font-family="Helvetica,sans-Serif" font-size="10.00">levelset_ops.H</text>
</a>
</g>
</g>
<!-- Node23&#45;&gt;Node25 -->
<g id="edge31" class="edge">
<title>Node23&#45;&gt;Node25</title>
<path fill="none" stroke="midnightblue" d="M1532.5,-101.8C1532.5,-92.91 1532.5,-82.78 1532.5,-75.75"/>
<polygon fill="midnightblue" stroke="midnightblue" points="1529,-102.08 1532.5,-112.08 1536,-102.08 1529,-102.08"/>
</g>
<!-- Node25&#45;&gt;Node24 -->
<g id="edge32" class="edge">
<title>Node25&#45;&gt;Node24</title>
<path fill="none" stroke="midnightblue" d="M1520.55,-47.57C1514.19,-38.27 1506.63,-27.25 1501.5,-19.75"/>
<polygon fill="midnightblue" stroke="midnightblue" points="1517.85,-49.81 1526.39,-56.08 1523.63,-45.86 1517.85,-49.81"/>
</g>
<!-- Node27 -->
<g id="node27" class="node">
<title>Node27</title>
<g id="a_node27"><a xlink:href="passive__scalar_8cpp.html" target="_top" xlink:title=" ">
<polygon fill="white" stroke="black" points="1595.5,-56.5 1595.5,-75.5 1703.5,-75.5 1703.5,-56.5 1595.5,-56.5"/>
<text text-anchor="middle" x="1649.5" y="-63.5" font-family="Helvetica,sans-Serif" font-size="10.00">passive_scalar.cpp</text>
</a>
</g>
</g>
<!-- Node26&#45;&gt;Node27 -->
<g id="edge34" class="edge">
<title>Node26&#45;&gt;Node27</title>
<path fill="none" stroke="midnightblue" d="M1649.5,-101.8C1649.5,-92.91 1649.5,-82.78 1649.5,-75.75"/>
<polygon fill="midnightblue" stroke="midnightblue" points="1646,-102.08 1649.5,-112.08 1653,-102.08 1646,-102.08"/>
</g>
<!-- Node29 -->
<g id="node29" class="node">
<title>Node29</title>
<g id="a_node29"><a xlink:href="_s_d_r_8cpp.html" target="_top" xlink:title=" ">
<polygon fill="white" stroke="black" points="1733,-0.5 1733,-19.5 1790,-19.5 1790,-0.5 1733,-0.5"/>
<text text-anchor="middle" x="1761.5" y="-7.5" font-family="Helvetica,sans-Serif" font-size="10.00">SDR.cpp</text>
</a>
</g>
</g>
<!-- Node28&#45;&gt;Node29 -->
<g id="edge36" class="edge">
<title>Node28&#45;&gt;Node29</title>
<path fill="none" stroke="midnightblue" d="M1789.38,-109C1774.7,-101.84 1758.88,-91.12 1750.5,-76 1740.4,-57.78 1750.22,-32.61 1756.74,-19.59"/>
<polygon fill="midnightblue" stroke="midnightblue" points="1788.22,-112.32 1798.77,-113.21 1791.08,-105.93 1788.22,-112.32"/>
</g>
<!-- Node30 -->
<g id="node30" class="node">
<title>Node30</title>
<g id="a_node30"><a xlink:href="sdr__ops_8_h.html" target="_top" xlink:title=" ">
<polygon fill="white" stroke="black" points="1760,-56.5 1760,-75.5 1825,-75.5 1825,-56.5 1760,-56.5"/>
<text text-anchor="middle" x="1792.5" y="-63.5" font-family="Helvetica,sans-Serif" font-size="10.00">sdr_ops.H</text>
</a>
</g>
</g>
<!-- Node28&#45;&gt;Node30 -->
<g id="edge37" class="edge">
<title>Node28&#45;&gt;Node30</title>
<path fill="none" stroke="midnightblue" d="M1812.65,-103.27C1807.53,-94.05 1801.48,-83.17 1797.36,-75.75"/>
<polygon fill="midnightblue" stroke="midnightblue" points="1809.63,-105.04 1817.55,-112.08 1815.75,-101.64 1809.63,-105.04"/>
</g>
<!-- Node31 -->
<g id="node31" class="node">
<title>Node31</title>
<g id="a_node31"><a xlink:href="_k_omega_s_s_t_8cpp.html" target="_top" xlink:title=" ">
<polygon fill="white" stroke="black" points="1868,-0.5 1868,-19.5 1963,-19.5 1963,-0.5 1868,-0.5"/>
<text text-anchor="middle" x="1915.5" y="-7.5" font-family="Helvetica,sans-Serif" font-size="10.00">KOmegaSST.cpp</text>
</a>
</g>
</g>
<!-- Node28&#45;&gt;Node31 -->
<g id="edge39" class="edge">
<title>Node28&#45;&gt;Node31</title>
<path fill="none" stroke="midnightblue" d="M1834.71,-104.12C1844.56,-90.76 1858.94,-71.8 1872.5,-56 1883.76,-42.88 1897.74,-28.58 1906.64,-19.7"/>
<polygon fill="midnightblue" stroke="midnightblue" points="1831.77,-102.22 1828.69,-112.36 1837.42,-106.35 1831.77,-102.22"/>
</g>
<!-- Node32 -->
<g id="node32" class="node">
<title>Node32</title>
<g id="a_node32"><a xlink:href="_k_omega_s_s_t_i_8_h.html" target="_top" xlink:title=" ">
<polygon fill="white" stroke="black" points="1882,-56.5 1882,-75.5 1971,-75.5 1971,-56.5 1882,-56.5"/>
<text text-anchor="middle" x="1926.5" y="-63.5" font-family="Helvetica,sans-Serif" font-size="10.00">KOmegaSSTI.H</text>
</a>
</g>
</g>
<!-- Node28&#45;&gt;Node32 -->
<g id="edge40" class="edge">
<title>Node28&#45;&gt;Node32</title>
<path fill="none" stroke="midnightblue" d="M1848.33,-107.59C1867.56,-97.61 1893.24,-84.27 1909.83,-75.65"/>
<polygon fill="midnightblue" stroke="midnightblue" points="1846.47,-104.61 1839.21,-112.32 1849.7,-110.82 1846.47,-104.61"/>
</g>
<!-- Node33 -->
<g id="node33" class="node">
<title>Node33</title>
<g id="a_node33"><a xlink:href="_k_omega_s_s_t_i_d_d_e_s_8cpp.html" target="_top" xlink:title=" ">
<polygon fill="white" stroke="black" points="1981.5,-0.5 1981.5,-19.5 2107.5,-19.5 2107.5,-0.5 1981.5,-0.5"/>
<text text-anchor="middle" x="2044.5" y="-7.5" font-family="Helvetica,sans-Serif" font-size="10.00">KOmegaSSTIDDES.cpp</text>
</a>
</g>
</g>
<!-- Node28&#45;&gt;Node33 -->
<g id="edge43" class="edge">
<title>Node28&#45;&gt;Node33</title>
<path fill="none" stroke="midnightblue" d="M1856.14,-116.4C1889.33,-110.74 1940.59,-98.92 1979.5,-76 2005.08,-60.94 2027.8,-33.45 2038.32,-19.54"/>
<polygon fill="midnightblue" stroke="midnightblue" points="1855.36,-112.98 1846.04,-118.02 1856.47,-119.89 1855.36,-112.98"/>
</g>
<!-- Node30&#45;&gt;Node29 -->
<g id="edge38" class="edge">
<title>Node30&#45;&gt;Node29</title>
<path fill="none" stroke="midnightblue" d="M1782.32,-47.27C1777.03,-38.05 1770.78,-27.17 1766.52,-19.75"/>
<polygon fill="midnightblue" stroke="midnightblue" points="1779.37,-49.15 1787.38,-56.08 1785.44,-45.67 1779.37,-49.15"/>
</g>
<!-- Node32&#45;&gt;Node31 -->
<g id="edge41" class="edge">
<title>Node32&#45;&gt;Node31</title>
<path fill="none" stroke="midnightblue" d="M1922.65,-46.1C1920.82,-37.14 1918.73,-26.86 1917.28,-19.75"/>
<polygon fill="midnightblue" stroke="midnightblue" points="1919.26,-46.98 1924.68,-56.08 1926.12,-45.59 1919.26,-46.98"/>
</g>
<!-- Node32&#45;&gt;Node33 -->
<g id="edge42" class="edge">
<title>Node32&#45;&gt;Node33</title>
<path fill="none" stroke="midnightblue" d="M1954.4,-52.23C1976.47,-42.13 2006.68,-28.31 2025.89,-19.52"/>
<polygon fill="midnightblue" stroke="midnightblue" points="1952.83,-49.1 1945.2,-56.44 1955.75,-55.46 1952.83,-49.1"/>
</g>
<!-- Node35 -->
<g id="node35" class="node">
<title>Node35</title>
<g id="a_node35"><a xlink:href="temperature_8cpp.html" target="_top" xlink:title=" ">
<polygon fill="white" stroke="black" points="2433.5,-56.5 2433.5,-75.5 2531.5,-75.5 2531.5,-56.5 2433.5,-56.5"/>
<text text-anchor="middle" x="2482.5" y="-63.5" font-family="Helvetica,sans-Serif" font-size="10.00">temperature.cpp</text>
</a>
</g>
</g>
<!-- Node34&#45;&gt;Node35 -->
<g id="edge45" class="edge">
<title>Node34&#45;&gt;Node35</title>
<path fill="none" stroke="midnightblue" d="M2364.95,-109.04C2393.36,-98.88 2433.44,-84.55 2458.69,-75.52"/>
<polygon fill="midnightblue" stroke="midnightblue" points="2363.66,-105.78 2355.43,-112.44 2366.02,-112.37 2363.66,-105.78"/>
</g>
<!-- Node36&#45;&gt;Node31 -->
<g id="edge51" class="edge">
<title>Node36&#45;&gt;Node31</title>
<path fill="none" stroke="midnightblue" d="M2071.73,-107.01C2034.16,-83.92 1960.27,-38.51 1929.48,-19.59"/>
<polygon fill="midnightblue" stroke="midnightblue" points="2070.1,-110.11 2080.45,-112.37 2073.77,-104.15 2070.1,-110.11"/>
</g>
<!-- Node36&#45;&gt;Node32 -->
<g id="edge52" class="edge">
<title>Node36&#45;&gt;Node32</title>
<path fill="none" stroke="midnightblue" d="M2061.79,-110.49C2030.08,-100.29 1982.56,-85.02 1953.1,-75.55"/>
<polygon fill="midnightblue" stroke="midnightblue" points="2060.9,-113.88 2071.49,-113.6 2063.04,-107.21 2060.9,-113.88"/>
</g>
<!-- Node36&#45;&gt;Node33 -->
<g id="edge53" class="edge">
<title>Node36&#45;&gt;Node33</title>
<path fill="none" stroke="midnightblue" d="M2086.32,-103C2075.41,-79 2056.53,-37.47 2048.41,-19.59"/>
<polygon fill="midnightblue" stroke="midnightblue" points="2083.25,-104.71 2090.58,-112.37 2089.62,-101.82 2083.25,-104.71"/>
</g>
<!-- Node37 -->
<g id="node37" class="node">
<title>Node37</title>
<g id="a_node37"><a xlink:href="_t_k_e_8cpp.html" target="_top" xlink:title=" ">
<polygon fill="white" stroke="black" points="2132.5,-0.5 2132.5,-19.5 2188.5,-19.5 2188.5,-0.5 2132.5,-0.5"/>
<text text-anchor="middle" x="2160.5" y="-7.5" font-family="Helvetica,sans-Serif" font-size="10.00">TKE.cpp</text>
</a>
</g>
</g>
<!-- Node36&#45;&gt;Node37 -->
<g id="edge47" class="edge">
<title>Node36&#45;&gt;Node37</title>
<path fill="none" stroke="midnightblue" d="M2104.72,-103.22C2112.29,-90.11 2122.92,-71.88 2132.5,-56 2140.2,-43.24 2149.37,-28.61 2155.06,-19.58"/>
<polygon fill="midnightblue" stroke="midnightblue" points="2101.55,-101.71 2099.59,-112.12 2107.61,-105.21 2101.55,-101.71"/>
</g>
<!-- Node38 -->
<g id="node38" class="node">
<title>Node38</title>
<g id="a_node38"><a xlink:href="tke__ops_8_h.html" target="_top" xlink:title=" ">
<polygon fill="white" stroke="black" points="2142,-56.5 2142,-75.5 2207,-75.5 2207,-56.5 2142,-56.5"/>
<text text-anchor="middle" x="2174.5" y="-63.5" font-family="Helvetica,sans-Serif" font-size="10.00">tke_ops.H</text>
</a>
</g>
</g>
<!-- Node36&#45;&gt;Node38 -->
<g id="edge48" class="edge">
<title>Node36&#45;&gt;Node38</title>
<path fill="none" stroke="midnightblue" d="M2115.8,-106.62C2130.42,-96.76 2149.33,-83.99 2161.68,-75.65"/>
<polygon fill="midnightblue" stroke="midnightblue" points="2113.68,-103.83 2107.35,-112.32 2117.6,-109.63 2113.68,-103.83"/>
</g>
<!-- Node39 -->
<g id="node39" class="node">
<title>Node39</title>
<g id="a_node39"><a xlink:href="_one_eq_ksgs_8cpp.html" target="_top" xlink:title=" ">
<polygon fill="white" stroke="black" points="2225.5,-56.5 2225.5,-75.5 2317.5,-75.5 2317.5,-56.5 2225.5,-56.5"/>
<text text-anchor="middle" x="2271.5" y="-63.5" font-family="Helvetica,sans-Serif" font-size="10.00">OneEqKsgs.cpp</text>
</a>
</g>
</g>
<!-- Node36&#45;&gt;Node39 -->
<g id="edge50" class="edge">
<title>Node36&#45;&gt;Node39</title>
<path fill="none" stroke="midnightblue" d="M2127.38,-110.97C2160.75,-100.79 2211.85,-85.2 2243.39,-75.58"/>
<polygon fill="midnightblue" stroke="midnightblue" points="2126.18,-107.67 2117.64,-113.94 2128.23,-114.37 2126.18,-107.67"/>
</g>
<!-- Node40 -->
<g id="node40" class="node">
<title>Node40</title>
<g id="a_node40"><a xlink:href="_a_b_l_stats_8cpp.html" target="_top" xlink:title=" ">
<polygon fill="white" stroke="black" points="2335.5,-56.5 2335.5,-75.5 2415.5,-75.5 2415.5,-56.5 2335.5,-56.5"/>
<text text-anchor="middle" x="2375.5" y="-63.5" font-family="Helvetica,sans-Serif" font-size="10.00">ABLStats.cpp</text>
</a>
</g>
</g>
<!-- Node36&#45;&gt;Node40 -->
<g id="edge54" class="edge">
<title>Node36&#45;&gt;Node40</title>
<path fill="none" stroke="midnightblue" d="M2128,-114.56C2179.95,-104.58 2279.73,-85.4 2335.42,-74.7"/>
<polygon fill="midnightblue" stroke="midnightblue" points="2127.13,-111.16 2117.97,-116.49 2128.46,-118.04 2127.13,-111.16"/>
</g>
<!-- Node38&#45;&gt;Node37 -->
<g id="edge49" class="edge">
<title>Node38&#45;&gt;Node37</title>
<path fill="none" stroke="midnightblue" d="M2169.68,-46.4C2167.33,-37.36 2164.63,-26.94 2162.77,-19.75"/>
<polygon fill="midnightblue" stroke="midnightblue" points="2166.29,-47.28 2172.19,-56.08 2173.07,-45.52 2166.29,-47.28"/>
</g>
<!-- Node42 -->
<g id="node42" class="node">
<title>Node42</title>
<g id="a_node42"><a xlink:href="vof_8cpp.html" target="_top" xlink:title=" ">
<polygon fill="white" stroke="black" points="2660.5,-0.5 2660.5,-19.5 2712.5,-19.5 2712.5,-0.5 2660.5,-0.5"/>
<text text-anchor="middle" x="2686.5" y="-7.5" font-family="Helvetica,sans-Serif" font-size="10.00">vof.cpp</text>
</a>
</g>
</g>
<!-- Node41&#45;&gt;Node42 -->
<g id="edge56" class="edge">
<title>Node41&#45;&gt;Node42</title>
<path fill="none" stroke="midnightblue" d="M2609.18,-107.26C2588.7,-94.67 2565.74,-75.15 2578.5,-56 2596.64,-28.79 2634.68,-18.01 2660.41,-13.75"/>
<polygon fill="midnightblue" stroke="midnightblue" points="2607.58,-110.37 2617.99,-112.36 2611.09,-104.32 2607.58,-110.37"/>
</g>
<!-- Node43 -->
<g id="node43" class="node">
<title>Node43</title>
<g id="a_node43"><a xlink:href="vof__advection_8_h.html" target="_top" xlink:title=" ">
<polygon fill="white" stroke="black" points="2587.5,-56.5 2587.5,-75.5 2683.5,-75.5 2683.5,-56.5 2587.5,-56.5"/>
<text text-anchor="middle" x="2635.5" y="-63.5" font-family="Helvetica,sans-Serif" font-size="10.00">vof_advection.H</text>
</a>
</g>
</g>
<!-- Node41&#45;&gt;Node43 -->
<g id="edge57" class="edge">
<title>Node41&#45;&gt;Node43</title>
<path fill="none" stroke="midnightblue" d="M2635.5,-101.8C2635.5,-92.91 2635.5,-82.78 2635.5,-75.75"/>
<polygon fill="midnightblue" stroke="midnightblue" points="2632,-102.08 2635.5,-112.08 2639,-102.08 2632,-102.08"/>
</g>
<!-- Node44 -->
<g id="node44" class="node">
<title>Node44</title>
<g id="a_node44"><a xlink:href="vof__bcop_8_h.html" target="_top" xlink:title=" ">
<polygon fill="white" stroke="black" points="2702,-56.5 2702,-75.5 2773,-75.5 2773,-56.5 2702,-56.5"/>
<text text-anchor="middle" x="2737.5" y="-63.5" font-family="Helvetica,sans-Serif" font-size="10.00">vof_bcop.H</text>
</a>
</g>
</g>
<!-- Node41&#45;&gt;Node44 -->
<g id="edge59" class="edge">
<title>Node41&#45;&gt;Node44</title>
<path fill="none" stroke="midnightblue" d="M2660.83,-107.59C2679.69,-97.61 2704.88,-84.27 2721.15,-75.65"/>
<polygon fill="midnightblue" stroke="midnightblue" points="2659.09,-104.55 2651.89,-112.32 2662.36,-110.74 2659.09,-104.55"/>
</g>
<!-- Node45 -->
<g id="node45" class="node">
<title>Node45</title>
<g id="a_node45"><a xlink:href="vof__ops_8_h.html" target="_top" xlink:title=" ">
<polygon fill="white" stroke="black" points="2791,-56.5 2791,-75.5 2856,-75.5 2856,-56.5 2791,-56.5"/>
<text text-anchor="middle" x="2823.5" y="-63.5" font-family="Helvetica,sans-Serif" font-size="10.00">vof_ops.H</text>
</a>
</g>
</g>
<!-- Node41&#45;&gt;Node45 -->
<g id="edge61" class="edge">
<title>Node41&#45;&gt;Node45</title>
<path fill="none" stroke="midnightblue" d="M2666.46,-112.11C2701.73,-101.98 2758.97,-85.53 2793.74,-75.55"/>
<polygon fill="midnightblue" stroke="midnightblue" points="2665.35,-108.79 2656.7,-114.91 2667.28,-115.51 2665.35,-108.79"/>
</g>
<!-- Node43&#45;&gt;Node42 -->
<g id="edge58" class="edge">
<title>Node43&#45;&gt;Node42</title>
<path fill="none" stroke="midnightblue" d="M2650.88,-48.72C2659.87,-39.2 2670.86,-27.56 2678.24,-19.75"/>
<polygon fill="midnightblue" stroke="midnightblue" points="2648.24,-46.41 2643.92,-56.08 2653.33,-51.22 2648.24,-46.41"/>
</g>
<!-- Node44&#45;&gt;Node42 -->
<g id="edge60" class="edge">
<title>Node44&#45;&gt;Node42</title>
<path fill="none" stroke="midnightblue" d="M2722.12,-48.72C2713.13,-39.2 2702.14,-27.56 2694.76,-19.75"/>
<polygon fill="midnightblue" stroke="midnightblue" points="2719.67,-51.22 2729.08,-56.08 2724.76,-46.41 2719.67,-51.22"/>
</g>
<!-- Node45&#45;&gt;Node42 -->
<g id="edge62" class="edge">
<title>Node45&#45;&gt;Node42</title>
<path fill="none" stroke="midnightblue" d="M2792.48,-52.77C2766.74,-42.63 2730.81,-28.47 2708.11,-19.52"/>
<polygon fill="midnightblue" stroke="midnightblue" points="2791.21,-56.03 2801.79,-56.44 2793.77,-49.52 2791.21,-56.03"/>
</g>
</g>
</svg>
        <g id="navigator" transform="translate(0 0)" fill="#404254">
                <rect fill="#f2f5e9" fill-opacity="0.5" stroke="#606060" stroke-width=".5" x="0" y="0" width="60" height="60"/>
                <use id="zoomplus" xlink:href="#zoomPlus" x="17" y="9" onmousedown="handleZoom(evt,'in')"/>
                <use id="zoomminus" xlink:href="#zoomMin" x="42" y="9" onmousedown="handleZoom(evt,'out')"/>
                <use id="reset" xlink:href="#resetDef" x="30" y="36" onmousedown="handleReset()"/>
                <g id="arrowUp" xlink:href="#dirArrow" transform="translate(30 24)" onmousedown="handlePan(0,-1)">
                  <use xlink:href="#rim" fill="#404040">
                        <set attributeName="fill" to="#808080" begin="arrowUp.mouseover" end="arrowUp.mouseout"/>
                  </use>
                  <path fill="none" stroke="white" stroke-width="1.5" d="M0,-3.0v7 M-2.5,-0.5L0,-3.0L2.5,-0.5"/>
                </g>
                <g id="arrowRight" xlink:href="#dirArrow" transform="rotate(90) translate(36 -43)" onmousedown="handlePan(1,0)">
                  <use xlink:href="#rim" fill="#404040">
                        <set attributeName="fill" to="#808080" begin="arrowRight.mouseover" end="arrowRight.mouseout"/>
                  </use>
                  <path fill="none" stroke="white" stroke-width="1.5" d="M0,-3.0v7 M-2.5,-0.5L0,-3.0L2.5,-0.5"/>
                </g>
                <g id="arrowDown" xlink:href="#dirArrow" transform="rotate(180) translate(-30 -48)" onmousedown="handlePan(0,1)">
                  <use xlink:href="#rim" fill="#404040">
                        <set attributeName="fill" to="#808080" begin="arrowDown.mouseover" end="arrowDown.mouseout"/>
                  </use>
                  <path fill="none" stroke="white" stroke-width="1.5" d="M0,-3.0v7 M-2.5,-0.5L0,-3.0L2.5,-0.5"/>
                </g>
                <g id="arrowLeft" xlink:href="#dirArrow" transform="rotate(270) translate(-36 17)" onmousedown="handlePan(-1,0)">
                  <use xlink:href="#rim" fill="#404040">
                        <set attributeName="fill" to="#808080" begin="arrowLeft.mouseover" end="arrowLeft.mouseout"/>
                  </use>
                  <path fill="none" stroke="white" stroke-width="1.5" d="M0,-3.0v7 M-2.5,-0.5L0,-3.0L2.5,-0.5"/>
                </g>
        </g>
        <svg viewBox="0 0 15 15" width="100%" height="30px" preserveAspectRatio="xMaxYMin meet">
         <g id="arrow_out" transform="scale(0.3 0.3)">
          <a xlink:href="diffusion_8_h__dep__incl_org.svg" target="_base">
           <rect id="button" ry="5" rx="5" y="6" x="6" height="38" width="38"
                fill="#f2f5e9" fill-opacity="0.5" stroke="#606060" stroke-width="1.0"/>
           <path id="arrow"
             d="M 11.500037,31.436501 C 11.940474,20.09759 22.043105,11.32322 32.158766,21.979434 L 37.068811,17.246167 C 37.068811,17.246167 37.088388,32 37.088388,32 L 22.160133,31.978069 C 22.160133,31.978069 26.997745,27.140456 26.997745,27.140456 C 18.528582,18.264221 13.291696,25.230495 11.500037,31.436501 z"
             style="fill:#404040;"/>
          </a>
         </g>
        </svg>
</svg>
