<?xml version="1.0" encoding="UTF-8" standalone="no"?>
<!DOCTYPE svg PUBLIC "-//W3C//DTD SVG 1.1//EN"
 "http://www.w3.org/Graphics/SVG/1.1/DTD/svg11.dtd">
<!-- Generated by graphviz version 2.43.0 (0)
 -->
<!-- Title: icns.H Pages: 1 -->
<svg width="1114pt" height="140pt"
 viewBox="0.00 0.00 1114.15 140.00" xmlns="http://www.w3.org/2000/svg" xmlns:xlink="http://www.w3.org/1999/xlink">
<g id="graph0" class="graph" transform="scale(1 1) rotate(0) translate(4 136)">
<title>icns.H</title>
<polygon fill="white" stroke="transparent" points="-4,4 -4,-136 1110.15,-136 1110.15,4 -4,4"/>
<!-- Node1 -->
<g id="node1" class="node">
<title>Node1</title>
<g id="a_node1"><a xlink:title=" ">
<polygon fill="#bfbfbf" stroke="black" points="452.65,-112.5 452.65,-131.5 499.65,-131.5 499.65,-112.5 452.65,-112.5"/>
<text text-anchor="middle" x="476.15" y="-119.5" font-family="Helvetica,sans-Serif" font-size="10.00">icns.H</text>
</a>
</g>
</g>
<!-- Node2 -->
<g id="node2" class="node">
<title>Node2</title>
<g id="a_node2"><a xlink:href="icns_8cpp.html" target="_top" xlink:title=" ">
<polygon fill="white" stroke="black" points="130.15,-0.5 130.15,-19.5 186.15,-19.5 186.15,-0.5 130.15,-0.5"/>
<text text-anchor="middle" x="158.15" y="-7.5" font-family="Helvetica,sans-Serif" font-size="10.00">icns.cpp</text>
</a>
</g>
</g>
<!-- Node1&#45;&gt;Node2 -->
<g id="edge1" class="edge">
<title>Node1&#45;&gt;Node2</title>
<path fill="none" stroke="midnightblue" d="M442.36,-120.31C339.78,-117.89 37.28,-108.06 8.15,-76 -28.97,-35.14 76.91,-18.85 129.92,-13.38"/>
<polygon fill="midnightblue" stroke="midnightblue" points="442.4,-123.82 452.47,-120.55 442.56,-116.82 442.4,-123.82"/>
</g>
<!-- Node3 -->
<g id="node3" class="node">
<title>Node3</title>
<g id="a_node3"><a xlink:href="icns__advection_8_h.html" target="_top" xlink:title=" ">
<polygon fill="white" stroke="black" points="311.15,-56.5 311.15,-75.5 411.15,-75.5 411.15,-56.5 311.15,-56.5"/>
<text text-anchor="middle" x="361.15" y="-63.5" font-family="Helvetica,sans-Serif" font-size="10.00">icns_advection.H</text>
</a>
</g>
</g>
<!-- Node1&#45;&gt;Node3 -->
<g id="edge2" class="edge">
<title>Node1&#45;&gt;Node3</title>
<path fill="none" stroke="midnightblue" d="M448.67,-108.1C427.19,-98.01 397.93,-84.27 379.29,-75.52"/>
<polygon fill="midnightblue" stroke="midnightblue" points="447.39,-111.36 457.93,-112.44 450.37,-105.02 447.39,-111.36"/>
</g>
<!-- Node5 -->
<g id="node5" class="node">
<title>Node5</title>
<g id="a_node5"><a xlink:href="icns__bcop_8_h.html" target="_top" xlink:title=" ">
<polygon fill="white" stroke="black" points="17.65,-56.5 17.65,-75.5 92.65,-75.5 92.65,-56.5 17.65,-56.5"/>
<text text-anchor="middle" x="55.15" y="-63.5" font-family="Helvetica,sans-Serif" font-size="10.00">icns_bcop.H</text>
</a>
</g>
</g>
<!-- Node1&#45;&gt;Node5 -->
<g id="edge5" class="edge">
<title>Node1&#45;&gt;Node5</title>
<path fill="none" stroke="midnightblue" d="M442.26,-117.72C376.48,-111.17 227.03,-95.44 102.15,-76 99.12,-75.53 95.97,-75 92.82,-74.45"/>
<polygon fill="midnightblue" stroke="midnightblue" points="442.15,-121.22 452.45,-118.73 442.84,-114.26 442.15,-121.22"/>
</g>
<!-- Node6 -->
<g id="node6" class="node">
<title>Node6</title>
<g id="a_node6"><a xlink:href="icns__diffusion_8_h.html" target="_top" xlink:title=" ">
<polygon fill="white" stroke="black" points="111.15,-56.5 111.15,-75.5 205.15,-75.5 205.15,-56.5 111.15,-56.5"/>
<text text-anchor="middle" x="158.15" y="-63.5" font-family="Helvetica,sans-Serif" font-size="10.00">icns_diffusion.H</text>
</a>
</g>
</g>
<!-- Node1&#45;&gt;Node6 -->
<g id="edge7" class="edge">
<title>Node1&#45;&gt;Node6</title>
<path fill="none" stroke="midnightblue" d="M442.59,-115.3C385.68,-105.64 270.1,-86.01 205.16,-74.98"/>
<polygon fill="midnightblue" stroke="midnightblue" points="442.07,-118.76 452.51,-116.99 443.24,-111.86 442.07,-118.76"/>
</g>
<!-- Node7 -->
<g id="node7" class="node">
<title>Node7</title>
<g id="a_node7"><a xlink:href="icns__ops_8_h.html" target="_top" xlink:title=" ">
<polygon fill="white" stroke="black" points="223.65,-56.5 223.65,-75.5 292.65,-75.5 292.65,-56.5 223.65,-56.5"/>
<text text-anchor="middle" x="258.15" y="-63.5" font-family="Helvetica,sans-Serif" font-size="10.00">icns_ops.H</text>
</a>
</g>
</g>
<!-- Node1&#45;&gt;Node7 -->
<g id="edge9" class="edge">
<title>Node1&#45;&gt;Node7</title>
<path fill="none" stroke="midnightblue" d="M442.69,-112.71C402.01,-102.63 333.71,-85.72 292.59,-75.53"/>
<polygon fill="midnightblue" stroke="midnightblue" points="441.86,-116.11 452.41,-115.12 443.54,-109.32 441.86,-116.11"/>
</g>
<!-- Node8 -->
<g id="node8" class="node">
<title>Node8</title>
<g id="a_node8"><a xlink:href="_burggraf_lid_8cpp.html" target="_top" xlink:title=" ">
<polygon fill="white" stroke="black" points="429.65,-56.5 429.65,-75.5 522.65,-75.5 522.65,-56.5 429.65,-56.5"/>
<text text-anchor="middle" x="476.15" y="-63.5" font-family="Helvetica,sans-Serif" font-size="10.00">BurggrafLid.cpp</text>
</a>
</g>
</g>
<!-- Node1&#45;&gt;Node8 -->
<g id="edge11" class="edge">
<title>Node1&#45;&gt;Node8</title>
<path fill="none" stroke="midnightblue" d="M476.15,-101.8C476.15,-92.91 476.15,-82.78 476.15,-75.75"/>
<polygon fill="midnightblue" stroke="midnightblue" points="472.65,-102.08 476.15,-112.08 479.65,-102.08 472.65,-102.08"/>
</g>
<!-- Node9 -->
<g id="node9" class="node">
<title>Node9</title>
<g id="a_node9"><a xlink:href="_custom_scalar_8cpp.html" target="_top" xlink:title=" ">
<polygon fill="white" stroke="black" points="541.15,-56.5 541.15,-75.5 645.15,-75.5 645.15,-56.5 541.15,-56.5"/>
<text text-anchor="middle" x="593.15" y="-63.5" font-family="Helvetica,sans-Serif" font-size="10.00">CustomScalar.cpp</text>
</a>
</g>
</g>
<!-- Node1&#45;&gt;Node9 -->
<g id="edge12" class="edge">
<title>Node1&#45;&gt;Node9</title>
<path fill="none" stroke="midnightblue" d="M503.82,-108.23C525.7,-98.13 555.65,-84.31 574.7,-75.52"/>
<polygon fill="midnightblue" stroke="midnightblue" points="502.31,-105.08 494.69,-112.44 505.24,-111.43 502.31,-105.08"/>
</g>
<!-- Node10 -->
<g id="node10" class="node">
<title>Node10</title>
<g id="a_node10"><a xlink:href="_custom_velocity_8cpp.html" target="_top" xlink:title=" ">
<polygon fill="white" stroke="black" points="663.15,-56.5 663.15,-75.5 775.15,-75.5 775.15,-56.5 663.15,-56.5"/>
<text text-anchor="middle" x="719.15" y="-63.5" font-family="Helvetica,sans-Serif" font-size="10.00">CustomVelocity.cpp</text>
</a>
</g>
</g>
<!-- Node1&#45;&gt;Node10 -->
<g id="edge13" class="edge">
<title>Node1&#45;&gt;Node10</title>
<path fill="none" stroke="midnightblue" d="M509.7,-113.55C554.44,-103.6 633.47,-86.04 680.62,-75.56"/>
<polygon fill="midnightblue" stroke="midnightblue" points="508.9,-110.14 499.9,-115.72 510.42,-116.97 508.9,-110.14"/>
</g>
<!-- Node11 -->
<g id="node11" class="node">
<title>Node11</title>
<g id="a_node11"><a xlink:href="_power_law_profile_8cpp.html" target="_top" xlink:title=" ">
<polygon fill="white" stroke="black" points="793.65,-56.5 793.65,-75.5 910.65,-75.5 910.65,-56.5 793.65,-56.5"/>
<text text-anchor="middle" x="852.15" y="-63.5" font-family="Helvetica,sans-Serif" font-size="10.00">PowerLawProfile.cpp</text>
</a>
</g>
</g>
<!-- Node1&#45;&gt;Node11 -->
<g id="edge14" class="edge">
<title>Node1&#45;&gt;Node11</title>
<path fill="none" stroke="midnightblue" d="M509.61,-116.19C573.5,-107.02 713.58,-86.9 793.41,-75.44"/>
<polygon fill="midnightblue" stroke="midnightblue" points="509.07,-112.74 499.67,-117.62 510.07,-119.66 509.07,-112.74"/>
</g>
<!-- Node12 -->
<g id="node12" class="node">
<title>Node12</title>
<g id="a_node12"><a xlink:href="_rankine_8cpp.html" target="_top" xlink:title=" ">
<polygon fill="white" stroke="black" points="928.65,-56.5 928.65,-75.5 1005.65,-75.5 1005.65,-56.5 928.65,-56.5"/>
<text text-anchor="middle" x="967.15" y="-63.5" font-family="Helvetica,sans-Serif" font-size="10.00">Rankine.cpp</text>
</a>
</g>
</g>
<!-- Node1&#45;&gt;Node12 -->
<g id="edge15" class="edge">
<title>Node1&#45;&gt;Node12</title>
<path fill="none" stroke="midnightblue" d="M510,-118.59C584.43,-113.08 767.8,-98.26 920.15,-76 922.87,-75.6 925.66,-75.16 928.47,-74.69"/>
<polygon fill="midnightblue" stroke="midnightblue" points="509.55,-115.12 499.83,-119.34 510.06,-122.1 509.55,-115.12"/>
</g>
<!-- Node13 -->
<g id="node13" class="node">
<title>Node13</title>
<g id="a_node13"><a xlink:href="_two_layer_8cpp.html" target="_top" xlink:title=" ">
<polygon fill="white" stroke="black" points="1024.15,-56.5 1024.15,-75.5 1106.15,-75.5 1106.15,-56.5 1024.15,-56.5"/>
<text text-anchor="middle" x="1065.15" y="-63.5" font-family="Helvetica,sans-Serif" font-size="10.00">TwoLayer.cpp</text>
</a>
</g>
</g>
<!-- Node1&#45;&gt;Node13 -->
<g id="edge16" class="edge">
<title>Node1&#45;&gt;Node13</title>
<path fill="none" stroke="midnightblue" d="M510,-119.29C595.13,-114.75 824.98,-101 1015.15,-76 1018.04,-75.62 1021.01,-75.19 1024,-74.73"/>
<polygon fill="midnightblue" stroke="midnightblue" points="509.68,-115.8 499.88,-119.82 510.05,-122.79 509.68,-115.8"/>
</g>
<!-- Node3&#45;&gt;Node2 -->
<g id="edge3" class="edge">
<title>Node3&#45;&gt;Node2</title>
<path fill="none" stroke="midnightblue" d="M319.3,-53.87C279.5,-43.28 220.72,-27.64 186.25,-18.47"/>
<polygon fill="midnightblue" stroke="midnightblue" points="318.42,-57.26 328.99,-56.44 320.22,-50.49 318.42,-57.26"/>
</g>
<!-- Node4 -->
<g id="node4" class="node">
<title>Node4</title>
<g id="a_node4"><a xlink:href="icns__advection_8cpp.html" target="_top" xlink:title=" ">
<polygon fill="white" stroke="black" points="306.15,-0.5 306.15,-19.5 416.15,-19.5 416.15,-0.5 306.15,-0.5"/>
<text text-anchor="middle" x="361.15" y="-7.5" font-family="Helvetica,sans-Serif" font-size="10.00">icns_advection.cpp</text>
</a>
</g>
</g>
<!-- Node3&#45;&gt;Node4 -->
<g id="edge4" class="edge">
<title>Node3&#45;&gt;Node4</title>
<path fill="none" stroke="midnightblue" d="M361.15,-45.8C361.15,-36.91 361.15,-26.78 361.15,-19.75"/>
<polygon fill="midnightblue" stroke="midnightblue" points="357.65,-46.08 361.15,-56.08 364.65,-46.08 357.65,-46.08"/>
</g>
<!-- Node5&#45;&gt;Node2 -->
<g id="edge6" class="edge">
<title>Node5&#45;&gt;Node2</title>
<path fill="none" stroke="midnightblue" d="M80.73,-51.59C99.78,-41.61 125.22,-28.27 141.65,-19.65"/>
<polygon fill="midnightblue" stroke="midnightblue" points="78.93,-48.58 71.7,-56.32 82.18,-54.78 78.93,-48.58"/>
</g>
<!-- Node6&#45;&gt;Node2 -->
<g id="edge8" class="edge">
<title>Node6&#45;&gt;Node2</title>
<path fill="none" stroke="midnightblue" d="M158.15,-45.8C158.15,-36.91 158.15,-26.78 158.15,-19.75"/>
<polygon fill="midnightblue" stroke="midnightblue" points="154.65,-46.08 158.15,-56.08 161.65,-46.08 154.65,-46.08"/>
</g>
<!-- Node7&#45;&gt;Node2 -->
<g id="edge10" class="edge">
<title>Node7&#45;&gt;Node2</title>
<path fill="none" stroke="midnightblue" d="M233.07,-51.45C214.6,-41.48 190.06,-28.23 174.18,-19.65"/>
<polygon fill="midnightblue" stroke="midnightblue" points="231.62,-54.65 242.09,-56.32 234.95,-48.49 231.62,-54.65"/>
</g>
</g>
</svg>
