<?xml version="1.0" encoding="UTF-8" standalone="no"?>
<!DOCTYPE svg PUBLIC "-//W3C//DTD SVG 1.1//EN"
 "http://www.w3.org/Graphics/SVG/1.1/DTD/svg11.dtd">
<!-- Generated by graphviz version 2.43.0 (0)
 -->
<!-- Title: incflo_mol_fluxes.cpp Pages: 1 -->
<!--zoomable 341 -->
<svg id="main" version="1.1" xmlns="http://www.w3.org/2000/svg" xmlns:xlink="http://www.w3.org/1999/xlink" xml:space="preserve" onload="init(evt)">
<style type="text/css"><![CDATA[
.edge:hover path { stroke: red; }
.edge:hover polygon { stroke: red; fill: red; }
]]></style>
<script type="text/javascript"><![CDATA[
var edges = document.getElementsByTagName('g');
if (edges && edges.length) {
  for (var i=0;i<edges.length;i++) {
    if (edges[i].id.substr(0,4)=='edge') {
      edges[i].setAttribute('class','edge');
    }
  }
}
]]></script>
        <defs>
                <circle id="rim" cx="0" cy="0" r="7"/>
                <circle id="rim2" cx="0" cy="0" r="3.5"/>
                <g id="zoomPlus">
                        <use xlink:href="#rim" fill="#404040">
                                <set attributeName="fill" to="#808080" begin="zoomplus.mouseover" end="zoomplus.mouseout"/>
                        </use>
                        <path d="M-4,0h8M0,-4v8" fill="none" stroke="white" stroke-width="1.5" pointer-events="none"/>
                </g>
                <g id="zoomMin">
                        <use xlink:href="#rim" fill="#404040">
                                <set attributeName="fill" to="#808080" begin="zoomminus.mouseover" end="zoomminus.mouseout"/>
                        </use>
                        <path d="M-4,0h8" fill="none" stroke="white" stroke-width="1.5" pointer-events="none"/>
                </g>
                <g id="dirArrow">
                        <path fill="none" stroke="white" stroke-width="1.5" d="M0,-3.0v7 M-2.5,-0.5L0,-3.0L2.5,-0.5"/>
                </g>
               <g id="resetDef">
                       <use xlink:href="#rim2" fill="#404040">
                               <set attributeName="fill" to="#808080" begin="reset.mouseover" end="reset.mouseout"/>
                       </use>
               </g>
        </defs>

<script type="text/javascript">
var viewWidth = 1870;
var viewHeight = 341;
var sectionId = 'dynsection-0';
</script>
<script xlink:href="svgpan.js"/>
<svg id="graph" class="graph">
<g id="viewport">
<title>incflo_mol_fluxes.cpp</title>
<polygon fill="white" stroke="transparent" points="-4,4 -4,-337 1865.77,-337 1865.77,4 -4,4"/>
<!-- Node1 -->
<g id="node1" class="node">
<title>Node1</title>
<g id="a_node1"><a xlink:title=" ">
<polygon fill="#bfbfbf" stroke="black" points="960.5,-313.5 960.5,-332.5 1081.5,-332.5 1081.5,-313.5 960.5,-313.5"/>
<text text-anchor="middle" x="1021" y="-320.5" font-family="Helvetica,sans-Serif" font-size="10.00">incflo_mol_fluxes.cpp</text>
</a>
</g>
</g>
<!-- Node2 -->
<g id="node2" class="node">
<title>Node2</title>
<g id="a_node2"><a xlink:title=" ">
<polygon fill="white" stroke="#bfbfbf" points="764.5,-252 764.5,-271 879.5,-271 879.5,-252 764.5,-252"/>
<text text-anchor="middle" x="822" y="-259" font-family="Helvetica,sans-Serif" font-size="10.00">AMReX_Geometry.H</text>
</a>
</g>
</g>
<!-- Node1&#45;&gt;Node2 -->
<g id="edge1" class="edge">
<title>Node1&#45;&gt;Node2</title>
<path fill="none" stroke="midnightblue" d="M992.49,-313.48C957.76,-303.09 898.96,-285.51 860.31,-273.95"/>
<polygon fill="midnightblue" stroke="midnightblue" points="861.04,-270.52 850.46,-271.01 859.04,-277.23 861.04,-270.52"/>
</g>
<!-- Node3 -->
<g id="node3" class="node">
<title>Node3</title>
<g id="a_node3"><a xlink:title=" ">
<polygon fill="white" stroke="#bfbfbf" points="898,-252 898,-271 1010,-271 1010,-252 898,-252"/>
<text text-anchor="middle" x="954" y="-259" font-family="Helvetica,sans-Serif" font-size="10.00">AMReX_Slopes_K.H</text>
</a>
</g>
</g>
<!-- Node1&#45;&gt;Node3 -->
<g id="edge2" class="edge">
<title>Node1&#45;&gt;Node3</title>
<path fill="none" stroke="midnightblue" d="M1011.4,-313.48C1000.95,-304.2 984.03,-289.17 971.26,-277.83"/>
<polygon fill="midnightblue" stroke="midnightblue" points="973.38,-275.03 963.58,-271.01 968.73,-280.27 973.38,-275.03"/>
</g>
<!-- Node4 -->
<g id="node4" class="node">
<title>Node4</title>
<g id="a_node4"><a xlink:href="_m_o_l_8_h.html" target="_top" xlink:title=" ">
<polygon fill="white" stroke="black" points="1028.5,-246.5 1028.5,-276.5 1147.5,-276.5 1147.5,-246.5 1028.5,-246.5"/>
<text text-anchor="start" x="1036.5" y="-264.5" font-family="Helvetica,sans-Serif" font-size="10.00">amr&#45;wind/convection</text>
<text text-anchor="middle" x="1088" y="-253.5" font-family="Helvetica,sans-Serif" font-size="10.00">/MOL.H</text>
</a>
</g>
</g>
<!-- Node1&#45;&gt;Node4 -->
<g id="edge3" class="edge">
<title>Node1&#45;&gt;Node4</title>
<path fill="none" stroke="midnightblue" d="M1030.6,-313.48C1039.42,-305.64 1052.85,-293.71 1064.5,-283.37"/>
<polygon fill="midnightblue" stroke="midnightblue" points="1067.06,-285.78 1072.21,-276.52 1062.41,-280.55 1067.06,-285.78"/>
</g>
<!-- Node27 -->
<g id="node27" class="node">
<title>Node27</title>
<g id="a_node27"><a xlink:href="bc__ops_8_h.html" target="_top" xlink:title="Boundary condition utilities.">
<polygon fill="white" stroke="black" points="1463.5,-179.5 1463.5,-209.5 1566.5,-209.5 1566.5,-179.5 1463.5,-179.5"/>
<text text-anchor="start" x="1471.5" y="-197.5" font-family="Helvetica,sans-Serif" font-size="10.00">amr&#45;wind/utilities</text>
<text text-anchor="middle" x="1515" y="-186.5" font-family="Helvetica,sans-Serif" font-size="10.00">/bc_ops.H</text>
</a>
</g>
</g>
<!-- Node1&#45;&gt;Node27 -->
<g id="edge50" class="edge">
<title>Node1&#45;&gt;Node27</title>
<path fill="none" stroke="midnightblue" d="M1054.57,-313.4C1136.61,-292.39 1348.29,-238.19 1453.6,-211.22"/>
<polygon fill="midnightblue" stroke="midnightblue" points="1454.64,-214.57 1463.46,-208.7 1452.9,-207.79 1454.64,-214.57"/>
</g>
<!-- Node5 -->
<g id="node5" class="node">
<title>Node5</title>
<g id="a_node5"><a xlink:href="_field_repo_8_h.html" target="_top" xlink:title=" ">
<polygon fill="white" stroke="black" points="899.5,-185 899.5,-204 1048.5,-204 1048.5,-185 899.5,-185"/>
<text text-anchor="middle" x="974" y="-192" font-family="Helvetica,sans-Serif" font-size="10.00">amr&#45;wind/core/FieldRepo.H</text>
</a>
</g>
</g>
<!-- Node4&#45;&gt;Node5 -->
<g id="edge4" class="edge">
<title>Node4&#45;&gt;Node5</title>
<path fill="none" stroke="midnightblue" d="M1063.26,-246.4C1043.79,-235.29 1016.83,-219.92 997.65,-208.98"/>
<polygon fill="midnightblue" stroke="midnightblue" points="999.34,-205.92 988.92,-204.01 995.87,-212 999.34,-205.92"/>
</g>
<!-- Node6 -->
<g id="node6" class="node">
<title>Node6</title>
<g id="a_node6"><a xlink:title=" ">
<polygon fill="white" stroke="#bfbfbf" points="892,-0.5 892,-19.5 936,-19.5 936,-0.5 892,-0.5"/>
<text text-anchor="middle" x="914" y="-7.5" font-family="Helvetica,sans-Serif" font-size="10.00">string</text>
</a>
</g>
</g>
<!-- Node5&#45;&gt;Node6 -->
<g id="edge5" class="edge">
<title>Node5&#45;&gt;Node6</title>
<path fill="none" stroke="midnightblue" d="M1048.52,-193.21C1279.62,-191.05 1962.12,-174.69 1849,-56 1817.22,-22.65 1107.95,-13.07 946.5,-11.32"/>
<polygon fill="midnightblue" stroke="midnightblue" points="946.29,-7.82 936.26,-11.21 946.22,-14.82 946.29,-7.82"/>
</g>
<!-- Node7 -->
<g id="node7" class="node">
<title>Node7</title>
<g id="a_node7"><a xlink:title=" ">
<polygon fill="white" stroke="#bfbfbf" points="1091.5,-56.5 1091.5,-75.5 1184.5,-75.5 1184.5,-56.5 1091.5,-56.5"/>
<text text-anchor="middle" x="1138" y="-63.5" font-family="Helvetica,sans-Serif" font-size="10.00">unordered_map</text>
</a>
</g>
</g>
<!-- Node5&#45;&gt;Node7 -->
<g id="edge6" class="edge">
<title>Node5&#45;&gt;Node7</title>
<path fill="none" stroke="midnightblue" d="M985.27,-184.81C1012.89,-163.5 1084.2,-108.5 1118.72,-81.88"/>
<polygon fill="midnightblue" stroke="midnightblue" points="1120.87,-84.63 1126.65,-75.76 1116.59,-79.09 1120.87,-84.63"/>
</g>
<!-- Node8 -->
<g id="node8" class="node">
<title>Node8</title>
<g id="a_node8"><a xlink:href="_field_desc_types_8_h.html" target="_top" xlink:title=" ">
<polygon fill="white" stroke="black" points="500,-0.5 500,-19.5 676,-19.5 676,-0.5 500,-0.5"/>
<text text-anchor="middle" x="588" y="-7.5" font-family="Helvetica,sans-Serif" font-size="10.00">amr&#45;wind/core/FieldDescTypes.H</text>
</a>
</g>
</g>
<!-- Node5&#45;&gt;Node8 -->
<g id="edge7" class="edge">
<title>Node5&#45;&gt;Node8</title>
<path fill="none" stroke="midnightblue" d="M899.28,-193.49C732.25,-192.7 340.08,-186.2 300,-143 290.72,-133 290.96,-69.35 303,-56 327.59,-28.73 417.48,-17.94 489.82,-13.69"/>
<polygon fill="midnightblue" stroke="midnightblue" points="490.11,-17.18 499.9,-13.13 489.73,-10.19 490.11,-17.18"/>
</g>
<!-- Node9 -->
<g id="node9" class="node">
<title>Node9</title>
<g id="a_node9"><a xlink:href="_field_utils_8_h.html" target="_top" xlink:title=" ">
<polygon fill="white" stroke="black" points="0,-56.5 0,-75.5 146,-75.5 146,-56.5 0,-56.5"/>
<text text-anchor="middle" x="73" y="-63.5" font-family="Helvetica,sans-Serif" font-size="10.00">amr&#45;wind/core/FieldUtils.H</text>
</a>
</g>
</g>
<!-- Node5&#45;&gt;Node9 -->
<g id="edge8" class="edge">
<title>Node5&#45;&gt;Node9</title>
<path fill="none" stroke="midnightblue" d="M899.32,-191.61C711.07,-186.45 227.28,-170.66 160,-143 129.07,-130.29 101.53,-101.9 86.08,-83.65"/>
<polygon fill="midnightblue" stroke="midnightblue" points="88.55,-81.13 79.5,-75.61 83.13,-85.57 88.55,-81.13"/>
</g>
<!-- Node10 -->
<g id="node10" class="node">
<title>Node10</title>
<g id="a_node10"><a xlink:title=" ">
<polygon fill="white" stroke="#bfbfbf" points="195.5,-0.5 195.5,-19.5 304.5,-19.5 304.5,-0.5 195.5,-0.5"/>
<text text-anchor="middle" x="250" y="-7.5" font-family="Helvetica,sans-Serif" font-size="10.00">AMReX_MultiFab.H</text>
</a>
</g>
</g>
<!-- Node5&#45;&gt;Node10 -->
<g id="edge48" class="edge">
<title>Node5&#45;&gt;Node10</title>
<path fill="none" stroke="midnightblue" d="M899.32,-192.69C731.74,-190.2 336.71,-180.4 290,-143 255.51,-115.39 249.96,-59.01 249.55,-29.67"/>
<polygon fill="midnightblue" stroke="midnightblue" points="253.05,-29.57 249.6,-19.55 246.05,-29.53 253.05,-29.57"/>
</g>
<!-- Node12 -->
<g id="node12" class="node">
<title>Node12</title>
<g id="a_node12"><a xlink:href="_field_8_h.html" target="_top" xlink:title=" ">
<polygon fill="white" stroke="black" points="1219,-118 1219,-137 1343,-137 1343,-118 1219,-118"/>
<text text-anchor="middle" x="1281" y="-125" font-family="Helvetica,sans-Serif" font-size="10.00">amr&#45;wind/core/Field.H</text>
</a>
</g>
</g>
<!-- Node5&#45;&gt;Node12 -->
<g id="edge12" class="edge">
<title>Node5&#45;&gt;Node12</title>
<path fill="none" stroke="midnightblue" d="M1014.45,-184.94C1070.01,-173.17 1169.92,-152.02 1230.38,-139.22"/>
<polygon fill="midnightblue" stroke="midnightblue" points="1231.4,-142.58 1240.46,-137.08 1229.95,-135.73 1231.4,-142.58"/>
</g>
<!-- Node20 -->
<g id="node20" class="node">
<title>Node20</title>
<g id="a_node20"><a xlink:href="_int_field_8_h.html" target="_top" xlink:title=" ">
<polygon fill="white" stroke="black" points="857.5,-118 857.5,-137 994.5,-137 994.5,-118 857.5,-118"/>
<text text-anchor="middle" x="926" y="-125" font-family="Helvetica,sans-Serif" font-size="10.00">amr&#45;wind/core/IntField.H</text>
</a>
</g>
</g>
<!-- Node5&#45;&gt;Node20 -->
<g id="edge27" class="edge">
<title>Node5&#45;&gt;Node20</title>
<path fill="none" stroke="midnightblue" d="M967.53,-184.73C960.11,-174.7 947.8,-158.01 938.5,-145.42"/>
<polygon fill="midnightblue" stroke="midnightblue" points="941.13,-143.09 932.37,-137.13 935.5,-147.25 941.13,-143.09"/>
</g>
<!-- Node21 -->
<g id="node21" class="node">
<title>Node21</title>
<g id="a_node21"><a xlink:title=" ">
<polygon fill="white" stroke="#bfbfbf" points="961,-56.5 961,-75.5 1073,-75.5 1073,-56.5 961,-56.5"/>
<text text-anchor="middle" x="1017" y="-63.5" font-family="Helvetica,sans-Serif" font-size="10.00">AMReX_iMultiFab.H</text>
</a>
</g>
</g>
<!-- Node5&#45;&gt;Node21 -->
<g id="edge49" class="edge">
<title>Node5&#45;&gt;Node21</title>
<path fill="none" stroke="midnightblue" d="M980.33,-184.65C986.99,-174.91 997.29,-158.57 1003,-143 1009.92,-124.15 1013.53,-101.36 1015.34,-85.69"/>
<polygon fill="midnightblue" stroke="midnightblue" points="1018.83,-85.99 1016.36,-75.68 1011.86,-85.28 1018.83,-85.99"/>
</g>
<!-- Node22 -->
<g id="node22" class="node">
<title>Node22</title>
<g id="a_node22"><a xlink:href="_scratch_field_8_h.html" target="_top" xlink:title=" ">
<polygon fill="white" stroke="black" points="309,-118 309,-137 469,-137 469,-118 309,-118"/>
<text text-anchor="middle" x="389" y="-125" font-family="Helvetica,sans-Serif" font-size="10.00">amr&#45;wind/core/ScratchField.H</text>
</a>
</g>
</g>
<!-- Node5&#45;&gt;Node22 -->
<g id="edge31" class="edge">
<title>Node5&#45;&gt;Node22</title>
<path fill="none" stroke="midnightblue" d="M899.32,-185.2C790.93,-173.16 590.48,-150.89 475.71,-138.13"/>
<polygon fill="midnightblue" stroke="midnightblue" points="475.88,-134.63 465.56,-137.01 475.11,-141.59 475.88,-134.63"/>
</g>
<!-- Node25 -->
<g id="node25" class="node">
<title>Node25</title>
<g id="a_node25"><a xlink:href="_int_scratch_field_8_h.html" target="_top" xlink:title=" ">
<polygon fill="white" stroke="black" points="670.5,-112.5 670.5,-142.5 809.5,-142.5 809.5,-112.5 670.5,-112.5"/>
<text text-anchor="start" x="678.5" y="-130.5" font-family="Helvetica,sans-Serif" font-size="10.00">amr&#45;wind/core/IntScratch</text>
<text text-anchor="middle" x="740" y="-119.5" font-family="Helvetica,sans-Serif" font-size="10.00">Field.H</text>
</a>
</g>
</g>
<!-- Node5&#45;&gt;Node25 -->
<g id="edge39" class="edge">
<title>Node5&#45;&gt;Node25</title>
<path fill="none" stroke="midnightblue" d="M942.93,-184.87C906.67,-174.8 845.89,-157.91 800.28,-145.24"/>
<polygon fill="midnightblue" stroke="midnightblue" points="801.07,-141.83 790.5,-142.53 799.2,-148.58 801.07,-141.83"/>
</g>
<!-- Node26 -->
<g id="node26" class="node">
<title>Node26</title>
<g id="a_node26"><a xlink:title=" ">
<polygon fill="white" stroke="#bfbfbf" points="1361,-118 1361,-137 1471,-137 1471,-118 1361,-118"/>
<text text-anchor="middle" x="1416" y="-125" font-family="Helvetica,sans-Serif" font-size="10.00">AMReX_AmrCore.H</text>
</a>
</g>
</g>
<!-- Node5&#45;&gt;Node26 -->
<g id="edge47" class="edge">
<title>Node5&#45;&gt;Node26</title>
<path fill="none" stroke="midnightblue" d="M1048.54,-185.55C1125.01,-176.92 1247.25,-161.82 1352,-143 1358.18,-141.89 1364.67,-140.58 1371.04,-139.22"/>
<polygon fill="midnightblue" stroke="midnightblue" points="1371.89,-142.62 1380.91,-137.05 1370.39,-135.78 1371.89,-142.62"/>
</g>
<!-- Node9&#45;&gt;Node8 -->
<g id="edge9" class="edge">
<title>Node9&#45;&gt;Node8</title>
<path fill="none" stroke="midnightblue" d="M146.24,-57.32C238.33,-47.66 396.44,-31.09 496.43,-20.6"/>
<polygon fill="midnightblue" stroke="midnightblue" points="496.94,-24.07 506.52,-19.54 496.21,-17.11 496.94,-24.07"/>
</g>
<!-- Node9&#45;&gt;Node10 -->
<g id="edge10" class="edge">
<title>Node9&#45;&gt;Node10</title>
<path fill="none" stroke="midnightblue" d="M101.05,-56.44C131.08,-47.28 178.91,-32.69 212.24,-22.52"/>
<polygon fill="midnightblue" stroke="midnightblue" points="213.54,-25.78 222.09,-19.52 211.5,-19.09 213.54,-25.78"/>
</g>
<!-- Node11 -->
<g id="node11" class="node">
<title>Node11</title>
<g id="a_node11"><a xlink:title=" ">
<polygon fill="white" stroke="#bfbfbf" points="11,-0.5 11,-19.5 135,-19.5 135,-0.5 11,-0.5"/>
<text text-anchor="middle" x="73" y="-7.5" font-family="Helvetica,sans-Serif" font-size="10.00">AMReX_Interpolater.H</text>
</a>
</g>
</g>
<!-- Node9&#45;&gt;Node11 -->
<g id="edge11" class="edge">
<title>Node9&#45;&gt;Node11</title>
<path fill="none" stroke="midnightblue" d="M73,-56.08C73,-49.01 73,-38.86 73,-29.99"/>
<polygon fill="midnightblue" stroke="midnightblue" points="76.5,-29.75 73,-19.75 69.5,-29.75 76.5,-29.75"/>
</g>
<!-- Node12&#45;&gt;Node6 -->
<g id="edge13" class="edge">
<title>Node12&#45;&gt;Node6</title>
<path fill="none" stroke="midnightblue" d="M1320.35,-117.98C1330.62,-115.89 1341.71,-113.75 1352,-112 1470.68,-91.84 1699.36,-143.8 1617,-56 1593.76,-31.22 1081.1,-15.55 946.26,-11.85"/>
<polygon fill="midnightblue" stroke="midnightblue" points="946.24,-8.35 936.15,-11.57 946.05,-15.34 946.24,-8.35"/>
</g>
<!-- Node12&#45;&gt;Node7 -->
<g id="edge15" class="edge">
<title>Node12&#45;&gt;Node7</title>
<path fill="none" stroke="midnightblue" d="M1260.51,-117.98C1236.19,-107.86 1195.45,-90.9 1167.68,-79.35"/>
<polygon fill="midnightblue" stroke="midnightblue" points="1169.03,-76.12 1158.45,-75.51 1166.34,-82.58 1169.03,-76.12"/>
</g>
<!-- Node12&#45;&gt;Node8 -->
<g id="edge21" class="edge">
<title>Node12&#45;&gt;Node8</title>
<path fill="none" stroke="midnightblue" d="M1277.23,-117.62C1270.06,-101.97 1252.82,-69.83 1227,-56 1123.29,-0.45 821.2,-28.08 686.22,-19.98"/>
<polygon fill="midnightblue" stroke="midnightblue" points="686.24,-16.47 676.02,-19.27 685.75,-23.45 686.24,-16.47"/>
</g>
<!-- Node12&#45;&gt;Node10 -->
<g id="edge17" class="edge">
<title>Node12&#45;&gt;Node10</title>
<path fill="none" stroke="midnightblue" d="M1271.72,-117.82C1253,-100.51 1210.94,-62.79 1193,-56 1172.46,-48.23 525.01,-21.92 315.04,-13.57"/>
<polygon fill="midnightblue" stroke="midnightblue" points="314.92,-10.06 304.78,-13.16 314.64,-17.05 314.92,-10.06"/>
</g>
<!-- Node13 -->
<g id="node13" class="node">
<title>Node13</title>
<g id="a_node13"><a xlink:title=" ">
<polygon fill="white" stroke="#bfbfbf" points="1664,-56.5 1664,-75.5 1722,-75.5 1722,-56.5 1664,-56.5"/>
<text text-anchor="middle" x="1693" y="-63.5" font-family="Helvetica,sans-Serif" font-size="10.00">memory</text>
</a>
</g>
</g>
<!-- Node12&#45;&gt;Node13 -->
<g id="edge14" class="edge">
<title>Node12&#45;&gt;Node13</title>
<path fill="none" stroke="midnightblue" d="M1319.96,-117.95C1330.34,-115.84 1341.57,-113.69 1352,-112 1483.69,-90.64 1518.37,-97.69 1650,-76 1651.27,-75.79 1652.56,-75.57 1653.86,-75.34"/>
<polygon fill="midnightblue" stroke="midnightblue" points="1654.74,-78.74 1663.92,-73.44 1653.44,-71.86 1654.74,-78.74"/>
</g>
<!-- Node14 -->
<g id="node14" class="node">
<title>Node14</title>
<g id="a_node14"><a xlink:title=" ">
<polygon fill="white" stroke="#bfbfbf" points="1279,-56.5 1279,-75.5 1343,-75.5 1343,-56.5 1279,-56.5"/>
<text text-anchor="middle" x="1311" y="-63.5" font-family="Helvetica,sans-Serif" font-size="10.00">algorithm</text>
</a>
</g>
</g>
<!-- Node12&#45;&gt;Node14 -->
<g id="edge16" class="edge">
<title>Node12&#45;&gt;Node14</title>
<path fill="none" stroke="midnightblue" d="M1285.3,-117.98C1289.66,-109.32 1296.56,-95.65 1302.1,-84.65"/>
<polygon fill="midnightblue" stroke="midnightblue" points="1305.33,-86.01 1306.71,-75.51 1299.08,-82.86 1305.33,-86.01"/>
</g>
<!-- Node15 -->
<g id="node15" class="node">
<title>Node15</title>
<g id="a_node15"><a xlink:title=" ">
<polygon fill="white" stroke="#bfbfbf" points="1740.5,-56.5 1740.5,-75.5 1839.5,-75.5 1839.5,-56.5 1740.5,-56.5"/>
<text text-anchor="middle" x="1790" y="-63.5" font-family="Helvetica,sans-Serif" font-size="10.00">AMReX_BCRec.H</text>
</a>
</g>
</g>
<!-- Node12&#45;&gt;Node15 -->
<g id="edge18" class="edge">
<title>Node12&#45;&gt;Node15</title>
<path fill="none" stroke="midnightblue" d="M1318.82,-118C1329.51,-115.81 1341.17,-113.61 1352,-112 1516.16,-87.51 1561.37,-96.41 1730.46,-75.99"/>
<polygon fill="midnightblue" stroke="midnightblue" points="1730.95,-79.46 1740.45,-74.77 1730.1,-72.51 1730.95,-79.46"/>
</g>
<!-- Node16 -->
<g id="node16" class="node">
<title>Node16</title>
<g id="a_node16"><a xlink:title=" ">
<polygon fill="white" stroke="#bfbfbf" points="1361.5,-56.5 1361.5,-75.5 1448.5,-75.5 1448.5,-56.5 1361.5,-56.5"/>
<text text-anchor="middle" x="1405" y="-63.5" font-family="Helvetica,sans-Serif" font-size="10.00">AMReX_Gpu.H</text>
</a>
</g>
</g>
<!-- Node12&#45;&gt;Node16 -->
<g id="edge19" class="edge">
<title>Node12&#45;&gt;Node16</title>
<path fill="none" stroke="midnightblue" d="M1298.77,-117.98C1319.48,-108.03 1353.95,-91.49 1377.99,-79.96"/>
<polygon fill="midnightblue" stroke="midnightblue" points="1379.77,-82.99 1387.27,-75.51 1376.74,-76.68 1379.77,-82.99"/>
</g>
<!-- Node17 -->
<g id="node17" class="node">
<title>Node17</title>
<g id="a_node17"><a xlink:href="incflo__enums_8_h.html" target="_top" xlink:title=" ">
<polygon fill="white" stroke="black" points="1466.5,-56.5 1466.5,-75.5 1607.5,-75.5 1607.5,-56.5 1466.5,-56.5"/>
<text text-anchor="middle" x="1537" y="-63.5" font-family="Helvetica,sans-Serif" font-size="10.00">amr&#45;wind/incflo_enums.H</text>
</a>
</g>
</g>
<!-- Node12&#45;&gt;Node17 -->
<g id="edge20" class="edge">
<title>Node12&#45;&gt;Node17</title>
<path fill="none" stroke="midnightblue" d="M1317.68,-117.98C1363.21,-107.39 1440.9,-89.34 1490.55,-77.8"/>
<polygon fill="midnightblue" stroke="midnightblue" points="1491.44,-81.18 1500.39,-75.51 1489.86,-74.36 1491.44,-81.18"/>
</g>
<!-- Node18 -->
<g id="node18" class="node">
<title>Node18</title>
<g id="a_node18"><a xlink:href="_view_field_8_h.html" target="_top" xlink:title=" ">
<polygon fill="white" stroke="black" points="643,-56.5 643,-75.5 791,-75.5 791,-56.5 643,-56.5"/>
<text text-anchor="middle" x="717" y="-63.5" font-family="Helvetica,sans-Serif" font-size="10.00">amr&#45;wind/core/ViewField.H</text>
</a>
</g>
</g>
<!-- Node12&#45;&gt;Node18 -->
<g id="edge22" class="edge">
<title>Node12&#45;&gt;Node18</title>
<path fill="none" stroke="midnightblue" d="M1218.76,-119.93C1117.12,-109.21 915.4,-87.93 801.12,-75.87"/>
<polygon fill="midnightblue" stroke="midnightblue" points="801.33,-72.38 791.01,-74.81 800.59,-79.34 801.33,-72.38"/>
</g>
<!-- Node18&#45;&gt;Node6 -->
<g id="edge23" class="edge">
<title>Node18&#45;&gt;Node6</title>
<path fill="none" stroke="midnightblue" d="M748.22,-56.44C784.81,-46.41 845.14,-29.88 882.05,-19.76"/>
<polygon fill="midnightblue" stroke="midnightblue" points="883.08,-23.11 891.8,-17.09 881.23,-16.35 883.08,-23.11"/>
</g>
<!-- Node18&#45;&gt;Node8 -->
<g id="edge24" class="edge">
<title>Node18&#45;&gt;Node8</title>
<path fill="none" stroke="midnightblue" d="M696.56,-56.44C675.33,-47.56 641.9,-33.56 617.75,-23.45"/>
<polygon fill="midnightblue" stroke="midnightblue" points="618.92,-20.15 608.34,-19.52 616.22,-26.61 618.92,-20.15"/>
</g>
<!-- Node18&#45;&gt;Node10 -->
<g id="edge25" class="edge">
<title>Node18&#45;&gt;Node10</title>
<path fill="none" stroke="midnightblue" d="M643.26,-56.47C552.86,-46.02 401.09,-28.47 314.92,-18.51"/>
<polygon fill="midnightblue" stroke="midnightblue" points="315.08,-15 304.75,-17.33 314.28,-21.96 315.08,-15"/>
</g>
<!-- Node19 -->
<g id="node19" class="node">
<title>Node19</title>
<g id="a_node19"><a xlink:title=" ">
<polygon fill="white" stroke="#bfbfbf" points="694,-0.5 694,-19.5 792,-19.5 792,-0.5 694,-0.5"/>
<text text-anchor="middle" x="743" y="-7.5" font-family="Helvetica,sans-Serif" font-size="10.00">AMReX_Vector.H</text>
</a>
</g>
</g>
<!-- Node18&#45;&gt;Node19 -->
<g id="edge26" class="edge">
<title>Node18&#45;&gt;Node19</title>
<path fill="none" stroke="midnightblue" d="M721.29,-56.08C724.85,-48.69 730.02,-37.95 734.42,-28.81"/>
<polygon fill="midnightblue" stroke="midnightblue" points="737.6,-30.28 738.79,-19.75 731.29,-27.24 737.6,-30.28"/>
</g>
<!-- Node20&#45;&gt;Node6 -->
<g id="edge28" class="edge">
<title>Node20&#45;&gt;Node6</title>
<path fill="none" stroke="midnightblue" d="M925.1,-117.82C923.17,-99.26 918.61,-55.34 915.97,-29.97"/>
<polygon fill="midnightblue" stroke="midnightblue" points="919.43,-29.37 914.91,-19.78 912.46,-30.09 919.43,-29.37"/>
</g>
<!-- Node20&#45;&gt;Node8 -->
<g id="edge29" class="edge">
<title>Node20&#45;&gt;Node8</title>
<path fill="none" stroke="midnightblue" d="M913.74,-117.97C891.89,-103.15 844.34,-72.67 800,-56 755.75,-39.36 703.87,-28.22 662.51,-21.18"/>
<polygon fill="midnightblue" stroke="midnightblue" points="662.94,-17.7 652.5,-19.52 661.8,-24.61 662.94,-17.7"/>
</g>
<!-- Node20&#45;&gt;Node21 -->
<g id="edge30" class="edge">
<title>Node20&#45;&gt;Node21</title>
<path fill="none" stroke="midnightblue" d="M939.04,-117.98C953.77,-108.34 977.97,-92.52 995.51,-81.05"/>
<polygon fill="midnightblue" stroke="midnightblue" points="997.53,-83.91 1003.99,-75.51 993.7,-78.05 997.53,-83.91"/>
</g>
<!-- Node22&#45;&gt;Node6 -->
<g id="edge32" class="edge">
<title>Node22&#45;&gt;Node6</title>
<path fill="none" stroke="midnightblue" d="M384.65,-117.82C377.94,-103.06 367.38,-73.01 383,-56 385.13,-53.68 766.88,-22.83 881.7,-13.59"/>
<polygon fill="midnightblue" stroke="midnightblue" points="882.27,-17.06 891.96,-12.77 881.71,-10.08 882.27,-17.06"/>
</g>
<!-- Node22&#45;&gt;Node8 -->
<g id="edge34" class="edge">
<title>Node22&#45;&gt;Node8</title>
<path fill="none" stroke="midnightblue" d="M366.59,-117.91C337,-105.34 290.99,-80.72 312,-56 334.74,-29.25 419.89,-18.36 489.66,-13.95"/>
<polygon fill="midnightblue" stroke="midnightblue" points="490.06,-17.43 499.84,-13.35 489.65,-10.45 490.06,-17.43"/>
</g>
<!-- Node22&#45;&gt;Node10 -->
<g id="edge36" class="edge">
<title>Node22&#45;&gt;Node10</title>
<path fill="none" stroke="midnightblue" d="M350.56,-117.93C325.75,-110.59 294.41,-97.67 274,-76 262.03,-63.28 255.91,-44.09 252.87,-29.85"/>
<polygon fill="midnightblue" stroke="midnightblue" points="256.26,-28.92 251.03,-19.71 249.37,-30.17 256.26,-28.92"/>
</g>
<!-- Node22&#45;&gt;Node18 -->
<g id="edge35" class="edge">
<title>Node22&#45;&gt;Node18</title>
<path fill="none" stroke="midnightblue" d="M435.99,-117.98C495.18,-107.24 596.79,-88.81 660.25,-77.29"/>
<polygon fill="midnightblue" stroke="midnightblue" points="660.88,-80.74 670.09,-75.51 659.63,-73.85 660.88,-80.74"/>
</g>
<!-- Node22&#45;&gt;Node19 -->
<g id="edge37" class="edge">
<title>Node22&#45;&gt;Node19</title>
<path fill="none" stroke="midnightblue" d="M377.95,-117.91C361.08,-103.8 332.61,-75.35 350,-56 398.13,-2.42 594.95,-27.62 683.93,-19.86"/>
<polygon fill="midnightblue" stroke="midnightblue" points="684.41,-23.33 693.98,-18.77 683.66,-16.37 684.41,-23.33"/>
</g>
<!-- Node23 -->
<g id="node23" class="node">
<title>Node23</title>
<g id="a_node23"><a xlink:title=" ">
<polygon fill="white" stroke="#bfbfbf" points="392.5,-56.5 392.5,-75.5 437.5,-75.5 437.5,-56.5 392.5,-56.5"/>
<text text-anchor="middle" x="415" y="-63.5" font-family="Helvetica,sans-Serif" font-size="10.00">utility</text>
</a>
</g>
</g>
<!-- Node22&#45;&gt;Node23 -->
<g id="edge33" class="edge">
<title>Node22&#45;&gt;Node23</title>
<path fill="none" stroke="midnightblue" d="M392.73,-117.98C396.47,-109.4 402.36,-95.93 407.14,-84.98"/>
<polygon fill="midnightblue" stroke="midnightblue" points="410.48,-86.07 411.28,-75.51 404.07,-83.27 410.48,-86.07"/>
</g>
<!-- Node24 -->
<g id="node24" class="node">
<title>Node24</title>
<g id="a_node24"><a xlink:title=" ">
<polygon fill="white" stroke="#bfbfbf" points="455.5,-56.5 455.5,-75.5 586.5,-75.5 586.5,-56.5 455.5,-56.5"/>
<text text-anchor="middle" x="521" y="-63.5" font-family="Helvetica,sans-Serif" font-size="10.00">AMReX_PhysBCFunct.H</text>
</a>
</g>
</g>
<!-- Node22&#45;&gt;Node24 -->
<g id="edge38" class="edge">
<title>Node22&#45;&gt;Node24</title>
<path fill="none" stroke="midnightblue" d="M407.91,-117.98C430.16,-107.95 467.31,-91.2 492.93,-79.65"/>
<polygon fill="midnightblue" stroke="midnightblue" points="494.44,-82.81 502.12,-75.51 491.57,-76.43 494.44,-82.81"/>
</g>
<!-- Node25&#45;&gt;Node6 -->
<g id="edge40" class="edge">
<title>Node25&#45;&gt;Node6</title>
<path fill="none" stroke="midnightblue" d="M761.34,-112.34C794.68,-90.2 858.8,-47.64 892.34,-25.38"/>
<polygon fill="midnightblue" stroke="midnightblue" points="894.54,-28.12 900.94,-19.67 890.67,-22.28 894.54,-28.12"/>
</g>
<!-- Node25&#45;&gt;Node8 -->
<g id="edge42" class="edge">
<title>Node25&#45;&gt;Node8</title>
<path fill="none" stroke="midnightblue" d="M698.4,-112.43C677.58,-104.04 652.87,-91.89 634,-76 618.19,-62.69 605.16,-42.76 597.05,-28.48"/>
<polygon fill="midnightblue" stroke="midnightblue" points="600.1,-26.76 592.25,-19.64 593.95,-30.1 600.1,-26.76"/>
</g>
<!-- Node25&#45;&gt;Node18 -->
<g id="edge43" class="edge">
<title>Node25&#45;&gt;Node18</title>
<path fill="none" stroke="midnightblue" d="M734.55,-112.4C731.38,-104.2 727.35,-93.78 723.96,-84.99"/>
<polygon fill="midnightblue" stroke="midnightblue" points="727.22,-83.72 720.35,-75.66 720.69,-86.25 727.22,-83.72"/>
</g>
<!-- Node25&#45;&gt;Node19 -->
<g id="edge45" class="edge">
<title>Node25&#45;&gt;Node19</title>
<path fill="none" stroke="midnightblue" d="M765.41,-112.48C778.35,-103.83 792.82,-91.43 800,-76 809.46,-55.68 788.48,-36.94 769.36,-24.86"/>
<polygon fill="midnightblue" stroke="midnightblue" points="770.93,-21.73 760.54,-19.64 767.37,-27.75 770.93,-21.73"/>
</g>
<!-- Node25&#45;&gt;Node21 -->
<g id="edge44" class="edge">
<title>Node25&#45;&gt;Node21</title>
<path fill="none" stroke="midnightblue" d="M805.29,-112.47C854.96,-101.81 922.25,-87.35 967.52,-77.63"/>
<polygon fill="midnightblue" stroke="midnightblue" points="968.36,-81.03 977.4,-75.51 966.89,-74.18 968.36,-81.03"/>
</g>
<!-- Node25&#45;&gt;Node23 -->
<g id="edge41" class="edge">
<title>Node25&#45;&gt;Node23</title>
<path fill="none" stroke="midnightblue" d="M670.36,-116.79C612.85,-108.26 528.95,-94.64 447.52,-76.16"/>
<polygon fill="midnightblue" stroke="midnightblue" points="448.14,-72.71 437.61,-73.88 446.57,-79.53 448.14,-72.71"/>
</g>
<!-- Node25&#45;&gt;Node24 -->
<g id="edge46" class="edge">
<title>Node25&#45;&gt;Node24</title>
<path fill="none" stroke="midnightblue" d="M688.38,-112.47C649.94,-102.03 598.14,-87.96 562.4,-78.25"/>
<polygon fill="midnightblue" stroke="midnightblue" points="562.88,-74.75 552.31,-75.51 561.04,-81.51 562.88,-74.75"/>
</g>
<!-- Node27&#45;&gt;Node15 -->
<g id="edge51" class="edge">
<title>Node27&#45;&gt;Node15</title>
<path fill="none" stroke="midnightblue" d="M1545.48,-179.48C1599.21,-154.76 1710.01,-103.8 1761.96,-79.9"/>
<polygon fill="midnightblue" stroke="midnightblue" points="1763.62,-82.99 1771.24,-75.63 1760.69,-76.63 1763.62,-82.99"/>
</g>
</g>
</svg>
        <g id="navigator" transform="translate(0 0)" fill="#404254">
                <rect fill="#f2f5e9" fill-opacity="0.5" stroke="#606060" stroke-width=".5" x="0" y="0" width="60" height="60"/>
                <use id="zoomplus" xlink:href="#zoomPlus" x="17" y="9" onmousedown="handleZoom(evt,'in')"/>
                <use id="zoomminus" xlink:href="#zoomMin" x="42" y="9" onmousedown="handleZoom(evt,'out')"/>
                <use id="reset" xlink:href="#resetDef" x="30" y="36" onmousedown="handleReset()"/>
                <g id="arrowUp" xlink:href="#dirArrow" transform="translate(30 24)" onmousedown="handlePan(0,-1)">
                  <use xlink:href="#rim" fill="#404040">
                        <set attributeName="fill" to="#808080" begin="arrowUp.mouseover" end="arrowUp.mouseout"/>
                  </use>
                  <path fill="none" stroke="white" stroke-width="1.5" d="M0,-3.0v7 M-2.5,-0.5L0,-3.0L2.5,-0.5"/>
                </g>
                <g id="arrowRight" xlink:href="#dirArrow" transform="rotate(90) translate(36 -43)" onmousedown="handlePan(1,0)">
                  <use xlink:href="#rim" fill="#404040">
                        <set attributeName="fill" to="#808080" begin="arrowRight.mouseover" end="arrowRight.mouseout"/>
                  </use>
                  <path fill="none" stroke="white" stroke-width="1.5" d="M0,-3.0v7 M-2.5,-0.5L0,-3.0L2.5,-0.5"/>
                </g>
                <g id="arrowDown" xlink:href="#dirArrow" transform="rotate(180) translate(-30 -48)" onmousedown="handlePan(0,1)">
                  <use xlink:href="#rim" fill="#404040">
                        <set attributeName="fill" to="#808080" begin="arrowDown.mouseover" end="arrowDown.mouseout"/>
                  </use>
                  <path fill="none" stroke="white" stroke-width="1.5" d="M0,-3.0v7 M-2.5,-0.5L0,-3.0L2.5,-0.5"/>
                </g>
                <g id="arrowLeft" xlink:href="#dirArrow" transform="rotate(270) translate(-36 17)" onmousedown="handlePan(-1,0)">
                  <use xlink:href="#rim" fill="#404040">
                        <set attributeName="fill" to="#808080" begin="arrowLeft.mouseover" end="arrowLeft.mouseout"/>
                  </use>
                  <path fill="none" stroke="white" stroke-width="1.5" d="M0,-3.0v7 M-2.5,-0.5L0,-3.0L2.5,-0.5"/>
                </g>
        </g>
        <svg viewBox="0 0 15 15" width="100%" height="30px" preserveAspectRatio="xMaxYMin meet">
         <g id="arrow_out" transform="scale(0.3 0.3)">
          <a xlink:href="incflo__mol__fluxes_8cpp__incl_org.svg" target="_base">
           <rect id="button" ry="5" rx="5" y="6" x="6" height="38" width="38"
                fill="#f2f5e9" fill-opacity="0.5" stroke="#606060" stroke-width="1.0"/>
           <path id="arrow"
             d="M 11.500037,31.436501 C 11.940474,20.09759 22.043105,11.32322 32.158766,21.979434 L 37.068811,17.246167 C 37.068811,17.246167 37.088388,32 37.088388,32 L 22.160133,31.978069 C 22.160133,31.978069 26.997745,27.140456 26.997745,27.140456 C 18.528582,18.264221 13.291696,25.230495 11.500037,31.436501 z"
             style="fill:#404040;"/>
          </a>
         </g>
        </svg>
</svg>
