<?xml version="1.0" encoding="UTF-8" standalone="no"?>
<!DOCTYPE svg PUBLIC "-//W3C//DTD SVG 1.1//EN"
 "http://www.w3.org/Graphics/SVG/1.1/DTD/svg11.dtd">
<!-- Generated by graphviz version 2.43.0 (0)
 -->
<!-- Title: incflo_godunov_predict.cpp Pages: 1 -->
<svg width="1861pt" height="330pt"
 viewBox="0.00 0.00 1860.57 330.00" xmlns="http://www.w3.org/2000/svg" xmlns:xlink="http://www.w3.org/1999/xlink">
<g id="graph0" class="graph" transform="scale(1 1) rotate(0) translate(4 326)">
<title>incflo_godunov_predict.cpp</title>
<polygon fill="white" stroke="transparent" points="-4,4 -4,-326 1856.57,-326 1856.57,4 -4,4"/>
<!-- Node1 -->
<g id="node1" class="node">
<title>Node1</title>
<g id="a_node1"><a xlink:title=" ">
<polygon fill="#bfbfbf" stroke="black" points="78,-302.5 78,-321.5 227,-321.5 227,-302.5 78,-302.5"/>
<text text-anchor="middle" x="152.5" y="-309.5" font-family="Helvetica,sans-Serif" font-size="10.00">incflo_godunov_predict.cpp</text>
</a>
</g>
</g>
<!-- Node2 -->
<g id="node2" class="node">
<title>Node2</title>
<g id="a_node2"><a xlink:title=" ">
<polygon fill="white" stroke="#bfbfbf" points="0,-56.5 0,-75.5 99,-75.5 99,-56.5 0,-56.5"/>
<text text-anchor="middle" x="49.5" y="-63.5" font-family="Helvetica,sans-Serif" font-size="10.00">AMReX_BCRec.H</text>
</a>
</g>
</g>
<!-- Node1&#45;&gt;Node2 -->
<g id="edge1" class="edge">
<title>Node1&#45;&gt;Node2</title>
<path fill="none" stroke="midnightblue" d="M148.39,-302.34C136.73,-277.68 102.66,-204.83 77.5,-143 69.57,-123.51 61.34,-100.83 55.87,-85.35"/>
<polygon fill="midnightblue" stroke="midnightblue" points="59.03,-83.79 52.42,-75.51 52.43,-86.1 59.03,-83.79"/>
</g>
<!-- Node3 -->
<g id="node3" class="node">
<title>Node3</title>
<g id="a_node3"><a xlink:href="_godunov_8_h.html" target="_top" xlink:title=" ">
<polygon fill="white" stroke="black" points="509,-235.5 509,-265.5 628,-265.5 628,-235.5 509,-235.5"/>
<text text-anchor="start" x="517" y="-253.5" font-family="Helvetica,sans-Serif" font-size="10.00">amr&#45;wind/convection</text>
<text text-anchor="middle" x="568.5" y="-242.5" font-family="Helvetica,sans-Serif" font-size="10.00">/Godunov.H</text>
</a>
</g>
</g>
<!-- Node1&#45;&gt;Node3 -->
<g id="edge2" class="edge">
<title>Node1&#45;&gt;Node3</title>
<path fill="none" stroke="midnightblue" d="M212.1,-302.48C287.83,-291.64 418.33,-272.98 498.65,-261.49"/>
<polygon fill="midnightblue" stroke="midnightblue" points="499.27,-264.94 508.67,-260.06 498.28,-258.01 499.27,-264.94"/>
</g>
<!-- Node25 -->
<g id="node25" class="node">
<title>Node25</title>
<g id="a_node25"><a xlink:href="incflo__godunov__ppm_8_h.html" target="_top" xlink:title=" ">
<polygon fill="white" stroke="black" points="87,-112.5 87,-142.5 218,-142.5 218,-112.5 87,-112.5"/>
<text text-anchor="start" x="95" y="-130.5" font-family="Helvetica,sans-Serif" font-size="10.00">amr&#45;wind/convection</text>
<text text-anchor="middle" x="152.5" y="-119.5" font-family="Helvetica,sans-Serif" font-size="10.00">/incflo_godunov_ppm.H</text>
</a>
</g>
</g>
<!-- Node1&#45;&gt;Node25 -->
<g id="edge49" class="edge">
<title>Node1&#45;&gt;Node25</title>
<path fill="none" stroke="midnightblue" d="M152.5,-302.2C152.5,-275.39 152.5,-194.09 152.5,-152.93"/>
<polygon fill="midnightblue" stroke="midnightblue" points="156,-152.69 152.5,-142.69 149,-152.69 156,-152.69"/>
</g>
<!-- Node4 -->
<g id="node4" class="node">
<title>Node4</title>
<g id="a_node4"><a xlink:href="_field_repo_8_h.html" target="_top" xlink:title=" ">
<polygon fill="white" stroke="black" points="894,-179.5 894,-198.5 1043,-198.5 1043,-179.5 894,-179.5"/>
<text text-anchor="middle" x="968.5" y="-186.5" font-family="Helvetica,sans-Serif" font-size="10.00">amr&#45;wind/core/FieldRepo.H</text>
</a>
</g>
</g>
<!-- Node3&#45;&gt;Node4 -->
<g id="edge3" class="edge">
<title>Node3&#45;&gt;Node4</title>
<path fill="none" stroke="midnightblue" d="M628.38,-240.59C701.49,-229.72 824.79,-211.38 901.14,-200.02"/>
<polygon fill="midnightblue" stroke="midnightblue" points="901.75,-203.47 911.13,-198.53 900.72,-196.54 901.75,-203.47"/>
</g>
<!-- Node5 -->
<g id="node5" class="node">
<title>Node5</title>
<g id="a_node5"><a xlink:title=" ">
<polygon fill="white" stroke="#bfbfbf" points="888.5,-0.5 888.5,-19.5 932.5,-19.5 932.5,-0.5 888.5,-0.5"/>
<text text-anchor="middle" x="910.5" y="-7.5" font-family="Helvetica,sans-Serif" font-size="10.00">string</text>
</a>
</g>
</g>
<!-- Node4&#45;&gt;Node5 -->
<g id="edge4" class="edge">
<title>Node4&#45;&gt;Node5</title>
<path fill="none" stroke="midnightblue" d="M906.88,-179.45C864.52,-172.16 813.64,-160.13 800.5,-143 776.96,-112.32 778.95,-88.1 800.5,-56 817.68,-30.4 852.28,-19.36 878.11,-14.6"/>
<polygon fill="midnightblue" stroke="midnightblue" points="878.9,-18.01 888.22,-12.96 877.79,-11.1 878.9,-18.01"/>
</g>
<!-- Node6 -->
<g id="node6" class="node">
<title>Node6</title>
<g id="a_node6"><a xlink:title=" ">
<polygon fill="white" stroke="#bfbfbf" points="655,-56.5 655,-75.5 748,-75.5 748,-56.5 655,-56.5"/>
<text text-anchor="middle" x="701.5" y="-63.5" font-family="Helvetica,sans-Serif" font-size="10.00">unordered_map</text>
</a>
</g>
</g>
<!-- Node4&#45;&gt;Node6 -->
<g id="edge5" class="edge">
<title>Node4&#45;&gt;Node6</title>
<path fill="none" stroke="midnightblue" d="M893.91,-183.83C852.62,-178.67 801.86,-167.39 762.5,-143 739.42,-128.7 721.3,-102.45 711,-84.87"/>
<polygon fill="midnightblue" stroke="midnightblue" points="713.79,-82.69 705.85,-75.67 707.68,-86.1 713.79,-82.69"/>
</g>
<!-- Node7 -->
<g id="node7" class="node">
<title>Node7</title>
<g id="a_node7"><a xlink:href="_field_desc_types_8_h.html" target="_top" xlink:title=" ">
<polygon fill="white" stroke="black" points="1008.5,-0.5 1008.5,-19.5 1184.5,-19.5 1184.5,-0.5 1008.5,-0.5"/>
<text text-anchor="middle" x="1096.5" y="-7.5" font-family="Helvetica,sans-Serif" font-size="10.00">amr&#45;wind/core/FieldDescTypes.H</text>
</a>
</g>
</g>
<!-- Node4&#45;&gt;Node7 -->
<g id="edge6" class="edge">
<title>Node4&#45;&gt;Node7</title>
<path fill="none" stroke="midnightblue" d="M893.88,-180.18C870.76,-173.84 847.66,-162.64 833.5,-143 825.44,-131.82 827.76,-124.52 833.5,-112 861.65,-50.59 935.97,-26.05 998.46,-16.46"/>
<polygon fill="midnightblue" stroke="midnightblue" points="998.97,-19.92 1008.38,-15.05 997.98,-12.99 998.97,-19.92"/>
</g>
<!-- Node8 -->
<g id="node8" class="node">
<title>Node8</title>
<g id="a_node8"><a xlink:href="_field_utils_8_h.html" target="_top" xlink:title=" ">
<polygon fill="white" stroke="black" points="1693.5,-56.5 1693.5,-75.5 1839.5,-75.5 1839.5,-56.5 1693.5,-56.5"/>
<text text-anchor="middle" x="1766.5" y="-63.5" font-family="Helvetica,sans-Serif" font-size="10.00">amr&#45;wind/core/FieldUtils.H</text>
</a>
</g>
</g>
<!-- Node4&#45;&gt;Node8 -->
<g id="edge7" class="edge">
<title>Node4&#45;&gt;Node8</title>
<path fill="none" stroke="midnightblue" d="M1043.25,-185.81C1185.75,-181.1 1491.21,-168.35 1593.5,-143 1649.48,-129.13 1710.17,-98.46 1742.69,-80.62"/>
<polygon fill="midnightblue" stroke="midnightblue" points="1744.81,-83.44 1751.84,-75.52 1741.4,-77.33 1744.81,-83.44"/>
</g>
<!-- Node9 -->
<g id="node9" class="node">
<title>Node9</title>
<g id="a_node9"><a xlink:title=" ">
<polygon fill="white" stroke="#bfbfbf" points="1594,-0.5 1594,-19.5 1703,-19.5 1703,-0.5 1594,-0.5"/>
<text text-anchor="middle" x="1648.5" y="-7.5" font-family="Helvetica,sans-Serif" font-size="10.00">AMReX_MultiFab.H</text>
</a>
</g>
</g>
<!-- Node4&#45;&gt;Node9 -->
<g id="edge47" class="edge">
<title>Node4&#45;&gt;Node9</title>
<path fill="none" stroke="midnightblue" d="M1043.14,-185.48C1194.85,-179.97 1534.45,-165.49 1648.5,-143 1740.47,-124.87 1793.74,-152.09 1848.5,-76 1853.69,-68.79 1854.05,-62.94 1848.5,-56 1839.83,-45.16 1767.42,-30.82 1712.2,-21.27"/>
<polygon fill="midnightblue" stroke="midnightblue" points="1712.56,-17.78 1702.11,-19.54 1711.38,-24.68 1712.56,-17.78"/>
</g>
<!-- Node11 -->
<g id="node11" class="node">
<title>Node11</title>
<g id="a_node11"><a xlink:href="_field_8_h.html" target="_top" xlink:title=" ">
<polygon fill="white" stroke="black" points="488.5,-118 488.5,-137 612.5,-137 612.5,-118 488.5,-118"/>
<text text-anchor="middle" x="550.5" y="-125" font-family="Helvetica,sans-Serif" font-size="10.00">amr&#45;wind/core/Field.H</text>
</a>
</g>
</g>
<!-- Node4&#45;&gt;Node11 -->
<g id="edge11" class="edge">
<title>Node4&#45;&gt;Node11</title>
<path fill="none" stroke="midnightblue" d="M908.61,-179.48C832.41,-168.63 701.02,-149.93 620.34,-138.44"/>
<polygon fill="midnightblue" stroke="midnightblue" points="620.67,-134.95 610.28,-137.01 619.69,-141.88 620.67,-134.95"/>
</g>
<!-- Node18 -->
<g id="node18" class="node">
<title>Node18</title>
<g id="a_node18"><a xlink:href="_int_field_8_h.html" target="_top" xlink:title=" ">
<polygon fill="white" stroke="black" points="971,-118 971,-137 1108,-137 1108,-118 971,-118"/>
<text text-anchor="middle" x="1039.5" y="-125" font-family="Helvetica,sans-Serif" font-size="10.00">amr&#45;wind/core/IntField.H</text>
</a>
</g>
</g>
<!-- Node4&#45;&gt;Node18 -->
<g id="edge26" class="edge">
<title>Node4&#45;&gt;Node18</title>
<path fill="none" stroke="midnightblue" d="M978.67,-179.48C989.85,-170.11 1008.02,-154.88 1021.59,-143.51"/>
<polygon fill="midnightblue" stroke="midnightblue" points="1023.93,-146.11 1029.35,-137.01 1019.43,-140.75 1023.93,-146.11"/>
</g>
<!-- Node19 -->
<g id="node19" class="node">
<title>Node19</title>
<g id="a_node19"><a xlink:title=" ">
<polygon fill="white" stroke="#bfbfbf" points="918.5,-56.5 918.5,-75.5 1030.5,-75.5 1030.5,-56.5 918.5,-56.5"/>
<text text-anchor="middle" x="974.5" y="-63.5" font-family="Helvetica,sans-Serif" font-size="10.00">AMReX_iMultiFab.H</text>
</a>
</g>
</g>
<!-- Node4&#45;&gt;Node19 -->
<g id="edge48" class="edge">
<title>Node4&#45;&gt;Node19</title>
<path fill="none" stroke="midnightblue" d="M1043.26,-183.68C1071.13,-177.99 1100.18,-166.32 1117.5,-143 1142.83,-108.9 1088.45,-88.57 1039.62,-77.65"/>
<polygon fill="midnightblue" stroke="midnightblue" points="1040.15,-74.18 1029.64,-75.52 1038.69,-81.03 1040.15,-74.18"/>
</g>
<!-- Node20 -->
<g id="node20" class="node">
<title>Node20</title>
<g id="a_node20"><a xlink:href="_scratch_field_8_h.html" target="_top" xlink:title=" ">
<polygon fill="white" stroke="black" points="1424.5,-118 1424.5,-137 1584.5,-137 1584.5,-118 1424.5,-118"/>
<text text-anchor="middle" x="1504.5" y="-125" font-family="Helvetica,sans-Serif" font-size="10.00">amr&#45;wind/core/ScratchField.H</text>
</a>
</g>
</g>
<!-- Node4&#45;&gt;Node20 -->
<g id="edge30" class="edge">
<title>Node4&#45;&gt;Node20</title>
<path fill="none" stroke="midnightblue" d="M1043.03,-179.73C1141.16,-168.83 1313.39,-149.71 1417.41,-138.17"/>
<polygon fill="midnightblue" stroke="midnightblue" points="1418.02,-141.62 1427.57,-137.04 1417.25,-134.66 1418.02,-141.62"/>
</g>
<!-- Node23 -->
<g id="node23" class="node">
<title>Node23</title>
<g id="a_node23"><a xlink:href="_int_scratch_field_8_h.html" target="_top" xlink:title=" ">
<polygon fill="white" stroke="black" points="1165,-112.5 1165,-142.5 1304,-142.5 1304,-112.5 1165,-112.5"/>
<text text-anchor="start" x="1173" y="-130.5" font-family="Helvetica,sans-Serif" font-size="10.00">amr&#45;wind/core/IntScratch</text>
<text text-anchor="middle" x="1234.5" y="-119.5" font-family="Helvetica,sans-Serif" font-size="10.00">Field.H</text>
</a>
</g>
</g>
<!-- Node4&#45;&gt;Node23 -->
<g id="edge38" class="edge">
<title>Node4&#45;&gt;Node23</title>
<path fill="none" stroke="midnightblue" d="M1006.61,-179.48C1047.01,-170.44 1111.79,-155.95 1161.98,-144.72"/>
<polygon fill="midnightblue" stroke="midnightblue" points="1162.81,-148.12 1171.81,-142.52 1161.29,-141.29 1162.81,-148.12"/>
</g>
<!-- Node24 -->
<g id="node24" class="node">
<title>Node24</title>
<g id="a_node24"><a xlink:title=" ">
<polygon fill="white" stroke="#bfbfbf" points="842.5,-118 842.5,-137 952.5,-137 952.5,-118 842.5,-118"/>
<text text-anchor="middle" x="897.5" y="-125" font-family="Helvetica,sans-Serif" font-size="10.00">AMReX_AmrCore.H</text>
</a>
</g>
</g>
<!-- Node4&#45;&gt;Node24 -->
<g id="edge46" class="edge">
<title>Node4&#45;&gt;Node24</title>
<path fill="none" stroke="midnightblue" d="M958.33,-179.48C947.15,-170.11 928.98,-154.88 915.41,-143.51"/>
<polygon fill="midnightblue" stroke="midnightblue" points="917.57,-140.75 907.65,-137.01 913.07,-146.11 917.57,-140.75"/>
</g>
<!-- Node8&#45;&gt;Node7 -->
<g id="edge8" class="edge">
<title>Node8&#45;&gt;Node7</title>
<path fill="none" stroke="midnightblue" d="M1693.2,-59.09C1572.13,-49.33 1330.28,-29.84 1194.6,-18.91"/>
<polygon fill="midnightblue" stroke="midnightblue" points="1194.87,-15.42 1184.62,-18.1 1194.31,-22.39 1194.87,-15.42"/>
</g>
<!-- Node8&#45;&gt;Node9 -->
<g id="edge9" class="edge">
<title>Node8&#45;&gt;Node9</title>
<path fill="none" stroke="midnightblue" d="M1747.8,-56.44C1728.56,-47.64 1698.35,-33.81 1676.3,-23.72"/>
<polygon fill="midnightblue" stroke="midnightblue" points="1677.66,-20.5 1667.11,-19.52 1674.75,-26.86 1677.66,-20.5"/>
</g>
<!-- Node10 -->
<g id="node10" class="node">
<title>Node10</title>
<g id="a_node10"><a xlink:title=" ">
<polygon fill="white" stroke="#bfbfbf" points="1721.5,-0.5 1721.5,-19.5 1845.5,-19.5 1845.5,-0.5 1721.5,-0.5"/>
<text text-anchor="middle" x="1783.5" y="-7.5" font-family="Helvetica,sans-Serif" font-size="10.00">AMReX_Interpolater.H</text>
</a>
</g>
</g>
<!-- Node8&#45;&gt;Node10 -->
<g id="edge10" class="edge">
<title>Node8&#45;&gt;Node10</title>
<path fill="none" stroke="midnightblue" d="M1769.31,-56.08C1771.58,-48.85 1774.87,-38.41 1777.71,-29.4"/>
<polygon fill="midnightblue" stroke="midnightblue" points="1781.08,-30.34 1780.75,-19.75 1774.4,-28.24 1781.08,-30.34"/>
</g>
<!-- Node11&#45;&gt;Node2 -->
<g id="edge17" class="edge">
<title>Node11&#45;&gt;Node2</title>
<path fill="none" stroke="midnightblue" d="M488.41,-120.22C404.64,-111.57 250.53,-95.04 109.3,-76.2"/>
<polygon fill="midnightblue" stroke="midnightblue" points="109.53,-72.7 99.15,-74.84 108.6,-79.64 109.53,-72.7"/>
</g>
<!-- Node11&#45;&gt;Node5 -->
<g id="edge12" class="edge">
<title>Node11&#45;&gt;Node5</title>
<path fill="none" stroke="midnightblue" d="M550.68,-117.97C551.49,-102.88 555.52,-71.6 574.5,-56 620.44,-18.25 803.19,-12.06 878.16,-11.12"/>
<polygon fill="midnightblue" stroke="midnightblue" points="878.44,-14.62 888.41,-11.02 878.37,-7.62 878.44,-14.62"/>
</g>
<!-- Node11&#45;&gt;Node6 -->
<g id="edge14" class="edge">
<title>Node11&#45;&gt;Node6</title>
<path fill="none" stroke="midnightblue" d="M572.13,-117.98C597.92,-107.81 641.21,-90.76 670.54,-79.2"/>
<polygon fill="midnightblue" stroke="midnightblue" points="671.88,-82.43 679.91,-75.51 669.32,-75.92 671.88,-82.43"/>
</g>
<!-- Node11&#45;&gt;Node7 -->
<g id="edge20" class="edge">
<title>Node11&#45;&gt;Node7</title>
<path fill="none" stroke="midnightblue" d="M555.24,-117.66C564.12,-102.08 584.9,-70.06 612.5,-56 629.42,-47.38 861.82,-28.64 998.32,-18.27"/>
<polygon fill="midnightblue" stroke="midnightblue" points="998.68,-21.75 1008.38,-17.5 998.15,-14.77 998.68,-21.75"/>
</g>
<!-- Node11&#45;&gt;Node9 -->
<g id="edge16" class="edge">
<title>Node11&#45;&gt;Node9</title>
<path fill="none" stroke="midnightblue" d="M560.7,-117.81C581.27,-100.49 627.39,-62.74 646.5,-56 668.65,-48.19 1365.63,-21.56 1583.85,-13.4"/>
<polygon fill="midnightblue" stroke="midnightblue" points="1584.01,-16.9 1593.87,-13.03 1583.75,-9.9 1584.01,-16.9"/>
</g>
<!-- Node12 -->
<g id="node12" class="node">
<title>Node12</title>
<g id="a_node12"><a xlink:title=" ">
<polygon fill="white" stroke="#bfbfbf" points="222.5,-56.5 222.5,-75.5 280.5,-75.5 280.5,-56.5 222.5,-56.5"/>
<text text-anchor="middle" x="251.5" y="-63.5" font-family="Helvetica,sans-Serif" font-size="10.00">memory</text>
</a>
</g>
</g>
<!-- Node11&#45;&gt;Node12 -->
<g id="edge13" class="edge">
<title>Node11&#45;&gt;Node12</title>
<path fill="none" stroke="midnightblue" d="M503.23,-117.96C452.9,-108.74 370.69,-93.28 290.31,-76.11"/>
<polygon fill="midnightblue" stroke="midnightblue" points="291.03,-72.68 280.52,-74 289.56,-79.52 291.03,-72.68"/>
</g>
<!-- Node13 -->
<g id="node13" class="node">
<title>Node13</title>
<g id="a_node13"><a xlink:title=" ">
<polygon fill="white" stroke="#bfbfbf" points="298.5,-56.5 298.5,-75.5 362.5,-75.5 362.5,-56.5 298.5,-56.5"/>
<text text-anchor="middle" x="330.5" y="-63.5" font-family="Helvetica,sans-Serif" font-size="10.00">algorithm</text>
</a>
</g>
</g>
<!-- Node11&#45;&gt;Node13 -->
<g id="edge15" class="edge">
<title>Node11&#45;&gt;Node13</title>
<path fill="none" stroke="midnightblue" d="M518.98,-117.98C480.26,-107.5 414.48,-89.71 371.76,-78.16"/>
<polygon fill="midnightblue" stroke="midnightblue" points="372.53,-74.74 361.96,-75.51 370.7,-81.5 372.53,-74.74"/>
</g>
<!-- Node14 -->
<g id="node14" class="node">
<title>Node14</title>
<g id="a_node14"><a xlink:title=" ">
<polygon fill="white" stroke="#bfbfbf" points="117,-56.5 117,-75.5 204,-75.5 204,-56.5 117,-56.5"/>
<text text-anchor="middle" x="160.5" y="-63.5" font-family="Helvetica,sans-Serif" font-size="10.00">AMReX_Gpu.H</text>
</a>
</g>
</g>
<!-- Node11&#45;&gt;Node14 -->
<g id="edge18" class="edge">
<title>Node11&#45;&gt;Node14</title>
<path fill="none" stroke="midnightblue" d="M491.4,-118C426.17,-108.54 317.8,-92.58 214.17,-76.08"/>
<polygon fill="midnightblue" stroke="midnightblue" points="214.59,-72.6 204.16,-74.48 213.48,-79.52 214.59,-72.6"/>
</g>
<!-- Node15 -->
<g id="node15" class="node">
<title>Node15</title>
<g id="a_node15"><a xlink:href="incflo__enums_8_h.html" target="_top" xlink:title=" ">
<polygon fill="white" stroke="black" points="381,-56.5 381,-75.5 522,-75.5 522,-56.5 381,-56.5"/>
<text text-anchor="middle" x="451.5" y="-63.5" font-family="Helvetica,sans-Serif" font-size="10.00">amr&#45;wind/incflo_enums.H</text>
</a>
</g>
</g>
<!-- Node11&#45;&gt;Node15 -->
<g id="edge19" class="edge">
<title>Node11&#45;&gt;Node15</title>
<path fill="none" stroke="midnightblue" d="M536.32,-117.98C520.14,-108.25 493.47,-92.23 474.36,-80.74"/>
<polygon fill="midnightblue" stroke="midnightblue" points="476.03,-77.66 465.66,-75.51 472.43,-83.66 476.03,-77.66"/>
</g>
<!-- Node16 -->
<g id="node16" class="node">
<title>Node16</title>
<g id="a_node16"><a xlink:href="_view_field_8_h.html" target="_top" xlink:title=" ">
<polygon fill="white" stroke="black" points="1124.5,-56.5 1124.5,-75.5 1272.5,-75.5 1272.5,-56.5 1124.5,-56.5"/>
<text text-anchor="middle" x="1198.5" y="-63.5" font-family="Helvetica,sans-Serif" font-size="10.00">amr&#45;wind/core/ViewField.H</text>
</a>
</g>
</g>
<!-- Node11&#45;&gt;Node16 -->
<g id="edge21" class="edge">
<title>Node11&#45;&gt;Node16</title>
<path fill="none" stroke="midnightblue" d="M612.63,-120.79C729.57,-110.06 982.42,-86.84 1114.42,-74.72"/>
<polygon fill="midnightblue" stroke="midnightblue" points="1114.85,-78.2 1124.49,-73.8 1114.21,-71.22 1114.85,-78.2"/>
</g>
<!-- Node16&#45;&gt;Node5 -->
<g id="edge22" class="edge">
<title>Node16&#45;&gt;Node5</title>
<path fill="none" stroke="midnightblue" d="M1152.87,-56.44C1094.1,-45.43 993.48,-26.56 942.35,-16.97"/>
<polygon fill="midnightblue" stroke="midnightblue" points="942.99,-13.53 932.51,-15.13 941.7,-20.41 942.99,-13.53"/>
</g>
<!-- Node16&#45;&gt;Node7 -->
<g id="edge23" class="edge">
<title>Node16&#45;&gt;Node7</title>
<path fill="none" stroke="midnightblue" d="M1182.11,-56.32C1165.83,-47.7 1140.63,-34.36 1121.78,-24.39"/>
<polygon fill="midnightblue" stroke="midnightblue" points="1123.32,-21.24 1112.85,-19.65 1120.05,-27.43 1123.32,-21.24"/>
</g>
<!-- Node16&#45;&gt;Node9 -->
<g id="edge24" class="edge">
<title>Node16&#45;&gt;Node9</title>
<path fill="none" stroke="midnightblue" d="M1269.8,-56.44C1356.16,-46.08 1500.39,-28.77 1583.71,-18.77"/>
<polygon fill="midnightblue" stroke="midnightblue" points="1584.3,-22.23 1593.81,-17.56 1583.46,-15.28 1584.3,-22.23"/>
</g>
<!-- Node17 -->
<g id="node17" class="node">
<title>Node17</title>
<g id="a_node17"><a xlink:title=" ">
<polygon fill="white" stroke="#bfbfbf" points="1251.5,-0.5 1251.5,-19.5 1349.5,-19.5 1349.5,-0.5 1251.5,-0.5"/>
<text text-anchor="middle" x="1300.5" y="-7.5" font-family="Helvetica,sans-Serif" font-size="10.00">AMReX_Vector.H</text>
</a>
</g>
</g>
<!-- Node16&#45;&gt;Node17 -->
<g id="edge25" class="edge">
<title>Node16&#45;&gt;Node17</title>
<path fill="none" stroke="midnightblue" d="M1214.89,-56.32C1231.17,-47.7 1256.37,-34.36 1275.22,-24.39"/>
<polygon fill="midnightblue" stroke="midnightblue" points="1276.95,-27.43 1284.15,-19.65 1273.68,-21.24 1276.95,-27.43"/>
</g>
<!-- Node18&#45;&gt;Node5 -->
<g id="edge27" class="edge">
<title>Node18&#45;&gt;Node5</title>
<path fill="none" stroke="midnightblue" d="M1000.99,-117.95C963.54,-108.77 910.59,-93.17 898.5,-76 888.83,-62.26 894.15,-42.97 900.47,-28.97"/>
<polygon fill="midnightblue" stroke="midnightblue" points="903.68,-30.38 905.06,-19.87 897.43,-27.23 903.68,-30.38"/>
</g>
<!-- Node18&#45;&gt;Node7 -->
<g id="edge28" class="edge">
<title>Node18&#45;&gt;Node7</title>
<path fill="none" stroke="midnightblue" d="M988.51,-117.99C941.93,-107.98 883.92,-88.47 909.5,-56 922.61,-39.36 968.65,-28.16 1011.77,-21.1"/>
<polygon fill="midnightblue" stroke="midnightblue" points="1012.44,-24.54 1021.77,-19.52 1011.35,-17.62 1012.44,-24.54"/>
</g>
<!-- Node18&#45;&gt;Node19 -->
<g id="edge29" class="edge">
<title>Node18&#45;&gt;Node19</title>
<path fill="none" stroke="midnightblue" d="M1030.19,-117.98C1020.05,-108.7 1003.64,-93.67 991.25,-82.33"/>
<polygon fill="midnightblue" stroke="midnightblue" points="993.54,-79.68 983.8,-75.51 988.81,-84.84 993.54,-79.68"/>
</g>
<!-- Node20&#45;&gt;Node5 -->
<g id="edge31" class="edge">
<title>Node20&#45;&gt;Node5</title>
<path fill="none" stroke="midnightblue" d="M1513.39,-117.58C1526.87,-103 1549.23,-73.89 1532.5,-56 1491.97,-12.64 1058.65,-24.99 999.5,-20 980.84,-18.43 960.01,-16.34 943.2,-14.57"/>
<polygon fill="midnightblue" stroke="midnightblue" points="943.11,-11.04 932.79,-13.46 942.37,-18 943.11,-11.04"/>
</g>
<!-- Node20&#45;&gt;Node7 -->
<g id="edge33" class="edge">
<title>Node20&#45;&gt;Node7</title>
<path fill="none" stroke="midnightblue" d="M1521.41,-117.92C1545.69,-104.53 1585.42,-77.92 1565.5,-56 1553.19,-42.46 1328.89,-25.86 1195.01,-17.09"/>
<polygon fill="midnightblue" stroke="midnightblue" points="1194.94,-13.58 1184.73,-16.42 1194.49,-20.57 1194.94,-13.58"/>
</g>
<!-- Node20&#45;&gt;Node9 -->
<g id="edge35" class="edge">
<title>Node20&#45;&gt;Node9</title>
<path fill="none" stroke="midnightblue" d="M1568.49,-117.97C1595.12,-111.07 1623.88,-98.59 1641.5,-76 1651.64,-63.01 1652.53,-43.84 1651.4,-29.69"/>
<polygon fill="midnightblue" stroke="midnightblue" points="1654.86,-29.14 1650.2,-19.63 1647.91,-29.97 1654.86,-29.14"/>
</g>
<!-- Node20&#45;&gt;Node16 -->
<g id="edge34" class="edge">
<title>Node20&#45;&gt;Node16</title>
<path fill="none" stroke="midnightblue" d="M1460.66,-117.98C1405.67,-107.28 1311.43,-88.96 1252.18,-77.44"/>
<polygon fill="midnightblue" stroke="midnightblue" points="1252.75,-73.98 1242.26,-75.51 1251.41,-80.85 1252.75,-73.98"/>
</g>
<!-- Node20&#45;&gt;Node17 -->
<g id="edge36" class="edge">
<title>Node20&#45;&gt;Node17</title>
<path fill="none" stroke="midnightblue" d="M1535.85,-117.99C1573.13,-106.38 1627.48,-83.8 1603.5,-56 1572.71,-20.3 1439.25,-12.47 1360.08,-11.02"/>
<polygon fill="midnightblue" stroke="midnightblue" points="1359.82,-7.52 1349.76,-10.86 1359.71,-14.52 1359.82,-7.52"/>
</g>
<!-- Node21 -->
<g id="node21" class="node">
<title>Node21</title>
<g id="a_node21"><a xlink:title=" ">
<polygon fill="white" stroke="#bfbfbf" points="1329,-56.5 1329,-75.5 1374,-75.5 1374,-56.5 1329,-56.5"/>
<text text-anchor="middle" x="1351.5" y="-63.5" font-family="Helvetica,sans-Serif" font-size="10.00">utility</text>
</a>
</g>
</g>
<!-- Node20&#45;&gt;Node21 -->
<g id="edge32" class="edge">
<title>Node20&#45;&gt;Node21</title>
<path fill="none" stroke="midnightblue" d="M1482.58,-117.98C1456.45,-107.81 1412.59,-90.76 1382.87,-79.2"/>
<polygon fill="midnightblue" stroke="midnightblue" points="1383.97,-75.87 1373.38,-75.51 1381.43,-82.4 1383.97,-75.87"/>
</g>
<!-- Node22 -->
<g id="node22" class="node">
<title>Node22</title>
<g id="a_node22"><a xlink:title=" ">
<polygon fill="white" stroke="#bfbfbf" points="1392,-56.5 1392,-75.5 1523,-75.5 1523,-56.5 1392,-56.5"/>
<text text-anchor="middle" x="1457.5" y="-63.5" font-family="Helvetica,sans-Serif" font-size="10.00">AMReX_PhysBCFunct.H</text>
</a>
</g>
</g>
<!-- Node20&#45;&gt;Node22 -->
<g id="edge37" class="edge">
<title>Node20&#45;&gt;Node22</title>
<path fill="none" stroke="midnightblue" d="M1497.77,-117.98C1490.72,-109.05 1479.47,-94.81 1470.65,-83.64"/>
<polygon fill="midnightblue" stroke="midnightblue" points="1473.17,-81.19 1464.22,-75.51 1467.67,-85.53 1473.17,-81.19"/>
</g>
<!-- Node23&#45;&gt;Node5 -->
<g id="edge39" class="edge">
<title>Node23&#45;&gt;Node5</title>
<path fill="none" stroke="midnightblue" d="M1196.07,-112.46C1156.77,-98.14 1093.95,-75.34 1039.5,-56 1006.55,-44.3 968.77,-31.15 942.65,-22.1"/>
<polygon fill="midnightblue" stroke="midnightblue" points="943.49,-18.69 932.9,-18.73 941.2,-25.31 943.49,-18.69"/>
</g>
<!-- Node23&#45;&gt;Node7 -->
<g id="edge41" class="edge">
<title>Node23&#45;&gt;Node7</title>
<path fill="none" stroke="midnightblue" d="M1174.25,-112.46C1153.13,-104.82 1130.86,-93.27 1115.5,-76 1104.16,-63.25 1099.57,-44.05 1097.72,-29.82"/>
<polygon fill="midnightblue" stroke="midnightblue" points="1101.19,-29.32 1096.75,-19.7 1094.22,-29.98 1101.19,-29.32"/>
</g>
<!-- Node23&#45;&gt;Node16 -->
<g id="edge42" class="edge">
<title>Node23&#45;&gt;Node16</title>
<path fill="none" stroke="midnightblue" d="M1225.97,-112.4C1220.9,-104.02 1214.43,-93.33 1209.04,-84.42"/>
<polygon fill="midnightblue" stroke="midnightblue" points="1211.91,-82.4 1203.74,-75.66 1205.92,-86.03 1211.91,-82.4"/>
</g>
<!-- Node23&#45;&gt;Node17 -->
<g id="edge44" class="edge">
<title>Node23&#45;&gt;Node17</title>
<path fill="none" stroke="midnightblue" d="M1251.4,-112.11C1261.43,-102.74 1273.69,-89.74 1281.5,-76 1289.67,-61.63 1294.6,-43.43 1297.38,-29.95"/>
<polygon fill="midnightblue" stroke="midnightblue" points="1300.86,-30.39 1299.24,-19.92 1293.97,-29.12 1300.86,-30.39"/>
</g>
<!-- Node23&#45;&gt;Node19 -->
<g id="edge43" class="edge">
<title>Node23&#45;&gt;Node19</title>
<path fill="none" stroke="midnightblue" d="M1173.21,-112.47C1126.79,-101.85 1063.96,-87.47 1021.48,-77.75"/>
<polygon fill="midnightblue" stroke="midnightblue" points="1022.2,-74.33 1011.67,-75.51 1020.64,-81.15 1022.2,-74.33"/>
</g>
<!-- Node23&#45;&gt;Node21 -->
<g id="edge40" class="edge">
<title>Node23&#45;&gt;Node21</title>
<path fill="none" stroke="midnightblue" d="M1262.23,-112.4C1281.33,-102.68 1306.56,-89.86 1325.32,-80.31"/>
<polygon fill="midnightblue" stroke="midnightblue" points="1327.15,-83.31 1334.48,-75.66 1323.98,-77.07 1327.15,-83.31"/>
</g>
<!-- Node23&#45;&gt;Node22 -->
<g id="edge45" class="edge">
<title>Node23&#45;&gt;Node22</title>
<path fill="none" stroke="midnightblue" d="M1287.07,-112.47C1326.38,-101.99 1379.41,-87.84 1415.82,-78.12"/>
<polygon fill="midnightblue" stroke="midnightblue" points="1416.86,-81.47 1425.62,-75.51 1415.05,-74.7 1416.86,-81.47"/>
</g>
<!-- Node25&#45;&gt;Node2 -->
<g id="edge51" class="edge">
<title>Node25&#45;&gt;Node2</title>
<path fill="none" stroke="midnightblue" d="M128.09,-112.4C111.58,-102.86 89.88,-90.32 73.46,-80.84"/>
<polygon fill="midnightblue" stroke="midnightblue" points="74.9,-77.63 64.49,-75.66 71.4,-83.69 74.9,-77.63"/>
</g>
<!-- Node25&#45;&gt;Node14 -->
<g id="edge50" class="edge">
<title>Node25&#45;&gt;Node14</title>
<path fill="none" stroke="midnightblue" d="M154.4,-112.4C155.47,-104.38 156.84,-94.23 158,-85.57"/>
<polygon fill="midnightblue" stroke="midnightblue" points="161.47,-86.04 159.34,-75.66 154.53,-85.1 161.47,-86.04"/>
</g>
</g>
</svg>
