<?xml version="1.0" encoding="UTF-8" standalone="no"?>
<!DOCTYPE svg PUBLIC "-//W3C//DTD SVG 1.1//EN"
 "http://www.w3.org/Graphics/SVG/1.1/DTD/svg11.dtd">
<!-- Generated by graphviz version 2.43.0 (0)
 -->
<!-- Title: incflo_godunov_advection.cpp Pages: 1 -->
<svg width="2046pt" height="330pt"
 viewBox="0.00 0.00 2046.36 330.00" xmlns="http://www.w3.org/2000/svg" xmlns:xlink="http://www.w3.org/1999/xlink">
<g id="graph0" class="graph" transform="scale(1 1) rotate(0) translate(4 326)">
<title>incflo_godunov_advection.cpp</title>
<polygon fill="white" stroke="transparent" points="-4,4 -4,-326 2042.36,-326 2042.36,4 -4,4"/>
<!-- Node1 -->
<g id="node1" class="node">
<title>Node1</title>
<g id="a_node1"><a xlink:title=" ">
<polygon fill="#bfbfbf" stroke="black" points="316,-302.5 316,-321.5 480,-321.5 480,-302.5 316,-302.5"/>
<text text-anchor="middle" x="398" y="-309.5" font-family="Helvetica,sans-Serif" font-size="10.00">incflo_godunov_advection.cpp</text>
</a>
</g>
</g>
<!-- Node2 -->
<g id="node2" class="node">
<title>Node2</title>
<g id="a_node2"><a xlink:href="incflo__godunov__ppm_8_h.html" target="_top" xlink:title=" ">
<polygon fill="white" stroke="black" points="162.5,-112.5 162.5,-142.5 293.5,-142.5 293.5,-112.5 162.5,-112.5"/>
<text text-anchor="start" x="170.5" y="-130.5" font-family="Helvetica,sans-Serif" font-size="10.00">amr&#45;wind/convection</text>
<text text-anchor="middle" x="228" y="-119.5" font-family="Helvetica,sans-Serif" font-size="10.00">/incflo_godunov_ppm.H</text>
</a>
</g>
</g>
<!-- Node1&#45;&gt;Node2 -->
<g id="edge1" class="edge">
<title>Node1&#45;&gt;Node2</title>
<path fill="none" stroke="midnightblue" d="M389.8,-302.2C364.24,-274.76 285.52,-190.25 248.12,-150.1"/>
<polygon fill="midnightblue" stroke="midnightblue" points="250.6,-147.63 241.22,-142.69 245.48,-152.4 250.6,-147.63"/>
</g>
<!-- Node5 -->
<g id="node5" class="node">
<title>Node5</title>
<g id="a_node5"><a xlink:href="incflo__godunov__weno_8_h.html" target="_top" xlink:title=" ">
<polygon fill="white" stroke="black" points="311.5,-112.5 311.5,-142.5 446.5,-142.5 446.5,-112.5 311.5,-112.5"/>
<text text-anchor="start" x="319.5" y="-130.5" font-family="Helvetica,sans-Serif" font-size="10.00">amr&#45;wind/convection</text>
<text text-anchor="middle" x="379" y="-119.5" font-family="Helvetica,sans-Serif" font-size="10.00">/incflo_godunov_weno.H</text>
</a>
</g>
</g>
<!-- Node1&#45;&gt;Node5 -->
<g id="edge4" class="edge">
<title>Node1&#45;&gt;Node5</title>
<path fill="none" stroke="midnightblue" d="M397.08,-302.2C394.29,-275.33 385.79,-193.74 381.52,-152.67"/>
<polygon fill="midnightblue" stroke="midnightblue" points="384.99,-152.28 380.48,-142.69 378.03,-153 384.99,-152.28"/>
</g>
<!-- Node6 -->
<g id="node6" class="node">
<title>Node6</title>
<g id="a_node6"><a xlink:href="incflo__godunov__minmod_8_h.html" target="_top" xlink:title=" ">
<polygon fill="white" stroke="black" points="464.5,-112.5 464.5,-142.5 613.5,-142.5 613.5,-112.5 464.5,-112.5"/>
<text text-anchor="start" x="472.5" y="-130.5" font-family="Helvetica,sans-Serif" font-size="10.00">amr&#45;wind/convection</text>
<text text-anchor="middle" x="539" y="-119.5" font-family="Helvetica,sans-Serif" font-size="10.00">/incflo_godunov_minmod.H</text>
</a>
</g>
</g>
<!-- Node1&#45;&gt;Node6 -->
<g id="edge7" class="edge">
<title>Node1&#45;&gt;Node6</title>
<path fill="none" stroke="midnightblue" d="M401.56,-302.1C407.66,-287.41 421,-257.47 437,-235 460.15,-202.5 492.92,-170.1 515.02,-149.72"/>
<polygon fill="midnightblue" stroke="midnightblue" points="517.6,-152.1 522.63,-142.78 512.89,-146.93 517.6,-152.1"/>
</g>
<!-- Node7 -->
<g id="node7" class="node">
<title>Node7</title>
<g id="a_node7"><a xlink:href="incflo__godunov__upwind_8_h.html" target="_top" xlink:title=" ">
<polygon fill="white" stroke="black" points="0,-112.5 0,-142.5 144,-142.5 144,-112.5 0,-112.5"/>
<text text-anchor="start" x="8" y="-130.5" font-family="Helvetica,sans-Serif" font-size="10.00">amr&#45;wind/convection</text>
<text text-anchor="middle" x="72" y="-119.5" font-family="Helvetica,sans-Serif" font-size="10.00">/incflo_godunov_upwind.H</text>
</a>
</g>
</g>
<!-- Node1&#45;&gt;Node7 -->
<g id="edge10" class="edge">
<title>Node1&#45;&gt;Node7</title>
<path fill="none" stroke="midnightblue" d="M382.71,-302.44C333.2,-274.72 176.38,-186.93 106.35,-147.73"/>
<polygon fill="midnightblue" stroke="midnightblue" points="107.9,-144.59 97.46,-142.75 104.48,-150.69 107.9,-144.59"/>
</g>
<!-- Node8 -->
<g id="node8" class="node">
<title>Node8</title>
<g id="a_node8"><a xlink:href="_godunov_8_h.html" target="_top" xlink:title=" ">
<polygon fill="white" stroke="black" points="445.5,-235.5 445.5,-265.5 564.5,-265.5 564.5,-235.5 445.5,-235.5"/>
<text text-anchor="start" x="453.5" y="-253.5" font-family="Helvetica,sans-Serif" font-size="10.00">amr&#45;wind/convection</text>
<text text-anchor="middle" x="505" y="-242.5" font-family="Helvetica,sans-Serif" font-size="10.00">/Godunov.H</text>
</a>
</g>
</g>
<!-- Node1&#45;&gt;Node8 -->
<g id="edge13" class="edge">
<title>Node1&#45;&gt;Node8</title>
<path fill="none" stroke="midnightblue" d="M413.33,-302.48C428.3,-294.15 451.58,-281.21 470.93,-270.45"/>
<polygon fill="midnightblue" stroke="midnightblue" points="472.74,-273.44 479.78,-265.52 469.34,-267.32 472.74,-273.44"/>
</g>
<!-- Node29 -->
<g id="node29" class="node">
<title>Node29</title>
<g id="a_node29"><a xlink:title=" ">
<polygon fill="white" stroke="#bfbfbf" points="582.5,-241 582.5,-260 697.5,-260 697.5,-241 582.5,-241"/>
<text text-anchor="middle" x="640" y="-248" font-family="Helvetica,sans-Serif" font-size="10.00">AMReX_Geometry.H</text>
</a>
</g>
</g>
<!-- Node1&#45;&gt;Node29 -->
<g id="edge60" class="edge">
<title>Node1&#45;&gt;Node29</title>
<path fill="none" stroke="midnightblue" d="M432.67,-302.48C475.53,-291.94 548.54,-273.99 595.5,-262.44"/>
<polygon fill="midnightblue" stroke="midnightblue" points="596.52,-265.8 605.39,-260.01 594.85,-259 596.52,-265.8"/>
</g>
<!-- Node3 -->
<g id="node3" class="node">
<title>Node3</title>
<g id="a_node3"><a xlink:title=" ">
<polygon fill="white" stroke="#bfbfbf" points="184.5,-56.5 184.5,-75.5 271.5,-75.5 271.5,-56.5 184.5,-56.5"/>
<text text-anchor="middle" x="228" y="-63.5" font-family="Helvetica,sans-Serif" font-size="10.00">AMReX_Gpu.H</text>
</a>
</g>
</g>
<!-- Node2&#45;&gt;Node3 -->
<g id="edge2" class="edge">
<title>Node2&#45;&gt;Node3</title>
<path fill="none" stroke="midnightblue" d="M228,-112.4C228,-104.47 228,-94.46 228,-85.86"/>
<polygon fill="midnightblue" stroke="midnightblue" points="231.5,-85.66 228,-75.66 224.5,-85.66 231.5,-85.66"/>
</g>
<!-- Node4 -->
<g id="node4" class="node">
<title>Node4</title>
<g id="a_node4"><a xlink:title=" ">
<polygon fill="white" stroke="#bfbfbf" points="289.5,-56.5 289.5,-75.5 388.5,-75.5 388.5,-56.5 289.5,-56.5"/>
<text text-anchor="middle" x="339" y="-63.5" font-family="Helvetica,sans-Serif" font-size="10.00">AMReX_BCRec.H</text>
</a>
</g>
</g>
<!-- Node2&#45;&gt;Node4 -->
<g id="edge3" class="edge">
<title>Node2&#45;&gt;Node4</title>
<path fill="none" stroke="midnightblue" d="M254.31,-112.4C272.26,-102.77 295.92,-90.09 313.67,-80.58"/>
<polygon fill="midnightblue" stroke="midnightblue" points="315.69,-83.47 322.85,-75.66 312.38,-77.3 315.69,-83.47"/>
</g>
<!-- Node5&#45;&gt;Node3 -->
<g id="edge5" class="edge">
<title>Node5&#45;&gt;Node3</title>
<path fill="none" stroke="midnightblue" d="M343.22,-112.4C317.77,-102.37 283.9,-89.03 259.48,-79.4"/>
<polygon fill="midnightblue" stroke="midnightblue" points="260.56,-76.07 249.97,-75.66 257.99,-82.58 260.56,-76.07"/>
</g>
<!-- Node5&#45;&gt;Node4 -->
<g id="edge6" class="edge">
<title>Node5&#45;&gt;Node4</title>
<path fill="none" stroke="midnightblue" d="M369.52,-112.4C363.83,-103.93 356.55,-93.1 350.52,-84.14"/>
<polygon fill="midnightblue" stroke="midnightblue" points="353.3,-82 344.82,-75.66 347.49,-85.91 353.3,-82"/>
</g>
<!-- Node6&#45;&gt;Node3 -->
<g id="edge8" class="edge">
<title>Node6&#45;&gt;Node3</title>
<path fill="none" stroke="midnightblue" d="M465.69,-112.47C409.24,-101.67 332.51,-86.99 281.68,-77.27"/>
<polygon fill="midnightblue" stroke="midnightblue" points="282.04,-73.78 271.56,-75.33 280.72,-80.65 282.04,-73.78"/>
</g>
<!-- Node6&#45;&gt;Node4 -->
<g id="edge9" class="edge">
<title>Node6&#45;&gt;Node4</title>
<path fill="none" stroke="midnightblue" d="M491.86,-112.47C456.9,-102.08 409.85,-88.08 377.23,-78.37"/>
<polygon fill="midnightblue" stroke="midnightblue" points="378.18,-75 367.59,-75.51 376.18,-81.71 378.18,-75"/>
</g>
<!-- Node7&#45;&gt;Node3 -->
<g id="edge11" class="edge">
<title>Node7&#45;&gt;Node3</title>
<path fill="none" stroke="midnightblue" d="M108.97,-112.4C135.38,-102.33 170.56,-88.91 195.81,-79.28"/>
<polygon fill="midnightblue" stroke="midnightblue" points="197.2,-82.49 205.3,-75.66 194.71,-75.95 197.2,-82.49"/>
</g>
<!-- Node7&#45;&gt;Node4 -->
<g id="edge12" class="edge">
<title>Node7&#45;&gt;Node4</title>
<path fill="none" stroke="midnightblue" d="M134.94,-112.47C182.71,-101.83 247.4,-87.41 291.03,-77.69"/>
<polygon fill="midnightblue" stroke="midnightblue" points="291.83,-81.1 300.83,-75.51 290.31,-74.27 291.83,-81.1"/>
</g>
<!-- Node9 -->
<g id="node9" class="node">
<title>Node9</title>
<g id="a_node9"><a xlink:href="_field_repo_8_h.html" target="_top" xlink:title=" ">
<polygon fill="white" stroke="black" points="1035.5,-179.5 1035.5,-198.5 1184.5,-198.5 1184.5,-179.5 1035.5,-179.5"/>
<text text-anchor="middle" x="1110" y="-186.5" font-family="Helvetica,sans-Serif" font-size="10.00">amr&#45;wind/core/FieldRepo.H</text>
</a>
</g>
</g>
<!-- Node8&#45;&gt;Node9 -->
<g id="edge14" class="edge">
<title>Node8&#45;&gt;Node9</title>
<path fill="none" stroke="midnightblue" d="M564.76,-236.47C567.88,-235.94 570.97,-235.44 574,-235 732.43,-211.79 919.1,-199.49 1025.09,-193.89"/>
<polygon fill="midnightblue" stroke="midnightblue" points="1025.29,-197.38 1035.1,-193.37 1024.93,-190.39 1025.29,-197.38"/>
</g>
<!-- Node10 -->
<g id="node10" class="node">
<title>Node10</title>
<g id="a_node10"><a xlink:title=" ">
<polygon fill="white" stroke="#bfbfbf" points="1109,-0.5 1109,-19.5 1153,-19.5 1153,-0.5 1109,-0.5"/>
<text text-anchor="middle" x="1131" y="-7.5" font-family="Helvetica,sans-Serif" font-size="10.00">string</text>
</a>
</g>
</g>
<!-- Node9&#45;&gt;Node10 -->
<g id="edge15" class="edge">
<title>Node9&#45;&gt;Node10</title>
<path fill="none" stroke="midnightblue" d="M1051.48,-179.43C1010.13,-172.04 959.85,-159.88 947,-143 923.58,-112.23 923.13,-86.42 947,-56 965.5,-32.43 1050.89,-19.62 1098.57,-14.19"/>
<polygon fill="midnightblue" stroke="midnightblue" points="1099.13,-17.64 1108.69,-13.08 1098.37,-10.69 1099.13,-17.64"/>
</g>
<!-- Node11 -->
<g id="node11" class="node">
<title>Node11</title>
<g id="a_node11"><a xlink:title=" ">
<polygon fill="white" stroke="#bfbfbf" points="801.5,-56.5 801.5,-75.5 894.5,-75.5 894.5,-56.5 801.5,-56.5"/>
<text text-anchor="middle" x="848" y="-63.5" font-family="Helvetica,sans-Serif" font-size="10.00">unordered_map</text>
</a>
</g>
</g>
<!-- Node9&#45;&gt;Node11 -->
<g id="edge16" class="edge">
<title>Node9&#45;&gt;Node11</title>
<path fill="none" stroke="midnightblue" d="M1035.29,-183.22C995.36,-177.84 946.78,-166.55 909,-143 885.95,-128.64 867.83,-102.41 857.51,-84.84"/>
<polygon fill="midnightblue" stroke="midnightblue" points="860.3,-82.67 852.36,-75.65 854.2,-86.09 860.3,-82.67"/>
</g>
<!-- Node12 -->
<g id="node12" class="node">
<title>Node12</title>
<g id="a_node12"><a xlink:href="_field_desc_types_8_h.html" target="_top" xlink:title=" ">
<polygon fill="white" stroke="black" points="1414,-0.5 1414,-19.5 1590,-19.5 1590,-0.5 1414,-0.5"/>
<text text-anchor="middle" x="1502" y="-7.5" font-family="Helvetica,sans-Serif" font-size="10.00">amr&#45;wind/core/FieldDescTypes.H</text>
</a>
</g>
</g>
<!-- Node9&#45;&gt;Node12 -->
<g id="edge17" class="edge">
<title>Node9&#45;&gt;Node12</title>
<path fill="none" stroke="midnightblue" d="M1184.71,-186.65C1321.55,-183.45 1606.97,-173.28 1701,-143 1755.49,-125.45 1782.96,-125.91 1811,-76 1815.35,-68.25 1816.81,-62.72 1811,-56 1803.66,-47.51 1676.49,-31.17 1587.61,-20.69"/>
<polygon fill="midnightblue" stroke="midnightblue" points="1587.85,-17.2 1577.51,-19.51 1587.03,-24.15 1587.85,-17.2"/>
</g>
<!-- Node13 -->
<g id="node13" class="node">
<title>Node13</title>
<g id="a_node13"><a xlink:href="_field_utils_8_h.html" target="_top" xlink:title=" ">
<polygon fill="white" stroke="black" points="1878,-56.5 1878,-75.5 2024,-75.5 2024,-56.5 1878,-56.5"/>
<text text-anchor="middle" x="1951" y="-63.5" font-family="Helvetica,sans-Serif" font-size="10.00">amr&#45;wind/core/FieldUtils.H</text>
</a>
</g>
</g>
<!-- Node9&#45;&gt;Node13 -->
<g id="edge18" class="edge">
<title>Node9&#45;&gt;Node13</title>
<path fill="none" stroke="midnightblue" d="M1184.67,-186.28C1362.77,-181.79 1802.3,-168.28 1864,-143 1894.94,-130.32 1922.48,-101.93 1937.93,-83.66"/>
<polygon fill="midnightblue" stroke="midnightblue" points="1940.88,-85.58 1944.5,-75.62 1935.46,-81.15 1940.88,-85.58"/>
</g>
<!-- Node14 -->
<g id="node14" class="node">
<title>Node14</title>
<g id="a_node14"><a xlink:title=" ">
<polygon fill="white" stroke="#bfbfbf" points="1264.5,-0.5 1264.5,-19.5 1373.5,-19.5 1373.5,-0.5 1264.5,-0.5"/>
<text text-anchor="middle" x="1319" y="-7.5" font-family="Helvetica,sans-Serif" font-size="10.00">AMReX_MultiFab.H</text>
</a>
</g>
</g>
<!-- Node9&#45;&gt;Node14 -->
<g id="edge58" class="edge">
<title>Node9&#45;&gt;Node14</title>
<path fill="none" stroke="midnightblue" d="M1042.75,-179.45C1020.68,-173.08 998.4,-162.06 985,-143 977.08,-131.73 978.37,-124.08 985,-112 1007.31,-71.36 1029.84,-72.93 1073,-56 1131.8,-32.93 1203.21,-21.55 1253.91,-16.02"/>
<polygon fill="midnightblue" stroke="midnightblue" points="1254.51,-19.48 1264.09,-14.96 1253.78,-12.52 1254.51,-19.48"/>
</g>
<!-- Node16 -->
<g id="node16" class="node">
<title>Node16</title>
<g id="a_node16"><a xlink:href="_field_8_h.html" target="_top" xlink:title=" ">
<polygon fill="white" stroke="black" points="654,-118 654,-137 778,-137 778,-118 654,-118"/>
<text text-anchor="middle" x="716" y="-125" font-family="Helvetica,sans-Serif" font-size="10.00">amr&#45;wind/core/Field.H</text>
</a>
</g>
</g>
<!-- Node9&#45;&gt;Node16 -->
<g id="edge22" class="edge">
<title>Node9&#45;&gt;Node16</title>
<path fill="none" stroke="midnightblue" d="M1053.55,-179.48C981.87,-168.65 858.39,-150 782.3,-138.51"/>
<polygon fill="midnightblue" stroke="midnightblue" points="782.76,-135.04 772.35,-137.01 781.71,-141.96 782.76,-135.04"/>
</g>
<!-- Node22 -->
<g id="node22" class="node">
<title>Node22</title>
<g id="a_node22"><a xlink:href="_int_field_8_h.html" target="_top" xlink:title=" ">
<polygon fill="white" stroke="black" points="993.5,-118 993.5,-137 1130.5,-137 1130.5,-118 993.5,-118"/>
<text text-anchor="middle" x="1062" y="-125" font-family="Helvetica,sans-Serif" font-size="10.00">amr&#45;wind/core/IntField.H</text>
</a>
</g>
</g>
<!-- Node9&#45;&gt;Node22 -->
<g id="edge37" class="edge">
<title>Node9&#45;&gt;Node22</title>
<path fill="none" stroke="midnightblue" d="M1103.12,-179.48C1095.85,-170.46 1084.2,-156.02 1075.16,-144.81"/>
<polygon fill="midnightblue" stroke="midnightblue" points="1077.87,-142.59 1068.86,-137.01 1072.42,-146.99 1077.87,-142.59"/>
</g>
<!-- Node23 -->
<g id="node23" class="node">
<title>Node23</title>
<g id="a_node23"><a xlink:title=" ">
<polygon fill="white" stroke="#bfbfbf" points="1103,-56.5 1103,-75.5 1215,-75.5 1215,-56.5 1103,-56.5"/>
<text text-anchor="middle" x="1159" y="-63.5" font-family="Helvetica,sans-Serif" font-size="10.00">AMReX_iMultiFab.H</text>
</a>
</g>
</g>
<!-- Node9&#45;&gt;Node23 -->
<g id="edge59" class="edge">
<title>Node9&#45;&gt;Node23</title>
<path fill="none" stroke="midnightblue" d="M1117.18,-179.23C1123.98,-170.53 1134,-156.57 1140,-143 1148.24,-124.38 1153.34,-101.56 1156.15,-85.81"/>
<polygon fill="midnightblue" stroke="midnightblue" points="1159.64,-86.19 1157.81,-75.75 1152.73,-85.05 1159.64,-86.19"/>
</g>
<!-- Node24 -->
<g id="node24" class="node">
<title>Node24</title>
<g id="a_node24"><a xlink:href="_scratch_field_8_h.html" target="_top" xlink:title=" ">
<polygon fill="white" stroke="black" points="1357,-118 1357,-137 1517,-137 1517,-118 1357,-118"/>
<text text-anchor="middle" x="1437" y="-125" font-family="Helvetica,sans-Serif" font-size="10.00">amr&#45;wind/core/ScratchField.H</text>
</a>
</g>
</g>
<!-- Node9&#45;&gt;Node24 -->
<g id="edge41" class="edge">
<title>Node9&#45;&gt;Node24</title>
<path fill="none" stroke="midnightblue" d="M1156.85,-179.48C1215.74,-168.76 1316.74,-150.38 1380.03,-138.87"/>
<polygon fill="midnightblue" stroke="midnightblue" points="1381.02,-142.24 1390.24,-137.01 1379.77,-135.36 1381.02,-142.24"/>
</g>
<!-- Node27 -->
<g id="node27" class="node">
<title>Node27</title>
<g id="a_node27"><a xlink:href="_int_scratch_field_8_h.html" target="_top" xlink:title=" ">
<polygon fill="white" stroke="black" points="1552.5,-112.5 1552.5,-142.5 1691.5,-142.5 1691.5,-112.5 1552.5,-112.5"/>
<text text-anchor="start" x="1560.5" y="-130.5" font-family="Helvetica,sans-Serif" font-size="10.00">amr&#45;wind/core/IntScratch</text>
<text text-anchor="middle" x="1622" y="-119.5" font-family="Helvetica,sans-Serif" font-size="10.00">Field.H</text>
</a>
</g>
</g>
<!-- Node9&#45;&gt;Node27 -->
<g id="edge49" class="edge">
<title>Node9&#45;&gt;Node27</title>
<path fill="none" stroke="midnightblue" d="M1184.51,-180.9C1267.84,-172.73 1406.77,-158.45 1526,-143 1531.33,-142.31 1536.82,-141.57 1542.35,-140.79"/>
<polygon fill="midnightblue" stroke="midnightblue" points="1542.9,-144.25 1552.31,-139.38 1541.92,-137.32 1542.9,-144.25"/>
</g>
<!-- Node28 -->
<g id="node28" class="node">
<title>Node28</title>
<g id="a_node28"><a xlink:title=" ">
<polygon fill="white" stroke="#bfbfbf" points="1187,-118 1187,-137 1297,-137 1297,-118 1187,-118"/>
<text text-anchor="middle" x="1242" y="-125" font-family="Helvetica,sans-Serif" font-size="10.00">AMReX_AmrCore.H</text>
</a>
</g>
</g>
<!-- Node9&#45;&gt;Node28 -->
<g id="edge57" class="edge">
<title>Node9&#45;&gt;Node28</title>
<path fill="none" stroke="midnightblue" d="M1128.91,-179.48C1151.16,-169.45 1188.31,-152.7 1213.93,-141.15"/>
<polygon fill="midnightblue" stroke="midnightblue" points="1215.44,-144.31 1223.12,-137.01 1212.57,-137.93 1215.44,-144.31"/>
</g>
<!-- Node13&#45;&gt;Node12 -->
<g id="edge19" class="edge">
<title>Node13&#45;&gt;Node12</title>
<path fill="none" stroke="midnightblue" d="M1879.85,-56.44C1799.06,-46.73 1667.52,-30.91 1582.89,-20.73"/>
<polygon fill="midnightblue" stroke="midnightblue" points="1583.16,-17.24 1572.81,-19.52 1582.32,-24.19 1583.16,-17.24"/>
</g>
<!-- Node13&#45;&gt;Node14 -->
<g id="edge20" class="edge">
<title>Node13&#45;&gt;Node14</title>
<path fill="none" stroke="midnightblue" d="M1877.65,-59.47C1772.8,-51.45 1574.04,-35.81 1405,-20 1398.17,-19.36 1391.04,-18.66 1383.93,-17.95"/>
<polygon fill="midnightblue" stroke="midnightblue" points="1383.88,-14.43 1373.58,-16.89 1383.17,-21.39 1383.88,-14.43"/>
</g>
<!-- Node15 -->
<g id="node15" class="node">
<title>Node15</title>
<g id="a_node15"><a xlink:title=" ">
<polygon fill="white" stroke="#bfbfbf" points="1889,-0.5 1889,-19.5 2013,-19.5 2013,-0.5 1889,-0.5"/>
<text text-anchor="middle" x="1951" y="-7.5" font-family="Helvetica,sans-Serif" font-size="10.00">AMReX_Interpolater.H</text>
</a>
</g>
</g>
<!-- Node13&#45;&gt;Node15 -->
<g id="edge21" class="edge">
<title>Node13&#45;&gt;Node15</title>
<path fill="none" stroke="midnightblue" d="M1951,-56.08C1951,-49.01 1951,-38.86 1951,-29.99"/>
<polygon fill="midnightblue" stroke="midnightblue" points="1954.5,-29.75 1951,-19.75 1947.5,-29.75 1954.5,-29.75"/>
</g>
<!-- Node16&#45;&gt;Node3 -->
<g id="edge29" class="edge">
<title>Node16&#45;&gt;Node3</title>
<path fill="none" stroke="midnightblue" d="M664.41,-117.99C650.95,-115.89 636.45,-113.75 623,-112 474.27,-92.61 433.56,-96.88 281.82,-76.17"/>
<polygon fill="midnightblue" stroke="midnightblue" points="282.04,-72.67 271.66,-74.77 281.09,-79.61 282.04,-72.67"/>
</g>
<!-- Node16&#45;&gt;Node4 -->
<g id="edge28" class="edge">
<title>Node16&#45;&gt;Node4</title>
<path fill="none" stroke="midnightblue" d="M661.99,-117.98C592.18,-106.96 471.02,-87.84 398.59,-76.41"/>
<polygon fill="midnightblue" stroke="midnightblue" points="399.13,-72.95 388.71,-74.85 398.04,-79.86 399.13,-72.95"/>
</g>
<!-- Node16&#45;&gt;Node10 -->
<g id="edge23" class="edge">
<title>Node16&#45;&gt;Node10</title>
<path fill="none" stroke="midnightblue" d="M663.85,-117.96C583.87,-104.74 439.66,-80.38 436,-76 430.3,-69.18 429.92,-62.49 436,-56 481.74,-7.2 967.67,-9.14 1098.64,-10.57"/>
<polygon fill="midnightblue" stroke="midnightblue" points="1098.79,-14.07 1108.83,-10.68 1098.87,-7.07 1098.79,-14.07"/>
</g>
<!-- Node16&#45;&gt;Node11 -->
<g id="edge25" class="edge">
<title>Node16&#45;&gt;Node11</title>
<path fill="none" stroke="midnightblue" d="M734.91,-117.98C757.16,-107.95 794.31,-91.2 819.93,-79.65"/>
<polygon fill="midnightblue" stroke="midnightblue" points="821.44,-82.81 829.12,-75.51 818.57,-76.43 821.44,-82.81"/>
</g>
<!-- Node16&#45;&gt;Node12 -->
<g id="edge31" class="edge">
<title>Node16&#45;&gt;Node12</title>
<path fill="none" stroke="midnightblue" d="M753.33,-117.97C818.08,-103.43 955.56,-73.72 1073,-56 1185.9,-38.97 1316.48,-26.26 1403.65,-18.77"/>
<polygon fill="midnightblue" stroke="midnightblue" points="1404.12,-22.24 1413.79,-17.9 1403.53,-15.27 1404.12,-22.24"/>
</g>
<!-- Node16&#45;&gt;Node14 -->
<g id="edge27" class="edge">
<title>Node16&#45;&gt;Node14</title>
<path fill="none" stroke="midnightblue" d="M722.43,-117.62C734.32,-101.97 761.46,-69.83 793,-56 813.81,-46.87 1118.09,-24.88 1254.12,-15.43"/>
<polygon fill="midnightblue" stroke="midnightblue" points="1254.67,-18.9 1264.4,-14.72 1254.18,-11.92 1254.67,-18.9"/>
</g>
<!-- Node17 -->
<g id="node17" class="node">
<title>Node17</title>
<g id="a_node17"><a xlink:title=" ">
<polygon fill="white" stroke="#bfbfbf" points="687,-56.5 687,-75.5 745,-75.5 745,-56.5 687,-56.5"/>
<text text-anchor="middle" x="716" y="-63.5" font-family="Helvetica,sans-Serif" font-size="10.00">memory</text>
</a>
</g>
</g>
<!-- Node16&#45;&gt;Node17 -->
<g id="edge24" class="edge">
<title>Node16&#45;&gt;Node17</title>
<path fill="none" stroke="midnightblue" d="M716,-117.98C716,-109.58 716,-96.48 716,-85.66"/>
<polygon fill="midnightblue" stroke="midnightblue" points="719.5,-85.51 716,-75.51 712.5,-85.51 719.5,-85.51"/>
</g>
<!-- Node18 -->
<g id="node18" class="node">
<title>Node18</title>
<g id="a_node18"><a xlink:title=" ">
<polygon fill="white" stroke="#bfbfbf" points="445,-56.5 445,-75.5 509,-75.5 509,-56.5 445,-56.5"/>
<text text-anchor="middle" x="477" y="-63.5" font-family="Helvetica,sans-Serif" font-size="10.00">algorithm</text>
</a>
</g>
</g>
<!-- Node16&#45;&gt;Node18 -->
<g id="edge26" class="edge">
<title>Node16&#45;&gt;Node18</title>
<path fill="none" stroke="midnightblue" d="M681.76,-117.98C638.83,-107.29 565.27,-88.97 518.99,-77.45"/>
<polygon fill="midnightblue" stroke="midnightblue" points="519.81,-74.05 509.27,-75.03 518.12,-80.84 519.81,-74.05"/>
</g>
<!-- Node19 -->
<g id="node19" class="node">
<title>Node19</title>
<g id="a_node19"><a xlink:href="incflo__enums_8_h.html" target="_top" xlink:title=" ">
<polygon fill="white" stroke="black" points="527.5,-56.5 527.5,-75.5 668.5,-75.5 668.5,-56.5 527.5,-56.5"/>
<text text-anchor="middle" x="598" y="-63.5" font-family="Helvetica,sans-Serif" font-size="10.00">amr&#45;wind/incflo_enums.H</text>
</a>
</g>
</g>
<!-- Node16&#45;&gt;Node19 -->
<g id="edge30" class="edge">
<title>Node16&#45;&gt;Node19</title>
<path fill="none" stroke="midnightblue" d="M699.09,-117.98C679.47,-108.08 646.87,-91.64 624.01,-80.12"/>
<polygon fill="midnightblue" stroke="midnightblue" points="625.38,-76.89 614.88,-75.51 622.23,-83.14 625.38,-76.89"/>
</g>
<!-- Node20 -->
<g id="node20" class="node">
<title>Node20</title>
<g id="a_node20"><a xlink:href="_view_field_8_h.html" target="_top" xlink:title=" ">
<polygon fill="white" stroke="black" points="1347,-56.5 1347,-75.5 1495,-75.5 1495,-56.5 1347,-56.5"/>
<text text-anchor="middle" x="1421" y="-63.5" font-family="Helvetica,sans-Serif" font-size="10.00">amr&#45;wind/core/ViewField.H</text>
</a>
</g>
</g>
<!-- Node16&#45;&gt;Node20 -->
<g id="edge32" class="edge">
<title>Node16&#45;&gt;Node20</title>
<path fill="none" stroke="midnightblue" d="M778.25,-121.25C905.1,-110.54 1193.56,-86.19 1336.91,-74.1"/>
<polygon fill="midnightblue" stroke="midnightblue" points="1337.31,-77.58 1346.98,-73.25 1336.72,-70.6 1337.31,-77.58"/>
</g>
<!-- Node20&#45;&gt;Node10 -->
<g id="edge33" class="edge">
<title>Node20&#45;&gt;Node10</title>
<path fill="none" stroke="midnightblue" d="M1375.05,-56.44C1315.88,-45.43 1214.56,-26.56 1163.07,-16.97"/>
<polygon fill="midnightblue" stroke="midnightblue" points="1163.64,-13.52 1153.17,-15.13 1162.36,-20.4 1163.64,-13.52"/>
</g>
<!-- Node20&#45;&gt;Node12 -->
<g id="edge34" class="edge">
<title>Node20&#45;&gt;Node12</title>
<path fill="none" stroke="midnightblue" d="M1434.01,-56.32C1446.53,-47.98 1465.68,-35.21 1480.47,-25.35"/>
<polygon fill="midnightblue" stroke="midnightblue" points="1482.64,-28.11 1489.02,-19.65 1478.76,-22.29 1482.64,-28.11"/>
</g>
<!-- Node20&#45;&gt;Node14 -->
<g id="edge35" class="edge">
<title>Node20&#45;&gt;Node14</title>
<path fill="none" stroke="midnightblue" d="M1404.61,-56.32C1388.33,-47.7 1363.13,-34.36 1344.28,-24.39"/>
<polygon fill="midnightblue" stroke="midnightblue" points="1345.82,-21.24 1335.35,-19.65 1342.55,-27.43 1345.82,-21.24"/>
</g>
<!-- Node21 -->
<g id="node21" class="node">
<title>Node21</title>
<g id="a_node21"><a xlink:title=" ">
<polygon fill="white" stroke="#bfbfbf" points="1608,-0.5 1608,-19.5 1706,-19.5 1706,-0.5 1608,-0.5"/>
<text text-anchor="middle" x="1657" y="-7.5" font-family="Helvetica,sans-Serif" font-size="10.00">AMReX_Vector.H</text>
</a>
</g>
</g>
<!-- Node20&#45;&gt;Node21 -->
<g id="edge36" class="edge">
<title>Node20&#45;&gt;Node21</title>
<path fill="none" stroke="midnightblue" d="M1458.39,-56.44C1499.39,-47.06 1565.25,-31.99 1609.78,-21.8"/>
<polygon fill="midnightblue" stroke="midnightblue" points="1610.81,-25.16 1619.78,-19.52 1609.25,-18.34 1610.81,-25.16"/>
</g>
<!-- Node22&#45;&gt;Node10 -->
<g id="edge38" class="edge">
<title>Node22&#45;&gt;Node10</title>
<path fill="none" stroke="midnightblue" d="M1059.25,-117.6C1055.45,-103.54 1050.21,-75.77 1061,-56 1069.29,-40.81 1085.15,-29.99 1099.67,-22.77"/>
<polygon fill="midnightblue" stroke="midnightblue" points="1101.29,-25.87 1108.93,-18.53 1098.38,-19.51 1101.29,-25.87"/>
</g>
<!-- Node22&#45;&gt;Node12 -->
<g id="edge39" class="edge">
<title>Node22&#45;&gt;Node12</title>
<path fill="none" stroke="midnightblue" d="M1063.16,-117.85C1065.71,-102.56 1073.32,-70.99 1094,-56 1106.42,-47 1286.8,-29.74 1403.52,-19.41"/>
<polygon fill="midnightblue" stroke="midnightblue" points="1403.9,-22.89 1413.56,-18.52 1403.29,-15.92 1403.9,-22.89"/>
</g>
<!-- Node22&#45;&gt;Node23 -->
<g id="edge40" class="edge">
<title>Node22&#45;&gt;Node23</title>
<path fill="none" stroke="midnightblue" d="M1075.9,-117.98C1091.67,-108.3 1117.64,-92.37 1136.35,-80.89"/>
<polygon fill="midnightblue" stroke="midnightblue" points="1138.43,-83.72 1145.13,-75.51 1134.77,-77.75 1138.43,-83.72"/>
</g>
<!-- Node24&#45;&gt;Node10 -->
<g id="edge42" class="edge">
<title>Node24&#45;&gt;Node10</title>
<path fill="none" stroke="midnightblue" d="M1402.61,-117.98C1367.89,-108.99 1312.98,-93.69 1267,-76 1261.47,-73.87 1195.67,-42.21 1157.66,-23.88"/>
<polygon fill="midnightblue" stroke="midnightblue" points="1159.18,-20.72 1148.65,-19.53 1156.14,-27.03 1159.18,-20.72"/>
</g>
<!-- Node24&#45;&gt;Node12 -->
<g id="edge44" class="edge">
<title>Node24&#45;&gt;Node12</title>
<path fill="none" stroke="midnightblue" d="M1456.62,-117.92C1472.64,-109.72 1494.19,-95.68 1504,-76 1511.16,-61.63 1509.75,-43.17 1507.08,-29.6"/>
<polygon fill="midnightblue" stroke="midnightblue" points="1510.41,-28.47 1504.7,-19.54 1503.6,-30.08 1510.41,-28.47"/>
</g>
<!-- Node24&#45;&gt;Node14 -->
<g id="edge46" class="edge">
<title>Node24&#45;&gt;Node14</title>
<path fill="none" stroke="midnightblue" d="M1405.99,-117.93C1384.03,-110.33 1355.48,-97.1 1338,-76 1327.11,-62.85 1322.46,-43.71 1320.48,-29.6"/>
<polygon fill="midnightblue" stroke="midnightblue" points="1323.95,-29.14 1319.39,-19.58 1316.99,-29.9 1323.95,-29.14"/>
</g>
<!-- Node24&#45;&gt;Node20 -->
<g id="edge45" class="edge">
<title>Node24&#45;&gt;Node20</title>
<path fill="none" stroke="midnightblue" d="M1434.71,-117.98C1432.43,-109.49 1428.85,-96.2 1425.93,-85.32"/>
<polygon fill="midnightblue" stroke="midnightblue" points="1429.26,-84.26 1423.29,-75.51 1422.51,-86.07 1429.26,-84.26"/>
</g>
<!-- Node24&#45;&gt;Node21 -->
<g id="edge47" class="edge">
<title>Node24&#45;&gt;Node21</title>
<path fill="none" stroke="midnightblue" d="M1453.54,-117.82C1491.69,-97.79 1586.1,-48.22 1631.64,-24.32"/>
<polygon fill="midnightblue" stroke="midnightblue" points="1633.35,-27.37 1640.57,-19.62 1630.09,-21.17 1633.35,-27.37"/>
</g>
<!-- Node25 -->
<g id="node25" class="node">
<title>Node25</title>
<g id="a_node25"><a xlink:title=" ">
<polygon fill="white" stroke="#bfbfbf" points="1738.5,-56.5 1738.5,-75.5 1783.5,-75.5 1783.5,-56.5 1738.5,-56.5"/>
<text text-anchor="middle" x="1761" y="-63.5" font-family="Helvetica,sans-Serif" font-size="10.00">utility</text>
</a>
</g>
</g>
<!-- Node24&#45;&gt;Node25 -->
<g id="edge43" class="edge">
<title>Node24&#45;&gt;Node25</title>
<path fill="none" stroke="midnightblue" d="M1498.28,-117.98C1555.63,-109.54 1643.81,-95.39 1728.6,-76.13"/>
<polygon fill="midnightblue" stroke="midnightblue" points="1729.43,-79.53 1738.39,-73.88 1727.86,-72.71 1729.43,-79.53"/>
</g>
<!-- Node26 -->
<g id="node26" class="node">
<title>Node26</title>
<g id="a_node26"><a xlink:title=" ">
<polygon fill="white" stroke="#bfbfbf" points="1589.5,-56.5 1589.5,-75.5 1720.5,-75.5 1720.5,-56.5 1589.5,-56.5"/>
<text text-anchor="middle" x="1655" y="-63.5" font-family="Helvetica,sans-Serif" font-size="10.00">AMReX_PhysBCFunct.H</text>
</a>
</g>
</g>
<!-- Node24&#45;&gt;Node26 -->
<g id="edge48" class="edge">
<title>Node24&#45;&gt;Node26</title>
<path fill="none" stroke="midnightblue" d="M1468.23,-117.98C1506.6,-107.5 1571.79,-89.71 1614.11,-78.16"/>
<polygon fill="midnightblue" stroke="midnightblue" points="1615.1,-81.52 1623.82,-75.51 1613.26,-74.77 1615.1,-81.52"/>
</g>
<!-- Node27&#45;&gt;Node10 -->
<g id="edge50" class="edge">
<title>Node27&#45;&gt;Node10</title>
<path fill="none" stroke="midnightblue" d="M1552.49,-115.19C1481.94,-103.53 1377.64,-85.71 1338,-76 1274.93,-60.56 1202.93,-36.44 1162.63,-22.33"/>
<polygon fill="midnightblue" stroke="midnightblue" points="1163.69,-18.99 1153.1,-18.97 1161.37,-25.59 1163.69,-18.99"/>
</g>
<!-- Node27&#45;&gt;Node12 -->
<g id="edge52" class="edge">
<title>Node27&#45;&gt;Node12</title>
<path fill="none" stroke="midnightblue" d="M1691.65,-120.46C1752.45,-112.52 1826.18,-94.7 1793,-56 1786.1,-47.95 1665.79,-31.42 1582.05,-20.79"/>
<polygon fill="midnightblue" stroke="midnightblue" points="1582.39,-17.3 1572.03,-19.52 1581.51,-24.25 1582.39,-17.3"/>
</g>
<!-- Node27&#45;&gt;Node20 -->
<g id="edge53" class="edge">
<title>Node27&#45;&gt;Node20</title>
<path fill="none" stroke="midnightblue" d="M1574.62,-112.47C1539.49,-102.08 1492.21,-88.08 1459.42,-78.37"/>
<polygon fill="midnightblue" stroke="midnightblue" points="1460.32,-74.99 1449.74,-75.51 1458.33,-81.7 1460.32,-74.99"/>
</g>
<!-- Node27&#45;&gt;Node21 -->
<g id="edge55" class="edge">
<title>Node27&#45;&gt;Node21</title>
<path fill="none" stroke="midnightblue" d="M1691.52,-122.91C1802.81,-116.43 2010.79,-101.11 2033,-76 2076.03,-27.35 1832.56,-15.1 1716.22,-12.02"/>
<polygon fill="midnightblue" stroke="midnightblue" points="1716.13,-8.52 1706.05,-11.77 1715.96,-15.52 1716.13,-8.52"/>
</g>
<!-- Node27&#45;&gt;Node23 -->
<g id="edge54" class="edge">
<title>Node27&#45;&gt;Node23</title>
<path fill="none" stroke="midnightblue" d="M1552.3,-115.74C1543.45,-114.44 1534.52,-113.17 1526,-112 1420.91,-97.62 1298.6,-83.06 1225.07,-74.54"/>
<polygon fill="midnightblue" stroke="midnightblue" points="1225.36,-71.05 1215.02,-73.38 1224.55,-78 1225.36,-71.05"/>
</g>
<!-- Node27&#45;&gt;Node25 -->
<g id="edge51" class="edge">
<title>Node27&#45;&gt;Node25</title>
<path fill="none" stroke="midnightblue" d="M1654.94,-112.4C1678.16,-102.46 1708.99,-89.26 1731.42,-79.66"/>
<polygon fill="midnightblue" stroke="midnightblue" points="1732.96,-82.81 1740.77,-75.66 1730.2,-76.38 1732.96,-82.81"/>
</g>
<!-- Node27&#45;&gt;Node26 -->
<g id="edge56" class="edge">
<title>Node27&#45;&gt;Node26</title>
<path fill="none" stroke="midnightblue" d="M1629.82,-112.4C1634.47,-104.02 1640.4,-93.33 1645.34,-84.42"/>
<polygon fill="midnightblue" stroke="midnightblue" points="1648.41,-86.1 1650.2,-75.66 1642.29,-82.71 1648.41,-86.1"/>
</g>
</g>
</svg>
