<?xml version="1.0" encoding="UTF-8" standalone="no"?>
<!DOCTYPE svg PUBLIC "-//W3C//DTD SVG 1.1//EN"
 "http://www.w3.org/Graphics/SVG/1.1/DTD/svg11.dtd">
<!-- Generated by graphviz version 2.43.0 (0)
 -->
<!-- Title: Graphical Class Hierarchy Pages: 1 -->
<svg width="602pt" height="284pt"
 viewBox="0.00 0.00 602.00 284.00" xmlns="http://www.w3.org/2000/svg" xmlns:xlink="http://www.w3.org/1999/xlink">
<g id="graph0" class="graph" transform="scale(1 1) rotate(0) translate(4 280)">
<title>Graphical Class Hierarchy</title>
<polygon fill="white" stroke="transparent" points="-4,4 -4,-280 598,-280 598,4 -4,4"/>
<!-- Node425 -->
<g id="node1" class="node">
<title>Node425</title>
<g id="a_node1"><a xlink:title=" ">
<polygon fill="white" stroke="#bfbfbf" points="0,-128 0,-147 128,-147 128,-128 0,-128"/>
<text text-anchor="middle" x="64" y="-135" font-family="Helvetica,sans-Serif" font-size="10.00">SamplerBase::Register</text>
</a>
</g>
</g>
<!-- Node0 -->
<g id="node2" class="node">
<title>Node0</title>
<g id="a_node2"><a xlink:href="classamr__wind_1_1sampling_1_1_free_surface_sampler.html" target="_top" xlink:title=" ">
<polygon fill="white" stroke="black" points="164,-245.5 164,-275.5 285,-275.5 285,-245.5 164,-245.5"/>
<text text-anchor="start" x="172" y="-263.5" font-family="Helvetica,sans-Serif" font-size="10.00">amr_wind::sampling</text>
<text text-anchor="middle" x="224.5" y="-252.5" font-family="Helvetica,sans-Serif" font-size="10.00">::FreeSurfaceSampler</text>
</a>
</g>
</g>
<!-- Node425&#45;&gt;Node0 -->
<g id="edge1" class="edge">
<title>Node425&#45;&gt;Node0</title>
<path fill="none" stroke="midnightblue" d="M78.91,-155.26C96.66,-176.94 129.25,-213.52 164,-236.5 169.02,-239.82 174.56,-242.8 180.2,-245.45"/>
<polygon fill="midnightblue" stroke="midnightblue" points="81.44,-152.83 72.45,-147.23 75.99,-157.22 81.44,-152.83"/>
</g>
<!-- Node427 -->
<g id="node3" class="node">
<title>Node427</title>
<g id="a_node3"><a xlink:href="classamr__wind_1_1sampling_1_1_line_sampler.html" target="_top" xlink:title="Sample data along a line.">
<polygon fill="white" stroke="black" points="166.5,-196.5 166.5,-226.5 282.5,-226.5 282.5,-196.5 166.5,-196.5"/>
<text text-anchor="start" x="174.5" y="-214.5" font-family="Helvetica,sans-Serif" font-size="10.00">amr_wind::sampling</text>
<text text-anchor="middle" x="224.5" y="-203.5" font-family="Helvetica,sans-Serif" font-size="10.00">::LineSampler</text>
</a>
</g>
</g>
<!-- Node425&#45;&gt;Node427 -->
<g id="edge2" class="edge">
<title>Node425&#45;&gt;Node427</title>
<path fill="none" stroke="midnightblue" d="M92.04,-151.93C111.77,-162.27 139.28,-176.3 164,-187.5 170.7,-190.53 177.89,-193.6 184.89,-196.48"/>
<polygon fill="midnightblue" stroke="midnightblue" points="93.5,-148.75 83.02,-147.18 90.24,-154.94 93.5,-148.75"/>
</g>
<!-- Node430 -->
<g id="node6" class="node">
<title>Node430</title>
<g id="a_node6"><a xlink:href="classamr__wind_1_1sampling_1_1_plane_sampler.html" target="_top" xlink:title="Sample data on uniform grids.">
<polygon fill="white" stroke="black" points="166.5,-147.5 166.5,-177.5 282.5,-177.5 282.5,-147.5 166.5,-147.5"/>
<text text-anchor="start" x="174.5" y="-165.5" font-family="Helvetica,sans-Serif" font-size="10.00">amr_wind::sampling</text>
<text text-anchor="middle" x="224.5" y="-154.5" font-family="Helvetica,sans-Serif" font-size="10.00">::PlaneSampler</text>
</a>
</g>
</g>
<!-- Node425&#45;&gt;Node430 -->
<g id="edge5" class="edge">
<title>Node425&#45;&gt;Node430</title>
<path fill="none" stroke="midnightblue" d="M135.27,-148.58C145.69,-150.23 156.32,-151.9 166.43,-153.5"/>
<polygon fill="midnightblue" stroke="midnightblue" points="135.8,-145.12 125.37,-147.02 134.71,-152.04 135.8,-145.12"/>
</g>
<!-- Node431 -->
<g id="node7" class="node">
<title>Node431</title>
<g id="a_node7"><a xlink:href="classamr__wind_1_1sampling_1_1_probe_sampler.html" target="_top" xlink:title="Sample data on a cloud of points.">
<polygon fill="white" stroke="black" points="166.5,-98.5 166.5,-128.5 282.5,-128.5 282.5,-98.5 166.5,-98.5"/>
<text text-anchor="start" x="174.5" y="-116.5" font-family="Helvetica,sans-Serif" font-size="10.00">amr_wind::sampling</text>
<text text-anchor="middle" x="224.5" y="-105.5" font-family="Helvetica,sans-Serif" font-size="10.00">::ProbeSampler</text>
</a>
</g>
</g>
<!-- Node425&#45;&gt;Node431 -->
<g id="edge6" class="edge">
<title>Node425&#45;&gt;Node431</title>
<path fill="none" stroke="midnightblue" d="M138.24,-126.41C147.65,-124.99 157.17,-123.54 166.27,-122.17"/>
<polygon fill="midnightblue" stroke="midnightblue" points="137.46,-122.99 128.1,-127.95 138.51,-129.91 137.46,-122.99"/>
</g>
<!-- Node432 -->
<g id="node8" class="node">
<title>Node432</title>
<g id="a_node8"><a xlink:href="classamr__wind_1_1sampling_1_1_radar_sampler.html" target="_top" xlink:title="Sample data along a line.">
<polygon fill="white" stroke="black" points="166.5,-49.5 166.5,-79.5 282.5,-79.5 282.5,-49.5 166.5,-49.5"/>
<text text-anchor="start" x="174.5" y="-67.5" font-family="Helvetica,sans-Serif" font-size="10.00">amr_wind::sampling</text>
<text text-anchor="middle" x="224.5" y="-56.5" font-family="Helvetica,sans-Serif" font-size="10.00">::RadarSampler</text>
</a>
</g>
</g>
<!-- Node425&#45;&gt;Node432 -->
<g id="edge7" class="edge">
<title>Node425&#45;&gt;Node432</title>
<path fill="none" stroke="midnightblue" d="M92.88,-123.49C112.61,-113.69 139.77,-100.46 164,-89.5 171.35,-86.18 179.27,-82.74 186.86,-79.53"/>
<polygon fill="midnightblue" stroke="midnightblue" points="91.23,-120.4 83.84,-127.99 94.35,-126.67 91.23,-120.4"/>
</g>
<!-- Node433 -->
<g id="node9" class="node">
<title>Node433</title>
<g id="a_node9"><a xlink:href="classamr__wind_1_1sampling_1_1_volume_sampler.html" target="_top" xlink:title="Sample data on uniform grids.">
<polygon fill="white" stroke="black" points="166.5,-0.5 166.5,-30.5 282.5,-30.5 282.5,-0.5 166.5,-0.5"/>
<text text-anchor="start" x="174.5" y="-18.5" font-family="Helvetica,sans-Serif" font-size="10.00">amr_wind::sampling</text>
<text text-anchor="middle" x="224.5" y="-7.5" font-family="Helvetica,sans-Serif" font-size="10.00">::VolumeSampler</text>
</a>
</g>
</g>
<!-- Node425&#45;&gt;Node433 -->
<g id="edge8" class="edge">
<title>Node425&#45;&gt;Node433</title>
<path fill="none" stroke="midnightblue" d="M79.32,-119.87C97.26,-98.7 129.83,-63.21 164,-40.5 169.51,-36.84 175.63,-33.54 181.81,-30.63"/>
<polygon fill="midnightblue" stroke="midnightblue" points="76.48,-117.81 72.77,-127.73 81.85,-122.29 76.48,-117.81"/>
</g>
<!-- Node428 -->
<g id="node4" class="node">
<title>Node428</title>
<g id="a_node4"><a xlink:href="classamr__wind_1_1sampling_1_1_lidar_sampler.html" target="_top" xlink:title="Sample data along a line that moves in time.">
<polygon fill="white" stroke="black" points="321,-196.5 321,-226.5 437,-226.5 437,-196.5 321,-196.5"/>
<text text-anchor="start" x="329" y="-214.5" font-family="Helvetica,sans-Serif" font-size="10.00">amr_wind::sampling</text>
<text text-anchor="middle" x="379" y="-203.5" font-family="Helvetica,sans-Serif" font-size="10.00">::LidarSampler</text>
</a>
</g>
</g>
<!-- Node427&#45;&gt;Node428 -->
<g id="edge3" class="edge">
<title>Node427&#45;&gt;Node428</title>
<path fill="none" stroke="midnightblue" d="M292.81,-211.5C302.21,-211.5 311.79,-211.5 320.97,-211.5"/>
<polygon fill="midnightblue" stroke="midnightblue" points="292.72,-208 282.72,-211.5 292.72,-215 292.72,-208"/>
</g>
<!-- Node429 -->
<g id="node5" class="node">
<title>Node429</title>
<g id="a_node5"><a xlink:href="classamr__wind_1_1sampling_1_1_d_t_u_spinner_sampler.html" target="_top" xlink:title="Sample data along a line that moves in time.">
<polygon fill="white" stroke="black" points="473,-196.5 473,-226.5 594,-226.5 594,-196.5 473,-196.5"/>
<text text-anchor="start" x="481" y="-214.5" font-family="Helvetica,sans-Serif" font-size="10.00">amr_wind::sampling</text>
<text text-anchor="middle" x="533.5" y="-203.5" font-family="Helvetica,sans-Serif" font-size="10.00">::DTUSpinnerSampler</text>
</a>
</g>
</g>
<!-- Node428&#45;&gt;Node429 -->
<g id="edge4" class="edge">
<title>Node428&#45;&gt;Node429</title>
<path fill="none" stroke="midnightblue" d="M447.46,-211.5C455.95,-211.5 464.57,-211.5 472.92,-211.5"/>
<polygon fill="midnightblue" stroke="midnightblue" points="447.22,-208 437.22,-211.5 447.22,-215 447.22,-208"/>
</g>
</g>
</svg>
