<?xml version="1.0" encoding="UTF-8" standalone="no"?>
<!DOCTYPE svg PUBLIC "-//W3C//DTD SVG 1.1//EN"
 "http://www.w3.org/Graphics/SVG/1.1/DTD/svg11.dtd">
<!-- Generated by graphviz version 2.43.0 (0)
 -->
<!-- Title: Graphical Class Hierarchy Pages: 1 -->
<svg width="333pt" height="333pt"
 viewBox="0.00 0.00 333.00 333.00" xmlns="http://www.w3.org/2000/svg" xmlns:xlink="http://www.w3.org/1999/xlink">
<g id="graph0" class="graph" transform="scale(1 1) rotate(0) translate(4 329)">
<title>Graphical Class Hierarchy</title>
<polygon fill="white" stroke="transparent" points="-4,4 -4,-329 329,-329 329,4 -4,4"/>
<!-- Node410 -->
<g id="node1" class="node">
<title>Node410</title>
<g id="a_node1"><a xlink:title=" ">
<polygon fill="white" stroke="#bfbfbf" points="0,-153 0,-172 146,-172 146,-153 0,-153"/>
<text text-anchor="middle" x="73" y="-160" font-family="Helvetica,sans-Serif" font-size="10.00">PostProcessBase::Register</text>
</a>
</g>
</g>
<!-- Node0 -->
<g id="node2" class="node">
<title>Node0</title>
<g id="a_node2"><a xlink:href="classamr__wind_1_1ascent__int_1_1_ascent_post_process.html" target="_top" xlink:title=" ">
<polygon fill="white" stroke="black" points="193,-294.5 193,-324.5 314,-324.5 314,-294.5 193,-294.5"/>
<text text-anchor="start" x="201" y="-312.5" font-family="Helvetica,sans-Serif" font-size="10.00">amr_wind::ascent_int</text>
<text text-anchor="middle" x="253.5" y="-301.5" font-family="Helvetica,sans-Serif" font-size="10.00">::AscentPostProcess</text>
</a>
</g>
</g>
<!-- Node410&#45;&gt;Node0 -->
<g id="edge1" class="edge">
<title>Node410&#45;&gt;Node0</title>
<path fill="none" stroke="midnightblue" d="M85.43,-180.72C103.04,-207.38 139.28,-256.95 182,-285.5 187.05,-288.88 192.63,-291.82 198.36,-294.38"/>
<polygon fill="midnightblue" stroke="midnightblue" points="88.17,-178.51 79.8,-172.01 82.29,-182.31 88.17,-178.51"/>
</g>
<!-- Node412 -->
<g id="node3" class="node">
<title>Node412</title>
<g id="a_node3"><a xlink:href="classamr__wind_1_1averaging_1_1_time_averaging.html" target="_top" xlink:title="A collection of time&#45;averaged quantities.">
<polygon fill="white" stroke="black" points="194,-245.5 194,-275.5 313,-275.5 313,-245.5 194,-245.5"/>
<text text-anchor="start" x="202" y="-263.5" font-family="Helvetica,sans-Serif" font-size="10.00">amr_wind::averaging</text>
<text text-anchor="middle" x="253.5" y="-252.5" font-family="Helvetica,sans-Serif" font-size="10.00">::TimeAveraging</text>
</a>
</g>
</g>
<!-- Node410&#45;&gt;Node412 -->
<g id="edge2" class="edge">
<title>Node410&#45;&gt;Node412</title>
<path fill="none" stroke="midnightblue" d="M93.72,-178.47C114.63,-194.79 149.1,-220.02 182,-236.5 188.47,-239.74 195.49,-242.72 202.5,-245.38"/>
<polygon fill="midnightblue" stroke="midnightblue" points="95.65,-175.53 85.64,-172.07 91.31,-181.02 95.65,-175.53"/>
</g>
<!-- Node413 -->
<g id="node4" class="node">
<title>Node413</title>
<g id="a_node4"><a xlink:href="classamr__wind_1_1enstrophy_1_1_enstrophy.html" target="_top" xlink:title="enstrophy object">
<polygon fill="white" stroke="black" points="194,-196.5 194,-226.5 313,-226.5 313,-196.5 194,-196.5"/>
<text text-anchor="start" x="202" y="-214.5" font-family="Helvetica,sans-Serif" font-size="10.00">amr_wind::enstrophy</text>
<text text-anchor="middle" x="253.5" y="-203.5" font-family="Helvetica,sans-Serif" font-size="10.00">::Enstrophy</text>
</a>
</g>
</g>
<!-- Node410&#45;&gt;Node413 -->
<g id="edge3" class="edge">
<title>Node410&#45;&gt;Node413</title>
<path fill="none" stroke="midnightblue" d="M118.73,-174.78C142.68,-181.35 172.39,-189.51 197.72,-196.46"/>
<polygon fill="midnightblue" stroke="midnightblue" points="119.41,-171.34 108.84,-172.06 117.56,-178.09 119.41,-171.34"/>
</g>
<!-- Node414 -->
<g id="node5" class="node">
<title>Node414</title>
<g id="a_node5"><a xlink:href="classamr__wind_1_1field__norms_1_1_field_norms.html" target="_top" xlink:title="field norm object">
<polygon fill="white" stroke="black" points="189.5,-147.5 189.5,-177.5 317.5,-177.5 317.5,-147.5 189.5,-147.5"/>
<text text-anchor="start" x="197.5" y="-165.5" font-family="Helvetica,sans-Serif" font-size="10.00">amr_wind::field_norms</text>
<text text-anchor="middle" x="253.5" y="-154.5" font-family="Helvetica,sans-Serif" font-size="10.00">::FieldNorms</text>
</a>
</g>
</g>
<!-- Node410&#45;&gt;Node414 -->
<g id="edge4" class="edge">
<title>Node410&#45;&gt;Node414</title>
<path fill="none" stroke="midnightblue" d="M156.24,-162.5C167.36,-162.5 178.62,-162.5 189.34,-162.5"/>
<polygon fill="midnightblue" stroke="midnightblue" points="156.09,-159 146.09,-162.5 156.09,-166 156.09,-159"/>
</g>
<!-- Node415 -->
<g id="node6" class="node">
<title>Node415</title>
<g id="a_node6"><a xlink:href="classamr__wind_1_1kinetic__energy_1_1_kinetic_energy.html" target="_top" xlink:title="kinetic energy object">
<polygon fill="white" stroke="black" points="182,-98.5 182,-128.5 325,-128.5 325,-98.5 182,-98.5"/>
<text text-anchor="start" x="190" y="-116.5" font-family="Helvetica,sans-Serif" font-size="10.00">amr_wind::kinetic_energy</text>
<text text-anchor="middle" x="253.5" y="-105.5" font-family="Helvetica,sans-Serif" font-size="10.00">::KineticEnergy</text>
</a>
</g>
</g>
<!-- Node410&#45;&gt;Node415 -->
<g id="edge5" class="edge">
<title>Node410&#45;&gt;Node415</title>
<path fill="none" stroke="midnightblue" d="M118.73,-150.22C142.68,-143.65 172.39,-135.49 197.72,-128.54"/>
<polygon fill="midnightblue" stroke="midnightblue" points="117.56,-146.91 108.84,-152.94 119.41,-153.66 117.56,-146.91"/>
</g>
<!-- Node416 -->
<g id="node7" class="node">
<title>Node416</title>
<g id="a_node7"><a xlink:href="classamr__wind_1_1sampling_1_1_sampling.html" target="_top" xlink:title="Collection of data sampling objects.">
<polygon fill="white" stroke="black" points="195.5,-49.5 195.5,-79.5 311.5,-79.5 311.5,-49.5 195.5,-49.5"/>
<text text-anchor="start" x="203.5" y="-67.5" font-family="Helvetica,sans-Serif" font-size="10.00">amr_wind::sampling</text>
<text text-anchor="middle" x="253.5" y="-56.5" font-family="Helvetica,sans-Serif" font-size="10.00">::Sampling</text>
</a>
</g>
</g>
<!-- Node410&#45;&gt;Node416 -->
<g id="edge6" class="edge">
<title>Node410&#45;&gt;Node416</title>
<path fill="none" stroke="midnightblue" d="M94.14,-146.59C115.14,-130.56 149.47,-105.92 182,-89.5 189.19,-85.87 197.03,-82.53 204.79,-79.56"/>
<polygon fill="midnightblue" stroke="midnightblue" points="91.77,-143.99 86,-152.88 96.05,-149.53 91.77,-143.99"/>
</g>
<!-- Node417 -->
<g id="node8" class="node">
<title>Node417</title>
<g id="a_node8"><a xlink:href="classamr__wind_1_1wave__energy_1_1_wave_energy.html" target="_top" xlink:title="wave energy object">
<polygon fill="white" stroke="black" points="185.5,-0.5 185.5,-30.5 321.5,-30.5 321.5,-0.5 185.5,-0.5"/>
<text text-anchor="start" x="193.5" y="-18.5" font-family="Helvetica,sans-Serif" font-size="10.00">amr_wind::wave_energy</text>
<text text-anchor="middle" x="253.5" y="-7.5" font-family="Helvetica,sans-Serif" font-size="10.00">::WaveEnergy</text>
</a>
</g>
</g>
<!-- Node410&#45;&gt;Node417 -->
<g id="edge7" class="edge">
<title>Node410&#45;&gt;Node417</title>
<path fill="none" stroke="midnightblue" d="M85.77,-144.11C103.58,-117.67 139.81,-68.96 182,-40.5 187.6,-36.72 193.83,-33.45 200.21,-30.63"/>
<polygon fill="midnightblue" stroke="midnightblue" points="82.65,-142.5 80.07,-152.77 88.49,-146.35 82.65,-142.5"/>
</g>
</g>
</svg>
