<?xml version="1.0" encoding="UTF-8" standalone="no"?>
<!DOCTYPE svg PUBLIC "-//W3C//DTD SVG 1.1//EN"
 "http://www.w3.org/Graphics/SVG/1.1/DTD/svg11.dtd">
<!-- Generated by graphviz version 2.43.0 (0)
 -->
<!-- Title: io_utils.H Pages: 1 -->
<svg width="2372pt" height="84pt"
 viewBox="0.00 0.00 2371.50 84.00" xmlns="http://www.w3.org/2000/svg" xmlns:xlink="http://www.w3.org/1999/xlink">
<g id="graph0" class="graph" transform="scale(1 1) rotate(0) translate(4 80)">
<title>io_utils.H</title>
<polygon fill="white" stroke="transparent" points="-4,4 -4,-80 2367.5,-80 2367.5,4 -4,4"/>
<!-- Node1 -->
<g id="node1" class="node">
<title>Node1</title>
<g id="a_node1"><a xlink:title=" ">
<polygon fill="#bfbfbf" stroke="black" points="1193,-56.5 1193,-75.5 1255,-75.5 1255,-56.5 1193,-56.5"/>
<text text-anchor="middle" x="1224" y="-63.5" font-family="Helvetica,sans-Serif" font-size="10.00">io_utils.H</text>
</a>
</g>
</g>
<!-- Node2 -->
<g id="node2" class="node">
<title>Node2</title>
<g id="a_node2"><a xlink:href="bluff__body__ops_8cpp.html" target="_top" xlink:title=" ">
<polygon fill="white" stroke="black" points="0,-0.5 0,-19.5 110,-19.5 110,-0.5 0,-0.5"/>
<text text-anchor="middle" x="55" y="-7.5" font-family="Helvetica,sans-Serif" font-size="10.00">bluff_body_ops.cpp</text>
</a>
</g>
</g>
<!-- Node1&#45;&gt;Node2 -->
<g id="edge1" class="edge">
<title>Node1&#45;&gt;Node2</title>
<path fill="none" stroke="midnightblue" d="M1182.43,-64.79C1036.3,-63.73 532.68,-57.42 119,-20 116.09,-19.74 113.12,-19.43 110.12,-19.1"/>
<polygon fill="midnightblue" stroke="midnightblue" points="1182.7,-68.29 1192.73,-64.86 1182.75,-61.29 1182.7,-68.29"/>
</g>
<!-- Node3 -->
<g id="node3" class="node">
<title>Node3</title>
<g id="a_node3"><a xlink:href="_i_b_8cpp.html" target="_top" xlink:title=" ">
<polygon fill="white" stroke="black" points="128.5,-0.5 128.5,-19.5 175.5,-19.5 175.5,-0.5 128.5,-0.5"/>
<text text-anchor="middle" x="152" y="-7.5" font-family="Helvetica,sans-Serif" font-size="10.00">IB.cpp</text>
</a>
</g>
</g>
<!-- Node1&#45;&gt;Node3 -->
<g id="edge2" class="edge">
<title>Node1&#45;&gt;Node3</title>
<path fill="none" stroke="midnightblue" d="M1182.64,-64.48C1014.44,-62.19 381.42,-51.6 184,-20 181.26,-19.56 178.43,-18.97 175.63,-18.3"/>
<polygon fill="midnightblue" stroke="midnightblue" points="1182.76,-67.99 1192.81,-64.62 1182.86,-60.99 1182.76,-67.99"/>
</g>
<!-- Node4 -->
<g id="node4" class="node">
<title>Node4</title>
<g id="a_node4"><a xlink:href="relaxation__zones__ops_8cpp.html" target="_top" xlink:title=" ">
<polygon fill="white" stroke="black" points="193.5,-0.5 193.5,-19.5 336.5,-19.5 336.5,-0.5 193.5,-0.5"/>
<text text-anchor="middle" x="265" y="-7.5" font-family="Helvetica,sans-Serif" font-size="10.00">relaxation_zones_ops.cpp</text>
</a>
</g>
</g>
<!-- Node1&#45;&gt;Node4 -->
<g id="edge3" class="edge">
<title>Node1&#45;&gt;Node4</title>
<path fill="none" stroke="midnightblue" d="M1182.47,-63.77C1056.36,-59.85 666.86,-46.32 345,-20 342.21,-19.77 339.38,-19.53 336.51,-19.26"/>
<polygon fill="midnightblue" stroke="midnightblue" points="1182.71,-67.28 1192.81,-64.09 1182.93,-60.28 1182.71,-67.28"/>
</g>
<!-- Node5 -->
<g id="node5" class="node">
<title>Node5</title>
<g id="a_node5"><a xlink:href="ascent_8cpp.html" target="_top" xlink:title=" ">
<polygon fill="white" stroke="black" points="354.5,-0.5 354.5,-19.5 423.5,-19.5 423.5,-0.5 354.5,-0.5"/>
<text text-anchor="middle" x="389" y="-7.5" font-family="Helvetica,sans-Serif" font-size="10.00">ascent.cpp</text>
</a>
</g>
</g>
<!-- Node1&#45;&gt;Node5 -->
<g id="edge4" class="edge">
<title>Node1&#45;&gt;Node5</title>
<path fill="none" stroke="midnightblue" d="M1182.59,-64.75C1064.81,-63.6 718.04,-57.06 433,-20 429.91,-19.6 426.71,-19.1 423.51,-18.55"/>
<polygon fill="midnightblue" stroke="midnightblue" points="1182.91,-68.26 1192.94,-64.85 1182.97,-61.26 1182.91,-68.26"/>
</g>
<!-- Node6 -->
<g id="node6" class="node">
<title>Node6</title>
<g id="a_node6"><a xlink:href="_time_averaging_8cpp.html" target="_top" xlink:title=" ">
<polygon fill="white" stroke="black" points="442,-0.5 442,-19.5 552,-19.5 552,-0.5 442,-0.5"/>
<text text-anchor="middle" x="497" y="-7.5" font-family="Helvetica,sans-Serif" font-size="10.00">TimeAveraging.cpp</text>
</a>
</g>
</g>
<!-- Node1&#45;&gt;Node6 -->
<g id="edge5" class="edge">
<title>Node1&#45;&gt;Node6</title>
<path fill="none" stroke="midnightblue" d="M1182.76,-63.23C1078.43,-58.54 795.64,-44.43 561,-20 558.1,-19.7 555.13,-19.36 552.13,-19.01"/>
<polygon fill="midnightblue" stroke="midnightblue" points="1182.72,-66.74 1192.86,-63.68 1183.03,-59.74 1182.72,-66.74"/>
</g>
<!-- Node7 -->
<g id="node7" class="node">
<title>Node7</title>
<g id="a_node7"><a xlink:href="_derived_qty_defs_8cpp.html" target="_top" xlink:title=" ">
<polygon fill="white" stroke="black" points="570.5,-0.5 570.5,-19.5 685.5,-19.5 685.5,-0.5 570.5,-0.5"/>
<text text-anchor="middle" x="628" y="-7.5" font-family="Helvetica,sans-Serif" font-size="10.00">DerivedQtyDefs.cpp</text>
</a>
</g>
</g>
<!-- Node1&#45;&gt;Node7 -->
<g id="edge6" class="edge">
<title>Node1&#45;&gt;Node7</title>
<path fill="none" stroke="midnightblue" d="M1182.72,-62.18C1093.55,-55.92 876.37,-39.88 695,-20 691.97,-19.67 688.86,-19.31 685.72,-18.94"/>
<polygon fill="midnightblue" stroke="midnightblue" points="1182.72,-65.68 1192.94,-62.89 1183.21,-58.7 1182.72,-65.68"/>
</g>
<!-- Node8 -->
<g id="node8" class="node">
<title>Node8</title>
<g id="a_node8"><a xlink:href="_derived_quantity_8cpp.html" target="_top" xlink:title=" ">
<polygon fill="white" stroke="black" points="704,-0.5 704,-19.5 820,-19.5 820,-0.5 704,-0.5"/>
<text text-anchor="middle" x="762" y="-7.5" font-family="Helvetica,sans-Serif" font-size="10.00">DerivedQuantity.cpp</text>
</a>
</g>
</g>
<!-- Node1&#45;&gt;Node8 -->
<g id="edge7" class="edge">
<title>Node1&#45;&gt;Node8</title>
<path fill="none" stroke="midnightblue" d="M1183,-60.6C1111.22,-52.85 958.1,-36.02 829,-20 826.09,-19.64 823.11,-19.26 820.1,-18.88"/>
<polygon fill="midnightblue" stroke="midnightblue" points="1182.67,-64.09 1192.99,-61.68 1183.43,-57.13 1182.67,-64.09"/>
</g>
<!-- Node9 -->
<g id="node9" class="node">
<title>Node9</title>
<g id="a_node9"><a xlink:href="_i_o_manager_8cpp.html" target="_top" xlink:title=" ">
<polygon fill="white" stroke="black" points="838.5,-0.5 838.5,-19.5 927.5,-19.5 927.5,-0.5 838.5,-0.5"/>
<text text-anchor="middle" x="883" y="-7.5" font-family="Helvetica,sans-Serif" font-size="10.00">IOManager.cpp</text>
</a>
</g>
</g>
<!-- Node1&#45;&gt;Node9 -->
<g id="edge8" class="edge">
<title>Node1&#45;&gt;Node9</title>
<path fill="none" stroke="midnightblue" d="M1182.65,-58.71C1126.69,-50.17 1023.75,-34.3 936,-20 933.24,-19.55 930.39,-19.08 927.53,-18.6"/>
<polygon fill="midnightblue" stroke="midnightblue" points="1182.45,-62.23 1192.87,-60.27 1183.51,-55.31 1182.45,-62.23"/>
</g>
<!-- Node10 -->
<g id="node10" class="node">
<title>Node10</title>
<g id="a_node10"><a xlink:href="_enstrophy_8cpp.html" target="_top" xlink:title=" ">
<polygon fill="white" stroke="black" points="945,-0.5 945,-19.5 1029,-19.5 1029,-0.5 945,-0.5"/>
<text text-anchor="middle" x="987" y="-7.5" font-family="Helvetica,sans-Serif" font-size="10.00">Enstrophy.cpp</text>
</a>
</g>
</g>
<!-- Node1&#45;&gt;Node10 -->
<g id="edge9" class="edge">
<title>Node1&#45;&gt;Node10</title>
<path fill="none" stroke="midnightblue" d="M1182.59,-55.56C1137.95,-45.39 1067.52,-29.35 1024.47,-19.54"/>
<polygon fill="midnightblue" stroke="midnightblue" points="1182,-59.02 1192.53,-57.83 1183.56,-52.2 1182,-59.02"/>
</g>
<!-- Node11 -->
<g id="node11" class="node">
<title>Node11</title>
<g id="a_node11"><a xlink:href="_field_norms_8cpp.html" target="_top" xlink:title=" ">
<polygon fill="white" stroke="black" points="1047,-0.5 1047,-19.5 1139,-19.5 1139,-0.5 1047,-0.5"/>
<text text-anchor="middle" x="1093" y="-7.5" font-family="Helvetica,sans-Serif" font-size="10.00">FieldNorms.cpp</text>
</a>
</g>
</g>
<!-- Node1&#45;&gt;Node11 -->
<g id="edge10" class="edge">
<title>Node1&#45;&gt;Node11</title>
<path fill="none" stroke="midnightblue" d="M1193.68,-52.5C1169.12,-42.38 1135.18,-28.39 1113.66,-19.52"/>
<polygon fill="midnightblue" stroke="midnightblue" points="1192.66,-55.87 1203.24,-56.44 1195.33,-49.4 1192.66,-55.87"/>
</g>
<!-- Node12 -->
<g id="node12" class="node">
<title>Node12</title>
<g id="a_node12"><a xlink:href="_free_surface_sampler_8cpp.html" target="_top" xlink:title=" ">
<polygon fill="white" stroke="black" points="1157,-0.5 1157,-19.5 1291,-19.5 1291,-0.5 1157,-0.5"/>
<text text-anchor="middle" x="1224" y="-7.5" font-family="Helvetica,sans-Serif" font-size="10.00">FreeSurfaceSampler.cpp</text>
</a>
</g>
</g>
<!-- Node1&#45;&gt;Node12 -->
<g id="edge11" class="edge">
<title>Node1&#45;&gt;Node12</title>
<path fill="none" stroke="midnightblue" d="M1224,-45.8C1224,-36.91 1224,-26.78 1224,-19.75"/>
<polygon fill="midnightblue" stroke="midnightblue" points="1220.5,-46.08 1224,-56.08 1227.5,-46.08 1220.5,-46.08"/>
</g>
<!-- Node13 -->
<g id="node13" class="node">
<title>Node13</title>
<g id="a_node13"><a xlink:href="_kinetic_energy_8cpp.html" target="_top" xlink:title=" ">
<polygon fill="white" stroke="black" points="1309.5,-0.5 1309.5,-19.5 1412.5,-19.5 1412.5,-0.5 1309.5,-0.5"/>
<text text-anchor="middle" x="1361" y="-7.5" font-family="Helvetica,sans-Serif" font-size="10.00">KineticEnergy.cpp</text>
</a>
</g>
</g>
<!-- Node1&#45;&gt;Node13 -->
<g id="edge12" class="edge">
<title>Node1&#45;&gt;Node13</title>
<path fill="none" stroke="midnightblue" d="M1255.02,-52.77C1280.76,-42.63 1316.69,-28.47 1339.39,-19.52"/>
<polygon fill="midnightblue" stroke="midnightblue" points="1253.73,-49.52 1245.71,-56.44 1256.29,-56.03 1253.73,-49.52"/>
</g>
<!-- Node14 -->
<g id="node14" class="node">
<title>Node14</title>
<g id="a_node14"><a xlink:href="_sampling_8cpp.html" target="_top" xlink:title=" ">
<polygon fill="white" stroke="black" points="1430.5,-0.5 1430.5,-19.5 1513.5,-19.5 1513.5,-0.5 1430.5,-0.5"/>
<text text-anchor="middle" x="1472" y="-7.5" font-family="Helvetica,sans-Serif" font-size="10.00">Sampling.cpp</text>
</a>
</g>
</g>
<!-- Node1&#45;&gt;Node14 -->
<g id="edge13" class="edge">
<title>Node1&#45;&gt;Node14</title>
<path fill="none" stroke="midnightblue" d="M1265.19,-56.03C1311.7,-45.9 1386.83,-29.54 1432.59,-19.58"/>
<polygon fill="midnightblue" stroke="midnightblue" points="1264.18,-52.67 1255.16,-58.22 1265.67,-59.51 1264.18,-52.67"/>
</g>
<!-- Node15 -->
<g id="node15" class="node">
<title>Node15</title>
<g id="a_node15"><a xlink:href="_wave_energy_8cpp.html" target="_top" xlink:title=" ">
<polygon fill="white" stroke="black" points="1532,-0.5 1532,-19.5 1628,-19.5 1628,-0.5 1532,-0.5"/>
<text text-anchor="middle" x="1580" y="-7.5" font-family="Helvetica,sans-Serif" font-size="10.00">WaveEnergy.cpp</text>
</a>
</g>
</g>
<!-- Node1&#45;&gt;Node15 -->
<g id="edge14" class="edge">
<title>Node1&#45;&gt;Node15</title>
<path fill="none" stroke="midnightblue" d="M1265.17,-58.9C1322.83,-50.33 1430.93,-34.2 1523,-20 1525.87,-19.56 1528.82,-19.1 1531.8,-18.64"/>
<polygon fill="midnightblue" stroke="midnightblue" points="1264.38,-55.48 1255,-60.41 1265.41,-62.4 1264.38,-55.48"/>
</g>
<!-- Node16 -->
<g id="node16" class="node">
<title>Node16</title>
<g id="a_node16"><a xlink:href="_a_b_l_stats_8cpp.html" target="_top" xlink:title=" ">
<polygon fill="white" stroke="black" points="1646,-0.5 1646,-19.5 1726,-19.5 1726,-0.5 1646,-0.5"/>
<text text-anchor="middle" x="1686" y="-7.5" font-family="Helvetica,sans-Serif" font-size="10.00">ABLStats.cpp</text>
</a>
</g>
</g>
<!-- Node1&#45;&gt;Node16 -->
<g id="edge15" class="edge">
<title>Node1&#45;&gt;Node16</title>
<path fill="none" stroke="midnightblue" d="M1265.55,-61.49C1340.14,-54.95 1501.64,-39.78 1637,-20 1639.91,-19.57 1642.91,-19.1 1645.93,-18.61"/>
<polygon fill="midnightblue" stroke="midnightblue" points="1264.84,-58.03 1255.18,-62.39 1265.45,-65.01 1264.84,-58.03"/>
</g>
<!-- Node17 -->
<g id="node17" class="node">
<title>Node17</title>
<g id="a_node17"><a xlink:href="_actuator_8cpp.html" target="_top" xlink:title=" ">
<polygon fill="white" stroke="black" points="1744.5,-0.5 1744.5,-19.5 1821.5,-19.5 1821.5,-0.5 1744.5,-0.5"/>
<text text-anchor="middle" x="1783" y="-7.5" font-family="Helvetica,sans-Serif" font-size="10.00">Actuator.cpp</text>
</a>
</g>
</g>
<!-- Node1&#45;&gt;Node17 -->
<g id="edge16" class="edge">
<title>Node1&#45;&gt;Node17</title>
<path fill="none" stroke="midnightblue" d="M1265.23,-62.74C1352.3,-57.66 1561.2,-43.89 1735,-20 1738.02,-19.58 1741.15,-19.11 1744.28,-18.6"/>
<polygon fill="midnightblue" stroke="midnightblue" points="1265.01,-59.24 1255.23,-63.31 1265.41,-66.23 1265.01,-59.24"/>
</g>
<!-- Node18 -->
<g id="node18" class="node">
<title>Node18</title>
<g id="a_node18"><a xlink:href="disk__ops_8cpp.html" target="_top" xlink:title=" ">
<polygon fill="white" stroke="black" points="1840,-0.5 1840,-19.5 1920,-19.5 1920,-0.5 1840,-0.5"/>
<text text-anchor="middle" x="1880" y="-7.5" font-family="Helvetica,sans-Serif" font-size="10.00">disk_ops.cpp</text>
</a>
</g>
</g>
<!-- Node1&#45;&gt;Node18 -->
<g id="edge17" class="edge">
<title>Node1&#45;&gt;Node18</title>
<path fill="none" stroke="midnightblue" d="M1265.17,-63.48C1363.41,-59.51 1619.14,-47.23 1831,-20 1833.92,-19.63 1836.92,-19.19 1839.94,-18.72"/>
<polygon fill="midnightblue" stroke="midnightblue" points="1264.93,-59.99 1255.07,-63.88 1265.2,-66.98 1264.93,-59.99"/>
</g>
<!-- Node19 -->
<g id="node19" class="node">
<title>Node19</title>
<g id="a_node19"><a xlink:href="_joukowsky__ops_8cpp.html" target="_top" xlink:title=" ">
<polygon fill="white" stroke="black" points="1938,-0.5 1938,-19.5 2048,-19.5 2048,-0.5 1938,-0.5"/>
<text text-anchor="middle" x="1993" y="-7.5" font-family="Helvetica,sans-Serif" font-size="10.00">Joukowsky_ops.cpp</text>
</a>
</g>
</g>
<!-- Node1&#45;&gt;Node19 -->
<g id="edge18" class="edge">
<title>Node1&#45;&gt;Node19</title>
<path fill="none" stroke="midnightblue" d="M1265.58,-63.45C1374.63,-59.15 1677.79,-45.64 1929,-20 1931.9,-19.7 1934.88,-19.37 1937.87,-19.02"/>
<polygon fill="midnightblue" stroke="midnightblue" points="1265.2,-59.96 1255.34,-63.85 1265.47,-66.96 1265.2,-59.96"/>
</g>
<!-- Node20 -->
<g id="node20" class="node">
<title>Node20</title>
<g id="a_node20"><a xlink:href="_fast_iface_8cpp.html" target="_top" xlink:title=" ">
<polygon fill="white" stroke="black" points="2066,-0.5 2066,-19.5 2146,-19.5 2146,-0.5 2066,-0.5"/>
<text text-anchor="middle" x="2106" y="-7.5" font-family="Helvetica,sans-Serif" font-size="10.00">FastIface.cpp</text>
</a>
</g>
</g>
<!-- Node1&#45;&gt;Node20 -->
<g id="edge19" class="edge">
<title>Node1&#45;&gt;Node20</title>
<path fill="none" stroke="midnightblue" d="M1265.49,-64.63C1387.37,-63.14 1754.74,-55.77 2057,-20 2059.92,-19.65 2062.93,-19.24 2065.95,-18.79"/>
<polygon fill="midnightblue" stroke="midnightblue" points="1265.09,-61.13 1255.14,-64.75 1265.18,-68.13 1265.09,-61.13"/>
</g>
<!-- Node21 -->
<g id="node21" class="node">
<title>Node21</title>
<g id="a_node21"><a xlink:href="turbine__utils_8cpp.html" target="_top" xlink:title=" ">
<polygon fill="white" stroke="black" points="2164,-0.5 2164,-19.5 2262,-19.5 2262,-0.5 2164,-0.5"/>
<text text-anchor="middle" x="2213" y="-7.5" font-family="Helvetica,sans-Serif" font-size="10.00">turbine_utils.cpp</text>
</a>
</g>
</g>
<!-- Node1&#45;&gt;Node21 -->
<g id="edge20" class="edge">
<title>Node1&#45;&gt;Node21</title>
<path fill="none" stroke="midnightblue" d="M1265.38,-64.56C1396.2,-62.82 1812.46,-54.76 2155,-20 2157.94,-19.7 2160.96,-19.36 2164,-18.98"/>
<polygon fill="midnightblue" stroke="midnightblue" points="1264.98,-61.06 1255.03,-64.69 1265.07,-68.06 1264.98,-61.06"/>
</g>
<!-- Node22 -->
<g id="node22" class="node">
<title>Node22</title>
<g id="a_node22"><a xlink:href="wing__ops_8cpp.html" target="_top" xlink:title=" ">
<polygon fill="white" stroke="black" points="2280.5,-0.5 2280.5,-19.5 2363.5,-19.5 2363.5,-0.5 2280.5,-0.5"/>
<text text-anchor="middle" x="2322" y="-7.5" font-family="Helvetica,sans-Serif" font-size="10.00">wing_ops.cpp</text>
</a>
</g>
</g>
<!-- Node1&#45;&gt;Node22 -->
<g id="edge21" class="edge">
<title>Node1&#45;&gt;Node22</title>
<path fill="none" stroke="midnightblue" d="M1265.76,-65.18C1407.32,-65.35 1881.88,-62.51 2271,-20 2274.04,-19.67 2277.17,-19.27 2280.32,-18.82"/>
<polygon fill="midnightblue" stroke="midnightblue" points="1265.38,-61.67 1255.38,-65.16 1265.37,-68.67 1265.38,-61.67"/>
</g>
</g>
</svg>
