<?xml version="1.0" encoding="UTF-8" standalone="no"?>
<!DOCTYPE svg PUBLIC "-//W3C//DTD SVG 1.1//EN"
 "http://www.w3.org/Graphics/SVG/1.1/DTD/svg11.dtd">
<!-- Generated by graphviz version 2.43.0 (0)
 -->
<!-- Title: nc_interface.H Pages: 1 -->
<svg width="3930pt" height="252pt"
 viewBox="0.00 0.00 3930.00 252.00" xmlns="http://www.w3.org/2000/svg" xmlns:xlink="http://www.w3.org/1999/xlink">
<g id="graph0" class="graph" transform="scale(1 1) rotate(0) translate(4 248)">
<title>nc_interface.H</title>
<polygon fill="white" stroke="transparent" points="-4,4 -4,-248 3926,-248 3926,4 -4,4"/>
<!-- Node1 -->
<g id="node1" class="node">
<title>Node1</title>
<g id="a_node1"><a xlink:title="Interface to NetCDF library.">
<polygon fill="#bfbfbf" stroke="black" points="2326,-224.5 2326,-243.5 2413,-243.5 2413,-224.5 2326,-224.5"/>
<text text-anchor="middle" x="2369.5" y="-231.5" font-family="Helvetica,sans-Serif" font-size="10.00">nc_interface.H</text>
</a>
</g>
</g>
<!-- Node2 -->
<g id="node2" class="node">
<title>Node2</title>
<g id="a_node2"><a xlink:href="_a_b_l_meso_forcing_mom_8_h.html" target="_top" xlink:title=" ">
<polygon fill="white" stroke="black" points="1416.5,-112.5 1416.5,-131.5 1548.5,-131.5 1548.5,-112.5 1416.5,-112.5"/>
<text text-anchor="middle" x="1482.5" y="-119.5" font-family="Helvetica,sans-Serif" font-size="10.00">ABLMesoForcingMom.H</text>
</a>
</g>
</g>
<!-- Node1&#45;&gt;Node2 -->
<g id="edge1" class="edge">
<title>Node1&#45;&gt;Node2</title>
<path fill="none" stroke="midnightblue" d="M2315.55,-232.67C2141.57,-231.24 1602.57,-223.93 1533.5,-188 1509.58,-175.56 1493.29,-146.33 1486.32,-131.69"/>
<polygon fill="midnightblue" stroke="midnightblue" points="2315.72,-236.17 2325.75,-232.75 2315.78,-229.17 2315.72,-236.17"/>
</g>
<!-- Node5 -->
<g id="node5" class="node">
<title>Node5</title>
<g id="a_node5"><a xlink:href="_a_b_l_stats_8cpp.html" target="_top" xlink:title=" ">
<polygon fill="white" stroke="black" points="1123.5,-56.5 1123.5,-75.5 1203.5,-75.5 1203.5,-56.5 1123.5,-56.5"/>
<text text-anchor="middle" x="1163.5" y="-63.5" font-family="Helvetica,sans-Serif" font-size="10.00">ABLStats.cpp</text>
</a>
</g>
</g>
<!-- Node1&#45;&gt;Node5 -->
<g id="edge57" class="edge">
<title>Node1&#45;&gt;Node5</title>
<path fill="none" stroke="midnightblue" d="M2315.87,-233.47C2131.39,-234.65 1523.99,-234.78 1335.5,-188 1279.16,-174.02 1263.35,-167.61 1217.5,-132 1196.18,-115.44 1177.61,-89.11 1168.85,-75.6"/>
<polygon fill="midnightblue" stroke="midnightblue" points="2315.9,-236.97 2325.87,-233.4 2315.85,-229.97 2315.9,-236.97"/>
</g>
<!-- Node6 -->
<g id="node6" class="node">
<title>Node6</title>
<g id="a_node6"><a xlink:href="_a_b_l_meso_forcing_temp_8cpp.html" target="_top" xlink:title=" ">
<polygon fill="white" stroke="black" points="1222,-56.5 1222,-75.5 1365,-75.5 1365,-56.5 1222,-56.5"/>
<text text-anchor="middle" x="1293.5" y="-63.5" font-family="Helvetica,sans-Serif" font-size="10.00">ABLMesoForcingTemp.cpp</text>
</a>
</g>
</g>
<!-- Node1&#45;&gt;Node6 -->
<g id="edge5" class="edge">
<title>Node1&#45;&gt;Node6</title>
<path fill="none" stroke="midnightblue" d="M2315.46,-233.44C2150.97,-234.27 1658.35,-232.84 1505.5,-188 1494.65,-184.82 1354.44,-102.78 1308.19,-75.63"/>
<polygon fill="midnightblue" stroke="midnightblue" points="2315.83,-236.94 2325.81,-233.38 2315.79,-229.94 2315.83,-236.94"/>
</g>
<!-- Node7 -->
<g id="node7" class="node">
<title>Node7</title>
<g id="a_node7"><a xlink:href="_a_b_l_meso_forcing_temp_8_h.html" target="_top" xlink:title=" ">
<polygon fill="white" stroke="black" points="1226.5,-112.5 1226.5,-131.5 1360.5,-131.5 1360.5,-112.5 1226.5,-112.5"/>
<text text-anchor="middle" x="1293.5" y="-119.5" font-family="Helvetica,sans-Serif" font-size="10.00">ABLMesoForcingTemp.H</text>
</a>
</g>
</g>
<!-- Node1&#45;&gt;Node7 -->
<g id="edge6" class="edge">
<title>Node1&#45;&gt;Node7</title>
<path fill="none" stroke="midnightblue" d="M2315.71,-232.51C2121.4,-230.5 1462.62,-221.24 1374.5,-188 1342.78,-176.04 1313.97,-146.59 1300.9,-131.79"/>
<polygon fill="midnightblue" stroke="midnightblue" points="2315.92,-236.02 2325.96,-232.62 2315.99,-229.02 2315.92,-236.02"/>
</g>
<!-- Node8 -->
<g id="node8" class="node">
<title>Node8</title>
<g id="a_node8"><a xlink:href="bluff__body__ops_8cpp.html" target="_top" xlink:title=" ">
<polygon fill="white" stroke="black" points="1717.5,-168.5 1717.5,-187.5 1827.5,-187.5 1827.5,-168.5 1717.5,-168.5"/>
<text text-anchor="middle" x="1772.5" y="-175.5" font-family="Helvetica,sans-Serif" font-size="10.00">bluff_body_ops.cpp</text>
</a>
</g>
</g>
<!-- Node1&#45;&gt;Node8 -->
<g id="edge10" class="edge">
<title>Node1&#45;&gt;Node8</title>
<path fill="none" stroke="midnightblue" d="M2315.93,-229.42C2219.9,-222.78 2012.15,-207.46 1837.5,-188 1834.33,-187.65 1831.08,-187.26 1827.79,-186.86"/>
<polygon fill="midnightblue" stroke="midnightblue" points="2315.76,-232.91 2325.98,-230.11 2316.24,-225.93 2315.76,-232.91"/>
</g>
<!-- Node9 -->
<g id="node9" class="node">
<title>Node9</title>
<g id="a_node9"><a xlink:href="relaxation__zones__ops_8cpp.html" target="_top" xlink:title=" ">
<polygon fill="white" stroke="black" points="1846,-168.5 1846,-187.5 1989,-187.5 1989,-168.5 1846,-168.5"/>
<text text-anchor="middle" x="1917.5" y="-175.5" font-family="Helvetica,sans-Serif" font-size="10.00">relaxation_zones_ops.cpp</text>
</a>
</g>
</g>
<!-- Node1&#45;&gt;Node9 -->
<g id="edge11" class="edge">
<title>Node1&#45;&gt;Node9</title>
<path fill="none" stroke="midnightblue" d="M2315.72,-226.57C2234.31,-216.85 2079.7,-198.38 1988.94,-187.53"/>
<polygon fill="midnightblue" stroke="midnightblue" points="2315.41,-230.06 2325.75,-227.77 2316.24,-223.11 2315.41,-230.06"/>
</g>
<!-- Node10 -->
<g id="node10" class="node">
<title>Node10</title>
<g id="a_node10"><a xlink:href="_synthetic_turbulence_8cpp.html" target="_top" xlink:title=" ">
<polygon fill="white" stroke="black" points="2007,-168.5 2007,-187.5 2142,-187.5 2142,-168.5 2007,-168.5"/>
<text text-anchor="middle" x="2074.5" y="-175.5" font-family="Helvetica,sans-Serif" font-size="10.00">SyntheticTurbulence.cpp</text>
</a>
</g>
</g>
<!-- Node1&#45;&gt;Node10 -->
<g id="edge12" class="edge">
<title>Node1&#45;&gt;Node10</title>
<path fill="none" stroke="midnightblue" d="M2315.95,-223.2C2260.3,-213.01 2174.08,-197.23 2121.13,-187.54"/>
<polygon fill="midnightblue" stroke="midnightblue" points="2315.5,-226.67 2325.97,-225.03 2316.77,-219.79 2315.5,-226.67"/>
</g>
<!-- Node11 -->
<g id="node11" class="node">
<title>Node11</title>
<g id="a_node11"><a xlink:href="_i_o_manager_8cpp.html" target="_top" xlink:title=" ">
<polygon fill="white" stroke="black" points="2160,-168.5 2160,-187.5 2249,-187.5 2249,-168.5 2160,-168.5"/>
<text text-anchor="middle" x="2204.5" y="-175.5" font-family="Helvetica,sans-Serif" font-size="10.00">IOManager.cpp</text>
</a>
</g>
</g>
<!-- Node1&#45;&gt;Node11 -->
<g id="edge13" class="edge">
<title>Node1&#45;&gt;Node11</title>
<path fill="none" stroke="midnightblue" d="M2333.76,-221.3C2302.67,-211.13 2258.35,-196.62 2230.52,-187.52"/>
<polygon fill="midnightblue" stroke="midnightblue" points="2332.76,-224.66 2343.36,-224.44 2334.94,-218.01 2332.76,-224.66"/>
</g>
<!-- Node12 -->
<g id="node12" class="node">
<title>Node12</title>
<g id="a_node12"><a xlink:href="nc__interface_8cpp.html" target="_top" xlink:title=" ">
<polygon fill="white" stroke="black" points="2267,-168.5 2267,-187.5 2364,-187.5 2364,-168.5 2267,-168.5"/>
<text text-anchor="middle" x="2315.5" y="-175.5" font-family="Helvetica,sans-Serif" font-size="10.00">nc_interface.cpp</text>
</a>
</g>
</g>
<!-- Node1&#45;&gt;Node12 -->
<g id="edge14" class="edge">
<title>Node1&#45;&gt;Node12</title>
<path fill="none" stroke="midnightblue" d="M2353.5,-217C2343.93,-207.43 2332.14,-195.64 2324.25,-187.75"/>
<polygon fill="midnightblue" stroke="midnightblue" points="2351.04,-219.49 2360.58,-224.08 2355.99,-214.54 2351.04,-219.49"/>
</g>
<!-- Node13 -->
<g id="node13" class="node">
<title>Node13</title>
<g id="a_node13"><a xlink:href="_enstrophy_8cpp.html" target="_top" xlink:title=" ">
<polygon fill="white" stroke="black" points="2382.5,-168.5 2382.5,-187.5 2466.5,-187.5 2466.5,-168.5 2382.5,-168.5"/>
<text text-anchor="middle" x="2424.5" y="-175.5" font-family="Helvetica,sans-Serif" font-size="10.00">Enstrophy.cpp</text>
</a>
</g>
</g>
<!-- Node1&#45;&gt;Node13 -->
<g id="edge15" class="edge">
<title>Node1&#45;&gt;Node13</title>
<path fill="none" stroke="midnightblue" d="M2385.79,-217C2395.54,-207.43 2407.55,-195.64 2415.59,-187.75"/>
<polygon fill="midnightblue" stroke="midnightblue" points="2383.27,-214.58 2378.58,-224.08 2388.17,-219.57 2383.27,-214.58"/>
</g>
<!-- Node14 -->
<g id="node14" class="node">
<title>Node14</title>
<g id="a_node14"><a xlink:href="_field_norms_8cpp.html" target="_top" xlink:title=" ">
<polygon fill="white" stroke="black" points="2484.5,-168.5 2484.5,-187.5 2576.5,-187.5 2576.5,-168.5 2484.5,-168.5"/>
<text text-anchor="middle" x="2530.5" y="-175.5" font-family="Helvetica,sans-Serif" font-size="10.00">FieldNorms.cpp</text>
</a>
</g>
</g>
<!-- Node1&#45;&gt;Node14 -->
<g id="edge16" class="edge">
<title>Node1&#45;&gt;Node14</title>
<path fill="none" stroke="midnightblue" d="M2404.76,-221.17C2435.08,-211 2478.07,-196.59 2505.11,-187.52"/>
<polygon fill="midnightblue" stroke="midnightblue" points="2403.38,-217.95 2395.01,-224.44 2405.6,-224.58 2403.38,-217.95"/>
</g>
<!-- Node15 -->
<g id="node15" class="node">
<title>Node15</title>
<g id="a_node15"><a xlink:href="_kinetic_energy_8cpp.html" target="_top" xlink:title=" ">
<polygon fill="white" stroke="black" points="2595,-168.5 2595,-187.5 2698,-187.5 2698,-168.5 2595,-168.5"/>
<text text-anchor="middle" x="2646.5" y="-175.5" font-family="Helvetica,sans-Serif" font-size="10.00">KineticEnergy.cpp</text>
</a>
</g>
</g>
<!-- Node1&#45;&gt;Node15 -->
<g id="edge17" class="edge">
<title>Node1&#45;&gt;Node15</title>
<path fill="none" stroke="midnightblue" d="M2423.18,-222.53C2475.5,-212.34 2554.06,-197.02 2602.71,-187.54"/>
<polygon fill="midnightblue" stroke="midnightblue" points="2422.23,-219.15 2413.09,-224.5 2423.57,-226.02 2422.23,-219.15"/>
</g>
<!-- Node16 -->
<g id="node16" class="node">
<title>Node16</title>
<g id="a_node16"><a xlink:href="_sampler_base_8_h.html" target="_top" xlink:title=" ">
<polygon fill="white" stroke="black" points="643.5,-168.5 643.5,-187.5 735.5,-187.5 735.5,-168.5 643.5,-168.5"/>
<text text-anchor="middle" x="689.5" y="-175.5" font-family="Helvetica,sans-Serif" font-size="10.00">SamplerBase.H</text>
</a>
</g>
</g>
<!-- Node1&#45;&gt;Node16 -->
<g id="edge18" class="edge">
<title>Node1&#45;&gt;Node16</title>
<path fill="none" stroke="midnightblue" d="M2315.72,-231.27C2060.41,-223.07 973.15,-188.12 735.51,-180.48"/>
<polygon fill="midnightblue" stroke="midnightblue" points="2315.75,-234.77 2325.86,-231.6 2315.97,-227.78 2315.75,-234.77"/>
</g>
<!-- Node32 -->
<g id="node29" class="node">
<title>Node32</title>
<g id="a_node29"><a xlink:href="_sampling_8cpp.html" target="_top" xlink:title=" ">
<polygon fill="white" stroke="black" points="1003,-56.5 1003,-75.5 1086,-75.5 1086,-56.5 1003,-56.5"/>
<text text-anchor="middle" x="1044.5" y="-63.5" font-family="Helvetica,sans-Serif" font-size="10.00">Sampling.cpp</text>
</a>
</g>
</g>
<!-- Node1&#45;&gt;Node32 -->
<g id="edge38" class="edge">
<title>Node1&#45;&gt;Node32</title>
<path fill="none" stroke="midnightblue" d="M2315.69,-232.36C2108.56,-229.68 1369.23,-218.06 1268.5,-188 1205.47,-169.19 1199.64,-142.77 1141.5,-112 1115.41,-98.19 1084.31,-84.18 1064.49,-75.54"/>
<polygon fill="midnightblue" stroke="midnightblue" points="2315.68,-235.86 2325.72,-232.49 2315.77,-228.86 2315.68,-235.86"/>
</g>
<!-- Node37 -->
<g id="node34" class="node">
<title>Node37</title>
<g id="a_node34"><a xlink:href="_wave_energy_8cpp.html" target="_top" xlink:title=" ">
<polygon fill="white" stroke="black" points="2716.5,-168.5 2716.5,-187.5 2812.5,-187.5 2812.5,-168.5 2716.5,-168.5"/>
<text text-anchor="middle" x="2764.5" y="-175.5" font-family="Helvetica,sans-Serif" font-size="10.00">WaveEnergy.cpp</text>
</a>
</g>
</g>
<!-- Node1&#45;&gt;Node37 -->
<g id="edge39" class="edge">
<title>Node1&#45;&gt;Node37</title>
<path fill="none" stroke="midnightblue" d="M2423.3,-226.25C2490.04,-217.77 2607.27,-202.58 2707.5,-188 2710.38,-187.58 2713.33,-187.14 2716.31,-186.69"/>
<polygon fill="midnightblue" stroke="midnightblue" points="2422.51,-222.82 2413.03,-227.55 2423.39,-229.76 2422.51,-222.82"/>
</g>
<!-- Node38 -->
<g id="node35" class="node">
<title>Node38</title>
<g id="a_node35"><a xlink:href="_a_b_l_boundary_plane_8cpp.html" target="_top" xlink:title=" ">
<polygon fill="white" stroke="black" points="1950,-56.5 1950,-75.5 2079,-75.5 2079,-56.5 1950,-56.5"/>
<text text-anchor="middle" x="2014.5" y="-63.5" font-family="Helvetica,sans-Serif" font-size="10.00">ABLBoundaryPlane.cpp</text>
</a>
</g>
</g>
<!-- Node1&#45;&gt;Node38 -->
<g id="edge40" class="edge">
<title>Node1&#45;&gt;Node38</title>
<path fill="none" stroke="midnightblue" d="M2315.48,-233.45C2165.04,-234.12 1749.57,-231.96 1708.5,-188 1702.43,-181.5 1703.29,-175.2 1708.5,-168 1716.96,-156.3 1910.88,-97.76 1985.55,-75.56"/>
<polygon fill="midnightblue" stroke="midnightblue" points="2315.87,-236.94 2325.85,-233.39 2315.83,-229.94 2315.87,-236.94"/>
</g>
<!-- Node39 -->
<g id="node36" class="node">
<title>Node39</title>
<g id="a_node36"><a xlink:href="_a_b_l_boundary_plane_8_h.html" target="_top" xlink:title=" ">
<polygon fill="white" stroke="black" points="1542,-168.5 1542,-187.5 1661,-187.5 1661,-168.5 1542,-168.5"/>
<text text-anchor="middle" x="1601.5" y="-175.5" font-family="Helvetica,sans-Serif" font-size="10.00">ABLBoundaryPlane.H</text>
</a>
</g>
</g>
<!-- Node1&#45;&gt;Node39 -->
<g id="edge41" class="edge">
<title>Node1&#45;&gt;Node39</title>
<path fill="none" stroke="midnightblue" d="M2315.9,-230.55C2199.28,-225.01 1913.85,-210.2 1675.5,-188 1670.86,-187.57 1666.06,-187.08 1661.24,-186.56"/>
<polygon fill="midnightblue" stroke="midnightblue" points="2315.83,-234.05 2325.99,-231.03 2316.17,-227.06 2315.83,-234.05"/>
</g>
<!-- Node57 -->
<g id="node42" class="node">
<title>Node57</title>
<g id="a_node42"><a xlink:href="_a_b_l_field_init_8cpp.html" target="_top" xlink:title=" ">
<polygon fill="white" stroke="black" points="2831,-168.5 2831,-187.5 2926,-187.5 2926,-168.5 2831,-168.5"/>
<text text-anchor="middle" x="2878.5" y="-175.5" font-family="Helvetica,sans-Serif" font-size="10.00">ABLFieldInit.cpp</text>
</a>
</g>
</g>
<!-- Node1&#45;&gt;Node57 -->
<g id="edge53" class="edge">
<title>Node1&#45;&gt;Node57</title>
<path fill="none" stroke="midnightblue" d="M2423.39,-228.64C2508.24,-221.55 2678.09,-206.45 2821.5,-188 2824.58,-187.6 2827.75,-187.17 2830.94,-186.72"/>
<polygon fill="midnightblue" stroke="midnightblue" points="2422.9,-225.17 2413.23,-229.49 2423.48,-232.15 2422.9,-225.17"/>
</g>
<!-- Node58 -->
<g id="node43" class="node">
<title>Node58</title>
<g id="a_node43"><a xlink:href="_a_b_l_field_init_file_8cpp.html" target="_top" xlink:title=" ">
<polygon fill="white" stroke="black" points="2944.5,-168.5 2944.5,-187.5 3056.5,-187.5 3056.5,-168.5 2944.5,-168.5"/>
<text text-anchor="middle" x="3000.5" y="-175.5" font-family="Helvetica,sans-Serif" font-size="10.00">ABLFieldInitFile.cpp</text>
</a>
</g>
</g>
<!-- Node1&#45;&gt;Node58 -->
<g id="edge54" class="edge">
<title>Node1&#45;&gt;Node58</title>
<path fill="none" stroke="midnightblue" d="M2423.49,-229.76C2524.28,-223.47 2747.87,-208.43 2935.5,-188 2938.33,-187.69 2941.23,-187.36 2944.15,-187.01"/>
<polygon fill="midnightblue" stroke="midnightblue" points="2423.02,-226.28 2413.26,-230.39 2423.45,-233.27 2423.02,-226.28"/>
</g>
<!-- Node59 -->
<g id="node44" class="node">
<title>Node59</title>
<g id="a_node44"><a xlink:href="_a_b_l_mesoscale_input_8cpp.html" target="_top" xlink:title=" ">
<polygon fill="white" stroke="black" points="3074.5,-168.5 3074.5,-187.5 3206.5,-187.5 3206.5,-168.5 3074.5,-168.5"/>
<text text-anchor="middle" x="3140.5" y="-175.5" font-family="Helvetica,sans-Serif" font-size="10.00">ABLMesoscaleInput.cpp</text>
</a>
</g>
</g>
<!-- Node1&#45;&gt;Node59 -->
<g id="edge55" class="edge">
<title>Node1&#45;&gt;Node59</title>
<path fill="none" stroke="midnightblue" d="M2423.25,-230.53C2540.2,-224.94 2826.44,-210.05 3065.5,-188 3068.37,-187.73 3071.31,-187.45 3074.27,-187.15"/>
<polygon fill="midnightblue" stroke="midnightblue" points="2422.96,-227.04 2413.13,-231.01 2423.29,-234.03 2422.96,-227.04"/>
</g>
<!-- Node60 -->
<g id="node45" class="node">
<title>Node60</title>
<g id="a_node45"><a xlink:href="_a_b_l_modulated_power_law_8cpp.html" target="_top" xlink:title=" ">
<polygon fill="white" stroke="black" points="3224.5,-168.5 3224.5,-187.5 3380.5,-187.5 3380.5,-168.5 3224.5,-168.5"/>
<text text-anchor="middle" x="3302.5" y="-175.5" font-family="Helvetica,sans-Serif" font-size="10.00">ABLModulatedPowerLaw.cpp</text>
</a>
</g>
</g>
<!-- Node1&#45;&gt;Node60 -->
<g id="edge56" class="edge">
<title>Node1&#45;&gt;Node60</title>
<path fill="none" stroke="midnightblue" d="M2423.13,-231.08C2556.98,-226.08 2916.46,-211.41 3215.5,-188 3218.38,-187.77 3221.3,-187.53 3224.26,-187.28"/>
<polygon fill="midnightblue" stroke="midnightblue" points="2423,-227.58 2413.14,-231.45 2423.26,-234.58 2423,-227.58"/>
</g>
<!-- Node61 -->
<g id="node46" class="node">
<title>Node61</title>
<g id="a_node46"><a xlink:href="disk__ops_8cpp.html" target="_top" xlink:title=" ">
<polygon fill="white" stroke="black" points="3398.5,-168.5 3398.5,-187.5 3478.5,-187.5 3478.5,-168.5 3398.5,-168.5"/>
<text text-anchor="middle" x="3438.5" y="-175.5" font-family="Helvetica,sans-Serif" font-size="10.00">disk_ops.cpp</text>
</a>
</g>
</g>
<!-- Node1&#45;&gt;Node61 -->
<g id="edge58" class="edge">
<title>Node1&#45;&gt;Node61</title>
<path fill="none" stroke="midnightblue" d="M2423.44,-233.23C2575.75,-233.3 3021.91,-229.67 3389.5,-188 3392.42,-187.67 3395.43,-187.27 3398.46,-186.82"/>
<polygon fill="midnightblue" stroke="midnightblue" points="2423.42,-229.73 2413.41,-233.22 2423.41,-236.73 2423.42,-229.73"/>
</g>
<!-- Node62 -->
<g id="node47" class="node">
<title>Node62</title>
<g id="a_node47"><a xlink:href="_joukowsky__ops_8cpp.html" target="_top" xlink:title=" ">
<polygon fill="white" stroke="black" points="3496.5,-168.5 3496.5,-187.5 3606.5,-187.5 3606.5,-168.5 3496.5,-168.5"/>
<text text-anchor="middle" x="3551.5" y="-175.5" font-family="Helvetica,sans-Serif" font-size="10.00">Joukowsky_ops.cpp</text>
</a>
</g>
</g>
<!-- Node1&#45;&gt;Node62 -->
<g id="edge59" class="edge">
<title>Node1&#45;&gt;Node62</title>
<path fill="none" stroke="midnightblue" d="M2423.17,-232.73C2584.52,-231.52 3079.3,-224.83 3487.5,-188 3490.41,-187.74 3493.38,-187.44 3496.38,-187.11"/>
<polygon fill="midnightblue" stroke="midnightblue" points="2423,-229.23 2413.03,-232.8 2423.05,-236.23 2423,-229.23"/>
</g>
<!-- Node63 -->
<g id="node48" class="node">
<title>Node63</title>
<g id="a_node48"><a xlink:href="_fast_iface_8cpp.html" target="_top" xlink:title=" ">
<polygon fill="white" stroke="black" points="3624.5,-168.5 3624.5,-187.5 3704.5,-187.5 3704.5,-168.5 3624.5,-168.5"/>
<text text-anchor="middle" x="3664.5" y="-175.5" font-family="Helvetica,sans-Serif" font-size="10.00">FastIface.cpp</text>
</a>
</g>
</g>
<!-- Node1&#45;&gt;Node63 -->
<g id="edge60" class="edge">
<title>Node1&#45;&gt;Node63</title>
<path fill="none" stroke="midnightblue" d="M2423.04,-232.11C2630.16,-228.48 3379.03,-213.85 3615.5,-188 3618.42,-187.68 3621.43,-187.29 3624.46,-186.85"/>
<polygon fill="midnightblue" stroke="midnightblue" points="2422.96,-228.61 2413.02,-232.28 2423.08,-235.6 2422.96,-228.61"/>
</g>
<!-- Node64 -->
<g id="node49" class="node">
<title>Node64</title>
<g id="a_node49"><a xlink:href="turbine__utils_8cpp.html" target="_top" xlink:title=" ">
<polygon fill="white" stroke="black" points="3722.5,-168.5 3722.5,-187.5 3820.5,-187.5 3820.5,-168.5 3722.5,-168.5"/>
<text text-anchor="middle" x="3771.5" y="-175.5" font-family="Helvetica,sans-Serif" font-size="10.00">turbine_utils.cpp</text>
</a>
</g>
</g>
<!-- Node1&#45;&gt;Node64 -->
<g id="edge61" class="edge">
<title>Node1&#45;&gt;Node64</title>
<path fill="none" stroke="midnightblue" d="M2423.23,-233.52C2605.03,-234.78 3213.58,-234.98 3713.5,-188 3716.34,-187.73 3719.25,-187.42 3722.19,-187.07"/>
<polygon fill="midnightblue" stroke="midnightblue" points="2423.16,-230.02 2413.13,-233.45 2423.11,-237.02 2423.16,-230.02"/>
</g>
<!-- Node65 -->
<g id="node50" class="node">
<title>Node65</title>
<g id="a_node50"><a xlink:href="wing__ops_8cpp.html" target="_top" xlink:title=" ">
<polygon fill="white" stroke="black" points="3839,-168.5 3839,-187.5 3922,-187.5 3922,-168.5 3839,-168.5"/>
<text text-anchor="middle" x="3880.5" y="-175.5" font-family="Helvetica,sans-Serif" font-size="10.00">wing_ops.cpp</text>
</a>
</g>
</g>
<!-- Node1&#45;&gt;Node65 -->
<g id="edge62" class="edge">
<title>Node1&#45;&gt;Node65</title>
<path fill="none" stroke="midnightblue" d="M2423.3,-232.38C2652.52,-229.58 3548.77,-216.95 3829.5,-188 3832.54,-187.69 3835.67,-187.3 3838.82,-186.86"/>
<polygon fill="midnightblue" stroke="midnightblue" points="2423.16,-228.88 2413.21,-232.5 2423.25,-235.88 2423.16,-228.88"/>
</g>
<!-- Node3 -->
<g id="node3" class="node">
<title>Node3</title>
<g id="a_node3"><a xlink:href="_a_b_l_meso_forcing_mom_8cpp.html" target="_top" xlink:title=" ">
<polygon fill="white" stroke="black" points="1457.5,-56.5 1457.5,-75.5 1599.5,-75.5 1599.5,-56.5 1457.5,-56.5"/>
<text text-anchor="middle" x="1528.5" y="-63.5" font-family="Helvetica,sans-Serif" font-size="10.00">ABLMesoForcingMom.cpp</text>
</a>
</g>
</g>
<!-- Node2&#45;&gt;Node3 -->
<g id="edge2" class="edge">
<title>Node2&#45;&gt;Node3</title>
<path fill="none" stroke="midnightblue" d="M1496.61,-104.43C1504.68,-94.97 1514.46,-83.48 1521.05,-75.75"/>
<polygon fill="midnightblue" stroke="midnightblue" points="1493.92,-102.2 1490.1,-112.08 1499.25,-106.74 1493.92,-102.2"/>
</g>
<!-- Node4 -->
<g id="node4" class="node">
<title>Node4</title>
<g id="a_node4"><a xlink:href="_a_b_l_8cpp.html" target="_top" xlink:title=" ">
<polygon fill="white" stroke="black" points="1383.5,-56.5 1383.5,-75.5 1439.5,-75.5 1439.5,-56.5 1383.5,-56.5"/>
<text text-anchor="middle" x="1411.5" y="-63.5" font-family="Helvetica,sans-Serif" font-size="10.00">ABL.cpp</text>
</a>
</g>
</g>
<!-- Node2&#45;&gt;Node4 -->
<g id="edge3" class="edge">
<title>Node2&#45;&gt;Node4</title>
<path fill="none" stroke="midnightblue" d="M1462.91,-106.1C1450.13,-96.38 1433.89,-84.03 1423.11,-75.83"/>
<polygon fill="midnightblue" stroke="midnightblue" points="1461.01,-109.06 1471.09,-112.32 1465.25,-103.48 1461.01,-109.06"/>
</g>
<!-- Node2&#45;&gt;Node5 -->
<g id="edge4" class="edge">
<title>Node2&#45;&gt;Node5</title>
<path fill="none" stroke="midnightblue" d="M1420.19,-110.8C1365.65,-101.82 1284.28,-88.29 1213.5,-76 1210.28,-75.44 1206.95,-74.86 1203.61,-74.26"/>
<polygon fill="midnightblue" stroke="midnightblue" points="1419.96,-114.31 1430.4,-112.48 1421.1,-107.4 1419.96,-114.31"/>
</g>
<!-- Node7&#45;&gt;Node4 -->
<g id="edge8" class="edge">
<title>Node7&#45;&gt;Node4</title>
<path fill="none" stroke="midnightblue" d="M1321.4,-108.23C1343.47,-98.13 1373.68,-84.31 1392.89,-75.52"/>
<polygon fill="midnightblue" stroke="midnightblue" points="1319.83,-105.1 1312.2,-112.44 1322.75,-111.46 1319.83,-105.1"/>
</g>
<!-- Node7&#45;&gt;Node5 -->
<g id="edge9" class="edge">
<title>Node7&#45;&gt;Node5</title>
<path fill="none" stroke="midnightblue" d="M1263.41,-108.5C1239.04,-98.38 1205.36,-84.39 1184,-75.52"/>
<polygon fill="midnightblue" stroke="midnightblue" points="1262.32,-111.84 1272.9,-112.44 1265.01,-105.38 1262.32,-111.84"/>
</g>
<!-- Node7&#45;&gt;Node6 -->
<g id="edge7" class="edge">
<title>Node7&#45;&gt;Node6</title>
<path fill="none" stroke="midnightblue" d="M1293.5,-101.8C1293.5,-92.91 1293.5,-82.78 1293.5,-75.75"/>
<polygon fill="midnightblue" stroke="midnightblue" points="1290,-102.08 1293.5,-112.08 1297,-102.08 1290,-102.08"/>
</g>
<!-- Node17 -->
<g id="node17" class="node">
<title>Node17</title>
<g id="a_node17"><a xlink:href="_free_surface_sampler_8_h.html" target="_top" xlink:title=" ">
<polygon fill="white" stroke="black" points="827,-112.5 827,-131.5 952,-131.5 952,-112.5 827,-112.5"/>
<text text-anchor="middle" x="889.5" y="-119.5" font-family="Helvetica,sans-Serif" font-size="10.00">FreeSurfaceSampler.H</text>
</a>
</g>
</g>
<!-- Node16&#45;&gt;Node17 -->
<g id="edge19" class="edge">
<title>Node16&#45;&gt;Node17</title>
<path fill="none" stroke="midnightblue" d="M730.87,-165.83C768.64,-155.63 823.64,-140.78 857.96,-131.52"/>
<polygon fill="midnightblue" stroke="midnightblue" points="729.93,-162.46 721.19,-168.44 731.76,-169.22 729.93,-162.46"/>
</g>
<!-- Node19 -->
<g id="node19" class="node">
<title>Node19</title>
<g id="a_node19"><a xlink:href="_line_sampler_8_h.html" target="_top" xlink:title=" ">
<polygon fill="white" stroke="black" points="146,-112.5 146,-131.5 233,-131.5 233,-112.5 146,-112.5"/>
<text text-anchor="middle" x="189.5" y="-119.5" font-family="Helvetica,sans-Serif" font-size="10.00">LineSampler.H</text>
</a>
</g>
</g>
<!-- Node16&#45;&gt;Node19 -->
<g id="edge21" class="edge">
<title>Node16&#45;&gt;Node19</title>
<path fill="none" stroke="midnightblue" d="M633.44,-171.13C552.75,-162.66 399.17,-146.43 268.5,-132 257.11,-130.74 244.8,-129.35 233.37,-128.05"/>
<polygon fill="midnightblue" stroke="midnightblue" points="633.08,-174.61 643.39,-172.18 633.81,-167.65 633.08,-174.61"/>
</g>
<!-- Node25 -->
<g id="node22" class="node">
<title>Node25</title>
<g id="a_node22"><a xlink:href="_radar_sampler_8_h.html" target="_top" xlink:title=" ">
<polygon fill="white" stroke="black" points="224,-56.5 224,-75.5 319,-75.5 319,-56.5 224,-56.5"/>
<text text-anchor="middle" x="271.5" y="-63.5" font-family="Helvetica,sans-Serif" font-size="10.00">RadarSampler.H</text>
</a>
</g>
</g>
<!-- Node16&#45;&gt;Node25 -->
<g id="edge30" class="edge">
<title>Node16&#45;&gt;Node25</title>
<path fill="none" stroke="midnightblue" d="M633,-175.29C543.59,-171.73 374.33,-161.25 322.5,-132 299.02,-118.75 282.52,-89.9 275.41,-75.52"/>
<polygon fill="midnightblue" stroke="midnightblue" points="633.1,-178.8 643.23,-175.68 633.37,-171.8 633.1,-178.8"/>
</g>
<!-- Node27 -->
<g id="node24" class="node">
<title>Node27</title>
<g id="a_node24"><a xlink:href="_plane_sampler_8_h.html" target="_top" xlink:title=" ">
<polygon fill="white" stroke="black" points="331.5,-112.5 331.5,-131.5 425.5,-131.5 425.5,-112.5 331.5,-112.5"/>
<text text-anchor="middle" x="378.5" y="-119.5" font-family="Helvetica,sans-Serif" font-size="10.00">PlaneSampler.H</text>
</a>
</g>
</g>
<!-- Node16&#45;&gt;Node27 -->
<g id="edge26" class="edge">
<title>Node16&#45;&gt;Node27</title>
<path fill="none" stroke="midnightblue" d="M633.32,-167.25C573.99,-156.94 481.46,-140.88 425.74,-131.2"/>
<polygon fill="midnightblue" stroke="midnightblue" points="632.82,-170.71 643.28,-168.97 634.02,-163.81 632.82,-170.71"/>
</g>
<!-- Node29 -->
<g id="node26" class="node">
<title>Node29</title>
<g id="a_node26"><a xlink:href="_probe_sampler_8_h.html" target="_top" xlink:title=" ">
<polygon fill="white" stroke="black" points="444,-112.5 444,-131.5 539,-131.5 539,-112.5 444,-112.5"/>
<text text-anchor="middle" x="491.5" y="-119.5" font-family="Helvetica,sans-Serif" font-size="10.00">ProbeSampler.H</text>
</a>
</g>
</g>
<!-- Node16&#45;&gt;Node29 -->
<g id="edge28" class="edge">
<title>Node16&#45;&gt;Node29</title>
<path fill="none" stroke="midnightblue" d="M648.06,-165.7C610.69,-155.51 556.56,-140.74 522.73,-131.52"/>
<polygon fill="midnightblue" stroke="midnightblue" points="647.56,-169.19 658.13,-168.44 649.4,-162.44 647.56,-169.19"/>
</g>
<!-- Node31 -->
<g id="node28" class="node">
<title>Node31</title>
<g id="a_node28"><a xlink:href="_sampling_8_h.html" target="_top" xlink:title=" ">
<polygon fill="white" stroke="black" points="970,-112.5 970,-131.5 1043,-131.5 1043,-112.5 970,-112.5"/>
<text text-anchor="middle" x="1006.5" y="-119.5" font-family="Helvetica,sans-Serif" font-size="10.00">Sampling.H</text>
</a>
</g>
</g>
<!-- Node16&#45;&gt;Node31 -->
<g id="edge31" class="edge">
<title>Node16&#45;&gt;Node31</title>
<path fill="none" stroke="midnightblue" d="M745.69,-168.27C800.76,-159.57 887.03,-145.6 961.5,-132 964.16,-131.51 966.92,-131 969.68,-130.47"/>
<polygon fill="midnightblue" stroke="midnightblue" points="745.12,-164.81 735.78,-169.83 746.21,-171.73 745.12,-164.81"/>
</g>
<!-- Node33 -->
<g id="node30" class="node">
<title>Node33</title>
<g id="a_node30"><a xlink:href="_sampling_container_8cpp.html" target="_top" xlink:title=" ">
<polygon fill="white" stroke="black" points="557,-112.5 557,-131.5 686,-131.5 686,-112.5 557,-112.5"/>
<text text-anchor="middle" x="621.5" y="-119.5" font-family="Helvetica,sans-Serif" font-size="10.00">SamplingContainer.cpp</text>
</a>
</g>
</g>
<!-- Node16&#45;&gt;Node33 -->
<g id="edge33" class="edge">
<title>Node16&#45;&gt;Node33</title>
<path fill="none" stroke="midnightblue" d="M670.74,-162.1C658.5,-152.38 642.94,-140.03 632.62,-131.83"/>
<polygon fill="midnightblue" stroke="midnightblue" points="668.57,-164.85 678.57,-168.32 672.92,-159.36 668.57,-164.85"/>
</g>
<!-- Node34 -->
<g id="node31" class="node">
<title>Node34</title>
<g id="a_node31"><a xlink:href="_volume_sampler_8_h.html" target="_top" xlink:title=" ">
<polygon fill="white" stroke="black" points="704.5,-112.5 704.5,-131.5 808.5,-131.5 808.5,-112.5 704.5,-112.5"/>
<text text-anchor="middle" x="756.5" y="-119.5" font-family="Helvetica,sans-Serif" font-size="10.00">VolumeSampler.H</text>
</a>
</g>
</g>
<!-- Node16&#45;&gt;Node34 -->
<g id="edge34" class="edge">
<title>Node16&#45;&gt;Node34</title>
<path fill="none" stroke="midnightblue" d="M708.33,-161.82C720.34,-152.15 735.47,-139.95 745.54,-131.83"/>
<polygon fill="midnightblue" stroke="midnightblue" points="705.85,-159.32 700.26,-168.32 710.25,-164.77 705.85,-159.32"/>
</g>
<!-- Node36 -->
<g id="node33" class="node">
<title>Node36</title>
<g id="a_node33"><a xlink:href="_a_b_l_stats_8_h.html" target="_top" xlink:title=" ">
<polygon fill="white" stroke="black" points="1061,-112.5 1061,-131.5 1132,-131.5 1132,-112.5 1061,-112.5"/>
<text text-anchor="middle" x="1096.5" y="-119.5" font-family="Helvetica,sans-Serif" font-size="10.00">ABLStats.H</text>
</a>
</g>
</g>
<!-- Node16&#45;&gt;Node36 -->
<g id="edge36" class="edge">
<title>Node16&#45;&gt;Node36</title>
<path fill="none" stroke="midnightblue" d="M745.64,-171.42C817.14,-164 944.39,-149.73 1052.5,-132 1055.12,-131.57 1057.81,-131.1 1060.52,-130.6"/>
<polygon fill="midnightblue" stroke="midnightblue" points="745.1,-167.96 735.51,-172.47 745.81,-174.92 745.1,-167.96"/>
</g>
<!-- Node18 -->
<g id="node18" class="node">
<title>Node18</title>
<g id="a_node18"><a xlink:href="_free_surface_sampler_8cpp.html" target="_top" xlink:title=" ">
<polygon fill="white" stroke="black" points="827.5,-56.5 827.5,-75.5 961.5,-75.5 961.5,-56.5 827.5,-56.5"/>
<text text-anchor="middle" x="894.5" y="-63.5" font-family="Helvetica,sans-Serif" font-size="10.00">FreeSurfaceSampler.cpp</text>
</a>
</g>
</g>
<!-- Node17&#45;&gt;Node18 -->
<g id="edge20" class="edge">
<title>Node17&#45;&gt;Node18</title>
<path fill="none" stroke="midnightblue" d="M891.25,-102.1C892.08,-93.14 893.03,-82.86 893.69,-75.75"/>
<polygon fill="midnightblue" stroke="midnightblue" points="887.76,-101.8 890.33,-112.08 894.73,-102.45 887.76,-101.8"/>
</g>
<!-- Node20 -->
<g id="node20" class="node">
<title>Node20</title>
<g id="a_node20"><a xlink:href="_lidar_sampler_8_h.html" target="_top" xlink:title=" ">
<polygon fill="white" stroke="red" points="0,-56.5 0,-75.5 91,-75.5 91,-56.5 0,-56.5"/>
<text text-anchor="middle" x="45.5" y="-63.5" font-family="Helvetica,sans-Serif" font-size="10.00">LidarSampler.H</text>
</a>
</g>
</g>
<!-- Node19&#45;&gt;Node20 -->
<g id="edge22" class="edge">
<title>Node19&#45;&gt;Node20</title>
<path fill="none" stroke="midnightblue" d="M157.25,-108.91C130.18,-98.75 92.18,-84.51 68.21,-75.52"/>
<polygon fill="midnightblue" stroke="midnightblue" points="156.09,-112.21 166.68,-112.44 158.55,-105.66 156.09,-112.21"/>
</g>
<!-- Node24 -->
<g id="node21" class="node">
<title>Node24</title>
<g id="a_node21"><a xlink:href="_line_sampler_8cpp.html" target="_top" xlink:title=" ">
<polygon fill="white" stroke="black" points="109,-56.5 109,-75.5 206,-75.5 206,-56.5 109,-56.5"/>
<text text-anchor="middle" x="157.5" y="-63.5" font-family="Helvetica,sans-Serif" font-size="10.00">LineSampler.cpp</text>
</a>
</g>
</g>
<!-- Node19&#45;&gt;Node24 -->
<g id="edge23" class="edge">
<title>Node19&#45;&gt;Node24</title>
<path fill="none" stroke="midnightblue" d="M179,-103.27C173.53,-94.05 167.08,-83.17 162.69,-75.75"/>
<polygon fill="midnightblue" stroke="midnightblue" points="176.11,-105.26 184.22,-112.08 182.13,-101.7 176.11,-105.26"/>
</g>
<!-- Node19&#45;&gt;Node25 -->
<g id="edge24" class="edge">
<title>Node19&#45;&gt;Node25</title>
<path fill="none" stroke="midnightblue" d="M211.33,-106.62C226.31,-96.76 245.7,-83.99 258.36,-75.65"/>
<polygon fill="midnightblue" stroke="midnightblue" points="209.1,-103.9 202.67,-112.32 212.95,-109.75 209.1,-103.9"/>
</g>
<!-- Node26 -->
<g id="node23" class="node">
<title>Node26</title>
<g id="a_node23"><a xlink:href="_radar_sampler_8cpp.html" target="_top" xlink:title=" ">
<polygon fill="white" stroke="black" points="219,-0.5 219,-19.5 324,-19.5 324,-0.5 219,-0.5"/>
<text text-anchor="middle" x="271.5" y="-7.5" font-family="Helvetica,sans-Serif" font-size="10.00">RadarSampler.cpp</text>
</a>
</g>
</g>
<!-- Node25&#45;&gt;Node26 -->
<g id="edge25" class="edge">
<title>Node25&#45;&gt;Node26</title>
<path fill="none" stroke="midnightblue" d="M271.5,-45.8C271.5,-36.91 271.5,-26.78 271.5,-19.75"/>
<polygon fill="midnightblue" stroke="midnightblue" points="268,-46.08 271.5,-56.08 275,-46.08 268,-46.08"/>
</g>
<!-- Node28 -->
<g id="node25" class="node">
<title>Node28</title>
<g id="a_node25"><a xlink:href="_plane_sampler_8cpp.html" target="_top" xlink:title=" ">
<polygon fill="white" stroke="black" points="337.5,-56.5 337.5,-75.5 441.5,-75.5 441.5,-56.5 337.5,-56.5"/>
<text text-anchor="middle" x="389.5" y="-63.5" font-family="Helvetica,sans-Serif" font-size="10.00">PlaneSampler.cpp</text>
</a>
</g>
</g>
<!-- Node27&#45;&gt;Node28 -->
<g id="edge27" class="edge">
<title>Node27&#45;&gt;Node28</title>
<path fill="none" stroke="midnightblue" d="M382.35,-102.1C384.18,-93.14 386.27,-82.86 387.72,-75.75"/>
<polygon fill="midnightblue" stroke="midnightblue" points="378.88,-101.59 380.32,-112.08 385.74,-102.98 378.88,-101.59"/>
</g>
<!-- Node30 -->
<g id="node27" class="node">
<title>Node30</title>
<g id="a_node27"><a xlink:href="_probe_sampler_8cpp.html" target="_top" xlink:title=" ">
<polygon fill="white" stroke="black" points="459.5,-56.5 459.5,-75.5 563.5,-75.5 563.5,-56.5 459.5,-56.5"/>
<text text-anchor="middle" x="511.5" y="-63.5" font-family="Helvetica,sans-Serif" font-size="10.00">ProbeSampler.cpp</text>
</a>
</g>
</g>
<!-- Node29&#45;&gt;Node30 -->
<g id="edge29" class="edge">
<title>Node29&#45;&gt;Node30</title>
<path fill="none" stroke="midnightblue" d="M498.28,-102.69C501.65,-93.59 505.57,-83.01 508.26,-75.75"/>
<polygon fill="midnightblue" stroke="midnightblue" points="494.99,-101.49 494.8,-112.08 501.56,-103.92 494.99,-101.49"/>
</g>
<!-- Node31&#45;&gt;Node32 -->
<g id="edge32" class="edge">
<title>Node31&#45;&gt;Node32</title>
<path fill="none" stroke="midnightblue" d="M1018.56,-103.86C1025.14,-94.5 1033.01,-83.33 1038.34,-75.75"/>
<polygon fill="midnightblue" stroke="midnightblue" points="1015.67,-101.89 1012.77,-112.08 1021.39,-105.92 1015.67,-101.89"/>
</g>
<!-- Node35 -->
<g id="node32" class="node">
<title>Node35</title>
<g id="a_node32"><a xlink:href="_volume_sampler_8cpp.html" target="_top" xlink:title=" ">
<polygon fill="white" stroke="black" points="696,-56.5 696,-75.5 809,-75.5 809,-56.5 696,-56.5"/>
<text text-anchor="middle" x="752.5" y="-63.5" font-family="Helvetica,sans-Serif" font-size="10.00">VolumeSampler.cpp</text>
</a>
</g>
</g>
<!-- Node34&#45;&gt;Node35 -->
<g id="edge35" class="edge">
<title>Node34&#45;&gt;Node35</title>
<path fill="none" stroke="midnightblue" d="M755.1,-102.1C754.44,-93.14 753.67,-82.86 753.15,-75.75"/>
<polygon fill="midnightblue" stroke="midnightblue" points="751.61,-102.37 755.84,-112.08 758.59,-101.85 751.61,-102.37"/>
</g>
<!-- Node36&#45;&gt;Node5 -->
<g id="edge37" class="edge">
<title>Node36&#45;&gt;Node5</title>
<path fill="none" stroke="midnightblue" d="M1115.33,-105.82C1127.34,-96.15 1142.47,-83.95 1152.54,-75.83"/>
<polygon fill="midnightblue" stroke="midnightblue" points="1112.85,-103.32 1107.26,-112.32 1117.25,-108.77 1112.85,-103.32"/>
</g>
<!-- Node39&#45;&gt;Node4 -->
<g id="edge42" class="edge">
<title>Node39&#45;&gt;Node4</title>
<path fill="none" stroke="midnightblue" d="M1593.73,-159.38C1586.39,-144.69 1574.05,-124.25 1557.5,-112 1547.88,-104.88 1479.24,-85.43 1439.6,-74.57"/>
<polygon fill="midnightblue" stroke="midnightblue" points="1590.58,-160.9 1598,-168.46 1596.91,-157.92 1590.58,-160.9"/>
</g>
<!-- Node39&#45;&gt;Node38 -->
<g id="edge50" class="edge">
<title>Node39&#45;&gt;Node38</title>
<path fill="none" stroke="midnightblue" d="M1650.3,-166.09C1683.74,-158.06 1728.86,-146.11 1767.5,-132 1787.3,-124.77 1790.53,-118.75 1810.5,-112 1860.32,-95.15 1919.15,-82.95 1960.8,-75.54"/>
<polygon fill="midnightblue" stroke="midnightblue" points="1649.24,-162.75 1640.32,-168.46 1650.86,-169.56 1649.24,-162.75"/>
</g>
<!-- Node40 -->
<g id="node37" class="node">
<title>Node40</title>
<g id="a_node37"><a xlink:href="_a_b_l_8_h.html" target="_top" xlink:title=" ">
<polygon fill="white" stroke="red" points="1604.5,-112.5 1604.5,-131.5 1650.5,-131.5 1650.5,-112.5 1604.5,-112.5"/>
<text text-anchor="middle" x="1627.5" y="-119.5" font-family="Helvetica,sans-Serif" font-size="10.00">ABL.H</text>
</a>
</g>
</g>
<!-- Node39&#45;&gt;Node40 -->
<g id="edge43" class="edge">
<title>Node39&#45;&gt;Node40</title>
<path fill="none" stroke="midnightblue" d="M1610.17,-158.98C1614.59,-149.82 1619.75,-139.09 1623.29,-131.75"/>
<polygon fill="midnightblue" stroke="midnightblue" points="1606.98,-157.55 1605.79,-168.08 1613.29,-160.59 1606.98,-157.55"/>
</g>
<!-- Node55 -->
<g id="node41" class="node">
<title>Node55</title>
<g id="a_node41"><a xlink:href="_a_b_l_fill_inflow_8_h.html" target="_top" xlink:title=" ">
<polygon fill="white" stroke="red" points="1669,-112.5 1669,-131.5 1758,-131.5 1758,-112.5 1669,-112.5"/>
<text text-anchor="middle" x="1713.5" y="-119.5" font-family="Helvetica,sans-Serif" font-size="10.00">ABLFillInflow.H</text>
</a>
</g>
</g>
<!-- Node39&#45;&gt;Node55 -->
<g id="edge51" class="edge">
<title>Node39&#45;&gt;Node55</title>
<path fill="none" stroke="midnightblue" d="M1628.75,-163.86C1649.52,-153.85 1677.52,-140.35 1695.55,-131.65"/>
<polygon fill="midnightblue" stroke="midnightblue" points="1626.98,-160.83 1619.49,-168.32 1630.02,-167.13 1626.98,-160.83"/>
</g>
<!-- Node40&#45;&gt;Node3 -->
<g id="edge47" class="edge">
<title>Node40&#45;&gt;Node3</title>
<path fill="none" stroke="midnightblue" d="M1602.66,-107.45C1584.39,-97.48 1560.08,-84.23 1544.37,-75.65"/>
<polygon fill="midnightblue" stroke="midnightblue" points="1601.14,-110.61 1611.59,-112.32 1604.49,-104.46 1601.14,-110.61"/>
</g>
<!-- Node40&#45;&gt;Node4 -->
<g id="edge49" class="edge">
<title>Node40&#45;&gt;Node4</title>
<path fill="none" stroke="midnightblue" d="M1594.56,-112.77C1552.21,-102.18 1479.37,-83.97 1439.54,-74.01"/>
<polygon fill="midnightblue" stroke="midnightblue" points="1593.83,-116.19 1604.38,-115.22 1595.53,-109.4 1593.83,-116.19"/>
</g>
<!-- Node40&#45;&gt;Node6 -->
<g id="edge48" class="edge">
<title>Node40&#45;&gt;Node6</title>
<path fill="none" stroke="midnightblue" d="M1594.18,-115.61C1536.07,-106.22 1415.78,-86.77 1346.25,-75.53"/>
<polygon fill="midnightblue" stroke="midnightblue" points="1593.85,-119.1 1604.28,-117.25 1594.97,-112.19 1593.85,-119.1"/>
</g>
<!-- Node41 -->
<g id="node38" class="node">
<title>Node41</title>
<g id="a_node38"><a xlink:href="_c_f_d_sim_8cpp.html" target="_top" xlink:title=" ">
<polygon fill="white" stroke="black" points="1727.5,-56.5 1727.5,-75.5 1803.5,-75.5 1803.5,-56.5 1727.5,-56.5"/>
<text text-anchor="middle" x="1765.5" y="-63.5" font-family="Helvetica,sans-Serif" font-size="10.00">CFDSim.cpp</text>
</a>
</g>
</g>
<!-- Node40&#45;&gt;Node41 -->
<g id="edge44" class="edge">
<title>Node40&#45;&gt;Node41</title>
<path fill="none" stroke="midnightblue" d="M1658.75,-108.77C1684.67,-98.63 1720.86,-84.47 1743.74,-75.52"/>
<polygon fill="midnightblue" stroke="midnightblue" points="1657.4,-105.54 1649.37,-112.44 1659.95,-112.06 1657.4,-105.54"/>
</g>
<!-- Node42 -->
<g id="node39" class="node">
<title>Node42</title>
<g id="a_node39"><a xlink:href="icns__advection_8cpp.html" target="_top" xlink:title=" ">
<polygon fill="white" stroke="black" points="1821.5,-56.5 1821.5,-75.5 1931.5,-75.5 1931.5,-56.5 1821.5,-56.5"/>
<text text-anchor="middle" x="1876.5" y="-63.5" font-family="Helvetica,sans-Serif" font-size="10.00">icns_advection.cpp</text>
</a>
</g>
</g>
<!-- Node40&#45;&gt;Node42 -->
<g id="edge45" class="edge">
<title>Node40&#45;&gt;Node42</title>
<path fill="none" stroke="midnightblue" d="M1660.2,-112.07C1660.3,-112.05 1660.4,-112.02 1660.5,-112 1719.35,-97.86 1787.83,-84.03 1831.64,-75.52"/>
<polygon fill="midnightblue" stroke="midnightblue" points="1659.36,-108.67 1650.53,-114.53 1661.09,-115.46 1659.36,-108.67"/>
</g>
<!-- Node43 -->
<g id="node40" class="node">
<title>Node43</title>
<g id="a_node40"><a xlink:href="_a_b_l_forcing_8cpp.html" target="_top" xlink:title=" ">
<polygon fill="white" stroke="black" points="1618,-56.5 1618,-75.5 1709,-75.5 1709,-56.5 1618,-56.5"/>
<text text-anchor="middle" x="1663.5" y="-63.5" font-family="Helvetica,sans-Serif" font-size="10.00">ABLForcing.cpp</text>
</a>
</g>
</g>
<!-- Node40&#45;&gt;Node43 -->
<g id="edge46" class="edge">
<title>Node40&#45;&gt;Node43</title>
<path fill="none" stroke="midnightblue" d="M1639.12,-103.57C1645.32,-94.27 1652.67,-83.25 1657.67,-75.75"/>
<polygon fill="midnightblue" stroke="midnightblue" points="1636.08,-101.82 1633.44,-112.08 1641.9,-105.7 1636.08,-101.82"/>
</g>
<!-- Node55&#45;&gt;Node38 -->
<g id="edge52" class="edge">
<title>Node55&#45;&gt;Node38</title>
<path fill="none" stroke="midnightblue" d="M1768.12,-111.2C1824.94,-101.01 1913.01,-85.21 1967.03,-75.52"/>
<polygon fill="midnightblue" stroke="midnightblue" points="1767.46,-107.76 1758.24,-112.97 1768.7,-114.65 1767.46,-107.76"/>
</g>
</g>
</svg>
