<?xml version="1.0" encoding="UTF-8" standalone="no"?>
<!DOCTYPE svg PUBLIC "-//W3C//DTD SVG 1.1//EN"
 "http://www.w3.org/Graphics/SVG/1.1/DTD/svg11.dtd">
<!-- Generated by graphviz version 2.43.0 (0)
 -->
<!-- Title: velocity_bcs.H Pages: 1 -->
<svg width="2905pt" height="341pt"
 viewBox="0.00 0.00 2905.45 341.00" xmlns="http://www.w3.org/2000/svg" xmlns:xlink="http://www.w3.org/1999/xlink">
<g id="graph0" class="graph" transform="scale(1 1) rotate(0) translate(4 337)">
<title>velocity_bcs.H</title>
<polygon fill="white" stroke="transparent" points="-4,4 -4,-337 2901.45,-337 2901.45,4 -4,4"/>
<!-- Node1 -->
<g id="node1" class="node">
<title>Node1</title>
<g id="a_node1"><a xlink:title=" ">
<polygon fill="#bfbfbf" stroke="black" points="2110.95,-313.5 2110.95,-332.5 2198.95,-332.5 2198.95,-313.5 2110.95,-313.5"/>
<text text-anchor="middle" x="2154.95" y="-320.5" font-family="Helvetica,sans-Serif" font-size="10.00">velocity_bcs.H</text>
</a>
</g>
</g>
<!-- Node2 -->
<g id="node2" class="node">
<title>Node2</title>
<g id="a_node2"><a xlink:href="_field_b_c_ops_8_h.html" target="_top" xlink:title=" ">
<polygon fill="white" stroke="black" points="1379.95,-185 1379.95,-204 1535.95,-204 1535.95,-185 1379.95,-185"/>
<text text-anchor="middle" x="1457.95" y="-192" font-family="Helvetica,sans-Serif" font-size="10.00">amr&#45;wind/core/FieldBCOps.H</text>
</a>
</g>
</g>
<!-- Node1&#45;&gt;Node2 -->
<g id="edge1" class="edge">
<title>Node1&#45;&gt;Node2</title>
<path fill="none" stroke="midnightblue" d="M2110.66,-322.04C1967.9,-321.75 1526.28,-317.56 1477.95,-277 1459.84,-261.8 1456.66,-233.13 1456.75,-214.17"/>
<polygon fill="midnightblue" stroke="midnightblue" points="1460.25,-214.18 1457.11,-204.07 1453.25,-213.93 1460.25,-214.18"/>
</g>
<!-- Node18 -->
<g id="node18" class="node">
<title>Node18</title>
<g id="a_node18"><a xlink:href="_field_fill_patch_ops_8_h.html" target="_top" xlink:title=" ">
<polygon fill="white" stroke="black" points="1486.95,-246.5 1486.95,-276.5 1640.95,-276.5 1640.95,-246.5 1486.95,-246.5"/>
<text text-anchor="start" x="1494.95" y="-264.5" font-family="Helvetica,sans-Serif" font-size="10.00">amr&#45;wind/core/FieldFillPatch</text>
<text text-anchor="middle" x="1563.95" y="-253.5" font-family="Helvetica,sans-Serif" font-size="10.00">Ops.H</text>
</a>
</g>
</g>
<!-- Node1&#45;&gt;Node18 -->
<g id="edge22" class="edge">
<title>Node1&#45;&gt;Node18</title>
<path fill="none" stroke="midnightblue" d="M2110.53,-317.53C2013.1,-307.72 1779.17,-284.17 1651.2,-271.28"/>
<polygon fill="midnightblue" stroke="midnightblue" points="1651.34,-267.78 1641.04,-270.26 1650.64,-274.75 1651.34,-267.78"/>
</g>
<!-- Node19 -->
<g id="node19" class="node">
<title>Node19</title>
<g id="a_node19"><a xlink:href="_sim_time_8_h.html" target="_top" xlink:title=" ">
<polygon fill="white" stroke="black" points="1882.95,-185 1882.95,-204 2026.95,-204 2026.95,-185 1882.95,-185"/>
<text text-anchor="middle" x="1954.95" y="-192" font-family="Helvetica,sans-Serif" font-size="10.00">amr&#45;wind/core/SimTime.H</text>
</a>
</g>
</g>
<!-- Node1&#45;&gt;Node19 -->
<g id="edge71" class="edge">
<title>Node1&#45;&gt;Node19</title>
<path fill="none" stroke="midnightblue" d="M2141.2,-313.31C2107.15,-291.77 2018.66,-235.79 1977.11,-209.51"/>
<polygon fill="midnightblue" stroke="midnightblue" points="1978.85,-206.48 1968.53,-204.09 1975.11,-212.39 1978.85,-206.48"/>
</g>
<!-- Node28 -->
<g id="node28" class="node">
<title>Node28</title>
<g id="a_node28"><a xlink:href="_field_repo_8_h.html" target="_top" xlink:title=" ">
<polygon fill="white" stroke="black" points="770.45,-185 770.45,-204 919.45,-204 919.45,-185 770.45,-185"/>
<text text-anchor="middle" x="844.95" y="-192" font-family="Helvetica,sans-Serif" font-size="10.00">amr&#45;wind/core/FieldRepo.H</text>
</a>
</g>
</g>
<!-- Node1&#45;&gt;Node28 -->
<g id="edge42" class="edge">
<title>Node1&#45;&gt;Node28</title>
<path fill="none" stroke="midnightblue" d="M2110.77,-320.2C2000.34,-315.46 1703.47,-301.33 1456.95,-277 1256.79,-257.24 1021.26,-222.66 909.74,-205.6"/>
<polygon fill="midnightblue" stroke="midnightblue" points="910.08,-202.11 899.66,-204.06 909.02,-209.03 910.08,-202.11"/>
</g>
<!-- Node34 -->
<g id="node34" class="node">
<title>Node34</title>
<g id="a_node34"><a xlink:href="_linear_profile_8_h.html" target="_top" xlink:title=" ">
<polygon fill="white" stroke="black" points="2335.45,-179.5 2335.45,-209.5 2462.45,-209.5 2462.45,-179.5 2335.45,-179.5"/>
<text text-anchor="start" x="2343.45" y="-197.5" font-family="Helvetica,sans-Serif" font-size="10.00">amr&#45;wind/physics/udfs</text>
<text text-anchor="middle" x="2398.95" y="-186.5" font-family="Helvetica,sans-Serif" font-size="10.00">/LinearProfile.H</text>
</a>
</g>
</g>
<!-- Node1&#45;&gt;Node34 -->
<g id="edge72" class="edge">
<title>Node1&#45;&gt;Node34</title>
<path fill="none" stroke="midnightblue" d="M2171.72,-313.31C2210.83,-293.03 2308.79,-242.24 2362.43,-214.43"/>
<polygon fill="midnightblue" stroke="midnightblue" points="2364.33,-217.39 2371.6,-209.68 2361.11,-211.18 2364.33,-217.39"/>
</g>
<!-- Node35 -->
<g id="node35" class="node">
<title>Node35</title>
<g id="a_node35"><a xlink:href="_power_law_profile_8_h.html" target="_top" xlink:title=" ">
<polygon fill="white" stroke="black" points="2480.45,-179.5 2480.45,-209.5 2607.45,-209.5 2607.45,-179.5 2480.45,-179.5"/>
<text text-anchor="start" x="2488.45" y="-197.5" font-family="Helvetica,sans-Serif" font-size="10.00">amr&#45;wind/physics/udfs</text>
<text text-anchor="middle" x="2543.95" y="-186.5" font-family="Helvetica,sans-Serif" font-size="10.00">/PowerLawProfile.H</text>
</a>
</g>
</g>
<!-- Node1&#45;&gt;Node35 -->
<g id="edge75" class="edge">
<title>Node1&#45;&gt;Node35</title>
<path fill="none" stroke="midnightblue" d="M2181.38,-313.4C2244.88,-292.76 2406.96,-240.05 2491.24,-212.64"/>
<polygon fill="midnightblue" stroke="midnightblue" points="2492.45,-215.93 2500.88,-209.51 2490.28,-209.27 2492.45,-215.93"/>
</g>
<!-- Node36 -->
<g id="node36" class="node">
<title>Node36</title>
<g id="a_node36"><a xlink:href="_burggraf_lid_8_h.html" target="_top" xlink:title=" ">
<polygon fill="white" stroke="black" points="2625.45,-179.5 2625.45,-209.5 2752.45,-209.5 2752.45,-179.5 2625.45,-179.5"/>
<text text-anchor="start" x="2633.45" y="-197.5" font-family="Helvetica,sans-Serif" font-size="10.00">amr&#45;wind/physics/udfs</text>
<text text-anchor="middle" x="2688.95" y="-186.5" font-family="Helvetica,sans-Serif" font-size="10.00">/BurggrafLid.H</text>
</a>
</g>
</g>
<!-- Node1&#45;&gt;Node36 -->
<g id="edge78" class="edge">
<title>Node1&#45;&gt;Node36</title>
<path fill="none" stroke="midnightblue" d="M2194.49,-313.46C2235.25,-304.58 2300.63,-290.19 2356.95,-277 2449.57,-255.32 2556.35,-228.84 2623.25,-212.07"/>
<polygon fill="midnightblue" stroke="midnightblue" points="2624.39,-215.39 2633.23,-209.57 2622.68,-208.6 2624.39,-215.39"/>
</g>
<!-- Node37 -->
<g id="node37" class="node">
<title>Node37</title>
<g id="a_node37"><a xlink:href="_rankine_8_h.html" target="_top" xlink:title=" ">
<polygon fill="white" stroke="black" points="2770.45,-179.5 2770.45,-209.5 2897.45,-209.5 2897.45,-179.5 2770.45,-179.5"/>
<text text-anchor="start" x="2778.45" y="-197.5" font-family="Helvetica,sans-Serif" font-size="10.00">amr&#45;wind/physics/udfs</text>
<text text-anchor="middle" x="2833.95" y="-186.5" font-family="Helvetica,sans-Serif" font-size="10.00">/Rankine.H</text>
</a>
</g>
</g>
<!-- Node1&#45;&gt;Node37 -->
<g id="edge81" class="edge">
<title>Node1&#45;&gt;Node37</title>
<path fill="none" stroke="midnightblue" d="M2199.02,-315.46C2254.09,-307.17 2351.17,-292.1 2433.95,-277 2548.28,-256.14 2680.27,-228.56 2760.38,-211.43"/>
<polygon fill="midnightblue" stroke="midnightblue" points="2761.33,-214.81 2770.37,-209.29 2759.86,-207.97 2761.33,-214.81"/>
</g>
<!-- Node38 -->
<g id="node38" class="node">
<title>Node38</title>
<g id="a_node38"><a xlink:href="_custom_velocity_8_h.html" target="_top" xlink:title=" ">
<polygon fill="white" stroke="black" points="2045.45,-179.5 2045.45,-209.5 2172.45,-209.5 2172.45,-179.5 2045.45,-179.5"/>
<text text-anchor="start" x="2053.45" y="-197.5" font-family="Helvetica,sans-Serif" font-size="10.00">amr&#45;wind/physics/udfs</text>
<text text-anchor="middle" x="2108.95" y="-186.5" font-family="Helvetica,sans-Serif" font-size="10.00">/CustomVelocity.H</text>
</a>
</g>
</g>
<!-- Node1&#45;&gt;Node38 -->
<g id="edge84" class="edge">
<title>Node1&#45;&gt;Node38</title>
<path fill="none" stroke="midnightblue" d="M2151.79,-313.31C2144.85,-294.21 2128.07,-248.07 2117.69,-219.52"/>
<polygon fill="midnightblue" stroke="midnightblue" points="2120.89,-218.09 2114.18,-209.89 2114.31,-220.48 2120.89,-218.09"/>
</g>
<!-- Node39 -->
<g id="node39" class="node">
<title>Node39</title>
<g id="a_node39"><a xlink:href="_two_layer_8_h.html" target="_top" xlink:title=" ">
<polygon fill="white" stroke="black" points="2190.45,-179.5 2190.45,-209.5 2317.45,-209.5 2317.45,-179.5 2190.45,-179.5"/>
<text text-anchor="start" x="2198.45" y="-197.5" font-family="Helvetica,sans-Serif" font-size="10.00">amr&#45;wind/physics/udfs</text>
<text text-anchor="middle" x="2253.95" y="-186.5" font-family="Helvetica,sans-Serif" font-size="10.00">/TwoLayer.H</text>
</a>
</g>
</g>
<!-- Node1&#45;&gt;Node39 -->
<g id="edge87" class="edge">
<title>Node1&#45;&gt;Node39</title>
<path fill="none" stroke="midnightblue" d="M2161.76,-313.31C2176.96,-293.88 2214.09,-246.44 2236.31,-218.04"/>
<polygon fill="midnightblue" stroke="midnightblue" points="2239.28,-219.92 2242.69,-209.89 2233.77,-215.61 2239.28,-219.92"/>
</g>
<!-- Node3 -->
<g id="node3" class="node">
<title>Node3</title>
<g id="a_node3"><a xlink:href="_field_desc_types_8_h.html" target="_top" xlink:title=" ">
<polygon fill="white" stroke="black" points="281.95,-0.5 281.95,-19.5 457.95,-19.5 457.95,-0.5 281.95,-0.5"/>
<text text-anchor="middle" x="369.95" y="-7.5" font-family="Helvetica,sans-Serif" font-size="10.00">amr&#45;wind/core/FieldDescTypes.H</text>
</a>
</g>
</g>
<!-- Node2&#45;&gt;Node3 -->
<g id="edge2" class="edge">
<title>Node2&#45;&gt;Node3</title>
<path fill="none" stroke="midnightblue" d="M1379.53,-191.31C1132.15,-184.23 383.45,-161.33 365.95,-143 336.75,-112.42 351.7,-57.39 362.34,-29.01"/>
<polygon fill="midnightblue" stroke="midnightblue" points="365.66,-30.13 366.11,-19.54 359.16,-27.54 365.66,-30.13"/>
</g>
<!-- Node4 -->
<g id="node4" class="node">
<title>Node4</title>
<g id="a_node4"><a xlink:href="_field_8_h.html" target="_top" xlink:title=" ">
<polygon fill="white" stroke="black" points="1218.95,-118 1218.95,-137 1342.95,-137 1342.95,-118 1218.95,-118"/>
<text text-anchor="middle" x="1280.95" y="-125" font-family="Helvetica,sans-Serif" font-size="10.00">amr&#45;wind/core/Field.H</text>
</a>
</g>
</g>
<!-- Node2&#45;&gt;Node4 -->
<g id="edge3" class="edge">
<title>Node2&#45;&gt;Node4</title>
<path fill="none" stroke="midnightblue" d="M1434.45,-184.87C1403.55,-173.52 1349.09,-153.52 1314.04,-140.65"/>
<polygon fill="midnightblue" stroke="midnightblue" points="1314.86,-137.23 1304.27,-137.06 1312.45,-143.8 1314.86,-137.23"/>
</g>
<!-- Node11 -->
<g id="node11" class="node">
<title>Node11</title>
<g id="a_node11"><a xlink:title=" ">
<polygon fill="white" stroke="#bfbfbf" points="2336.45,-56.5 2336.45,-75.5 2423.45,-75.5 2423.45,-56.5 2336.45,-56.5"/>
<text text-anchor="middle" x="2379.95" y="-63.5" font-family="Helvetica,sans-Serif" font-size="10.00">AMReX_Gpu.H</text>
</a>
</g>
</g>
<!-- Node2&#45;&gt;Node11 -->
<g id="edge18" class="edge">
<title>Node2&#45;&gt;Node11</title>
<path fill="none" stroke="midnightblue" d="M1535.98,-185.44C1582.16,-178.51 1640.84,-165.85 1688.95,-143 1708.95,-133.5 1707.31,-120.01 1727.95,-112 1836.45,-69.88 2189.78,-66.37 2325.85,-66.64"/>
<polygon fill="midnightblue" stroke="midnightblue" points="2326.02,-70.14 2336.03,-66.66 2326.04,-63.14 2326.02,-70.14"/>
</g>
<!-- Node15 -->
<g id="node15" class="node">
<title>Node15</title>
<g id="a_node15"><a xlink:title=" ">
<polygon fill="white" stroke="#bfbfbf" points="1563.45,-118 1563.45,-137 1680.45,-137 1680.45,-118 1563.45,-118"/>
<text text-anchor="middle" x="1621.95" y="-125" font-family="Helvetica,sans-Serif" font-size="10.00">AMReX_FArrayBox.H</text>
</a>
</g>
</g>
<!-- Node2&#45;&gt;Node15 -->
<g id="edge19" class="edge">
<title>Node2&#45;&gt;Node15</title>
<path fill="none" stroke="midnightblue" d="M1479.73,-184.87C1508.23,-173.57 1558.38,-153.7 1590.87,-140.82"/>
<polygon fill="midnightblue" stroke="midnightblue" points="1592.34,-144 1600.34,-137.06 1589.76,-137.49 1592.34,-144"/>
</g>
<!-- Node16 -->
<g id="node16" class="node">
<title>Node16</title>
<g id="a_node16"><a xlink:title=" ">
<polygon fill="white" stroke="#bfbfbf" points="2427.45,-118 2427.45,-137 2542.45,-137 2542.45,-118 2427.45,-118"/>
<text text-anchor="middle" x="2484.95" y="-125" font-family="Helvetica,sans-Serif" font-size="10.00">AMReX_Geometry.H</text>
</a>
</g>
</g>
<!-- Node2&#45;&gt;Node16 -->
<g id="edge20" class="edge">
<title>Node2&#45;&gt;Node16</title>
<path fill="none" stroke="midnightblue" d="M1536.25,-185.96C1563.09,-183.53 1593.32,-180.96 1620.95,-179 1923.72,-157.55 2000.08,-163.05 2302.95,-143 2340.64,-140.5 2382.68,-137.19 2416.85,-134.36"/>
<polygon fill="midnightblue" stroke="midnightblue" points="2417.52,-137.82 2427.19,-133.5 2416.94,-130.84 2417.52,-137.82"/>
</g>
<!-- Node17 -->
<g id="node17" class="node">
<title>Node17</title>
<g id="a_node17"><a xlink:title=" ">
<polygon fill="white" stroke="#bfbfbf" points="576.45,-56.5 576.45,-75.5 707.45,-75.5 707.45,-56.5 576.45,-56.5"/>
<text text-anchor="middle" x="641.95" y="-63.5" font-family="Helvetica,sans-Serif" font-size="10.00">AMReX_PhysBCFunct.H</text>
</a>
</g>
</g>
<!-- Node2&#45;&gt;Node17 -->
<g id="edge21" class="edge">
<title>Node2&#45;&gt;Node17</title>
<path fill="none" stroke="midnightblue" d="M1382.23,-184.99C1332.1,-177.69 1265.59,-164.81 1209.95,-143 1185.25,-133.32 1184.18,-120.2 1158.95,-112 973.61,-51.77 915.91,-94.9 721.95,-76 720.66,-75.87 719.36,-75.75 718.05,-75.61"/>
<polygon fill="midnightblue" stroke="midnightblue" points="718.16,-72.11 707.86,-74.57 717.45,-79.07 718.16,-72.11"/>
</g>
<!-- Node4&#45;&gt;Node3 -->
<g id="edge12" class="edge">
<title>Node4&#45;&gt;Node3</title>
<path fill="none" stroke="midnightblue" d="M1255.66,-117.94C1228.47,-108.5 1184.11,-92.47 1146.95,-76 1129.14,-68.11 1126.74,-61.15 1107.95,-56 990.28,-23.77 640.46,-14.59 468.12,-12"/>
<polygon fill="midnightblue" stroke="midnightblue" points="468.09,-8.5 458.04,-11.86 467.99,-15.5 468.09,-8.5"/>
</g>
<!-- Node5 -->
<g id="node5" class="node">
<title>Node5</title>
<g id="a_node5"><a xlink:title=" ">
<polygon fill="white" stroke="#bfbfbf" points="207.95,-0.5 207.95,-19.5 251.95,-19.5 251.95,-0.5 207.95,-0.5"/>
<text text-anchor="middle" x="229.95" y="-7.5" font-family="Helvetica,sans-Serif" font-size="10.00">string</text>
</a>
</g>
</g>
<!-- Node4&#45;&gt;Node5 -->
<g id="edge4" class="edge">
<title>Node4&#45;&gt;Node5</title>
<path fill="none" stroke="midnightblue" d="M1237.23,-117.98C1224.89,-115.79 1211.43,-113.61 1198.95,-112 1002.59,-86.74 945.36,-130.21 754.95,-76 736.22,-70.67 734.69,-61.34 715.95,-56 525.97,-1.89 468.45,-48.29 272.95,-20 269.45,-19.49 265.8,-18.87 262.18,-18.2"/>
<polygon fill="midnightblue" stroke="midnightblue" points="262.67,-14.73 252.17,-16.21 261.3,-21.59 262.67,-14.73"/>
</g>
<!-- Node6 -->
<g id="node6" class="node">
<title>Node6</title>
<g id="a_node6"><a xlink:title=" ">
<polygon fill="white" stroke="#bfbfbf" points="1155.95,-56.5 1155.95,-75.5 1213.95,-75.5 1213.95,-56.5 1155.95,-56.5"/>
<text text-anchor="middle" x="1184.95" y="-63.5" font-family="Helvetica,sans-Serif" font-size="10.00">memory</text>
</a>
</g>
</g>
<!-- Node4&#45;&gt;Node6 -->
<g id="edge5" class="edge">
<title>Node4&#45;&gt;Node6</title>
<path fill="none" stroke="midnightblue" d="M1267.2,-117.98C1251.58,-108.3 1225.89,-92.37 1207.37,-80.89"/>
<polygon fill="midnightblue" stroke="midnightblue" points="1209.02,-77.8 1198.68,-75.51 1205.34,-83.75 1209.02,-77.8"/>
</g>
<!-- Node7 -->
<g id="node7" class="node">
<title>Node7</title>
<g id="a_node7"><a xlink:title=" ">
<polygon fill="white" stroke="#bfbfbf" points="1006.45,-56.5 1006.45,-75.5 1099.45,-75.5 1099.45,-56.5 1006.45,-56.5"/>
<text text-anchor="middle" x="1052.95" y="-63.5" font-family="Helvetica,sans-Serif" font-size="10.00">unordered_map</text>
</a>
</g>
</g>
<!-- Node4&#45;&gt;Node7 -->
<g id="edge6" class="edge">
<title>Node4&#45;&gt;Node7</title>
<path fill="none" stroke="midnightblue" d="M1248.28,-117.98C1208.07,-107.48 1139.69,-89.64 1095.44,-78.09"/>
<polygon fill="midnightblue" stroke="midnightblue" points="1096.12,-74.65 1085.56,-75.51 1094.35,-81.42 1096.12,-74.65"/>
</g>
<!-- Node8 -->
<g id="node8" class="node">
<title>Node8</title>
<g id="a_node8"><a xlink:title=" ">
<polygon fill="white" stroke="#bfbfbf" points="1802.95,-56.5 1802.95,-75.5 1866.95,-75.5 1866.95,-56.5 1802.95,-56.5"/>
<text text-anchor="middle" x="1834.95" y="-63.5" font-family="Helvetica,sans-Serif" font-size="10.00">algorithm</text>
</a>
</g>
</g>
<!-- Node4&#45;&gt;Node8 -->
<g id="edge7" class="edge">
<title>Node4&#45;&gt;Node8</title>
<path fill="none" stroke="midnightblue" d="M1342.3,-117.96C1357.83,-115.91 1374.49,-113.79 1389.95,-112 1552.32,-93.22 1593.41,-93.25 1755.95,-76 1767.84,-74.74 1780.73,-73.3 1792.58,-71.95"/>
<polygon fill="midnightblue" stroke="midnightblue" points="1793.14,-75.41 1802.68,-70.79 1792.34,-68.45 1793.14,-75.41"/>
</g>
<!-- Node9 -->
<g id="node9" class="node">
<title>Node9</title>
<g id="a_node9"><a xlink:title=" ">
<polygon fill="white" stroke="#bfbfbf" points="1483.45,-0.5 1483.45,-19.5 1592.45,-19.5 1592.45,-0.5 1483.45,-0.5"/>
<text text-anchor="middle" x="1537.95" y="-7.5" font-family="Helvetica,sans-Serif" font-size="10.00">AMReX_MultiFab.H</text>
</a>
</g>
</g>
<!-- Node4&#45;&gt;Node9 -->
<g id="edge8" class="edge">
<title>Node4&#45;&gt;Node9</title>
<path fill="none" stroke="midnightblue" d="M1326.19,-117.98C1385.88,-106.44 1485.03,-86.13 1498.95,-76 1514.88,-64.41 1525.51,-44.16 1531.6,-29.33"/>
<polygon fill="midnightblue" stroke="midnightblue" points="1534.98,-30.28 1535.24,-19.69 1528.43,-27.81 1534.98,-30.28"/>
</g>
<!-- Node10 -->
<g id="node10" class="node">
<title>Node10</title>
<g id="a_node10"><a xlink:title=" ">
<polygon fill="white" stroke="#bfbfbf" points="1232.45,-56.5 1232.45,-75.5 1331.45,-75.5 1331.45,-56.5 1232.45,-56.5"/>
<text text-anchor="middle" x="1281.95" y="-63.5" font-family="Helvetica,sans-Serif" font-size="10.00">AMReX_BCRec.H</text>
</a>
</g>
</g>
<!-- Node4&#45;&gt;Node10 -->
<g id="edge9" class="edge">
<title>Node4&#45;&gt;Node10</title>
<path fill="none" stroke="midnightblue" d="M1281.09,-117.98C1281.23,-109.58 1281.46,-96.48 1281.64,-85.66"/>
<polygon fill="midnightblue" stroke="midnightblue" points="1285.14,-85.57 1281.81,-75.51 1278.14,-85.45 1285.14,-85.57"/>
</g>
<!-- Node4&#45;&gt;Node11 -->
<g id="edge10" class="edge">
<title>Node4&#45;&gt;Node11</title>
<path fill="none" stroke="midnightblue" d="M1337.98,-117.96C1354.7,-115.72 1373.03,-113.51 1389.95,-112 1746.42,-80.25 2177.21,-70.39 2326.2,-67.8"/>
<polygon fill="midnightblue" stroke="midnightblue" points="2326.5,-71.3 2336.44,-67.63 2326.38,-64.3 2326.5,-71.3"/>
</g>
<!-- Node12 -->
<g id="node12" class="node">
<title>Node12</title>
<g id="a_node12"><a xlink:href="incflo__enums_8_h.html" target="_top" xlink:title=" ">
<polygon fill="white" stroke="black" points="1349.45,-56.5 1349.45,-75.5 1490.45,-75.5 1490.45,-56.5 1349.45,-56.5"/>
<text text-anchor="middle" x="1419.95" y="-63.5" font-family="Helvetica,sans-Serif" font-size="10.00">amr&#45;wind/incflo_enums.H</text>
</a>
</g>
</g>
<!-- Node4&#45;&gt;Node12 -->
<g id="edge11" class="edge">
<title>Node4&#45;&gt;Node12</title>
<path fill="none" stroke="midnightblue" d="M1300.87,-117.98C1324.4,-107.9 1363.76,-91.05 1390.74,-79.5"/>
<polygon fill="midnightblue" stroke="midnightblue" points="1392.26,-82.66 1400.07,-75.51 1389.5,-76.23 1392.26,-82.66"/>
</g>
<!-- Node13 -->
<g id="node13" class="node">
<title>Node13</title>
<g id="a_node13"><a xlink:href="_view_field_8_h.html" target="_top" xlink:title=" ">
<polygon fill="white" stroke="black" points="763.95,-56.5 763.95,-75.5 911.95,-75.5 911.95,-56.5 763.95,-56.5"/>
<text text-anchor="middle" x="837.95" y="-63.5" font-family="Helvetica,sans-Serif" font-size="10.00">amr&#45;wind/core/ViewField.H</text>
</a>
</g>
</g>
<!-- Node4&#45;&gt;Node13 -->
<g id="edge13" class="edge">
<title>Node4&#45;&gt;Node13</title>
<path fill="none" stroke="midnightblue" d="M1237.15,-117.99C1225.72,-115.9 1213.39,-113.76 1201.95,-112 1106.37,-97.33 996.1,-84.23 922.2,-76"/>
<polygon fill="midnightblue" stroke="midnightblue" points="922.35,-72.5 912.02,-74.87 921.58,-79.45 922.35,-72.5"/>
</g>
<!-- Node13&#45;&gt;Node3 -->
<g id="edge15" class="edge">
<title>Node13&#45;&gt;Node3</title>
<path fill="none" stroke="midnightblue" d="M764.05,-56.47C679.73,-46.74 542.11,-30.86 453.83,-20.68"/>
<polygon fill="midnightblue" stroke="midnightblue" points="454.18,-17.2 443.85,-19.53 453.38,-24.15 454.18,-17.2"/>
</g>
<!-- Node13&#45;&gt;Node5 -->
<g id="edge14" class="edge">
<title>Node13&#45;&gt;Node5</title>
<path fill="none" stroke="midnightblue" d="M763.55,-57.25C758.95,-56.81 754.39,-56.39 749.95,-56 538.18,-37.18 483.45,-49.84 272.95,-20 269.45,-19.5 265.8,-18.89 262.18,-18.22"/>
<polygon fill="midnightblue" stroke="midnightblue" points="262.66,-14.75 252.17,-16.23 261.29,-21.61 262.66,-14.75"/>
</g>
<!-- Node13&#45;&gt;Node9 -->
<g id="edge16" class="edge">
<title>Node13&#45;&gt;Node9</title>
<path fill="none" stroke="midnightblue" d="M912.2,-59.27C1049.92,-48.65 1342.76,-26.06 1473.07,-16"/>
<polygon fill="midnightblue" stroke="midnightblue" points="1473.6,-19.47 1483.3,-15.22 1473.06,-12.5 1473.6,-19.47"/>
</g>
<!-- Node14 -->
<g id="node14" class="node">
<title>Node14</title>
<g id="a_node14"><a xlink:title=" ">
<polygon fill="white" stroke="#bfbfbf" points="839.95,-0.5 839.95,-19.5 937.95,-19.5 937.95,-0.5 839.95,-0.5"/>
<text text-anchor="middle" x="888.95" y="-7.5" font-family="Helvetica,sans-Serif" font-size="10.00">AMReX_Vector.H</text>
</a>
</g>
</g>
<!-- Node13&#45;&gt;Node14 -->
<g id="edge17" class="edge">
<title>Node13&#45;&gt;Node14</title>
<path fill="none" stroke="midnightblue" d="M846.37,-56.08C853.8,-48.22 864.8,-36.57 873.76,-27.08"/>
<polygon fill="midnightblue" stroke="midnightblue" points="876.36,-29.42 880.69,-19.75 871.27,-24.62 876.36,-29.42"/>
</g>
<!-- Node18&#45;&gt;Node2 -->
<g id="edge36" class="edge">
<title>Node18&#45;&gt;Node2</title>
<path fill="none" stroke="midnightblue" d="M1540.95,-246.4C1523.01,-235.39 1498.23,-220.2 1480.43,-209.28"/>
<polygon fill="midnightblue" stroke="midnightblue" points="1482.18,-206.25 1471.82,-204.01 1478.52,-212.22 1482.18,-206.25"/>
</g>
<!-- Node18&#45;&gt;Node3 -->
<g id="edge31" class="edge">
<title>Node18&#45;&gt;Node3</title>
<path fill="none" stroke="midnightblue" d="M1486.66,-259.39C1223.88,-254.79 376.89,-233.06 298.95,-143 289.02,-131.53 298.92,-67.69 305.95,-56 314.11,-42.42 328.13,-31.87 340.97,-24.41"/>
<polygon fill="midnightblue" stroke="midnightblue" points="342.88,-27.36 350.01,-19.52 339.55,-21.2 342.88,-27.36"/>
</g>
<!-- Node18&#45;&gt;Node4 -->
<g id="edge23" class="edge">
<title>Node18&#45;&gt;Node4</title>
<path fill="none" stroke="midnightblue" d="M1486.56,-249.06C1449.97,-241.49 1406.59,-229.28 1370.95,-210 1339.76,-193.13 1310.7,-163.23 1294.43,-144.72"/>
<polygon fill="midnightblue" stroke="midnightblue" points="1297.07,-142.41 1287.9,-137.1 1291.75,-146.97 1297.07,-142.41"/>
</g>
<!-- Node18&#45;&gt;Node9 -->
<g id="edge38" class="edge">
<title>Node18&#45;&gt;Node9</title>
<path fill="none" stroke="midnightblue" d="M1641.24,-250.06C1679.75,-242.65 1726.06,-230.28 1763.95,-210 1838.56,-170.05 1931.71,-119.67 1875.95,-56 1858.26,-35.8 1695.85,-21.63 1602.75,-15.09"/>
<polygon fill="midnightblue" stroke="midnightblue" points="1602.8,-11.58 1592.58,-14.38 1602.32,-18.56 1602.8,-11.58"/>
</g>
<!-- Node18&#45;&gt;Node17 -->
<g id="edge40" class="edge">
<title>Node18&#45;&gt;Node17</title>
<path fill="none" stroke="midnightblue" d="M1486.8,-247.49C1440.05,-238.76 1379.48,-225.95 1326.95,-210 1250.03,-186.65 1229.42,-181.68 1158.95,-143 1138.3,-131.66 1138.03,-120.23 1115.95,-112 950.17,-50.21 893.27,-93.81 717.61,-76.55"/>
<polygon fill="midnightblue" stroke="midnightblue" points="717.83,-73.06 707.52,-75.51 717.11,-80.02 717.83,-73.06"/>
</g>
<!-- Node18&#45;&gt;Node19 -->
<g id="edge24" class="edge">
<title>Node18&#45;&gt;Node19</title>
<path fill="none" stroke="midnightblue" d="M1641.05,-247.8C1702.72,-237.62 1791.4,-222.96 1868.95,-210 1877.22,-208.62 1885.93,-207.16 1894.5,-205.71"/>
<polygon fill="midnightblue" stroke="midnightblue" points="1895.2,-209.15 1904.48,-204.04 1894.04,-202.24 1895.2,-209.15"/>
</g>
<!-- Node20 -->
<g id="node20" class="node">
<title>Node20</title>
<g id="a_node20"><a xlink:title=" ">
<polygon fill="white" stroke="#bfbfbf" points="1736.95,-118 1736.95,-137 1828.95,-137 1828.95,-118 1736.95,-118"/>
<text text-anchor="middle" x="1782.95" y="-125" font-family="Helvetica,sans-Serif" font-size="10.00">AMReX_REAL.H</text>
</a>
</g>
</g>
<!-- Node18&#45;&gt;Node20 -->
<g id="edge39" class="edge">
<title>Node18&#45;&gt;Node20</title>
<path fill="none" stroke="midnightblue" d="M1570.28,-246.23C1579.08,-228.01 1596.7,-196.73 1620.95,-179 1630.93,-171.71 1697.43,-152.28 1742.07,-139.75"/>
<polygon fill="midnightblue" stroke="midnightblue" points="1743.1,-143.1 1751.79,-137.04 1741.22,-136.36 1743.1,-143.1"/>
</g>
<!-- Node24 -->
<g id="node24" class="node">
<title>Node24</title>
<g id="a_node24"><a xlink:href="_field_utils_8_h.html" target="_top" xlink:title=" ">
<polygon fill="white" stroke="black" points="1398.95,-118 1398.95,-137 1544.95,-137 1544.95,-118 1398.95,-118"/>
<text text-anchor="middle" x="1471.95" y="-125" font-family="Helvetica,sans-Serif" font-size="10.00">amr&#45;wind/core/FieldUtils.H</text>
</a>
</g>
</g>
<!-- Node18&#45;&gt;Node24 -->
<g id="edge32" class="edge">
<title>Node18&#45;&gt;Node24</title>
<path fill="none" stroke="midnightblue" d="M1563.68,-246.31C1562.71,-229.01 1558.92,-199.54 1544.95,-179 1534.04,-162.96 1516.21,-150.49 1500.9,-141.95"/>
<polygon fill="midnightblue" stroke="midnightblue" points="1502.26,-138.71 1491.78,-137.14 1499,-144.9 1502.26,-138.71"/>
</g>
<!-- Node26 -->
<g id="node26" class="node">
<title>Node26</title>
<g id="a_node26"><a xlink:title=" ">
<polygon fill="white" stroke="#bfbfbf" points="996.95,-118 996.95,-137 1106.95,-137 1106.95,-118 996.95,-118"/>
<text text-anchor="middle" x="1051.95" y="-125" font-family="Helvetica,sans-Serif" font-size="10.00">AMReX_AmrCore.H</text>
</a>
</g>
</g>
<!-- Node18&#45;&gt;Node26 -->
<g id="edge37" class="edge">
<title>Node18&#45;&gt;Node26</title>
<path fill="none" stroke="midnightblue" d="M1486.93,-257.7C1379.71,-252.76 1191.77,-240.02 1130.95,-210 1101.19,-195.31 1076.39,-164.67 1062.91,-145.43"/>
<polygon fill="midnightblue" stroke="midnightblue" points="1065.73,-143.34 1057.23,-137.01 1059.92,-147.26 1065.73,-143.34"/>
</g>
<!-- Node27 -->
<g id="node27" class="node">
<title>Node27</title>
<g id="a_node27"><a xlink:title=" ">
<polygon fill="white" stroke="#bfbfbf" points="1630.45,-185 1630.45,-204 1755.45,-204 1755.45,-185 1630.45,-185"/>
<text text-anchor="middle" x="1692.95" y="-192" font-family="Helvetica,sans-Serif" font-size="10.00">AMReX_FillPatchUtil.H</text>
</a>
</g>
</g>
<!-- Node18&#45;&gt;Node27 -->
<g id="edge41" class="edge">
<title>Node18&#45;&gt;Node27</title>
<path fill="none" stroke="midnightblue" d="M1591.94,-246.4C1614.28,-235.14 1645.32,-219.5 1667.08,-208.54"/>
<polygon fill="midnightblue" stroke="midnightblue" points="1668.71,-211.63 1676.07,-204.01 1665.56,-205.38 1668.71,-211.63"/>
</g>
<!-- Node19&#45;&gt;Node8 -->
<g id="edge29" class="edge">
<title>Node19&#45;&gt;Node8</title>
<path fill="none" stroke="midnightblue" d="M1946.7,-184.81C1926.84,-163.86 1876.08,-110.35 1850.37,-83.25"/>
<polygon fill="midnightblue" stroke="midnightblue" points="1852.68,-80.6 1843.26,-75.76 1847.6,-85.42 1852.68,-80.6"/>
</g>
<!-- Node19&#45;&gt;Node14 -->
<g id="edge28" class="edge">
<title>Node19&#45;&gt;Node14</title>
<path fill="none" stroke="midnightblue" d="M1953,-184.69C1946.85,-159.34 1925.32,-86.09 1875.95,-56 1836.23,-31.79 1154.9,-16.29 948.03,-12.13"/>
<polygon fill="midnightblue" stroke="midnightblue" points="948.04,-8.63 937.97,-11.93 947.9,-15.63 948.04,-8.63"/>
</g>
<!-- Node19&#45;&gt;Node20 -->
<g id="edge25" class="edge">
<title>Node19&#45;&gt;Node20</title>
<path fill="none" stroke="midnightblue" d="M1932.11,-184.87C1902.09,-173.52 1849.17,-153.52 1815.11,-140.65"/>
<polygon fill="midnightblue" stroke="midnightblue" points="1816.2,-137.32 1805.61,-137.06 1813.73,-143.87 1816.2,-137.32"/>
</g>
<!-- Node21 -->
<g id="node21" class="node">
<title>Node21</title>
<g id="a_node21"><a xlink:title=" ">
<polygon fill="white" stroke="#bfbfbf" points="1960.95,-118 1960.95,-137 2094.95,-137 2094.95,-118 1960.95,-118"/>
<text text-anchor="middle" x="2027.95" y="-125" font-family="Helvetica,sans-Serif" font-size="10.00">AMReX_GpuQualifiers.H</text>
</a>
</g>
</g>
<!-- Node19&#45;&gt;Node21 -->
<g id="edge26" class="edge">
<title>Node19&#45;&gt;Node21</title>
<path fill="none" stroke="midnightblue" d="M1964.8,-184.73C1976.51,-174.31 1996.27,-156.71 2010.57,-143.97"/>
<polygon fill="midnightblue" stroke="midnightblue" points="2013.12,-146.39 2018.26,-137.13 2008.47,-141.16 2013.12,-146.39"/>
</g>
<!-- Node22 -->
<g id="node22" class="node">
<title>Node22</title>
<g id="a_node22"><a xlink:title=" ">
<polygon fill="white" stroke="#bfbfbf" points="2112.95,-118 2112.95,-137 2228.95,-137 2228.95,-118 2112.95,-118"/>
<text text-anchor="middle" x="2170.95" y="-125" font-family="Helvetica,sans-Serif" font-size="10.00">AMReX_Extension.H</text>
</a>
</g>
</g>
<!-- Node19&#45;&gt;Node22 -->
<g id="edge27" class="edge">
<title>Node19&#45;&gt;Node22</title>
<path fill="none" stroke="midnightblue" d="M1983.63,-184.87C2021.99,-173.33 2090.08,-152.84 2132.75,-140"/>
<polygon fill="midnightblue" stroke="midnightblue" points="2133.93,-143.3 2142.49,-137.06 2131.91,-136.59 2133.93,-143.3"/>
</g>
<!-- Node23 -->
<g id="node23" class="node">
<title>Node23</title>
<g id="a_node23"><a xlink:title=" ">
<polygon fill="white" stroke="#bfbfbf" points="2247.45,-118 2247.45,-137 2294.45,-137 2294.45,-118 2247.45,-118"/>
<text text-anchor="middle" x="2270.95" y="-125" font-family="Helvetica,sans-Serif" font-size="10.00">cmath</text>
</a>
</g>
</g>
<!-- Node19&#45;&gt;Node23 -->
<g id="edge30" class="edge">
<title>Node19&#45;&gt;Node23</title>
<path fill="none" stroke="midnightblue" d="M2002.49,-184.98C2013.48,-183.02 2025.12,-180.93 2035.95,-179 2125.72,-162.97 2150.7,-169.53 2237.95,-143 2239.88,-142.41 2241.85,-141.74 2243.81,-141.02"/>
<polygon fill="midnightblue" stroke="midnightblue" points="2245.48,-144.12 2253.43,-137.12 2242.85,-137.64 2245.48,-144.12"/>
</g>
<!-- Node24&#45;&gt;Node3 -->
<g id="edge33" class="edge">
<title>Node24&#45;&gt;Node3</title>
<path fill="none" stroke="midnightblue" d="M1480.27,-117.98C1493.46,-103.46 1516.02,-73.77 1498.95,-56 1481.2,-37.53 740.37,-19.23 468.59,-13.13"/>
<polygon fill="midnightblue" stroke="midnightblue" points="468.41,-9.63 458.34,-12.9 468.26,-16.62 468.41,-9.63"/>
</g>
<!-- Node24&#45;&gt;Node9 -->
<g id="edge34" class="edge">
<title>Node24&#45;&gt;Node9</title>
<path fill="none" stroke="midnightblue" d="M1520.08,-117.99C1601.03,-103.67 1755.71,-76.28 1755.95,-76 1800.31,-23.05 1682.31,-12.11 1603.08,-10.5"/>
<polygon fill="midnightblue" stroke="midnightblue" points="1602.72,-6.99 1592.67,-10.33 1602.61,-13.99 1602.72,-6.99"/>
</g>
<!-- Node25 -->
<g id="node25" class="node">
<title>Node25</title>
<g id="a_node25"><a xlink:title=" ">
<polygon fill="white" stroke="#bfbfbf" points="1622.95,-56.5 1622.95,-75.5 1746.95,-75.5 1746.95,-56.5 1622.95,-56.5"/>
<text text-anchor="middle" x="1684.95" y="-63.5" font-family="Helvetica,sans-Serif" font-size="10.00">AMReX_Interpolater.H</text>
</a>
</g>
</g>
<!-- Node24&#45;&gt;Node25 -->
<g id="edge35" class="edge">
<title>Node24&#45;&gt;Node25</title>
<path fill="none" stroke="midnightblue" d="M1502.47,-117.98C1539.88,-107.53 1603.38,-89.79 1644.74,-78.23"/>
<polygon fill="midnightblue" stroke="midnightblue" points="1645.8,-81.57 1654.49,-75.51 1643.92,-74.83 1645.8,-81.57"/>
</g>
<!-- Node28&#45;&gt;Node3 -->
<g id="edge45" class="edge">
<title>Node28&#45;&gt;Node3</title>
<path fill="none" stroke="midnightblue" d="M770.33,-191.79C632.16,-187.86 347.78,-175.82 317.95,-143 291.95,-114.38 301.88,-91.17 317.95,-56 323.73,-43.36 335,-32.91 345.58,-25.27"/>
<polygon fill="midnightblue" stroke="midnightblue" points="347.8,-28 354.17,-19.53 343.91,-22.18 347.8,-28"/>
</g>
<!-- Node28&#45;&gt;Node4 -->
<g id="edge47" class="edge">
<title>Node28&#45;&gt;Node4</title>
<path fill="none" stroke="midnightblue" d="M902.4,-184.94C982.72,-172.96 1128.31,-151.26 1213.63,-138.54"/>
<polygon fill="midnightblue" stroke="midnightblue" points="1214.35,-141.97 1223.72,-137.03 1213.32,-135.04 1214.35,-141.97"/>
</g>
<!-- Node28&#45;&gt;Node5 -->
<g id="edge43" class="edge">
<title>Node28&#45;&gt;Node5</title>
<path fill="none" stroke="midnightblue" d="M770.27,-191.75C569.58,-186.7 31.96,-170.62 5.95,-143 -13.94,-121.87 23.71,-59.63 27.95,-56 53.18,-34.41 147.3,-20.54 197.66,-14.49"/>
<polygon fill="midnightblue" stroke="midnightblue" points="198.18,-17.96 207.7,-13.32 197.37,-11 198.18,-17.96"/>
</g>
<!-- Node28&#45;&gt;Node7 -->
<g id="edge44" class="edge">
<title>Node28&#45;&gt;Node7</title>
<path fill="none" stroke="midnightblue" d="M859.25,-184.81C894.73,-163.22 987.08,-107.06 1030.18,-80.85"/>
<polygon fill="midnightblue" stroke="midnightblue" points="1032.1,-83.78 1038.83,-75.59 1028.47,-77.79 1032.1,-83.78"/>
</g>
<!-- Node28&#45;&gt;Node9 -->
<g id="edge69" class="edge">
<title>Node28&#45;&gt;Node9</title>
<path fill="none" stroke="midnightblue" d="M919.91,-191.32C1041.47,-186.9 1275.71,-174.5 1351.95,-143 1372.09,-134.68 1370.56,-121.95 1389.95,-112 1444.43,-84.03 1480.47,-120.11 1522.95,-76 1534.61,-63.89 1537.87,-44.61 1538.51,-30.19"/>
<polygon fill="midnightblue" stroke="midnightblue" points="1542.01,-29.91 1538.57,-19.89 1535.01,-29.87 1542.01,-29.91"/>
</g>
<!-- Node28&#45;&gt;Node24 -->
<g id="edge46" class="edge">
<title>Node28&#45;&gt;Node24</title>
<path fill="none" stroke="midnightblue" d="M919.83,-188.21C1024.25,-180.44 1219.44,-164.5 1384.95,-143 1394.53,-141.76 1404.67,-140.24 1414.52,-138.67"/>
<polygon fill="midnightblue" stroke="midnightblue" points="1415.33,-142.09 1424.63,-137.02 1414.2,-135.18 1415.33,-142.09"/>
</g>
<!-- Node28&#45;&gt;Node26 -->
<g id="edge68" class="edge">
<title>Node28&#45;&gt;Node26</title>
<path fill="none" stroke="midnightblue" d="M872.44,-184.87C909.12,-173.35 974.18,-152.92 1015.08,-140.08"/>
<polygon fill="midnightblue" stroke="midnightblue" points="1016.19,-143.4 1024.68,-137.06 1014.09,-136.72 1016.19,-143.4"/>
</g>
<!-- Node29 -->
<g id="node29" class="node">
<title>Node29</title>
<g id="a_node29"><a xlink:href="_int_field_8_h.html" target="_top" xlink:title=" ">
<polygon fill="white" stroke="black" points="15.45,-118 15.45,-137 152.45,-137 152.45,-118 15.45,-118"/>
<text text-anchor="middle" x="83.95" y="-125" font-family="Helvetica,sans-Serif" font-size="10.00">amr&#45;wind/core/IntField.H</text>
</a>
</g>
</g>
<!-- Node28&#45;&gt;Node29 -->
<g id="edge48" class="edge">
<title>Node28&#45;&gt;Node29</title>
<path fill="none" stroke="midnightblue" d="M770.4,-189.1C649,-181.64 401.14,-165.11 191.95,-143 179.33,-141.67 165.91,-140.04 152.98,-138.36"/>
<polygon fill="midnightblue" stroke="midnightblue" points="153.1,-134.84 142.73,-137 152.19,-141.78 153.1,-134.84"/>
</g>
<!-- Node30 -->
<g id="node30" class="node">
<title>Node30</title>
<g id="a_node30"><a xlink:title=" ">
<polygon fill="white" stroke="#bfbfbf" points="77.95,-56.5 77.95,-75.5 189.95,-75.5 189.95,-56.5 77.95,-56.5"/>
<text text-anchor="middle" x="133.95" y="-63.5" font-family="Helvetica,sans-Serif" font-size="10.00">AMReX_iMultiFab.H</text>
</a>
</g>
</g>
<!-- Node28&#45;&gt;Node30 -->
<g id="edge70" class="edge">
<title>Node28&#45;&gt;Node30</title>
<path fill="none" stroke="midnightblue" d="M770.34,-190.43C638.53,-184.42 369.92,-169.32 279.95,-143 232.39,-129.09 182.28,-99.16 154.89,-81.29"/>
<polygon fill="midnightblue" stroke="midnightblue" points="156.78,-78.34 146.51,-75.73 152.91,-84.17 156.78,-78.34"/>
</g>
<!-- Node31 -->
<g id="node31" class="node">
<title>Node31</title>
<g id="a_node31"><a xlink:href="_scratch_field_8_h.html" target="_top" xlink:title=" ">
<polygon fill="white" stroke="black" points="659.95,-118 659.95,-137 819.95,-137 819.95,-118 659.95,-118"/>
<text text-anchor="middle" x="739.95" y="-125" font-family="Helvetica,sans-Serif" font-size="10.00">amr&#45;wind/core/ScratchField.H</text>
</a>
</g>
</g>
<!-- Node28&#45;&gt;Node31 -->
<g id="edge52" class="edge">
<title>Node28&#45;&gt;Node31</title>
<path fill="none" stroke="midnightblue" d="M830.79,-184.73C813.24,-173.87 783.11,-155.22 762.39,-142.39"/>
<polygon fill="midnightblue" stroke="midnightblue" points="764.23,-139.41 753.89,-137.13 760.55,-145.37 764.23,-139.41"/>
</g>
<!-- Node33 -->
<g id="node33" class="node">
<title>Node33</title>
<g id="a_node33"><a xlink:href="_int_scratch_field_8_h.html" target="_top" xlink:title=" ">
<polygon fill="white" stroke="black" points="375.45,-112.5 375.45,-142.5 514.45,-142.5 514.45,-112.5 375.45,-112.5"/>
<text text-anchor="start" x="383.45" y="-130.5" font-family="Helvetica,sans-Serif" font-size="10.00">amr&#45;wind/core/IntScratch</text>
<text text-anchor="middle" x="444.95" y="-119.5" font-family="Helvetica,sans-Serif" font-size="10.00">Field.H</text>
</a>
</g>
</g>
<!-- Node28&#45;&gt;Node33 -->
<g id="edge60" class="edge">
<title>Node28&#45;&gt;Node33</title>
<path fill="none" stroke="midnightblue" d="M792.25,-184.94C723.89,-173.83 604.02,-154.35 524.55,-141.43"/>
<polygon fill="midnightblue" stroke="midnightblue" points="525.01,-137.96 514.58,-139.82 523.89,-144.87 525.01,-137.96"/>
</g>
<!-- Node29&#45;&gt;Node3 -->
<g id="edge50" class="edge">
<title>Node29&#45;&gt;Node3</title>
<path fill="none" stroke="midnightblue" d="M78.09,-117.99C68.88,-103.49 53.59,-73.82 68.95,-56 82.26,-40.56 188.89,-27.38 271.5,-19.35"/>
<polygon fill="midnightblue" stroke="midnightblue" points="272.09,-22.81 281.71,-18.37 271.42,-15.84 272.09,-22.81"/>
</g>
<!-- Node29&#45;&gt;Node5 -->
<g id="edge49" class="edge">
<title>Node29&#45;&gt;Node5</title>
<path fill="none" stroke="midnightblue" d="M70.67,-117.97C51.21,-104.42 19,-77.33 35.95,-56 55.79,-31.03 147.77,-18.68 197.62,-13.73"/>
<polygon fill="midnightblue" stroke="midnightblue" points="198.24,-17.19 207.87,-12.76 197.58,-10.22 198.24,-17.19"/>
</g>
<!-- Node29&#45;&gt;Node30 -->
<g id="edge51" class="edge">
<title>Node29&#45;&gt;Node30</title>
<path fill="none" stroke="midnightblue" d="M91.11,-117.98C98.69,-108.96 110.82,-94.52 120.24,-83.31"/>
<polygon fill="midnightblue" stroke="midnightblue" points="123.05,-85.42 126.8,-75.51 117.69,-80.91 123.05,-85.42"/>
</g>
<!-- Node31&#45;&gt;Node3 -->
<g id="edge55" class="edge">
<title>Node31&#45;&gt;Node3</title>
<path fill="none" stroke="midnightblue" d="M704.98,-117.96C669.67,-108.94 613.81,-93.62 566.95,-76 547.22,-68.58 543.68,-63.42 523.95,-56 487.72,-42.37 445.45,-30.28 414.37,-22.07"/>
<polygon fill="midnightblue" stroke="midnightblue" points="415.25,-18.68 404.69,-19.55 413.48,-25.46 415.25,-18.68"/>
</g>
<!-- Node31&#45;&gt;Node5 -->
<g id="edge53" class="edge">
<title>Node31&#45;&gt;Node5</title>
<path fill="none" stroke="midnightblue" d="M682.58,-117.95C638.2,-110.19 575.79,-96.75 523.95,-76 507.67,-69.49 506.43,-61.98 489.95,-56 398.05,-22.66 369.04,-38.02 272.95,-20 269.47,-19.35 265.84,-18.64 262.23,-17.91"/>
<polygon fill="midnightblue" stroke="midnightblue" points="262.73,-14.44 252.23,-15.85 261.32,-21.29 262.73,-14.44"/>
</g>
<!-- Node31&#45;&gt;Node9 -->
<g id="edge57" class="edge">
<title>Node31&#45;&gt;Node9</title>
<path fill="none" stroke="midnightblue" d="M777.04,-117.94C817,-108.52 882.34,-92.49 937.95,-76 964.5,-68.13 969.84,-61.63 996.95,-56 1166.23,-20.82 1370.71,-12.95 1473.01,-11.32"/>
<polygon fill="midnightblue" stroke="midnightblue" points="1473.24,-14.81 1483.19,-11.17 1473.14,-7.82 1473.24,-14.81"/>
</g>
<!-- Node31&#45;&gt;Node13 -->
<g id="edge56" class="edge">
<title>Node31&#45;&gt;Node13</title>
<path fill="none" stroke="midnightblue" d="M753.99,-117.98C770,-108.25 796.4,-92.23 815.32,-80.74"/>
<polygon fill="midnightblue" stroke="midnightblue" points="817.2,-83.69 823.94,-75.51 813.57,-77.71 817.2,-83.69"/>
</g>
<!-- Node31&#45;&gt;Node14 -->
<g id="edge58" class="edge">
<title>Node31&#45;&gt;Node14</title>
<path fill="none" stroke="midnightblue" d="M798.34,-117.96C845.36,-109.76 906.01,-95.68 920.95,-76 932.52,-60.76 919.04,-40.68 906.19,-26.89"/>
<polygon fill="midnightblue" stroke="midnightblue" points="908.44,-24.19 898.9,-19.58 903.49,-29.13 908.44,-24.19"/>
</g>
<!-- Node31&#45;&gt;Node17 -->
<g id="edge59" class="edge">
<title>Node31&#45;&gt;Node17</title>
<path fill="none" stroke="midnightblue" d="M725.91,-117.98C709.9,-108.25 683.5,-92.23 664.58,-80.74"/>
<polygon fill="midnightblue" stroke="midnightblue" points="666.33,-77.71 655.97,-75.51 662.7,-83.69 666.33,-77.71"/>
</g>
<!-- Node32 -->
<g id="node32" class="node">
<title>Node32</title>
<g id="a_node32"><a xlink:title=" ">
<polygon fill="white" stroke="#bfbfbf" points="436.45,-56.5 436.45,-75.5 481.45,-75.5 481.45,-56.5 436.45,-56.5"/>
<text text-anchor="middle" x="458.95" y="-63.5" font-family="Helvetica,sans-Serif" font-size="10.00">utility</text>
</a>
</g>
</g>
<!-- Node31&#45;&gt;Node32 -->
<g id="edge54" class="edge">
<title>Node31&#45;&gt;Node32</title>
<path fill="none" stroke="midnightblue" d="M696.22,-117.92C647.31,-108.22 565.8,-91.72 495.95,-76 494.5,-75.67 493.02,-75.33 491.52,-74.99"/>
<polygon fill="midnightblue" stroke="midnightblue" points="492.16,-71.54 481.62,-72.65 490.54,-78.35 492.16,-71.54"/>
</g>
<!-- Node33&#45;&gt;Node3 -->
<g id="edge63" class="edge">
<title>Node33&#45;&gt;Node3</title>
<path fill="none" stroke="midnightblue" d="M426.91,-112.17C416.14,-102.82 402.85,-89.83 393.95,-76 384.69,-61.62 378.31,-43.16 374.47,-29.59"/>
<polygon fill="midnightblue" stroke="midnightblue" points="377.76,-28.32 371.84,-19.54 370.99,-30.1 377.76,-28.32"/>
</g>
<!-- Node33&#45;&gt;Node5 -->
<g id="edge61" class="edge">
<title>Node33&#45;&gt;Node5</title>
<path fill="none" stroke="midnightblue" d="M418.59,-112.34C376.75,-89.86 295.72,-46.33 254.83,-24.37"/>
<polygon fill="midnightblue" stroke="midnightblue" points="256.28,-21.17 245.81,-19.52 252.97,-27.34 256.28,-21.17"/>
</g>
<!-- Node33&#45;&gt;Node13 -->
<g id="edge64" class="edge">
<title>Node33&#45;&gt;Node13</title>
<path fill="none" stroke="midnightblue" d="M514.76,-115.93C587.29,-104.95 699.96,-87.89 771.3,-77.09"/>
<polygon fill="midnightblue" stroke="midnightblue" points="772.15,-80.5 781.52,-75.54 771.11,-73.58 772.15,-80.5"/>
</g>
<!-- Node33&#45;&gt;Node14 -->
<g id="edge66" class="edge">
<title>Node33&#45;&gt;Node14</title>
<path fill="none" stroke="midnightblue" d="M434.62,-112.24C424.61,-96.56 412.86,-71.53 426.95,-56 453.52,-26.71 710.94,-15.88 829.59,-12.42"/>
<polygon fill="midnightblue" stroke="midnightblue" points="829.71,-15.92 839.6,-12.14 829.51,-8.92 829.71,-15.92"/>
</g>
<!-- Node33&#45;&gt;Node17 -->
<g id="edge67" class="edge">
<title>Node33&#45;&gt;Node17</title>
<path fill="none" stroke="midnightblue" d="M491.64,-112.4C525.83,-102.07 571.66,-88.23 603.69,-78.56"/>
<polygon fill="midnightblue" stroke="midnightblue" points="605.01,-81.81 613.57,-75.57 602.99,-75.11 605.01,-81.81"/>
</g>
<!-- Node33&#45;&gt;Node30 -->
<g id="edge65" class="edge">
<title>Node33&#45;&gt;Node30</title>
<path fill="none" stroke="midnightblue" d="M375.16,-113.15C318.74,-102.35 240.45,-87.37 188.54,-77.44"/>
<polygon fill="midnightblue" stroke="midnightblue" points="189.01,-73.97 178.53,-75.53 187.69,-80.85 189.01,-73.97"/>
</g>
<!-- Node33&#45;&gt;Node32 -->
<g id="edge62" class="edge">
<title>Node33&#45;&gt;Node32</title>
<path fill="none" stroke="midnightblue" d="M448.27,-112.4C450.16,-104.38 452.54,-94.23 454.58,-85.57"/>
<polygon fill="midnightblue" stroke="midnightblue" points="458.03,-86.19 456.91,-75.66 451.22,-84.59 458.03,-86.19"/>
</g>
<!-- Node34&#45;&gt;Node11 -->
<g id="edge74" class="edge">
<title>Node34&#45;&gt;Node11</title>
<path fill="none" stroke="midnightblue" d="M2396.84,-179.48C2393.41,-156.62 2386.6,-111.3 2382.76,-85.71"/>
<polygon fill="midnightblue" stroke="midnightblue" points="2386.22,-85.16 2381.27,-75.79 2379.29,-86.2 2386.22,-85.16"/>
</g>
<!-- Node34&#45;&gt;Node16 -->
<g id="edge73" class="edge">
<title>Node34&#45;&gt;Node16</title>
<path fill="none" stroke="midnightblue" d="M2417.61,-179.4C2431.68,-168.76 2450.94,-154.2 2465.26,-143.38"/>
<polygon fill="midnightblue" stroke="midnightblue" points="2467.58,-146.02 2473.45,-137.19 2463.36,-140.43 2467.58,-146.02"/>
</g>
<!-- Node35&#45;&gt;Node11 -->
<g id="edge77" class="edge">
<title>Node35&#45;&gt;Node11</title>
<path fill="none" stroke="midnightblue" d="M2550.67,-179.49C2558.04,-161.84 2566.98,-131.47 2551.95,-112 2537.48,-93.26 2478.6,-80.82 2433.72,-73.86"/>
<polygon fill="midnightblue" stroke="midnightblue" points="2434.21,-70.4 2423.8,-72.38 2433.17,-77.32 2434.21,-70.4"/>
</g>
<!-- Node35&#45;&gt;Node16 -->
<g id="edge76" class="edge">
<title>Node35&#45;&gt;Node16</title>
<path fill="none" stroke="midnightblue" d="M2531.15,-179.4C2521.86,-169.16 2509.27,-155.3 2499.58,-144.62"/>
<polygon fill="midnightblue" stroke="midnightblue" points="2502.16,-142.25 2492.84,-137.19 2496.97,-146.95 2502.16,-142.25"/>
</g>
<!-- Node36&#45;&gt;Node11 -->
<g id="edge80" class="edge">
<title>Node36&#45;&gt;Node11</title>
<path fill="none" stroke="midnightblue" d="M2672.41,-179.2C2650.45,-160.94 2609.8,-129.63 2569.95,-112 2526.13,-92.61 2472.76,-80.91 2433.76,-74.33"/>
<polygon fill="midnightblue" stroke="midnightblue" points="2434.1,-70.83 2423.67,-72.68 2432.97,-77.74 2434.1,-70.83"/>
</g>
<!-- Node36&#45;&gt;Node16 -->
<g id="edge79" class="edge">
<title>Node36&#45;&gt;Node16</title>
<path fill="none" stroke="midnightblue" d="M2644.94,-179.48C2608.05,-167.72 2556.02,-151.14 2521.42,-140.12"/>
<polygon fill="midnightblue" stroke="midnightblue" points="2522.31,-136.73 2511.72,-137.03 2520.18,-143.4 2522.31,-136.73"/>
</g>
<!-- Node37&#45;&gt;Node11 -->
<g id="edge83" class="edge">
<title>Node37&#45;&gt;Node11</title>
<path fill="none" stroke="midnightblue" d="M2800.17,-179.42C2756.61,-161.69 2678.21,-131.23 2608.95,-112 2549.66,-95.54 2480.13,-82.78 2433.38,-75.11"/>
<polygon fill="midnightblue" stroke="midnightblue" points="2433.89,-71.65 2423.46,-73.51 2432.78,-78.56 2433.89,-71.65"/>
</g>
<!-- Node37&#45;&gt;Node16 -->
<g id="edge82" class="edge">
<title>Node37&#45;&gt;Node16</title>
<path fill="none" stroke="midnightblue" d="M2770.36,-180.63C2767.52,-180.07 2764.71,-179.53 2761.95,-179 2686.7,-164.56 2599.76,-148.87 2543.65,-138.88"/>
<polygon fill="midnightblue" stroke="midnightblue" points="2544,-135.39 2533.54,-137.08 2542.77,-142.28 2544,-135.39"/>
</g>
<!-- Node38&#45;&gt;Node11 -->
<g id="edge86" class="edge">
<title>Node38&#45;&gt;Node11</title>
<path fill="none" stroke="midnightblue" d="M2172.9,-180.6C2220.46,-170.31 2280.79,-155.6 2302.95,-143 2310.19,-138.89 2344.35,-104 2364.66,-82.95"/>
<polygon fill="midnightblue" stroke="midnightblue" points="2367.27,-85.29 2371.68,-75.65 2362.23,-80.43 2367.27,-85.29"/>
</g>
<!-- Node38&#45;&gt;Node16 -->
<g id="edge85" class="edge">
<title>Node38&#45;&gt;Node16</title>
<path fill="none" stroke="midnightblue" d="M2172.53,-180.57C2175.37,-180.03 2178.19,-179.51 2180.95,-179 2263.32,-163.87 2358.62,-148.36 2420.24,-138.59"/>
<polygon fill="midnightblue" stroke="midnightblue" points="2420.88,-142.04 2430.21,-137.02 2419.79,-135.12 2420.88,-142.04"/>
</g>
<!-- Node39&#45;&gt;Node11 -->
<g id="edge89" class="edge">
<title>Node39&#45;&gt;Node11</title>
<path fill="none" stroke="midnightblue" d="M2284.98,-179.47C2301.82,-170.74 2322.16,-158.26 2336.95,-143 2353.22,-126.21 2365.49,-102.07 2372.68,-85.52"/>
<polygon fill="midnightblue" stroke="midnightblue" points="2376.07,-86.48 2376.66,-75.91 2369.6,-83.81 2376.07,-86.48"/>
</g>
<!-- Node39&#45;&gt;Node16 -->
<g id="edge88" class="edge">
<title>Node39&#45;&gt;Node16</title>
<path fill="none" stroke="midnightblue" d="M2303.79,-179.48C2346.01,-167.6 2405.75,-150.79 2444.91,-139.77"/>
<polygon fill="midnightblue" stroke="midnightblue" points="2445.96,-143.11 2454.64,-137.03 2444.07,-136.37 2445.96,-143.11"/>
</g>
</g>
</svg>
