<?xml version="1.0" encoding="UTF-8" standalone="no"?>
<!DOCTYPE svg PUBLIC "-//W3C//DTD SVG 1.1//EN"
 "http://www.w3.org/Graphics/SVG/1.1/DTD/svg11.dtd">
<!-- Generated by graphviz version 2.43.0 (0)
 -->
<!-- Title: vstraits.H Pages: 1 -->
<svg width="2468pt" height="420pt"
 viewBox="0.00 0.00 2467.50 420.00" xmlns="http://www.w3.org/2000/svg" xmlns:xlink="http://www.w3.org/1999/xlink">
<g id="graph0" class="graph" transform="scale(1 1) rotate(0) translate(4 416)">
<title>vstraits.H</title>
<polygon fill="white" stroke="transparent" points="-4,4 -4,-416 2463.5,-416 2463.5,4 -4,4"/>
<!-- Node1 -->
<g id="node1" class="node">
<title>Node1</title>
<g id="a_node1"><a xlink:title=" ">
<polygon fill="#bfbfbf" stroke="black" points="1644,-392.5 1644,-411.5 1708,-411.5 1708,-392.5 1644,-392.5"/>
<text text-anchor="middle" x="1676" y="-399.5" font-family="Helvetica,sans-Serif" font-size="10.00">vstraits.H</text>
</a>
</g>
</g>
<!-- Node2 -->
<g id="node2" class="node">
<title>Node2</title>
<g id="a_node2"><a xlink:href="tensor_8_h.html" target="_top" xlink:title=" ">
<polygon fill="white" stroke="black" points="1062.5,-280.5 1062.5,-299.5 1119.5,-299.5 1119.5,-280.5 1062.5,-280.5"/>
<text text-anchor="middle" x="1091" y="-287.5" font-family="Helvetica,sans-Serif" font-size="10.00">tensor.H</text>
</a>
</g>
</g>
<!-- Node1&#45;&gt;Node2 -->
<g id="edge1" class="edge">
<title>Node1&#45;&gt;Node2</title>
<path fill="none" stroke="midnightblue" d="M1633.8,-393.95C1541.81,-378.41 1316.44,-339.48 1129,-300 1125.95,-299.36 1122.77,-298.65 1119.6,-297.94"/>
<polygon fill="midnightblue" stroke="midnightblue" points="1633.39,-397.43 1643.83,-395.64 1634.55,-390.53 1633.39,-397.43"/>
</g>
<!-- Node125 -->
<g id="node40" class="node">
<title>Node125</title>
<g id="a_node40"><a xlink:href="vector_8_h.html" target="_top" xlink:title=" ">
<polygon fill="white" stroke="black" points="1535.5,-336.5 1535.5,-355.5 1592.5,-355.5 1592.5,-336.5 1535.5,-336.5"/>
<text text-anchor="middle" x="1564" y="-343.5" font-family="Helvetica,sans-Serif" font-size="10.00">vector.H</text>
</a>
</g>
</g>
<!-- Node1&#45;&gt;Node125 -->
<g id="edge64" class="edge">
<title>Node1&#45;&gt;Node125</title>
<path fill="none" stroke="midnightblue" d="M1648.75,-387.86C1627.98,-377.85 1599.98,-364.35 1581.95,-355.65"/>
<polygon fill="midnightblue" stroke="midnightblue" points="1647.48,-391.13 1658.01,-392.32 1650.52,-384.83 1647.48,-391.13"/>
</g>
<!-- Node133 -->
<g id="node48" class="node">
<title>Node133</title>
<g id="a_node48"><a xlink:href="_geostrophic_forcing_8cpp.html" target="_top" xlink:title=" ">
<polygon fill="white" stroke="black" points="1610.5,-336.5 1610.5,-355.5 1741.5,-355.5 1741.5,-336.5 1610.5,-336.5"/>
<text text-anchor="middle" x="1676" y="-343.5" font-family="Helvetica,sans-Serif" font-size="10.00">GeostrophicForcing.cpp</text>
</a>
</g>
</g>
<!-- Node1&#45;&gt;Node133 -->
<g id="edge75" class="edge">
<title>Node1&#45;&gt;Node133</title>
<path fill="none" stroke="midnightblue" d="M1676,-381.8C1676,-372.91 1676,-362.78 1676,-355.75"/>
<polygon fill="midnightblue" stroke="midnightblue" points="1672.5,-382.08 1676,-392.08 1679.5,-382.08 1672.5,-382.08"/>
</g>
<!-- Node93 -->
<g id="node49" class="node">
<title>Node93</title>
<g id="a_node49"><a xlink:href="_hurricane_forcing_8cpp.html" target="_top" xlink:title=" ">
<polygon fill="white" stroke="black" points="1759.5,-336.5 1759.5,-355.5 1878.5,-355.5 1878.5,-336.5 1759.5,-336.5"/>
<text text-anchor="middle" x="1819" y="-343.5" font-family="Helvetica,sans-Serif" font-size="10.00">HurricaneForcing.cpp</text>
</a>
</g>
</g>
<!-- Node1&#45;&gt;Node93 -->
<g id="edge76" class="edge">
<title>Node1&#45;&gt;Node93</title>
<path fill="none" stroke="midnightblue" d="M1708.03,-388.91C1734.91,-378.75 1772.64,-364.51 1796.45,-355.52"/>
<polygon fill="midnightblue" stroke="midnightblue" points="1706.78,-385.64 1698.66,-392.44 1709.25,-392.19 1706.78,-385.64"/>
</g>
<!-- Node95 -->
<g id="node50" class="node">
<title>Node95</title>
<g id="a_node50"><a xlink:href="_hurricane_temp_forcing_8cpp.html" target="_top" xlink:title=" ">
<polygon fill="white" stroke="black" points="1897,-336.5 1897,-355.5 2043,-355.5 2043,-336.5 1897,-336.5"/>
<text text-anchor="middle" x="1970" y="-343.5" font-family="Helvetica,sans-Serif" font-size="10.00">HurricaneTempForcing.cpp</text>
</a>
</g>
</g>
<!-- Node1&#45;&gt;Node95 -->
<g id="edge77" class="edge">
<title>Node1&#45;&gt;Node95</title>
<path fill="none" stroke="midnightblue" d="M1718.03,-393.28C1772.46,-383.28 1867.05,-365.91 1923.56,-355.53"/>
<polygon fill="midnightblue" stroke="midnightblue" points="1717.23,-389.87 1708.02,-395.12 1718.49,-396.75 1717.23,-389.87"/>
</g>
<!-- Node3 -->
<g id="node3" class="node">
<title>Node3</title>
<g id="a_node3"><a xlink:href="tensor_i_8_h.html" target="_top" xlink:title=" ">
<polygon fill="white" stroke="black" points="1060.5,-224.5 1060.5,-243.5 1121.5,-243.5 1121.5,-224.5 1060.5,-224.5"/>
<text text-anchor="middle" x="1091" y="-231.5" font-family="Helvetica,sans-Serif" font-size="10.00">tensorI.H</text>
</a>
</g>
</g>
<!-- Node2&#45;&gt;Node3 -->
<g id="edge2" class="edge">
<title>Node2&#45;&gt;Node3</title>
<path fill="none" stroke="midnightblue" d="M1084.53,-270.1C1083.9,-261.14 1084.34,-250.86 1085.87,-243.75"/>
<polygon fill="midnightblue" stroke="midnightblue" points="1081.07,-270.62 1085.83,-280.08 1088.01,-269.71 1081.07,-270.62"/>
</g>
<!-- Node4 -->
<g id="node4" class="node">
<title>Node4</title>
<g id="a_node4"><a xlink:href="vector__space_8_h.html" target="_top" xlink:title=" ">
<polygon fill="white" stroke="black" points="1412,-224.5 1412,-243.5 1504,-243.5 1504,-224.5 1412,-224.5"/>
<text text-anchor="middle" x="1458" y="-231.5" font-family="Helvetica,sans-Serif" font-size="10.00">vector_space.H</text>
</a>
</g>
</g>
<!-- Node2&#45;&gt;Node4 -->
<g id="edge4" class="edge">
<title>Node2&#45;&gt;Node4</title>
<path fill="none" stroke="midnightblue" d="M1129.55,-280.07C1236.31,-260.47 1349.79,-246.78 1411.73,-239.9"/>
<polygon fill="midnightblue" stroke="midnightblue" points="1128.76,-276.65 1119.57,-281.92 1130.04,-283.54 1128.76,-276.65"/>
</g>
<!-- Node3&#45;&gt;Node2 -->
<g id="edge3" class="edge">
<title>Node3&#45;&gt;Node2</title>
<path fill="none" stroke="midnightblue" d="M1097.46,-253.69C1098.11,-262.64 1097.68,-272.93 1096.17,-280.08"/>
<polygon fill="midnightblue" stroke="midnightblue" points="1100.92,-253.2 1096.13,-243.75 1093.98,-254.13 1100.92,-253.2"/>
</g>
<!-- Node5 -->
<g id="node5" class="node">
<title>Node5</title>
<g id="a_node5"><a xlink:href="_multi_parser_8_h.html" target="_top" xlink:title=" ">
<polygon fill="white" stroke="black" points="497.5,-112.5 497.5,-131.5 578.5,-131.5 578.5,-112.5 497.5,-112.5"/>
<text text-anchor="middle" x="538" y="-119.5" font-family="Helvetica,sans-Serif" font-size="10.00">MultiParser.H</text>
</a>
</g>
</g>
<!-- Node4&#45;&gt;Node5 -->
<g id="edge5" class="edge">
<title>Node4&#45;&gt;Node5</title>
<path fill="none" stroke="midnightblue" d="M1401.75,-231.36C1254.91,-226.79 862.53,-212.58 735,-188 668.52,-175.18 593.44,-146.14 558.24,-131.61"/>
<polygon fill="midnightblue" stroke="midnightblue" points="1401.79,-234.87 1411.89,-231.68 1402.01,-227.87 1401.79,-234.87"/>
</g>
<!-- Node49 -->
<g id="node15" class="node">
<title>Node49</title>
<g id="a_node15"><a xlink:href="wing__ops_8_h.html" target="_top" xlink:title=" ">
<polygon fill="white" stroke="red" points="975.5,-0.5 975.5,-19.5 1048.5,-19.5 1048.5,-0.5 975.5,-0.5"/>
<text text-anchor="middle" x="1012" y="-7.5" font-family="Helvetica,sans-Serif" font-size="10.00">wing_ops.H</text>
</a>
</g>
</g>
<!-- Node4&#45;&gt;Node49 -->
<g id="edge63" class="edge">
<title>Node4&#45;&gt;Node49</title>
<path fill="none" stroke="midnightblue" d="M1401.54,-232.03C1321.75,-229.51 1181.53,-220.45 1144,-188 1097.73,-147.99 1144.58,-102.64 1105,-56 1089.56,-37.81 1065.07,-26.38 1045.09,-19.59"/>
<polygon fill="midnightblue" stroke="midnightblue" points="1401.81,-235.54 1411.9,-232.34 1402.01,-228.55 1401.81,-235.54"/>
</g>
<!-- Node56 -->
<g id="node16" class="node">
<title>Node56</title>
<g id="a_node16"><a xlink:href="_bluff_body_8_h.html" target="_top" xlink:title=" ">
<polygon fill="white" stroke="black" points="160.5,-112.5 160.5,-131.5 233.5,-131.5 233.5,-112.5 160.5,-112.5"/>
<text text-anchor="middle" x="197" y="-119.5" font-family="Helvetica,sans-Serif" font-size="10.00">BluffBody.H</text>
</a>
</g>
</g>
<!-- Node4&#45;&gt;Node56 -->
<g id="edge20" class="edge">
<title>Node4&#45;&gt;Node56</title>
<path fill="none" stroke="midnightblue" d="M1401.72,-231.27C1171.8,-224.16 314.64,-197.11 288,-188 253.46,-176.19 220.57,-146.67 205.54,-131.82"/>
<polygon fill="midnightblue" stroke="midnightblue" points="1401.77,-234.78 1411.88,-231.59 1401.99,-227.78 1401.77,-234.78"/>
</g>
<!-- Node60 -->
<g id="node20" class="node">
<title>Node60</title>
<g id="a_node20"><a xlink:href="_i_b_types_8_h.html" target="_top" xlink:title=" ">
<polygon fill="white" stroke="black" points="297.5,-168.5 297.5,-187.5 362.5,-187.5 362.5,-168.5 297.5,-168.5"/>
<text text-anchor="middle" x="330" y="-175.5" font-family="Helvetica,sans-Serif" font-size="10.00">IBTypes.H</text>
</a>
</g>
</g>
<!-- Node4&#45;&gt;Node60 -->
<g id="edge25" class="edge">
<title>Node4&#45;&gt;Node60</title>
<path fill="none" stroke="midnightblue" d="M1401.61,-230.3C1200.16,-220.66 519.69,-188.08 362.56,-180.56"/>
<polygon fill="midnightblue" stroke="midnightblue" points="1401.52,-233.8 1411.68,-230.78 1401.86,-226.81 1401.52,-233.8"/>
</g>
<!-- Node62 -->
<g id="node22" class="node">
<title>Node62</title>
<g id="a_node22"><a xlink:href="_ocean_waves_types_8_h.html" target="_top" xlink:title=" ">
<polygon fill="white" stroke="black" points="744,-168.5 744,-187.5 862,-187.5 862,-168.5 744,-168.5"/>
<text text-anchor="middle" x="803" y="-175.5" font-family="Helvetica,sans-Serif" font-size="10.00">OceanWavesTypes.H</text>
</a>
</g>
</g>
<!-- Node4&#45;&gt;Node62 -->
<g id="edge32" class="edge">
<title>Node4&#45;&gt;Node62</title>
<path fill="none" stroke="midnightblue" d="M1401.64,-228.35C1278.81,-218.23 987.95,-194.25 862.4,-183.9"/>
<polygon fill="midnightblue" stroke="midnightblue" points="1401.69,-231.87 1411.94,-229.2 1402.26,-224.89 1401.69,-231.87"/>
</g>
<!-- Node64 -->
<g id="node24" class="node">
<title>Node64</title>
<g id="a_node24"><a xlink:href="_relaxation_zones_8_h.html" target="_top" xlink:title=" ">
<polygon fill="white" stroke="red" points="831,-112.5 831,-131.5 941,-131.5 941,-112.5 831,-112.5"/>
<text text-anchor="middle" x="886" y="-119.5" font-family="Helvetica,sans-Serif" font-size="10.00">RelaxationZones.H</text>
</a>
</g>
</g>
<!-- Node4&#45;&gt;Node64 -->
<g id="edge40" class="edge">
<title>Node4&#45;&gt;Node64</title>
<path fill="none" stroke="midnightblue" d="M1401.37,-231.93C1320.62,-229.27 1168.32,-220.04 1043,-188 989.55,-174.34 930.42,-145.95 902.42,-131.64"/>
<polygon fill="midnightblue" stroke="midnightblue" points="1401.7,-235.44 1411.8,-232.25 1401.91,-228.45 1401.7,-235.44"/>
</g>
<!-- Node68 -->
<g id="node25" class="node">
<title>Node68</title>
<g id="a_node25"><a xlink:href="overset__ops___k_8_h.html" target="_top" xlink:title=" ">
<polygon fill="white" stroke="red" points="1153,-168.5 1153,-187.5 1251,-187.5 1251,-168.5 1153,-168.5"/>
<text text-anchor="middle" x="1202" y="-175.5" font-family="Helvetica,sans-Serif" font-size="10.00">overset_ops_K.H</text>
</a>
</g>
</g>
<!-- Node4&#45;&gt;Node68 -->
<g id="edge41" class="edge">
<title>Node4&#45;&gt;Node68</title>
<path fill="none" stroke="midnightblue" d="M1407.49,-222.35C1359.11,-212.14 1287.05,-196.94 1242.37,-187.52"/>
<polygon fill="midnightblue" stroke="midnightblue" points="1406.93,-225.8 1417.44,-224.44 1408.37,-218.95 1406.93,-225.8"/>
</g>
<!-- Node72 -->
<g id="node26" class="node">
<title>Node72</title>
<g id="a_node26"><a xlink:href="_synthetic_turbulence_8_h.html" target="_top" xlink:title=" ">
<polygon fill="white" stroke="red" points="1269.5,-168.5 1269.5,-187.5 1394.5,-187.5 1394.5,-168.5 1269.5,-168.5"/>
<text text-anchor="middle" x="1332" y="-175.5" font-family="Helvetica,sans-Serif" font-size="10.00">SyntheticTurbulence.H</text>
</a>
</g>
</g>
<!-- Node4&#45;&gt;Node72 -->
<g id="edge42" class="edge">
<title>Node4&#45;&gt;Node72</title>
<path fill="none" stroke="midnightblue" d="M1428.84,-220.5C1405.22,-210.38 1372.57,-196.39 1351.87,-187.52"/>
<polygon fill="midnightblue" stroke="midnightblue" points="1427.46,-223.72 1438.03,-224.44 1430.22,-217.29 1427.46,-223.72"/>
</g>
<!-- Node74 -->
<g id="node27" class="node">
<title>Node74</title>
<g id="a_node27"><a xlink:href="_d_t_u_spinner_sampler_8_h.html" target="_top" xlink:title=" ">
<polygon fill="white" stroke="red" points="1469.5,-112.5 1469.5,-131.5 1594.5,-131.5 1594.5,-112.5 1469.5,-112.5"/>
<text text-anchor="middle" x="1532" y="-119.5" font-family="Helvetica,sans-Serif" font-size="10.00">DTUSpinnerSampler.H</text>
</a>
</g>
</g>
<!-- Node4&#45;&gt;Node74 -->
<g id="edge43" class="edge">
<title>Node4&#45;&gt;Node74</title>
<path fill="none" stroke="midnightblue" d="M1480.67,-218.7C1491.53,-210.83 1503.89,-200.18 1512,-188 1523.91,-170.11 1528.99,-144.81 1530.94,-131.67"/>
<polygon fill="midnightblue" stroke="midnightblue" points="1478.66,-215.84 1472.41,-224.4 1482.63,-221.61 1478.66,-215.84"/>
</g>
<!-- Node76 -->
<g id="node28" class="node">
<title>Node76</title>
<g id="a_node28"><a xlink:href="_lidar_sampler_8_h.html" target="_top" xlink:title=" ">
<polygon fill="white" stroke="red" points="1412.5,-168.5 1412.5,-187.5 1503.5,-187.5 1503.5,-168.5 1412.5,-168.5"/>
<text text-anchor="middle" x="1458" y="-175.5" font-family="Helvetica,sans-Serif" font-size="10.00">LidarSampler.H</text>
</a>
</g>
</g>
<!-- Node4&#45;&gt;Node76 -->
<g id="edge44" class="edge">
<title>Node4&#45;&gt;Node76</title>
<path fill="none" stroke="midnightblue" d="M1458,-213.8C1458,-204.91 1458,-194.78 1458,-187.75"/>
<polygon fill="midnightblue" stroke="midnightblue" points="1454.5,-214.08 1458,-224.08 1461.5,-214.08 1454.5,-214.08"/>
</g>
<!-- Node78 -->
<g id="node29" class="node">
<title>Node78</title>
<g id="a_node29"><a xlink:href="_radar_sampler_8_h.html" target="_top" xlink:title=" ">
<polygon fill="white" stroke="red" points="1624.5,-112.5 1624.5,-131.5 1719.5,-131.5 1719.5,-112.5 1624.5,-112.5"/>
<text text-anchor="middle" x="1672" y="-119.5" font-family="Helvetica,sans-Serif" font-size="10.00">RadarSampler.H</text>
</a>
</g>
</g>
<!-- Node4&#45;&gt;Node78 -->
<g id="edge46" class="edge">
<title>Node4&#45;&gt;Node78</title>
<path fill="none" stroke="midnightblue" d="M1514.54,-228.07C1568.78,-222.09 1645.26,-209.97 1665,-188 1678.96,-172.47 1676.47,-145.68 1673.96,-131.85"/>
<polygon fill="midnightblue" stroke="midnightblue" points="1513.93,-224.61 1504.36,-229.15 1514.67,-231.57 1513.93,-224.61"/>
</g>
<!-- Node80 -->
<g id="node30" class="node">
<title>Node80</title>
<g id="a_node30"><a xlink:href="_sampling_utils_8_h.html" target="_top" xlink:title=" ">
<polygon fill="white" stroke="red" points="1560.5,-168.5 1560.5,-187.5 1655.5,-187.5 1655.5,-168.5 1560.5,-168.5"/>
<text text-anchor="middle" x="1608" y="-175.5" font-family="Helvetica,sans-Serif" font-size="10.00">SamplingUtils.H</text>
</a>
</g>
</g>
<!-- Node4&#45;&gt;Node80 -->
<g id="edge47" class="edge">
<title>Node4&#45;&gt;Node80</title>
<path fill="none" stroke="midnightblue" d="M1491.22,-221.04C1519.45,-210.88 1559.26,-196.55 1584.34,-187.52"/>
<polygon fill="midnightblue" stroke="midnightblue" points="1489.99,-217.76 1481.77,-224.44 1492.36,-224.35 1489.99,-217.76"/>
</g>
<!-- Node82 -->
<g id="node31" class="node">
<title>Node82</title>
<g id="a_node31"><a xlink:href="_box_refiner_8_h.html" target="_top" xlink:title=" ">
<polygon fill="white" stroke="red" points="1712,-168.5 1712,-187.5 1792,-187.5 1792,-168.5 1712,-168.5"/>
<text text-anchor="middle" x="1752" y="-175.5" font-family="Helvetica,sans-Serif" font-size="10.00">BoxRefiner.H</text>
</a>
</g>
</g>
<!-- Node4&#45;&gt;Node82 -->
<g id="edge50" class="edge">
<title>Node4&#45;&gt;Node82</title>
<path fill="none" stroke="midnightblue" d="M1514.32,-222.66C1572.1,-212.04 1660.55,-195.8 1711.68,-186.41"/>
<polygon fill="midnightblue" stroke="midnightblue" points="1513.46,-219.25 1504.26,-224.5 1514.73,-226.14 1513.46,-219.25"/>
</g>
<!-- Node84 -->
<g id="node32" class="node">
<title>Node84</title>
<g id="a_node32"><a xlink:href="_cylinder_refiner_8_h.html" target="_top" xlink:title=" ">
<polygon fill="white" stroke="red" points="1810.5,-168.5 1810.5,-187.5 1911.5,-187.5 1911.5,-168.5 1810.5,-168.5"/>
<text text-anchor="middle" x="1861" y="-175.5" font-family="Helvetica,sans-Serif" font-size="10.00">CylinderRefiner.H</text>
</a>
</g>
</g>
<!-- Node4&#45;&gt;Node84 -->
<g id="edge51" class="edge">
<title>Node4&#45;&gt;Node84</title>
<path fill="none" stroke="midnightblue" d="M1514.15,-225.96C1582.11,-217.36 1700.02,-202.2 1801,-188 1804.02,-187.57 1807.13,-187.13 1810.27,-186.68"/>
<polygon fill="midnightblue" stroke="midnightblue" points="1513.57,-222.5 1504.08,-227.23 1514.44,-229.45 1513.57,-222.5"/>
</g>
<!-- Node86 -->
<g id="node33" class="node">
<title>Node86</title>
<g id="a_node33"><a xlink:href="_a_b_l_modulated_power_law_8_h.html" target="_top" xlink:title=" ">
<polygon fill="white" stroke="red" points="1930,-168.5 1930,-187.5 2076,-187.5 2076,-168.5 1930,-168.5"/>
<text text-anchor="middle" x="2003" y="-175.5" font-family="Helvetica,sans-Serif" font-size="10.00">ABLModulatedPowerLaw.H</text>
</a>
</g>
</g>
<!-- Node4&#45;&gt;Node86 -->
<g id="edge52" class="edge">
<title>Node4&#45;&gt;Node86</title>
<path fill="none" stroke="midnightblue" d="M1514.22,-227.76C1601.37,-219.59 1774.33,-203.18 1921,-188 1923.85,-187.71 1926.75,-187.4 1929.69,-187.09"/>
<polygon fill="midnightblue" stroke="midnightblue" points="1513.65,-224.3 1504.02,-228.72 1514.3,-231.27 1513.65,-224.3"/>
</g>
<!-- Node107 -->
<g id="node34" class="node">
<title>Node107</title>
<g id="a_node34"><a xlink:href="actuator__types_8_h.html" target="_top" xlink:title=" ">
<polygon fill="white" stroke="red" points="959,-112.5 959,-131.5 1059,-131.5 1059,-112.5 959,-112.5"/>
<text text-anchor="middle" x="1009" y="-119.5" font-family="Helvetica,sans-Serif" font-size="10.00">actuator_types.H</text>
</a>
</g>
</g>
<!-- Node4&#45;&gt;Node107 -->
<g id="edge53" class="edge">
<title>Node4&#45;&gt;Node107</title>
<path fill="none" stroke="midnightblue" d="M1401.83,-230.99C1309.35,-226.94 1129.6,-215.67 1073,-188 1046.25,-174.92 1024.27,-146 1014.49,-131.55"/>
<polygon fill="midnightblue" stroke="midnightblue" points="1401.71,-234.49 1411.85,-231.42 1402.01,-227.5 1401.71,-234.49"/>
</g>
<!-- Node121 -->
<g id="node35" class="node">
<title>Node121</title>
<g id="a_node35"><a xlink:href="_actuator_wing_8_h.html" target="_top" xlink:title=" ">
<polygon fill="white" stroke="red" points="1003.5,-56.5 1003.5,-75.5 1096.5,-75.5 1096.5,-56.5 1003.5,-56.5"/>
<text text-anchor="middle" x="1050" y="-63.5" font-family="Helvetica,sans-Serif" font-size="10.00">ActuatorWing.H</text>
</a>
</g>
</g>
<!-- Node4&#45;&gt;Node121 -->
<g id="edge62" class="edge">
<title>Node4&#45;&gt;Node121</title>
<path fill="none" stroke="midnightblue" d="M1401.61,-231.98C1315.53,-229.4 1156.55,-220.27 1111,-188 1100.83,-180.79 1065.67,-102.54 1053.88,-75.86"/>
<polygon fill="midnightblue" stroke="midnightblue" points="1401.64,-235.48 1411.73,-232.26 1401.83,-228.49 1401.64,-235.48"/>
</g>
<!-- Node122 -->
<g id="node36" class="node">
<title>Node122</title>
<g id="a_node36"><a xlink:href="actuator__utils_8_h.html" target="_top" xlink:title=" ">
<polygon fill="white" stroke="red" points="2094,-168.5 2094,-187.5 2188,-187.5 2188,-168.5 2094,-168.5"/>
<text text-anchor="middle" x="2141" y="-175.5" font-family="Helvetica,sans-Serif" font-size="10.00">actuator_utils.H</text>
</a>
</g>
</g>
<!-- Node4&#45;&gt;Node122 -->
<g id="edge57" class="edge">
<title>Node4&#45;&gt;Node122</title>
<path fill="none" stroke="midnightblue" d="M1514.35,-230.62C1624.33,-225.59 1875.22,-212.34 2085,-188 2087.93,-187.66 2090.95,-187.28 2093.99,-186.86"/>
<polygon fill="midnightblue" stroke="midnightblue" points="1513.98,-227.13 1504.15,-231.08 1514.3,-234.12 1513.98,-227.13"/>
</g>
<!-- Node124 -->
<g id="node37" class="node">
<title>Node124</title>
<g id="a_node37"><a xlink:href="_actuator_container_8_h.html" target="_top" xlink:title=" ">
<polygon fill="white" stroke="red" points="2206.5,-168.5 2206.5,-187.5 2321.5,-187.5 2321.5,-168.5 2206.5,-168.5"/>
<text text-anchor="middle" x="2264" y="-175.5" font-family="Helvetica,sans-Serif" font-size="10.00">ActuatorContainer.H</text>
</a>
</g>
</g>
<!-- Node4&#45;&gt;Node124 -->
<g id="edge58" class="edge">
<title>Node4&#45;&gt;Node124</title>
<path fill="none" stroke="midnightblue" d="M1514.36,-230.97C1638.11,-226.2 1942.85,-212.77 2197,-188 2200.04,-187.7 2203.15,-187.38 2206.29,-187.02"/>
<polygon fill="midnightblue" stroke="midnightblue" points="1514.21,-227.47 1504.35,-231.35 1514.48,-234.47 1514.21,-227.47"/>
</g>
<!-- Node115 -->
<g id="node38" class="node">
<title>Node115</title>
<g id="a_node38"><a xlink:href="_actuator_disk_8_h.html" target="_top" xlink:title=" ">
<polygon fill="white" stroke="red" points="2340,-168.5 2340,-187.5 2430,-187.5 2430,-168.5 2340,-168.5"/>
<text text-anchor="middle" x="2385" y="-175.5" font-family="Helvetica,sans-Serif" font-size="10.00">ActuatorDisk.H</text>
</a>
</g>
</g>
<!-- Node4&#45;&gt;Node115 -->
<g id="edge59" class="edge">
<title>Node4&#45;&gt;Node115</title>
<path fill="none" stroke="midnightblue" d="M1514.45,-232.31C1653.6,-230.13 2024.05,-221.38 2331,-188 2333.93,-187.68 2336.94,-187.31 2339.97,-186.9"/>
<polygon fill="midnightblue" stroke="midnightblue" points="1514,-228.82 1504.05,-232.47 1514.11,-235.82 1514,-228.82"/>
</g>
<!-- Node116 -->
<g id="node39" class="node">
<title>Node116</title>
<g id="a_node39"><a xlink:href="_joukowsky_8_h.html" target="_top" xlink:title=" ">
<polygon fill="white" stroke="red" points="2382.5,-112.5 2382.5,-131.5 2459.5,-131.5 2459.5,-112.5 2382.5,-112.5"/>
<text text-anchor="middle" x="2421" y="-119.5" font-family="Helvetica,sans-Serif" font-size="10.00">Joukowsky.H</text>
</a>
</g>
</g>
<!-- Node4&#45;&gt;Node116 -->
<g id="edge61" class="edge">
<title>Node4&#45;&gt;Node116</title>
<path fill="none" stroke="midnightblue" d="M1514.42,-232.54C1718.34,-230.6 2406.92,-221.59 2439,-188 2453.88,-172.42 2438.07,-145.66 2428,-131.84"/>
<polygon fill="midnightblue" stroke="midnightblue" points="1514.19,-229.04 1504.23,-232.63 1514.26,-236.04 1514.19,-229.04"/>
</g>
<!-- Node6 -->
<g id="node6" class="node">
<title>Node6</title>
<g id="a_node6"><a xlink:href="bluff__body__ops_8cpp.html" target="_top" xlink:title=" ">
<polygon fill="white" stroke="black" points="250,-0.5 250,-19.5 360,-19.5 360,-0.5 250,-0.5"/>
<text text-anchor="middle" x="305" y="-7.5" font-family="Helvetica,sans-Serif" font-size="10.00">bluff_body_ops.cpp</text>
</a>
</g>
</g>
<!-- Node5&#45;&gt;Node6 -->
<g id="edge6" class="edge">
<title>Node5&#45;&gt;Node6</title>
<path fill="none" stroke="midnightblue" d="M513.61,-107.65C497.48,-98.78 475.91,-86.81 457,-76 441.78,-67.3 438.8,-63.59 423,-56 392.37,-41.28 355.57,-27.89 331.31,-19.61"/>
<polygon fill="midnightblue" stroke="midnightblue" points="511.96,-110.74 522.41,-112.49 515.33,-104.6 511.96,-110.74"/>
</g>
<!-- Node7 -->
<g id="node7" class="node">
<title>Node7</title>
<g id="a_node7"><a xlink:href="bluff__body__ops_8_h.html" target="_top" xlink:title=" ">
<polygon fill="white" stroke="red" points="228.5,-56.5 228.5,-75.5 329.5,-75.5 329.5,-56.5 228.5,-56.5"/>
<text text-anchor="middle" x="279" y="-63.5" font-family="Helvetica,sans-Serif" font-size="10.00">bluff_body_ops.H</text>
</a>
</g>
</g>
<!-- Node5&#45;&gt;Node7 -->
<g id="edge7" class="edge">
<title>Node5&#45;&gt;Node7</title>
<path fill="none" stroke="midnightblue" d="M487.19,-110.41C438.28,-100.21 365.24,-84.98 319.94,-75.54"/>
<polygon fill="midnightblue" stroke="midnightblue" points="486.74,-113.89 497.25,-112.5 488.17,-107.04 486.74,-113.89"/>
</g>
<!-- Node14 -->
<g id="node8" class="node">
<title>Node14</title>
<g id="a_node8"><a xlink:href="_i_b_8cpp.html" target="_top" xlink:title=" ">
<polygon fill="white" stroke="black" points="380.5,-0.5 380.5,-19.5 427.5,-19.5 427.5,-0.5 380.5,-0.5"/>
<text text-anchor="middle" x="404" y="-7.5" font-family="Helvetica,sans-Serif" font-size="10.00">IB.cpp</text>
</a>
</g>
</g>
<!-- Node5&#45;&gt;Node14 -->
<g id="edge9" class="edge">
<title>Node5&#45;&gt;Node14</title>
<path fill="none" stroke="midnightblue" d="M519.5,-105.82C490.96,-82.39 437.12,-38.19 414.47,-19.59"/>
<polygon fill="midnightblue" stroke="midnightblue" points="517.54,-108.73 527.49,-112.37 521.98,-103.32 517.54,-108.73"/>
</g>
<!-- Node15 -->
<g id="node9" class="node">
<title>Node15</title>
<g id="a_node9"><a xlink:href="_i_b_model_8_h.html" target="_top" xlink:title=" ">
<polygon fill="white" stroke="red" points="347.5,-56.5 347.5,-75.5 414.5,-75.5 414.5,-56.5 347.5,-56.5"/>
<text text-anchor="middle" x="381" y="-63.5" font-family="Helvetica,sans-Serif" font-size="10.00">IBModel.H</text>
</a>
</g>
</g>
<!-- Node5&#45;&gt;Node15 -->
<g id="edge10" class="edge">
<title>Node5&#45;&gt;Node15</title>
<path fill="none" stroke="midnightblue" d="M503.61,-109.17C474.05,-99 432.13,-84.59 405.76,-75.52"/>
<polygon fill="midnightblue" stroke="midnightblue" points="502.53,-112.5 513.12,-112.44 504.8,-105.88 502.53,-112.5"/>
</g>
<!-- Node16 -->
<g id="node10" class="node">
<title>Node16</title>
<g id="a_node10"><a xlink:href="_ocean_waves_8cpp.html" target="_top" xlink:title=" ">
<polygon fill="white" stroke="black" points="516,-0.5 516,-19.5 616,-19.5 616,-0.5 516,-0.5"/>
<text text-anchor="middle" x="566" y="-7.5" font-family="Helvetica,sans-Serif" font-size="10.00">OceanWaves.cpp</text>
</a>
</g>
</g>
<!-- Node5&#45;&gt;Node16 -->
<g id="edge12" class="edge">
<title>Node5&#45;&gt;Node16</title>
<path fill="none" stroke="midnightblue" d="M537.5,-102.23C537.62,-89.06 538.73,-71.17 543,-56 546.81,-42.49 554.84,-28.29 560.33,-19.54"/>
<polygon fill="midnightblue" stroke="midnightblue" points="534.01,-102.43 537.6,-112.4 541.01,-102.37 534.01,-102.43"/>
</g>
<!-- Node17 -->
<g id="node11" class="node">
<title>Node17</title>
<g id="a_node11"><a xlink:href="_ocean_waves_model_8_h.html" target="_top" xlink:title=" ">
<polygon fill="white" stroke="red" points="675,-56.5 675,-75.5 795,-75.5 795,-56.5 675,-56.5"/>
<text text-anchor="middle" x="735" y="-63.5" font-family="Helvetica,sans-Serif" font-size="10.00">OceanWavesModel.H</text>
</a>
</g>
</g>
<!-- Node5&#45;&gt;Node17 -->
<g id="edge13" class="edge">
<title>Node5&#45;&gt;Node17</title>
<path fill="none" stroke="midnightblue" d="M579.23,-109.7C616.41,-99.51 670.27,-84.74 703.93,-75.52"/>
<polygon fill="midnightblue" stroke="midnightblue" points="577.93,-106.42 569.22,-112.44 579.78,-113.18 577.93,-106.42"/>
</g>
<!-- Node21 -->
<g id="node12" class="node">
<title>Node21</title>
<g id="a_node12"><a xlink:href="relaxation__zones__ops_8cpp.html" target="_top" xlink:title=" ">
<polygon fill="white" stroke="black" points="719.5,-0.5 719.5,-19.5 862.5,-19.5 862.5,-0.5 719.5,-0.5"/>
<text text-anchor="middle" x="791" y="-7.5" font-family="Helvetica,sans-Serif" font-size="10.00">relaxation_zones_ops.cpp</text>
</a>
</g>
</g>
<!-- Node5&#45;&gt;Node21 -->
<g id="edge15" class="edge">
<title>Node5&#45;&gt;Node21</title>
<path fill="none" stroke="midnightblue" d="M544,-102.59C549.82,-87.71 560.12,-67.43 576,-56 598.86,-39.54 666.95,-27.09 720.45,-19.5"/>
<polygon fill="midnightblue" stroke="midnightblue" points="540.62,-101.67 540.54,-112.26 547.21,-104.03 540.62,-101.67"/>
</g>
<!-- Node22 -->
<g id="node13" class="node">
<title>Node22</title>
<g id="a_node13"><a xlink:href="relaxation__zones__ops_8_h.html" target="_top" xlink:title=" ">
<polygon fill="white" stroke="red" points="813.5,-56.5 813.5,-75.5 946.5,-75.5 946.5,-56.5 813.5,-56.5"/>
<text text-anchor="middle" x="880" y="-63.5" font-family="Helvetica,sans-Serif" font-size="10.00">relaxation_zones_ops.H</text>
</a>
</g>
</g>
<!-- Node5&#45;&gt;Node22 -->
<g id="edge16" class="edge">
<title>Node5&#45;&gt;Node22</title>
<path fill="none" stroke="midnightblue" d="M588.76,-112.98C652.37,-102.94 760.9,-85.81 825.99,-75.53"/>
<polygon fill="midnightblue" stroke="midnightblue" points="587.91,-109.58 578.57,-114.59 589,-116.49 587.91,-109.58"/>
</g>
<!-- Node26 -->
<g id="node14" class="node">
<title>Node26</title>
<g id="a_node14"><a xlink:href="_act_parser_8_h.html" target="_top" xlink:title=" ">
<polygon fill="white" stroke="red" points="585,-56.5 585,-75.5 657,-75.5 657,-56.5 585,-56.5"/>
<text text-anchor="middle" x="621" y="-63.5" font-family="Helvetica,sans-Serif" font-size="10.00">ActParser.H</text>
</a>
</g>
</g>
<!-- Node5&#45;&gt;Node26 -->
<g id="edge18" class="edge">
<title>Node5&#45;&gt;Node26</title>
<path fill="none" stroke="midnightblue" d="M560.1,-106.62C575.26,-96.76 594.88,-83.99 607.7,-75.65"/>
<polygon fill="midnightblue" stroke="midnightblue" points="557.81,-103.94 551.34,-112.32 561.63,-109.8 557.81,-103.94"/>
</g>
<!-- Node7&#45;&gt;Node6 -->
<g id="edge8" class="edge">
<title>Node7&#45;&gt;Node6</title>
<path fill="none" stroke="midnightblue" d="M287.67,-46.98C292.09,-37.82 297.25,-27.09 300.79,-19.75"/>
<polygon fill="midnightblue" stroke="midnightblue" points="284.48,-45.55 283.29,-56.08 290.79,-48.59 284.48,-45.55"/>
</g>
<!-- Node15&#45;&gt;Node14 -->
<g id="edge11" class="edge">
<title>Node15&#45;&gt;Node14</title>
<path fill="none" stroke="midnightblue" d="M388.8,-46.69C392.68,-37.59 397.18,-27.01 400.27,-19.75"/>
<polygon fill="midnightblue" stroke="midnightblue" points="385.5,-45.51 384.8,-56.08 391.94,-48.25 385.5,-45.51"/>
</g>
<!-- Node17&#45;&gt;Node16 -->
<g id="edge14" class="edge">
<title>Node17&#45;&gt;Node16</title>
<path fill="none" stroke="midnightblue" d="M698.4,-53.3C666.55,-43.13 621.16,-28.62 592.65,-19.52"/>
<polygon fill="midnightblue" stroke="midnightblue" points="697.63,-56.73 708.22,-56.44 699.76,-50.07 697.63,-56.73"/>
</g>
<!-- Node22&#45;&gt;Node21 -->
<g id="edge17" class="edge">
<title>Node22&#45;&gt;Node21</title>
<path fill="none" stroke="midnightblue" d="M856.76,-50.9C840.44,-41 819.13,-28.07 805.26,-19.65"/>
<polygon fill="midnightblue" stroke="midnightblue" points="855.34,-54.13 865.7,-56.32 858.97,-48.14 855.34,-54.13"/>
</g>
<!-- Node26&#45;&gt;Node49 -->
<g id="edge19" class="edge">
<title>Node26&#45;&gt;Node49</title>
<path fill="none" stroke="midnightblue" d="M667.26,-55.89C785.48,-36.66 913.67,-21.74 975.26,-14.95"/>
<polygon fill="midnightblue" stroke="midnightblue" points="666.61,-52.44 657.31,-57.52 667.75,-59.35 666.61,-52.44"/>
</g>
<!-- Node56&#45;&gt;Node7 -->
<g id="edge21" class="edge">
<title>Node56&#45;&gt;Node7</title>
<path fill="none" stroke="midnightblue" d="M218.83,-106.62C233.81,-96.76 253.2,-83.99 265.86,-75.65"/>
<polygon fill="midnightblue" stroke="midnightblue" points="216.6,-103.9 210.17,-112.32 220.45,-109.75 216.6,-103.9"/>
</g>
<!-- Node57 -->
<g id="node17" class="node">
<title>Node57</title>
<g id="a_node17"><a xlink:href="_box_8_h.html" target="_top" xlink:title=" ">
<polygon fill="white" stroke="red" points="0,-56.5 0,-75.5 46,-75.5 46,-56.5 0,-56.5"/>
<text text-anchor="middle" x="23" y="-63.5" font-family="Helvetica,sans-Serif" font-size="10.00">Box.H</text>
</a>
</g>
</g>
<!-- Node56&#45;&gt;Node57 -->
<g id="edge22" class="edge">
<title>Node56&#45;&gt;Node57</title>
<path fill="none" stroke="midnightblue" d="M159.73,-109.43C125.33,-98.76 75.3,-83.23 46.27,-74.22"/>
<polygon fill="midnightblue" stroke="midnightblue" points="158.84,-112.82 169.43,-112.44 160.92,-106.14 158.84,-112.82"/>
</g>
<!-- Node58 -->
<g id="node18" class="node">
<title>Node58</title>
<g id="a_node18"><a xlink:href="_cylinder_8_h.html" target="_top" xlink:title=" ">
<polygon fill="white" stroke="red" points="64.5,-56.5 64.5,-75.5 131.5,-75.5 131.5,-56.5 64.5,-56.5"/>
<text text-anchor="middle" x="98" y="-63.5" font-family="Helvetica,sans-Serif" font-size="10.00">Cylinder.H</text>
</a>
</g>
</g>
<!-- Node56&#45;&gt;Node58 -->
<g id="edge23" class="edge">
<title>Node56&#45;&gt;Node58</title>
<path fill="none" stroke="midnightblue" d="M172.16,-107.45C153.89,-97.48 129.58,-84.23 113.87,-75.65"/>
<polygon fill="midnightblue" stroke="midnightblue" points="170.64,-110.61 181.09,-112.32 173.99,-104.46 170.64,-110.61"/>
</g>
<!-- Node59 -->
<g id="node19" class="node">
<title>Node59</title>
<g id="a_node19"><a xlink:href="_sphere_8_h.html" target="_top" xlink:title=" ">
<polygon fill="white" stroke="red" points="149.5,-56.5 149.5,-75.5 210.5,-75.5 210.5,-56.5 149.5,-56.5"/>
<text text-anchor="middle" x="180" y="-63.5" font-family="Helvetica,sans-Serif" font-size="10.00">Sphere.H</text>
</a>
</g>
</g>
<!-- Node56&#45;&gt;Node59 -->
<g id="edge24" class="edge">
<title>Node56&#45;&gt;Node59</title>
<path fill="none" stroke="midnightblue" d="M191.14,-102.4C188.3,-93.36 185.02,-82.94 182.75,-75.75"/>
<polygon fill="midnightblue" stroke="midnightblue" points="187.85,-103.6 194.19,-112.08 194.53,-101.49 187.85,-103.6"/>
</g>
<!-- Node60&#45;&gt;Node7 -->
<g id="edge26" class="edge">
<title>Node60&#45;&gt;Node7</title>
<path fill="none" stroke="midnightblue" d="M313.67,-161.03C306.32,-152.97 298.15,-142.65 293,-132 283.96,-113.29 280.71,-88.76 279.58,-75.84"/>
<polygon fill="midnightblue" stroke="midnightblue" points="311.17,-163.47 320.62,-168.27 316.22,-158.63 311.17,-163.47"/>
</g>
<!-- Node60&#45;&gt;Node15 -->
<g id="edge28" class="edge">
<title>Node60&#45;&gt;Node15</title>
<path fill="none" stroke="midnightblue" d="M346.33,-161.03C353.68,-152.97 361.85,-142.65 367,-132 376.04,-113.29 379.29,-88.76 380.42,-75.84"/>
<polygon fill="midnightblue" stroke="midnightblue" points="343.78,-158.63 339.38,-168.27 348.83,-163.47 343.78,-158.63"/>
</g>
<!-- Node60&#45;&gt;Node56 -->
<g id="edge27" class="edge">
<title>Node60&#45;&gt;Node56</title>
<path fill="none" stroke="midnightblue" d="M299.55,-164.64C274.59,-154.5 239.92,-140.43 217.98,-131.52"/>
<polygon fill="midnightblue" stroke="midnightblue" points="298.34,-167.92 308.93,-168.44 300.98,-161.44 298.34,-167.92"/>
</g>
<!-- Node61 -->
<g id="node21" class="node">
<title>Node61</title>
<g id="a_node21"><a xlink:href="_i_b_ops_8_h.html" target="_top" xlink:title=" ">
<polygon fill="white" stroke="red" points="302,-112.5 302,-131.5 358,-131.5 358,-112.5 302,-112.5"/>
<text text-anchor="middle" x="330" y="-119.5" font-family="Helvetica,sans-Serif" font-size="10.00">IBOps.H</text>
</a>
</g>
</g>
<!-- Node60&#45;&gt;Node61 -->
<g id="edge29" class="edge">
<title>Node60&#45;&gt;Node61</title>
<path fill="none" stroke="midnightblue" d="M330,-157.8C330,-148.91 330,-138.78 330,-131.75"/>
<polygon fill="midnightblue" stroke="midnightblue" points="326.5,-158.08 330,-168.08 333.5,-158.08 326.5,-158.08"/>
</g>
<!-- Node61&#45;&gt;Node7 -->
<g id="edge30" class="edge">
<title>Node61&#45;&gt;Node7</title>
<path fill="none" stroke="midnightblue" d="M314.62,-104.72C305.63,-95.2 294.64,-83.56 287.26,-75.75"/>
<polygon fill="midnightblue" stroke="midnightblue" points="312.17,-107.22 321.58,-112.08 317.26,-102.41 312.17,-107.22"/>
</g>
<!-- Node61&#45;&gt;Node15 -->
<g id="edge31" class="edge">
<title>Node61&#45;&gt;Node15</title>
<path fill="none" stroke="midnightblue" d="M345.38,-104.72C354.37,-95.2 365.36,-83.56 372.74,-75.75"/>
<polygon fill="midnightblue" stroke="midnightblue" points="342.74,-102.41 338.42,-112.08 347.83,-107.22 342.74,-102.41"/>
</g>
<!-- Node62&#45;&gt;Node17 -->
<g id="edge33" class="edge">
<title>Node62&#45;&gt;Node17</title>
<path fill="none" stroke="midnightblue" d="M733.89,-173.35C705.01,-167.98 674.03,-156.38 656,-132 637.89,-107.51 679.5,-86.66 708.94,-75.57"/>
<polygon fill="midnightblue" stroke="midnightblue" points="733.56,-176.84 743.99,-175 734.69,-169.93 733.56,-176.84"/>
</g>
<!-- Node62&#45;&gt;Node22 -->
<g id="edge37" class="edge">
<title>Node62&#45;&gt;Node22</title>
<path fill="none" stroke="midnightblue" d="M805.35,-158.08C807.77,-144.34 812.59,-125.82 822,-112 832.76,-96.2 850.82,-83.46 863.94,-75.63"/>
<polygon fill="midnightblue" stroke="midnightblue" points="801.84,-157.87 803.83,-168.28 808.76,-158.91 801.84,-157.87"/>
</g>
<!-- Node63 -->
<g id="node23" class="node">
<title>Node63</title>
<g id="a_node23"><a xlink:href="_ocean_waves_ops_8_h.html" target="_top" xlink:title=" ">
<polygon fill="white" stroke="red" points="665.5,-112.5 665.5,-131.5 774.5,-131.5 774.5,-112.5 665.5,-112.5"/>
<text text-anchor="middle" x="720" y="-119.5" font-family="Helvetica,sans-Serif" font-size="10.00">OceanWavesOps.H</text>
</a>
</g>
</g>
<!-- Node62&#45;&gt;Node63 -->
<g id="edge34" class="edge">
<title>Node62&#45;&gt;Node63</title>
<path fill="none" stroke="midnightblue" d="M780.9,-162.62C765.74,-152.76 746.12,-139.99 733.3,-131.65"/>
<polygon fill="midnightblue" stroke="midnightblue" points="779.37,-165.8 789.66,-168.32 783.19,-159.94 779.37,-165.8"/>
</g>
<!-- Node62&#45;&gt;Node64 -->
<g id="edge38" class="edge">
<title>Node62&#45;&gt;Node64</title>
<path fill="none" stroke="midnightblue" d="M825.1,-162.62C840.26,-152.76 859.88,-139.99 872.7,-131.65"/>
<polygon fill="midnightblue" stroke="midnightblue" points="822.81,-159.94 816.34,-168.32 826.63,-165.8 822.81,-159.94"/>
</g>
<!-- Node63&#45;&gt;Node17 -->
<g id="edge35" class="edge">
<title>Node63&#45;&gt;Node17</title>
<path fill="none" stroke="midnightblue" d="M725.17,-102.4C727.68,-93.36 730.57,-82.94 732.57,-75.75"/>
<polygon fill="midnightblue" stroke="midnightblue" points="721.78,-101.51 722.48,-112.08 728.53,-103.38 721.78,-101.51"/>
</g>
<!-- Node63&#45;&gt;Node22 -->
<g id="edge36" class="edge">
<title>Node63&#45;&gt;Node22</title>
<path fill="none" stroke="midnightblue" d="M755.05,-109.17C785.17,-99 827.9,-84.59 854.77,-75.52"/>
<polygon fill="midnightblue" stroke="midnightblue" points="753.71,-105.93 745.35,-112.44 755.95,-112.56 753.71,-105.93"/>
</g>
<!-- Node64&#45;&gt;Node22 -->
<g id="edge39" class="edge">
<title>Node64&#45;&gt;Node22</title>
<path fill="none" stroke="midnightblue" d="M883.9,-102.1C882.9,-93.14 881.76,-82.86 880.97,-75.75"/>
<polygon fill="midnightblue" stroke="midnightblue" points="880.43,-102.53 885.01,-112.08 887.38,-101.76 880.43,-102.53"/>
</g>
<!-- Node76&#45;&gt;Node74 -->
<g id="edge45" class="edge">
<title>Node76&#45;&gt;Node74</title>
<path fill="none" stroke="midnightblue" d="M1478.03,-162.38C1491.41,-152.62 1508.56,-140.11 1519.89,-131.83"/>
<polygon fill="midnightblue" stroke="midnightblue" points="1475.9,-159.6 1469.89,-168.32 1480.03,-165.26 1475.9,-159.6"/>
</g>
<!-- Node80&#45;&gt;Node74 -->
<g id="edge48" class="edge">
<title>Node80&#45;&gt;Node74</title>
<path fill="none" stroke="midnightblue" d="M1587.42,-162.38C1573.69,-152.62 1556.07,-140.11 1544.43,-131.83"/>
<polygon fill="midnightblue" stroke="midnightblue" points="1585.61,-165.38 1595.79,-168.32 1589.66,-159.68 1585.61,-165.38"/>
</g>
<!-- Node80&#45;&gt;Node78 -->
<g id="edge49" class="edge">
<title>Node80&#45;&gt;Node78</title>
<path fill="none" stroke="midnightblue" d="M1625.99,-161.82C1637.46,-152.15 1651.91,-139.95 1661.53,-131.83"/>
<polygon fill="midnightblue" stroke="midnightblue" points="1623.67,-159.2 1618.28,-168.32 1628.18,-164.55 1623.67,-159.2"/>
</g>
<!-- Node107&#45;&gt;Node49 -->
<g id="edge56" class="edge">
<title>Node107&#45;&gt;Node49</title>
<path fill="none" stroke="midnightblue" d="M1000.71,-102.99C995.74,-89.98 990.92,-71.97 994,-56 996.55,-42.78 1002.94,-28.51 1007.38,-19.66"/>
<polygon fill="midnightblue" stroke="midnightblue" points="997.49,-104.35 1004.59,-112.21 1003.94,-101.64 997.49,-104.35"/>
</g>
<!-- Node107&#45;&gt;Node121 -->
<g id="edge54" class="edge">
<title>Node107&#45;&gt;Node121</title>
<path fill="none" stroke="midnightblue" d="M1022.02,-103.86C1029.12,-94.5 1037.6,-83.33 1043.36,-75.75"/>
<polygon fill="midnightblue" stroke="midnightblue" points="1019.03,-102 1015.77,-112.08 1024.61,-106.24 1019.03,-102"/>
</g>
<!-- Node121&#45;&gt;Node49 -->
<g id="edge55" class="edge">
<title>Node121&#45;&gt;Node49</title>
<path fill="none" stroke="midnightblue" d="M1037.94,-47.86C1031.36,-38.5 1023.49,-27.33 1018.16,-19.75"/>
<polygon fill="midnightblue" stroke="midnightblue" points="1035.11,-49.92 1043.73,-56.08 1040.83,-45.89 1035.11,-49.92"/>
</g>
<!-- Node115&#45;&gt;Node116 -->
<g id="edge60" class="edge">
<title>Node115&#45;&gt;Node116</title>
<path fill="none" stroke="midnightblue" d="M2396.62,-159.57C2402.82,-150.27 2410.17,-139.25 2415.17,-131.75"/>
<polygon fill="midnightblue" stroke="midnightblue" points="2393.58,-157.82 2390.94,-168.08 2399.4,-161.7 2393.58,-157.82"/>
</g>
<!-- Node125&#45;&gt;Node2 -->
<g id="edge65" class="edge">
<title>Node125&#45;&gt;Node2</title>
<path fill="none" stroke="midnightblue" d="M1525.23,-342.68C1448.94,-337.74 1274.13,-324.59 1129,-300 1125.93,-299.48 1122.73,-298.85 1119.55,-298.18"/>
<polygon fill="midnightblue" stroke="midnightblue" points="1525.12,-346.18 1535.33,-343.32 1525.57,-339.19 1525.12,-346.18"/>
</g>
<!-- Node125&#45;&gt;Node4 -->
<g id="edge66" class="edge">
<title>Node125&#45;&gt;Node4</title>
<path fill="none" stroke="midnightblue" d="M1602.65,-335.77C1644.22,-325.46 1705.32,-309.02 1712,-300 1717.29,-292.86 1717.71,-286.81 1712,-280 1686,-248.98 1570.09,-239.33 1504.2,-236.34"/>
<polygon fill="midnightblue" stroke="midnightblue" points="1601.68,-332.4 1592.8,-338.19 1603.35,-339.2 1601.68,-332.4"/>
</g>
<!-- Node126 -->
<g id="node41" class="node">
<title>Node126</title>
<g id="a_node41"><a xlink:href="vector_i_8_h.html" target="_top" xlink:title=" ">
<polygon fill="white" stroke="black" points="1759.5,-280.5 1759.5,-299.5 1820.5,-299.5 1820.5,-280.5 1759.5,-280.5"/>
<text text-anchor="middle" x="1790" y="-287.5" font-family="Helvetica,sans-Serif" font-size="10.00">vectorI.H</text>
</a>
</g>
</g>
<!-- Node125&#45;&gt;Node126 -->
<g id="edge67" class="edge">
<title>Node125&#45;&gt;Node126</title>
<path fill="none" stroke="midnightblue" d="M1602.68,-334.45C1646.98,-323.39 1718.44,-306.4 1759.18,-297.28"/>
<polygon fill="midnightblue" stroke="midnightblue" points="1601.7,-331.09 1592.85,-336.92 1603.4,-337.87 1601.7,-331.09"/>
</g>
<!-- Node127 -->
<g id="node42" class="node">
<title>Node127</title>
<g id="a_node42"><a xlink:href="_burggraf_lid_8cpp.html" target="_top" xlink:title=" ">
<polygon fill="white" stroke="black" points="1838.5,-280.5 1838.5,-299.5 1931.5,-299.5 1931.5,-280.5 1838.5,-280.5"/>
<text text-anchor="middle" x="1885" y="-287.5" font-family="Helvetica,sans-Serif" font-size="10.00">BurggrafLid.cpp</text>
</a>
</g>
</g>
<!-- Node125&#45;&gt;Node127 -->
<g id="edge69" class="edge">
<title>Node125&#45;&gt;Node127</title>
<path fill="none" stroke="midnightblue" d="M1602.66,-336C1704.35,-316.16 1731.88,-315.77 1830,-300 1832.77,-299.55 1835.62,-299.09 1838.49,-298.63"/>
<polygon fill="midnightblue" stroke="midnightblue" points="1601.72,-332.62 1592.58,-337.98 1603.07,-339.49 1601.72,-332.62"/>
</g>
<!-- Node128 -->
<g id="node43" class="node">
<title>Node128</title>
<g id="a_node43"><a xlink:href="_custom_scalar_8cpp.html" target="_top" xlink:title=" ">
<polygon fill="white" stroke="black" points="1138,-280.5 1138,-299.5 1242,-299.5 1242,-280.5 1138,-280.5"/>
<text text-anchor="middle" x="1190" y="-287.5" font-family="Helvetica,sans-Serif" font-size="10.00">CustomScalar.cpp</text>
</a>
</g>
</g>
<!-- Node125&#45;&gt;Node128 -->
<g id="edge70" class="edge">
<title>Node125&#45;&gt;Node128</title>
<path fill="none" stroke="midnightblue" d="M1525.05,-339.45C1465.84,-331 1349.65,-314.37 1251,-300 1248.14,-299.58 1245.2,-299.15 1242.24,-298.72"/>
<polygon fill="midnightblue" stroke="midnightblue" points="1524.69,-342.93 1535.08,-340.88 1525.68,-336 1524.69,-342.93"/>
</g>
<!-- Node129 -->
<g id="node44" class="node">
<title>Node129</title>
<g id="a_node44"><a xlink:href="_custom_velocity_8cpp.html" target="_top" xlink:title=" ">
<polygon fill="white" stroke="black" points="1260,-280.5 1260,-299.5 1372,-299.5 1372,-280.5 1260,-280.5"/>
<text text-anchor="middle" x="1316" y="-287.5" font-family="Helvetica,sans-Serif" font-size="10.00">CustomVelocity.cpp</text>
</a>
</g>
</g>
<!-- Node125&#45;&gt;Node129 -->
<g id="edge71" class="edge">
<title>Node125&#45;&gt;Node129</title>
<path fill="none" stroke="midnightblue" d="M1525.11,-336.53C1478.79,-326.45 1401.86,-309.7 1355.34,-299.57"/>
<polygon fill="midnightblue" stroke="midnightblue" points="1524.55,-339.99 1535.07,-338.7 1526.04,-333.15 1524.55,-339.99"/>
</g>
<!-- Node130 -->
<g id="node45" class="node">
<title>Node130</title>
<g id="a_node45"><a xlink:href="_power_law_profile_8cpp.html" target="_top" xlink:title=" ">
<polygon fill="white" stroke="black" points="1390.5,-280.5 1390.5,-299.5 1507.5,-299.5 1507.5,-280.5 1390.5,-280.5"/>
<text text-anchor="middle" x="1449" y="-287.5" font-family="Helvetica,sans-Serif" font-size="10.00">PowerLawProfile.cpp</text>
</a>
</g>
</g>
<!-- Node125&#45;&gt;Node130 -->
<g id="edge72" class="edge">
<title>Node125&#45;&gt;Node130</title>
<path fill="none" stroke="midnightblue" d="M1536.52,-332.1C1515.03,-322.01 1485.78,-308.27 1467.14,-299.52"/>
<polygon fill="midnightblue" stroke="midnightblue" points="1535.24,-335.36 1545.78,-336.44 1538.21,-329.02 1535.24,-335.36"/>
</g>
<!-- Node131 -->
<g id="node46" class="node">
<title>Node131</title>
<g id="a_node46"><a xlink:href="_rankine_8cpp.html" target="_top" xlink:title=" ">
<polygon fill="white" stroke="black" points="1525.5,-280.5 1525.5,-299.5 1602.5,-299.5 1602.5,-280.5 1525.5,-280.5"/>
<text text-anchor="middle" x="1564" y="-287.5" font-family="Helvetica,sans-Serif" font-size="10.00">Rankine.cpp</text>
</a>
</g>
</g>
<!-- Node125&#45;&gt;Node131 -->
<g id="edge73" class="edge">
<title>Node125&#45;&gt;Node131</title>
<path fill="none" stroke="midnightblue" d="M1564,-325.8C1564,-316.91 1564,-306.78 1564,-299.75"/>
<polygon fill="midnightblue" stroke="midnightblue" points="1560.5,-326.08 1564,-336.08 1567.5,-326.08 1560.5,-326.08"/>
</g>
<!-- Node132 -->
<g id="node47" class="node">
<title>Node132</title>
<g id="a_node47"><a xlink:href="_two_layer_8cpp.html" target="_top" xlink:title=" ">
<polygon fill="white" stroke="black" points="1621,-280.5 1621,-299.5 1703,-299.5 1703,-280.5 1621,-280.5"/>
<text text-anchor="middle" x="1662" y="-287.5" font-family="Helvetica,sans-Serif" font-size="10.00">TwoLayer.cpp</text>
</a>
</g>
</g>
<!-- Node125&#45;&gt;Node132 -->
<g id="edge74" class="edge">
<title>Node125&#45;&gt;Node132</title>
<path fill="none" stroke="midnightblue" d="M1588.59,-331.45C1606.68,-321.48 1630.73,-308.23 1646.29,-299.65"/>
<polygon fill="midnightblue" stroke="midnightblue" points="1586.81,-328.43 1579.75,-336.32 1590.19,-334.56 1586.81,-328.43"/>
</g>
<!-- Node126&#45;&gt;Node125 -->
<g id="edge68" class="edge">
<title>Node126&#45;&gt;Node125</title>
<path fill="none" stroke="midnightblue" d="M1749.45,-302.02C1704.18,-313.29 1632.32,-330.37 1592.56,-339.22"/>
<polygon fill="midnightblue" stroke="midnightblue" points="1750.38,-305.39 1759.23,-299.57 1748.68,-298.6 1750.38,-305.39"/>
</g>
</g>
</svg>
