<?xml version="1.0" encoding="UTF-8" standalone="no"?>
<!DOCTYPE svg PUBLIC "-//W3C//DTD SVG 1.1//EN"
 "http://www.w3.org/Graphics/SVG/1.1/DTD/svg11.dtd">
<!-- Generated by graphviz version 2.43.0 (0)
 -->
<!-- Title: Graphical Class Hierarchy Pages: 1 -->
<svg width="375pt" height="1046pt"
 viewBox="0.00 0.00 375.00 1046.00" xmlns="http://www.w3.org/2000/svg" xmlns:xlink="http://www.w3.org/1999/xlink">
<g id="graph0" class="graph" transform="scale(1 1) rotate(0) translate(4 1042)">
<title>Graphical Class Hierarchy</title>
<!-- Node0 -->
<g id="Node000000" class="node">
<title>Node0</title>
<g id="a_Node000000"><a xlink:href="classamr__wind_1_1_a_b_l_mesoscale_forcing.html" target="_top" xlink:title=" ">
<polygon fill="white" stroke="#666666" points="176,-240.5 0,-240.5 0,-221.5 176,-221.5 176,-240.5"/>
<text text-anchor="middle" x="88" y="-228.5" font-family="Helvetica,sans-Serif" font-size="10.00">amr_wind::ABLMesoscaleForcing</text>
</a>
</g>
</g>
<!-- Node1 -->
<g id="Node000001" class="node">
<title>Node1</title>
<g id="a_Node000001"><a xlink:href="classamr__wind_1_1pde_1_1icns_1_1_a_b_l_meso_forcing_mom.html" target="_top" xlink:title=" ">
<polygon fill="white" stroke="#666666" points="353.5,-270 225.5,-270 225.5,-240 353.5,-240 353.5,-270"/>
<text text-anchor="start" x="233.5" y="-258" font-family="Helvetica,sans-Serif" font-size="10.00">amr_wind::pde::icns</text>
<text text-anchor="middle" x="289.5" y="-247" font-family="Helvetica,sans-Serif" font-size="10.00">::ABLMesoForcingMom</text>
</a>
</g>
</g>
<!-- Node0&#45;&gt;Node1 -->
<g id="edge3_Node000000_Node000001" class="edge">
<title>Node0&#45;&gt;Node1</title>
<g id="a_edge3_Node000000_Node000001"><a xlink:title=" ">
<path fill="none" stroke="#63b8ff" d="M178.48,-241.76C194.33,-243.67 210.53,-245.62 225.45,-247.42"/>
<polygon fill="#63b8ff" stroke="#63b8ff" points="178.48,-238.24 168.13,-240.52 177.64,-245.19 178.48,-238.24"/>
</a>
</g>
</g>
<!-- Node19 -->
<g id="Node000019" class="node">
<title>Node19</title>
<g id="a_Node000019"><a xlink:href="classamr__wind_1_1pde_1_1temperature_1_1_a_b_l_meso_forcing_temp.html" target="_top" xlink:title=" ">
<polygon fill="white" stroke="#666666" points="367,-222 212,-222 212,-192 367,-192 367,-222"/>
<text text-anchor="start" x="220" y="-210" font-family="Helvetica,sans-Serif" font-size="10.00">amr_wind::pde::temperature</text>
<text text-anchor="middle" x="289.5" y="-199" font-family="Helvetica,sans-Serif" font-size="10.00">::ABLMesoForcingTemp</text>
</a>
</g>
</g>
<!-- Node0&#45;&gt;Node19 -->
<g id="edge4_Node000000_Node000019" class="edge">
<title>Node0&#45;&gt;Node19</title>
<g id="a_edge4_Node000000_Node000019"><a xlink:title=" ">
<path fill="none" stroke="#63b8ff" d="M178.31,-220.26C189.47,-218.91 200.8,-217.55 211.74,-216.23"/>
<polygon fill="#63b8ff" stroke="#63b8ff" points="177.64,-216.81 168.13,-221.48 178.48,-223.76 177.64,-216.81"/>
</a>
</g>
</g>
<!-- Node2 -->
<g id="Node000002" class="node">
<title>Node2</title>
<g id="a_Node000002"><a xlink:title=" ">
<polygon fill="#e0e0e0" stroke="#999999" points="158.5,-659.5 17.5,-659.5 17.5,-618.5 158.5,-618.5 158.5,-659.5"/>
<text text-anchor="start" x="25.5" y="-647.5" font-family="Helvetica,sans-Serif" font-size="10.00">amr_wind::Factory&lt;</text>
<text text-anchor="start" x="25.5" y="-636.5" font-family="Helvetica,sans-Serif" font-size="10.00"> MomentumSource, const</text>
<text text-anchor="middle" x="88" y="-625.5" font-family="Helvetica,sans-Serif" font-size="10.00"> CFDSim &amp; &gt;::Register</text>
</a>
</g>
</g>
<!-- Node2&#45;&gt;Node1 -->
<g id="edge7_Node000002_Node000001" class="edge">
<title>Node2&#45;&gt;Node1</title>
<g id="a_edge7_Node000002_Node000001"><a xlink:title=" ">
<path fill="none" stroke="#63b8ff" d="M90.52,-607.9C95.59,-538.75 117.51,-371.13 212,-279 215.89,-275.21 220.36,-272.02 225.16,-269.33"/>
<polygon fill="#63b8ff" stroke="#63b8ff" points="87.01,-607.91 89.84,-618.12 94,-608.38 87.01,-607.91"/>
</a>
</g>
</g>
<!-- Node3 -->
<g id="Node000003" class="node">
<title>Node3</title>
<g id="a_Node000003"><a xlink:href="classamr__wind_1_1pde_1_1icns_1_1_a_b_l_forcing.html" target="_top" xlink:title=" ">
<polygon fill="white" stroke="#666666" points="346.5,-1038 232.5,-1038 232.5,-1008 346.5,-1008 346.5,-1038"/>
<text text-anchor="start" x="240.5" y="-1026" font-family="Helvetica,sans-Serif" font-size="10.00">amr_wind::pde::icns</text>
<text text-anchor="middle" x="289.5" y="-1015" font-family="Helvetica,sans-Serif" font-size="10.00">::ABLForcing</text>
</a>
</g>
</g>
<!-- Node2&#45;&gt;Node3 -->
<g id="edge5_Node000002_Node000003" class="edge">
<title>Node2&#45;&gt;Node3</title>
<g id="a_edge5_Node000002_Node000003"><a xlink:title=" ">
<path fill="none" stroke="#63b8ff" d="M90.52,-670.1C95.59,-739.25 117.51,-906.87 212,-999 217.78,-1004.64 224.87,-1008.95 232.37,-1012.25"/>
<polygon fill="#63b8ff" stroke="#63b8ff" points="94,-669.62 89.84,-659.88 87.01,-670.09 94,-669.62"/>
</a>
</g>
</g>
<!-- Node4 -->
<g id="Node000004" class="node">
<title>Node4</title>
<g id="a_Node000004"><a xlink:href="classamr__wind_1_1pde_1_1icns_1_1_a_b_l_mean_boussinesq.html" target="_top" xlink:title=" ">
<polygon fill="white" stroke="#666666" points="351.5,-990 227.5,-990 227.5,-960 351.5,-960 351.5,-990"/>
<text text-anchor="start" x="235.5" y="-978" font-family="Helvetica,sans-Serif" font-size="10.00">amr_wind::pde::icns</text>
<text text-anchor="middle" x="289.5" y="-967" font-family="Helvetica,sans-Serif" font-size="10.00">::ABLMeanBoussinesq</text>
</a>
</g>
</g>
<!-- Node2&#45;&gt;Node4 -->
<g id="edge6_Node000002_Node000004" class="edge">
<title>Node2&#45;&gt;Node4</title>
<g id="a_edge6_Node000002_Node000004"><a xlink:title=" ">
<path fill="none" stroke="#63b8ff" d="M92.38,-669.87C100.84,-732.13 128.61,-873.37 212,-951 216.48,-955.17 221.68,-958.62 227.23,-961.47"/>
<polygon fill="#63b8ff" stroke="#63b8ff" points="95.84,-669.36 91.1,-659.89 88.9,-670.25 95.84,-669.36"/>
</a>
</g>
</g>
<!-- Node5 -->
<g id="Node000005" class="node">
<title>Node5</title>
<g id="a_Node000005"><a xlink:href="classamr__wind_1_1pde_1_1icns_1_1_actuator_forcing.html" target="_top" xlink:title=" ">
<polygon fill="white" stroke="#666666" points="346.5,-942 232.5,-942 232.5,-912 346.5,-912 346.5,-942"/>
<text text-anchor="start" x="240.5" y="-930" font-family="Helvetica,sans-Serif" font-size="10.00">amr_wind::pde::icns</text>
<text text-anchor="middle" x="289.5" y="-919" font-family="Helvetica,sans-Serif" font-size="10.00">::ActuatorForcing</text>
</a>
</g>
</g>
<!-- Node2&#45;&gt;Node5 -->
<g id="edge8_Node000002_Node000005" class="edge">
<title>Node2&#45;&gt;Node5</title>
<g id="a_edge8_Node000002_Node000005"><a xlink:title=" ">
<path fill="none" stroke="#63b8ff" d="M94.77,-669.36C106.74,-724.08 139.47,-839.46 212,-903 217.86,-908.14 224.82,-912.17 232.12,-915.35"/>
<polygon fill="#63b8ff" stroke="#63b8ff" points="98.19,-668.63 92.71,-659.56 91.34,-670.07 98.19,-668.63"/>
</a>
</g>
</g>
<!-- Node6 -->
<g id="Node000006" class="node">
<title>Node6</title>
<g id="a_Node000006"><a xlink:href="classamr__wind_1_1pde_1_1icns_1_1_body_force.html" target="_top" xlink:title=" ">
<polygon fill="white" stroke="#666666" points="346.5,-894 232.5,-894 232.5,-864 346.5,-864 346.5,-894"/>
<text text-anchor="start" x="240.5" y="-882" font-family="Helvetica,sans-Serif" font-size="10.00">amr_wind::pde::icns</text>
<text text-anchor="middle" x="289.5" y="-871" font-family="Helvetica,sans-Serif" font-size="10.00">::BodyForce</text>
</a>
</g>
</g>
<!-- Node2&#45;&gt;Node6 -->
<g id="edge9_Node000002_Node000006" class="edge">
<title>Node2&#45;&gt;Node6</title>
<g id="a_edge9_Node000002_Node000006"><a xlink:title=" ">
<path fill="none" stroke="#63b8ff" d="M98.17,-669.17C113.87,-715.83 150.34,-805.29 212,-855 218.07,-859.89 225.14,-863.79 232.49,-866.9"/>
<polygon fill="#63b8ff" stroke="#63b8ff" points="101.48,-668.04 95.04,-659.63 94.83,-670.22 101.48,-668.04"/>
</a>
</g>
</g>
<!-- Node7 -->
<g id="Node000007" class="node">
<title>Node7</title>
<g id="a_Node000007"><a xlink:href="classamr__wind_1_1pde_1_1icns_1_1_boussinesq_buoyancy.html" target="_top" xlink:title=" ">
<polygon fill="white" stroke="#666666" points="352.5,-846 226.5,-846 226.5,-816 352.5,-816 352.5,-846"/>
<text text-anchor="start" x="234.5" y="-834" font-family="Helvetica,sans-Serif" font-size="10.00">amr_wind::pde::icns</text>
<text text-anchor="middle" x="289.5" y="-823" font-family="Helvetica,sans-Serif" font-size="10.00">::BoussinesqBuoyancy</text>
</a>
</g>
</g>
<!-- Node2&#45;&gt;Node7 -->
<g id="edge10_Node000002_Node000007" class="edge">
<title>Node2&#45;&gt;Node7</title>
<g id="a_edge10_Node000002_Node000007"><a xlink:title=" ">
<path fill="none" stroke="#63b8ff" d="M103.11,-668.54C122.52,-706.1 160.93,-770.43 212,-807 216.75,-810.4 222.01,-813.34 227.47,-815.86"/>
<polygon fill="#63b8ff" stroke="#63b8ff" points="106.23,-666.95 98.59,-659.61 99.98,-670.11 106.23,-666.95"/>
</a>
</g>
</g>
<!-- Node8 -->
<g id="Node000008" class="node">
<title>Node8</title>
<g id="a_Node000008"><a xlink:href="classamr__wind_1_1pde_1_1icns_1_1_burggraf_flow_forcing.html" target="_top" xlink:title=" ">
<polygon fill="white" stroke="#666666" points="351,-798 228,-798 228,-768 351,-768 351,-798"/>
<text text-anchor="start" x="236" y="-786" font-family="Helvetica,sans-Serif" font-size="10.00">amr_wind::pde::icns</text>
<text text-anchor="middle" x="289.5" y="-775" font-family="Helvetica,sans-Serif" font-size="10.00">::BurggrafFlowForcing</text>
</a>
</g>
</g>
<!-- Node2&#45;&gt;Node8 -->
<g id="edge11_Node000002_Node000008" class="edge">
<title>Node2&#45;&gt;Node8</title>
<g id="a_edge11_Node000002_Node000008"><a xlink:title=" ">
<path fill="none" stroke="#63b8ff" d="M111.62,-667.83C134.31,-694.94 171.61,-734.87 212,-759 217.62,-762.36 223.75,-765.29 230.02,-767.84"/>
<polygon fill="#63b8ff" stroke="#63b8ff" points="114.12,-665.35 105.06,-659.85 108.71,-669.8 114.12,-665.35"/>
</a>
</g>
</g>
<!-- Node9 -->
<g id="Node000009" class="node">
<title>Node9</title>
<g id="a_Node000009"><a xlink:href="classamr__wind_1_1pde_1_1icns_1_1_coriolis_forcing.html" target="_top" xlink:title=" ">
<polygon fill="white" stroke="#666666" points="346.5,-750 232.5,-750 232.5,-720 346.5,-720 346.5,-750"/>
<text text-anchor="start" x="240.5" y="-738" font-family="Helvetica,sans-Serif" font-size="10.00">amr_wind::pde::icns</text>
<text text-anchor="middle" x="289.5" y="-727" font-family="Helvetica,sans-Serif" font-size="10.00">::CoriolisForcing</text>
</a>
</g>
</g>
<!-- Node2&#45;&gt;Node9 -->
<g id="edge12_Node000002_Node000009" class="edge">
<title>Node2&#45;&gt;Node9</title>
<g id="a_edge12_Node000002_Node000009"><a xlink:title=" ">
<path fill="none" stroke="#63b8ff" d="M128.22,-665.03C151.8,-679.89 182.81,-698.08 212,-711 219.25,-714.21 227.07,-717.18 234.84,-719.86"/>
<polygon fill="#63b8ff" stroke="#63b8ff" points="129.88,-661.94 119.57,-659.52 126.12,-667.84 129.88,-661.94"/>
</a>
</g>
</g>
<!-- Node10 -->
<g id="Node000010" class="node">
<title>Node10</title>
<g id="a_Node000010"><a xlink:href="classamr__wind_1_1pde_1_1icns_1_1_density_buoyancy.html" target="_top" xlink:title=" ">
<polygon fill="white" stroke="#666666" points="346.5,-702 232.5,-702 232.5,-672 346.5,-672 346.5,-702"/>
<text text-anchor="start" x="240.5" y="-690" font-family="Helvetica,sans-Serif" font-size="10.00">amr_wind::pde::icns</text>
<text text-anchor="middle" x="289.5" y="-679" font-family="Helvetica,sans-Serif" font-size="10.00">::DensityBuoyancy</text>
</a>
</g>
</g>
<!-- Node2&#45;&gt;Node10 -->
<g id="edge13_Node000002_Node000010" class="edge">
<title>Node2&#45;&gt;Node10</title>
<g id="a_edge13_Node000002_Node000010"><a xlink:title=" ">
<path fill="none" stroke="#63b8ff" d="M168.77,-658.19C190.03,-663.31 212.55,-668.73 232.26,-673.47"/>
<polygon fill="#63b8ff" stroke="#63b8ff" points="169.32,-654.72 158.78,-655.79 167.68,-661.53 169.32,-654.72"/>
</a>
</g>
</g>
<!-- Node11 -->
<g id="Node000011" class="node">
<title>Node11</title>
<g id="a_Node000011"><a xlink:href="classamr__wind_1_1pde_1_1icns_1_1_drag_forcing.html" target="_top" xlink:title=" ">
<polygon fill="white" stroke="#666666" points="346.5,-654 232.5,-654 232.5,-624 346.5,-624 346.5,-654"/>
<text text-anchor="start" x="240.5" y="-642" font-family="Helvetica,sans-Serif" font-size="10.00">amr_wind::pde::icns</text>
<text text-anchor="middle" x="289.5" y="-631" font-family="Helvetica,sans-Serif" font-size="10.00">::DragForcing</text>
</a>
</g>
</g>
<!-- Node2&#45;&gt;Node11 -->
<g id="edge14_Node000002_Node000011" class="edge">
<title>Node2&#45;&gt;Node11</title>
<g id="a_edge14_Node000002_Node000011"><a xlink:title=" ">
<path fill="none" stroke="#63b8ff" d="M169.05,-639C190.23,-639 212.64,-639 232.26,-639"/>
<polygon fill="#63b8ff" stroke="#63b8ff" points="168.78,-635.5 158.78,-639 168.78,-642.5 168.78,-635.5"/>
</a>
</g>
</g>
<!-- Node12 -->
<g id="Node000012" class="node">
<title>Node12</title>
<g id="a_Node000012"><a xlink:href="classamr__wind_1_1pde_1_1icns_1_1_geostrophic_forcing.html" target="_top" xlink:title=" ">
<polygon fill="white" stroke="#666666" points="347.5,-606 231.5,-606 231.5,-576 347.5,-576 347.5,-606"/>
<text text-anchor="start" x="239.5" y="-594" font-family="Helvetica,sans-Serif" font-size="10.00">amr_wind::pde::icns</text>
<text text-anchor="middle" x="289.5" y="-583" font-family="Helvetica,sans-Serif" font-size="10.00">::GeostrophicForcing</text>
</a>
</g>
</g>
<!-- Node2&#45;&gt;Node12 -->
<g id="edge15_Node000002_Node000012" class="edge">
<title>Node2&#45;&gt;Node12</title>
<g id="a_edge15_Node000002_Node000012"><a xlink:title=" ">
<path fill="none" stroke="#63b8ff" d="M168.62,-619.84C189.58,-614.8 211.77,-609.46 231.29,-604.76"/>
<polygon fill="#63b8ff" stroke="#63b8ff" points="167.68,-616.47 158.78,-622.21 169.32,-623.28 167.68,-616.47"/>
</a>
</g>
</g>
<!-- Node13 -->
<g id="Node000013" class="node">
<title>Node13</title>
<g id="a_Node000013"><a xlink:href="classamr__wind_1_1pde_1_1icns_1_1_gravity_forcing.html" target="_top" xlink:title=" ">
<polygon fill="white" stroke="#666666" points="346.5,-558 232.5,-558 232.5,-528 346.5,-528 346.5,-558"/>
<text text-anchor="start" x="240.5" y="-546" font-family="Helvetica,sans-Serif" font-size="10.00">amr_wind::pde::icns</text>
<text text-anchor="middle" x="289.5" y="-535" font-family="Helvetica,sans-Serif" font-size="10.00">::GravityForcing</text>
</a>
</g>
</g>
<!-- Node2&#45;&gt;Node13 -->
<g id="edge16_Node000002_Node000013" class="edge">
<title>Node2&#45;&gt;Node13</title>
<g id="a_edge16_Node000002_Node000013"><a xlink:title=" ">
<path fill="none" stroke="#63b8ff" d="M128.22,-612.97C151.8,-598.11 182.81,-579.92 212,-567 219.25,-563.79 227.07,-560.82 234.84,-558.14"/>
<polygon fill="#63b8ff" stroke="#63b8ff" points="126.12,-610.16 119.57,-618.48 129.88,-616.06 126.12,-610.16"/>
</a>
</g>
</g>
<!-- Node14 -->
<g id="Node000014" class="node">
<title>Node14</title>
<g id="a_Node000014"><a xlink:href="classamr__wind_1_1pde_1_1icns_1_1_hurricane_forcing.html" target="_top" xlink:title=" ">
<polygon fill="white" stroke="#666666" points="346.5,-510 232.5,-510 232.5,-480 346.5,-480 346.5,-510"/>
<text text-anchor="start" x="240.5" y="-498" font-family="Helvetica,sans-Serif" font-size="10.00">amr_wind::pde::icns</text>
<text text-anchor="middle" x="289.5" y="-487" font-family="Helvetica,sans-Serif" font-size="10.00">::HurricaneForcing</text>
</a>
</g>
</g>
<!-- Node2&#45;&gt;Node14 -->
<g id="edge17_Node000002_Node000014" class="edge">
<title>Node2&#45;&gt;Node14</title>
<g id="a_edge17_Node000002_Node000014"><a xlink:title=" ">
<path fill="none" stroke="#63b8ff" d="M111.62,-610.17C134.31,-583.06 171.61,-543.13 212,-519 218.33,-515.22 225.32,-511.97 232.43,-509.2"/>
<polygon fill="#63b8ff" stroke="#63b8ff" points="108.71,-608.2 105.06,-618.15 114.12,-612.65 108.71,-608.2"/>
</a>
</g>
</g>
<!-- Node15 -->
<g id="Node000015" class="node">
<title>Node15</title>
<g id="a_Node000015"><a xlink:href="classamr__wind_1_1pde_1_1icns_1_1_non_linear_s_g_s_term.html" target="_top" xlink:title=" ">
<polygon fill="white" stroke="#666666" points="347.5,-462 231.5,-462 231.5,-432 347.5,-432 347.5,-462"/>
<text text-anchor="start" x="239.5" y="-450" font-family="Helvetica,sans-Serif" font-size="10.00">amr_wind::pde::icns</text>
<text text-anchor="middle" x="289.5" y="-439" font-family="Helvetica,sans-Serif" font-size="10.00">::NonLinearSGSTerm</text>
</a>
</g>
</g>
<!-- Node2&#45;&gt;Node15 -->
<g id="edge18_Node000002_Node000015" class="edge">
<title>Node2&#45;&gt;Node15</title>
<g id="a_edge18_Node000002_Node000015"><a xlink:title=" ">
<path fill="none" stroke="#63b8ff" d="M103.11,-609.46C122.52,-571.9 160.93,-507.57 212,-471 217.89,-466.79 224.54,-463.29 231.4,-460.4"/>
<polygon fill="#63b8ff" stroke="#63b8ff" points="99.98,-607.89 98.59,-618.39 106.23,-611.05 99.98,-607.89"/>
</a>
</g>
</g>
<!-- Node16 -->
<g id="Node000016" class="node">
<title>Node16</title>
<g id="a_Node000016"><a xlink:href="classamr__wind_1_1pde_1_1icns_1_1_rayleigh_damping.html" target="_top" xlink:title=" ">
<polygon fill="white" stroke="#666666" points="346.5,-414 232.5,-414 232.5,-384 346.5,-384 346.5,-414"/>
<text text-anchor="start" x="240.5" y="-402" font-family="Helvetica,sans-Serif" font-size="10.00">amr_wind::pde::icns</text>
<text text-anchor="middle" x="289.5" y="-391" font-family="Helvetica,sans-Serif" font-size="10.00">::RayleighDamping</text>
</a>
</g>
</g>
<!-- Node2&#45;&gt;Node16 -->
<g id="edge19_Node000002_Node000016" class="edge">
<title>Node2&#45;&gt;Node16</title>
<g id="a_edge19_Node000002_Node000016"><a xlink:title=" ">
<path fill="none" stroke="#63b8ff" d="M98.17,-608.83C113.87,-562.17 150.34,-472.71 212,-423 218.07,-418.11 225.14,-414.21 232.49,-411.1"/>
<polygon fill="#63b8ff" stroke="#63b8ff" points="94.83,-607.78 95.04,-618.37 101.48,-609.96 94.83,-607.78"/>
</a>
</g>
</g>
<!-- Node17 -->
<g id="Node000017" class="node">
<title>Node17</title>
<g id="a_Node000017"><a xlink:href="classamr__wind_1_1pde_1_1icns_1_1_synth_turb_forcing.html" target="_top" xlink:title=" ">
<polygon fill="white" stroke="#666666" points="346.5,-366 232.5,-366 232.5,-336 346.5,-336 346.5,-366"/>
<text text-anchor="start" x="240.5" y="-354" font-family="Helvetica,sans-Serif" font-size="10.00">amr_wind::pde::icns</text>
<text text-anchor="middle" x="289.5" y="-343" font-family="Helvetica,sans-Serif" font-size="10.00">::SynthTurbForcing</text>
</a>
</g>
</g>
<!-- Node2&#45;&gt;Node17 -->
<g id="edge20_Node000002_Node000017" class="edge">
<title>Node2&#45;&gt;Node17</title>
<g id="a_edge20_Node000002_Node000017"><a xlink:title=" ">
<path fill="none" stroke="#63b8ff" d="M94.77,-608.64C106.74,-553.92 139.47,-438.54 212,-375 217.86,-369.86 224.82,-365.83 232.12,-362.65"/>
<polygon fill="#63b8ff" stroke="#63b8ff" points="91.34,-607.93 92.71,-618.44 98.19,-609.37 91.34,-607.93"/>
</a>
</g>
</g>
<!-- Node18 -->
<g id="Node000018" class="node">
<title>Node18</title>
<g id="a_Node000018"><a xlink:href="classamr__wind_1_1pde_1_1icns_1_1mms_1_1_m_m_s_forcing.html" target="_top" xlink:title=" ">
<polygon fill="white" stroke="#666666" points="346.5,-318 232.5,-318 232.5,-288 346.5,-288 346.5,-318"/>
<text text-anchor="start" x="240.5" y="-306" font-family="Helvetica,sans-Serif" font-size="10.00">amr_wind::pde::icns</text>
<text text-anchor="middle" x="289.5" y="-295" font-family="Helvetica,sans-Serif" font-size="10.00">::mms::MMSForcing</text>
</a>
</g>
</g>
<!-- Node2&#45;&gt;Node18 -->
<g id="edge21_Node000002_Node000018" class="edge">
<title>Node2&#45;&gt;Node18</title>
<g id="a_edge21_Node000002_Node000018"><a xlink:title=" ">
<path fill="none" stroke="#63b8ff" d="M92.38,-608.13C100.84,-545.87 128.61,-404.63 212,-327 217.81,-321.59 224.82,-317.41 232.22,-314.16"/>
<polygon fill="#63b8ff" stroke="#63b8ff" points="88.9,-607.75 91.1,-618.11 95.84,-608.64 88.9,-607.75"/>
</a>
</g>
</g>
<!-- Node20 -->
<g id="Node000020" class="node">
<title>Node20</title>
<g id="a_Node000020"><a xlink:title=" ">
<polygon fill="#e0e0e0" stroke="#999999" points="166,-131.5 10,-131.5 10,-90.5 166,-90.5 166,-131.5"/>
<text text-anchor="start" x="18" y="-119.5" font-family="Helvetica,sans-Serif" font-size="10.00">amr_wind::Factory&lt;</text>
<text text-anchor="start" x="18" y="-108.5" font-family="Helvetica,sans-Serif" font-size="10.00"> TemperatureSource,</text>
<text text-anchor="middle" x="88" y="-97.5" font-family="Helvetica,sans-Serif" font-size="10.00"> const CFDSim &amp; &gt;::Register</text>
</a>
</g>
</g>
<!-- Node20&#45;&gt;Node19 -->
<g id="edge22_Node000020_Node000019" class="edge">
<title>Node20&#45;&gt;Node19</title>
<g id="a_edge22_Node000020_Node000019"><a xlink:title=" ">
<path fill="none" stroke="#63b8ff" d="M128.22,-137.03C151.8,-151.89 182.81,-170.08 212,-183 219.25,-186.21 227.07,-189.18 234.84,-191.86"/>
<polygon fill="#63b8ff" stroke="#63b8ff" points="129.88,-133.94 119.57,-131.52 126.12,-139.84 129.88,-133.94"/>
</a>
</g>
</g>
<!-- Node21 -->
<g id="Node000021" class="node">
<title>Node21</title>
<g id="a_Node000021"><a xlink:href="classamr__wind_1_1pde_1_1temperature_1_1_body_force.html" target="_top" xlink:title=" ">
<polygon fill="white" stroke="#666666" points="367,-174 212,-174 212,-144 367,-144 367,-174"/>
<text text-anchor="start" x="220" y="-162" font-family="Helvetica,sans-Serif" font-size="10.00">amr_wind::pde::temperature</text>
<text text-anchor="middle" x="289.5" y="-151" font-family="Helvetica,sans-Serif" font-size="10.00">::BodyForce</text>
</a>
</g>
</g>
<!-- Node20&#45;&gt;Node21 -->
<g id="edge23_Node000020_Node000021" class="edge">
<title>Node20&#45;&gt;Node21</title>
<g id="a_edge23_Node000020_Node000021"><a xlink:title=" ">
<path fill="none" stroke="#63b8ff" d="M175.99,-131.93C192.85,-135.99 210.2,-140.16 226.08,-143.98"/>
<polygon fill="#63b8ff" stroke="#63b8ff" points="176.67,-128.49 166.13,-129.56 175.04,-135.3 176.67,-128.49"/>
</a>
</g>
</g>
<!-- Node22 -->
<g id="Node000022" class="node">
<title>Node22</title>
<g id="a_Node000022"><a xlink:href="classamr__wind_1_1pde_1_1temperature_1_1_drag_temp_forcing.html" target="_top" xlink:title=" ">
<polygon fill="white" stroke="#666666" points="367,-126 212,-126 212,-96 367,-96 367,-126"/>
<text text-anchor="start" x="220" y="-114" font-family="Helvetica,sans-Serif" font-size="10.00">amr_wind::pde::temperature</text>
<text text-anchor="middle" x="289.5" y="-103" font-family="Helvetica,sans-Serif" font-size="10.00">::DragTempForcing</text>
</a>
</g>
</g>
<!-- Node20&#45;&gt;Node22 -->
<g id="edge24_Node000020_Node000022" class="edge">
<title>Node20&#45;&gt;Node22</title>
<g id="a_edge24_Node000020_Node000022"><a xlink:title=" ">
<path fill="none" stroke="#63b8ff" d="M176.44,-111C188.25,-111 200.3,-111 211.9,-111"/>
<polygon fill="#63b8ff" stroke="#63b8ff" points="176.13,-107.5 166.13,-111 176.13,-114.5 176.13,-107.5"/>
</a>
</g>
</g>
<!-- Node23 -->
<g id="Node000023" class="node">
<title>Node23</title>
<g id="a_Node000023"><a xlink:href="classamr__wind_1_1pde_1_1temperature_1_1_hurricane_temp_forcing.html" target="_top" xlink:title=" ">
<polygon fill="white" stroke="#666666" points="367,-78 212,-78 212,-48 367,-48 367,-78"/>
<text text-anchor="start" x="220" y="-66" font-family="Helvetica,sans-Serif" font-size="10.00">amr_wind::pde::temperature</text>
<text text-anchor="middle" x="289.5" y="-55" font-family="Helvetica,sans-Serif" font-size="10.00">::HurricaneTempForcing</text>
</a>
</g>
</g>
<!-- Node20&#45;&gt;Node23 -->
<g id="edge25_Node000020_Node000023" class="edge">
<title>Node20&#45;&gt;Node23</title>
<g id="a_edge25_Node000020_Node000023"><a xlink:title=" ">
<path fill="none" stroke="#63b8ff" d="M175.99,-90.07C192.85,-86.01 210.2,-81.84 226.08,-78.02"/>
<polygon fill="#63b8ff" stroke="#63b8ff" points="175.04,-86.7 166.13,-92.44 176.67,-93.51 175.04,-86.7"/>
</a>
</g>
</g>
<!-- Node24 -->
<g id="Node000024" class="node">
<title>Node24</title>
<g id="a_Node000024"><a xlink:href="classamr__wind_1_1pde_1_1temperature_1_1_temp_sponge_forcing.html" target="_top" xlink:title=" ">
<polygon fill="white" stroke="#666666" points="367,-30 212,-30 212,0 367,0 367,-30"/>
<text text-anchor="start" x="220" y="-18" font-family="Helvetica,sans-Serif" font-size="10.00">amr_wind::pde::temperature</text>
<text text-anchor="middle" x="289.5" y="-7" font-family="Helvetica,sans-Serif" font-size="10.00">::TempSpongeForcing</text>
</a>
</g>
</g>
<!-- Node20&#45;&gt;Node24 -->
<g id="edge26_Node000020_Node000024" class="edge">
<title>Node20&#45;&gt;Node24</title>
<g id="a_edge26_Node000020_Node000024"><a xlink:title=" ">
<path fill="none" stroke="#63b8ff" d="M128.22,-84.97C151.8,-70.11 182.81,-51.92 212,-39 219.25,-35.79 227.07,-32.82 234.84,-30.14"/>
<polygon fill="#63b8ff" stroke="#63b8ff" points="126.12,-82.16 119.57,-90.48 129.88,-88.06 126.12,-82.16"/>
</a>
</g>
</g>
</g>
</svg>
